<svg viewBox="0 0 65.944522222 39.67405" width="65.944522222pt" height="39.67405pt" xmlns="http://www.w3.org/2000/svg" xmlns:xlink="http://www.w3.org/1999/xlink" xmlns:h5="http://www.w3.org/1999/xhtml"><g transform="matrix(1 0 0 -1 6.5 23.64505)"><use xlink:href="#g12B4F1BE3978ADFC0F4394F2E572B20F" x="0" y="0" fill="#e6edf3" fill-rule="nonzero"/></g><g transform="matrix(1 0 0 -1 18.249111111 23.64505)"><use xlink:href="#g13AFF74D87C474CFAF661EEAD0458F8B" x="0" y="0" fill="#e6edf3" fill-rule="nonzero"/></g><g transform="matrix(1 0 0 -1 37.261322222 14.84405)"><use xlink:href="#g37A25FD9304FC623B4D612A207BC8176" x="0" y="0" fill="#e6edf3" fill-rule="nonzero"/></g><g transform="matrix(1 0 0 -1 44.996322222 9.9424)"><use xlink:href="#g8A6A9074F91D642F82CC8BE39AC39D3A" x="0" y="0" fill="#e6edf3" fill-rule="nonzero"/></g><g transform="matrix(1 0 0 -1 44.684322222 18.2377)"><use xlink:href="#gF4E8A84134BE0B8D6A91BF47FAD7A8FF" x="0" y="0" fill="#e6edf3" fill-rule="nonzero"/></g><g transform="matrix(1 0 0 -1 33.274222222 32.56305)"><use xlink:href="#gCD18A55F4CC2CA429D96672C565B9565" x="0" y="0" fill="#e6edf3" fill-rule="nonzero"/></g><g transform="matrix(1 0 0 -1 40.047222222 35.77405)"><use xlink:href="#gC7B20184179011BBC954B5E7CD84FB69" x="0" y="0" fill="#e6edf3" fill-rule="nonzero"/></g><g transform="matrix(1 0 0 -1 48.628522222 32.56305)"><use xlink:href="#g2D1FD5FA7721AD843D67732819992226" x="0" y="0" fill="#e6edf3" fill-rule="nonzero"/></g><path fill="none" stroke="#e6edf3" stroke-width="0.624" stroke-linecap="butt" stroke-linejoin="miter" stroke-miterlimit="4" transform="translate(33.274222222 20.39505)" d="M 0 0h 24.8703"/><defs><symbol id="g12B4F1BE3978ADFC0F4394F2E572B20F" overflow="visible"><path d="M 0 0m 0.793 4.836c 0.052 -0.091 0.039 -0.169 0.195 -0.169c 0.104 0 0.182 0.052 0.221 0.169c 0.091 0.247 0.351 0.52 0.624 0.52c 0.585 0 1.404 -2.73 1.651 -3.614c 0.065 -0.208 0.091 -0.338 0.104 -0.403l -3.029 -3.419c -0.104 -0.117 -0.156 -0.195 -0.156 -0.234c 0 -0.143 0.065 -0.208 0.208 -0.208c 0.065 0 0.143 0.052 0.234 0.156l 2.886 3.237c 0.364 -1.209 0.65 -2.028 0.845 -2.483c 0.065 -0.169 0.143 -0.325 0.234 -0.455c 0.221 -0.338 0.832 -0.598 1.404 -0.598c 0.468 0 1.131 0.416 1.131 0.884c 0 0.13 -0.065 0.195 -0.195 0.195c -0.091 0 -0.169 -0.065 -0.234 -0.208c -0.117 -0.325 -0.325 -0.481 -0.624 -0.481c -0.403 0 -0.988 1.339 -1.755 4.03l 3.029 3.406c 0.104 0.117 0.156 0.195 0.156 0.234c 0 0.143 -0.065 0.208 -0.208 0.208c -0.065 0 -0.143 -0.052 -0.234 -0.169l -2.886 -3.211c -0.403 1.3 -0.702 2.158 -0.884 2.561c -0.091 0.195 -0.221 0.39 -0.403 0.572c -0.247 0.26 -0.637 0.39 -1.196 0.39c -0.494 0 -1.118 -0.442 -1.118 -0.91Z "/></symbol><symbol id="g13AFF74D87C474CFAF661EEAD0458F8B" overflow="visible"><path d="M 0 0m 9.074 4.771h -8.034c -0.208 0 -0.312 -0.104 -0.312 -0.299c 0 -0.195 0.104 -0.299 0.312 -0.299h 8.034c 0.208 0 0.312 0.104 0.312 0.299c 0 0.156 -0.143 0.299 -0.312 0.299Z m 0 -2.444h -8.034c -0.208 0 -0.312 -0.104 -0.312 -0.299c 0 -0.195 0.104 -0.299 0.312 -0.299h 8.034c 0.208 0 0.312 0.104 0.312 0.299c 0 0.169 -0.143 0.299 -0.312 0.299Z "/></symbol><symbol id="g37A25FD9304FC623B4D612A207BC8176" overflow="visible"><path d="M 0 0m 6.825 5.603h -2.925c -0.624 0 -1.209 -0.195 -1.742 -0.598c -0.832 -0.637 -1.664 -1.755 -1.664 -3.081c 0 -1.17 0.806 -2.067 1.976 -2.067c 0.871 0 1.651 0.377 2.314 1.131c 0.637 0.728 0.949 1.534 0.949 2.431c 0 0.533 -0.117 0.975 -0.351 1.339h 1.313c 0.455 0 0.676 0.156 0.676 0.481c 0 0.299 -0.221 0.364 -0.546 0.364Z m -5.434 -4.03c 0 0.767 0.182 1.469 0.559 2.093c 0.442 0.728 1.014 1.092 1.729 1.092c 0.754 0 1.131 -0.39 1.131 -1.183c 0 -0.325 -0.065 -0.702 -0.195 -1.144c -0.26 -0.923 -0.689 -1.573 -1.287 -1.924c -0.299 -0.182 -0.585 -0.273 -0.845 -0.273c -0.715 0 -1.092 0.585 -1.092 1.339Z "/></symbol><symbol id="g8A6A9074F91D642F82CC8BE39AC39D3A" overflow="visible"><path d="M 0 0m 1.0829 3.8584c 0.2912 0 0.5096 0.2184 0.5096 0.5096c 0 0.3276 -0.1729 0.5005 -0.5096 0.5096c 0.2002 0.4277 0.6552 0.7735 1.2467 0.7735c 0.8008 0 1.3286 -0.6006 1.3286 -1.4014c 0 -0.4368 -0.1547 -0.8554 -0.4732 -1.2649c -0.1547 -0.2093 -0.273 -0.3549 -0.3549 -0.4368l -2.1567 -2.1385c -0.1183 -0.1092 -0.1001 -0.1365 -0.1001 -0.4095h 3.7492l 0.2821 1.7108h -0.3822c -0.0637 -0.4823 -0.1365 -0.7644 -0.2184 -0.8281c -0.0455 -0.0273 -0.3276 -0.0455 -0.8645 -0.0455h -1.547c 0.6097 0.5369 1.1739 1.0192 1.7108 1.4469c 0.4095 0.3185 0.7007 0.6006 0.8827 0.8463c 0.273 0.3549 0.4095 0.728 0.4095 1.1193c 0 0.5642 -0.2184 1.0101 -0.6643 1.3377c -0.3913 0.3003 -0.8827 0.455 -1.4651 0.455c -0.5005 0 -0.9282 -0.1456 -1.3013 -0.4368c -0.3913 -0.3185 -0.5915 -0.7189 -0.5915 -1.2103c 0 -0.3094 0.2275 -0.5369 0.5096 -0.5369Z "/></symbol><symbol id="gF4E8A84134BE0B8D6A91BF47FAD7A8FF" overflow="visible"><path d="M 0 0m 7.4802 6.1789c -0.1911 0 -0.8554 0.0364 -1.0465 0.0364c -0.1456 0 -0.2184 -0.0819 -0.2184 -0.2366c 0.0273 -0.091 0.0364 -0.1547 0.1729 -0.1547c 0.182 -0.0273 0.273 -0.091 0.273 -0.1911c 0 -0.091 -0.0728 -0.2093 -0.2184 -0.3458l -1.5106 -1.4833l -0.8918 1.7199c -0.0273 0.0455 -0.0455 0.0819 -0.0455 0.1092c 0.0637 0.1274 0.273 0.1911 0.4368 0.1911c 0.1547 0 0.2366 0.0819 0.2366 0.2366c -0.0273 0.091 -0.0455 0.1547 -0.1911 0.1547c -0.1183 0 -0.4914 -0.0273 -0.6006 -0.0273c -0.5915 -0.0091 -0.9646 -0.0091 -1.1193 0c -0.3094 0.0182 -0.4732 0.0273 -0.4914 0.0273c -0.1547 0 -0.2275 -0.0819 -0.2275 -0.2366c 0 -0.1001 0.1001 -0.1547 0.3003 -0.1547c 0.1638 0 0.2912 -0.0091 0.3822 -0.0364c 0.1638 -0.0546 0.1729 -0.0637 0.2457 -0.2184l 1.2467 -2.457l -1.2376 -1.2285c -0.6552 -0.6279 -1.092 -1.0283 -1.3195 -1.1921c -0.1547 -0.1092 -0.3276 -0.182 -0.5096 -0.2275c -0.0728 -0.0182 -0.2548 -0.0455 -0.5551 -0.0819c -0.091 -0.0091 -0.1365 -0.0819 -0.1365 -0.2184c 0 -0.1092 0.0546 -0.1638 0.1638 -0.1638c 0.1547 0 0.6825 0.0364 0.8372 0.0364c 0.3549 0 0.91 -0.0364 1.0465 -0.0364c 0.1547 0 0.2275 0.0728 0.2275 0.2275c 0 0.1092 -0.0637 0.1638 -0.2002 0.1638c -0.1638 0.0182 -0.2457 0.0819 -0.2457 0.1911c 0 0.091 0.1001 0.2366 0.3094 0.4368l 1.7927 1.7563l 1.0647 -2.093c 0.0273 -0.0455 0.0455 -0.0728 0.0546 -0.1001c -0.0637 -0.1183 -0.2548 -0.1729 -0.4459 -0.1911c -0.1547 -0.0091 -0.2275 -0.0819 -0.2275 -0.2366c 0.0273 -0.1001 0.0364 -0.1547 0.182 -0.1547c 0.1092 0 0.5005 0.0273 0.6097 0.0273c 0.5915 0.0091 0.9646 0.0091 1.1193 0c 0.3094 -0.0182 0.4732 -0.0273 0.4823 -0.0273c 0.1547 0 0.2275 0.0819 0.2275 0.2366c 0 0.1001 -0.1001 0.1547 -0.3003 0.1547c -0.3276 0 -0.5096 0.0273 -0.6097 0.2366l -1.4469 2.8392l 0.8372 0.8372c 0.6188 0.6097 1.0647 1.0192 1.3468 1.2103c 0.3367 0.2366 0.5187 0.2457 1.0738 0.3185c 0.091 0.0091 0.1365 0.0819 0.1365 0.2093c 0 0.1183 -0.0546 0.1729 -0.1638 0.1729c -0.1547 0 -0.6916 -0.0364 -0.8463 -0.0364Z "/></symbol><symbol id="gCD18A55F4CC2CA429D96672C565B9565" overflow="visible"><path d="M 0 0m 5.317 4.589c 0 -0.338 0.182 -0.507 0.533 -0.507c 0.455 0 0.754 0.403 0.754 0.845c 0 0.507 -0.416 0.858 -0.923 0.858c -0.585 0 -1.209 -0.39 -1.898 -1.157c -0.533 -0.585 -0.962 -0.962 -1.313 -1.131l 1.313 5.33c -0.026 0.117 -0.052 0.195 -0.221 0.195c -0.416 0 -1.404 -0.117 -1.56 -0.13c -0.195 -0.026 -0.286 -0.117 -0.286 -0.312c 0 -0.13 0.117 -0.195 0.351 -0.195c 0.247 0 0.585 0.013 0.585 -0.169l -1.885 -7.657c -0.039 -0.143 -0.052 -0.234 -0.052 -0.286c 0 -0.273 0.143 -0.416 0.416 -0.416c 0.221 0 0.39 0.104 0.481 0.299c 0.065 0.117 0.299 1.04 0.715 2.782c 0.676 -0.065 1.391 -0.39 1.391 -1.04c 0 -0.195 -0.091 -0.585 -0.091 -0.715c 0 -0.741 0.481 -1.326 1.222 -1.326c 0.754 0 1.261 0.676 1.521 2.028c 0 0.117 -0.065 0.182 -0.195 0.182c -0.117 0 -0.195 -0.091 -0.234 -0.273c -0.286 -1.027 -0.637 -1.547 -1.066 -1.547c -0.234 0 -0.351 0.182 -0.351 0.546c 0 0.208 0.156 0.91 0.156 1.118c 0 0.741 -0.598 1.196 -1.807 1.378c 0.299 0.208 0.637 0.507 1.001 0.897c 0.364 0.39 0.624 0.637 0.793 0.78c 0.351 0.286 0.689 0.429 0.988 0.429c 0.13 0 0.234 -0.026 0.312 -0.078c -0.351 -0.065 -0.65 -0.39 -0.65 -0.728Z "/></symbol><symbol id="gC7B20184179011BBC954B5E7CD84FB69" overflow="visible"><path d="M 0 0m 7.6167 4.9049c 0 0.4368 -0.2184 0.7735 -0.6552 1.0101c -0.3549 0.2002 -0.7735 0.3003 -1.2467 0.3003h -3.276c -0.2093 0 -0.3276 -0.0273 -0.3276 -0.2366c 0 -0.1001 0.0637 -0.1456 0.1911 -0.1547l 0.4732 -0.0182c 0.1183 -0.0091 0.1729 0 0.1729 -0.091l -1.2285 -4.9686c -0.0455 -0.182 -0.1365 -0.2912 -0.273 -0.3367c -0.0455 -0.0091 -0.2002 -0.0182 -0.4823 -0.0182h -0.1547c -0.1001 -0.0091 -0.1547 -0.0819 -0.1547 -0.2184c 0 -0.1547 0.1183 -0.1729 0.3094 -0.1729h 3.4853c 0.6097 0 1.1921 0.1729 1.7472 0.5096c 0.6461 0.3913 0.9646 0.8736 0.9646 1.4469c 0 0.728 -0.6916 1.1739 -1.3741 1.3013c 0.8099 0.182 1.8291 0.7826 1.8291 1.6471Z m -0.9555 0.0091c 0 -0.455 -0.2275 -0.8281 -0.6734 -1.1284c -0.4004 -0.2639 -0.8372 -0.3913 -1.3195 -0.3913h -1.4287l 0.5369 2.1476c 0.0728 0.273 0.0728 0.2821 0.4277 0.2821h 1.365c 0.6279 0 1.092 -0.3185 1.092 -0.91Z m -0.4823 -2.8938c 0 -0.4732 -0.2184 -0.8736 -0.6461 -1.1921c -0.3913 -0.2912 -0.8281 -0.4368 -1.3195 -0.4368h -1.4469c -0.1729 0 -0.2548 -0.0182 -0.2548 0.0546l 0.6461 2.6208h 1.8837c 0.6643 0 1.1375 -0.3822 1.1375 -1.0465Z "/></symbol><symbol id="g2D1FD5FA7721AD843D67732819992226" overflow="visible"><path d="M 0 0m 4.472 8.203c 0 -0.039 -0.013 -0.13 -0.052 -0.26l -1.716 -6.864c -0.052 -0.195 -0.104 -0.312 -0.143 -0.364c -0.117 -0.143 -0.559 -0.208 -1.339 -0.208c -0.403 0 -0.585 0.039 -0.585 -0.299c 0 -0.143 0.091 -0.208 0.26 -0.208c 0.663 0 1.599 0.052 2.158 0.039l 1.066 -0.013c 0.182 0 0.897 -0.026 1.118 -0.026c 0.221 0 0.325 0.104 0.325 0.312c 0 0.13 -0.156 0.195 -0.481 0.195c -0.676 0 -1.066 0.026 -1.183 0.091c -0.039 0.026 -0.065 0.078 -0.065 0.156l 1.755 7.085c 0.039 0.182 0.078 0.299 0.117 0.338c 0.052 0.078 0.364 0.117 0.936 0.117c 0.715 0 1.209 -0.052 1.456 -0.169c 0.247 -0.117 0.377 -0.39 0.377 -0.832c 0 -0.234 -0.039 -0.572 -0.104 -1.014c -0.026 -0.104 -0.039 -0.182 -0.039 -0.247c 0 -0.143 0.065 -0.221 0.208 -0.221c 0.117 0 0.195 0.117 0.234 0.338l 0.351 2.236c 0.013 0.065 0.026 0.143 0.026 0.221c 0 0.13 -0.13 0.195 -0.403 0.195h -7.124c -0.338 0 -0.364 -0.039 -0.468 -0.286l -0.767 -2.262c -0.039 -0.117 -0.065 -0.195 -0.078 -0.247c 0 -0.13 0.065 -0.195 0.208 -0.195c 0.104 0 0.195 0.104 0.26 0.299c 0.325 0.949 0.65 1.534 0.949 1.781c 0.338 0.273 0.988 0.403 1.937 0.403h 0.507c 0.143 0 0.299 0.013 0.299 -0.091Z "/></symbol></defs></svg>