<svg viewBox="0 0 146.3228 39.0104" width="146.3228pt" height="39.0104pt" xmlns="http://www.w3.org/2000/svg" xmlns:xlink="http://www.w3.org/1999/xlink" xmlns:h5="http://www.w3.org/1999/xhtml"><g transform="matrix(1 0 0 -1 6.5 22.8904)"><use xlink:href="#g9938A6CBBAF7354D1F8588377164559C" x="0" y="0" fill="#e6edf3" fill-rule="nonzero"/></g><g transform="matrix(1 0 0 -1 12.961 26.1014)"><use xlink:href="#g25DCC28C878476EE1CF1DC03C25C6396" x="0" y="0" fill="#e6edf3" fill-rule="nonzero"/></g><g transform="matrix(1 0 0 -1 25.226211111 22.8904)"><use xlink:href="#g13AFF74D87C474CFAF661EEAD0458F8B" x="0" y="0" fill="#e6edf3" fill-rule="nonzero"/></g><g transform="matrix(1 0 0 -1 38.951322222 22.8904)"><use xlink:href="#g6B3DB0E0ADE6D994825CC39624067234" x="0" y="0" fill="#e6edf3" fill-rule="nonzero"/></g><g transform="matrix(1 0 0 -1 48.340211111 22.8904)"><use xlink:href="#g9B543B57F718853EF8F95EF155B6CF69" x="0" y="0" fill="#e6edf3" fill-rule="nonzero"/></g><g transform="matrix(1 0 0 -1 62.6431 12.701)"><use xlink:href="#g2D1FD5FA7721AD843D67732819992226" x="0" y="0" fill="#e6edf3" fill-rule="nonzero"/></g><g transform="matrix(1 0 0 -1 69.8451 15.912)"><use xlink:href="#gAAD6BC2C8137F80591245DBA53D53272" x="0" y="0" fill="#e6edf3" fill-rule="nonzero"/></g><g transform="matrix(1 0 0 -1 63.13905 31.8084)"><use xlink:href="#g2D1FD5FA7721AD843D67732819992226" x="0" y="0" fill="#e6edf3" fill-rule="nonzero"/></g><g transform="matrix(1 0 0 -1 70.34105 35.0194)"><use xlink:href="#g92EDD795C1990AE86A5F909996C892B5" x="0" y="0" fill="#e6edf3" fill-rule="nonzero"/></g><path fill="none" stroke="#e6edf3" stroke-width="0.624" stroke-linecap="butt" stroke-linejoin="miter" stroke-miterlimit="4" transform="translate(62.6431 19.6404)" d="M 0 0h 13.6812"/><g transform="matrix(1 0 0 -1 81.235411111 22.8904)"><use xlink:href="#g13AFF74D87C474CFAF661EEAD0458F8B" x="0" y="0" fill="#e6edf3" fill-rule="nonzero"/></g><g transform="matrix(1 0 0 -1 96.260522222 12.701)"><use xlink:href="#g2D1FD5FA7721AD843D67732819992226" x="0" y="0" fill="#e6edf3" fill-rule="nonzero"/></g><g transform="matrix(1 0 0 -1 103.462522222 15.912)"><use xlink:href="#g92EDD795C1990AE86A5F909996C892B5" x="0" y="0" fill="#e6edf3" fill-rule="nonzero"/></g><g transform="matrix(1 0 0 -1 111.838711111 12.701)"><use xlink:href="#g9B543B57F718853EF8F95EF155B6CF69" x="0" y="0" fill="#e6edf3" fill-rule="nonzero"/></g><g transform="matrix(1 0 0 -1 124.8416 12.701)"><use xlink:href="#g2D1FD5FA7721AD843D67732819992226" x="0" y="0" fill="#e6edf3" fill-rule="nonzero"/></g><g transform="matrix(1 0 0 -1 132.0436 15.912)"><use xlink:href="#gAAD6BC2C8137F80591245DBA53D53272" x="0" y="0" fill="#e6edf3" fill-rule="nonzero"/></g><g transform="matrix(1 0 0 -1 111.047011111 31.8084)"><use xlink:href="#g2D1FD5FA7721AD843D67732819992226" x="0" y="0" fill="#e6edf3" fill-rule="nonzero"/></g><g transform="matrix(1 0 0 -1 118.249011111 35.0194)"><use xlink:href="#g92EDD795C1990AE86A5F909996C892B5" x="0" y="0" fill="#e6edf3" fill-rule="nonzero"/></g><path fill="none" stroke="#e6edf3" stroke-width="0.624" stroke-linecap="butt" stroke-linejoin="miter" stroke-miterlimit="4" transform="translate(96.260522222 19.6404)" d="M 0 0h 42.262277778"/><defs><symbol id="g9938A6CBBAF7354D1F8588377164559C" overflow="visible"><path d="M 0 0m 4.927 5.746c -0.793 0 -1.443 -0.351 -1.95 -1.04c -0.091 0.585 -0.546 1.04 -1.209 1.04c -0.533 0 -0.923 -0.429 -1.196 -1.274c -0.13 -0.429 -0.195 -0.676 -0.195 -0.754c 0 -0.117 0.065 -0.182 0.208 -0.182c 0.065 0 0.104 0.013 0.143 0.039c 0.065 0.117 0.104 0.208 0.117 0.299c 0.234 0.988 0.533 1.482 0.884 1.482c 0.234 0 0.351 -0.182 0.351 -0.533c 0 -0.169 -0.065 -0.533 -0.208 -1.066l -0.741 -2.964c -0.039 -0.169 -0.117 -0.507 -0.117 -0.572c 0 -0.26 0.143 -0.39 0.429 -0.39c 0.247 0 0.429 0.13 0.52 0.39c 0.013 0.065 0.091 0.39 0.234 0.949l 0.286 1.157c 0.156 0.637 0.273 1.118 0.364 1.443c 0.039 0.091 0.143 0.273 0.312 0.533c 0.468 0.702 1.04 1.053 1.729 1.053c 0.429 0 0.637 -0.286 0.637 -0.845c 0 -0.195 -0.039 -0.455 -0.13 -0.793l -1.456 -5.915c -0.026 -0.104 -0.039 -0.169 -0.039 -0.208c 0 -0.273 0.143 -0.403 0.416 -0.403c 0.286 0 0.481 0.182 0.572 0.559l 1.456 5.811c 0.065 0.273 0.104 0.533 0.104 0.754c 0 0.936 -0.585 1.43 -1.521 1.43Z "/></symbol><symbol id="g25DCC28C878476EE1CF1DC03C25C6396" overflow="visible"><path d="M 0 0m 1.6107 2.1112c 0 0.1729 0.0182 0.3731 0.0455 0.6006c 0.091 0.7735 0.6097 1.7199 1.0465 2.1931c 0.5096 0.5733 1.3832 1.092 2.3933 1.092c 1.001 0 1.6198 -0.7189 1.6198 -1.7199c 0 -0.1365 -0.0091 -0.2639 -0.0273 -0.3731c 0 -0.1001 0.0637 -0.1547 0.2002 -0.1547c 0.1092 0 0.182 0.0728 0.2275 0.2275l 0.5551 2.2659c 0 0.1001 -0.0546 0.1547 -0.1547 0.1547c -0.0455 0 -0.1092 -0.0364 -0.1911 -0.1183l -0.6279 -0.6643c -0.4095 0.5187 -0.9737 0.7826 -1.6926 0.7826c -0.7189 0 -1.4196 -0.1911 -2.1021 -0.5642c -1.1102 -0.6188 -2.2659 -1.8746 -2.2659 -3.4398c 0 -0.7735 0.273 -1.4105 0.8281 -1.8928c 0.5278 -0.455 1.183 -0.6825 1.9747 -0.6825c 0.8281 0 1.6016 0.3003 2.3023 0.8918c 0.2093 0.1729 0.3913 0.3913 0.546 0.637c 0.2457 0.3913 0.3731 0.6734 0.3731 0.8463c 0 0.1001 -0.0637 0.1547 -0.1911 0.1547c -0.1001 0 -0.1638 -0.0546 -0.1911 -0.1729c -0.1729 -0.5642 -0.5096 -1.0283 -1.0283 -1.4014c -0.5187 -0.3731 -1.0647 -0.5551 -1.6562 -0.5551c -1.1921 0 -1.9838 0.7007 -1.9838 1.8928Z "/></symbol><symbol id="g13AFF74D87C474CFAF661EEAD0458F8B" overflow="visible"><path d="M 0 0m 9.074 4.771h -8.034c -0.208 0 -0.312 -0.104 -0.312 -0.299c 0 -0.195 0.104 -0.299 0.312 -0.299h 8.034c 0.208 0 0.312 0.104 0.312 0.299c 0 0.156 -0.143 0.299 -0.312 0.299Z m 0 -2.444h -8.034c -0.208 0 -0.312 -0.104 -0.312 -0.299c 0 -0.195 0.104 -0.299 0.312 -0.299h 8.034c 0.208 0 0.312 0.104 0.312 0.299c 0 0.169 -0.143 0.299 -0.312 0.299Z "/></symbol><symbol id="g6B3DB0E0ADE6D994825CC39624067234" overflow="visible"><path d="M 0 0m 3.497 8.658c -0.533 -0.546 -1.313 -0.819 -2.34 -0.819v -0.507c 0.676 0 1.235 0.104 1.664 0.312v -6.578c 0 -0.234 -0.052 -0.39 -0.169 -0.455c -0.117 -0.065 -0.442 -0.104 -0.962 -0.104h -0.455v -0.507c 0.325 0.026 1.027 0.039 2.106 0.039c 1.079 0 1.781 -0.013 2.106 -0.039v 0.507h -0.455c -0.533 0 -0.858 0.039 -0.962 0.104c -0.104 0.065 -0.169 0.221 -0.169 0.455v 7.202c 0 0.312 -0.026 0.39 -0.364 0.39Z "/></symbol><symbol id="g9B543B57F718853EF8F95EF155B6CF69" overflow="visible"><path d="M 0 0m 9.074 3.51h -8.034c -0.208 0 -0.312 -0.091 -0.312 -0.26c 0 -0.169 0.104 -0.26 0.312 -0.26h 8.034c 0.208 0 0.312 0.091 0.312 0.26c 0 0.156 -0.156 0.26 -0.312 0.26Z "/></symbol><symbol id="g2D1FD5FA7721AD843D67732819992226" overflow="visible"><path d="M 0 0m 4.472 8.203c 0 -0.039 -0.013 -0.13 -0.052 -0.26l -1.716 -6.864c -0.052 -0.195 -0.104 -0.312 -0.143 -0.364c -0.117 -0.143 -0.559 -0.208 -1.339 -0.208c -0.403 0 -0.585 0.039 -0.585 -0.299c 0 -0.143 0.091 -0.208 0.26 -0.208c 0.663 0 1.599 0.052 2.158 0.039l 1.066 -0.013c 0.182 0 0.897 -0.026 1.118 -0.026c 0.221 0 0.325 0.104 0.325 0.312c 0 0.13 -0.156 0.195 -0.481 0.195c -0.676 0 -1.066 0.026 -1.183 0.091c -0.039 0.026 -0.065 0.078 -0.065 0.156l 1.755 7.085c 0.039 0.182 0.078 0.299 0.117 0.338c 0.052 0.078 0.364 0.117 0.936 0.117c 0.715 0 1.209 -0.052 1.456 -0.169c 0.247 -0.117 0.377 -0.39 0.377 -0.832c 0 -0.234 -0.039 -0.572 -0.104 -1.014c -0.026 -0.104 -0.039 -0.182 -0.039 -0.247c 0 -0.143 0.065 -0.221 0.208 -0.221c 0.117 0 0.195 0.117 0.234 0.338l 0.351 2.236c 0.013 0.065 0.026 0.143 0.026 0.221c 0 0.13 -0.13 0.195 -0.403 0.195h -7.124c -0.338 0 -0.364 -0.039 -0.468 -0.286l -0.767 -2.262c -0.039 -0.117 -0.065 -0.195 -0.078 -0.247c 0 -0.13 0.065 -0.195 0.208 -0.195c 0.104 0 0.195 0.104 0.26 0.299c 0.325 0.949 0.65 1.534 0.949 1.781c 0.338 0.273 0.988 0.403 1.937 0.403h 0.507c 0.143 0 0.299 0.013 0.299 -0.091Z "/></symbol><symbol id="gAAD6BC2C8137F80591245DBA53D53272" overflow="visible"><path d="M 0 0m 5.4964 5.733c 0 0.4368 -0.455 0.6734 -0.9282 0.6734c -0.2184 0 -0.4277 -0.0637 -0.6279 -0.182c -0.3367 -0.2002 -0.5733 -0.5642 -0.6916 -1.0829c -0.0455 -0.2184 -0.1274 -0.6188 -0.2275 -1.2012h -0.6825c -0.2093 0 -0.3276 -0.0182 -0.3276 -0.2275c 0 -0.1092 0.1001 -0.1638 0.3094 -0.1638h 0.6188l -0.7735 -4.2224c -0.1092 -0.5733 -0.3094 -0.8554 -0.5915 -0.8554h -0.0637c -0.1001 0.0091 -0.182 0.0364 -0.2457 0.0637c 0.1729 0.0819 0.3367 0.2912 0.3367 0.5005c 0 0.2184 -0.1729 0.3731 -0.3913 0.3731c -0.3094 0 -0.546 -0.2821 -0.546 -0.5915c 0 -0.4368 0.4459 -0.6734 0.91 -0.6734c 0.1729 0 0.3549 0.0546 0.5278 0.1729c 0.2366 0.1547 0.4277 0.3731 0.5733 0.637c 0.2275 0.4095 0.4095 1.0192 0.5551 1.8382l 0.4914 2.7573h 0.8554c 0.2184 0 0.3276 0.0273 0.3276 0.2366c 0 0.1001 -0.1092 0.1547 -0.3185 0.1547h -0.7826c 0.182 1.0101 0.2912 1.6016 0.3367 1.7836c 0.0637 0.2366 0.2002 0.3549 0.4277 0.3549h 0.0637c 0.1092 -0.0091 0.2002 -0.0364 0.2639 -0.0637c -0.1729 -0.0819 -0.3367 -0.2912 -0.3367 -0.5005c 0 -0.2184 0.1729 -0.3731 0.3913 -0.3731c 0.3094 0 0.546 0.2821 0.546 0.5915Z "/></symbol><symbol id="g92EDD795C1990AE86A5F909996C892B5" overflow="visible"><path d="M 0 0m 4.3134 1.1466c -0.0546 0 -0.1092 -0.0364 -0.1638 -0.1092c -0.4641 -0.5369 -1.092 -0.8099 -1.8746 -0.8099c -0.6006 0 -0.9009 0.3185 -0.9009 0.9646c 0 0.6188 0.3003 1.456 0.5824 1.82c 0.3458 0.455 0.7553 0.6825 1.2285 0.6825c 0.3185 0 0.546 -0.0728 0.7007 -0.2184c -0.2821 -0.0637 -0.4186 -0.2366 -0.4186 -0.5187c 0 -0.2457 0.1274 -0.364 0.3822 -0.364c 0.3367 0 0.546 0.273 0.546 0.6097c 0 0.5733 -0.5824 0.8099 -1.2103 0.8099c -0.6643 0 -1.274 -0.2457 -1.8109 -0.7553c -0.5369 -0.5096 -0.8099 -1.092 -0.8099 -1.7563c 0 -0.9555 0.7371 -1.5925 1.6926 -1.5925c 0.5642 0 1.0465 0.1092 1.4469 0.3276c 0.2093 0.1183 0.8008 0.5005 0.8008 0.7189c 0 0.0819 -0.1092 0.1911 -0.1911 0.1911Z "/></symbol></defs></svg>