<svg viewBox="0 0 210.652 40.677" width="210.652pt" height="40.677pt" xmlns="http://www.w3.org/2000/svg" xmlns:xlink="http://www.w3.org/1999/xlink" xmlns:h5="http://www.w3.org/1999/xhtml"><g transform="matrix(1 0 0 -1 6.5 24.427)"><use xlink:href="#g23CEEBFA764149797E7EA3D2360CE782" x="0" y="0" fill="#e6edf3" fill-rule="nonzero"/></g><g transform="matrix(1 0 0 -1 22.953666667 15.626)"><use xlink:href="#gD77F475FC23EECB720953A0FA94591CD" x="0" y="0" fill="#e6edf3" fill-rule="nonzero"/></g><g transform="matrix(1 0 0 -1 30.727666667 12.22)"><use xlink:href="#gD061C47BBB8F77D2C04D7186700B709C" x="0" y="0" fill="#e6edf3" fill-rule="nonzero"/></g><g transform="matrix(1 0 0 -1 29.193666667 15.626)"><use xlink:href="#gFCB8EE904C83D15DBBDA0F3192DB537A" x="0" y="0" fill="#e6edf3" fill-rule="nonzero"/></g><g transform="matrix(1 0 0 -1 26.457166667 33.345)"><use xlink:href="#g2D1FD5FA7721AD843D67732819992226" x="0" y="0" fill="#e6edf3" fill-rule="nonzero"/></g><path fill="none" stroke="#e6edf3" stroke-width="0.624" stroke-linecap="butt" stroke-linejoin="miter" stroke-miterlimit="4" transform="translate(22.953666667 21.177)" d="M 0 0h 16.523"/><g transform="matrix(1 0 0 -1 44.387777778 24.427)"><use xlink:href="#gF904AD4F2F6F16E6709428FC91FBDF40" x="0" y="0" fill="#e6edf3" fill-rule="nonzero"/></g><g transform="matrix(1 0 0 -1 58.112888889 24.427)"><use xlink:href="#gC189A0A36A47FB1CBF46D2ED82C939AF" x="0" y="0" fill="#e6edf3" fill-rule="nonzero"/></g><g transform="matrix(1 0 0 -1 77.612888889 24.427)"><use xlink:href="#g54D13866AEE4B213997C37480AEFE31F" x="0" y="0" fill="#e6edf3" fill-rule="nonzero"/></g><g transform="matrix(1 0 0 -1 87.362888889 16.653)"><use xlink:href="#g13AFF74D87C474CFAF661EEAD0458F8B" x="0" y="0" fill="#e6edf3" fill-rule="nonzero"/></g><g transform="matrix(1 0 0 -1 101.088 16.653)"><use xlink:href="#gC189A0A36A47FB1CBF46D2ED82C939AF" x="0" y="0" fill="#e6edf3" fill-rule="nonzero"/></g><g transform="matrix(1 0 0 -1 111.904 16.653)"><use xlink:href="#g8B273DA24598714A1DE03FD5302C001A" x="0" y="0" fill="#e6edf3" fill-rule="nonzero"/><use xlink:href="#g49CA9B429DF3D7281052206316ECCC8A" x="5.772" y="0" fill="#e6edf3" fill-rule="nonzero"/><use xlink:href="#g8B273DA24598714A1DE03FD5302C001A" x="9.386" y="0" fill="#e6edf3" fill-rule="nonzero"/><use xlink:href="#gBC3D9C1A249D0D4F874E09900DF515A4" x="15.158" y="0" fill="#e6edf3" fill-rule="nonzero"/><use xlink:href="#g5D4DFCA3C00979A1E9076032CC813B65" x="18.772" y="0" fill="#e6edf3" fill-rule="nonzero"/><use xlink:href="#gCCDACA59E6D598A65CF16A9645890FC7" x="29.588" y="0" fill="#e6edf3" fill-rule="nonzero"/><use xlink:href="#g7413A85D70934E3816A3D1EE8499A939" x="34.684" y="0" fill="#e6edf3" fill-rule="nonzero"/><use xlink:href="#gC58C3D6655D393441864428999E172F2" x="40.456" y="0" fill="#e6edf3" fill-rule="nonzero"/><use xlink:href="#g7413A85D70934E3816A3D1EE8499A939" x="47.32" y="0" fill="#e6edf3" fill-rule="nonzero"/><use xlink:href="#gCCDACA59E6D598A65CF16A9645890FC7" x="53.092" y="0" fill="#e6edf3" fill-rule="nonzero"/><use xlink:href="#gFD7B4B4FA231C83EBA33EE1F285F6134" x="58.188" y="0" fill="#e6edf3" fill-rule="nonzero"/><use xlink:href="#g49CA9B429DF3D7281052206316ECCC8A" x="63.31" y="0" fill="#e6edf3" fill-rule="nonzero"/><use xlink:href="#gCE586EA61C97F3F66F171E25641C2FB8" x="66.924" y="0" fill="#e6edf3" fill-rule="nonzero"/><use xlink:href="#gBC3D9C1A249D0D4F874E09900DF515A4" x="74.152" y="0" fill="#e6edf3" fill-rule="nonzero"/><use xlink:href="#g7413A85D70934E3816A3D1EE8499A939" x="77.766" y="0" fill="#e6edf3" fill-rule="nonzero"/></g><g transform="matrix(1 0 0 -1 87.362888889 32.201)"><use xlink:href="#g3CDB071E19D0E5A44EA9C23D26C7531F" x="0" y="0" fill="#e6edf3" fill-rule="nonzero"/></g><g transform="matrix(1 0 0 -1 101.088 32.201)"><use xlink:href="#gC189A0A36A47FB1CBF46D2ED82C939AF" x="0" y="0" fill="#e6edf3" fill-rule="nonzero"/></g><g transform="matrix(1 0 0 -1 111.904 32.201)"><use xlink:href="#g8B273DA24598714A1DE03FD5302C001A" x="0" y="0" fill="#e6edf3" fill-rule="nonzero"/><use xlink:href="#g49CA9B429DF3D7281052206316ECCC8A" x="5.772" y="0" fill="#e6edf3" fill-rule="nonzero"/><use xlink:href="#g8B273DA24598714A1DE03FD5302C001A" x="9.386" y="0" fill="#e6edf3" fill-rule="nonzero"/><use xlink:href="#gBC3D9C1A249D0D4F874E09900DF515A4" x="15.158" y="0" fill="#e6edf3" fill-rule="nonzero"/><use xlink:href="#g5D4DFCA3C00979A1E9076032CC813B65" x="18.772" y="0" fill="#e6edf3" fill-rule="nonzero"/><use xlink:href="#g49CA9B429DF3D7281052206316ECCC8A" x="29.588" y="0" fill="#e6edf3" fill-rule="nonzero"/><use xlink:href="#gCCDACA59E6D598A65CF16A9645890FC7" x="33.202" y="0" fill="#e6edf3" fill-rule="nonzero"/><use xlink:href="#gCCDACA59E6D598A65CF16A9645890FC7" x="38.298" y="0" fill="#e6edf3" fill-rule="nonzero"/><use xlink:href="#g7413A85D70934E3816A3D1EE8499A939" x="43.394" y="0" fill="#e6edf3" fill-rule="nonzero"/><use xlink:href="#gC58C3D6655D393441864428999E172F2" x="49.166" y="0" fill="#e6edf3" fill-rule="nonzero"/><use xlink:href="#g7413A85D70934E3816A3D1EE8499A939" x="56.03" y="0" fill="#e6edf3" fill-rule="nonzero"/><use xlink:href="#gCCDACA59E6D598A65CF16A9645890FC7" x="61.802" y="0" fill="#e6edf3" fill-rule="nonzero"/><use xlink:href="#gFD7B4B4FA231C83EBA33EE1F285F6134" x="66.898" y="0" fill="#e6edf3" fill-rule="nonzero"/><use xlink:href="#g49CA9B429DF3D7281052206316ECCC8A" x="72.02" y="0" fill="#e6edf3" fill-rule="nonzero"/><use xlink:href="#gCE586EA61C97F3F66F171E25641C2FB8" x="75.634" y="0" fill="#e6edf3" fill-rule="nonzero"/><use xlink:href="#gBC3D9C1A249D0D4F874E09900DF515A4" x="82.862" y="0" fill="#e6edf3" fill-rule="nonzero"/><use xlink:href="#g7413A85D70934E3816A3D1EE8499A939" x="86.476" y="0" fill="#e6edf3" fill-rule="nonzero"/></g><defs><symbol id="g23CEEBFA764149797E7EA3D2360CE782" overflow="visible"><path d="M 0 0m 10.803 17.693c -0.611 0 -1.157 -0.559 -1.651 -1.677c -0.234 -0.507 -0.507 -1.313 -0.806 -2.418c -0.429 -1.573 -0.936 -3.692 -1.521 -6.37h -0.052c -1.105 0 -2.028 -0.39 -2.795 -1.17c -0.767 -0.78 -1.157 -1.703 -1.157 -2.808c 0 -1.807 1.131 -3.159 2.496 -3.705l -0.182 -1.066c -0.507 -2.951 -0.884 -4.927 -1.131 -5.941c -0.533 -2.223 -1.144 -3.341 -1.82 -3.341c -0.247 0 -0.468 0.065 -0.663 0.208c 0.377 0.065 0.559 0.286 0.559 0.676c 0 0.377 -0.286 0.676 -0.663 0.676c -0.455 0 -0.689 -0.234 -0.689 -0.689c 0 -0.754 0.741 -1.261 1.482 -1.261c 0.949 0 1.729 0.754 2.34 2.249c 0.39 0.949 0.832 2.483 1.313 4.576l 0.845 3.64h 0.065c 1.092 0 2.028 0.39 2.795 1.17c 0.767 0.78 1.157 1.703 1.157 2.808c 0 1.794 -1.17 3.172 -2.522 3.705l 0.195 1.066c 0.429 2.47 0.741 4.16 0.936 5.083c 0.598 2.795 1.092 4.199 1.495 4.199c 0.26 0 0.481 -0.065 0.65 -0.208c -0.377 -0.065 -0.572 -0.286 -0.572 -0.676c 0 -0.377 0.286 -0.676 0.663 -0.676c 0.455 0 0.689 0.234 0.689 0.689c 0 0.715 -0.702 1.261 -1.456 1.261Z m -2.717 -11.44c 1.053 -0.468 1.95 -1.56 1.95 -3.003c 0 -0.897 -0.312 -1.651 -0.923 -2.288c -0.611 -0.637 -1.365 -0.962 -2.249 -0.988Z m -4.576 -3.003c 0 0.884 0.299 1.651 0.91 2.288c 0.611 0.637 1.365 0.962 2.249 0.988l -1.222 -6.279c -1.04 0.481 -1.937 1.56 -1.937 3.003Z "/></symbol><symbol id="gD77F475FC23EECB720953A0FA94591CD" overflow="visible"><path d="M 0 0m 5.876 8.632c 0 0.195 -0.104 0.325 -0.312 0.377c -0.663 0.169 -1.157 0.247 -1.469 0.247c -0.923 0 -1.482 -0.52 -1.482 -1.378c 0 -0.507 0.247 -1.235 0.754 -2.184c -1.339 -0.338 -2.379 -1.521 -2.704 -2.834c -0.065 -0.273 -0.104 -0.546 -0.104 -0.793c 0 -0.494 0.117 -0.936 0.364 -1.313c 0.39 -0.598 0.962 -0.897 1.703 -0.897c 0.546 0 1.04 0.247 1.495 0.754c 0.715 0.819 1.079 1.859 1.079 3.094c 0 0.793 -0.26 1.521 -0.793 2.184l -0.091 0.117c -0.845 1.092 -1.261 1.82 -1.261 2.184c 0 0.078 0.013 0.143 0.052 0.195c 0.13 0.234 0.338 0.351 0.637 0.338c 0.221 0 0.494 -0.104 0.819 -0.299c 0.403 -0.247 0.65 -0.364 0.741 -0.364c 0.286 0 0.572 0.234 0.572 0.572Z m -4.433 -6.929c 0 0.741 0.182 1.456 0.559 2.158c 0.403 0.78 0.923 1.274 1.56 1.469c 0.286 -0.494 0.481 -1.001 0.598 -1.508c 0.039 -0.195 0.052 -0.416 0.052 -0.637c 0 -0.364 -0.039 -0.702 -0.117 -1.027c -0.325 -1.274 -0.819 -1.911 -1.456 -1.911c -0.741 0 -1.196 0.611 -1.196 1.456Z "/></symbol><symbol id="gD061C47BBB8F77D2C04D7186700B709C" overflow="visible"><path d="M 0 0m -5.772 7.917h 4.693v 0.403h -4.693Z "/></symbol><symbol id="gFCB8EE904C83D15DBBDA0F3192DB537A" overflow="visible"><path d="M 0 0m 3.978 -0.312c 0.377 0 0.78 0.065 1.209 0.182c -0.039 -0.494 -0.052 -0.806 -0.052 -0.923c 0 -0.975 0.377 -1.469 1.118 -1.469c 0.793 0 1.404 0.637 1.703 1.222c 0.325 0.676 0.494 1.118 0.494 1.326c 0 0.117 -0.065 0.182 -0.195 0.182c -0.091 0 -0.156 -0.052 -0.195 -0.169c -0.195 -0.598 -0.728 -1.209 -1.456 -1.209c -0.663 0 -0.754 0.533 -0.858 1.248c 1.092 0.429 2.015 1.17 2.756 2.236c 0.741 1.066 1.118 2.171 1.118 3.328c 0 1.027 -0.299 1.859 -0.91 2.522c -0.611 0.663 -1.417 1.001 -2.418 1.001c -0.689 0 -1.378 -0.169 -2.067 -0.52c -1.404 -0.689 -2.431 -1.781 -3.094 -3.25c -0.325 -0.741 -0.494 -1.469 -0.494 -2.21c 0 -2.041 1.326 -3.497 3.341 -3.497Z m 4.407 6.37c 0 -0.793 -0.195 -1.703 -0.585 -2.756c -0.455 -1.209 -1.157 -2.106 -2.132 -2.678c -0.052 0.286 -0.13 0.546 -0.234 0.78c -0.169 0.39 -0.481 0.585 -0.936 0.585c -0.715 0 -1.365 -0.65 -1.365 -1.365c 0 -0.117 0.013 -0.234 0.039 -0.325c -0.871 0.403 -1.3 1.222 -1.3 2.47c 0 0.546 0.104 1.209 0.325 1.989c 0.455 1.651 1.274 2.821 2.457 3.51c 0.559 0.312 1.079 0.468 1.56 0.468c 1.43 0 2.171 -1.183 2.171 -2.678Z m -3.887 -4.459c 0.481 0 0.728 -0.351 0.728 -1.04c 0 -0.117 -0.039 -0.182 -0.117 -0.208c -0.364 -0.156 -0.715 -0.234 -1.053 -0.234c -0.364 0 -0.546 0.169 -0.546 0.507c 0 0.494 0.494 0.975 0.988 0.975Z "/></symbol><symbol id="g2D1FD5FA7721AD843D67732819992226" overflow="visible"><path d="M 0 0m 4.472 8.203c 0 -0.039 -0.013 -0.13 -0.052 -0.26l -1.716 -6.864c -0.052 -0.195 -0.104 -0.312 -0.143 -0.364c -0.117 -0.143 -0.559 -0.208 -1.339 -0.208c -0.403 0 -0.585 0.039 -0.585 -0.299c 0 -0.143 0.091 -0.208 0.26 -0.208c 0.663 0 1.599 0.052 2.158 0.039l 1.066 -0.013c 0.182 0 0.897 -0.026 1.118 -0.026c 0.221 0 0.325 0.104 0.325 0.312c 0 0.13 -0.156 0.195 -0.481 0.195c -0.676 0 -1.066 0.026 -1.183 0.091c -0.039 0.026 -0.065 0.078 -0.065 0.156l 1.755 7.085c 0.039 0.182 0.078 0.299 0.117 0.338c 0.052 0.078 0.364 0.117 0.936 0.117c 0.715 0 1.209 -0.052 1.456 -0.169c 0.247 -0.117 0.377 -0.39 0.377 -0.832c 0 -0.234 -0.039 -0.572 -0.104 -1.014c -0.026 -0.104 -0.039 -0.182 -0.039 -0.247c 0 -0.143 0.065 -0.221 0.208 -0.221c 0.117 0 0.195 0.117 0.234 0.338l 0.351 2.236c 0.013 0.065 0.026 0.143 0.026 0.221c 0 0.13 -0.13 0.195 -0.403 0.195h -7.124c -0.338 0 -0.364 -0.039 -0.468 -0.286l -0.767 -2.262c -0.039 -0.117 -0.065 -0.195 -0.078 -0.247c 0 -0.13 0.065 -0.195 0.208 -0.195c 0.104 0 0.195 0.104 0.26 0.299c 0.325 0.949 0.65 1.534 0.949 1.781c 0.338 0.273 0.988 0.403 1.937 0.403h 0.507c 0.143 0 0.299 0.013 0.299 -0.091Z "/></symbol><symbol id="gF904AD4F2F6F16E6709428FC91FBDF40" overflow="visible"><path d="M 0 0m 8.684 0.494c 0.234 -0.117 0.455 0.078 0.455 0.286c 0 0.117 -0.065 0.208 -0.182 0.26l -6.942 3.289l 6.942 3.289c 0.117 0.052 0.182 0.143 0.182 0.26c 0 0.221 -0.104 0.325 -0.312 0.325c -0.052 0 -0.104 -0.013 -0.143 -0.026l -7.462 -3.536c -0.13 -0.065 -0.195 -0.169 -0.195 -0.312c 0 -0.143 0.065 -0.234 0.195 -0.299Z m 0.13 -1.43h -7.514c -0.208 0 -0.312 -0.104 -0.312 -0.299c 0 -0.208 0.104 -0.312 0.312 -0.312h 7.514c 0.208 0 0.312 0.104 0.312 0.312c 0 0.156 -0.143 0.299 -0.312 0.299Z "/></symbol><symbol id="gC189A0A36A47FB1CBF46D2ED82C939AF" overflow="visible"><path d="M 0 0m 3.237 -0.286c 1.833 0 2.743 1.482 2.743 4.446c 0 1.989 -0.416 3.315 -1.235 3.965c -0.455 0.351 -0.962 0.533 -1.495 0.533c -1.833 0 -2.743 -1.495 -2.743 -4.498c 0 -2.392 0.637 -4.446 2.73 -4.446Z m 1.456 7.098c 0.091 -0.455 0.13 -1.287 0.13 -2.496c 0 -1.196 -0.052 -2.08 -0.143 -2.652c -0.169 -1.04 -0.65 -1.56 -1.443 -1.56c -0.299 0 -0.598 0.117 -0.871 0.338c -0.351 0.299 -0.559 0.91 -0.65 1.846c -0.039 0.325 -0.052 1.001 -0.052 2.028c 0 1.131 0.039 1.924 0.104 2.353c 0.117 0.715 0.351 1.17 0.715 1.365c 0.286 0.156 0.533 0.234 0.754 0.234c 0.845 0 1.313 -0.689 1.456 -1.456Z "/></symbol><symbol id="g54D13866AEE4B213997C37480AEFE31F" overflow="visible"><path d="M 0 0m 2.561 3.25c 1.339 0.65 2.964 2.119 2.964 3.887v 7.774c 0 0.702 0.273 1.378 0.832 2.028c 0.52 0.611 1.131 1.027 1.82 1.248c 0.169 0.052 0.247 0.156 0.247 0.325c 0 0.221 -0.117 0.338 -0.338 0.338c -0.039 0 -0.065 0 -0.091 -0.013c -0.936 -0.299 -1.768 -0.78 -2.496 -1.443c -0.845 -0.793 -1.274 -1.612 -1.274 -2.483v -7.774c 0 -0.767 -0.26 -1.495 -0.78 -2.184c -0.52 -0.689 -1.144 -1.157 -1.872 -1.378c -0.169 -0.052 -0.247 -0.156 -0.247 -0.325c 0 -0.169 0.078 -0.273 0.247 -0.325c 0.728 -0.221 1.352 -0.689 1.872 -1.378c 0.52 -0.689 0.78 -1.417 0.78 -2.184v -7.774c 0 -0.871 0.429 -1.69 1.274 -2.483c 0.728 -0.663 1.56 -1.144 2.496 -1.443c 0.026 -0.013 0.052 -0.013 0.091 -0.013c 0.221 0 0.338 0.117 0.338 0.338c 0 0.169 -0.078 0.273 -0.247 0.325c -0.689 0.221 -1.3 0.637 -1.82 1.248c -0.559 0.65 -0.832 1.326 -0.832 2.028v 7.774c 0 1.768 -1.625 3.237 -2.964 3.887Z "/></symbol><symbol id="g13AFF74D87C474CFAF661EEAD0458F8B" overflow="visible"><path d="M 0 0m 9.074 4.771h -8.034c -0.208 0 -0.312 -0.104 -0.312 -0.299c 0 -0.195 0.104 -0.299 0.312 -0.299h 8.034c 0.208 0 0.312 0.104 0.312 0.299c 0 0.156 -0.143 0.299 -0.312 0.299Z m 0 -2.444h -8.034c -0.208 0 -0.312 -0.104 -0.312 -0.299c 0 -0.195 0.104 -0.299 0.312 -0.299h 8.034c 0.208 0 0.312 0.104 0.312 0.299c 0 0.169 -0.143 0.299 -0.312 0.299Z "/></symbol><symbol id="g8B273DA24598714A1DE03FD5302C001A" overflow="visible"><path d="M 0 0m 3.263 5.408c 0.546 0 0.962 -0.13 1.248 -0.39c -0.312 -0.039 -0.533 -0.325 -0.533 -0.624c 0 -0.429 0.208 -0.637 0.637 -0.637c 0.429 0 0.637 0.221 0.637 0.65c 0 0.923 -1.001 1.417 -2.002 1.417c -0.806 0 -1.469 -0.286 -2.002 -0.884c -0.533 -0.598 -0.806 -1.313 -0.806 -2.132c 0 -0.793 0.273 -1.495 0.806 -2.08c 0.533 -0.585 1.183 -0.871 1.976 -0.871c 0.65 0 1.157 0.182 1.521 0.559c 0.299 0.299 0.494 0.598 0.598 0.91c 0.039 0.117 0.052 0.195 0.052 0.247c 0 0.117 -0.078 0.169 -0.221 0.169c -0.104 0 -0.169 -0.052 -0.208 -0.156c -0.273 -0.871 -0.806 -1.313 -1.625 -1.313c -0.377 0 -0.741 0.169 -1.105 0.52c -0.429 0.403 -0.637 1.079 -0.637 2.041c 0 1.3 0.494 2.574 1.664 2.574Z "/></symbol><symbol id="g49CA9B429DF3D7281052206316ECCC8A" overflow="visible"><path d="M 0 0m 2.522 7.813c 0 0.39 -0.325 0.728 -0.715 0.728c -0.39 0 -0.728 -0.338 -0.728 -0.728c 0 -0.39 0.325 -0.741 0.715 -0.741c 0.403 0 0.728 0.338 0.728 0.741Z m -0.663 -7.774l 1.352 -0.039v 0.507c -0.429 0 -0.689 0.026 -0.767 0.078c -0.078 0.052 -0.104 0.195 -0.104 0.429v 4.771l -1.859 -0.156v -0.494c 0.429 0 0.702 -0.039 0.793 -0.104c 0.091 -0.065 0.13 -0.247 0.13 -0.546v -3.458c 0 -0.247 -0.039 -0.403 -0.13 -0.455c -0.091 -0.052 -0.377 -0.065 -0.845 -0.065v -0.507Z "/></symbol><symbol id="gBC3D9C1A249D0D4F874E09900DF515A4" overflow="visible"><path d="M 0 0m 1.872 0.039l 1.443 -0.039v 0.507c -0.468 0 -0.754 0.013 -0.845 0.065c -0.091 0.052 -0.13 0.208 -0.13 0.455v 7.995l -1.911 -0.143v -0.494c 0.455 0 0.741 -0.039 0.832 -0.117c 0.091 -0.078 0.143 -0.26 0.143 -0.559v -6.682c 0 -0.247 -0.039 -0.403 -0.13 -0.455c -0.091 -0.052 -0.377 -0.065 -0.845 -0.065v -0.507Z "/></symbol><symbol id="g5D4DFCA3C00979A1E9076032CC813B65" overflow="visible"><path d="M 0 0m 3.237 -0.143c 0.806 0 1.482 0.286 2.041 0.858c 0.559 0.572 0.845 1.261 0.845 2.067c 0 0.819 -0.273 1.534 -0.819 2.132c -0.546 0.598 -1.235 0.91 -2.054 0.91c -0.819 0 -1.495 -0.312 -2.054 -0.91c -0.559 -0.598 -0.832 -1.313 -0.832 -2.132c 0 -0.806 0.273 -1.495 0.832 -2.067c 0.559 -0.572 1.248 -0.858 2.041 -0.858Z m 0.013 0.416c -0.624 0 -1.092 0.273 -1.417 0.832c -0.208 0.364 -0.312 0.962 -0.312 1.781c 0 0.793 0.104 1.365 0.299 1.729c 0.312 0.559 0.78 0.832 1.417 0.832c 0.611 0 1.079 -0.273 1.404 -0.806c 0.221 -0.364 0.325 -0.949 0.325 -1.755c 0 -1.508 -0.442 -2.613 -1.716 -2.613Z "/></symbol><symbol id="gCCDACA59E6D598A65CF16A9645890FC7" overflow="visible"><path d="M 0 0m 4.732 4.914c 0 0.507 -0.481 0.832 -0.988 0.832c -0.663 0 -1.17 -0.39 -1.508 -1.183v 1.183l -1.872 -0.143v -0.494c 0.455 0 0.728 -0.039 0.832 -0.117c 0.104 -0.078 0.156 -0.247 0.156 -0.546v -3.419c 0 -0.247 -0.039 -0.403 -0.13 -0.455c -0.091 -0.052 -0.377 -0.078 -0.858 -0.078v -0.494l 1.495 0.039c 0.546 0.013 1.105 0 1.664 -0.039v 0.494h -0.312c -0.429 0 -0.702 0.039 -0.793 0.104c -0.091 0.065 -0.13 0.221 -0.13 0.455v 1.963c 0 0.559 0.104 1.066 0.299 1.495c 0.26 0.559 0.637 0.845 1.144 0.858c -0.13 -0.13 -0.195 -0.286 -0.195 -0.468c 0 -0.403 0.195 -0.598 0.598 -0.598c 0.351 0 0.598 0.273 0.598 0.611Z "/></symbol><symbol id="g7413A85D70934E3816A3D1EE8499A939" overflow="visible"><path d="M 0 0m 5.395 3.263c 0 1.495 -0.871 2.561 -2.327 2.561c -0.78 0 -1.43 -0.299 -1.963 -0.91c -0.494 -0.572 -0.741 -1.261 -0.741 -2.054c 0 -0.819 0.273 -1.508 0.819 -2.106c 0.546 -0.598 1.222 -0.897 2.028 -0.897c 0.741 0 1.313 0.26 1.703 0.767c 0.325 0.429 0.481 0.741 0.481 0.949c 0 0.13 -0.078 0.195 -0.221 0.195c -0.104 0 -0.169 -0.065 -0.208 -0.208c -0.286 -0.858 -0.845 -1.287 -1.677 -1.287c -0.585 0 -1.04 0.273 -1.391 0.832c -0.247 0.403 -0.364 1.014 -0.377 1.846h 3.51c 0.286 0 0.364 0.026 0.364 0.312Z m -1.157 1.274c 0.143 -0.429 0.208 -0.845 0.208 -1.222h -2.912c 0.039 0.858 0.26 1.443 0.65 1.742c 0.325 0.26 0.611 0.39 0.884 0.39c 0.585 0 0.975 -0.299 1.17 -0.91Z "/></symbol><symbol id="gC58C3D6655D393441864428999E172F2" overflow="visible"><path d="M 0 0m 5.044 4.602c 0 -0.065 -0.026 -0.156 -0.078 -0.286l -1.248 -3.133l -1.391 3.445c -0.052 0.117 -0.078 0.182 -0.078 0.195c 0 0.195 0.247 0.286 0.741 0.286v 0.494l -1.456 -0.039c -0.312 -0.013 -0.741 0 -1.287 0.039v -0.494c 0.728 0 0.845 0.026 1.027 -0.442l 1.846 -4.537c 0.065 -0.182 0.169 -0.273 0.312 -0.273c 0.143 0 0.247 0.091 0.312 0.273l 1.677 4.147c 0.052 0.143 0.104 0.26 0.169 0.364c 0.182 0.312 0.52 0.468 1.014 0.468v 0.494c -0.429 -0.039 -0.767 -0.052 -1.014 -0.039l -1.157 0.039v -0.494c 0.377 -0.013 0.611 -0.169 0.611 -0.507Z "/></symbol><symbol id="gFD7B4B4FA231C83EBA33EE1F285F6134" overflow="visible"><path d="M 0 0m 4.68 1.69c 0 0.988 -0.676 1.612 -2.015 1.872c -0.611 0.117 -1.001 0.26 -1.209 0.403c -0.208 0.143 -0.312 0.351 -0.312 0.598c 0 0.611 0.455 0.91 1.365 0.91c 0.884 0 1.365 -0.494 1.43 -1.495c 0.013 -0.104 0.078 -0.156 0.208 -0.156c 0.143 0 0.221 0.117 0.221 0.351v 1.287c 0 0.247 -0.065 0.364 -0.195 0.364c -0.143 0 -0.338 -0.234 -0.468 -0.338c -0.325 0.221 -0.728 0.338 -1.196 0.338c -1.157 0 -2.08 -0.52 -2.08 -1.625c 0 -0.442 0.182 -0.819 0.559 -1.118c 0.455 -0.377 0.884 -0.455 1.703 -0.598c 0.845 -0.169 1.274 -0.546 1.274 -1.131c 0 -0.741 -0.455 -1.118 -1.378 -1.118c -0.897 0 -1.469 0.598 -1.716 1.781c -0.039 0.169 -0.104 0.26 -0.221 0.26c -0.143 0 -0.221 -0.13 -0.221 -0.377v -1.677c 0 -0.247 0.065 -0.364 0.195 -0.364c 0.039 0 0.104 0.039 0.208 0.13c 0.234 0.208 0.13 0.169 0.364 0.403c 0.377 -0.351 0.845 -0.533 1.391 -0.533c 1.235 0 2.093 0.637 2.093 1.833Z "/></symbol><symbol id="gCE586EA61C97F3F66F171E25641C2FB8" overflow="visible"><path d="M 0 0m 3.874 -0.143c 0.806 0 1.495 0.286 2.054 0.871c 0.559 0.585 0.845 1.274 0.845 2.093c 0 0.793 -0.26 1.495 -0.793 2.08c -0.533 0.585 -1.183 0.884 -1.976 0.884c -0.637 0 -1.209 -0.247 -1.69 -0.754v 3.991l -1.95 -0.143v -0.494c 0.468 0 0.754 -0.039 0.858 -0.117c 0.104 -0.078 0.143 -0.26 0.143 -0.559v -7.709h 0.403l 0.429 0.754c 0.416 -0.598 0.975 -0.897 1.677 -0.897Z m -0.052 0.39c -0.533 0 -0.975 0.247 -1.3 0.754c -0.117 0.169 -0.169 0.351 -0.169 0.52v 2.639c 0 0.169 0.039 0.312 0.13 0.442c 0.377 0.533 0.858 0.793 1.469 0.793c 0.533 0 0.962 -0.26 1.3 -0.793c 0.234 -0.39 0.351 -0.975 0.351 -1.768c 0 -1.404 -0.494 -2.587 -1.781 -2.587Z "/></symbol><symbol id="g3CDB071E19D0E5A44EA9C23D26C7531F" overflow="visible"><path d="M 0 0m 8.658 -0.585c 0.221 -0.091 0.455 0.078 0.455 0.286c 0 0.13 -0.065 0.221 -0.182 0.273l -6.942 3.276l 6.942 3.276c 0.117 0.052 0.182 0.143 0.182 0.26c 0 0.221 -0.104 0.325 -0.312 0.325c -0.052 0 -0.104 -0.013 -0.143 -0.026l -7.462 -3.536c -0.13 -0.065 -0.195 -0.156 -0.195 -0.299c 0 -0.143 0.065 -0.234 0.195 -0.299Z "/></symbol></defs></svg>