<svg viewBox="0 0 86.695122222 20.501" width="86.695122222pt" height="20.501pt" xmlns="http://www.w3.org/2000/svg" xmlns:xlink="http://www.w3.org/1999/xlink" xmlns:h5="http://www.w3.org/1999/xhtml"><g transform="matrix(1 0 0 -1 6.5 13.208)"><use xlink:href="#g1EC01C5368D684131831F3BFC5D2F1C1" x="0" y="0" fill="#e6edf3" fill-rule="nonzero"/></g><g transform="matrix(1 0 0 -1 17.329 13.208)"><use xlink:href="#gC5BCEC683611E6E5671ABF17CB821529" x="0" y="0" fill="#e6edf3" fill-rule="nonzero"/></g><g transform="matrix(1 0 0 -1 26.478111111 13.208)"><use xlink:href="#g13AFF74D87C474CFAF661EEAD0458F8B" x="0" y="0" fill="#e6edf3" fill-rule="nonzero"/></g><g transform="matrix(1 0 0 -1 40.203222222 13.208)"><use xlink:href="#g183B7F76720C9CEFDB35CD9597C39B17" x="0" y="0" fill="#e6edf3" fill-rule="nonzero"/></g><g transform="matrix(1 0 0 -1 48.523222222 13.208)"><use xlink:href="#gC5BCEC683611E6E5671ABF17CB821529" x="0" y="0" fill="#e6edf3" fill-rule="nonzero"/></g><g transform="matrix(1 0 0 -1 53.944222222 16.419)"><use xlink:href="#g66C287F757172C4FBEE46C9B113A6E1F" x="0" y="0" fill="#e6edf3" fill-rule="nonzero"/></g><g transform="matrix(1 0 0 -1 59.850122222 13.208)"><use xlink:href="#g1EC01C5368D684131831F3BFC5D2F1C1" x="0" y="0" fill="#e6edf3" fill-rule="nonzero"/></g><g transform="matrix(1 0 0 -1 70.679122222 13.208)"><use xlink:href="#g2D1FD5FA7721AD843D67732819992226" x="0" y="0" fill="#e6edf3" fill-rule="nonzero"/></g><defs><symbol id="g1EC01C5368D684131831F3BFC5D2F1C1" overflow="visible"><path d="M 0 0m 9.867 0c 0.221 0 0.338 0.052 0.338 0.169l -4.42 8.879c -0.091 0.169 -0.208 0.26 -0.377 0.26c -0.169 0 -0.286 -0.091 -0.377 -0.26l -4.355 -8.723c -0.039 -0.091 -0.065 -0.143 -0.065 -0.169c 0 -0.104 0.117 -0.156 0.338 -0.156Z m -4.875 7.852l 3.38 -6.773h -6.76Z "/></symbol><symbol id="gC5BCEC683611E6E5671ABF17CB821529" overflow="visible"><path d="M 0 0m 4.121 5.096c 0.702 1.053 1.053 2.067 1.053 3.016c 0 0.702 -0.273 1.053 -0.806 1.053c -0.507 0 -0.988 -0.377 -1.469 -1.144c -0.299 -0.481 -0.533 -0.91 -0.702 -1.3c -0.676 -1.547 -1.014 -3.029 -1.014 -4.433l -0.962 -0.936c -0.052 -0.065 -0.078 -0.117 -0.078 -0.156c 0 -0.143 0.065 -0.221 0.208 -0.221c 0.052 0 0.338 0.26 0.871 0.78c 0.182 -1.274 0.676 -1.911 1.469 -1.911c 0.481 0 1.066 0.299 1.742 0.91c 0.208 0.182 0.312 0.312 0.312 0.39c 0 0.143 -0.065 0.208 -0.208 0.208c -0.039 0 -0.104 -0.039 -0.195 -0.13c -0.676 -0.663 -1.222 -0.988 -1.625 -0.988c -0.481 0 -0.728 0.533 -0.728 1.612c 0 0.78 -0.013 0.689 0.325 1.027c 0.637 0.637 1.248 1.378 1.807 2.223Z m 0.26 3.679c 0.26 0 0.39 -0.208 0.39 -0.611c 0 -1.391 -0.871 -3.016 -2.626 -4.888c 0.182 1.027 0.832 3.419 1.261 4.329c 0.377 0.78 0.702 1.17 0.975 1.17Z "/></symbol><symbol id="g13AFF74D87C474CFAF661EEAD0458F8B" overflow="visible"><path d="M 0 0m 9.074 4.771h -8.034c -0.208 0 -0.312 -0.104 -0.312 -0.299c 0 -0.195 0.104 -0.299 0.312 -0.299h 8.034c 0.208 0 0.312 0.104 0.312 0.299c 0 0.156 -0.143 0.299 -0.312 0.299Z m 0 -2.444h -8.034c -0.208 0 -0.312 -0.104 -0.312 -0.299c 0 -0.195 0.104 -0.299 0.312 -0.299h 8.034c 0.208 0 0.312 0.104 0.312 0.299c 0 0.169 -0.143 0.299 -0.312 0.299Z "/></symbol><symbol id="g183B7F76720C9CEFDB35CD9597C39B17" overflow="visible"><path d="M 0 0m 4.03 5.746c -0.897 0 -1.703 -0.39 -2.418 -1.157c -0.715 -0.767 -1.079 -1.612 -1.079 -2.522c 0 -1.274 0.858 -2.21 2.132 -2.21c 0.897 0 1.781 0.351 2.665 1.04c 0.195 -0.689 0.598 -1.04 1.196 -1.04c 0.468 0 1.131 0.494 1.131 0.962c 0 0.117 -0.065 0.169 -0.208 0.169c -0.091 0 -0.169 -0.052 -0.208 -0.156c -0.104 -0.273 -0.377 -0.598 -0.676 -0.598c -0.221 0 -0.338 0.416 -0.338 1.261c 0 0.182 0.039 0.325 0.117 0.416c 0.351 0.429 0.663 0.923 0.91 1.469c 0.325 0.702 0.52 1.222 0.572 1.56v 0.052c -0.039 0.091 -0.117 0.13 -0.208 0.13c -0.065 -0.013 -0.143 -0.117 -0.234 -0.299c -0.273 -0.936 -0.65 -1.742 -1.157 -2.405v 0.65c 0 1.508 -0.754 2.678 -2.197 2.678Z m 1.209 -3.003c 0 -0.767 0.013 -1.235 0.026 -1.404c -0.845 -0.741 -1.703 -1.105 -2.574 -1.105c -0.741 0 -1.105 0.455 -1.105 1.352c 0 0.754 0.429 2.158 0.728 2.626c 0.494 0.767 1.066 1.157 1.703 1.157c 0.403 0 0.676 -0.156 0.845 -0.468c 0.091 -0.156 0.156 -0.312 0.221 -0.455c 0.104 -0.299 0.156 -1.092 0.156 -1.703Z "/></symbol><symbol id="g66C287F757172C4FBEE46C9B113A6E1F" overflow="visible"><path d="M 0 0m 4.6956 2.9029c 0 1.0283 -0.182 1.8109 -0.5369 2.3478c -0.2912 0.455 -0.8736 0.7917 -1.5743 0.7917c -0.2912 0 -0.5551 -0.0455 -0.7826 -0.1456c -1.001 -0.4186 -1.3286 -1.5834 -1.3286 -2.9939c 0 -0.3094 0.0182 -0.6006 0.0455 -0.8827c 0.1547 -1.1921 0.7098 -2.2022 2.0657 -2.2022c 0.2912 0 0.5551 0.0455 0.7826 0.1456c 1.001 0.4095 1.3286 1.547 1.3286 2.9393Z m -1.0374 2.0202c 0.1001 -0.3367 0.1547 -0.9646 0.1547 -1.9019c 0 -0.8918 -0.0364 -1.5197 -0.1183 -1.8928c -0.1092 -0.5369 -0.4914 -0.9828 -1.1102 -0.9828c -0.2275 0 -0.455 0.0728 -0.6643 0.2275c -0.2821 0.2093 -0.455 0.6188 -0.5278 1.2467c -0.0273 0.2093 -0.0364 0.6734 -0.0364 1.4014c 0 0.8827 0.0455 1.4924 0.1365 1.82c 0.1547 0.5824 0.5187 0.8736 1.092 0.8736c 0.546 0 0.9464 -0.3549 1.0738 -0.7917Z "/></symbol><symbol id="g2D1FD5FA7721AD843D67732819992226" overflow="visible"><path d="M 0 0m 4.472 8.203c 0 -0.039 -0.013 -0.13 -0.052 -0.26l -1.716 -6.864c -0.052 -0.195 -0.104 -0.312 -0.143 -0.364c -0.117 -0.143 -0.559 -0.208 -1.339 -0.208c -0.403 0 -0.585 0.039 -0.585 -0.299c 0 -0.143 0.091 -0.208 0.26 -0.208c 0.663 0 1.599 0.052 2.158 0.039l 1.066 -0.013c 0.182 0 0.897 -0.026 1.118 -0.026c 0.221 0 0.325 0.104 0.325 0.312c 0 0.13 -0.156 0.195 -0.481 0.195c -0.676 0 -1.066 0.026 -1.183 0.091c -0.039 0.026 -0.065 0.078 -0.065 0.156l 1.755 7.085c 0.039 0.182 0.078 0.299 0.117 0.338c 0.052 0.078 0.364 0.117 0.936 0.117c 0.715 0 1.209 -0.052 1.456 -0.169c 0.247 -0.117 0.377 -0.39 0.377 -0.832c 0 -0.234 -0.039 -0.572 -0.104 -1.014c -0.026 -0.104 -0.039 -0.182 -0.039 -0.247c 0 -0.143 0.065 -0.221 0.208 -0.221c 0.117 0 0.195 0.117 0.234 0.338l 0.351 2.236c 0.013 0.065 0.026 0.143 0.026 0.221c 0 0.13 -0.13 0.195 -0.403 0.195h -7.124c -0.338 0 -0.364 -0.039 -0.468 -0.286l -0.767 -2.262c -0.039 -0.117 -0.065 -0.195 -0.078 -0.247c 0 -0.13 0.065 -0.195 0.208 -0.195c 0.104 0 0.195 0.104 0.26 0.299c 0.325 0.949 0.65 1.534 0.949 1.781c 0.338 0.273 0.988 0.403 1.937 0.403h 0.507c 0.143 0 0.299 0.013 0.299 -0.091Z "/></symbol></defs></svg>