<svg viewBox="0 0 263.860422222 41.1398" width="263.860422222pt" height="41.1398pt" xmlns="http://www.w3.org/2000/svg" xmlns:xlink="http://www.w3.org/1999/xlink" xmlns:h5="http://www.w3.org/1999/xhtml"><g transform="matrix(1 0 0 -1 6.5 23.2544)"><use xlink:href="#gFCB8EE904C83D15DBBDA0F3192DB537A" x="0" y="0" fill="#e6edf3" fill-rule="nonzero"/></g><g transform="matrix(1 0 0 -1 16.523 26.4654)"><use xlink:href="#g92EDD795C1990AE86A5F909996C892B5" x="0" y="0" fill="#e6edf3" fill-rule="nonzero"/></g><g transform="matrix(1 0 0 -1 25.621411111 23.2544)"><use xlink:href="#g13AFF74D87C474CFAF661EEAD0458F8B" x="0" y="0" fill="#e6edf3" fill-rule="nonzero"/></g><g transform="matrix(1 0 0 -1 39.346522222 23.2544)"><use xlink:href="#gFCB8EE904C83D15DBBDA0F3192DB537A" x="0" y="0" fill="#e6edf3" fill-rule="nonzero"/></g><g transform="matrix(1 0 0 -1 49.369522222 26.4654)"><use xlink:href="#gAAD6BC2C8137F80591245DBA53D53272" x="0" y="0" fill="#e6edf3" fill-rule="nonzero"/></g><g transform="matrix(1 0 0 -1 58.737611111 23.2544)"><use xlink:href="#gEDF6611ACB83925E748178A176190AF2" x="0" y="0" fill="#e6edf3" fill-rule="nonzero"/></g><g transform="matrix(1 0 0 -1 71.7405 23.2544)"><use xlink:href="#gD83AEAE39B2D396ED26985CFF34A14A" x="0" y="0" fill="#e6edf3" fill-rule="nonzero"/></g><g transform="matrix(1 0 0 -1 98.7285 23.2544)"><use xlink:href="#g7AF10AFFE59D420B8F89A40B982EF05" x="0" y="0" fill="#e6edf3" fill-rule="nonzero"/></g><g transform="matrix(1 0 0 -1 124.7285 23.2544)"><use xlink:href="#g648A68795CD36B942D5167A69DEC87EA" x="0" y="0" fill="#e6edf3" fill-rule="nonzero"/><use xlink:href="#gF12AB24159296FAC9E2D0AC88DD8B643" x="9.386" y="0" fill="#e6edf3" fill-rule="nonzero"/><use xlink:href="#g8E97D087849068FDB678D73E5CECDEE2" x="19.5" y="0" fill="#e6edf3" fill-rule="nonzero"/></g><g transform="matrix(1 0 0 -1 156.692611111 23.2544)"><use xlink:href="#g13AFF74D87C474CFAF661EEAD0458F8B" x="0" y="0" fill="#e6edf3" fill-rule="nonzero"/></g><g transform="matrix(1 0 0 -1 171.717722222 13.065)"><use xlink:href="#gFCB8EE904C83D15DBBDA0F3192DB537A" x="0" y="0" fill="#e6edf3" fill-rule="nonzero"/></g><g transform="matrix(1 0 0 -1 181.740722222 16.276)"><use xlink:href="#gAAD6BC2C8137F80591245DBA53D53272" x="0" y="0" fill="#e6edf3" fill-rule="nonzero"/></g><g transform="matrix(1 0 0 -1 172.974822222 32.1724)"><use xlink:href="#gD83AEAE39B2D396ED26985CFF34A14A" x="0" y="0" fill="#e6edf3" fill-rule="nonzero"/></g><path fill="none" stroke="#e6edf3" stroke-width="0.624" stroke-linecap="butt" stroke-linejoin="miter" stroke-miterlimit="4" transform="translate(171.717722222 20.0044)" d="M 0 0h 16.5022"/><g transform="matrix(1 0 0 -1 193.131033333 23.2544)"><use xlink:href="#g13AFF74D87C474CFAF661EEAD0458F8B" x="0" y="0" fill="#e6edf3" fill-rule="nonzero"/></g><g transform="matrix(1 0 0 -1 223.857183333 13.065)"><use xlink:href="#gFCB8EE904C83D15DBBDA0F3192DB537A" x="0" y="0" fill="#e6edf3" fill-rule="nonzero"/></g><g transform="matrix(1 0 0 -1 233.880183333 16.276)"><use xlink:href="#gAAD6BC2C8137F80591245DBA53D53272" x="0" y="0" fill="#e6edf3" fill-rule="nonzero"/></g><g transform="matrix(1 0 0 -1 208.156144444 32.1724)"><use xlink:href="#gFCB8EE904C83D15DBBDA0F3192DB537A" x="0" y="0" fill="#e6edf3" fill-rule="nonzero"/></g><g transform="matrix(1 0 0 -1 218.179144444 35.3834)"><use xlink:href="#g92EDD795C1990AE86A5F909996C892B5" x="0" y="0" fill="#e6edf3" fill-rule="nonzero"/></g><g transform="matrix(1 0 0 -1 226.555333333 32.1724)"><use xlink:href="#g9B543B57F718853EF8F95EF155B6CF69" x="0" y="0" fill="#e6edf3" fill-rule="nonzero"/></g><g transform="matrix(1 0 0 -1 239.558222222 32.1724)"><use xlink:href="#gFCB8EE904C83D15DBBDA0F3192DB537A" x="0" y="0" fill="#e6edf3" fill-rule="nonzero"/></g><g transform="matrix(1 0 0 -1 249.581222222 35.3834)"><use xlink:href="#gAAD6BC2C8137F80591245DBA53D53272" x="0" y="0" fill="#e6edf3" fill-rule="nonzero"/></g><path fill="none" stroke="#e6edf3" stroke-width="0.624" stroke-linecap="butt" stroke-linejoin="miter" stroke-miterlimit="4" transform="translate(208.156144444 20.0044)" d="M 0 0h 47.904277778"/><defs><symbol id="gFCB8EE904C83D15DBBDA0F3192DB537A" overflow="visible"><path d="M 0 0m 3.978 -0.312c 0.377 0 0.78 0.065 1.209 0.182c -0.039 -0.494 -0.052 -0.806 -0.052 -0.923c 0 -0.975 0.377 -1.469 1.118 -1.469c 0.793 0 1.404 0.637 1.703 1.222c 0.325 0.676 0.494 1.118 0.494 1.326c 0 0.117 -0.065 0.182 -0.195 0.182c -0.091 0 -0.156 -0.052 -0.195 -0.169c -0.195 -0.598 -0.728 -1.209 -1.456 -1.209c -0.663 0 -0.754 0.533 -0.858 1.248c 1.092 0.429 2.015 1.17 2.756 2.236c 0.741 1.066 1.118 2.171 1.118 3.328c 0 1.027 -0.299 1.859 -0.91 2.522c -0.611 0.663 -1.417 1.001 -2.418 1.001c -0.689 0 -1.378 -0.169 -2.067 -0.52c -1.404 -0.689 -2.431 -1.781 -3.094 -3.25c -0.325 -0.741 -0.494 -1.469 -0.494 -2.21c 0 -2.041 1.326 -3.497 3.341 -3.497Z m 4.407 6.37c 0 -0.793 -0.195 -1.703 -0.585 -2.756c -0.455 -1.209 -1.157 -2.106 -2.132 -2.678c -0.052 0.286 -0.13 0.546 -0.234 0.78c -0.169 0.39 -0.481 0.585 -0.936 0.585c -0.715 0 -1.365 -0.65 -1.365 -1.365c 0 -0.117 0.013 -0.234 0.039 -0.325c -0.871 0.403 -1.3 1.222 -1.3 2.47c 0 0.546 0.104 1.209 0.325 1.989c 0.455 1.651 1.274 2.821 2.457 3.51c 0.559 0.312 1.079 0.468 1.56 0.468c 1.43 0 2.171 -1.183 2.171 -2.678Z m -3.887 -4.459c 0.481 0 0.728 -0.351 0.728 -1.04c 0 -0.117 -0.039 -0.182 -0.117 -0.208c -0.364 -0.156 -0.715 -0.234 -1.053 -0.234c -0.364 0 -0.546 0.169 -0.546 0.507c 0 0.494 0.494 0.975 0.988 0.975Z "/></symbol><symbol id="g92EDD795C1990AE86A5F909996C892B5" overflow="visible"><path d="M 0 0m 4.3134 1.1466c -0.0546 0 -0.1092 -0.0364 -0.1638 -0.1092c -0.4641 -0.5369 -1.092 -0.8099 -1.8746 -0.8099c -0.6006 0 -0.9009 0.3185 -0.9009 0.9646c 0 0.6188 0.3003 1.456 0.5824 1.82c 0.3458 0.455 0.7553 0.6825 1.2285 0.6825c 0.3185 0 0.546 -0.0728 0.7007 -0.2184c -0.2821 -0.0637 -0.4186 -0.2366 -0.4186 -0.5187c 0 -0.2457 0.1274 -0.364 0.3822 -0.364c 0.3367 0 0.546 0.273 0.546 0.6097c 0 0.5733 -0.5824 0.8099 -1.2103 0.8099c -0.6643 0 -1.274 -0.2457 -1.8109 -0.7553c -0.5369 -0.5096 -0.8099 -1.092 -0.8099 -1.7563c 0 -0.9555 0.7371 -1.5925 1.6926 -1.5925c 0.5642 0 1.0465 0.1092 1.4469 0.3276c 0.2093 0.1183 0.8008 0.5005 0.8008 0.7189c 0 0.0819 -0.1092 0.1911 -0.1911 0.1911Z "/></symbol><symbol id="g13AFF74D87C474CFAF661EEAD0458F8B" overflow="visible"><path d="M 0 0m 9.074 4.771h -8.034c -0.208 0 -0.312 -0.104 -0.312 -0.299c 0 -0.195 0.104 -0.299 0.312 -0.299h 8.034c 0.208 0 0.312 0.104 0.312 0.299c 0 0.156 -0.143 0.299 -0.312 0.299Z m 0 -2.444h -8.034c -0.208 0 -0.312 -0.104 -0.312 -0.299c 0 -0.195 0.104 -0.299 0.312 -0.299h 8.034c 0.208 0 0.312 0.104 0.312 0.299c 0 0.169 -0.143 0.299 -0.312 0.299Z "/></symbol><symbol id="gAAD6BC2C8137F80591245DBA53D53272" overflow="visible"><path d="M 0 0m 5.4964 5.733c 0 0.4368 -0.455 0.6734 -0.9282 0.6734c -0.2184 0 -0.4277 -0.0637 -0.6279 -0.182c -0.3367 -0.2002 -0.5733 -0.5642 -0.6916 -1.0829c -0.0455 -0.2184 -0.1274 -0.6188 -0.2275 -1.2012h -0.6825c -0.2093 0 -0.3276 -0.0182 -0.3276 -0.2275c 0 -0.1092 0.1001 -0.1638 0.3094 -0.1638h 0.6188l -0.7735 -4.2224c -0.1092 -0.5733 -0.3094 -0.8554 -0.5915 -0.8554h -0.0637c -0.1001 0.0091 -0.182 0.0364 -0.2457 0.0637c 0.1729 0.0819 0.3367 0.2912 0.3367 0.5005c 0 0.2184 -0.1729 0.3731 -0.3913 0.3731c -0.3094 0 -0.546 -0.2821 -0.546 -0.5915c 0 -0.4368 0.4459 -0.6734 0.91 -0.6734c 0.1729 0 0.3549 0.0546 0.5278 0.1729c 0.2366 0.1547 0.4277 0.3731 0.5733 0.637c 0.2275 0.4095 0.4095 1.0192 0.5551 1.8382l 0.4914 2.7573h 0.8554c 0.2184 0 0.3276 0.0273 0.3276 0.2366c 0 0.1001 -0.1092 0.1547 -0.3185 0.1547h -0.7826c 0.182 1.0101 0.2912 1.6016 0.3367 1.7836c 0.0637 0.2366 0.2002 0.3549 0.4277 0.3549h 0.0637c 0.1092 -0.0091 0.2002 -0.0364 0.2639 -0.0637c -0.1729 -0.0819 -0.3367 -0.2912 -0.3367 -0.5005c 0 -0.2184 0.1729 -0.3731 0.3913 -0.3731c 0.3094 0 0.546 0.2821 0.546 0.5915Z "/></symbol><symbol id="gEDF6611ACB83925E748178A176190AF2" overflow="visible"><path d="M 0 0m 9.074 3.562h -3.705v 3.705c 0 0.208 -0.104 0.312 -0.312 0.312c -0.208 0 -0.312 -0.104 -0.312 -0.312v -3.705h -3.705c -0.208 0 -0.312 -0.104 -0.312 -0.312c 0 -0.208 0.104 -0.312 0.312 -0.312h 3.705v -3.705c 0 -0.208 0.104 -0.312 0.312 -0.312c 0.208 0 0.312 0.104 0.312 0.312v 3.705h 3.705c 0.208 0 0.312 0.104 0.312 0.312c 0 0.169 -0.143 0.312 -0.312 0.312Z "/></symbol><symbol id="gD83AEAE39B2D396ED26985CFF34A14A" overflow="visible"><path d="M 0 0m 12.428 8.84c -0.247 0 -1.092 0.039 -1.339 0.039c -0.195 0 -0.299 -0.104 -0.299 -0.299c 0 -0.13 0.078 -0.195 0.234 -0.208c 0.481 -0.013 0.715 -0.156 0.715 -0.442c 0 -0.078 -0.052 -0.208 -0.156 -0.403l -3.406 -5.902l -0.455 6.201c -0.052 0.468 0.26 0.546 0.845 0.546c 0.273 0 0.403 0.104 0.403 0.312c 0 0.13 -0.078 0.195 -0.247 0.195c -0.286 0 -1.287 -0.039 -1.573 -0.039c -0.247 0 -1.105 0.039 -1.352 0.039c -0.195 0 -0.299 -0.104 -0.299 -0.312c 0 -0.13 0.117 -0.195 0.364 -0.195c 0.403 0 0.611 -0.091 0.624 -0.273l 0.078 -0.975l -3.172 -5.499l -0.468 6.344c -0.039 0.325 0.507 0.403 0.923 0.403c 0.221 0 0.325 0.104 0.325 0.312c 0 0.13 -0.078 0.195 -0.234 0.195c -0.286 0 -1.3 -0.039 -1.586 -0.039c -0.247 0 -1.105 0.039 -1.352 0.039c -0.195 0 -0.286 -0.104 -0.286 -0.299c 0 -0.143 0.13 -0.208 0.377 -0.208c 0.546 0 0.598 -0.026 0.624 -0.416l 0.585 -7.865c 0.013 -0.247 0.104 -0.377 0.26 -0.377c 0.169 0.026 0.234 0.065 0.338 0.26c 0.013 0.013 0.013 0.026 0.013 0.039l 3.705 6.409l 0.468 -6.331c 0.013 -0.247 0.104 -0.377 0.26 -0.377c 0.13 0 0.247 0.091 0.351 0.273l 4.238 7.319c 0.351 0.637 0.598 1.001 1.391 1.066c 0.234 0.026 0.299 0.091 0.299 0.312c 0 0.13 -0.065 0.195 -0.208 0.195c -0.182 0 -0.806 -0.039 -0.988 -0.039Z "/></symbol><symbol id="g7AF10AFFE59D420B8F89A40B982EF05" overflow="visible"><path d="M 0 0m 12.051 3.029c 0.104 0.052 0.156 0.13 0.156 0.221c 0 0.091 -0.052 0.169 -0.156 0.221c -0.793 0.208 -1.599 0.663 -2.405 1.352c -0.585 0.507 -1.04 1.092 -1.378 1.768c -0.052 0.117 -0.143 0.169 -0.273 0.169c -0.208 0 -0.312 -0.104 -0.312 -0.312c 0 -0.026 0.013 -0.065 0.026 -0.13c 0.299 -0.572 0.663 -1.079 1.079 -1.521h -7.696c -0.208 0 -0.312 -0.104 -0.312 -0.299c 0 -0.208 0.104 -0.312 0.312 -0.312h 8.372c 0.481 -0.39 1.014 -0.702 1.573 -0.936c -0.559 -0.234 -1.092 -0.546 -1.573 -0.936h -8.372c -0.208 0 -0.312 -0.104 -0.312 -0.312c 0 -0.195 0.104 -0.299 0.312 -0.299h 7.696c -0.416 -0.442 -0.78 -0.949 -1.079 -1.521c -0.013 -0.065 -0.026 -0.104 -0.026 -0.13c 0 -0.208 0.104 -0.312 0.312 -0.312c 0.13 0 0.221 0.052 0.273 0.169c 0.338 0.676 0.793 1.261 1.378 1.768c 0.806 0.689 1.612 1.144 2.405 1.352Z "/></symbol><symbol id="g648A68795CD36B942D5167A69DEC87EA" overflow="visible"><path d="M 0 0m 8.645 5.759v 3.042c 0 0.247 -0.065 0.364 -0.195 0.364c -0.091 0 -0.169 -0.065 -0.247 -0.182l -0.611 -0.897c -0.39 0.403 -0.806 0.689 -1.261 0.871c -0.338 0.143 -0.702 0.208 -1.092 0.208c -1.261 0 -2.34 -0.455 -3.211 -1.391c -0.871 -0.936 -1.3 -2.041 -1.3 -3.328c 0 -1.287 0.429 -2.392 1.287 -3.315c 0.871 -0.949 1.95 -1.417 3.224 -1.417c 0.923 0 1.729 0.325 2.405 0.975c 0.676 0.65 1.001 1.43 1.001 2.353c 0 0.182 -0.078 0.273 -0.221 0.273c -0.13 0 -0.195 -0.052 -0.195 -0.169c 0 -0.013 0 -0.039 -0.013 -0.078c -0.078 -1.56 -1.196 -2.847 -2.821 -2.847c -0.481 0 -0.962 0.13 -1.469 0.39c -1.196 0.65 -1.768 1.898 -1.768 3.822c 0 1.82 0.637 3.224 1.768 3.835c 0.507 0.26 0.988 0.39 1.456 0.39c 1.612 0 2.535 -1.469 2.756 -3.003c 0.013 -0.169 0.104 -0.26 0.247 -0.26c 0.26 0 0.26 0.104 0.26 0.364Z "/></symbol><symbol id="gF12AB24159296FAC9E2D0AC88DD8B643" overflow="visible"><path d="M 0 0m 5.044 -0.286c 1.248 0 2.288 0.481 3.12 1.43c 0.806 0.91 1.209 2.002 1.209 3.263c 0 1.261 -0.403 2.366 -1.196 3.289c -0.845 0.975 -1.885 1.469 -3.133 1.469c -1.248 0 -2.288 -0.494 -3.12 -1.469c -0.793 -0.923 -1.196 -2.028 -1.196 -3.289c 0 -1.261 0.403 -2.34 1.196 -3.263c 0.845 -0.949 1.885 -1.43 3.12 -1.43Z m 2.197 7.761c 0.468 -0.689 0.702 -1.651 0.702 -2.886c 0 -1.599 -0.338 -2.769 -1.014 -3.497c -0.585 -0.624 -1.209 -0.936 -1.872 -0.936c -0.676 0 -1.313 0.312 -1.898 0.949c -0.663 0.728 -1.001 1.885 -1.001 3.484c 0 1.547 0.351 2.665 1.053 3.328c 0.598 0.546 1.209 0.819 1.833 0.819c 0.884 0 1.612 -0.416 2.197 -1.261Z "/></symbol><symbol id="g8E97D087849068FDB678D73E5CECDEE2" overflow="visible"><path d="M 0 0m 5.135 4.056c 0.741 0 1.404 0.208 1.989 0.624c 0.663 0.468 0.988 1.053 0.988 1.755c 0 0.741 -0.338 1.352 -1.014 1.82c -0.598 0.416 -1.287 0.624 -2.067 0.624h -4.576v -0.507h 0.364c 0.455 0 0.728 -0.039 0.819 -0.104c 0.091 -0.065 0.143 -0.208 0.143 -0.442v -6.773c 0 -0.234 -0.052 -0.39 -0.143 -0.455c -0.091 -0.065 -0.364 -0.091 -0.819 -0.091h -0.364v -0.507c 0.338 0.026 0.988 0.039 1.937 0.039c 0.962 0 1.612 -0.013 1.95 -0.039v 0.507h -0.364c -0.455 0 -0.728 0.026 -0.819 0.091c -0.091 0.065 -0.143 0.221 -0.143 0.455v 3.003Z m -1.573 4.316h 1.144c 0.377 0 0.702 -0.052 0.975 -0.143c 0.741 -0.273 1.001 -0.819 1.001 -1.794c 0 -0.364 -0.039 -0.676 -0.13 -0.936c -0.221 -0.65 -0.923 -1.001 -1.846 -1.001h -1.729v 3.419c 0 0.468 0.078 0.455 0.585 0.455Z "/></symbol><symbol id="g9B543B57F718853EF8F95EF155B6CF69" overflow="visible"><path d="M 0 0m 9.074 3.51h -8.034c -0.208 0 -0.312 -0.091 -0.312 -0.26c 0 -0.169 0.104 -0.26 0.312 -0.26h 8.034c 0.208 0 0.312 0.091 0.312 0.26c 0 0.156 -0.156 0.26 -0.312 0.26Z "/></symbol></defs></svg>