<svg viewBox="0 0 374.998 36.686" width="374.998pt" height="36.686pt" xmlns="http://www.w3.org/2000/svg" xmlns:xlink="http://www.w3.org/1999/xlink" xmlns:h5="http://www.w3.org/1999/xhtml"><g transform="matrix(1 0 0 -1 6.5 21.593)"><use xlink:href="#gA5D6553E5589AE1C82BB1D97B3E20260" x="0" y="0" fill="#e6edf3" fill-rule="nonzero"/></g><g transform="matrix(1 0 0 -1 20.992111111 21.593)"><use xlink:href="#g13AFF74D87C474CFAF661EEAD0458F8B" x="0" y="0" fill="#e6edf3" fill-rule="nonzero"/></g><g transform="matrix(1 0 0 -1 34.717222222 21.593)"><use xlink:href="#g84C597EFF9988624DBABE6CF17069247" x="0" y="0" fill="#e6edf3" fill-rule="nonzero"/></g><g transform="matrix(1 0 0 -1 49.870888889 21.593)"><use xlink:href="#g115DED64194A3B9D1CA25A004CD4734D" x="0" y="0" fill="#e6edf3" fill-rule="nonzero"/></g><g transform="matrix(1 0 0 -1 58.862555556 21.593)"><use xlink:href="#gEB9B079EF07FFCCA69ED7A9B1F1ABEB" x="0" y="0" fill="#e6edf3" fill-rule="nonzero"/></g><g transform="matrix(1 0 0 -1 66.090555556 21.593)"><use xlink:href="#gE70A8B7A223969D4EC58FC2FFC91A371" x="0" y="0" fill="#e6edf3" fill-rule="nonzero"/></g><g transform="matrix(1 0 0 -1 73.503444444 21.593)"><use xlink:href="#g596E6AE655F7C550875F3D7A9A58D2C7" x="0" y="0" fill="#e6edf3" fill-rule="nonzero"/></g><g transform="matrix(1 0 0 -1 86.506333333 21.593)"><use xlink:href="#g9A821B85A19606F12AFA84257EC05DE9" x="0" y="0" fill="#e6edf3" fill-rule="nonzero"/></g><g transform="matrix(1 0 0 -1 123.972333333 21.593)"><use xlink:href="#gA5D6553E5589AE1C82BB1D97B3E20260" x="0" y="0" fill="#e6edf3" fill-rule="nonzero"/></g><g transform="matrix(1 0 0 -1 138.464444444 21.593)"><use xlink:href="#g13AFF74D87C474CFAF661EEAD0458F8B" x="0" y="0" fill="#e6edf3" fill-rule="nonzero"/></g><g transform="matrix(1 0 0 -1 152.189555556 21.593)"><use xlink:href="#gE38C5AF7324BE81D2650853A4E40FE14" x="0" y="0" fill="#e6edf3" fill-rule="nonzero"/></g><g transform="matrix(1 0 0 -1 172.803222222 21.593)"><use xlink:href="#g7E0DE8510F76F8FD5F8C8A25983FCF95" x="0" y="0" fill="#e6edf3" fill-rule="nonzero"/></g><g transform="matrix(1 0 0 -1 189.095111111 21.593)"><use xlink:href="#g596E6AE655F7C550875F3D7A9A58D2C7" x="0" y="0" fill="#e6edf3" fill-rule="nonzero"/></g><g transform="matrix(1 0 0 -1 202.098 21.593)"><use xlink:href="#g9A821B85A19606F12AFA84257EC05DE9" x="0" y="0" fill="#e6edf3" fill-rule="nonzero"/></g><g transform="matrix(1 0 0 -1 215.730666667 21.593)"><use xlink:href="#gEB9B079EF07FFCCA69ED7A9B1F1ABEB" x="0" y="0" fill="#e6edf3" fill-rule="nonzero"/></g><g transform="matrix(1 0 0 -1 222.958666667 21.593)"><use xlink:href="#g7FCD119A4094BE7F1574F3E8F3A7E7BD" x="0" y="0" fill="#e6edf3" fill-rule="nonzero"/></g><g transform="matrix(1 0 0 -1 257.707666667 21.593)"><use xlink:href="#gA5D6553E5589AE1C82BB1D97B3E20260" x="0" y="0" fill="#e6edf3" fill-rule="nonzero"/></g><g transform="matrix(1 0 0 -1 272.199777778 21.593)"><use xlink:href="#g13AFF74D87C474CFAF661EEAD0458F8B" x="0" y="0" fill="#e6edf3" fill-rule="nonzero"/></g><g transform="matrix(1 0 0 -1 285.924888889 21.593)"><use xlink:href="#g804534FDB2C04DB6DF70D6FAD987A95A" x="0" y="0" fill="#e6edf3" fill-rule="nonzero"/></g><g transform="matrix(1 0 0 -1 311.998555556 21.593)"><use xlink:href="#g6697F866823FE95C3132B77B4272D97A" x="0" y="0" fill="#e6edf3" fill-rule="nonzero"/></g><g transform="matrix(1 0 0 -1 324.273444444 21.593)"><use xlink:href="#g596E6AE655F7C550875F3D7A9A58D2C7" x="0" y="0" fill="#e6edf3" fill-rule="nonzero"/></g><g transform="matrix(1 0 0 -1 337.276333333 21.593)"><use xlink:href="#g9A821B85A19606F12AFA84257EC05DE9" x="0" y="0" fill="#e6edf3" fill-rule="nonzero"/></g><g transform="matrix(1 0 0 -1 350.909 21.593)"><use xlink:href="#gEB9B079EF07FFCCA69ED7A9B1F1ABEB" x="0" y="0" fill="#e6edf3" fill-rule="nonzero"/></g><g transform="matrix(1 0 0 -1 358.137 21.593)"><use xlink:href="#g53251C539233983FE9FC826CA7FBAC4A" x="0" y="0" fill="#e6edf3" fill-rule="nonzero"/></g><defs><symbol id="gA5D6553E5589AE1C82BB1D97B3E20260" overflow="visible"><path d="M 0 0m 6.487 2.834c 0 -0.195 0.169 -0.234 0.299 -0.234c 0.247 0 0.26 0.078 0.325 0.312l 0.728 2.899c 0.052 0.169 0.052 0.208 0.052 0.208c 0 0.234 -0.26 0.234 -0.312 0.234c -0.247 0 -0.273 -0.091 -0.338 -0.338c -0.26 -0.988 -0.663 -1.183 -1.599 -1.183h -0.728l 0.858 3.471c 0.169 0.026 0.312 0.026 0.442 0.026h 1.547c 1.482 0 1.937 -0.377 1.937 -1.521c 0 -0.312 -0.052 -0.702 -0.052 -0.754c 0 -0.247 0.247 -0.247 0.312 -0.247c 0.273 0 0.286 0.13 0.312 0.364c 0.078 0.845 0.182 1.677 0.247 2.535c 0 0.234 -0.221 0.234 -0.429 0.234h -6.994c -0.273 0 -0.286 -0.013 -0.351 -0.065c -0.091 -0.065 -0.117 -0.312 -0.117 -0.312c 0 -0.234 0.182 -0.234 0.533 -0.234c 0.273 0 0.52 -0.013 0.793 -0.026l -1.833 -7.332c -0.052 -0.208 -0.065 -0.221 -0.299 -0.247c -0.221 -0.013 -0.481 -0.013 -0.689 -0.013c -0.338 0 -0.364 0 -0.416 -0.026c -0.156 -0.091 -0.156 -0.299 -0.156 -0.351c 0 0 0 -0.234 0.286 -0.234c 0.325 0 0.663 0.026 0.988 0.026l 1.053 0.013l 1.17 -0.013c 0.377 0 0.754 -0.026 1.118 -0.026c 0.156 0 0.39 0 0.39 0.377c 0 0.234 -0.221 0.234 -0.429 0.234h -0.429c -0.494 0 -0.689 0.026 -0.819 0.052l 0.871 3.458h 0.845c 0.78 0 1.001 -0.13 1.001 -0.559c 0 -0.195 -0.091 -0.559 -0.117 -0.728Z "/></symbol><symbol id="g13AFF74D87C474CFAF661EEAD0458F8B" overflow="visible"><path d="M 0 0m 9.074 4.771h -8.034c -0.208 0 -0.312 -0.104 -0.312 -0.299c 0 -0.195 0.104 -0.299 0.312 -0.299h 8.034c 0.208 0 0.312 0.104 0.312 0.299c 0 0.156 -0.143 0.299 -0.312 0.299Z m 0 -2.444h -8.034c -0.208 0 -0.312 -0.104 -0.312 -0.299c 0 -0.195 0.104 -0.299 0.312 -0.299h 8.034c 0.208 0 0.312 0.104 0.312 0.299c 0 0.169 -0.143 0.299 -0.312 0.299Z "/></symbol><symbol id="g84C597EFF9988624DBABE6CF17069247" overflow="visible"><path d="M 0 0m 10.803 17.693c -0.611 0 -1.157 -0.559 -1.664 -1.677c -0.247 -0.533 -0.507 -1.339 -0.793 -2.418c -1.261 -4.654 -2.21 -9.191 -3.211 -15.119c -0.455 -2.743 -0.832 -4.732 -1.131 -5.941c -0.533 -2.223 -1.144 -3.341 -1.82 -3.341c -0.247 0 -0.468 0.065 -0.663 0.208c 0.377 0.065 0.559 0.286 0.559 0.676c 0 0.377 -0.286 0.676 -0.663 0.676c -0.455 0 -0.689 -0.234 -0.689 -0.689c 0 -0.754 0.741 -1.261 1.482 -1.261c 0.949 0 1.729 0.754 2.34 2.249c 0.325 0.793 0.767 2.327 1.313 4.576c 0.949 3.861 1.794 7.995 2.535 12.389c 0.52 3.081 0.988 5.421 1.391 7.02c 0.377 1.508 0.728 2.262 1.04 2.262c 0.26 0 0.481 -0.065 0.65 -0.208c -0.377 -0.065 -0.572 -0.286 -0.572 -0.676c 0 -0.377 0.286 -0.676 0.663 -0.676c 0.455 0 0.689 0.234 0.689 0.689c 0 0.715 -0.702 1.261 -1.456 1.261Z "/></symbol><symbol id="g115DED64194A3B9D1CA25A004CD4734D" overflow="visible"><path d="M 0 0m 6.461 8.671c 0 0.143 -0.078 0.208 -0.247 0.208l -1.677 -0.039l -1.703 0.039c -0.208 0.013 -0.312 -0.091 -0.312 -0.312c 0 -0.13 0.143 -0.195 0.416 -0.195c 0.559 0 0.832 -0.065 0.832 -0.182c 0 -0.065 -0.013 -0.13 -0.026 -0.195l -1.729 -6.929c -0.065 -0.286 -0.195 -0.455 -0.39 -0.52c -0.091 -0.026 -0.325 -0.039 -0.728 -0.039c -0.325 0 -0.455 -0.013 -0.455 -0.312c 0 -0.13 0.078 -0.195 0.247 -0.195l 1.664 0.039l 1.716 -0.039c 0.208 -0.013 0.312 0.091 0.312 0.299c 0 0.208 -0.156 0.208 -0.442 0.208c -0.507 0 -0.819 -0.026 -0.819 0.182c 0 0.065 0.013 0.156 0.052 0.286l 1.716 6.851c 0.065 0.273 0.195 0.442 0.39 0.507c 0.091 0.026 0.325 0.039 0.728 0.039c 0.312 0 0.455 0.013 0.455 0.299Z "/></symbol><symbol id="gEB9B079EF07FFCCA69ED7A9B1F1ABEB" overflow="visible"><path d="M 0 0m 4.862 -0.143l 1.989 0.143v 0.494c -0.468 0 -0.741 0.026 -0.845 0.104c -0.104 0.078 -0.156 0.273 -0.156 0.572v 7.852l -1.937 -0.143v -0.494c 0.455 0 0.741 -0.039 0.845 -0.117c 0.104 -0.078 0.143 -0.26 0.143 -0.559v -2.639c -0.416 0.481 -0.936 0.715 -1.56 0.715c -0.806 0 -1.495 -0.286 -2.054 -0.871c -0.559 -0.585 -0.845 -1.287 -0.845 -2.106c 0 -0.793 0.26 -1.482 0.793 -2.067c 0.533 -0.585 1.183 -0.884 1.976 -0.884c 0.663 0 1.222 0.247 1.651 0.754Z m -1.469 5.538c 0.559 0 1.014 -0.247 1.339 -0.741c 0.091 -0.143 0.13 -0.286 0.13 -0.455v -2.626c 0 -0.169 -0.039 -0.312 -0.13 -0.455c -0.364 -0.585 -0.858 -0.871 -1.469 -0.871c -0.533 0 -0.962 0.26 -1.3 0.793c -0.234 0.39 -0.351 0.975 -0.351 1.755c 0 1.417 0.481 2.6 1.781 2.6Z "/></symbol><symbol id="gE70A8B7A223969D4EC58FC2FFC91A371" overflow="visible"><path d="M 0 0m 3.744 8.788c 0 0.169 -0.143 0.234 -0.286 0.234c -0.052 0 -0.065 0 -0.091 -0.013l -1.677 -0.078c -0.182 -0.013 -0.416 -0.026 -0.416 -0.39c 0 -0.234 0.247 -0.234 0.338 -0.234c 0.143 0 0.377 0 0.546 -0.026l -1.664 -6.669c -0.039 -0.143 -0.065 -0.26 -0.065 -0.442c 0 -0.858 0.858 -1.274 1.625 -1.274c 0.481 0 0.845 0.273 1.131 0.741c 0.312 0.507 0.494 1.209 0.494 1.287c 0 0.182 -0.195 0.182 -0.312 0.182c -0.143 0 -0.195 0 -0.26 -0.065c -0.026 -0.026 -0.026 -0.052 -0.104 -0.377c -0.247 -0.988 -0.533 -1.3 -0.884 -1.3c -0.195 0 -0.299 0.13 -0.299 0.468c 0 0.26 0.039 0.39 0.078 0.572l 1.794 7.163c 0.052 0.182 0.052 0.221 0.052 0.221Z "/></symbol><symbol id="g596E6AE655F7C550875F3D7A9A58D2C7" overflow="visible"><path d="M 0 0m 8.19 0.416c 0 0.091 -0.026 0.156 -0.091 0.221l -2.613 2.613l 2.613 2.613c 0.065 0.065 0.091 0.13 0.091 0.221c 0 0.169 -0.13 0.299 -0.299 0.299c -0.091 0 -0.156 -0.026 -0.221 -0.091l -2.613 -2.613l -2.613 2.613c -0.065 0.065 -0.13 0.091 -0.221 0.091c -0.169 0 -0.299 -0.13 -0.299 -0.299c 0 -0.091 0.026 -0.156 0.091 -0.221l 2.613 -2.613l -2.613 -2.613c -0.065 -0.065 -0.091 -0.13 -0.091 -0.221c 0 -0.169 0.13 -0.299 0.299 -0.299c 0.091 0 0.156 0.026 0.221 0.091l 2.613 2.613l 2.613 -2.613c 0.065 -0.065 0.13 -0.091 0.221 -0.091c 0.169 0 0.299 0.13 0.299 0.299Z "/></symbol><symbol id="g9A821B85A19606F12AFA84257EC05DE9" overflow="visible"><path d="M 0 0m 11.102 7.111c 0 1.066 -0.936 1.807 -2.769 1.807h -5.213c -0.26 0 -0.481 0 -0.481 -0.377c 0 -0.234 0.169 -0.234 0.546 -0.234c 0.273 0 0.52 -0.013 0.793 -0.026l -1.859 -7.41c -0.052 -0.208 -0.065 -0.221 -0.299 -0.247c -0.221 -0.013 -0.481 -0.013 -0.689 -0.013c -0.338 0 -0.364 0 -0.416 -0.026c -0.156 -0.091 -0.156 -0.299 -0.156 -0.351c 0 -0.234 0.234 -0.234 0.442 -0.234h 5.512c 2.717 0 3.939 1.716 3.939 2.873c 0 1.118 -0.975 1.677 -2.171 1.781c 2.08 0.377 2.821 1.586 2.821 2.457Z m -1.755 0.065c 0 -0.91 -0.728 -2.301 -2.496 -2.301h -2.054l 0.806 3.198c 0.052 0.195 0.065 0.208 0.143 0.221c 0.117 0.013 0.208 0.013 0.351 0.013h 1.937c 0.26 0 1.313 0 1.313 -1.131Z m -0.702 -4.095c 0 -1.001 -0.663 -2.47 -2.509 -2.47h -2.08c -0.195 0 -0.221 0 -0.312 0.013l 0.936 3.783h 2.535c 0.338 0 1.43 0 1.43 -1.326Z "/></symbol><symbol id="gE38C5AF7324BE81D2650853A4E40FE14" overflow="visible"><path d="M 0 0m 16.263 17.693c -0.611 0 -1.157 -0.559 -1.664 -1.664c -0.247 -0.546 -0.507 -1.352 -0.806 -2.431c -1.261 -4.654 -2.223 -9.191 -3.224 -15.119c -0.455 -2.743 -0.832 -4.732 -1.131 -5.941c -0.533 -2.223 -1.144 -3.341 -1.82 -3.341c -0.26 0 -0.481 0.065 -0.663 0.208c 0.377 0.065 0.559 0.286 0.559 0.676c 0 0.39 -0.286 0.676 -0.676 0.676c -0.455 0 -0.689 -0.234 -0.689 -0.689c 0 -0.728 0.741 -1.261 1.495 -1.261c 0.949 0 1.729 0.754 2.34 2.249c 0.325 0.793 0.767 2.327 1.326 4.576c 0.949 3.861 1.794 7.995 2.535 12.389c 0.52 3.081 0.988 5.421 1.391 7.02c 0.39 1.508 0.741 2.262 1.053 2.262c 0.26 0 0.481 -0.065 0.65 -0.208c -0.377 -0.065 -0.572 -0.286 -0.572 -0.676c 0 -0.377 0.286 -0.676 0.663 -0.676c 0.455 0 0.689 0.234 0.689 0.689c 0 0.715 -0.702 1.261 -1.456 1.261Z m -5.434 0c -0.611 0 -1.157 -0.559 -1.664 -1.664c -0.481 -1.079 -0.975 -3.029 -1.352 -4.563c -0.949 -3.705 -1.833 -8.034 -2.665 -12.987c -0.468 -2.743 -0.845 -4.732 -1.131 -5.941c -0.533 -2.223 -1.144 -3.341 -1.833 -3.341c -0.247 0 -0.468 0.065 -0.663 0.208c 0.377 0.065 0.559 0.286 0.559 0.676c 0 0.377 -0.286 0.676 -0.663 0.676c -0.455 0 -0.689 -0.234 -0.689 -0.689c 0 -0.728 0.728 -1.261 1.482 -1.261c 0.949 0 1.742 0.754 2.353 2.249c 0.325 0.793 0.767 2.327 1.313 4.576c 0.949 3.861 1.794 7.995 2.535 12.389c 0.52 3.081 0.988 5.421 1.404 7.02c 0.377 1.508 0.728 2.262 1.04 2.262c 0.26 0 0.481 -0.065 0.65 -0.208c -0.377 -0.065 -0.572 -0.286 -0.572 -0.676c 0 -0.39 0.286 -0.676 0.676 -0.676c 0.455 0 0.689 0.234 0.689 0.689c 0 0.728 -0.715 1.261 -1.469 1.261Z "/></symbol><symbol id="g7E0DE8510F76F8FD5F8C8A25983FCF95" overflow="visible"><path d="M 0 0m 13.039 8.684c 0 0.117 -0.104 0.234 -0.234 0.234c -0.325 0 -0.702 -0.039 -1.04 -0.039c -0.533 0 -1.092 0.039 -1.625 0.039c -0.104 0 -0.364 0 -0.364 -0.377c 0 -0.234 0.234 -0.234 0.312 -0.234c 0.104 0 0.377 -0.013 0.598 -0.091l -5.928 -4.095l 1.027 4.134c 0.286 0.052 0.741 0.052 0.884 0.052c 0.169 0 0.429 0 0.481 0.039c 0.13 0.091 0.143 0.338 0.143 0.338c 0 0.169 -0.13 0.234 -0.286 0.234c -0.325 0 -0.663 -0.026 -0.988 -0.026l -0.975 -0.013l -1.001 0.013c -0.338 0 -0.689 0.026 -1.027 0.026c -0.117 0 -0.377 0 -0.377 -0.377c 0 -0.234 0.169 -0.234 0.546 -0.234c 0.273 0 0.52 -0.013 0.793 -0.026l -1.859 -7.41c -0.052 -0.208 -0.065 -0.221 -0.299 -0.247c -0.221 -0.013 -0.481 -0.013 -0.689 -0.013c -0.338 0 -0.364 0 -0.416 -0.026c -0.156 -0.091 -0.156 -0.299 -0.156 -0.351c 0 0 0.013 -0.234 0.286 -0.234c 0.325 0 0.663 0.026 0.988 0.026l 0.988 0.013l 1.001 -0.013c 0.338 0 0.689 -0.026 1.014 -0.026c 0.13 0 0.221 0 0.299 0.091c 0.052 0.078 0.078 0.286 0.078 0.286c 0 0.234 -0.182 0.234 -0.533 0.234c -0.273 0 -0.52 0.013 -0.793 0.026l 0.676 2.704l 1.612 1.105l 1.937 -3.757c -0.26 -0.078 -0.65 -0.078 -0.702 -0.078c -0.169 0 -0.247 0 -0.325 -0.091c -0.052 -0.065 -0.078 -0.286 -0.078 -0.286c 0 0 0 -0.234 0.273 -0.234l 1.924 0.039l 0.832 -0.013c 0.26 0 0.533 -0.026 0.78 -0.026c 0.091 0 0.351 0 0.351 0.377c 0 0.234 -0.221 0.234 -0.416 0.234c -0.598 0 -0.624 0.052 -0.728 0.26l -2.366 4.589c 0.871 0.611 3.25 2.288 3.705 2.522c 0.299 0.156 0.572 0.299 1.235 0.325c 0.234 0.013 0.442 0.013 0.442 0.377Z "/></symbol><symbol id="g7FCD119A4094BE7F1574F3E8F3A7E7BD" overflow="visible"><path d="M 0 0m 1.729 2.041c 0 0.312 0.039 0.572 0.104 0.78c 0 0.13 -0.065 0.195 -0.208 0.195c -0.065 0 -0.117 -0.026 -0.143 -0.052c -0.065 -0.065 -0.806 -2.86 -0.806 -3.068c 0 -0.117 0.065 -0.182 0.195 -0.182c 0.065 0 0.156 0.065 0.273 0.208l 0.585 0.689c 0.455 -0.598 1.183 -0.897 2.171 -0.897c 0.858 0 1.612 0.351 2.288 1.04c 0.676 0.689 1.014 1.456 1.014 2.314c 0 0.611 -0.208 1.131 -0.637 1.547c -0.195 0.169 -0.455 0.312 -0.78 0.429c -0.299 0.065 -0.585 0.143 -0.871 0.221l -0.858 0.234c -0.429 0.117 -0.754 0.598 -0.754 1.118c 0 0.559 0.221 1.04 0.676 1.456c 0.455 0.416 0.962 0.624 1.521 0.624c 1.196 0 1.794 -0.65 1.794 -1.937c 0 -0.234 -0.052 -0.494 -0.052 -0.715v -0.039c 0.039 -0.091 0.104 -0.143 0.208 -0.143c 0.117 0 0.195 0.104 0.247 0.299l 0.689 2.821c 0 0.117 -0.065 0.182 -0.195 0.182c -0.065 0 -0.156 -0.065 -0.273 -0.208l -0.559 -0.676c -0.364 0.585 -0.975 0.884 -1.846 0.884c -0.819 0 -1.56 -0.312 -2.21 -0.923c -0.676 -0.624 -1.014 -1.339 -1.014 -2.158c 0 -0.936 0.611 -1.677 1.378 -1.885l 1.365 -0.351c 0.702 -0.195 1.144 -0.442 1.144 -1.313c 0 -0.598 -0.234 -1.131 -0.689 -1.599c -0.455 -0.468 -0.975 -0.715 -1.56 -0.715c -1.274 0 -2.197 0.559 -2.197 1.82Z "/></symbol><symbol id="g804534FDB2C04DB6DF70D6FAD987A95A" overflow="visible"><path d="M 0 0m 21.723 17.693c -0.611 0 -1.17 -0.559 -1.677 -1.664c -0.481 -1.079 -0.975 -3.029 -1.352 -4.563c -0.949 -3.705 -1.833 -8.034 -2.665 -12.987c -0.468 -2.743 -0.845 -4.732 -1.144 -5.941c -0.533 -2.223 -1.144 -3.341 -1.82 -3.341c -0.26 0 -0.481 0.065 -0.663 0.208c 0.377 0.065 0.559 0.286 0.559 0.676c 0 0.39 -0.286 0.676 -0.676 0.676c -0.455 0 -0.689 -0.234 -0.689 -0.689c 0 -0.728 0.741 -1.261 1.495 -1.261c 0.949 0 1.729 0.754 2.34 2.249c 0.325 0.793 0.767 2.327 1.326 4.576c 0.949 3.861 1.794 7.995 2.535 12.389c 0.52 3.081 0.988 5.421 1.404 7.02c 0.377 1.508 0.728 2.262 1.04 2.262c 0.273 0 0.494 -0.065 0.663 -0.208c -0.39 -0.065 -0.585 -0.286 -0.585 -0.676c 0 -0.377 0.299 -0.676 0.676 -0.676c 0.455 0 0.689 0.234 0.689 0.689c 0 0.715 -0.702 1.261 -1.456 1.261Z m -5.447 0c -0.611 0 -1.157 -0.559 -1.664 -1.664c -0.247 -0.546 -0.507 -1.352 -0.806 -2.431c -1.261 -4.667 -2.21 -9.191 -3.211 -15.119c -0.468 -2.743 -0.845 -4.732 -1.144 -5.941c -0.533 -2.223 -1.144 -3.341 -1.82 -3.341c -0.26 0 -0.481 0.065 -0.663 0.208c 0.377 0.065 0.559 0.286 0.559 0.676c 0 0.377 -0.299 0.676 -0.676 0.676c -0.455 0 -0.689 -0.234 -0.689 -0.689c 0 -0.728 0.728 -1.261 1.495 -1.261c 0.949 0 1.729 0.754 2.34 2.249c 0.325 0.793 0.767 2.327 1.326 4.576c 0.949 3.861 1.794 7.995 2.535 12.389c 0.52 3.081 0.988 5.421 1.404 7.02c 0.377 1.508 0.728 2.262 1.04 2.262c 0.273 0 0.494 -0.065 0.663 -0.208c -0.39 -0.065 -0.585 -0.286 -0.585 -0.676c 0 -0.377 0.299 -0.676 0.676 -0.676c 0.455 0 0.689 0.234 0.689 0.689c 0 0.728 -0.715 1.261 -1.469 1.261Z m -5.434 0c -0.611 0 -1.157 -0.559 -1.664 -1.664c -0.481 -1.066 -0.975 -3.016 -1.352 -4.563c -0.949 -3.705 -1.833 -8.034 -2.678 -12.987c -0.455 -2.743 -0.832 -4.732 -1.131 -5.941c -0.533 -2.223 -1.144 -3.341 -1.833 -3.341c -0.247 0 -0.468 0.065 -0.65 0.208c 0.377 0.065 0.559 0.286 0.559 0.676c 0 0.377 -0.299 0.676 -0.676 0.676c -0.455 0 -0.689 -0.234 -0.689 -0.689c 0 -0.728 0.728 -1.261 1.482 -1.261c 0.949 0 1.742 0.754 2.353 2.249c 0.325 0.793 0.767 2.327 1.326 4.576c 0.949 3.861 1.794 7.995 2.535 12.389c 0.52 3.081 0.988 5.421 1.404 7.02c 0.377 1.508 0.728 2.262 1.04 2.262c 0.26 0 0.481 -0.065 0.663 -0.208c -0.39 -0.065 -0.585 -0.286 -0.585 -0.676c 0 -0.39 0.286 -0.676 0.676 -0.676c 0.455 0 0.689 0.234 0.689 0.689c 0 0.728 -0.715 1.261 -1.469 1.261Z "/></symbol><symbol id="g6697F866823FE95C3132B77B4272D97A" overflow="visible"><path d="M 0 0m 9.022 8.684c 0 0 -0.013 0.234 -0.273 0.234c -0.26 0 -0.546 -0.026 -0.819 -0.026l -0.897 -0.013l -2.262 0.039c -0.156 0 -0.39 0 -0.39 -0.377c 0 -0.234 0.208 -0.234 0.442 -0.234h 0.455c 0.507 0 0.533 0 0.845 -0.039l -1.573 -6.305c -0.325 -1.326 -1.144 -1.716 -1.742 -1.716c -0.117 0 -0.676 0.013 -1.066 0.312c 0.702 0.169 0.936 0.78 0.936 1.131c 0 0.429 -0.351 0.741 -0.793 0.741c -0.52 0 -1.157 -0.416 -1.157 -1.235c 0 -0.897 0.897 -1.417 2.145 -1.417c 1.456 0 3.029 0.598 3.406 2.119l 1.547 6.162c 0.052 0.195 0.065 0.208 0.156 0.221c 0.156 0.026 0.338 0.026 0.494 0.026c 0.338 0 0.546 0 0.546 0.377Z "/></symbol><symbol id="g53251C539233983FE9FC826CA7FBAC4A" overflow="visible"><path d="M 0 0m 8.723 8.84c -0.247 0 -1.027 0.039 -1.274 0.039c -0.195 0 -0.299 -0.104 -0.299 -0.299c 0 -0.13 0.091 -0.195 0.26 -0.208c 0.364 -0.013 0.546 -0.143 0.546 -0.364c 0 -0.117 -0.065 -0.273 -0.182 -0.468l -3.874 -6.149l -0.858 6.656c 0 0.221 0.273 0.325 0.832 0.325c 0.26 0 0.377 0.091 0.377 0.312c 0 0.13 -0.078 0.195 -0.234 0.195c -0.286 0 -1.3 -0.039 -1.586 -0.039c -0.26 0 -1.144 0.039 -1.404 0.039c -0.195 0 -0.299 -0.104 -0.299 -0.299c 0 -0.143 0.13 -0.208 0.377 -0.208c 0.221 0 0.377 -0.026 0.481 -0.052c 0.208 -0.065 0.195 -0.091 0.234 -0.338l 1.014 -7.93c 0.039 -0.221 0.143 -0.338 0.312 -0.338c 0.169 0 0.299 0.091 0.403 0.26l 4.628 7.358c 0.299 0.468 0.585 0.767 0.871 0.884c 0.195 0.091 0.442 0.143 0.728 0.156c 0.143 0.013 0.208 0.104 0.221 0.299c 0.013 0.143 -0.065 0.208 -0.221 0.208c -0.195 0 -0.858 -0.039 -1.053 -0.039Z "/></symbol></defs></svg>