<svg viewBox="0 0 181.860177778 38.493" width="181.860177778pt" height="38.493pt" xmlns="http://www.w3.org/2000/svg" xmlns:xlink="http://www.w3.org/1999/xlink" xmlns:h5="http://www.w3.org/1999/xhtml"><g transform="matrix(1 0 0 -1 6.5 22.425)"><use xlink:href="#g9A821B85A19606F12AFA84257EC05DE9" x="0" y="0" fill="#e6edf3" fill-rule="nonzero"/></g><g transform="matrix(1 0 0 -1 17.966 22.425)"><use xlink:href="#g2D7122AD31FABF41BED931716B883F58" x="0" y="0" fill="#e6edf3" fill-rule="nonzero"/></g><g transform="matrix(1 0 0 -1 23.023 22.425)"><use xlink:href="#g2E14CA3B9ED9898497EE95E7951B1DCB" x="0" y="0" fill="#e6edf3" fill-rule="nonzero"/></g><g transform="matrix(1 0 0 -1 29.952 22.425)"><use xlink:href="#g2F93E6EEEE2061842AA37F49EEA2F1A2" x="0" y="0" fill="#e6edf3" fill-rule="nonzero"/></g><g transform="matrix(1 0 0 -1 38.620111111 22.425)"><use xlink:href="#g13AFF74D87C474CFAF661EEAD0458F8B" x="0" y="0" fill="#e6edf3" fill-rule="nonzero"/></g><g transform="matrix(1 0 0 -1 53.890272222 13.624)"><use xlink:href="#gA32CAC846971E9468FADD933D647D41A" x="0" y="0" fill="#e6edf3" fill-rule="nonzero"/></g><g transform="matrix(1 0 0 -1 61.729272222 16.835)"><use xlink:href="#g66C287F757172C4FBEE46C9B113A6E1F" x="0" y="0" fill="#e6edf3" fill-rule="nonzero"/></g><g transform="matrix(1 0 0 -1 53.645222222 31.343)"><use xlink:href="#g20CFFEADE4897488A8BFC1664802F723" x="0" y="0" fill="#e6edf3" fill-rule="nonzero"/></g><g transform="matrix(1 0 0 -1 60.145222222 31.343)"><use xlink:href="#g3286A19CC752B68D2D94F2BC1EB495F" x="0" y="0" fill="#e6edf3" fill-rule="nonzero"/></g><path fill="none" stroke="#e6edf3" stroke-width="0.624" stroke-linecap="butt" stroke-linejoin="miter" stroke-miterlimit="4" transform="translate(53.645222222 19.175)" d="M 0 0h 14.235"/><g transform="matrix(1 0 0 -1 71.346888889 22.425)"><use xlink:href="#g84C597EFF9988624DBABE6CF17069247" x="0" y="0" fill="#e6edf3" fill-rule="nonzero"/></g><g transform="matrix(1 0 0 -1 87.800555556 13.624)"><use xlink:href="#g2B2905743FECD7B6C3E5C08060196097" x="0" y="0" fill="#e6edf3" fill-rule="nonzero"/></g><g transform="matrix(1 0 0 -1 98.411444444 13.624)"><use xlink:href="#g596E6AE655F7C550875F3D7A9A58D2C7" x="0" y="0" fill="#e6edf3" fill-rule="nonzero"/></g><g transform="matrix(1 0 0 -1 111.414333333 13.624)"><use xlink:href="#g2D7122AD31FABF41BED931716B883F58" x="0" y="0" fill="#e6edf3" fill-rule="nonzero"/></g><g transform="matrix(1 0 0 -1 116.471333333 13.624)"><use xlink:href="#g2E14CA3B9ED9898497EE95E7951B1DCB" x="0" y="0" fill="#e6edf3" fill-rule="nonzero"/></g><g transform="matrix(1 0 0 -1 126.289222222 13.624)"><use xlink:href="#g9B543B57F718853EF8F95EF155B6CF69" x="0" y="0" fill="#e6edf3" fill-rule="nonzero"/></g><g transform="matrix(1 0 0 -1 139.292111111 13.624)"><use xlink:href="#g2E14CA3B9ED9898497EE95E7951B1DCB" x="0" y="0" fill="#e6edf3" fill-rule="nonzero"/></g><g transform="matrix(1 0 0 -1 146.221111111 8.905)"><use xlink:href="#g962CFBE7F4B0D6E4A1CBDA86A03D94EA" x="0" y="0" fill="#e6edf3" fill-rule="nonzero"/></g><g transform="matrix(1 0 0 -1 150.652811111 13.624)"><use xlink:href="#g2F93E6EEEE2061842AA37F49EEA2F1A2" x="0" y="0" fill="#e6edf3" fill-rule="nonzero"/></g><g transform="matrix(1 0 0 -1 98.097494444 31.343)"><use xlink:href="#gC12CEF1D304BDB4626B024B5BF4A4B8E" x="0" y="0" fill="#e6edf3" fill-rule="nonzero"/></g><g transform="matrix(1 0 0 -1 101.711494444 31.343)"><use xlink:href="#g2E14CA3B9ED9898497EE95E7951B1DCB" x="0" y="0" fill="#e6edf3" fill-rule="nonzero"/></g><g transform="matrix(1 0 0 -1 111.529383333 31.343)"><use xlink:href="#g9B543B57F718853EF8F95EF155B6CF69" x="0" y="0" fill="#e6edf3" fill-rule="nonzero"/></g><g transform="matrix(1 0 0 -1 124.532272222 31.343)"><use xlink:href="#g2E14CA3B9ED9898497EE95E7951B1DCB" x="0" y="0" fill="#e6edf3" fill-rule="nonzero"/></g><g transform="matrix(1 0 0 -1 131.461272222 27.586)"><use xlink:href="#g962CFBE7F4B0D6E4A1CBDA86A03D94EA" x="0" y="0" fill="#e6edf3" fill-rule="nonzero"/></g><g transform="matrix(1 0 0 -1 135.892972222 31.343)"><use xlink:href="#gC12CEF1D304BDB4626B024B5BF4A4B8E" x="0" y="0" fill="#e6edf3" fill-rule="nonzero"/></g><g transform="matrix(1 0 0 -1 139.506972222 27.586)"><use xlink:href="#g5EE8C4A84F8A12CB3DE79793924C3207" x="0" y="0" fill="#e6edf3" fill-rule="nonzero"/></g><path fill="none" stroke="#e6edf3" stroke-width="0.624" stroke-linecap="butt" stroke-linejoin="miter" stroke-miterlimit="4" transform="translate(87.800555556 19.175)" d="M 0 0h 67.909255556"/><g transform="matrix(1 0 0 -1 159.176477778 22.425)"><use xlink:href="#gEB9B079EF07FFCCA69ED7A9B1F1ABEB" x="0" y="0" fill="#e6edf3" fill-rule="nonzero"/></g><g transform="matrix(1 0 0 -1 166.404477778 22.425)"><use xlink:href="#gE70A8B7A223969D4EC58FC2FFC91A371" x="0" y="0" fill="#e6edf3" fill-rule="nonzero"/></g><g transform="matrix(1 0 0 -1 170.928477778 17.706)"><use xlink:href="#g962CFBE7F4B0D6E4A1CBDA86A03D94EA" x="0" y="0" fill="#e6edf3" fill-rule="nonzero"/></g><defs><symbol id="g9A821B85A19606F12AFA84257EC05DE9" overflow="visible"><path d="M 0 0m 11.102 7.111c 0 1.066 -0.936 1.807 -2.769 1.807h -5.213c -0.26 0 -0.481 0 -0.481 -0.377c 0 -0.234 0.169 -0.234 0.546 -0.234c 0.273 0 0.52 -0.013 0.793 -0.026l -1.859 -7.41c -0.052 -0.208 -0.065 -0.221 -0.299 -0.247c -0.221 -0.013 -0.481 -0.013 -0.689 -0.013c -0.338 0 -0.364 0 -0.416 -0.026c -0.156 -0.091 -0.156 -0.299 -0.156 -0.351c 0 -0.234 0.234 -0.234 0.442 -0.234h 5.512c 2.717 0 3.939 1.716 3.939 2.873c 0 1.118 -0.975 1.677 -2.171 1.781c 2.08 0.377 2.821 1.586 2.821 2.457Z m -1.755 0.065c 0 -0.91 -0.728 -2.301 -2.496 -2.301h -2.054l 0.806 3.198c 0.052 0.195 0.065 0.208 0.143 0.221c 0.117 0.013 0.208 0.013 0.351 0.013h 1.937c 0.26 0 1.313 0 1.313 -1.131Z m -0.702 -4.095c 0 -1.001 -0.663 -2.47 -2.509 -2.47h -2.08c -0.195 0 -0.221 0 -0.312 0.013l 0.936 3.783h 2.535c 0.338 0 1.43 0 1.43 -1.326Z "/></symbol><symbol id="g2D7122AD31FABF41BED931716B883F58" overflow="visible"><path d="M 0 0m 4.134 -3.224c 0.117 0 0.182 0.065 0.182 0.182c 0 0.039 -0.026 0.091 -0.065 0.143c -0.676 0.52 -1.222 1.378 -1.625 2.561c -0.351 1.027 -0.533 2.041 -0.533 3.042v 1.092c 0 1.001 0.182 2.015 0.533 3.042c 0.403 1.183 0.949 2.041 1.625 2.561c 0.039 0.039 0.065 0.091 0.065 0.143c 0 0.117 -0.065 0.182 -0.182 0.182c -0.013 0 -0.052 -0.013 -0.091 -0.039c -0.78 -0.598 -1.43 -1.482 -1.963 -2.665c -0.507 -1.131 -0.767 -2.197 -0.767 -3.224v -1.092c 0 -1.027 0.26 -2.093 0.767 -3.224c 0.533 -1.183 1.183 -2.067 1.963 -2.665c 0.039 -0.026 0.078 -0.039 0.091 -0.039Z "/></symbol><symbol id="g2E14CA3B9ED9898497EE95E7951B1DCB" overflow="visible"><path d="M 0 0m 6.565 4.745c 0 0.598 -0.468 1.131 -1.274 1.131c -0.728 0 -1.339 -0.364 -1.729 -0.78c -0.312 0.598 -1.053 0.78 -1.521 0.78c -0.481 0 -0.845 -0.273 -1.131 -0.741c -0.312 -0.507 -0.494 -1.209 -0.494 -1.287c 0 -0.182 0.195 -0.182 0.312 -0.182c 0.143 0 0.195 0 0.26 0.065c 0.026 0.026 0.026 0.052 0.104 0.377c 0.247 0.988 0.533 1.3 0.884 1.3c 0.195 0 0.299 -0.13 0.299 -0.468c 0 -0.234 -0.039 -0.377 -0.182 -0.988c -0.208 -0.819 -0.429 -1.638 -0.624 -2.47c -0.078 -0.338 -0.234 -0.923 -0.234 -1.014c 0 -0.273 0.208 -0.572 0.611 -0.572c 0.26 0 0.715 0.156 0.858 0.689l 0.91 3.653c 0.052 0.195 0.052 0.221 0.221 0.416c 0.299 0.377 0.78 0.754 1.43 0.754c 0.325 0 0.468 -0.143 0.507 -0.182c -0.715 -0.143 -0.793 -0.78 -0.793 -0.91c 0 -0.286 0.221 -0.598 0.65 -0.598c 0.442 0 0.936 0.364 0.936 1.027Z "/></symbol><symbol id="g2F93E6EEEE2061842AA37F49EEA2F1A2" overflow="visible"><path d="M 0 0m 1.014 -3.185c 0.78 0.598 1.43 1.482 1.963 2.665c 0.507 1.131 0.767 2.197 0.767 3.224v 1.092c 0 1.027 -0.26 2.093 -0.767 3.224c -0.533 1.183 -1.183 2.067 -1.963 2.665c -0.039 0.026 -0.078 0.039 -0.091 0.039c -0.117 0 -0.182 -0.065 -0.182 -0.182c 0 -0.052 0.026 -0.104 0.065 -0.143c 0.676 -0.52 1.222 -1.378 1.625 -2.561c 0.351 -1.027 0.533 -2.041 0.533 -3.042v -1.092c 0 -1.001 -0.182 -2.015 -0.533 -3.042c -0.403 -1.183 -0.949 -2.041 -1.625 -2.561c -0.039 -0.052 -0.065 -0.104 -0.065 -0.143c 0 -0.117 0.065 -0.182 0.182 -0.182c 0.013 0 0.052 0.013 0.091 0.039Z "/></symbol><symbol id="g13AFF74D87C474CFAF661EEAD0458F8B" overflow="visible"><path d="M 0 0m 9.074 4.771h -8.034c -0.208 0 -0.312 -0.104 -0.312 -0.299c 0 -0.195 0.104 -0.299 0.312 -0.299h 8.034c 0.208 0 0.312 0.104 0.312 0.299c 0 0.156 -0.143 0.299 -0.312 0.299Z m 0 -2.444h -8.034c -0.208 0 -0.312 -0.104 -0.312 -0.299c 0 -0.195 0.104 -0.299 0.312 -0.299h 8.034c 0.208 0 0.312 0.104 0.312 0.299c 0 0.169 -0.143 0.299 -0.312 0.299Z "/></symbol><symbol id="gA32CAC846971E9468FADD933D647D41A" overflow="visible"><path d="M 0 0m 7.436 1.846c 0 0.117 -0.065 0.182 -0.208 0.182c -0.104 0 -0.182 -0.091 -0.221 -0.26c -0.26 -1.04 -0.572 -1.56 -0.923 -1.56c -0.221 0 -0.338 0.182 -0.338 0.546c 0 0.221 0.078 0.663 0.247 1.313l 0.364 1.391c 0.117 0.468 0.221 0.793 0.299 1.196l 0.078 0.364c 0.026 0.091 0.039 0.156 0.039 0.182c 0 0.273 -0.143 0.403 -0.429 0.403c -0.286 0 -0.468 -0.156 -0.546 -0.481l -0.936 -3.718c 0 -0.143 -0.208 -0.403 -0.624 -0.793c -0.286 -0.273 -0.611 -0.403 -0.988 -0.403c -0.598 0 -0.897 0.351 -0.897 1.066c 0 0.247 0.052 0.598 0.169 1.079l 0.546 2.158c 0.104 0.403 0.169 0.689 0.195 0.832c 0 0.273 -0.143 0.403 -0.429 0.403c -0.286 0 -0.468 -0.169 -0.559 -0.507l -1.846 -7.436c -0.026 -0.104 -0.039 -0.169 -0.039 -0.208c 0 -0.273 0.143 -0.403 0.416 -0.403c 0.195 0 0.351 0.104 0.494 0.299c 0.039 0.091 0.26 0.988 0.689 2.691c 0.312 -0.234 0.715 -0.351 1.209 -0.351c 0.767 0 1.274 0.403 1.677 0.871c 0.143 -0.481 0.572 -0.871 1.183 -0.871c 0.897 0 1.17 1.053 1.378 2.015Z "/></symbol><symbol id="g66C287F757172C4FBEE46C9B113A6E1F" overflow="visible"><path d="M 0 0m 4.6956 2.9029c 0 1.0283 -0.182 1.8109 -0.5369 2.3478c -0.2912 0.455 -0.8736 0.7917 -1.5743 0.7917c -0.2912 0 -0.5551 -0.0455 -0.7826 -0.1456c -1.001 -0.4186 -1.3286 -1.5834 -1.3286 -2.9939c 0 -0.3094 0.0182 -0.6006 0.0455 -0.8827c 0.1547 -1.1921 0.7098 -2.2022 2.0657 -2.2022c 0.2912 0 0.5551 0.0455 0.7826 0.1456c 1.001 0.4095 1.3286 1.547 1.3286 2.9393Z m -1.0374 2.0202c 0.1001 -0.3367 0.1547 -0.9646 0.1547 -1.9019c 0 -0.8918 -0.0364 -1.5197 -0.1183 -1.8928c -0.1092 -0.5369 -0.4914 -0.9828 -1.1102 -0.9828c -0.2275 0 -0.455 0.0728 -0.6643 0.2275c -0.2821 0.2093 -0.455 0.6188 -0.5278 1.2467c -0.0273 0.2093 -0.0364 0.6734 -0.0364 1.4014c 0 0.8827 0.0455 1.4924 0.1365 1.82c 0.1547 0.5824 0.5187 0.8736 1.092 0.8736c 0.546 0 0.9464 -0.3549 1.0738 -0.7917Z "/></symbol><symbol id="g20CFFEADE4897488A8BFC1664802F723" overflow="visible"><path d="M 0 0m 4.589 8.801c -0.117 0 -0.221 -0.065 -0.299 -0.182l -3.926 -6.032v -0.468h 3.393v -1.066c 0 -0.234 -0.052 -0.39 -0.143 -0.455c -0.091 -0.065 -0.338 -0.091 -0.767 -0.091h -0.325v -0.507c 0.377 0.026 0.975 0.039 1.781 0.039c 0.806 0 1.404 -0.013 1.781 -0.039v 0.507h -0.325c -0.429 0 -0.676 0.026 -0.767 0.091c -0.091 0.065 -0.143 0.221 -0.143 0.455v 1.066h 1.274v 0.507h -1.274v 5.954c 0 0.13 -0.091 0.221 -0.26 0.221Z m -0.754 -1.612v -4.563h -2.964Z "/></symbol><symbol id="g3286A19CC752B68D2D94F2BC1EB495F" overflow="visible"><path d="M 0 0m 6.812 5.603h -4.29c -0.533 0 -1.001 -0.208 -1.378 -0.611c -0.182 -0.195 -0.793 -1.027 -0.793 -1.196c 0.052 -0.091 0.052 -0.169 0.208 -0.169c 0.091 0 0.169 0.052 0.247 0.169c 0.416 0.637 0.949 0.962 1.586 0.962h 0.663c -0.299 -1.131 -0.845 -2.522 -1.625 -4.173c -0.065 -0.156 -0.104 -0.273 -0.104 -0.338c 0 -0.26 0.143 -0.39 0.416 -0.39c 0.247 0 0.429 0.143 0.546 0.416c 0.234 0.741 0.403 1.313 0.494 1.703l 0.715 2.782h 1.339c -0.351 -1.547 -0.533 -2.626 -0.533 -3.237c 0 -0.637 0.143 -1.664 0.624 -1.664c 0.273 0 0.572 0.26 0.572 0.533c 0 0.065 -0.026 0.169 -0.078 0.299c -0.247 0.611 -0.364 1.3 -0.364 2.093c 0 0.611 0.078 1.274 0.221 1.976h 1.417c 0.455 0 0.676 0.156 0.676 0.481c 0 0.299 -0.234 0.364 -0.559 0.364Z "/></symbol><symbol id="g84C597EFF9988624DBABE6CF17069247" overflow="visible"><path d="M 0 0m 10.803 17.693c -0.611 0 -1.157 -0.559 -1.664 -1.677c -0.247 -0.533 -0.507 -1.339 -0.793 -2.418c -1.261 -4.654 -2.21 -9.191 -3.211 -15.119c -0.455 -2.743 -0.832 -4.732 -1.131 -5.941c -0.533 -2.223 -1.144 -3.341 -1.82 -3.341c -0.247 0 -0.468 0.065 -0.663 0.208c 0.377 0.065 0.559 0.286 0.559 0.676c 0 0.377 -0.286 0.676 -0.663 0.676c -0.455 0 -0.689 -0.234 -0.689 -0.689c 0 -0.754 0.741 -1.261 1.482 -1.261c 0.949 0 1.729 0.754 2.34 2.249c 0.325 0.793 0.767 2.327 1.313 4.576c 0.949 3.861 1.794 7.995 2.535 12.389c 0.52 3.081 0.988 5.421 1.391 7.02c 0.377 1.508 0.728 2.262 1.04 2.262c 0.26 0 0.481 -0.065 0.65 -0.208c -0.377 -0.065 -0.572 -0.286 -0.572 -0.676c 0 -0.377 0.286 -0.676 0.663 -0.676c 0.455 0 0.689 0.234 0.689 0.689c 0 0.715 -0.702 1.261 -1.456 1.261Z "/></symbol><symbol id="g2B2905743FECD7B6C3E5C08060196097" overflow="visible"><path d="M 0 0m 7.358 8.684c 0 0.156 -0.13 0.234 -0.286 0.234c -0.325 0 -0.663 -0.026 -0.988 -0.026l -1.04 -0.013l -1.079 0.013c -0.338 0 -0.689 0.026 -1.014 0.026c -0.143 0 -0.377 0 -0.377 -0.377c 0 -0.234 0.208 -0.234 0.442 -0.234h 0.273l 0.689 -0.026l -1.859 -7.41c -0.052 -0.208 -0.065 -0.221 -0.312 -0.234c -0.156 -0.026 -0.39 -0.026 -0.559 -0.026h -0.273c -0.26 0 -0.481 0 -0.481 -0.377c 0 -0.169 0.143 -0.234 0.286 -0.234c 0.325 0 0.663 0.026 0.988 0.026l 1.053 0.013l 1.079 -0.013c 0.338 0 0.676 -0.026 1.001 -0.026c 0.13 0 0.39 0 0.39 0.377c 0 0.234 -0.221 0.234 -0.442 0.234h -0.273c -0.091 0 -0.52 0.013 -0.689 0.026l 1.846 7.397c 0.052 0.221 0.065 0.234 0.325 0.26c 0.195 0.013 0.364 0.013 0.559 0.013h 0.273c 0.273 0 0.286 0.013 0.351 0.065c 0.078 0.052 0.117 0.234 0.117 0.312Z "/></symbol><symbol id="g596E6AE655F7C550875F3D7A9A58D2C7" overflow="visible"><path d="M 0 0m 8.19 0.416c 0 0.091 -0.026 0.156 -0.091 0.221l -2.613 2.613l 2.613 2.613c 0.065 0.065 0.091 0.13 0.091 0.221c 0 0.169 -0.13 0.299 -0.299 0.299c -0.091 0 -0.156 -0.026 -0.221 -0.091l -2.613 -2.613l -2.613 2.613c -0.065 0.065 -0.13 0.091 -0.221 0.091c -0.169 0 -0.299 -0.13 -0.299 -0.299c 0 -0.091 0.026 -0.156 0.091 -0.221l 2.613 -2.613l -2.613 -2.613c -0.065 -0.065 -0.091 -0.13 -0.091 -0.221c 0 -0.169 0.13 -0.299 0.299 -0.299c 0.091 0 0.156 0.026 0.221 0.091l 2.613 2.613l 2.613 -2.613c 0.065 -0.065 0.13 -0.091 0.221 -0.091c 0.169 0 0.299 0.13 0.299 0.299Z "/></symbol><symbol id="g9B543B57F718853EF8F95EF155B6CF69" overflow="visible"><path d="M 0 0m 9.074 3.51h -8.034c -0.208 0 -0.312 -0.091 -0.312 -0.26c 0 -0.169 0.104 -0.26 0.312 -0.26h 8.034c 0.208 0 0.312 0.091 0.312 0.26c 0 0.156 -0.156 0.26 -0.312 0.26Z "/></symbol><symbol id="g962CFBE7F4B0D6E4A1CBDA86A03D94EA" overflow="visible"><path d="M 0 0m 2.5844 4.9959c -0.2275 0 -0.3822 -0.091 -0.4641 -0.2821l -1.5288 -3.8402h 0.4095l 2.0202 3.3397c 0.0455 0.0819 0.0728 0.1729 0.0728 0.273c 0 0.273 -0.2366 0.5096 -0.5096 0.5096Z "/></symbol><symbol id="gC12CEF1D304BDB4626B024B5BF4A4B8E" overflow="visible"><path d="M 0 0m 1.807 -3.25c 0.169 0 0.26 0.104 0.26 0.312v 12.376c 0 0.208 -0.091 0.312 -0.26 0.312c -0.169 0 -0.26 -0.104 -0.26 -0.312v -12.376c 0 -0.208 0.091 -0.312 0.26 -0.312Z "/></symbol><symbol id="g5EE8C4A84F8A12CB3DE79793924C3207" overflow="visible"><path d="M 0 0m 3.2123 3.2123c 0.6097 0.2457 1.1921 0.7826 1.1921 1.5561c 0 0.4095 -0.2184 0.7371 -0.6461 0.9737c -0.3549 0.2002 -0.7553 0.3003 -1.2012 0.3003c -0.4459 0 -0.8372 -0.091 -1.1739 -0.2821c -0.4095 -0.2275 -0.6188 -0.546 -0.6188 -0.9555c 0 -0.3458 0.1729 -0.5187 0.5096 -0.5187c 0.2821 0 0.4914 0.2184 0.4914 0.5005c 0 0.2821 -0.1456 0.4459 -0.4277 0.4914c 0.2639 0.2821 0.6552 0.4277 1.1921 0.4277c 0.5915 0 0.9282 -0.3549 0.9282 -0.9373c 0 -0.4277 -0.1183 -0.7735 -0.3458 -1.0465c -0.2548 -0.3003 -0.4368 -0.3458 -0.9646 -0.3822c -0.2457 -0.0182 -0.4095 0.0091 -0.4095 -0.1729c 0 -0.1092 0.091 -0.1638 0.2639 -0.1638h 0.4823c 0.7826 0 1.1648 -0.5915 1.1648 -1.4105c 0 -0.8008 -0.364 -1.4105 -1.1284 -1.4105c -0.6643 0 -1.1466 0.182 -1.4469 0.5551c 0.3185 0.0364 0.4823 0.2184 0.4823 0.5369c 0 0.3003 -0.2275 0.5278 -0.5278 0.5278c -0.3549 0 -0.5369 -0.182 -0.5369 -0.5551c 0 -0.4641 0.2366 -0.8372 0.7007 -1.1011c 0.3913 -0.2184 0.8372 -0.3276 1.3468 -0.3276c 0.5551 0 1.0374 0.1547 1.456 0.4641c 0.455 0.3367 0.6825 0.7735 0.6825 1.3104c 0 0.8463 -0.7371 1.4287 -1.4651 1.6198Z "/></symbol><symbol id="gEB9B079EF07FFCCA69ED7A9B1F1ABEB" overflow="visible"><path d="M 0 0m 4.862 -0.143l 1.989 0.143v 0.494c -0.468 0 -0.741 0.026 -0.845 0.104c -0.104 0.078 -0.156 0.273 -0.156 0.572v 7.852l -1.937 -0.143v -0.494c 0.455 0 0.741 -0.039 0.845 -0.117c 0.104 -0.078 0.143 -0.26 0.143 -0.559v -2.639c -0.416 0.481 -0.936 0.715 -1.56 0.715c -0.806 0 -1.495 -0.286 -2.054 -0.871c -0.559 -0.585 -0.845 -1.287 -0.845 -2.106c 0 -0.793 0.26 -1.482 0.793 -2.067c 0.533 -0.585 1.183 -0.884 1.976 -0.884c 0.663 0 1.222 0.247 1.651 0.754Z m -1.469 5.538c 0.559 0 1.014 -0.247 1.339 -0.741c 0.091 -0.143 0.13 -0.286 0.13 -0.455v -2.626c 0 -0.169 -0.039 -0.312 -0.13 -0.455c -0.364 -0.585 -0.858 -0.871 -1.469 -0.871c -0.533 0 -0.962 0.26 -1.3 0.793c -0.234 0.39 -0.351 0.975 -0.351 1.755c 0 1.417 0.481 2.6 1.781 2.6Z "/></symbol><symbol id="gE70A8B7A223969D4EC58FC2FFC91A371" overflow="visible"><path d="M 0 0m 3.744 8.788c 0 0.169 -0.143 0.234 -0.286 0.234c -0.052 0 -0.065 0 -0.091 -0.013l -1.677 -0.078c -0.182 -0.013 -0.416 -0.026 -0.416 -0.39c 0 -0.234 0.247 -0.234 0.338 -0.234c 0.143 0 0.377 0 0.546 -0.026l -1.664 -6.669c -0.039 -0.143 -0.065 -0.26 -0.065 -0.442c 0 -0.858 0.858 -1.274 1.625 -1.274c 0.481 0 0.845 0.273 1.131 0.741c 0.312 0.507 0.494 1.209 0.494 1.287c 0 0.182 -0.195 0.182 -0.312 0.182c -0.143 0 -0.195 0 -0.26 -0.065c -0.026 -0.026 -0.026 -0.052 -0.104 -0.377c -0.247 -0.988 -0.533 -1.3 -0.884 -1.3c -0.195 0 -0.299 0.13 -0.299 0.468c 0 0.26 0.039 0.39 0.078 0.572l 1.794 7.163c 0.052 0.182 0.052 0.221 0.052 0.221Z "/></symbol></defs></svg>