<svg viewBox="0 0 267.274077778 22.6096" width="267.274077778pt" height="22.6096pt" xmlns="http://www.w3.org/2000/svg" xmlns:xlink="http://www.w3.org/1999/xlink" xmlns:h5="http://www.w3.org/1999/xhtml"><g transform="matrix(1 0 0 -1 6.5 13.624)"><use xlink:href="#gA5D6553E5589AE1C82BB1D97B3E20260" x="0" y="0" fill="#e6edf3" fill-rule="nonzero"/></g><g transform="matrix(1 0 0 -1 14.417 16.835)"><use xlink:href="#g4A3E5A4432A0C4729107706BA2BDD8BD" x="0" y="0" fill="#e6edf3" fill-rule="nonzero"/><use xlink:href="#g1CEBE56BFF7571B8DB10F1A4DAC5A5D7" x="7.5803" y="0" fill="#e6edf3" fill-rule="nonzero"/><use xlink:href="#g44B522BD902AC660D87109134D3AB71C" x="12.1303" y="0" fill="#e6edf3" fill-rule="nonzero"/></g><g transform="matrix(1 0 0 -1 35.436411111 13.624)"><use xlink:href="#g13AFF74D87C474CFAF661EEAD0458F8B" x="0" y="0" fill="#e6edf3" fill-rule="nonzero"/></g><g transform="matrix(1 0 0 -1 49.161522222 13.624)"><use xlink:href="#gDA6300BE1A83285F3E02339F05C53FB2" x="0" y="0" fill="#e6edf3" fill-rule="nonzero"/></g><g transform="matrix(1 0 0 -1 55.401522222 13.624)"><use xlink:href="#g2D7122AD31FABF41BED931716B883F58" x="0" y="0" fill="#e6edf3" fill-rule="nonzero"/></g><g transform="matrix(1 0 0 -1 60.458522222 13.624)"><use xlink:href="#g40DB03C6AB9CB0E74409AC70A5D226E6" x="0" y="0" fill="#e6edf3" fill-rule="nonzero"/></g><g transform="matrix(1 0 0 -1 70.718411111 13.624)"><use xlink:href="#g596E6AE655F7C550875F3D7A9A58D2C7" x="0" y="0" fill="#e6edf3" fill-rule="nonzero"/></g><g transform="matrix(1 0 0 -1 83.7213 13.624)"><use xlink:href="#g9A821B85A19606F12AFA84257EC05DE9" x="0" y="0" fill="#e6edf3" fill-rule="nonzero"/></g><g transform="matrix(1 0 0 -1 95.1873 13.624)"><use xlink:href="#g2F93E6EEEE2061842AA37F49EEA2F1A2" x="0" y="0" fill="#e6edf3" fill-rule="nonzero"/></g><g transform="matrix(1 0 0 -1 126.2443 13.624)"><use xlink:href="#gA5D6553E5589AE1C82BB1D97B3E20260" x="0" y="0" fill="#e6edf3" fill-rule="nonzero"/></g><g transform="matrix(1 0 0 -1 134.1613 16.835)"><use xlink:href="#gC0ABA531695025EEEBCE35B3C23FE9A6" x="0" y="0" fill="#e6edf3" fill-rule="nonzero"/><use xlink:href="#g733BC00FCAC4D4817C0648C06C143A7E" x="5.6875" y="0" fill="#e6edf3" fill-rule="nonzero"/><use xlink:href="#g23F189AE588E1A359BE6574F29945FEE" x="10.2375" y="0" fill="#e6edf3" fill-rule="nonzero"/><use xlink:href="#g6F1B2EC7690C574873AE01D06ED173C6" x="13.8047" y="0" fill="#e6edf3" fill-rule="nonzero"/><use xlink:href="#g689CD2C8CC31657A53FE374FF94F6738" x="17.8451" y="0" fill="#e6edf3" fill-rule="nonzero"/><use xlink:href="#g929C9F5835BF20B9E99EAF8B7595E15F" x="22.9047" y="0" fill="#e6edf3" fill-rule="nonzero"/><use xlink:href="#g28CEBD340F9F90B9AC8D56CE8173A097" x="26.4446" y="0" fill="#e6edf3" fill-rule="nonzero"/></g><g transform="matrix(1 0 0 -1 168.985411111 13.624)"><use xlink:href="#g13AFF74D87C474CFAF661EEAD0458F8B" x="0" y="0" fill="#e6edf3" fill-rule="nonzero"/></g><g transform="matrix(1 0 0 -1 182.710522222 13.624)"><use xlink:href="#gDA6300BE1A83285F3E02339F05C53FB2" x="0" y="0" fill="#e6edf3" fill-rule="nonzero"/></g><g transform="matrix(1 0 0 -1 188.950522222 13.624)"><use xlink:href="#g2D7122AD31FABF41BED931716B883F58" x="0" y="0" fill="#e6edf3" fill-rule="nonzero"/></g><g transform="matrix(1 0 0 -1 194.007522222 13.624)"><use xlink:href="#g219318600111ED0DDD69E7A24294373" x="0" y="0" fill="#e6edf3" fill-rule="nonzero"/></g><g transform="matrix(1 0 0 -1 207.985411111 13.624)"><use xlink:href="#gEDF6611ACB83925E748178A176190AF2" x="0" y="0" fill="#e6edf3" fill-rule="nonzero"/></g><g transform="matrix(1 0 0 -1 220.9883 13.624)"><use xlink:href="#g40DB03C6AB9CB0E74409AC70A5D226E6" x="0" y="0" fill="#e6edf3" fill-rule="nonzero"/></g><g transform="matrix(1 0 0 -1 231.248188889 13.624)"><use xlink:href="#g596E6AE655F7C550875F3D7A9A58D2C7" x="0" y="0" fill="#e6edf3" fill-rule="nonzero"/></g><g transform="matrix(1 0 0 -1 244.251077778 13.624)"><use xlink:href="#g9A821B85A19606F12AFA84257EC05DE9" x="0" y="0" fill="#e6edf3" fill-rule="nonzero"/></g><g transform="matrix(1 0 0 -1 255.717077778 13.624)"><use xlink:href="#g2F93E6EEEE2061842AA37F49EEA2F1A2" x="0" y="0" fill="#e6edf3" fill-rule="nonzero"/></g><defs><symbol id="gA5D6553E5589AE1C82BB1D97B3E20260" overflow="visible"><path d="M 0 0m 6.487 2.834c 0 -0.195 0.169 -0.234 0.299 -0.234c 0.247 0 0.26 0.078 0.325 0.312l 0.728 2.899c 0.052 0.169 0.052 0.208 0.052 0.208c 0 0.234 -0.26 0.234 -0.312 0.234c -0.247 0 -0.273 -0.091 -0.338 -0.338c -0.26 -0.988 -0.663 -1.183 -1.599 -1.183h -0.728l 0.858 3.471c 0.169 0.026 0.312 0.026 0.442 0.026h 1.547c 1.482 0 1.937 -0.377 1.937 -1.521c 0 -0.312 -0.052 -0.702 -0.052 -0.754c 0 -0.247 0.247 -0.247 0.312 -0.247c 0.273 0 0.286 0.13 0.312 0.364c 0.078 0.845 0.182 1.677 0.247 2.535c 0 0.234 -0.221 0.234 -0.429 0.234h -6.994c -0.273 0 -0.286 -0.013 -0.351 -0.065c -0.091 -0.065 -0.117 -0.312 -0.117 -0.312c 0 -0.234 0.182 -0.234 0.533 -0.234c 0.273 0 0.52 -0.013 0.793 -0.026l -1.833 -7.332c -0.052 -0.208 -0.065 -0.221 -0.299 -0.247c -0.221 -0.013 -0.481 -0.013 -0.689 -0.013c -0.338 0 -0.364 0 -0.416 -0.026c -0.156 -0.091 -0.156 -0.299 -0.156 -0.351c 0 0 0 -0.234 0.286 -0.234c 0.325 0 0.663 0.026 0.988 0.026l 1.053 0.013l 1.17 -0.013c 0.377 0 0.754 -0.026 1.118 -0.026c 0.156 0 0.39 0 0.39 0.377c 0 0.234 -0.221 0.234 -0.429 0.234h -0.429c -0.494 0 -0.689 0.026 -0.819 0.052l 0.871 3.458h 0.845c 0.78 0 1.001 -0.13 1.001 -0.559c 0 -0.195 -0.091 -0.559 -0.117 -0.728Z "/></symbol><symbol id="g4A3E5A4432A0C4729107706BA2BDD8BD" overflow="visible"><path d="M 0 0m 2.8665 3.7583c 0.4186 0 0.6279 -0.3185 0.6279 -0.9646v -2.0748c 0 -0.1729 -0.0273 -0.2821 -0.091 -0.3185c -0.0637 -0.0364 -0.273 -0.0546 -0.6097 -0.0546v -0.3458l 1.0556 0.0273l 1.0465 -0.0273v 0.3458c -0.3367 0 -0.5369 0.0182 -0.6006 0.0546c -0.0637 0.0364 -0.1001 0.1456 -0.1001 0.3185v 1.638c 0 0.728 0.4732 1.4014 1.1739 1.4014c 0.4277 0 0.637 -0.3185 0.637 -0.9646v -2.0748c 0 -0.1729 -0.0364 -0.2821 -0.1001 -0.3185c -0.0637 -0.0364 -0.273 -0.0546 -0.6097 -0.0546v -0.3458l 1.0556 0.0273l 1.0465 -0.0273v 0.3458c -0.2912 0 -0.4823 0.0091 -0.5733 0.0364c -0.091 0.0273 -0.1274 0.091 -0.1274 0.2002v 1.7017c 0 0.4277 -0.0182 0.728 -0.0455 0.9009c -0.091 0.5551 -0.5005 0.8372 -1.2194 0.8372c -0.5733 0 -1.001 -0.2639 -1.2922 -0.8008c -0.1274 0.5369 -0.5278 0.8008 -1.2103 0.8008c -0.5733 0 -1.0101 -0.273 -1.3013 -0.819v 0.819l -1.3377 -0.1001v -0.3458c 0.3276 0 0.5278 -0.0273 0.6006 -0.0819c 0.0728 -0.0546 0.1001 -0.1729 0.1001 -0.3822v -2.3933c 0 -0.1729 -0.0364 -0.2821 -0.1001 -0.3185c -0.0637 -0.0364 -0.2639 -0.0546 -0.6006 -0.0546v -0.3458l 1.0556 0.0273l 1.0465 -0.0273v 0.3458c -0.3367 0 -0.546 0.0182 -0.6097 0.0546c -0.0637 0.0364 -0.1001 0.1456 -0.1001 0.3185v 1.638c 0 0.7371 0.4823 1.4014 1.183 1.4014Z "/></symbol><symbol id="g1CEBE56BFF7571B8DB10F1A4DAC5A5D7" overflow="visible"><path d="M 0 0m 4.3953 0.8281v 0.5369h -0.2912v -0.5369c 0 -0.3549 -0.1001 -0.5369 -0.2912 -0.5369c -0.182 0 -0.2912 0.2275 -0.2912 0.4095v 1.7927c 0 0.3185 -0.0364 0.5551 -0.1001 0.7189c -0.2184 0.5369 -0.8463 0.8645 -1.4833 0.8645c -0.7007 0 -1.3923 -0.3913 -1.3923 -1.0465c 0 -0.3003 0.1547 -0.455 0.455 -0.455c 0.3003 0 0.4459 0.1456 0.4459 0.4459c 0 0.2639 -0.1365 0.4186 -0.4186 0.4459c 0.2002 0.2275 0.5005 0.3458 0.8918 0.3458c 0.5642 0 0.91 -0.5187 0.91 -1.1102v -0.3003c -0.7098 -0.0455 -1.2467 -0.1547 -1.6198 -0.3276c -0.6097 -0.2821 -0.9191 -0.6734 -0.9191 -1.1921c 0 -0.2366 0.091 -0.4368 0.2639 -0.5915c 0.2912 -0.2639 0.6916 -0.3913 1.2012 -0.3913c 0.5369 0 0.9191 0.2275 1.1557 0.6916c 0.0637 -0.3458 0.3185 -0.6461 0.7098 -0.6461c 0.4823 0 0.7735 0.3822 0.7735 0.8827Z m -2.5753 -0.6643c -0.4186 0 -0.7644 0.3094 -0.7644 0.728c 0 0.8463 0.8827 1.2103 1.7745 1.2558v -0.8645c 0 -0.6097 -0.4004 -1.1193 -1.0101 -1.1193Z "/></symbol><symbol id="g44B522BD902AC660D87109134D3AB71C" overflow="visible"><path d="M 0 0m 3.9221 4.1223c -0.3458 0 -0.6643 -0.1365 -0.9555 -0.4095c -0.273 0.2093 -0.5824 0.3094 -0.9373 0.3094c -0.7826 0 -1.4924 -0.5824 -1.4924 -1.3468c 0 -0.3822 0.1365 -0.6916 0.4095 -0.9282c -0.1729 -0.2184 -0.2639 -0.4641 -0.2639 -0.7462c 0 -0.3458 0.1183 -0.6097 0.3458 -0.7826c -0.3822 -0.1274 -0.7735 -0.455 -0.7735 -0.9191c 0 -0.3913 0.2548 -0.7007 0.7553 -0.9191c 0.3822 -0.1729 0.8008 -0.2548 1.2558 -0.2548c 0.4641 0 0.8918 0.0819 1.274 0.2548c 0.5005 0.2184 0.7462 0.5278 0.7462 0.9373c 0 0.4823 -0.2002 0.8372 -0.6006 1.0647c -0.4186 0.2275 -0.8827 0.2548 -1.5561 0.2548c -0.4004 0 -0.6188 0 -0.6643 0.0091c -0.2548 0.0364 -0.4368 0.2821 -0.4368 0.5642c 0 0.1365 0.0364 0.2639 0.1183 0.3731c 0.2548 -0.1729 0.546 -0.2639 0.8827 -0.2639c 0.7826 0 1.4833 0.5824 1.4833 1.3468c 0 0.3549 -0.1183 0.6461 -0.3549 0.8736c 0.2275 0.2093 0.4732 0.3094 0.7371 0.3094c -0.0455 -0.0455 -0.0728 -0.1183 -0.0728 -0.2093c 0 -0.2002 0.1001 -0.3003 0.3003 -0.3003c 0.1911 0 0.2912 0.1001 0.2912 0.3094c 0 0.2821 -0.2184 0.4732 -0.4914 0.4732Z m -1.8928 -0.3822c 0.4914 0 0.7371 -0.3549 0.7371 -1.0647c 0 -0.7189 -0.2457 -1.0829 -0.7371 -1.0829c -0.5005 0 -0.7462 0.3549 -0.7462 1.0738c 0 0.7189 0.2457 1.0738 0.7462 1.0738Z m -0.5369 -3.7037h 0.5278c 0.4732 0 0.8554 -0.0273 1.1466 -0.091c 0.3913 -0.0819 0.5824 -0.3003 0.5824 -0.6461c 0 -0.2912 -0.182 -0.5187 -0.546 -0.6916c -0.2821 -0.1365 -0.5915 -0.2002 -0.9282 -0.2002c -0.3276 0 -0.637 0.0637 -0.9282 0.2002c -0.3731 0.1729 -0.5551 0.4004 -0.5551 0.6916c 0 0.3822 0.3276 0.7371 0.7007 0.7371Z "/></symbol><symbol id="g13AFF74D87C474CFAF661EEAD0458F8B" overflow="visible"><path d="M 0 0m 9.074 4.771h -8.034c -0.208 0 -0.312 -0.104 -0.312 -0.299c 0 -0.195 0.104 -0.299 0.312 -0.299h 8.034c 0.208 0 0.312 0.104 0.312 0.299c 0 0.156 -0.143 0.299 -0.312 0.299Z m 0 -2.444h -8.034c -0.208 0 -0.312 -0.104 -0.312 -0.299c 0 -0.195 0.104 -0.299 0.312 -0.299h 8.034c 0.208 0 0.312 0.104 0.312 0.299c 0 0.169 -0.143 0.299 -0.312 0.299Z "/></symbol><symbol id="gDA6300BE1A83285F3E02339F05C53FB2" overflow="visible"><path d="M 0 0m 4.836 4.901c -0.26 0.559 -0.663 0.845 -1.196 0.845c -0.845 0 -1.586 -0.429 -2.223 -1.3c -0.598 -0.806 -0.897 -1.638 -0.897 -2.509c 0 -1.131 0.65 -2.106 1.729 -2.106c 0.468 0 0.936 0.221 1.417 0.663l -0.533 -2.132c -0.039 -0.195 -0.156 -0.312 -0.338 -0.351c -0.065 -0.013 -0.234 -0.026 -0.533 -0.026c -0.078 -0.013 -0.13 -0.013 -0.156 -0.013c -0.117 -0.013 -0.182 -0.117 -0.182 -0.299v -0.052c 0.039 -0.091 0.117 -0.143 0.221 -0.143c 0.247 0 1.027 0.039 1.274 0.039c 0.247 0 1.066 -0.039 1.313 -0.039c 0.182 0 0.273 0.104 0.273 0.312c 0 0.13 -0.13 0.195 -0.377 0.195c -0.234 0 -0.559 -0.013 -0.559 0.143c 0 0.052 0.013 0.143 0.052 0.273l 1.755 7.15c 0 0.117 -0.065 0.182 -0.182 0.182c -0.234 0 -0.728 -0.65 -0.858 -0.832Z m -0.416 -0.052c 0.117 -0.273 0.182 -0.455 0.182 -0.572c 0 -0.013 -0.013 -0.091 -0.039 -0.208l -0.312 -1.261c -0.247 -0.936 -0.364 -1.417 -0.377 -1.443c -0.247 -0.455 -0.962 -1.157 -1.586 -1.157c -0.507 0 -0.767 0.39 -0.767 1.157c 0 0.598 0.403 2.054 0.585 2.535c 0.247 0.611 0.819 1.456 1.534 1.456c 0.351 0 0.611 -0.169 0.78 -0.507Z "/></symbol><symbol id="g2D7122AD31FABF41BED931716B883F58" overflow="visible"><path d="M 0 0m 4.134 -3.224c 0.117 0 0.182 0.065 0.182 0.182c 0 0.039 -0.026 0.091 -0.065 0.143c -0.676 0.52 -1.222 1.378 -1.625 2.561c -0.351 1.027 -0.533 2.041 -0.533 3.042v 1.092c 0 1.001 0.182 2.015 0.533 3.042c 0.403 1.183 0.949 2.041 1.625 2.561c 0.039 0.039 0.065 0.091 0.065 0.143c 0 0.117 -0.065 0.182 -0.182 0.182c -0.013 0 -0.052 -0.013 -0.091 -0.039c -0.78 -0.598 -1.43 -1.482 -1.963 -2.665c -0.507 -1.131 -0.767 -2.197 -0.767 -3.224v -1.092c 0 -1.027 0.26 -2.093 0.767 -3.224c 0.533 -1.183 1.183 -2.067 1.963 -2.665c 0.039 -0.026 0.078 -0.039 0.091 -0.039Z "/></symbol><symbol id="g40DB03C6AB9CB0E74409AC70A5D226E6" overflow="visible"><path d="M 0 0m 7.033 4.706c 0 1.183 -0.884 1.183 -0.884 1.183c -0.52 0 -0.988 -0.546 -0.988 -0.988c 0 -0.364 0.273 -0.52 0.39 -0.585c 0.546 -0.325 0.65 -0.559 0.65 -0.819c 0 -0.286 -0.754 -3.133 -2.275 -3.133c -0.936 0 -0.936 0.78 -0.936 1.014c 0 0.754 0.364 1.703 0.78 2.743c 0.104 0.26 0.143 0.377 0.143 0.585c 0 0.754 -0.754 1.17 -1.469 1.17c -1.378 0 -2.028 -1.768 -2.028 -2.028c 0 -0.182 0.195 -0.182 0.312 -0.182c 0.156 0 0.247 0 0.299 0.169c 0.416 1.404 1.105 1.573 1.339 1.573c 0.091 0 0.221 0 0.221 -0.273c 0 -0.299 -0.156 -0.676 -0.195 -0.78c -0.598 -1.508 -0.793 -2.093 -0.793 -2.717c 0 -1.378 1.118 -1.742 2.249 -1.742c 2.236 0 3.185 3.692 3.185 4.81Z "/></symbol><symbol id="g596E6AE655F7C550875F3D7A9A58D2C7" overflow="visible"><path d="M 0 0m 8.19 0.416c 0 0.091 -0.026 0.156 -0.091 0.221l -2.613 2.613l 2.613 2.613c 0.065 0.065 0.091 0.13 0.091 0.221c 0 0.169 -0.13 0.299 -0.299 0.299c -0.091 0 -0.156 -0.026 -0.221 -0.091l -2.613 -2.613l -2.613 2.613c -0.065 0.065 -0.13 0.091 -0.221 0.091c -0.169 0 -0.299 -0.13 -0.299 -0.299c 0 -0.091 0.026 -0.156 0.091 -0.221l 2.613 -2.613l -2.613 -2.613c -0.065 -0.065 -0.091 -0.13 -0.091 -0.221c 0 -0.169 0.13 -0.299 0.299 -0.299c 0.091 0 0.156 0.026 0.221 0.091l 2.613 2.613l 2.613 -2.613c 0.065 -0.065 0.13 -0.091 0.221 -0.091c 0.169 0 0.299 0.13 0.299 0.299Z "/></symbol><symbol id="g9A821B85A19606F12AFA84257EC05DE9" overflow="visible"><path d="M 0 0m 11.102 7.111c 0 1.066 -0.936 1.807 -2.769 1.807h -5.213c -0.26 0 -0.481 0 -0.481 -0.377c 0 -0.234 0.169 -0.234 0.546 -0.234c 0.273 0 0.52 -0.013 0.793 -0.026l -1.859 -7.41c -0.052 -0.208 -0.065 -0.221 -0.299 -0.247c -0.221 -0.013 -0.481 -0.013 -0.689 -0.013c -0.338 0 -0.364 0 -0.416 -0.026c -0.156 -0.091 -0.156 -0.299 -0.156 -0.351c 0 -0.234 0.234 -0.234 0.442 -0.234h 5.512c 2.717 0 3.939 1.716 3.939 2.873c 0 1.118 -0.975 1.677 -2.171 1.781c 2.08 0.377 2.821 1.586 2.821 2.457Z m -1.755 0.065c 0 -0.91 -0.728 -2.301 -2.496 -2.301h -2.054l 0.806 3.198c 0.052 0.195 0.065 0.208 0.143 0.221c 0.117 0.013 0.208 0.013 0.351 0.013h 1.937c 0.26 0 1.313 0 1.313 -1.131Z m -0.702 -4.095c 0 -1.001 -0.663 -2.47 -2.509 -2.47h -2.08c -0.195 0 -0.221 0 -0.312 0.013l 0.936 3.783h 2.535c 0.338 0 1.43 0 1.43 -1.326Z "/></symbol><symbol id="g2F93E6EEEE2061842AA37F49EEA2F1A2" overflow="visible"><path d="M 0 0m 1.014 -3.185c 0.78 0.598 1.43 1.482 1.963 2.665c 0.507 1.131 0.767 2.197 0.767 3.224v 1.092c 0 1.027 -0.26 2.093 -0.767 3.224c -0.533 1.183 -1.183 2.067 -1.963 2.665c -0.039 0.026 -0.078 0.039 -0.091 0.039c -0.117 0 -0.182 -0.065 -0.182 -0.182c 0 -0.052 0.026 -0.104 0.065 -0.143c 0.676 -0.52 1.222 -1.378 1.625 -2.561c 0.351 -1.027 0.533 -2.041 0.533 -3.042v -1.092c 0 -1.001 -0.182 -2.015 -0.533 -3.042c -0.403 -1.183 -0.949 -2.041 -1.625 -2.561c -0.039 -0.052 -0.065 -0.104 -0.065 -0.143c 0 -0.117 0.065 -0.182 0.182 -0.182c 0.013 0 0.052 0.013 0.091 0.039Z "/></symbol><symbol id="gC0ABA531695025EEEBCE35B3C23FE9A6" overflow="visible"><path d="M 0 0m 2.093 0.6734v 4.7957c 0 0.1183 0.0091 0.1911 0.0273 0.2366c 0.0455 0.1001 0.3094 0.1547 0.7917 0.1547h 0.3276v 0.3549c -0.2366 -0.0182 -0.7462 -0.0273 -1.5379 -0.0273c -0.7007 0 -1.1648 0.0091 -1.4014 0.0273v -0.3549h 0.2548c 0.3185 0 0.5096 -0.0273 0.5733 -0.0728c 0.0637 -0.0455 0.1001 -0.1456 0.1001 -0.3094v -4.7411c 0 -0.1638 -0.0364 -0.273 -0.1001 -0.3185c -0.0637 -0.0455 -0.2548 -0.0637 -0.5733 -0.0637h -0.2548v -0.3549h 4.7411l 0.2548 2.3933h -0.2912c -0.0455 -0.4641 -0.1274 -0.8372 -0.2275 -1.1284c -0.2002 -0.5733 -0.7371 -0.91 -1.547 -0.91h -0.7371c -0.3458 0 -0.4004 0 -0.4004 0.3185Z "/></symbol><symbol id="g733BC00FCAC4D4817C0648C06C143A7E" overflow="visible"><path d="M 0 0m 2.2659 -0.1001c 0.5642 0 1.0374 0.2002 1.4287 0.6006c 0.3913 0.4004 0.5915 0.8827 0.5915 1.4469c 0 0.5733 -0.1911 1.0738 -0.5733 1.4924c -0.3822 0.4186 -0.8645 0.637 -1.4378 0.637c -0.5733 0 -1.0465 -0.2184 -1.4378 -0.637c -0.3913 -0.4186 -0.5824 -0.9191 -0.5824 -1.4924c 0 -0.5642 0.1911 -1.0465 0.5824 -1.4469c 0.3913 -0.4004 0.8736 -0.6006 1.4287 -0.6006Z m 0.0091 0.2912c -0.4368 0 -0.7644 0.1911 -0.9919 0.5824c -0.1456 0.2548 -0.2184 0.6734 -0.2184 1.2467c 0 0.5551 0.0728 0.9555 0.2093 1.2103c 0.2184 0.3913 0.546 0.5824 0.9919 0.5824c 0.4277 0 0.7553 -0.1911 0.9828 -0.5642c 0.1547 -0.2548 0.2275 -0.6643 0.2275 -1.2285c 0 -1.0556 -0.3094 -1.8291 -1.2012 -1.8291Z "/></symbol><symbol id="g23F189AE588E1A359BE6574F29945FEE" overflow="visible"><path d="M 0 0m 3.3124 3.4398c 0 0.3549 -0.3367 0.5824 -0.6916 0.5824c -0.4641 0 -0.819 -0.273 -1.0556 -0.8281v 0.8281l -1.3104 -0.1001v -0.3458c 0.3185 0 0.5096 -0.0273 0.5824 -0.0819c 0.0728 -0.0546 0.1092 -0.1729 0.1092 -0.3822v -2.3933c 0 -0.1729 -0.0273 -0.2821 -0.091 -0.3185c -0.0637 -0.0364 -0.2639 -0.0546 -0.6006 -0.0546v -0.3458l 1.0465 0.0273c 0.3822 0.0091 0.7735 0 1.1648 -0.0273v 0.3458h -0.2184c -0.3003 0 -0.4914 0.0273 -0.5551 0.0728c -0.0637 0.0455 -0.091 0.1547 -0.091 0.3185v 1.3741c 0 0.3913 0.0728 0.7462 0.2093 1.0465c 0.182 0.3913 0.4459 0.5915 0.8008 0.6006c -0.091 -0.091 -0.1365 -0.2002 -0.1365 -0.3276c 0 -0.2821 0.1365 -0.4186 0.4186 -0.4186c 0.2457 0 0.4186 0.1911 0.4186 0.4277Z "/></symbol><symbol id="g6F1B2EC7690C574873AE01D06ED173C6" overflow="visible"><path d="M 0 0m 3.7765 2.2841c 0 1.0465 -0.6097 1.7927 -1.6289 1.7927c -0.546 0 -1.001 -0.2093 -1.3741 -0.637c -0.3458 -0.4004 -0.5187 -0.8827 -0.5187 -1.4378c 0 -0.5733 0.1911 -1.0556 0.5733 -1.4742c 0.3822 -0.4186 0.8554 -0.6279 1.4196 -0.6279c 0.5187 0 0.9191 0.182 1.1921 0.5369c 0.2275 0.3003 0.3367 0.5187 0.3367 0.6643c 0 0.091 -0.0546 0.1365 -0.1547 0.1365c -0.0728 0 -0.1183 -0.0455 -0.1456 -0.1456c -0.2002 -0.6006 -0.5915 -0.9009 -1.1739 -0.9009c -0.4095 0 -0.728 0.1911 -0.9737 0.5824c -0.1729 0.2821 -0.2548 0.7098 -0.2639 1.2922h 2.457c 0.2002 0 0.2548 0.0182 0.2548 0.2184Z m -0.8099 0.8918c 0.1001 -0.3003 0.1456 -0.5915 0.1456 -0.8554h -2.0384c 0.0273 0.6006 0.182 1.0101 0.455 1.2194c 0.2275 0.182 0.4277 0.273 0.6188 0.273c 0.4095 0 0.6825 -0.2093 0.819 -0.637Z "/></symbol><symbol id="g689CD2C8CC31657A53FE374FF94F6738" overflow="visible"><path d="M 0 0m 2.8574 3.7583c 0.4095 0 0.6188 -0.3185 0.6188 -0.9646v -2.0748c 0 -0.1729 -0.0273 -0.2821 -0.091 -0.3185c -0.0637 -0.0364 -0.2639 -0.0546 -0.6006 -0.0546v -0.3458l 1.0465 0.0273l 1.0374 -0.0273v 0.3458c -0.2912 0 -0.4823 0.0091 -0.5733 0.0364c -0.091 0.0273 -0.1274 0.091 -0.1274 0.2002v 1.7017c 0 0.4277 -0.0091 0.728 -0.0364 0.9009c -0.091 0.5551 -0.5005 0.8372 -1.2194 0.8372c -0.5733 0 -1.001 -0.273 -1.2831 -0.819v 0.819l -1.3377 -0.1001v -0.3458c 0.3276 0 0.5278 -0.0273 0.6006 -0.0819c 0.0728 -0.0546 0.1001 -0.1729 0.1001 -0.3822v -2.3933c 0 -0.1729 -0.0364 -0.2821 -0.1001 -0.3185c -0.0637 -0.0364 -0.2639 -0.0546 -0.6006 -0.0546v -0.3458l 1.0465 0.0273l 1.0374 -0.0273v 0.3458c -0.3367 0 -0.5278 0.0182 -0.5915 0.0546c -0.0637 0.0364 -0.1001 0.1456 -0.1001 0.3185v 1.638c 0 0.7371 0.4641 1.4014 1.1739 1.4014Z "/></symbol><symbol id="g929C9F5835BF20B9E99EAF8B7595E15F" overflow="visible"><path d="M 0 0m 3.0212 1.1466v 0.546h -0.2912v -0.5278c 0 -0.455 -0.1638 -0.9646 -0.5642 -0.9646c -0.3731 0 -0.5551 0.3094 -0.5551 0.9282v 2.4661h 1.2649v 0.3458h -1.2649v 1.6562h -0.2912c -0.0091 -0.3003 -0.0364 -0.5642 -0.1001 -0.8008c -0.1547 -0.6006 -0.5096 -0.91 -1.0465 -0.9373v -0.2639h 0.7553v -2.4479c 0 -0.5369 0.1638 -0.8827 0.4823 -1.0556c 0.2457 -0.1274 0.4732 -0.1911 0.7007 -0.1911c 0.6006 0 0.91 0.6006 0.91 1.2467Z "/></symbol><symbol id="g28CEBD340F9F90B9AC8D56CE8173A097" overflow="visible"><path d="M 0 0m 0.5187 0h 2.9757l 0.1547 1.7381h -0.2912c -0.0455 -0.5642 -0.1365 -0.9464 -0.3003 -1.1466c -0.1638 -0.2002 -0.4823 -0.3003 -0.9646 -0.3003h -0.9828l 2.4297 3.3033c 0.0637 0.0819 0.091 0.1365 0.091 0.1729c 0 0.1001 -0.091 0.1547 -0.2639 0.1547h -2.8847l -0.1092 -1.5106h 0.3003c 0.0273 0.5005 0.1183 0.8281 0.2639 0.9919c 0.1456 0.1638 0.4459 0.2548 0.9009 0.2548h 0.9464l -2.4388 -3.3124c -0.0637 -0.0819 -0.091 -0.1365 -0.091 -0.182c 0 -0.1547 0.0637 -0.1638 0.2639 -0.1638Z "/></symbol><symbol id="g219318600111ED0DDD69E7A24294373" overflow="visible"><path d="M 0 0m 10.725 8.606c 0 0.234 -0.221 0.234 -0.429 0.234h -7.202c -0.273 0 -0.286 -0.013 -0.351 -0.065c -0.091 -0.065 -0.117 -0.312 -0.117 -0.312c 0 -0.234 0.182 -0.234 0.533 -0.234c 0.273 0 0.52 -0.013 0.793 -0.026l -1.833 -7.332c -0.052 -0.208 -0.065 -0.221 -0.299 -0.247c -0.221 -0.013 -0.481 -0.013 -0.689 -0.013c -0.338 0 -0.364 0 -0.416 -0.026c -0.156 -0.091 -0.156 -0.299 -0.156 -0.351c 0 -0.234 0.221 -0.234 0.442 -0.234h 7.423c 0.312 0 0.364 0 0.481 0.273l 1.248 2.821c 0.078 0.169 0.078 0.234 0.078 0.234c 0 0.234 -0.247 0.234 -0.312 0.234c -0.208 0 -0.221 -0.026 -0.377 -0.377c -0.78 -1.716 -1.456 -2.574 -3.653 -2.574h -1.69c -0.195 0 -0.221 0 -0.312 0.013l 0.91 3.653h 0.897c 0.767 0 1.027 -0.117 1.027 -0.559c 0 -0.208 -0.091 -0.559 -0.104 -0.598l -0.013 -0.13c 0 -0.195 0.169 -0.234 0.299 -0.234c 0.247 0 0.26 0.078 0.325 0.312l 0.728 2.899c 0.052 0.169 0.052 0.208 0.052 0.208c 0 0.234 -0.26 0.234 -0.312 0.234c -0.247 0 -0.273 -0.091 -0.338 -0.338c -0.26 -0.975 -0.65 -1.183 -1.625 -1.183h -0.78l 0.819 3.315c 0.169 0.026 0.312 0.026 0.442 0.026h 1.703c 1.417 0 1.989 -0.312 1.989 -1.547c 0 -0.234 -0.052 -0.52 -0.052 -0.728c 0 -0.247 0.247 -0.247 0.312 -0.247c 0.273 0 0.286 0.13 0.312 0.364c 0.078 0.845 0.182 1.677 0.247 2.535Z "/></symbol><symbol id="gEDF6611ACB83925E748178A176190AF2" overflow="visible"><path d="M 0 0m 9.074 3.562h -3.705v 3.705c 0 0.208 -0.104 0.312 -0.312 0.312c -0.208 0 -0.312 -0.104 -0.312 -0.312v -3.705h -3.705c -0.208 0 -0.312 -0.104 -0.312 -0.312c 0 -0.208 0.104 -0.312 0.312 -0.312h 3.705v -3.705c 0 -0.208 0.104 -0.312 0.312 -0.312c 0.208 0 0.312 0.104 0.312 0.312v 3.705h 3.705c 0.208 0 0.312 0.104 0.312 0.312c 0 0.169 -0.143 0.312 -0.312 0.312Z "/></symbol></defs></svg>