<svg class="typst-doc" viewBox="0 0 179.2012444444444 43.48369999999999" width="179.2012444444444pt" height="43.48369999999999pt" xmlns="http://www.w3.org/2000/svg" xmlns:xlink="http://www.w3.org/1999/xlink" xmlns:h5="http://www.w3.org/1999/xhtml">
    <g>
        <g class="typst-group">
            <g>
                <g class="typst-text" transform="matrix(1 0 0 -1 6.5 25.429299999999998)">
                    <use xlink:href="#g958B59AD969AFD82BD4356176467A4DF" x="0" y="0" fill="#e6edf3" fill-rule="nonzero"/>
                </g>
                <g class="typst-text" transform="matrix(1 0 0 -1 17.415666666666667 25.429299999999998)">
                    <use xlink:href="#g8851151585B935370C0989D3456A48B2" x="0" y="0" fill="#e6edf3" fill-rule="nonzero"/>
                </g>
                <g class="typst-text" transform="matrix(1 0 0 -1 24.48766666666667 25.429299999999998)">
                    <use xlink:href="#gA6BDD3132AE528EB1B7DFCACB4CDB230" x="0" y="0" fill="#e6edf3" fill-rule="nonzero"/>
                </g>
                <g class="typst-text" transform="matrix(1 0 0 -1 36.89255555555555 25.429299999999998)">
                    <use xlink:href="#gE5CB5B397A6231617DAFFA5F8BD2B6A5" x="0" y="0" fill="#e6edf3" fill-rule="nonzero"/>
                </g>
                <g class="typst-text" transform="matrix(1 0 0 -1 49.89544444444444 25.429299999999998)">
                    <use xlink:href="#gE756F1C1B59EB5657C53128510390FF1" x="0" y="0" fill="#e6edf3" fill-rule="nonzero"/>
                </g>
                <g class="typst-text" transform="matrix(1 0 0 -1 62.42311111111111 25.429299999999998)">
                    <use xlink:href="#g8851151585B935370C0989D3456A48B2" x="0" y="0" fill="#e6edf3" fill-rule="nonzero"/>
                </g>
                <g class="typst-text" transform="matrix(1 0 0 -1 69.49511111111111 25.429299999999998)">
                    <use xlink:href="#g872AF007F43E3BCA97B95E9EAE3B2EB3" x="0" y="0" fill="#e6edf3" fill-rule="nonzero"/>
                </g>
                <g class="typst-text" transform="matrix(1 0 0 -1 79.11800000000001 25.429299999999998)">
                    <use xlink:href="#g309DD4203B8FCB04CD0898751B61DF47" x="0" y="0" fill="#e6edf3" fill-rule="nonzero"/>
                </g>
                <g class="typst-text" transform="matrix(1 0 0 -1 92.12088888888889 25.429299999999998)">
                    <use xlink:href="#g6AF616194F677EF446137B069470945F" x="0" y="0" fill="#e6edf3" fill-rule="nonzero"/>
                </g>
                <g class="typst-text" transform="matrix(1 0 0 -1 97.54383888888889 10.297299999999998)">
                    <use xlink:href="#g28833520B5583E4B4B5F6D929E52353E" x="0" y="0" fill="#e6edf3" fill-rule="nonzero"/>
                </g>
                <g class="typst-text" transform="matrix(1 0 0 -1 93.5398388888889 39.4927)">
                    <use xlink:href="#gF1975C55C4FA281D5C1F1EBCFD5E67E4" x="0" y="0" fill="#e6edf3" fill-rule="nonzero"/>
                </g>
                <g class="typst-text" transform="matrix(1 0 0 -1 97.21623888888888 39.4927)">
                    <use xlink:href="#g32CA1829B351D8318007B5FE55A52F5B" x="0" y="0" fill="#e6edf3" fill-rule="nonzero"/>
                </g>
                <g class="typst-text" transform="matrix(1 0 0 -1 104.29603888888889 39.4927)">
                    <use xlink:href="#g383D54422B456182E7E88A2B2E4E57B" x="0" y="0" fill="#e6edf3" fill-rule="nonzero"/>
                </g>
                <g class="typst-text" transform="matrix(1 0 0 -1 113.05955555555555 25.429299999999998)">
                    <use xlink:href="#g4BE7F0F10B9488EA188A95C996F52F8C" x="0" y="0" fill="#e6edf3" fill-rule="nonzero"/>
                </g>
                <g class="typst-text" transform="matrix(1 0 0 -1 122.97855555555554 28.640299999999996)">
                    <use xlink:href="#gF1975C55C4FA281D5C1F1EBCFD5E67E4" x="0" y="0" fill="#e6edf3" fill-rule="nonzero"/>
                </g>
                <g class="typst-text" transform="matrix(1 0 0 -1 129.54962222222218 25.429299999999998)">
                    <use xlink:href="#g8851151585B935370C0989D3456A48B2" x="0" y="0" fill="#e6edf3" fill-rule="nonzero"/>
                </g>
                <g class="typst-text" transform="matrix(1 0 0 -1 136.6216222222222 25.429299999999998)">
                    <use xlink:href="#g602DA97F3919BDC4F54C93407430CC93" x="0" y="0" fill="#e6edf3" fill-rule="nonzero"/>
                </g>
                <g class="typst-text" transform="matrix(1 0 0 -1 144.46062222222218 28.640299999999996)">
                    <use xlink:href="#gF1975C55C4FA281D5C1F1EBCFD5E67E4" x="0" y="0" fill="#e6edf3" fill-rule="nonzero"/>
                </g>
                <g class="typst-text" transform="matrix(1 0 0 -1 152.4761333333333 25.429299999999998)">
                    <use xlink:href="#gE2E31D07AB94984BC60840A819FFE66A" x="0" y="0" fill="#e6edf3" fill-rule="nonzero"/>
                </g>
                <g class="typst-text" transform="matrix(1 0 0 -1 166.2012444444444 25.429299999999998)">
                    <use xlink:href="#gD14DE060905C3AA977B6D9245C1F7E4" x="0" y="0" fill="#e6edf3" fill-rule="nonzero"/>
                </g>
            </g>
        </g>
    </g>
    <defs id="glyph">
        <symbol id="g958B59AD969AFD82BD4356176467A4DF" overflow="visible">
            <path d="M 0 0m 1.7290001 2.0410001 c 0 0.31200004 0.038999915 0.572 0.10399997 0.78 c 0 0.12999988 -0.06500006 0.19499993 -0.20800006 0.19499993 c -0.06499994 0 -0.116999984 -0.026000023 -0.143 -0.052000046 c -0.06499994 -0.06499982 -0.806 -2.86 -0.806 -3.068 c 0 -0.117 0.065 -0.18200001 0.195 -0.18200001 c 0.065 0 0.15600008 0.06500001 0.27300006 0.208 l 0.58500004 0.689 c 0.45499992 -0.598 1.1830001 -0.897 2.171 -0.897 c 0.8579998 0 1.612 0.351 2.288 1.04 c 0.6760001 0.68900007 1.0139999 1.4560001 1.0139999 2.3140001 c 0 0.61100006 -0.20800018 1.1309998 -0.6370001 1.5470002 c -0.1949997 0.16899967 -0.45499992 0.3119998 -0.77999973 0.4289999 c -0.29900026 0.06500006 -0.58500004 0.14300013 -0.8710003 0.2210002 l -0.8579998 0.23399973 c -0.42900014 0.1170001 -0.7540002 0.59800005 -0.7540002 1.118 c 0 0.559 0.22099996 1.04 0.6760001 1.4559999 c 0.45499992 0.41600037 0.9619999 0.62400055 1.5209999 0.62400055 c 1.1960001 0 1.7940001 -0.6500006 1.7940001 -1.9370003 c 0 -0.2340002 -0.052000046 -0.49399996 -0.052000046 -0.71500015 v -0.039000034 c 0.039000034 -0.09100008 0.10400009 -0.14300013 0.20800018 -0.14300013 c 0.116999626 0 0.1949997 0.10400009 0.24699974 0.29900026 l 0.6890001 2.8209996 c 0 0.11700058 -0.065000534 0.18200016 -0.1949997 0.18200016 c -0.065000534 0 -0.15600014 -0.06499958 -0.27300024 -0.20800018 l -0.559 -0.67599964 c -0.36400032 0.58500004 -0.9750004 0.8839998 -1.8460002 0.8839998 c -0.81899977 0 -1.56 -0.31199932 -2.21 -0.9229994 c -0.6759999 -0.62400055 -1.0139999 -1.3390002 -1.0139999 -2.1580005 c 0 -0.9359999 0.61100006 -1.677 1.378 -1.8850002 l 1.365 -0.35099983 c 0.70200014 -0.19499993 1.144 -0.4419999 1.144 -1.313 c 0 -0.59800005 -0.2340002 -1.131 -0.6890001 -1.5990001 c -0.45499992 -0.468 -0.9749999 -0.715 -1.56 -0.715 c -1.2740002 0 -2.197 0.559 -2.197 1.8200002 Z "/>
        </symbol>
        <symbol id="g8851151585B935370C0989D3456A48B2" overflow="visible">
            <path d="M 0 0m 5.577 8.216001 l -0.7670002 -3.1590004 c -0.27299976 0.48099995 -0.6500001 0.72800016 -1.1569998 0.72800016 c -0.845 0 -1.586 -0.42900038 -2.236 -1.3000002 c -0.59800005 -0.806 -0.8970001 -1.651 -0.8970001 -2.522 c 0 -1.144 0.663 -2.106 1.7550001 -2.106 c 0.559 0 1.105 0.29900002 1.625 0.91 c 0.14300013 -0.49400002 0.58500004 -0.91 1.1960001 -0.91 c 0.89699984 0 1.1830001 1.066 1.3779998 2.0279999 c 0 0.1170001 -0.06500006 0.18200016 -0.1949997 0.18200016 c -0.1170001 0 -0.19500017 -0.09100008 -0.2340002 -0.27300012 c -0.25999975 -1.027 -0.572 -1.547 -0.92299986 -1.547 c -0.2210002 0 -0.3380003 0.18200001 -0.3380003 0.533 c 0 0.195 0.026000023 0.40299994 0.07800007 0.611 l 1.8460002 7.436001 v 0.051999092 c -0.039000034 0.09100056 -0.1170001 0.1430006 -0.2210002 0.1430006 c -0.2989998 0 -0.8449998 -0.052000046 -1.625 -0.1430006 c -0.14300013 -0.012999535 -0.22099972 -0.116999626 -0.22099972 -0.2989998 c 0 -0.13000011 0.116999626 -0.1949997 0.35099983 -0.1949997 c 0.24700022 0 0.58500004 0.012999535 0.58500004 -0.16899967 Z m -1.144 -3.3280005 c 0.13000011 -0.27299976 0.19500017 -0.45499992 0.19500017 -0.572 c -0.013000011 -0.052000046 -0.026000023 -0.1170001 -0.039000034 -0.2079997 l -0.6370001 -2.5220003 c -0.039000034 -0.143 -0.13000011 -0.29900002 -0.24699998 -0.45500004 c -0.48100019 -0.58500004 -0.9490001 -0.88400006 -1.404 -0.88400006 c -0.5070001 0 -0.7670001 0.39000002 -0.7670001 1.1570001 c 0 0.31200004 0.07799995 0.78 0.23399997 1.404 c 0.27300012 1.105 0.663 1.8590002 1.1440002 2.262 c 0.26 0.22099972 0.50699997 0.3249998 0.75399995 0.3249998 c 0.35100007 0 0.6109998 -0.16899967 0.76699996 -0.50699997 Z "/>
        </symbol>
        <symbol id="gA6BDD3132AE528EB1B7DFCACB4CDB230" overflow="visible">
            <path d="M 0 0m 4.472 8.203 c 0 -0.038999557 -0.013000011 -0.13000011 -0.052000046 -0.25999975 l -1.7160001 -6.8640003 c -0.052000046 -0.195 -0.10399985 -0.31199998 -0.14299989 -0.36399996 c -0.1170001 -0.143 -0.559 -0.208 -1.3390001 -0.208 c -0.403 0 -0.585 0.038999975 -0.585 -0.29900002 c 0 -0.143 0.09100002 -0.208 0.26 -0.208 c 0.66300005 0 1.599 0.052 2.158 0.039 l 1.0660002 -0.013 c 0.18199968 0 0.89699984 -0.026 1.118 -0.026 c 0.22099972 0 0.3249998 0.104 0.3249998 0.312 c 0 0.13 -0.15600014 0.19500002 -0.48099995 0.19500002 c -0.6760001 0 -1.066 0.025999963 -1.1830001 0.09099996 c -0.039000034 0.026000023 -0.06500006 0.07800001 -0.06500006 0.15600002 l 1.7550001 7.085 c 0.039000034 0.18199968 0.07800007 0.29900026 0.1170001 0.33799982 c 0.052000046 0.07800007 0.36399984 0.11700058 0.9359999 0.11700058 c 0.71500015 0 1.2090001 -0.052000046 1.4559999 -0.16900063 c 0.24699974 -0.116999626 0.37699986 -0.38999987 0.37699986 -0.8319998 c 0 -0.2340002 -0.038999557 -0.572 -0.10400009 -1.0139999 c -0.026000023 -0.10400009 -0.038999557 -0.18200016 -0.038999557 -0.24700022 c 0 -0.14300013 0.06499958 -0.22099972 0.20800018 -0.22099972 c 0.116999626 0 0.1949997 0.116999626 0.2340002 0.33799982 l 0.35099983 2.236 c 0.012999535 0.06499958 0.026000023 0.14299965 0.026000023 0.22099972 c 0 0.13000011 -0.13000011 0.19500065 -0.40299988 0.19500065 h -7.1240005 c -0.33799994 0 -0.36399996 -0.03900051 -0.46799994 -0.28600025 l -0.7670001 -2.262 c -0.039000005 -0.1170001 -0.065 -0.19500017 -0.07800001 -0.24700022 c 0 -0.13000011 0.065 -0.1949997 0.20799997 -0.1949997 c 0.10400003 0 0.19500005 0.103999615 0.26000005 0.2989998 c 0.325 0.9489999 0.65000004 1.5339999 0.94900006 1.7810001 c 0.33800006 0.27300024 0.9879999 0.40300035 1.937 0.40300035 h 0.50699973 c 0.14300013 0 0.29900026 0.012999535 0.29900026 -0.09100056 Z "/>
        </symbol>
        <symbol id="gE5CB5B397A6231617DAFFA5F8BD2B6A5" overflow="visible">
            <path d="M 0 0m 9.074 3.51 h -8.034 c -0.20799994 0 -0.31199992 -0.09099984 -0.31199992 -0.26 c 0 -0.16899991 0.10399997 -0.26 0.31199992 -0.26 h 8.034 c 0.20800018 0 0.31200027 0.09100008 0.31200027 0.26 c 0 0.15600014 -0.15600014 0.26 -0.31200027 0.26 Z "/>
        </symbol>
        <symbol id="gE756F1C1B59EB5657C53128510390FF1" overflow="visible">
            <path d="M 0 0m 8.723001 8.84 c -0.2470007 0 -1.0270004 0.038999557 -1.2740002 0.038999557 c -0.19500017 0 -0.29900026 -0.10399914 -0.29900026 -0.2989998 c 0 -0.13000011 0.09100008 -0.1949997 0.26000023 -0.20800018 c 0.36399984 -0.012999535 0.546 -0.14299965 0.546 -0.36399937 c 0 -0.1170001 -0.06500006 -0.27300024 -0.18200016 -0.4680004 l -3.874 -6.149 l -0.85800004 6.656 c 0 0.22100067 0.273 0.3249998 0.832 0.3249998 c 0.26000023 0 0.37699986 0.09100056 0.37699986 0.31200027 c 0 0.13000011 -0.07800007 0.1949997 -0.23399973 0.1949997 c -0.286 0 -1.3000002 -0.038999557 -1.5860002 -0.038999557 c -0.26 0 -1.1439999 0.038999557 -1.4039999 0.038999557 c -0.19500005 0 -0.29900002 -0.10399914 -0.29900002 -0.2989998 c 0 -0.14299965 0.13 -0.20800018 0.37699997 -0.20800018 c 0.22099996 0 0.37699997 -0.026000023 0.48100007 -0.052000046 c 0.20799994 -0.06499958 0.19499993 -0.0909996 0.23399997 -0.33799934 l 1.014 -7.9300003 c 0.039000034 -0.221 0.14299989 -0.338 0.31200004 -0.338 c 0.16899991 0 0.29900002 0.091000006 0.40299988 0.26000002 l 4.6280003 7.3580003 c 0.2989998 0.46799994 0.58500004 0.7669997 0.8710003 0.8840003 c 0.1949997 0.0909996 0.44199944 0.14299965 0.7279997 0.15599918 c 0.1430006 0.013000488 0.20800018 0.10400009 0.22099972 0.29900074 c 0.013000488 0.14299965 -0.06499958 0.20799923 -0.22099972 0.20799923 c -0.1949997 0 -0.8579998 -0.038999557 -1.0529995 -0.038999557 Z "/>
        </symbol>
        <symbol id="g872AF007F43E3BCA97B95E9EAE3B2EB3" overflow="visible">
            <path d="M 0 0m 4.6150002 5.7460003 c -0.572 0 -1.1180003 -0.29900026 -1.6510003 -0.8970003 c -0.14299989 0.59800005 -0.546 0.8970003 -1.183 0.8970003 c -0.533 0 -0.923 -0.42900038 -1.196 -1.2740002 c -0.13000003 -0.4289999 -0.19500002 -0.6760001 -0.19500002 -0.75399995 c 0 -0.1170001 0.065 -0.18200016 0.20799997 -0.18200016 c 0.065 0 0.10400003 0.013000011 0.143 0.039000034 c 0.065 0.1170001 0.10400003 0.20799994 0.11700004 0.29900002 c 0.23399997 0.9879999 0.533 1.4819999 0.88399994 1.4819999 c 0.23400009 0 0.35099995 -0.18199968 0.35099995 -0.533 c 0 -0.1949997 -0.025999784 -0.4159999 -0.09099984 -0.6500001 l -1.4300001 -5.707 c -0.11700001 -0.42900002 -0.13000003 -0.48100007 -0.637 -0.48100007 c -0.234 0 -0.351 -0.10399985 -0.351 -0.29900002 c 0 -0.14299989 0.07800001 -0.20799994 0.221 -0.20799994 c 0.19500001 0 0.871 0.039000034 1.066 0.039000034 c 0.24700004 0 1.027 -0.039000034 1.2739999 -0.039000034 c 0.19500017 0 0.286 0.10400009 0.286 0.31200004 c 0 0.13000011 -0.116999865 0.19499993 -0.36399984 0.19499993 c -0.23400009 0 -0.58500016 -0.013000011 -0.58500016 0.14300013 c 0 0.16899991 0.5330001 2.21 0.58500016 2.431 c 0.26 -0.481 0.64999986 -0.72800004 1.1699998 -0.72800004 c 0.84500027 0 1.586 0.429 2.236 1.3000001 c 0.59800005 0.793 0.8970003 1.638 0.8970003 2.509 c 0 1.1309998 -0.6760001 2.1060002 -1.7550001 2.1060002 Z m -0.039000034 -0.39000034 c 0.50699997 0 0.7669997 -0.38999987 0.7669997 -1.1570001 c 0 -0.35099983 -0.07799959 -0.81899977 -0.22099972 -1.4039998 c -0.29900026 -1.131 -0.6760001 -1.872 -1.131 -2.249 c -0.273 -0.22099999 -0.5200002 -0.338 -0.7670002 -0.338 c -0.37699986 0 -0.63699985 0.169 -0.78 0.52000004 c -0.116999865 0.273 -0.18199992 0.46799994 -0.18199992 0.572 l 0.66299987 2.717 c 0.06500006 0.28599977 0.29900002 0.58500004 0.6630001 0.8839998 c 0.36400008 0.29900026 0.6889999 0.45499992 0.98800015 0.45499992 Z "/>
        </symbol>
        <symbol id="g309DD4203B8FCB04CD0898751B61DF47" overflow="visible">
            <path d="M 0 0m 9.074 3.562 h -3.7050004 v 3.7050002 c 0 0.20800018 -0.103999615 0.3119998 -0.3119998 0.3119998 c -0.20800018 0 -0.31200027 -0.103999615 -0.31200027 -0.3119998 v -3.7050002 h -3.705 c -0.20799994 0 -0.31199992 -0.10399985 -0.31199992 -0.31200004 c 0 -0.20799994 0.10399997 -0.31200004 0.31199992 -0.31200004 h 3.705 v -3.705 c 0 -0.208 0.10400009 -0.31199998 0.31200027 -0.31199998 c 0.20800018 0 0.3119998 0.10399997 0.3119998 0.31199998 v 3.705 h 3.7050004 c 0.20800018 0 0.31200027 0.10400009 0.31200027 0.31200004 c 0 0.16900015 -0.1430006 0.31200004 -0.31200027 0.31200004 Z "/>
        </symbol>
        <symbol id="g6AF616194F677EF446137B069470945F" overflow="visible">
            <path d="M 0 0m 16.445 -5.85 l 1.6120014 4.238 h -0.44200134 c -0.24699974 -0.6500001 -0.6630001 -1.1960001 -1.2609997 -1.638 c -1.4689999 -1.092 -3.354 -1.3780003 -6.071 -1.3780003 h -7.6829996 l 6.5 7.644 c 0.0909996 0.09100008 0.13000011 0.18199992 0.13000011 0.24699998 l -6.0580006 8.359001 h 6.981 c 2.4570007 0 4.498 -0.31200027 5.837001 -1.1700001 c 0.77999973 -0.49400043 1.3259993 -1.1050005 1.6379995 -1.8330002 h 0.42900085 l -1.6120014 3.731 h -15.301 c -0.23400003 0 -0.36400002 -0.03900051 -0.40300006 -0.11700058 c -0.012999952 -0.038999557 -0.012999952 -0.1949997 -0.012999952 -0.46799946 l 6.825 -9.334001 l -6.669 -7.826 c -0.09099996 -0.10400009 -0.143 -0.19500017 -0.143 -0.26000023 c 0 -0.13000011 0.13 -0.1949997 0.40300006 -0.1949997 Z "/>
        </symbol>
        <symbol id="g28833520B5583E4B4B5F6D929E52353E" overflow="visible">
            <path d="M 0 0m 1.6107 2.1112 c 0 0.17289996 0.01820004 0.37310004 0.04550004 0.6006 c 0.09099996 0.77349997 0.6097001 1.7199001 1.0465001 2.1931 c 0.5095999 0.57330036 1.3832002 1.092 2.3933 1.092 c 1.0009999 0 1.6198001 -0.7188997 1.6198001 -1.7199001 c 0 -0.13649988 -0.00909996 -0.2638998 -0.027299881 -0.3730998 c 0 -0.10010004 0.06369972 -0.15470004 0.20020008 -0.15470004 c 0.1092 0 0.18199968 0.07280016 0.22749996 0.22749996 l 0.55509996 2.2659004 c 0 0.10010004 -0.05460024 0.1546998 -0.15470028 0.1546998 c -0.0454998 0 -0.1092 -0.03639984 -0.19109964 -0.11829996 l -0.6279001 -0.66429996 c -0.40950012 0.5187001 -0.97370005 0.7825999 -1.6926003 0.7825999 c -0.7188997 0 -1.4196 -0.19110012 -2.1021 -0.5641999 c -1.1102002 -0.61880016 -2.2659001 -1.8746002 -2.2659001 -3.4398003 c 0 -0.77349997 0.273 -1.4105 0.8281 -1.8928001 c 0.5278001 -0.455 1.1830001 -0.6825 1.9747 -0.6825 c 0.82809997 0 1.6016004 0.3003 2.3023002 0.89180005 c 0.20930004 0.17290002 0.3913002 0.39130008 0.546 0.6370001 c 0.24569988 0.39129996 0.3730998 0.6733999 0.3730998 0.8462999 c 0 0.10010004 -0.06369972 0.15470004 -0.19109964 0.15470004 c -0.10010004 0 -0.16380024 -0.0546 -0.19110012 -0.17289996 c -0.1729002 -0.56420004 -0.50960016 -1.0283 -1.0283003 -1.4014001 c -0.51869965 -0.3731 -1.0646996 -0.5551 -1.6561999 -0.5551 c -1.1921 0 -1.9838 0.70070004 -1.9838 1.8928001 Z "/>
        </symbol>
        <symbol id="gF1975C55C4FA281D5C1F1EBCFD5E67E4" overflow="visible">
            <path d="M 0 0m 2.9575002 5.6511 c 0 0.2184 -0.1729002 0.38220024 -0.3913002 0.38220024 c -0.273 0 -0.53690004 -0.25480032 -0.53690004 -0.5278001 c 0 -0.2184 0.1729002 -0.38220024 0.3913002 -0.38220024 c 0.273 0 0.53690004 0.25480032 0.53690004 0.5278001 Z m -1.2103002 -1.6107001 c -0.42769992 0 -0.76439995 -0.21839976 -1.0101 -0.6552 c -0.20929998 -0.36399984 -0.3094 -0.6187999 -0.3094 -0.7644 c 0 -0.1000998 0.06370002 -0.14559984 0.18200001 -0.14559984 c 0.10009998 0 0.1638 0.0546 0.20020002 0.1638 c 0.20930004 0.71889997 0.50960004 1.0738001 0.90999997 1.0738001 c 0.12740004 0 0.19110012 -0.09100008 0.19110012 -0.2821002 c 0 -0.11829996 -0.09100008 -0.40949988 -0.27300012 -0.88269997 l -0.5641999 -1.4469 c -0.0546 -0.14560002 -0.08190006 -0.27300006 -0.08190006 -0.39130008 c 0 -0.4732 0.40950006 -0.8008 0.8827 -0.8008 c 0.42769992 0 0.75530016 0.21840002 1.001 0.6643 c 0.20930004 0.36400002 0.30940008 0.6097001 0.30940008 0.7462001 c 0 0.10009992 -0.06369996 0.15469992 -0.18200016 0.15469992 c -0.0546 -0.00909996 -0.11829996 -0.0546 -0.18199992 -0.14559996 c -0.00909996 -0.00909996 -0.01819992 -0.0273 -0.01819992 -0.03639996 c -0.20930004 -0.70070004 -0.50960016 -1.0556 -0.9009001 -1.0556 c -0.12739992 0 -0.1911 0.09099999 -0.1911 0.27300003 c 0 0.1365 0.04550004 0.3276 0.14560008 0.56420004 l 0.7189001 1.8655 c 0.03639984 0.10010004 0.0546 0.20020008 0.0546 0.30030012 c 0 0.47320008 -0.40950012 0.80079985 -0.8827002 0.80079985 Z "/>
        </symbol>
        <symbol id="g32CA1829B351D8318007B5FE55A52F5B" overflow="visible">
            <path d="M 0 0m 6.3518004 3.3397002 h -5.6238003 c -0.14560002 0 -0.2184 -0.07280016 -0.2184 -0.20930004 c 0 -0.13650012 0.07279998 -0.20930004 0.2184 -0.20930004 h 5.6238003 c 0.14559984 0 0.2184 0.07279992 0.2184 0.20930004 c 0 0.1092 -0.10010004 0.20930004 -0.2184 0.20930004 Z m 0 -1.7108002 h -5.6238003 c -0.14560002 0 -0.2184 -0.07280004 -0.2184 -0.20930004 c 0 -0.1365 0.07279998 -0.20929992 0.2184 -0.20929992 h 5.6238003 c 0.14559984 0 0.2184 0.07279992 0.2184 0.20929992 c 0 0.11830008 -0.10010004 0.20930004 -0.2184 0.20930004 Z "/>
        </symbol>
        <symbol id="g383D54422B456182E7E88A2B2E4E57B" overflow="visible">
            <path d="M 0 0m 2.7573001 6.0424004 c -0.39129996 -0.38220024 -0.97370005 -0.57330036 -1.7654002 -0.57330036 v -0.40039968 c 0.5369 0 0.9646 0.08190012 1.2922001 0.23659992 v -4.5318003 c 0 -0.11830002 -0.00909996 -0.1911 -0.03640008 -0.22750002 c -0.0454998 -0.10009998 -0.31849992 -0.15469998 -0.8189999 -0.15469998 h -0.37310004 v -0.39130002 l 1.6198 0.0364 l 1.6289003 -0.0364 v 0.39130002 h -0.37310004 c -0.5005002 0 -0.7735002 0.0546 -0.8281002 0.15469998 c -0.01819992 0.03640002 -0.027299881 0.1092 -0.027299881 0.22750002 v 4.9777 c 0 0.24569988 -0.03640008 0.29120016 -0.31850004 0.29120016 Z "/>
        </symbol>
        <symbol id="g4BE7F0F10B9488EA188A95C996F52F8C" overflow="visible">
            <path d="M 0 0m 11.232 8.879 c -0.24699974 0 -1.0530005 -0.038999557 -1.3000002 -0.038999557 c -0.24699974 0 -1.066 0.038999557 -1.3129997 0.038999557 c -0.19500065 0 -0.28600025 -0.10399914 -0.28600025 -0.31199932 c 0 -0.11700058 0.0909996 -0.18200016 0.28600025 -0.19500065 c 0.5459995 0 0.8189993 -0.16899967 0.8189993 -0.5069995 c 0 -0.07800007 -0.012999535 -0.16900015 -0.02599907 -0.26000023 l -1.4040003 -5.564 l -2.795 6.5649996 c -0.10400009 0.2470007 -0.13000011 0.27299976 -0.4550004 0.27299976 h -1.7289999 c -0.31200004 0 -0.4289999 -0.02599907 -0.4289999 -0.31199932 c 0 -0.13000011 0.14299989 -0.19500065 0.4159999 -0.19500065 c 0.546 0 0.819 -0.012999535 0.832 -0.052000046 l -1.7290001 -6.8899994 c -0.116999865 -0.507 -0.4159999 -0.79300004 -0.88399994 -0.88400006 c -0.338 -0.038999975 -0.728 0.013000011 -0.728 -0.351 c 0 -0.13000001 0.07800001 -0.19500001 0.22100002 -0.19500001 c 0.23399997 0 1.04 0.039 1.2870001 0.039 c 0.24699998 0 1.079 -0.039 1.326 -0.039 c 0.19499993 0 0.286 0.104 0.286 0.312 c 0 0.11700001 -0.10400009 0.18200001 -0.31200004 0.19500002 c -0.533 0.012999952 -0.793 0.18199998 -0.793 0.507 c 0 0.06499994 0.013000011 0.15600002 0.039000034 0.286 l 1.6769998 6.643 l 3.25 -7.67 c 0.07800007 -0.182 0.18200016 -0.273 0.29900026 -0.273 c 0.1170001 0 0.19500017 0.104 0.24700022 0.312 l 1.8070002 7.1500006 c 0.16899967 0.66299963 0.533 0.89699984 1.3389997 0.9099994 c 0.18200016 0.013000488 0.27299976 0.11700058 0.27299976 0.32500076 c -0.038999557 0.116999626 -0.052000046 0.1819992 -0.22099972 0.1819992 Z "/>
        </symbol>
        <symbol id="g602DA97F3919BDC4F54C93407430CC93" overflow="visible">
            <path d="M 0 0m 7.4360003 1.8460001 c 0 0.116999984 -0.06500006 0.18200004 -0.20800018 0.18200004 c -0.10400009 0 -0.18200016 -0.09100008 -0.2210002 -0.2600001 c -0.25999975 -1.04 -0.572 -1.56 -0.92299986 -1.56 c -0.2210002 0 -0.33799982 0.18200001 -0.33799982 0.546 c 0 0.22100002 0.07800007 0.66300005 0.24699974 1.3130002 l 0.36400032 1.391 c 0.116999626 0.46799994 0.22099972 0.79299974 0.2989998 1.1960001 l 0.07800007 0.36399984 c 0.026000023 0.09100008 0.039000034 0.15600014 0.039000034 0.18200016 c 0 0.27299976 -0.14300013 0.40299988 -0.4289999 0.40299988 c -0.28600025 0 -0.4680004 -0.15600014 -0.546 -0.48099995 l -0.93600035 -3.7180002 c 0 -0.143 -0.2079997 -0.403 -0.6240001 -0.79300004 c -0.28599977 -0.273 -0.6109998 -0.403 -0.9879999 -0.403 c -0.59800005 0 -0.89699984 0.351 -0.89699984 1.066 c 0 0.24699998 0.051999807 0.59799993 0.16899991 1.0790001 l 0.546 2.158 c 0.10400009 0.40299988 0.16899991 0.6890001 0.19499993 0.8319998 c 0 0.27300024 -0.14299989 0.40300035 -0.4289999 0.40300035 c -0.286 0 -0.46800017 -0.16900015 -0.559 -0.50699997 l -1.8460001 -7.4360003 c -0.026000023 -0.10400009 -0.039000005 -0.16899991 -0.039000005 -0.20799994 c 0 -0.273 0.14299998 -0.40300012 0.41599998 -0.40300012 c 0.19500005 0 0.35100007 0.10400009 0.49400008 0.29900002 c 0.038999915 0.09100008 0.26 0.98800004 0.689 2.691 c 0.31200004 -0.23400001 0.7149999 -0.351 1.2089999 -0.351 c 0.7670002 0 1.2740002 0.403 1.677 0.87100005 c 0.14300013 -0.481 0.572 -0.87100005 1.1830001 -0.87100005 c 0.89699984 0 1.1700001 1.053 1.3780003 2.015 Z "/>
        </symbol>
        <symbol id="gE2E31D07AB94984BC60840A819FFE66A" overflow="visible">
            <path d="M 0 0m 9.074 4.771 h -8.034 c -0.20799994 0 -0.31199992 -0.103999615 -0.31199992 -0.2989998 c 0 -0.19500017 0.10399997 -0.29900026 0.31199992 -0.29900026 h 8.034 c 0.20800018 0 0.31200027 0.10400009 0.31200027 0.29900026 c 0 0.15600014 -0.1430006 0.2989998 -0.31200027 0.2989998 Z m 0 -2.4439998 h -8.034 c -0.20799994 0 -0.31199992 -0.10400009 -0.31199992 -0.29900002 c 0 -0.19500005 0.10399997 -0.29900002 0.31199992 -0.29900002 h 8.034 c 0.20800018 0 0.31200027 0.10399997 0.31200027 0.29900002 c 0 0.16899991 -0.1430006 0.29900002 -0.31200027 0.29900002 Z "/>
        </symbol>
        <symbol id="gD14DE060905C3AA977B6D9245C1F7E4" overflow="visible">
            <path d="M 0 0m 3.237 -0.286 c 1.8330002 0 2.743 1.482 2.743 4.446 c 0 1.9890003 -0.4159999 3.3150005 -1.2350001 3.9650002 c -0.45499992 0.35099983 -0.9619999 0.533 -1.4949999 0.533 c -1.833 0 -2.743 -1.4949999 -2.743 -4.498 c 0 -2.3919997 0.637 -4.446 2.73 -4.446 Z m 1.4560003 7.0980005 c 0.0909996 -0.45499992 0.12999964 -1.2870002 0.12999964 -2.4960003 c 0 -1.1959999 -0.052000046 -2.08 -0.14299965 -2.652 c -0.16900015 -1.04 -0.6500001 -1.5600001 -1.4430003 -1.5600001 c -0.29900002 0 -0.59800005 0.117 -0.87100005 0.338 c -0.35099983 0.299 -0.5589999 0.90999997 -0.64999986 1.8460001 c -0.039000034 0.32500005 -0.052000046 1.0009999 -0.052000046 2.0279999 c 0 1.131 0.039000034 1.9240003 0.10399997 2.3530002 c 0.116999984 0.71500015 0.35099995 1.1700001 0.71500003 1.3650002 c 0.286 0.15600014 0.533 0.2340002 0.75399995 0.2340002 c 0.84500027 0 1.3130002 -0.6890006 1.4560003 -1.4560003 Z "/>
        </symbol>
    </defs>
</svg>
