<svg viewBox="0 0 246.310277778 49.4624" width="246.310277778pt" height="49.4624pt" xmlns="http://www.w3.org/2000/svg" xmlns:xlink="http://www.w3.org/1999/xlink" xmlns:h5="http://www.w3.org/1999/xhtml"><g transform="matrix(1 0 0 -1 6.5 29.3774)"><use xlink:href="#g67F14AC23942C2CCA8D4F8A1F079A1D1" x="0" y="0" fill="#e6edf3" fill-rule="nonzero"/></g><g transform="matrix(1 0 0 -1 14.755 32.5884)"><use xlink:href="#g56CA2213A637A1EBD48C3733E7CBD1B8" x="0" y="0" fill="#e6edf3" fill-rule="nonzero"/><use xlink:href="#g6F1B2EC7690C574873AE01D06ED173C6" x="3.5854" y="0" fill="#e6edf3" fill-rule="nonzero"/><use xlink:href="#g23F189AE588E1A359BE6574F29945FEE" x="7.6258" y="0" fill="#e6edf3" fill-rule="nonzero"/><use xlink:href="#g402F9925856942787E59D257DA93AD2E" x="11.193" y="0" fill="#e6edf3" fill-rule="nonzero"/><use xlink:href="#g6F1B2EC7690C574873AE01D06ED173C6" x="13.7228" y="0" fill="#e6edf3" fill-rule="nonzero"/></g><g transform="matrix(1 0 0 -1 36.857311111 29.3774)"><use xlink:href="#g13AFF74D87C474CFAF661EEAD0458F8B" x="0" y="0" fill="#e6edf3" fill-rule="nonzero"/></g><g transform="matrix(1 0 0 -1 50.582422222 29.3774)"><use xlink:href="#g594523384BCA97CC035210B36637FD16" x="0" y="0" fill="#e6edf3" fill-rule="nonzero"/></g><g transform="matrix(1 0 0 -1 61.957422222 29.3774)"><use xlink:href="#g4511C92E9BF59263ADBD37DA8A7526D7" x="0" y="0" fill="#e6edf3" fill-rule="nonzero"/></g><g transform="matrix(1 0 0 -1 69.505222222 43.4317)"><use xlink:href="#g4CE686876A17D681BBB59265FB1A41AE" x="0" y="0" fill="#e6edf3" fill-rule="nonzero"/></g><g transform="matrix(1 0 0 -1 87.275788889 20.5764)"><use xlink:href="#g6B3DB0E0ADE6D994825CC39624067234" x="0" y="0" fill="#e6edf3" fill-rule="nonzero"/></g><g transform="matrix(1 0 0 -1 84.196088889 38.2954)"><use xlink:href="#g67F14AC23942C2CCA8D4F8A1F079A1D1" x="0" y="0" fill="#e6edf3" fill-rule="nonzero"/></g><g transform="matrix(1 0 0 -1 92.451088889 41.5064)"><use xlink:href="#g4CE686876A17D681BBB59265FB1A41AE" x="0" y="0" fill="#e6edf3" fill-rule="nonzero"/></g><path fill="none" stroke="#e6edf3" stroke-width="0.624" stroke-linecap="butt" stroke-linejoin="miter" stroke-miterlimit="4" transform="translate(84.196088889 26.1274)" d="M 0 0h 12.6594"/><g transform="matrix(1 0 0 -1 98.155488889 29.3774)"><use xlink:href="#g541875353FA5EEDAD7F236F2BC89466F" x="0" y="0" fill="#e6edf3" fill-rule="nonzero"/></g><g transform="matrix(1 0 0 -1 109.530488889 9.9424)"><use xlink:href="#g9948C0FDABF29E771DA30338E5C0072D" x="0" y="0" fill="#e6edf3" fill-rule="nonzero"/></g><g transform="matrix(1 0 0 -1 116.610288889 9.9424)"><use xlink:href="#g5A380D51C1693CF037954AEF50086985" x="0" y="0" fill="#e6edf3" fill-rule="nonzero"/></g><g transform="matrix(1 0 0 -1 148.516188889 29.3774)"><use xlink:href="#g67F14AC23942C2CCA8D4F8A1F079A1D1" x="0" y="0" fill="#e6edf3" fill-rule="nonzero"/></g><g transform="matrix(1 0 0 -1 156.771188889 32.5884)"><use xlink:href="#gB870744AC16A0A9266197267B5D73EAA" x="0" y="0" fill="#e6edf3" fill-rule="nonzero"/><use xlink:href="#g1CEBE56BFF7571B8DB10F1A4DAC5A5D7" x="5.0596" y="0" fill="#e6edf3" fill-rule="nonzero"/><use xlink:href="#g23F189AE588E1A359BE6574F29945FEE" x="9.6096" y="0" fill="#e6edf3" fill-rule="nonzero"/><use xlink:href="#g1CEBE56BFF7571B8DB10F1A4DAC5A5D7" x="13.1768" y="0" fill="#e6edf3" fill-rule="nonzero"/><use xlink:href="#g48B3ED1BE8E5B4ABFD539FA8F671E63F" x="17.7268" y="0" fill="#e6edf3" fill-rule="nonzero"/><use xlink:href="#g6F1B2EC7690C574873AE01D06ED173C6" x="20.2566" y="0" fill="#e6edf3" fill-rule="nonzero"/><use xlink:href="#g48B3ED1BE8E5B4ABFD539FA8F671E63F" x="24.297" y="0" fill="#e6edf3" fill-rule="nonzero"/><use xlink:href="#g733BC00FCAC4D4817C0648C06C143A7E" x="26.8268" y="0" fill="#e6edf3" fill-rule="nonzero"/></g><g transform="matrix(1 0 0 -1 192.4871 29.3774)"><use xlink:href="#g13AFF74D87C474CFAF661EEAD0458F8B" x="0" y="0" fill="#e6edf3" fill-rule="nonzero"/></g><g transform="matrix(1 0 0 -1 206.212211111 29.3774)"><use xlink:href="#g4511C92E9BF59263ADBD37DA8A7526D7" x="0" y="0" fill="#e6edf3" fill-rule="nonzero"/></g><g transform="matrix(1 0 0 -1 213.760011111 43.4317)"><use xlink:href="#g4CE686876A17D681BBB59265FB1A41AE" x="0" y="0" fill="#e6edf3" fill-rule="nonzero"/></g><g transform="matrix(1 0 0 -1 227.150877778 29.3774)"><use xlink:href="#g67F14AC23942C2CCA8D4F8A1F079A1D1" x="0" y="0" fill="#e6edf3" fill-rule="nonzero"/></g><g transform="matrix(1 0 0 -1 235.405877778 32.5884)"><use xlink:href="#g4CE686876A17D681BBB59265FB1A41AE" x="0" y="0" fill="#e6edf3" fill-rule="nonzero"/></g><defs><symbol id="g67F14AC23942C2CCA8D4F8A1F079A1D1" overflow="visible"><path d="M 0 0m 1.924 2.834c 0 1.664 0.728 3.354 1.547 4.29c 0.663 0.767 1.807 1.534 3.094 1.534c 1.352 0 2.015 -1.027 2.015 -2.431c 0 -0.117 -0.039 -0.533 -0.039 -0.65c 0 -0.117 0.078 -0.182 0.247 -0.182c 0.065 0 0.117 0.013 0.156 0.026c 0.065 0.091 0.104 0.182 0.13 0.273l 0.806 3.289c 0 0.117 -0.065 0.182 -0.195 0.182c -0.052 0 -0.13 -0.052 -0.234 -0.169l -0.845 -0.949c -0.507 0.741 -1.222 1.118 -2.145 1.118c -0.715 0 -1.417 -0.169 -2.132 -0.494c -1.443 -0.676 -2.496 -1.742 -3.172 -3.198c -0.338 -0.715 -0.507 -1.443 -0.507 -2.184c 0 -1.04 0.325 -1.885 0.988 -2.561c 0.663 -0.676 1.508 -1.014 2.548 -1.014c 1.027 0 1.963 0.377 2.808 1.118c 0.351 0.299 0.65 0.663 0.897 1.066c 0.351 0.585 0.533 0.988 0.533 1.235c 0 0.117 -0.065 0.182 -0.208 0.182c -0.117 0 -0.182 -0.052 -0.208 -0.169c -0.273 -0.845 -0.702 -1.521 -1.287 -2.002c -0.741 -0.611 -1.521 -0.923 -2.327 -0.923c -1.56 0 -2.47 1.053 -2.47 2.613Z "/></symbol><symbol id="g56CA2213A637A1EBD48C3733E7CBD1B8" overflow="visible"><path d="M 0 0m 3.276 1.183c 0 0.6916 -0.4732 1.1284 -1.4105 1.3104c -0.4277 0.0819 -0.7007 0.182 -0.8463 0.2821c -0.1456 0.1001 -0.2184 0.2457 -0.2184 0.4186c 0 0.4277 0.3185 0.637 0.9555 0.637c 0.6188 0 0.9555 -0.3458 1.001 -1.0465c 0.0091 -0.0728 0.0546 -0.1092 0.1456 -0.1092c 0.1001 0 0.1547 0.0819 0.1547 0.2457v 0.9009c 0 0.1729 -0.0455 0.2548 -0.1365 0.2548c -0.1001 0 -0.2366 -0.1638 -0.3276 -0.2366c -0.2275 0.1547 -0.5096 0.2366 -0.8372 0.2366c -0.8099 0 -1.456 -0.364 -1.456 -1.1375c 0 -0.3094 0.1274 -0.5733 0.3913 -0.7826c 0.3185 -0.2639 0.6188 -0.3185 1.1921 -0.4186c 0.5915 -0.1183 0.8918 -0.3822 0.8918 -0.7917c 0 -0.5187 -0.3185 -0.7826 -0.9646 -0.7826c -0.6279 0 -1.0283 0.4186 -1.2012 1.2467c -0.0273 0.1183 -0.0728 0.182 -0.1547 0.182c -0.1001 0 -0.1547 -0.091 -0.1547 -0.2639v -1.1739c 0 -0.1729 0.0455 -0.2548 0.1365 -0.2548c 0.0273 0 0.0728 0.0273 0.1456 0.091c 0.1638 0.1456 0.091 0.1183 0.2548 0.2821c 0.2639 -0.2457 0.5915 -0.3731 0.9737 -0.3731c 0.8645 0 1.4651 0.4459 1.4651 1.2831Z "/></symbol><symbol id="g6F1B2EC7690C574873AE01D06ED173C6" overflow="visible"><path d="M 0 0m 3.7765 2.2841c 0 1.0465 -0.6097 1.7927 -1.6289 1.7927c -0.546 0 -1.001 -0.2093 -1.3741 -0.637c -0.3458 -0.4004 -0.5187 -0.8827 -0.5187 -1.4378c 0 -0.5733 0.1911 -1.0556 0.5733 -1.4742c 0.3822 -0.4186 0.8554 -0.6279 1.4196 -0.6279c 0.5187 0 0.9191 0.182 1.1921 0.5369c 0.2275 0.3003 0.3367 0.5187 0.3367 0.6643c 0 0.091 -0.0546 0.1365 -0.1547 0.1365c -0.0728 0 -0.1183 -0.0455 -0.1456 -0.1456c -0.2002 -0.6006 -0.5915 -0.9009 -1.1739 -0.9009c -0.4095 0 -0.728 0.1911 -0.9737 0.5824c -0.1729 0.2821 -0.2548 0.7098 -0.2639 1.2922h 2.457c 0.2002 0 0.2548 0.0182 0.2548 0.2184Z m -0.8099 0.8918c 0.1001 -0.3003 0.1456 -0.5915 0.1456 -0.8554h -2.0384c 0.0273 0.6006 0.182 1.0101 0.455 1.2194c 0.2275 0.182 0.4277 0.273 0.6188 0.273c 0.4095 0 0.6825 -0.2093 0.819 -0.637Z "/></symbol><symbol id="g23F189AE588E1A359BE6574F29945FEE" overflow="visible"><path d="M 0 0m 3.3124 3.4398c 0 0.3549 -0.3367 0.5824 -0.6916 0.5824c -0.4641 0 -0.819 -0.273 -1.0556 -0.8281v 0.8281l -1.3104 -0.1001v -0.3458c 0.3185 0 0.5096 -0.0273 0.5824 -0.0819c 0.0728 -0.0546 0.1092 -0.1729 0.1092 -0.3822v -2.3933c 0 -0.1729 -0.0273 -0.2821 -0.091 -0.3185c -0.0637 -0.0364 -0.2639 -0.0546 -0.6006 -0.0546v -0.3458l 1.0465 0.0273c 0.3822 0.0091 0.7735 0 1.1648 -0.0273v 0.3458h -0.2184c -0.3003 0 -0.4914 0.0273 -0.5551 0.0728c -0.0637 0.0455 -0.091 0.1547 -0.091 0.3185v 1.3741c 0 0.3913 0.0728 0.7462 0.2093 1.0465c 0.182 0.3913 0.4459 0.5915 0.8008 0.6006c -0.091 -0.091 -0.1365 -0.2002 -0.1365 -0.3276c 0 -0.2821 0.1365 -0.4186 0.4186 -0.4186c 0.2457 0 0.4186 0.1911 0.4186 0.4277Z "/></symbol><symbol id="g402F9925856942787E59D257DA93AD2E" overflow="visible"><path d="M 0 0m 1.7654 5.4691c 0 0.273 -0.2275 0.5096 -0.5005 0.5096c -0.273 0 -0.5096 -0.2366 -0.5096 -0.5096c 0 -0.273 0.2275 -0.5187 0.5005 -0.5187c 0.2821 0 0.5096 0.2366 0.5096 0.5187Z m -0.4641 -5.4418l 0.9464 -0.0273v 0.3549c -0.3003 0 -0.4823 0.0182 -0.5369 0.0546c -0.0546 0.0364 -0.0728 0.1365 -0.0728 0.3003v 3.3397l -1.3013 -0.1092v -0.3458c 0.3003 0 0.4914 -0.0273 0.5551 -0.0728c 0.0637 -0.0455 0.091 -0.1729 0.091 -0.3822v -2.4206c 0 -0.1729 -0.0273 -0.2821 -0.091 -0.3185c -0.0637 -0.0364 -0.2639 -0.0455 -0.5915 -0.0455v -0.3549Z "/></symbol><symbol id="g13AFF74D87C474CFAF661EEAD0458F8B" overflow="visible"><path d="M 0 0m 9.074 4.771h -8.034c -0.208 0 -0.312 -0.104 -0.312 -0.299c 0 -0.195 0.104 -0.299 0.312 -0.299h 8.034c 0.208 0 0.312 0.104 0.312 0.299c 0 0.156 -0.143 0.299 -0.312 0.299Z m 0 -2.444h -8.034c -0.208 0 -0.312 -0.104 -0.312 -0.299c 0 -0.195 0.104 -0.299 0.312 -0.299h 8.034c 0.208 0 0.312 0.104 0.312 0.299c 0 0.169 -0.143 0.299 -0.312 0.299Z "/></symbol><symbol id="g594523384BCA97CC035210B36637FD16" overflow="visible"><path d="M 0 0m 10.374 -16.185c 0.221 0 0.325 0.104 0.325 0.325c 0 0.104 -0.039 0.195 -0.13 0.26c -1.053 0.793 -2.002 2.041 -2.873 3.77c -1.547 3.081 -2.691 7.41 -2.691 11.843v 6.474c 0 2.015 0.234 4.043 0.689 6.084c 0.806 3.64 2.496 7.735 4.875 9.529c 0.091 0.065 0.13 0.156 0.13 0.26c 0 0.221 -0.104 0.325 -0.325 0.325c -0.065 0 -0.13 -0.026 -0.182 -0.065c -1.131 -0.871 -2.21 -2.158 -3.224 -3.887c -1.794 -3.068 -3.367 -7.683 -3.367 -12.246v -6.474c 0 -4.29 1.443 -8.684 3.055 -11.7c 1.066 -1.963 2.249 -3.445 3.536 -4.433c 0.052 -0.039 0.117 -0.065 0.182 -0.065Z "/></symbol><symbol id="g4511C92E9BF59263ADBD37DA8A7526D7" overflow="visible"><path d="M 0 0m 16.445 -5.85l 1.612 4.238h -0.442c -0.247 -0.65 -0.663 -1.196 -1.261 -1.638c -1.469 -1.092 -3.354 -1.378 -6.071 -1.378h -7.683l 6.5 7.644c 0.091 0.091 0.13 0.182 0.13 0.247l -6.058 8.359h 6.981c 2.457 0 4.498 -0.312 5.837 -1.17c 0.78 -0.494 1.326 -1.105 1.638 -1.833h 0.429l -1.612 3.731h -15.301c -0.234 0 -0.364 -0.039 -0.403 -0.117c -0.013 -0.039 -0.013 -0.195 -0.013 -0.468l 6.825 -9.334l -6.669 -7.826c -0.091 -0.104 -0.143 -0.195 -0.143 -0.26c 0 -0.13 0.13 -0.195 0.403 -0.195Z "/></symbol><symbol id="g4CE686876A17D681BBB59265FB1A41AE" overflow="visible"><path d="M 0 0m 2.9575 5.6511c 0 0.2184 -0.1729 0.3822 -0.3913 0.3822c -0.273 0 -0.5369 -0.2548 -0.5369 -0.5278c 0 -0.2184 0.1729 -0.3822 0.3913 -0.3822c 0.273 0 0.5369 0.2548 0.5369 0.5278Z m -1.2103 -1.6107c -0.4277 0 -0.7644 -0.2184 -1.0101 -0.6552c -0.2093 -0.364 -0.3094 -0.6188 -0.3094 -0.7644c 0 -0.1001 0.0637 -0.1456 0.182 -0.1456c 0.1001 0 0.1638 0.0546 0.2002 0.1638c 0.2093 0.7189 0.5096 1.0738 0.91 1.0738c 0.1274 0 0.1911 -0.091 0.1911 -0.2821c 0 -0.1183 -0.091 -0.4095 -0.273 -0.8827l -0.5642 -1.4469c -0.0546 -0.1456 -0.0819 -0.273 -0.0819 -0.3913c 0 -0.4732 0.4095 -0.8008 0.8827 -0.8008c 0.4277 0 0.7553 0.2184 1.001 0.6643c 0.2093 0.364 0.3094 0.6097 0.3094 0.7462c 0 0.1001 -0.0637 0.1547 -0.182 0.1547c -0.0546 -0.0091 -0.1183 -0.0546 -0.182 -0.1456c -0.0091 -0.0091 -0.0182 -0.0273 -0.0182 -0.0364c -0.2093 -0.7007 -0.5096 -1.0556 -0.9009 -1.0556c -0.1274 0 -0.1911 0.091 -0.1911 0.273c 0 0.1365 0.0455 0.3276 0.1456 0.5642l 0.7189 1.8655c 0.0364 0.1001 0.0546 0.2002 0.0546 0.3003c 0 0.4732 -0.4095 0.8008 -0.8827 0.8008Z "/></symbol><symbol id="g6B3DB0E0ADE6D994825CC39624067234" overflow="visible"><path d="M 0 0m 3.497 8.658c -0.533 -0.546 -1.313 -0.819 -2.34 -0.819v -0.507c 0.676 0 1.235 0.104 1.664 0.312v -6.578c 0 -0.234 -0.052 -0.39 -0.169 -0.455c -0.117 -0.065 -0.442 -0.104 -0.962 -0.104h -0.455v -0.507c 0.325 0.026 1.027 0.039 2.106 0.039c 1.079 0 1.781 -0.013 2.106 -0.039v 0.507h -0.455c -0.533 0 -0.858 0.039 -0.962 0.104c -0.104 0.065 -0.169 0.221 -0.169 0.455v 7.202c 0 0.312 -0.026 0.39 -0.364 0.39Z "/></symbol><symbol id="g541875353FA5EEDAD7F236F2BC89466F" overflow="visible"><path d="M 0 0m 7.774 0.013v 6.474c 0 4.29 -1.443 8.684 -3.055 11.7c -1.066 1.963 -2.249 3.445 -3.536 4.433c -0.052 0.039 -0.117 0.065 -0.182 0.065c -0.221 0 -0.325 -0.104 -0.325 -0.325c 0 -0.104 0.039 -0.195 0.13 -0.26c 1.053 -0.793 2.002 -2.041 2.873 -3.77c 1.547 -3.081 2.691 -7.41 2.691 -11.843v -6.474c 0 -2.015 -0.234 -4.043 -0.689 -6.084c -0.806 -3.64 -2.496 -7.735 -4.875 -9.529c -0.091 -0.065 -0.13 -0.156 -0.13 -0.26c 0 -0.221 0.104 -0.325 0.325 -0.325c 0.065 0 0.13 0.026 0.182 0.065c 1.131 0.871 2.21 2.158 3.224 3.887c 1.794 3.068 3.367 7.683 3.367 12.246Z "/></symbol><symbol id="g9948C0FDABF29E771DA30338E5C0072D" overflow="visible"><path d="M 0 0m 6.3336 2.4843h -5.5874c -0.182 0 -0.2366 -0.091 -0.2366 -0.2093c 0 -0.1183 0.0546 -0.2093 0.2366 -0.2093h 5.5874c 0.182 0 0.2366 0.091 0.2366 0.2093c 0 0.1092 -0.0546 0.2093 -0.2366 0.2093Z "/></symbol><symbol id="g5A380D51C1693CF037954AEF50086985" overflow="visible"><path d="M 0 0m 2.7573 6.0424c -0.3913 -0.3822 -0.9737 -0.5733 -1.7654 -0.5733v -0.4004c 0.5369 0 0.9646 0.0819 1.2922 0.2366v -4.5318c 0 -0.1183 -0.0091 -0.1911 -0.0364 -0.2275c -0.0455 -0.1001 -0.3185 -0.1547 -0.819 -0.1547h -0.3731v -0.3913l 1.6198 0.0364l 1.6289 -0.0364v 0.3913h -0.3731c -0.5005 0 -0.7735 0.0546 -0.8281 0.1547c -0.0182 0.0364 -0.0273 0.1092 -0.0273 0.2275v 4.9777c 0 0.2457 -0.0364 0.2912 -0.3185 0.2912Z "/></symbol><symbol id="gB870744AC16A0A9266197267B5D73EAA" overflow="visible"><path d="M 0 0m 2.7118 -0.1183c 0.5642 0 1.0465 0.2002 1.4378 0.6097c 0.3913 0.4095 0.5915 0.8918 0.5915 1.4651c 0 0.5551 -0.182 1.0283 -0.5369 1.4287c -0.3731 0.4277 -0.8281 0.637 -1.3741 0.637c -0.4641 0 -0.8645 -0.182 -1.2103 -0.5369v 0.5369l -1.365 -0.1001v -0.3458c 0.3367 0 0.5369 -0.0182 0.6006 -0.0637c 0.0637 -0.0455 0.1001 -0.1638 0.1001 -0.3549v -4.2042c 0 -0.1729 -0.0364 -0.2821 -0.1001 -0.3185c -0.0637 -0.0364 -0.2639 -0.0455 -0.6006 -0.0455v -0.3549l 1.0374 0.0273l 1.0465 -0.0273v 0.3549c -0.3367 0 -0.5278 0.0091 -0.5915 0.0455c -0.0637 0.0364 -0.1001 0.1456 -0.1001 0.3185v 1.4469c 0.2002 -0.2821 0.5915 -0.5187 1.0647 -0.5187Z m 0.0546 3.8402c 0.3731 0 0.6643 -0.2093 0.8918 -0.6279c 0.1729 -0.3549 0.2639 -0.728 0.2639 -1.1375c 0 -0.4277 -0.1001 -0.819 -0.3003 -1.1739c -0.2366 -0.4277 -0.5551 -0.637 -0.9464 -0.637c -0.3822 0 -0.6825 0.182 -0.91 0.5369c -0.0819 0.1183 -0.1183 0.2366 -0.1183 0.3549v 1.9929c 0.2639 0.4641 0.637 0.6916 1.1193 0.6916Z "/></symbol><symbol id="g1CEBE56BFF7571B8DB10F1A4DAC5A5D7" overflow="visible"><path d="M 0 0m 4.3953 0.8281v 0.5369h -0.2912v -0.5369c 0 -0.3549 -0.1001 -0.5369 -0.2912 -0.5369c -0.182 0 -0.2912 0.2275 -0.2912 0.4095v 1.7927c 0 0.3185 -0.0364 0.5551 -0.1001 0.7189c -0.2184 0.5369 -0.8463 0.8645 -1.4833 0.8645c -0.7007 0 -1.3923 -0.3913 -1.3923 -1.0465c 0 -0.3003 0.1547 -0.455 0.455 -0.455c 0.3003 0 0.4459 0.1456 0.4459 0.4459c 0 0.2639 -0.1365 0.4186 -0.4186 0.4459c 0.2002 0.2275 0.5005 0.3458 0.8918 0.3458c 0.5642 0 0.91 -0.5187 0.91 -1.1102v -0.3003c -0.7098 -0.0455 -1.2467 -0.1547 -1.6198 -0.3276c -0.6097 -0.2821 -0.9191 -0.6734 -0.9191 -1.1921c 0 -0.2366 0.091 -0.4368 0.2639 -0.5915c 0.2912 -0.2639 0.6916 -0.3913 1.2012 -0.3913c 0.5369 0 0.9191 0.2275 1.1557 0.6916c 0.0637 -0.3458 0.3185 -0.6461 0.7098 -0.6461c 0.4823 0 0.7735 0.3822 0.7735 0.8827Z m -2.5753 -0.6643c -0.4186 0 -0.7644 0.3094 -0.7644 0.728c 0 0.8463 0.8827 1.2103 1.7745 1.2558v -0.8645c 0 -0.6097 -0.4004 -1.1193 -1.0101 -1.1193Z "/></symbol><symbol id="g48B3ED1BE8E5B4ABFD539FA8F671E63F" overflow="visible"><path d="M 0 0m 1.3104 0.0273l 1.0101 -0.0273v 0.3549c -0.3276 0 -0.5278 0.0091 -0.5915 0.0455c -0.0637 0.0364 -0.091 0.1456 -0.091 0.3185v 5.5965l -1.3377 -0.1001v -0.3458c 0.3185 0 0.5187 -0.0273 0.5824 -0.0819c 0.0637 -0.0546 0.1001 -0.182 0.1001 -0.3913v -4.6774c 0 -0.1729 -0.0273 -0.2821 -0.091 -0.3185c -0.0637 -0.0364 -0.2639 -0.0455 -0.5915 -0.0455v -0.3549Z "/></symbol><symbol id="g733BC00FCAC4D4817C0648C06C143A7E" overflow="visible"><path d="M 0 0m 2.2659 -0.1001c 0.5642 0 1.0374 0.2002 1.4287 0.6006c 0.3913 0.4004 0.5915 0.8827 0.5915 1.4469c 0 0.5733 -0.1911 1.0738 -0.5733 1.4924c -0.3822 0.4186 -0.8645 0.637 -1.4378 0.637c -0.5733 0 -1.0465 -0.2184 -1.4378 -0.637c -0.3913 -0.4186 -0.5824 -0.9191 -0.5824 -1.4924c 0 -0.5642 0.1911 -1.0465 0.5824 -1.4469c 0.3913 -0.4004 0.8736 -0.6006 1.4287 -0.6006Z m 0.0091 0.2912c -0.4368 0 -0.7644 0.1911 -0.9919 0.5824c -0.1456 0.2548 -0.2184 0.6734 -0.2184 1.2467c 0 0.5551 0.0728 0.9555 0.2093 1.2103c 0.2184 0.3913 0.546 0.5824 0.9919 0.5824c 0.4277 0 0.7553 -0.1911 0.9828 -0.5642c 0.1547 -0.2548 0.2275 -0.6643 0.2275 -1.2285c 0 -1.0556 -0.3094 -1.8291 -1.2012 -1.8291Z "/></symbol></defs></svg>