<svg viewBox="0 0 242.543022222 46.67" width="242.543022222pt" height="46.67pt" xmlns="http://www.w3.org/2000/svg" xmlns:xlink="http://www.w3.org/1999/xlink" xmlns:h5="http://www.w3.org/1999/xhtml"><g transform="matrix(1 0 0 -1 6.5 26.585)"><use xlink:href="#g53251C539233983FE9FC826CA7FBAC4A" x="0" y="0" fill="#e6edf3" fill-rule="nonzero"/></g><g transform="matrix(1 0 0 -1 16.861 26.585)"><use xlink:href="#g2D7122AD31FABF41BED931716B883F58" x="0" y="0" fill="#e6edf3" fill-rule="nonzero"/></g><g transform="matrix(1 0 0 -1 21.918 26.585)"><use xlink:href="#gF5FB9F3934311C9D089606536CC9B01A" x="0" y="0" fill="#e6edf3" fill-rule="nonzero"/></g><g transform="matrix(1 0 0 -1 27.95 26.585)"><use xlink:href="#gEFA988DEC565252013B2D05DB9DFDA82" x="0" y="0" fill="#e6edf3" fill-rule="nonzero"/></g><g transform="matrix(1 0 0 -1 33.730666667 26.585)"><use xlink:href="#g60E61677E5DD2EBB7ED3D15DA438AEBB" x="0" y="0" fill="#e6edf3" fill-rule="nonzero"/></g><g transform="matrix(1 0 0 -1 40.009666667 26.585)"><use xlink:href="#g2F93E6EEEE2061842AA37F49EEA2F1A2" x="0" y="0" fill="#e6edf3" fill-rule="nonzero"/></g><g transform="matrix(1 0 0 -1 48.677777778 26.585)"><use xlink:href="#g13AFF74D87C474CFAF661EEAD0458F8B" x="0" y="0" fill="#e6edf3" fill-rule="nonzero"/></g><g transform="matrix(1 0 0 -1 62.402888889 26.585)"><use xlink:href="#g9B543B57F718853EF8F95EF155B6CF69" x="0" y="0" fill="#e6edf3" fill-rule="nonzero"/></g><g transform="matrix(1 0 0 -1 72.516888889 26.585)"><use xlink:href="#gF4455947FC057089CFA62E76F26386FD" x="0" y="0" fill="#e6edf3" fill-rule="nonzero"/></g><g transform="matrix(1 0 0 -1 82.110888889 29.796)"><use xlink:href="#g66C287F757172C4FBEE46C9B113A6E1F" x="0" y="0" fill="#e6edf3" fill-rule="nonzero"/></g><g transform="matrix(1 0 0 -1 88.016788889 26.585)"><use xlink:href="#g594523384BCA97CC035210B36637FD16" x="0" y="0" fill="#e6edf3" fill-rule="nonzero"/></g><g transform="matrix(1 0 0 -1 99.391788889 26.585)"><use xlink:href="#gF5FB9F3934311C9D089606536CC9B01A" x="0" y="0" fill="#e6edf3" fill-rule="nonzero"/></g><g transform="matrix(1 0 0 -1 108.312677778 26.585)"><use xlink:href="#g9B543B57F718853EF8F95EF155B6CF69" x="0" y="0" fill="#e6edf3" fill-rule="nonzero"/></g><g transform="matrix(1 0 0 -1 122.615566667 17.784)"><use xlink:href="#g64EED7C1DC5EF9C242224A119317485D" x="0" y="0" fill="#e6edf3" fill-rule="nonzero"/></g><g transform="matrix(1 0 0 -1 132.794566667 13.065)"><use xlink:href="#g5EE8C4A84F8A12CB3DE79793924C3207" x="0" y="0" fill="#e6edf3" fill-rule="nonzero"/></g><g transform="matrix(1 0 0 -1 124.689066667 35.503)"><use xlink:href="#gF5FB9F3934311C9D089606536CC9B01A" x="0" y="0" fill="#e6edf3" fill-rule="nonzero"/></g><g transform="matrix(1 0 0 -1 130.721066667 31.746)"><use xlink:href="#g8A6A9074F91D642F82CC8BE39AC39D3A" x="0" y="0" fill="#e6edf3" fill-rule="nonzero"/></g><path fill="none" stroke="#e6edf3" stroke-width="0.624" stroke-linecap="butt" stroke-linejoin="miter" stroke-miterlimit="4" transform="translate(122.615566667 23.335)" d="M 0 0h 16.0849"/><g transform="matrix(1 0 0 -1 140.000466667 26.585)"><use xlink:href="#g541875353FA5EEDAD7F236F2BC89466F" x="0" y="0" fill="#e6edf3" fill-rule="nonzero"/></g><g transform="matrix(1 0 0 -1 153.542133333 26.585)"><use xlink:href="#g8B273DA24598714A1DE03FD5302C001A" x="0" y="0" fill="#e6edf3" fill-rule="nonzero"/><use xlink:href="#g5D4DFCA3C00979A1E9076032CC813B65" x="5.772" y="0" fill="#e6edf3" fill-rule="nonzero"/><use xlink:href="#gFD7B4B4FA231C83EBA33EE1F285F6134" x="12.272" y="0" fill="#e6edf3" fill-rule="nonzero"/></g><g transform="matrix(1 0 0 -1 173.1028 26.585)"><use xlink:href="#g60E61677E5DD2EBB7ED3D15DA438AEBB" x="0" y="0" fill="#e6edf3" fill-rule="nonzero"/></g><g transform="matrix(1 0 0 -1 192.3818 26.585)"><use xlink:href="#g2D7122AD31FABF41BED931716B883F58" x="0" y="0" fill="#e6edf3" fill-rule="nonzero"/></g><g transform="matrix(1 0 0 -1 197.4388 26.585)"><use xlink:href="#gF5FB9F3934311C9D089606536CC9B01A" x="0" y="0" fill="#e6edf3" fill-rule="nonzero"/></g><g transform="matrix(1 0 0 -1 207.081911111 26.585)"><use xlink:href="#g8237564506ED4B3F93E3A3E50618EC8" x="0" y="0" fill="#e6edf3" fill-rule="nonzero"/></g><g transform="matrix(1 0 0 -1 220.807022222 26.585)"><use xlink:href="#g64EED7C1DC5EF9C242224A119317485D" x="0" y="0" fill="#e6edf3" fill-rule="nonzero"/></g><g transform="matrix(1 0 0 -1 230.986022222 26.585)"><use xlink:href="#g2F93E6EEEE2061842AA37F49EEA2F1A2" x="0" y="0" fill="#e6edf3" fill-rule="nonzero"/></g><defs><symbol id="g53251C539233983FE9FC826CA7FBAC4A" overflow="visible"><path d="M 0 0m 8.723 8.84c -0.247 0 -1.027 0.039 -1.274 0.039c -0.195 0 -0.299 -0.104 -0.299 -0.299c 0 -0.13 0.091 -0.195 0.26 -0.208c 0.364 -0.013 0.546 -0.143 0.546 -0.364c 0 -0.117 -0.065 -0.273 -0.182 -0.468l -3.874 -6.149l -0.858 6.656c 0 0.221 0.273 0.325 0.832 0.325c 0.26 0 0.377 0.091 0.377 0.312c 0 0.13 -0.078 0.195 -0.234 0.195c -0.286 0 -1.3 -0.039 -1.586 -0.039c -0.26 0 -1.144 0.039 -1.404 0.039c -0.195 0 -0.299 -0.104 -0.299 -0.299c 0 -0.143 0.13 -0.208 0.377 -0.208c 0.221 0 0.377 -0.026 0.481 -0.052c 0.208 -0.065 0.195 -0.091 0.234 -0.338l 1.014 -7.93c 0.039 -0.221 0.143 -0.338 0.312 -0.338c 0.169 0 0.299 0.091 0.403 0.26l 4.628 7.358c 0.299 0.468 0.585 0.767 0.871 0.884c 0.195 0.091 0.442 0.143 0.728 0.156c 0.143 0.013 0.208 0.104 0.221 0.299c 0.013 0.143 -0.065 0.208 -0.221 0.208c -0.195 0 -0.858 -0.039 -1.053 -0.039Z "/></symbol><symbol id="g2D7122AD31FABF41BED931716B883F58" overflow="visible"><path d="M 0 0m 4.134 -3.224c 0.117 0 0.182 0.065 0.182 0.182c 0 0.039 -0.026 0.091 -0.065 0.143c -0.676 0.52 -1.222 1.378 -1.625 2.561c -0.351 1.027 -0.533 2.041 -0.533 3.042v 1.092c 0 1.001 0.182 2.015 0.533 3.042c 0.403 1.183 0.949 2.041 1.625 2.561c 0.039 0.039 0.065 0.091 0.065 0.143c 0 0.117 -0.065 0.182 -0.182 0.182c -0.013 0 -0.052 -0.013 -0.091 -0.039c -0.78 -0.598 -1.43 -1.482 -1.963 -2.665c -0.507 -1.131 -0.767 -2.197 -0.767 -3.224v -1.092c 0 -1.027 0.26 -2.093 0.767 -3.224c 0.533 -1.183 1.183 -2.067 1.963 -2.665c 0.039 -0.026 0.078 -0.039 0.091 -0.039Z "/></symbol><symbol id="gF5FB9F3934311C9D089606536CC9B01A" overflow="visible"><path d="M 0 0m 5.668 4.862c 0 0.546 -0.533 0.884 -1.105 0.884c -0.637 0 -1.17 -0.299 -1.612 -0.91c -0.13 0.507 -0.572 0.91 -1.183 0.91c -0.533 0 -0.923 -0.416 -1.196 -1.261c -0.13 -0.429 -0.195 -0.676 -0.195 -0.754c 0 -0.117 0.065 -0.182 0.208 -0.182c 0.065 0 0.104 0.013 0.143 0.039c 0.065 0.117 0.104 0.208 0.117 0.299c 0.234 0.988 0.533 1.482 0.884 1.482c 0.221 0 0.338 -0.182 0.338 -0.546c 0 -0.169 -0.065 -0.52 -0.195 -1.053l -0.741 -2.951c -0.039 -0.169 -0.117 -0.507 -0.117 -0.572c 0 -0.26 0.143 -0.39 0.416 -0.39c 0.26 0 0.429 0.13 0.52 0.39l 0.247 0.936c 0.143 0.559 0.234 0.923 0.273 1.092l 0.403 1.664c 0.026 0.104 0.13 0.273 0.299 0.52c 0.351 0.494 0.754 0.91 1.391 0.91c 0.156 0 0.286 -0.026 0.403 -0.091c -0.39 -0.117 -0.585 -0.364 -0.585 -0.715c 0 -0.338 0.182 -0.507 0.533 -0.507c 0.429 0 0.754 0.377 0.754 0.806Z "/></symbol><symbol id="gEFA988DEC565252013B2D05DB9DFDA82" overflow="visible"><path d="M 0 0m 1.807 1.378c -0.416 0 -0.689 -0.312 -0.689 -0.728c 0 -0.39 0.299 -0.715 0.689 -0.715c 0.182 0 0.338 0.052 0.455 0.169l 0.013 -0.104c 0 -0.819 -0.273 -1.521 -0.819 -2.08c -0.091 -0.104 -0.143 -0.182 -0.143 -0.234c 0 -0.13 0.052 -0.195 0.169 -0.195c 0.117 0 0.273 0.156 0.494 0.455c 0.442 0.624 0.663 1.313 0.663 2.054c 0 0.689 -0.234 1.378 -0.832 1.378Z "/></symbol><symbol id="g60E61677E5DD2EBB7ED3D15DA438AEBB" overflow="visible"><path d="M 0 0m 2.132 -0.143c 0.585 0 1.196 0.351 1.794 1.053c 1.04 1.209 1.989 3.445 1.989 5.564c 0 0.533 -0.091 1.092 -0.273 1.651c -0.234 0.689 -0.676 1.04 -1.313 1.04c -0.585 0 -1.17 -0.351 -1.781 -1.053c -1.04 -1.196 -2.002 -3.432 -2.002 -5.564c 0 -1.326 0.429 -2.691 1.586 -2.691Z m 2.184 8.918c 0.429 0 0.65 -0.494 0.65 -1.495c 0 -0.559 -0.13 -1.404 -0.39 -2.509h -2.561c 0.325 1.209 0.637 2.106 0.962 2.691c 0.481 0.871 0.936 1.313 1.339 1.313Z m -2.431 -4.524h 2.548c -0.247 -1.053 -0.546 -1.898 -0.871 -2.535c -0.507 -0.975 -0.975 -1.469 -1.43 -1.469c -0.429 0 -0.637 0.507 -0.637 1.508c 0 0.65 0.13 1.482 0.39 2.496Z "/></symbol><symbol id="g2F93E6EEEE2061842AA37F49EEA2F1A2" overflow="visible"><path d="M 0 0m 1.014 -3.185c 0.78 0.598 1.43 1.482 1.963 2.665c 0.507 1.131 0.767 2.197 0.767 3.224v 1.092c 0 1.027 -0.26 2.093 -0.767 3.224c -0.533 1.183 -1.183 2.067 -1.963 2.665c -0.039 0.026 -0.078 0.039 -0.091 0.039c -0.117 0 -0.182 -0.065 -0.182 -0.182c 0 -0.052 0.026 -0.104 0.065 -0.143c 0.676 -0.52 1.222 -1.378 1.625 -2.561c 0.351 -1.027 0.533 -2.041 0.533 -3.042v -1.092c 0 -1.001 -0.182 -2.015 -0.533 -3.042c -0.403 -1.183 -0.949 -2.041 -1.625 -2.561c -0.039 -0.052 -0.065 -0.104 -0.065 -0.143c 0 -0.117 0.065 -0.182 0.182 -0.182c 0.013 0 0.052 0.013 0.091 0.039Z "/></symbol><symbol id="g13AFF74D87C474CFAF661EEAD0458F8B" overflow="visible"><path d="M 0 0m 9.074 4.771h -8.034c -0.208 0 -0.312 -0.104 -0.312 -0.299c 0 -0.195 0.104 -0.299 0.312 -0.299h 8.034c 0.208 0 0.312 0.104 0.312 0.299c 0 0.156 -0.143 0.299 -0.312 0.299Z m 0 -2.444h -8.034c -0.208 0 -0.312 -0.104 -0.312 -0.299c 0 -0.195 0.104 -0.299 0.312 -0.299h 8.034c 0.208 0 0.312 0.104 0.312 0.299c 0 0.169 -0.143 0.299 -0.312 0.299Z "/></symbol><symbol id="g9B543B57F718853EF8F95EF155B6CF69" overflow="visible"><path d="M 0 0m 9.074 3.51h -8.034c -0.208 0 -0.312 -0.091 -0.312 -0.26c 0 -0.169 0.104 -0.26 0.312 -0.26h 8.034c 0.208 0 0.312 0.091 0.312 0.26c 0 0.156 -0.156 0.26 -0.312 0.26Z "/></symbol><symbol id="gF4455947FC057089CFA62E76F26386FD" overflow="visible"><path d="M 0 0m 2.587 8.528c 0 -0.13 0.143 -0.195 0.416 -0.195c 0.52 0 0.78 -0.052 0.78 -0.169c 0 -0.039 -0.026 -0.13 -0.065 -0.299l -1.69 -6.799c -0.065 -0.286 -0.195 -0.455 -0.39 -0.52c -0.091 -0.026 -0.325 -0.039 -0.728 -0.039c -0.286 0 -0.416 -0.026 -0.416 -0.299c 0 -0.143 0.143 -0.208 0.416 -0.208h 6.669c 0.312 0 0.338 0.026 0.442 0.247l 0.52 1.17c 0.351 0.806 0.598 1.404 0.741 1.807c -0.026 0.117 -0.065 0.195 -0.208 0.195c -0.091 0 -0.169 -0.065 -0.221 -0.182c -0.325 -0.767 -0.637 -1.352 -0.949 -1.768c -0.52 -0.702 -1.287 -0.962 -2.509 -0.962h -1.885c -0.13 0 -0.221 0 -0.273 0.013c -0.078 0 -0.117 0.026 -0.117 0.065c 0 0.026 0.026 0.117 0.065 0.286l 0.858 3.471h 1.235c 0.611 0 0.936 -0.078 1.001 -0.247c 0.026 -0.065 0.039 -0.156 0.039 -0.286c 0 -0.169 -0.026 -0.377 -0.091 -0.624c -0.026 -0.065 -0.039 -0.117 -0.039 -0.156c 0 -0.13 0.078 -0.195 0.221 -0.195c 0.117 0 0.195 0.104 0.247 0.299l 0.728 3.016c 0 0.13 -0.065 0.195 -0.208 0.195c -0.104 0 -0.182 -0.091 -0.221 -0.273c -0.13 -0.507 -0.299 -0.832 -0.52 -0.988c -0.221 -0.156 -0.585 -0.234 -1.118 -0.234h -1.144l 0.754 3.029c 0.104 0.442 0.104 0.455 0.65 0.455h 1.807c 0.663 0 1.118 -0.065 1.365 -0.195c 0.364 -0.195 0.546 -0.585 0.546 -1.17c 0 -0.221 -0.013 -0.455 -0.052 -0.676c 0 -0.026 0 -0.065 -0.013 -0.117v -0.117c 0 -0.143 0.065 -0.208 0.195 -0.208c 0.13 0 0.208 0.117 0.234 0.364l 0.26 2.223c 0.039 0.364 -0.052 0.403 -0.403 0.403h -6.487c -0.299 0 -0.442 -0.013 -0.442 -0.312Z "/></symbol><symbol id="g66C287F757172C4FBEE46C9B113A6E1F" overflow="visible"><path d="M 0 0m 4.6956 2.9029c 0 1.0283 -0.182 1.8109 -0.5369 2.3478c -0.2912 0.455 -0.8736 0.7917 -1.5743 0.7917c -0.2912 0 -0.5551 -0.0455 -0.7826 -0.1456c -1.001 -0.4186 -1.3286 -1.5834 -1.3286 -2.9939c 0 -0.3094 0.0182 -0.6006 0.0455 -0.8827c 0.1547 -1.1921 0.7098 -2.2022 2.0657 -2.2022c 0.2912 0 0.5551 0.0455 0.7826 0.1456c 1.001 0.4095 1.3286 1.547 1.3286 2.9393Z m -1.0374 2.0202c 0.1001 -0.3367 0.1547 -0.9646 0.1547 -1.9019c 0 -0.8918 -0.0364 -1.5197 -0.1183 -1.8928c -0.1092 -0.5369 -0.4914 -0.9828 -1.1102 -0.9828c -0.2275 0 -0.455 0.0728 -0.6643 0.2275c -0.2821 0.2093 -0.455 0.6188 -0.5278 1.2467c -0.0273 0.2093 -0.0364 0.6734 -0.0364 1.4014c 0 0.8827 0.0455 1.4924 0.1365 1.82c 0.1547 0.5824 0.5187 0.8736 1.092 0.8736c 0.546 0 0.9464 -0.3549 1.0738 -0.7917Z "/></symbol><symbol id="g594523384BCA97CC035210B36637FD16" overflow="visible"><path d="M 0 0m 10.374 -16.185c 0.221 0 0.325 0.104 0.325 0.325c 0 0.104 -0.039 0.195 -0.13 0.26c -1.053 0.793 -2.002 2.041 -2.873 3.77c -1.547 3.081 -2.691 7.41 -2.691 11.843v 6.474c 0 2.015 0.234 4.043 0.689 6.084c 0.806 3.64 2.496 7.735 4.875 9.529c 0.091 0.065 0.13 0.156 0.13 0.26c 0 0.221 -0.104 0.325 -0.325 0.325c -0.065 0 -0.13 -0.026 -0.182 -0.065c -1.131 -0.871 -2.21 -2.158 -3.224 -3.887c -1.794 -3.068 -3.367 -7.683 -3.367 -12.246v -6.474c 0 -4.29 1.443 -8.684 3.055 -11.7c 1.066 -1.963 2.249 -3.445 3.536 -4.433c 0.052 -0.039 0.117 -0.065 0.182 -0.065Z "/></symbol><symbol id="g64EED7C1DC5EF9C242224A119317485D" overflow="visible"><path d="M 0 0m 9.607 6.903c 0 0.663 -0.338 1.17 -1.001 1.534c -0.533 0.299 -1.17 0.442 -1.885 0.442h -3.666c -0.299 0 -0.429 -0.013 -0.429 -0.312c 0 -0.091 0.039 -0.156 0.117 -0.169c 0.13 -0.013 0.234 -0.026 0.299 -0.026c 0.39 -0.013 0.611 -0.039 0.676 -0.052c 0.065 -0.013 0.104 -0.052 0.104 -0.117c 0 -0.026 -0.013 -0.104 -0.052 -0.234l -1.716 -6.903c -0.065 -0.286 -0.195 -0.468 -0.39 -0.533c -0.091 -0.026 -0.325 -0.039 -0.728 -0.039c -0.286 0 -0.403 -0.013 -0.403 -0.299c 0 -0.143 0.078 -0.208 0.234 -0.195l 1.612 0.039l 1.638 -0.039c 0.208 -0.013 0.312 0.104 0.312 0.299c 0 0.13 -0.143 0.195 -0.416 0.195c -0.52 0 -0.78 0.065 -0.78 0.182c 0 0 0.013 0.026 0.039 0.208l 0.832 3.367h 1.495c 0.897 0 1.352 -0.377 1.352 -1.118c 0 -0.117 -0.065 -0.403 -0.182 -0.871c -0.143 -0.546 -0.208 -0.91 -0.208 -1.105c 0 -0.988 0.767 -1.443 1.755 -1.443c 0.364 0 0.715 0.169 1.066 0.494c 0.351 0.325 0.533 0.676 0.533 1.04c 0 0.13 -0.065 0.195 -0.208 0.195c -0.091 0 -0.169 -0.065 -0.208 -0.208c -0.143 -0.403 -0.325 -0.702 -0.533 -0.871c -0.208 -0.169 -0.403 -0.26 -0.598 -0.26c -0.299 0 -0.455 0.247 -0.455 0.728c 0 0.312 0.039 0.793 0.13 1.456c 0.039 0.273 0.052 0.468 0.052 0.611c 0 0.689 -0.364 1.196 -1.092 1.508c 1.222 0.299 2.704 1.17 2.704 2.496Z m -1.69 1.105c 0.26 -0.169 0.39 -0.455 0.39 -0.858c 0 -0.26 -0.052 -0.559 -0.169 -0.91c -0.351 -1.066 -1.235 -1.599 -2.652 -1.599h -1.378l 0.819 3.289c 0.065 0.273 0.169 0.416 0.312 0.429c 0.065 0.013 0.325 0.013 0.78 0.013c 0.845 0 1.339 -0.026 1.898 -0.364Z "/></symbol><symbol id="g5EE8C4A84F8A12CB3DE79793924C3207" overflow="visible"><path d="M 0 0m 3.2123 3.2123c 0.6097 0.2457 1.1921 0.7826 1.1921 1.5561c 0 0.4095 -0.2184 0.7371 -0.6461 0.9737c -0.3549 0.2002 -0.7553 0.3003 -1.2012 0.3003c -0.4459 0 -0.8372 -0.091 -1.1739 -0.2821c -0.4095 -0.2275 -0.6188 -0.546 -0.6188 -0.9555c 0 -0.3458 0.1729 -0.5187 0.5096 -0.5187c 0.2821 0 0.4914 0.2184 0.4914 0.5005c 0 0.2821 -0.1456 0.4459 -0.4277 0.4914c 0.2639 0.2821 0.6552 0.4277 1.1921 0.4277c 0.5915 0 0.9282 -0.3549 0.9282 -0.9373c 0 -0.4277 -0.1183 -0.7735 -0.3458 -1.0465c -0.2548 -0.3003 -0.4368 -0.3458 -0.9646 -0.3822c -0.2457 -0.0182 -0.4095 0.0091 -0.4095 -0.1729c 0 -0.1092 0.091 -0.1638 0.2639 -0.1638h 0.4823c 0.7826 0 1.1648 -0.5915 1.1648 -1.4105c 0 -0.8008 -0.364 -1.4105 -1.1284 -1.4105c -0.6643 0 -1.1466 0.182 -1.4469 0.5551c 0.3185 0.0364 0.4823 0.2184 0.4823 0.5369c 0 0.3003 -0.2275 0.5278 -0.5278 0.5278c -0.3549 0 -0.5369 -0.182 -0.5369 -0.5551c 0 -0.4641 0.2366 -0.8372 0.7007 -1.1011c 0.3913 -0.2184 0.8372 -0.3276 1.3468 -0.3276c 0.5551 0 1.0374 0.1547 1.456 0.4641c 0.455 0.3367 0.6825 0.7735 0.6825 1.3104c 0 0.8463 -0.7371 1.4287 -1.4651 1.6198Z "/></symbol><symbol id="g8A6A9074F91D642F82CC8BE39AC39D3A" overflow="visible"><path d="M 0 0m 1.0829 3.8584c 0.2912 0 0.5096 0.2184 0.5096 0.5096c 0 0.3276 -0.1729 0.5005 -0.5096 0.5096c 0.2002 0.4277 0.6552 0.7735 1.2467 0.7735c 0.8008 0 1.3286 -0.6006 1.3286 -1.4014c 0 -0.4368 -0.1547 -0.8554 -0.4732 -1.2649c -0.1547 -0.2093 -0.273 -0.3549 -0.3549 -0.4368l -2.1567 -2.1385c -0.1183 -0.1092 -0.1001 -0.1365 -0.1001 -0.4095h 3.7492l 0.2821 1.7108h -0.3822c -0.0637 -0.4823 -0.1365 -0.7644 -0.2184 -0.8281c -0.0455 -0.0273 -0.3276 -0.0455 -0.8645 -0.0455h -1.547c 0.6097 0.5369 1.1739 1.0192 1.7108 1.4469c 0.4095 0.3185 0.7007 0.6006 0.8827 0.8463c 0.273 0.3549 0.4095 0.728 0.4095 1.1193c 0 0.5642 -0.2184 1.0101 -0.6643 1.3377c -0.3913 0.3003 -0.8827 0.455 -1.4651 0.455c -0.5005 0 -0.9282 -0.1456 -1.3013 -0.4368c -0.3913 -0.3185 -0.5915 -0.7189 -0.5915 -1.2103c 0 -0.3094 0.2275 -0.5369 0.5096 -0.5369Z "/></symbol><symbol id="g541875353FA5EEDAD7F236F2BC89466F" overflow="visible"><path d="M 0 0m 7.774 0.013v 6.474c 0 4.29 -1.443 8.684 -3.055 11.7c -1.066 1.963 -2.249 3.445 -3.536 4.433c -0.052 0.039 -0.117 0.065 -0.182 0.065c -0.221 0 -0.325 -0.104 -0.325 -0.325c 0 -0.104 0.039 -0.195 0.13 -0.26c 1.053 -0.793 2.002 -2.041 2.873 -3.77c 1.547 -3.081 2.691 -7.41 2.691 -11.843v -6.474c 0 -2.015 -0.234 -4.043 -0.689 -6.084c -0.806 -3.64 -2.496 -7.735 -4.875 -9.529c -0.091 -0.065 -0.13 -0.156 -0.13 -0.26c 0 -0.221 0.104 -0.325 0.325 -0.325c 0.065 0 0.13 0.026 0.182 0.065c 1.131 0.871 2.21 2.158 3.224 3.887c 1.794 3.068 3.367 7.683 3.367 12.246Z "/></symbol><symbol id="g8B273DA24598714A1DE03FD5302C001A" overflow="visible"><path d="M 0 0m 3.263 5.408c 0.546 0 0.962 -0.13 1.248 -0.39c -0.312 -0.039 -0.533 -0.325 -0.533 -0.624c 0 -0.429 0.208 -0.637 0.637 -0.637c 0.429 0 0.637 0.221 0.637 0.65c 0 0.923 -1.001 1.417 -2.002 1.417c -0.806 0 -1.469 -0.286 -2.002 -0.884c -0.533 -0.598 -0.806 -1.313 -0.806 -2.132c 0 -0.793 0.273 -1.495 0.806 -2.08c 0.533 -0.585 1.183 -0.871 1.976 -0.871c 0.65 0 1.157 0.182 1.521 0.559c 0.299 0.299 0.494 0.598 0.598 0.91c 0.039 0.117 0.052 0.195 0.052 0.247c 0 0.117 -0.078 0.169 -0.221 0.169c -0.104 0 -0.169 -0.052 -0.208 -0.156c -0.273 -0.871 -0.806 -1.313 -1.625 -1.313c -0.377 0 -0.741 0.169 -1.105 0.52c -0.429 0.403 -0.637 1.079 -0.637 2.041c 0 1.3 0.494 2.574 1.664 2.574Z "/></symbol><symbol id="g5D4DFCA3C00979A1E9076032CC813B65" overflow="visible"><path d="M 0 0m 3.237 -0.143c 0.806 0 1.482 0.286 2.041 0.858c 0.559 0.572 0.845 1.261 0.845 2.067c 0 0.819 -0.273 1.534 -0.819 2.132c -0.546 0.598 -1.235 0.91 -2.054 0.91c -0.819 0 -1.495 -0.312 -2.054 -0.91c -0.559 -0.598 -0.832 -1.313 -0.832 -2.132c 0 -0.806 0.273 -1.495 0.832 -2.067c 0.559 -0.572 1.248 -0.858 2.041 -0.858Z m 0.013 0.416c -0.624 0 -1.092 0.273 -1.417 0.832c -0.208 0.364 -0.312 0.962 -0.312 1.781c 0 0.793 0.104 1.365 0.299 1.729c 0.312 0.559 0.78 0.832 1.417 0.832c 0.611 0 1.079 -0.273 1.404 -0.806c 0.221 -0.364 0.325 -0.949 0.325 -1.755c 0 -1.508 -0.442 -2.613 -1.716 -2.613Z "/></symbol><symbol id="gFD7B4B4FA231C83EBA33EE1F285F6134" overflow="visible"><path d="M 0 0m 4.68 1.69c 0 0.988 -0.676 1.612 -2.015 1.872c -0.611 0.117 -1.001 0.26 -1.209 0.403c -0.208 0.143 -0.312 0.351 -0.312 0.598c 0 0.611 0.455 0.91 1.365 0.91c 0.884 0 1.365 -0.494 1.43 -1.495c 0.013 -0.104 0.078 -0.156 0.208 -0.156c 0.143 0 0.221 0.117 0.221 0.351v 1.287c 0 0.247 -0.065 0.364 -0.195 0.364c -0.143 0 -0.338 -0.234 -0.468 -0.338c -0.325 0.221 -0.728 0.338 -1.196 0.338c -1.157 0 -2.08 -0.52 -2.08 -1.625c 0 -0.442 0.182 -0.819 0.559 -1.118c 0.455 -0.377 0.884 -0.455 1.703 -0.598c 0.845 -0.169 1.274 -0.546 1.274 -1.131c 0 -0.741 -0.455 -1.118 -1.378 -1.118c -0.897 0 -1.469 0.598 -1.716 1.781c -0.039 0.169 -0.104 0.26 -0.221 0.26c -0.143 0 -0.221 -0.13 -0.221 -0.377v -1.677c 0 -0.247 0.065 -0.364 0.195 -0.364c 0.039 0 0.104 0.039 0.208 0.13c 0.234 0.208 0.13 0.169 0.364 0.403c 0.377 -0.351 0.845 -0.533 1.391 -0.533c 1.235 0 2.093 0.637 2.093 1.833Z "/></symbol><symbol id="g8237564506ED4B3F93E3A3E50618EC8" overflow="visible"><path d="M 0 0m 8.892 4.03c 0.13 0.065 0.195 0.156 0.195 0.299c 0 0.143 -0.065 0.247 -0.195 0.312l -7.462 3.536c -0.039 0.013 -0.091 0.026 -0.143 0.026c -0.208 0 -0.312 -0.104 -0.312 -0.325c 0 -0.117 0.065 -0.208 0.182 -0.26l 6.942 -3.289l -6.942 -3.289c -0.117 -0.052 -0.182 -0.143 -0.182 -0.26c 0 -0.221 0.104 -0.325 0.312 -0.325c 0.052 0 0.104 0.013 0.143 0.039Z m -0.078 -4.966h -7.514c -0.208 0 -0.312 -0.104 -0.312 -0.299c 0 -0.208 0.104 -0.312 0.312 -0.312h 7.514c 0.208 0 0.312 0.104 0.312 0.312c 0 0.156 -0.143 0.299 -0.312 0.299Z "/></symbol></defs></svg>