<svg viewBox="0 0 308.964788889 38.896" width="308.964788889pt" height="38.896pt" xmlns="http://www.w3.org/2000/svg" xmlns:xlink="http://www.w3.org/1999/xlink" xmlns:h5="http://www.w3.org/1999/xhtml"><g transform="matrix(1 0 0 -1 6.5 22.698)"><use xlink:href="#g1EC01C5368D684131831F3BFC5D2F1C1" x="0" y="0" fill="#e6edf3" fill-rule="nonzero"/></g><g transform="matrix(1 0 0 -1 17.329 22.698)"><use xlink:href="#g7FCD119A4094BE7F1574F3E8F3A7E7BD" x="0" y="0" fill="#e6edf3" fill-rule="nonzero"/></g><g transform="matrix(1 0 0 -1 25.298 25.909)"><use xlink:href="#g56CA2213A637A1EBD48C3733E7CBD1B8" x="0" y="0" fill="#e6edf3" fill-rule="nonzero"/><use xlink:href="#g402F9925856942787E59D257DA93AD2E" x="3.5854" y="0" fill="#e6edf3" fill-rule="nonzero"/><use xlink:href="#g56CA2213A637A1EBD48C3733E7CBD1B8" x="6.1152" y="0" fill="#e6edf3" fill-rule="nonzero"/><use xlink:href="#g929C9F5835BF20B9E99EAF8B7595E15F" x="9.7006" y="0" fill="#e6edf3" fill-rule="nonzero"/></g><g transform="matrix(1 0 0 -1 42.877611111 22.698)"><use xlink:href="#g13AFF74D87C474CFAF661EEAD0458F8B" x="0" y="0" fill="#e6edf3" fill-rule="nonzero"/></g><g transform="matrix(1 0 0 -1 56.602722222 22.698)"><use xlink:href="#gACA2FE1DD062579B79E6E19150F5B03F" x="0" y="0" fill="#e6edf3" fill-rule="nonzero"/></g><g transform="matrix(1 0 0 -1 68.419722222 22.698)"><use xlink:href="#g30A27293C28FC13B0B4AB44CDE5ADD2A" x="0" y="0" fill="#e6edf3" fill-rule="nonzero"/></g><g transform="matrix(1 0 0 -1 74.048722222 25.909)"><use xlink:href="#g2C469168A0CCE6A0F75C75230004CE9F" x="0" y="0" fill="#e6edf3" fill-rule="nonzero"/></g><g transform="matrix(1 0 0 -1 82.840188889 22.698)"><use xlink:href="#gBC3D9C1A249D0D4F874E09900DF515A4" x="0" y="0" fill="#e6edf3" fill-rule="nonzero"/><use xlink:href="#gA2276AEFE9378953E87817A497BFC175" x="3.614" y="0" fill="#e6edf3" fill-rule="nonzero"/></g><g transform="matrix(1 0 0 -1 93.682188889 22.698)"><use xlink:href="#g60832423DC5A0A0EF6FFDE0FB4B0707B" x="0" y="0" fill="#e6edf3" fill-rule="nonzero"/></g><g transform="matrix(1 0 0 -1 105.087088889 13.897)"><use xlink:href="#g2D1FD5FA7721AD843D67732819992226" x="0" y="0" fill="#e6edf3" fill-rule="nonzero"/></g><g transform="matrix(1 0 0 -1 112.289088889 17.108)"><use xlink:href="#g31B61B3DC86BBCC37CEA5A6A7246B2DC" x="0" y="0" fill="#e6edf3" fill-rule="nonzero"/></g><g transform="matrix(1 0 0 -1 104.550188889 31.616)"><use xlink:href="#g2D1FD5FA7721AD843D67732819992226" x="0" y="0" fill="#e6edf3" fill-rule="nonzero"/></g><g transform="matrix(1 0 0 -1 111.752188889 34.827)"><use xlink:href="#gD387F7DE56A169B7DBC6F3E7C89336F3" x="0" y="0" fill="#e6edf3" fill-rule="nonzero"/></g><path fill="none" stroke="#e6edf3" stroke-width="0.624" stroke-linecap="butt" stroke-linejoin="miter" stroke-miterlimit="4" transform="translate(104.550188889 19.448)" d="M 0 0h 13.572"/><g transform="matrix(1 0 0 -1 119.422188889 22.698)"><use xlink:href="#gAA559AA643B86E5DAA15675B02A56BFE" x="0" y="0" fill="#e6edf3" fill-rule="nonzero"/></g><g transform="matrix(1 0 0 -1 154.990188889 22.698)"><use xlink:href="#g1EC01C5368D684131831F3BFC5D2F1C1" x="0" y="0" fill="#e6edf3" fill-rule="nonzero"/></g><g transform="matrix(1 0 0 -1 165.819188889 22.698)"><use xlink:href="#g7FCD119A4094BE7F1574F3E8F3A7E7BD" x="0" y="0" fill="#e6edf3" fill-rule="nonzero"/></g><g transform="matrix(1 0 0 -1 173.788188889 25.909)"><use xlink:href="#g929C9F5835BF20B9E99EAF8B7595E15F" x="0" y="0" fill="#e6edf3" fill-rule="nonzero"/><use xlink:href="#g6F1B2EC7690C574873AE01D06ED173C6" x="3.5399" y="0" fill="#e6edf3" fill-rule="nonzero"/><use xlink:href="#g23F189AE588E1A359BE6574F29945FEE" x="7.5803" y="0" fill="#e6edf3" fill-rule="nonzero"/><use xlink:href="#g4A3E5A4432A0C4729107706BA2BDD8BD" x="11.1475" y="0" fill="#e6edf3" fill-rule="nonzero"/></g><g transform="matrix(1 0 0 -1 196.8551 22.698)"><use xlink:href="#g13AFF74D87C474CFAF661EEAD0458F8B" x="0" y="0" fill="#e6edf3" fill-rule="nonzero"/></g><g transform="matrix(1 0 0 -1 210.580211111 22.698)"><use xlink:href="#g9B543B57F718853EF8F95EF155B6CF69" x="0" y="0" fill="#e6edf3" fill-rule="nonzero"/></g><g transform="matrix(1 0 0 -1 220.694211111 22.698)"><use xlink:href="#gACA2FE1DD062579B79E6E19150F5B03F" x="0" y="0" fill="#e6edf3" fill-rule="nonzero"/></g><g transform="matrix(1 0 0 -1 232.511211111 22.698)"><use xlink:href="#g30A27293C28FC13B0B4AB44CDE5ADD2A" x="0" y="0" fill="#e6edf3" fill-rule="nonzero"/></g><g transform="matrix(1 0 0 -1 238.140211111 25.909)"><use xlink:href="#g2C469168A0CCE6A0F75C75230004CE9F" x="0" y="0" fill="#e6edf3" fill-rule="nonzero"/></g><g transform="matrix(1 0 0 -1 244.765011111 22.698)"><use xlink:href="#g60832423DC5A0A0EF6FFDE0FB4B0707B" x="0" y="0" fill="#e6edf3" fill-rule="nonzero"/></g><g transform="matrix(1 0 0 -1 254.333011111 22.698)"><use xlink:href="#g6B3DB0E0ADE6D994825CC39624067234" x="0" y="0" fill="#e6edf3" fill-rule="nonzero"/></g><g transform="matrix(1 0 0 -1 263.7219 22.698)"><use xlink:href="#g9B543B57F718853EF8F95EF155B6CF69" x="0" y="0" fill="#e6edf3" fill-rule="nonzero"/></g><g transform="matrix(1 0 0 -1 278.024788889 13.897)"><use xlink:href="#g2D1FD5FA7721AD843D67732819992226" x="0" y="0" fill="#e6edf3" fill-rule="nonzero"/></g><g transform="matrix(1 0 0 -1 285.226788889 17.108)"><use xlink:href="#gD387F7DE56A169B7DBC6F3E7C89336F3" x="0" y="0" fill="#e6edf3" fill-rule="nonzero"/></g><g transform="matrix(1 0 0 -1 278.561688889 31.616)"><use xlink:href="#g2D1FD5FA7721AD843D67732819992226" x="0" y="0" fill="#e6edf3" fill-rule="nonzero"/></g><g transform="matrix(1 0 0 -1 285.763688889 34.827)"><use xlink:href="#g31B61B3DC86BBCC37CEA5A6A7246B2DC" x="0" y="0" fill="#e6edf3" fill-rule="nonzero"/></g><path fill="none" stroke="#e6edf3" stroke-width="0.624" stroke-linecap="butt" stroke-linejoin="miter" stroke-miterlimit="4" transform="translate(278.024788889 19.448)" d="M 0 0h 13.572"/><g transform="matrix(1 0 0 -1 292.896788889 22.698)"><use xlink:href="#gAA559AA643B86E5DAA15675B02A56BFE" x="0" y="0" fill="#e6edf3" fill-rule="nonzero"/></g><defs><symbol id="g1EC01C5368D684131831F3BFC5D2F1C1" overflow="visible"><path d="M 0 0m 9.867 0c 0.221 0 0.338 0.052 0.338 0.169l -4.42 8.879c -0.091 0.169 -0.208 0.26 -0.377 0.26c -0.169 0 -0.286 -0.091 -0.377 -0.26l -4.355 -8.723c -0.039 -0.091 -0.065 -0.143 -0.065 -0.169c 0 -0.104 0.117 -0.156 0.338 -0.156Z m -4.875 7.852l 3.38 -6.773h -6.76Z "/></symbol><symbol id="g7FCD119A4094BE7F1574F3E8F3A7E7BD" overflow="visible"><path d="M 0 0m 1.729 2.041c 0 0.312 0.039 0.572 0.104 0.78c 0 0.13 -0.065 0.195 -0.208 0.195c -0.065 0 -0.117 -0.026 -0.143 -0.052c -0.065 -0.065 -0.806 -2.86 -0.806 -3.068c 0 -0.117 0.065 -0.182 0.195 -0.182c 0.065 0 0.156 0.065 0.273 0.208l 0.585 0.689c 0.455 -0.598 1.183 -0.897 2.171 -0.897c 0.858 0 1.612 0.351 2.288 1.04c 0.676 0.689 1.014 1.456 1.014 2.314c 0 0.611 -0.208 1.131 -0.637 1.547c -0.195 0.169 -0.455 0.312 -0.78 0.429c -0.299 0.065 -0.585 0.143 -0.871 0.221l -0.858 0.234c -0.429 0.117 -0.754 0.598 -0.754 1.118c 0 0.559 0.221 1.04 0.676 1.456c 0.455 0.416 0.962 0.624 1.521 0.624c 1.196 0 1.794 -0.65 1.794 -1.937c 0 -0.234 -0.052 -0.494 -0.052 -0.715v -0.039c 0.039 -0.091 0.104 -0.143 0.208 -0.143c 0.117 0 0.195 0.104 0.247 0.299l 0.689 2.821c 0 0.117 -0.065 0.182 -0.195 0.182c -0.065 0 -0.156 -0.065 -0.273 -0.208l -0.559 -0.676c -0.364 0.585 -0.975 0.884 -1.846 0.884c -0.819 0 -1.56 -0.312 -2.21 -0.923c -0.676 -0.624 -1.014 -1.339 -1.014 -2.158c 0 -0.936 0.611 -1.677 1.378 -1.885l 1.365 -0.351c 0.702 -0.195 1.144 -0.442 1.144 -1.313c 0 -0.598 -0.234 -1.131 -0.689 -1.599c -0.455 -0.468 -0.975 -0.715 -1.56 -0.715c -1.274 0 -2.197 0.559 -2.197 1.82Z "/></symbol><symbol id="g56CA2213A637A1EBD48C3733E7CBD1B8" overflow="visible"><path d="M 0 0m 3.276 1.183c 0 0.6916 -0.4732 1.1284 -1.4105 1.3104c -0.4277 0.0819 -0.7007 0.182 -0.8463 0.2821c -0.1456 0.1001 -0.2184 0.2457 -0.2184 0.4186c 0 0.4277 0.3185 0.637 0.9555 0.637c 0.6188 0 0.9555 -0.3458 1.001 -1.0465c 0.0091 -0.0728 0.0546 -0.1092 0.1456 -0.1092c 0.1001 0 0.1547 0.0819 0.1547 0.2457v 0.9009c 0 0.1729 -0.0455 0.2548 -0.1365 0.2548c -0.1001 0 -0.2366 -0.1638 -0.3276 -0.2366c -0.2275 0.1547 -0.5096 0.2366 -0.8372 0.2366c -0.8099 0 -1.456 -0.364 -1.456 -1.1375c 0 -0.3094 0.1274 -0.5733 0.3913 -0.7826c 0.3185 -0.2639 0.6188 -0.3185 1.1921 -0.4186c 0.5915 -0.1183 0.8918 -0.3822 0.8918 -0.7917c 0 -0.5187 -0.3185 -0.7826 -0.9646 -0.7826c -0.6279 0 -1.0283 0.4186 -1.2012 1.2467c -0.0273 0.1183 -0.0728 0.182 -0.1547 0.182c -0.1001 0 -0.1547 -0.091 -0.1547 -0.2639v -1.1739c 0 -0.1729 0.0455 -0.2548 0.1365 -0.2548c 0.0273 0 0.0728 0.0273 0.1456 0.091c 0.1638 0.1456 0.091 0.1183 0.2548 0.2821c 0.2639 -0.2457 0.5915 -0.3731 0.9737 -0.3731c 0.8645 0 1.4651 0.4459 1.4651 1.2831Z "/></symbol><symbol id="g402F9925856942787E59D257DA93AD2E" overflow="visible"><path d="M 0 0m 1.7654 5.4691c 0 0.273 -0.2275 0.5096 -0.5005 0.5096c -0.273 0 -0.5096 -0.2366 -0.5096 -0.5096c 0 -0.273 0.2275 -0.5187 0.5005 -0.5187c 0.2821 0 0.5096 0.2366 0.5096 0.5187Z m -0.4641 -5.4418l 0.9464 -0.0273v 0.3549c -0.3003 0 -0.4823 0.0182 -0.5369 0.0546c -0.0546 0.0364 -0.0728 0.1365 -0.0728 0.3003v 3.3397l -1.3013 -0.1092v -0.3458c 0.3003 0 0.4914 -0.0273 0.5551 -0.0728c 0.0637 -0.0455 0.091 -0.1729 0.091 -0.3822v -2.4206c 0 -0.1729 -0.0273 -0.2821 -0.091 -0.3185c -0.0637 -0.0364 -0.2639 -0.0455 -0.5915 -0.0455v -0.3549Z "/></symbol><symbol id="g929C9F5835BF20B9E99EAF8B7595E15F" overflow="visible"><path d="M 0 0m 3.0212 1.1466v 0.546h -0.2912v -0.5278c 0 -0.455 -0.1638 -0.9646 -0.5642 -0.9646c -0.3731 0 -0.5551 0.3094 -0.5551 0.9282v 2.4661h 1.2649v 0.3458h -1.2649v 1.6562h -0.2912c -0.0091 -0.3003 -0.0364 -0.5642 -0.1001 -0.8008c -0.1547 -0.6006 -0.5096 -0.91 -1.0465 -0.9373v -0.2639h 0.7553v -2.4479c 0 -0.5369 0.1638 -0.8827 0.4823 -1.0556c 0.2457 -0.1274 0.4732 -0.1911 0.7007 -0.1911c 0.6006 0 0.91 0.6006 0.91 1.2467Z "/></symbol><symbol id="g13AFF74D87C474CFAF661EEAD0458F8B" overflow="visible"><path d="M 0 0m 9.074 4.771h -8.034c -0.208 0 -0.312 -0.104 -0.312 -0.299c 0 -0.195 0.104 -0.299 0.312 -0.299h 8.034c 0.208 0 0.312 0.104 0.312 0.299c 0 0.156 -0.143 0.299 -0.312 0.299Z m 0 -2.444h -8.034c -0.208 0 -0.312 -0.104 -0.312 -0.299c 0 -0.195 0.104 -0.299 0.312 -0.299h 8.034c 0.208 0 0.312 0.104 0.312 0.299c 0 0.169 -0.143 0.299 -0.312 0.299Z "/></symbol><symbol id="gACA2FE1DD062579B79E6E19150F5B03F" overflow="visible"><path d="M 0 0m 11.232 8.879c -0.247 0 -1.053 -0.039 -1.3 -0.039c -0.247 0 -1.066 0.039 -1.313 0.039c -0.195 0 -0.286 -0.104 -0.286 -0.312c 0 -0.117 0.091 -0.182 0.286 -0.195c 0.546 0 0.819 -0.169 0.819 -0.507c 0 -0.078 -0.013 -0.169 -0.026 -0.26l -1.404 -5.564l -2.795 6.565c -0.104 0.247 -0.13 0.273 -0.455 0.273h -1.729c -0.312 0 -0.429 -0.026 -0.429 -0.312c 0 -0.13 0.143 -0.195 0.416 -0.195c 0.546 0 0.819 -0.013 0.832 -0.052l -1.729 -6.89c -0.117 -0.507 -0.416 -0.793 -0.884 -0.884c -0.338 -0.039 -0.728 0.013 -0.728 -0.351c 0 -0.13 0.078 -0.195 0.221 -0.195c 0.234 0 1.04 0.039 1.287 0.039c 0.247 0 1.079 -0.039 1.326 -0.039c 0.195 0 0.286 0.104 0.286 0.312c 0 0.117 -0.104 0.182 -0.312 0.195c -0.533 0.013 -0.793 0.182 -0.793 0.507c 0 0.065 0.013 0.156 0.039 0.286l 1.677 6.643l 3.25 -7.67c 0.078 -0.182 0.182 -0.273 0.299 -0.273c 0.117 0 0.195 0.104 0.247 0.312l 1.807 7.15c 0.169 0.663 0.533 0.897 1.339 0.91c 0.182 0.013 0.273 0.117 0.273 0.325c -0.039 0.117 -0.052 0.182 -0.221 0.182Z "/></symbol><symbol id="g30A27293C28FC13B0B4AB44CDE5ADD2A" overflow="visible"><path d="M 0 0m 4.264 4.225c 0 -0.325 0.169 -0.494 0.52 -0.494c 0.468 0 0.767 0.403 0.767 0.871c 0 0.728 -0.767 1.144 -1.547 1.144c -0.897 0 -1.716 -0.39 -2.418 -1.157c -0.702 -0.767 -1.053 -1.612 -1.053 -2.522c 0 -1.274 0.845 -2.21 2.119 -2.21c 0.689 0 1.3 0.169 1.833 0.494c 0.442 0.273 0.767 0.546 0.975 0.819c 0.091 0.117 0.13 0.208 0.13 0.247c 0 0.143 -0.065 0.221 -0.208 0.221c -0.065 0 -0.13 -0.052 -0.208 -0.156c -0.429 -0.572 -0.962 -0.936 -1.573 -1.092c -0.403 -0.104 -0.702 -0.156 -0.923 -0.156c -0.741 0 -1.105 0.455 -1.105 1.352c 0 0.806 0.377 1.976 0.689 2.535c 0.312 0.572 0.975 1.248 1.742 1.248c 0.494 0 0.832 -0.143 1.014 -0.416c -0.403 -0.039 -0.754 -0.299 -0.754 -0.728Z "/></symbol><symbol id="g2C469168A0CCE6A0F75C75230004CE9F" overflow="visible"><path d="M 0 0m 5.3053 3.3215c 0 0.4641 -0.4732 0.6916 -0.9646 0.6916c -0.4095 0 -0.7462 -0.2002 -1.001 -0.6006c -0.2184 0.4004 -0.5824 0.6006 -1.0829 0.6006c -0.3367 0 -0.6916 -0.1456 -1.0465 -0.4459c -0.3731 -0.3094 -0.5642 -0.6279 -0.5642 -0.9555c 0 -0.1001 0.0637 -0.1547 0.182 -0.1547c 0.1001 0 0.1638 0.0546 0.2093 0.1729c 0.1638 0.4914 0.6097 1.0647 1.1921 1.0647c 0.3367 0 0.5005 -0.182 0.5005 -0.5551c 0 -0.1183 -0.0637 -0.4277 -0.182 -0.9282l -0.3094 -1.2194c -0.0819 -0.3458 -0.4186 -0.7644 -0.8099 -0.7644c -0.1547 0 -0.2912 0.0273 -0.4004 0.091c 0.182 0.0819 0.3458 0.2821 0.3458 0.4914c 0 0.2184 -0.1729 0.3731 -0.3913 0.3731c -0.3094 0 -0.546 -0.273 -0.546 -0.5824c 0 -0.455 0.4823 -0.6916 0.9737 -0.6916c 0.4186 0 0.7553 0.2002 1.001 0.6006c 0.2184 -0.4004 0.5733 -0.6006 1.0738 -0.6006c 0.5005 0 0.9009 0.2002 1.2103 0.6006c 0.2639 0.3549 0.4004 0.6279 0.4004 0.8008c 0 0.1001 -0.0546 0.1547 -0.1729 0.1547c -0.1001 0 -0.1729 -0.0637 -0.2093 -0.182c -0.1547 -0.4823 -0.6188 -1.0556 -1.1921 -1.0556c -0.3367 0 -0.5096 0.182 -0.5096 0.546c 0 0.1365 0.1547 0.819 0.4641 2.0293c 0.1547 0.5915 0.4277 0.8918 0.8372 0.8918l 0.0819 -0.0091c 0.1092 0 0.2184 -0.0273 0.3185 -0.0728c -0.2275 -0.1001 -0.3367 -0.2639 -0.3367 -0.5005c 0 -0.2184 0.1729 -0.3731 0.3913 -0.3731c 0.3094 0 0.5369 0.273 0.5369 0.5824Z "/></symbol><symbol id="gBC3D9C1A249D0D4F874E09900DF515A4" overflow="visible"><path d="M 0 0m 1.872 0.039l 1.443 -0.039v 0.507c -0.468 0 -0.754 0.013 -0.845 0.065c -0.091 0.052 -0.13 0.208 -0.13 0.455v 7.995l -1.911 -0.143v -0.494c 0.455 0 0.741 -0.039 0.832 -0.117c 0.091 -0.078 0.143 -0.26 0.143 -0.559v -6.682c 0 -0.247 -0.039 -0.403 -0.13 -0.455c -0.091 -0.052 -0.377 -0.065 -0.845 -0.065v -0.507Z "/></symbol><symbol id="gA2276AEFE9378953E87817A497BFC175" overflow="visible"><path d="M 0 0m 4.082 5.369c 0.585 0 0.884 -0.455 0.884 -1.378v -2.964c 0 -0.247 -0.039 -0.403 -0.13 -0.455c -0.091 -0.052 -0.377 -0.078 -0.858 -0.078v -0.494l 1.495 0.039l 1.482 -0.039v 0.494c -0.416 0 -0.689 0.013 -0.819 0.052c -0.13 0.039 -0.182 0.13 -0.182 0.286v 2.431c 0 0.611 -0.013 1.04 -0.052 1.287c -0.13 0.793 -0.715 1.196 -1.742 1.196c -0.819 0 -1.43 -0.39 -1.833 -1.17v 1.17l -1.911 -0.143v -0.494c 0.468 0 0.754 -0.039 0.858 -0.117c 0.104 -0.078 0.143 -0.247 0.143 -0.546v -3.419c 0 -0.247 -0.052 -0.403 -0.143 -0.455c -0.091 -0.052 -0.377 -0.078 -0.858 -0.078v -0.494l 1.495 0.039l 1.482 -0.039v 0.494c -0.481 0 -0.754 0.026 -0.845 0.078c -0.091 0.052 -0.143 0.208 -0.143 0.455v 2.34c 0 1.053 0.663 2.002 1.677 2.002Z "/></symbol><symbol id="g60832423DC5A0A0EF6FFDE0FB4B0707B" overflow="visible"><path d="M 0 0m 8.58 -12.298c 0.195 0 0.286 0.091 0.286 0.286c 0 0.091 -0.039 0.169 -0.104 0.221c -0.884 0.663 -1.677 1.69 -2.392 3.081c -1.261 2.47 -2.21 5.993 -2.21 9.555v 4.81c 0 1.625 0.195 3.263 0.572 4.914c 0.676 2.99 2.067 6.24 4.03 7.722c 0.065 0.052 0.104 0.13 0.104 0.221c 0 0.195 -0.091 0.286 -0.286 0.286c -0.052 0 -0.104 -0.026 -0.169 -0.065c -0.949 -0.715 -1.846 -1.781 -2.691 -3.198c -1.469 -2.47 -2.782 -6.201 -2.782 -9.88v -4.81c 0 -3.471 1.222 -7.046 2.548 -9.477c 0.884 -1.599 1.859 -2.808 2.925 -3.601c 0.065 -0.039 0.117 -0.065 0.169 -0.065Z "/></symbol><symbol id="g2D1FD5FA7721AD843D67732819992226" overflow="visible"><path d="M 0 0m 4.472 8.203c 0 -0.039 -0.013 -0.13 -0.052 -0.26l -1.716 -6.864c -0.052 -0.195 -0.104 -0.312 -0.143 -0.364c -0.117 -0.143 -0.559 -0.208 -1.339 -0.208c -0.403 0 -0.585 0.039 -0.585 -0.299c 0 -0.143 0.091 -0.208 0.26 -0.208c 0.663 0 1.599 0.052 2.158 0.039l 1.066 -0.013c 0.182 0 0.897 -0.026 1.118 -0.026c 0.221 0 0.325 0.104 0.325 0.312c 0 0.13 -0.156 0.195 -0.481 0.195c -0.676 0 -1.066 0.026 -1.183 0.091c -0.039 0.026 -0.065 0.078 -0.065 0.156l 1.755 7.085c 0.039 0.182 0.078 0.299 0.117 0.338c 0.052 0.078 0.364 0.117 0.936 0.117c 0.715 0 1.209 -0.052 1.456 -0.169c 0.247 -0.117 0.377 -0.39 0.377 -0.832c 0 -0.234 -0.039 -0.572 -0.104 -1.014c -0.026 -0.104 -0.039 -0.182 -0.039 -0.247c 0 -0.143 0.065 -0.221 0.208 -0.221c 0.117 0 0.195 0.117 0.234 0.338l 0.351 2.236c 0.013 0.065 0.026 0.143 0.026 0.221c 0 0.13 -0.13 0.195 -0.403 0.195h -7.124c -0.338 0 -0.364 -0.039 -0.468 -0.286l -0.767 -2.262c -0.039 -0.117 -0.065 -0.195 -0.078 -0.247c 0 -0.13 0.065 -0.195 0.208 -0.195c 0.104 0 0.195 0.104 0.26 0.299c 0.325 0.949 0.65 1.534 0.949 1.781c 0.338 0.273 0.988 0.403 1.937 0.403h 0.507c 0.143 0 0.299 0.013 0.299 -0.091Z "/></symbol><symbol id="g31B61B3DC86BBCC37CEA5A6A7246B2DC" overflow="visible"><path d="M 0 0m 2.912 4.0404c -0.3549 0 -0.7098 -0.1456 -1.0647 -0.4368l 0.5915 2.3933c 0.0091 0.0182 0.0182 0.0728 0.0364 0.1547c 0 0.1092 -0.0637 0.1638 -0.182 0.1638l -1.1466 -0.091c -0.1547 -0.0091 -0.2275 -0.091 -0.2275 -0.2457c 0 -0.1001 0.091 -0.1547 0.273 -0.1547c 0.1547 0 0.3913 0 0.3913 -0.1001c 0 -0.0273 -0.0091 -0.091 -0.0364 -0.1911c -0.1365 -0.5551 -0.2457 -0.9737 -0.3094 -1.2558l -0.5915 -2.3933c -0.0273 -0.1274 -0.0455 -0.2821 -0.0455 -0.455c 0 -0.8463 0.5187 -1.5197 1.3468 -1.5197c 0.6188 0 1.1648 0.2821 1.6471 0.8372c 0.4641 0.5369 0.6916 1.1284 0.6916 1.7563c 0 0.8645 -0.5369 1.5379 -1.3741 1.5379Z m -1.6107 -2.9302c 0 0.2457 0.1092 0.7917 0.3367 1.6471c 0.0273 0.1183 0.091 0.2366 0.2093 0.3731c 0.3367 0.3913 0.6825 0.5824 1.0374 0.5824c 0.4095 0 0.6188 -0.2821 0.6188 -0.8372c 0 -0.5278 -0.2821 -1.4196 -0.4641 -1.7836c -0.182 -0.3822 -0.5915 -0.8554 -1.0829 -0.8554c -0.4368 0 -0.6552 0.4004 -0.6552 0.8736Z "/></symbol><symbol id="gD387F7DE56A169B7DBC6F3E7C89336F3" overflow="visible"><path d="M 0 0m 1.9474 -0.091c 0.4095 0 0.8281 0.2002 1.2558 0.6006c 0.1456 -0.3731 0.4732 -0.6006 0.9373 -0.6006c 0.3003 0 0.546 0.1638 0.7371 0.4914c 0.0728 0.1183 0.3185 0.728 0.3185 0.91c 0 0.1001 -0.0637 0.1547 -0.182 0.1547c -0.0455 0 -0.0819 -0.0091 -0.1092 -0.0273c -0.0637 -0.1092 -0.1092 -0.2002 -0.1183 -0.273c -0.1547 -0.6279 -0.364 -0.9373 -0.6188 -0.9373c -0.1729 0 -0.2639 0.1365 -0.2639 0.4095c 0 0.1001 0.0455 0.3276 0.1365 0.6916l 0.2002 0.8099c 0.0728 0.3003 0.1274 0.5278 0.1729 0.6734l 0.1638 0.7098c 0 0.2093 -0.1092 0.3185 -0.3367 0.3185c -0.2093 0 -0.3549 -0.1001 -0.4277 -0.3094c -0.2275 0.3185 -0.5369 0.4823 -0.91 0.4823c -0.6188 0 -1.1739 -0.2821 -1.6562 -0.8372c -0.4641 -0.5369 -0.6916 -1.1193 -0.6916 -1.7472c 0 -0.8463 0.5642 -1.5197 1.3923 -1.5197Z m 1.5561 3.4489c 0.1092 -0.1911 0.1638 -0.3276 0.1638 -0.4095c 0 -0.0091 0 -0.0273 -0.0091 -0.0455l -0.4368 -1.7381c -0.0546 -0.2184 -0.2184 -0.4368 -0.5005 -0.637c -0.2821 -0.2002 -0.5278 -0.3003 -0.7462 -0.3003c -0.4095 0 -0.6188 0.2821 -0.6188 0.8372c 0 0.2184 0.0546 0.5187 0.1547 0.9191c 0.1001 0.4004 0.2002 0.6916 0.3003 0.8736c 0.3185 0.5551 0.6825 0.8372 1.092 0.8372c 0.2821 0 0.4823 -0.1092 0.6006 -0.3367Z "/></symbol><symbol id="gAA559AA643B86E5DAA15675B02A56BFE" overflow="visible"><path d="M 0 0m 1.157 -12.233c 0.949 0.715 1.846 1.781 2.691 3.198c 1.469 2.457 2.782 6.201 2.782 9.88v 4.81c 0 3.471 -1.222 7.046 -2.548 9.477c -0.884 1.599 -1.859 2.808 -2.925 3.601c -0.065 0.039 -0.117 0.065 -0.169 0.065c -0.195 0 -0.286 -0.091 -0.286 -0.286c 0 -0.091 0.039 -0.169 0.104 -0.221c 0.884 -0.663 1.677 -1.69 2.392 -3.081c 1.261 -2.47 2.21 -5.993 2.21 -9.555v -4.81c 0 -1.625 -0.195 -3.263 -0.572 -4.914c -0.676 -2.99 -2.067 -6.24 -4.03 -7.722c -0.065 -0.052 -0.104 -0.13 -0.104 -0.221c 0 -0.195 0.091 -0.286 0.286 -0.286c 0.052 0 0.104 0.026 0.169 0.065Z "/></symbol><symbol id="g6F1B2EC7690C574873AE01D06ED173C6" overflow="visible"><path d="M 0 0m 3.7765 2.2841c 0 1.0465 -0.6097 1.7927 -1.6289 1.7927c -0.546 0 -1.001 -0.2093 -1.3741 -0.637c -0.3458 -0.4004 -0.5187 -0.8827 -0.5187 -1.4378c 0 -0.5733 0.1911 -1.0556 0.5733 -1.4742c 0.3822 -0.4186 0.8554 -0.6279 1.4196 -0.6279c 0.5187 0 0.9191 0.182 1.1921 0.5369c 0.2275 0.3003 0.3367 0.5187 0.3367 0.6643c 0 0.091 -0.0546 0.1365 -0.1547 0.1365c -0.0728 0 -0.1183 -0.0455 -0.1456 -0.1456c -0.2002 -0.6006 -0.5915 -0.9009 -1.1739 -0.9009c -0.4095 0 -0.728 0.1911 -0.9737 0.5824c -0.1729 0.2821 -0.2548 0.7098 -0.2639 1.2922h 2.457c 0.2002 0 0.2548 0.0182 0.2548 0.2184Z m -0.8099 0.8918c 0.1001 -0.3003 0.1456 -0.5915 0.1456 -0.8554h -2.0384c 0.0273 0.6006 0.182 1.0101 0.455 1.2194c 0.2275 0.182 0.4277 0.273 0.6188 0.273c 0.4095 0 0.6825 -0.2093 0.819 -0.637Z "/></symbol><symbol id="g23F189AE588E1A359BE6574F29945FEE" overflow="visible"><path d="M 0 0m 3.3124 3.4398c 0 0.3549 -0.3367 0.5824 -0.6916 0.5824c -0.4641 0 -0.819 -0.273 -1.0556 -0.8281v 0.8281l -1.3104 -0.1001v -0.3458c 0.3185 0 0.5096 -0.0273 0.5824 -0.0819c 0.0728 -0.0546 0.1092 -0.1729 0.1092 -0.3822v -2.3933c 0 -0.1729 -0.0273 -0.2821 -0.091 -0.3185c -0.0637 -0.0364 -0.2639 -0.0546 -0.6006 -0.0546v -0.3458l 1.0465 0.0273c 0.3822 0.0091 0.7735 0 1.1648 -0.0273v 0.3458h -0.2184c -0.3003 0 -0.4914 0.0273 -0.5551 0.0728c -0.0637 0.0455 -0.091 0.1547 -0.091 0.3185v 1.3741c 0 0.3913 0.0728 0.7462 0.2093 1.0465c 0.182 0.3913 0.4459 0.5915 0.8008 0.6006c -0.091 -0.091 -0.1365 -0.2002 -0.1365 -0.3276c 0 -0.2821 0.1365 -0.4186 0.4186 -0.4186c 0.2457 0 0.4186 0.1911 0.4186 0.4277Z "/></symbol><symbol id="g4A3E5A4432A0C4729107706BA2BDD8BD" overflow="visible"><path d="M 0 0m 2.8665 3.7583c 0.4186 0 0.6279 -0.3185 0.6279 -0.9646v -2.0748c 0 -0.1729 -0.0273 -0.2821 -0.091 -0.3185c -0.0637 -0.0364 -0.273 -0.0546 -0.6097 -0.0546v -0.3458l 1.0556 0.0273l 1.0465 -0.0273v 0.3458c -0.3367 0 -0.5369 0.0182 -0.6006 0.0546c -0.0637 0.0364 -0.1001 0.1456 -0.1001 0.3185v 1.638c 0 0.728 0.4732 1.4014 1.1739 1.4014c 0.4277 0 0.637 -0.3185 0.637 -0.9646v -2.0748c 0 -0.1729 -0.0364 -0.2821 -0.1001 -0.3185c -0.0637 -0.0364 -0.273 -0.0546 -0.6097 -0.0546v -0.3458l 1.0556 0.0273l 1.0465 -0.0273v 0.3458c -0.2912 0 -0.4823 0.0091 -0.5733 0.0364c -0.091 0.0273 -0.1274 0.091 -0.1274 0.2002v 1.7017c 0 0.4277 -0.0182 0.728 -0.0455 0.9009c -0.091 0.5551 -0.5005 0.8372 -1.2194 0.8372c -0.5733 0 -1.001 -0.2639 -1.2922 -0.8008c -0.1274 0.5369 -0.5278 0.8008 -1.2103 0.8008c -0.5733 0 -1.0101 -0.273 -1.3013 -0.819v 0.819l -1.3377 -0.1001v -0.3458c 0.3276 0 0.5278 -0.0273 0.6006 -0.0819c 0.0728 -0.0546 0.1001 -0.1729 0.1001 -0.3822v -2.3933c 0 -0.1729 -0.0364 -0.2821 -0.1001 -0.3185c -0.0637 -0.0364 -0.2639 -0.0546 -0.6006 -0.0546v -0.3458l 1.0556 0.0273l 1.0465 -0.0273v 0.3458c -0.3367 0 -0.546 0.0182 -0.6097 0.0546c -0.0637 0.0364 -0.1001 0.1456 -0.1001 0.3185v 1.638c 0 0.7371 0.4823 1.4014 1.183 1.4014Z "/></symbol><symbol id="g9B543B57F718853EF8F95EF155B6CF69" overflow="visible"><path d="M 0 0m 9.074 3.51h -8.034c -0.208 0 -0.312 -0.091 -0.312 -0.26c 0 -0.169 0.104 -0.26 0.312 -0.26h 8.034c 0.208 0 0.312 0.091 0.312 0.26c 0 0.156 -0.156 0.26 -0.312 0.26Z "/></symbol><symbol id="g6B3DB0E0ADE6D994825CC39624067234" overflow="visible"><path d="M 0 0m 3.497 8.658c -0.533 -0.546 -1.313 -0.819 -2.34 -0.819v -0.507c 0.676 0 1.235 0.104 1.664 0.312v -6.578c 0 -0.234 -0.052 -0.39 -0.169 -0.455c -0.117 -0.065 -0.442 -0.104 -0.962 -0.104h -0.455v -0.507c 0.325 0.026 1.027 0.039 2.106 0.039c 1.079 0 1.781 -0.013 2.106 -0.039v 0.507h -0.455c -0.533 0 -0.858 0.039 -0.962 0.104c -0.104 0.065 -0.169 0.221 -0.169 0.455v 7.202c 0 0.312 -0.026 0.39 -0.364 0.39Z "/></symbol></defs></svg>