<svg viewBox="0 0 302.078688889 46.67" width="302.078688889pt" height="46.67pt" xmlns="http://www.w3.org/2000/svg" xmlns:xlink="http://www.w3.org/1999/xlink" xmlns:h5="http://www.w3.org/1999/xhtml"><g transform="matrix(1 0 0 -1 6.5 26.585)"><use xlink:href="#gFCB8EE904C83D15DBBDA0F3192DB537A" x="0" y="0" fill="#e6edf3" fill-rule="nonzero"/></g><g transform="matrix(1 0 0 -1 16.523 29.796)"><use xlink:href="#g528A59098A0D3781770F15CFBE29D3CD" x="0" y="0" fill="#e6edf3" fill-rule="nonzero"/></g><g transform="matrix(1 0 0 -1 29.852911111 26.585)"><use xlink:href="#g13AFF74D87C474CFAF661EEAD0458F8B" x="0" y="0" fill="#e6edf3" fill-rule="nonzero"/></g><g transform="matrix(1 0 0 -1 51.667922222 17.784)"><use xlink:href="#g6B3DB0E0ADE6D994825CC39624067234" x="0" y="0" fill="#e6edf3" fill-rule="nonzero"/></g><g transform="matrix(1 0 0 -1 44.878022222 35.503)"><use xlink:href="#g53251C539233983FE9FC826CA7FBAC4A" x="0" y="0" fill="#e6edf3" fill-rule="nonzero"/></g><g transform="matrix(1 0 0 -1 55.239022222 31.746)"><use xlink:href="#g528A59098A0D3781770F15CFBE29D3CD" x="0" y="0" fill="#e6edf3" fill-rule="nonzero"/></g><path fill="none" stroke="#e6edf3" stroke-width="0.624" stroke-linecap="butt" stroke-linejoin="miter" stroke-miterlimit="4" transform="translate(44.878022222 23.335)" d="M 0 0h 20.0798"/><g transform="matrix(1 0 0 -1 68.424488889 26.585)"><use xlink:href="#g84C597EFF9988624DBABE6CF17069247" x="0" y="0" fill="#e6edf3" fill-rule="nonzero"/></g><g transform="matrix(1 0 0 -1 83.578155556 26.585)"><use xlink:href="#gC459FA02C2FADFFF3A75E6497B9B6AC7" x="0" y="0" fill="#e6edf3" fill-rule="nonzero"/></g><g transform="matrix(1 0 0 -1 96.625822222 26.585)"><use xlink:href="#g84C597EFF9988624DBABE6CF17069247" x="0" y="0" fill="#e6edf3" fill-rule="nonzero"/></g><g transform="matrix(1 0 0 -1 111.779488889 26.585)"><use xlink:href="#g6BCCDCE0D843C0F823A4CE121D6D1649" x="0" y="0" fill="#e6edf3" fill-rule="nonzero"/></g><g transform="matrix(1 0 0 -1 118.851488889 21.866)"><use xlink:href="#g5EE8C4A84F8A12CB3DE79793924C3207" x="0" y="0" fill="#e6edf3" fill-rule="nonzero"/></g><g transform="matrix(1 0 0 -1 124.757388889 26.585)"><use xlink:href="#gDA6300BE1A83285F3E02339F05C53FB2" x="0" y="0" fill="#e6edf3" fill-rule="nonzero"/></g><g transform="matrix(1 0 0 -1 130.555388889 29.796)"><use xlink:href="#g5A380D51C1693CF037954AEF50086985" x="0" y="0" fill="#e6edf3" fill-rule="nonzero"/></g><g transform="matrix(1 0 0 -1 136.461288889 26.585)"><use xlink:href="#gC459FA02C2FADFFF3A75E6497B9B6AC7" x="0" y="0" fill="#e6edf3" fill-rule="nonzero"/></g><g transform="matrix(1 0 0 -1 147.342288889 26.585)"><use xlink:href="#g6BCCDCE0D843C0F823A4CE121D6D1649" x="0" y="0" fill="#e6edf3" fill-rule="nonzero"/></g><g transform="matrix(1 0 0 -1 154.414288889 21.866)"><use xlink:href="#g5EE8C4A84F8A12CB3DE79793924C3207" x="0" y="0" fill="#e6edf3" fill-rule="nonzero"/></g><g transform="matrix(1 0 0 -1 160.320188889 26.585)"><use xlink:href="#gDA6300BE1A83285F3E02339F05C53FB2" x="0" y="0" fill="#e6edf3" fill-rule="nonzero"/></g><g transform="matrix(1 0 0 -1 166.118188889 29.796)"><use xlink:href="#g528A59098A0D3781770F15CFBE29D3CD" x="0" y="0" fill="#e6edf3" fill-rule="nonzero"/></g><g transform="matrix(1 0 0 -1 178.003655556 26.585)"><use xlink:href="#g7413A85D70934E3816A3D1EE8499A939" x="0" y="0" fill="#e6edf3" fill-rule="nonzero"/><use xlink:href="#gFCB94C35A6936272B966DC9E5D65B3F4" x="5.772" y="0" fill="#e6edf3" fill-rule="nonzero"/><use xlink:href="#g35A7BA3FBB03354D7A4358A466CD34D8" x="12.636" y="0" fill="#e6edf3" fill-rule="nonzero"/></g><g transform="matrix(1 0 0 -1 197.867655556 26.585)"><use xlink:href="#g594523384BCA97CC035210B36637FD16" x="0" y="0" fill="#e6edf3" fill-rule="nonzero"/></g><g transform="matrix(1 0 0 -1 209.242655556 26.585)"><use xlink:href="#g9B543B57F718853EF8F95EF155B6CF69" x="0" y="0" fill="#e6edf3" fill-rule="nonzero"/></g><g transform="matrix(1 0 0 -1 219.356655556 26.585)"><use xlink:href="#g9CDF097AB5923513691DBE4A30B628B5" x="0" y="0" fill="#e6edf3" fill-rule="nonzero"/></g><g transform="matrix(1 0 0 -1 229.349322222 26.585)"><use xlink:href="#g4511C92E9BF59263ADBD37DA8A7526D7" x="0" y="0" fill="#e6edf3" fill-rule="nonzero"/></g><g transform="matrix(1 0 0 -1 231.205072222 40.6393)"><use xlink:href="#g4CE686876A17D681BBB59265FB1A41AE" x="0" y="0" fill="#e6edf3" fill-rule="nonzero"/></g><g transform="matrix(1 0 0 -1 234.881472222 40.6393)"><use xlink:href="#gE229ECA86323523572CC6E6A54FD70EC" x="0" y="0" fill="#e6edf3" fill-rule="nonzero"/></g><g transform="matrix(1 0 0 -1 241.961272222 40.6393)"><use xlink:href="#g98601464C894CB168BCFB296435320FA" x="0" y="0" fill="#e6edf3" fill-rule="nonzero"/></g><g transform="matrix(1 0 0 -1 250.287988889 26.585)"><use xlink:href="#gB24A0226C4D0F4163B274EF0E882A9CE" x="0" y="0" fill="#e6edf3" fill-rule="nonzero"/></g><g transform="matrix(1 0 0 -1 257.723988889 26.585)"><use xlink:href="#g7AE04F15A7C3AC417269385A78E6B62E" x="0" y="0" fill="#e6edf3" fill-rule="nonzero"/></g><g transform="matrix(1 0 0 -1 263.677988889 26.585)"><use xlink:href="#gF5FB9F3934311C9D089606536CC9B01A" x="0" y="0" fill="#e6edf3" fill-rule="nonzero"/></g><g transform="matrix(1 0 0 -1 269.540988889 29.796)"><use xlink:href="#g4CE686876A17D681BBB59265FB1A41AE" x="0" y="0" fill="#e6edf3" fill-rule="nonzero"/></g><g transform="matrix(1 0 0 -1 273.217388889 29.796)"><use xlink:href="#g98601464C894CB168BCFB296435320FA" x="0" y="0" fill="#e6edf3" fill-rule="nonzero"/></g><g transform="matrix(1 0 0 -1 278.249688889 26.585)"><use xlink:href="#g51B3DB8755C43AB79D2F02785B5613F6" x="0" y="0" fill="#e6edf3" fill-rule="nonzero"/></g><g transform="matrix(1 0 0 -1 284.203688889 26.585)"><use xlink:href="#g541875353FA5EEDAD7F236F2BC89466F" x="0" y="0" fill="#e6edf3" fill-rule="nonzero"/></g><defs><symbol id="gFCB8EE904C83D15DBBDA0F3192DB537A" overflow="visible"><path d="M 0 0m 3.978 -0.312c 0.377 0 0.78 0.065 1.209 0.182c -0.039 -0.494 -0.052 -0.806 -0.052 -0.923c 0 -0.975 0.377 -1.469 1.118 -1.469c 0.793 0 1.404 0.637 1.703 1.222c 0.325 0.676 0.494 1.118 0.494 1.326c 0 0.117 -0.065 0.182 -0.195 0.182c -0.091 0 -0.156 -0.052 -0.195 -0.169c -0.195 -0.598 -0.728 -1.209 -1.456 -1.209c -0.663 0 -0.754 0.533 -0.858 1.248c 1.092 0.429 2.015 1.17 2.756 2.236c 0.741 1.066 1.118 2.171 1.118 3.328c 0 1.027 -0.299 1.859 -0.91 2.522c -0.611 0.663 -1.417 1.001 -2.418 1.001c -0.689 0 -1.378 -0.169 -2.067 -0.52c -1.404 -0.689 -2.431 -1.781 -3.094 -3.25c -0.325 -0.741 -0.494 -1.469 -0.494 -2.21c 0 -2.041 1.326 -3.497 3.341 -3.497Z m 4.407 6.37c 0 -0.793 -0.195 -1.703 -0.585 -2.756c -0.455 -1.209 -1.157 -2.106 -2.132 -2.678c -0.052 0.286 -0.13 0.546 -0.234 0.78c -0.169 0.39 -0.481 0.585 -0.936 0.585c -0.715 0 -1.365 -0.65 -1.365 -1.365c 0 -0.117 0.013 -0.234 0.039 -0.325c -0.871 0.403 -1.3 1.222 -1.3 2.47c 0 0.546 0.104 1.209 0.325 1.989c 0.455 1.651 1.274 2.821 2.457 3.51c 0.559 0.312 1.079 0.468 1.56 0.468c 1.43 0 2.171 -1.183 2.171 -2.678Z m -3.887 -4.459c 0.481 0 0.728 -0.351 0.728 -1.04c 0 -0.117 -0.039 -0.182 -0.117 -0.208c -0.364 -0.156 -0.715 -0.234 -1.053 -0.234c -0.364 0 -0.546 0.169 -0.546 0.507c 0 0.494 0.494 0.975 0.988 0.975Z "/></symbol><symbol id="g528A59098A0D3781770F15CFBE29D3CD" overflow="visible"><path d="M 0 0m 7.6258 6.1789c -0.182 0 -0.7735 0.0364 -0.9555 0.0364c -0.1456 0 -0.2184 -0.0819 -0.2184 -0.2366c 0 -0.1001 0.0819 -0.1547 0.2366 -0.1547c 0.3549 -0.0091 0.5369 -0.1183 0.5369 -0.3367c 0 -0.0455 -0.0091 -0.1092 -0.0273 -0.2093l -0.9646 -3.822l -2.2477 4.5864c -0.0728 0.1547 -0.1183 0.1729 -0.3367 0.1729h -1.2376c -0.2093 0 -0.3185 -0.0273 -0.3185 -0.2366c 0 -0.1001 0.1092 -0.1547 0.3276 -0.1547c 0.2184 0 0.3913 -0.0182 0.5369 -0.0455l -1.2012 -4.7684c -0.1183 -0.455 -0.3549 -0.5915 -0.9009 -0.6188c -0.1547 0 -0.2275 -0.0728 -0.2275 -0.2184c 0 -0.1183 0.0546 -0.1729 0.1729 -0.1729c 0.1729 0 0.7644 0.0364 0.9373 0.0364c 0.182 0 0.7735 -0.0364 0.9555 -0.0364c 0.1456 0 0.2184 0.0728 0.2184 0.2275c 0 0.1092 -0.0819 0.1638 -0.2457 0.1638c -0.3549 0.0091 -0.5278 0.0637 -0.5278 0.3458c 0 0.0455 0.0091 0.1183 0.0273 0.2184l 1.1375 4.5045l 2.5844 -5.2871c 0.0637 -0.1183 0.1365 -0.1729 0.2366 -0.1729c 0.1183 0 0.2184 0.0728 0.2184 0.2184l 1.2558 4.9686c 0.1183 0.4641 0.3458 0.6279 0.9191 0.637c 0.1456 0 0.2184 0.0728 0.2184 0.2275c 0 0.1092 -0.0546 0.1638 -0.1729 0.1638c -0.1729 0 -0.7644 -0.0364 -0.9373 -0.0364Z "/></symbol><symbol id="g13AFF74D87C474CFAF661EEAD0458F8B" overflow="visible"><path d="M 0 0m 9.074 4.771h -8.034c -0.208 0 -0.312 -0.104 -0.312 -0.299c 0 -0.195 0.104 -0.299 0.312 -0.299h 8.034c 0.208 0 0.312 0.104 0.312 0.299c 0 0.156 -0.143 0.299 -0.312 0.299Z m 0 -2.444h -8.034c -0.208 0 -0.312 -0.104 -0.312 -0.299c 0 -0.195 0.104 -0.299 0.312 -0.299h 8.034c 0.208 0 0.312 0.104 0.312 0.299c 0 0.169 -0.143 0.299 -0.312 0.299Z "/></symbol><symbol id="g6B3DB0E0ADE6D994825CC39624067234" overflow="visible"><path d="M 0 0m 3.497 8.658c -0.533 -0.546 -1.313 -0.819 -2.34 -0.819v -0.507c 0.676 0 1.235 0.104 1.664 0.312v -6.578c 0 -0.234 -0.052 -0.39 -0.169 -0.455c -0.117 -0.065 -0.442 -0.104 -0.962 -0.104h -0.455v -0.507c 0.325 0.026 1.027 0.039 2.106 0.039c 1.079 0 1.781 -0.013 2.106 -0.039v 0.507h -0.455c -0.533 0 -0.858 0.039 -0.962 0.104c -0.104 0.065 -0.169 0.221 -0.169 0.455v 7.202c 0 0.312 -0.026 0.39 -0.364 0.39Z "/></symbol><symbol id="g53251C539233983FE9FC826CA7FBAC4A" overflow="visible"><path d="M 0 0m 8.723 8.84c -0.247 0 -1.027 0.039 -1.274 0.039c -0.195 0 -0.299 -0.104 -0.299 -0.299c 0 -0.13 0.091 -0.195 0.26 -0.208c 0.364 -0.013 0.546 -0.143 0.546 -0.364c 0 -0.117 -0.065 -0.273 -0.182 -0.468l -3.874 -6.149l -0.858 6.656c 0 0.221 0.273 0.325 0.832 0.325c 0.26 0 0.377 0.091 0.377 0.312c 0 0.13 -0.078 0.195 -0.234 0.195c -0.286 0 -1.3 -0.039 -1.586 -0.039c -0.26 0 -1.144 0.039 -1.404 0.039c -0.195 0 -0.299 -0.104 -0.299 -0.299c 0 -0.143 0.13 -0.208 0.377 -0.208c 0.221 0 0.377 -0.026 0.481 -0.052c 0.208 -0.065 0.195 -0.091 0.234 -0.338l 1.014 -7.93c 0.039 -0.221 0.143 -0.338 0.312 -0.338c 0.169 0 0.299 0.091 0.403 0.26l 4.628 7.358c 0.299 0.468 0.585 0.767 0.871 0.884c 0.195 0.091 0.442 0.143 0.728 0.156c 0.143 0.013 0.208 0.104 0.221 0.299c 0.013 0.143 -0.065 0.208 -0.221 0.208c -0.195 0 -0.858 -0.039 -1.053 -0.039Z "/></symbol><symbol id="g84C597EFF9988624DBABE6CF17069247" overflow="visible"><path d="M 0 0m 10.803 17.693c -0.611 0 -1.157 -0.559 -1.664 -1.677c -0.247 -0.533 -0.507 -1.339 -0.793 -2.418c -1.261 -4.654 -2.21 -9.191 -3.211 -15.119c -0.455 -2.743 -0.832 -4.732 -1.131 -5.941c -0.533 -2.223 -1.144 -3.341 -1.82 -3.341c -0.247 0 -0.468 0.065 -0.663 0.208c 0.377 0.065 0.559 0.286 0.559 0.676c 0 0.377 -0.286 0.676 -0.663 0.676c -0.455 0 -0.689 -0.234 -0.689 -0.689c 0 -0.754 0.741 -1.261 1.482 -1.261c 0.949 0 1.729 0.754 2.34 2.249c 0.325 0.793 0.767 2.327 1.313 4.576c 0.949 3.861 1.794 7.995 2.535 12.389c 0.52 3.081 0.988 5.421 1.391 7.02c 0.377 1.508 0.728 2.262 1.04 2.262c 0.26 0 0.481 -0.065 0.65 -0.208c -0.377 -0.065 -0.572 -0.286 -0.572 -0.676c 0 -0.377 0.286 -0.676 0.663 -0.676c 0.455 0 0.689 0.234 0.689 0.689c 0 0.715 -0.702 1.261 -1.456 1.261Z "/></symbol><symbol id="gC459FA02C2FADFFF3A75E6497B9B6AC7" overflow="visible"><path d="M 0 0m 9.763 0.689c 0 0.39 -0.338 0.689 -0.728 0.689c -0.403 0 -0.741 -0.299 -0.741 -0.689c 0 -0.39 0.338 -0.689 0.741 -0.689c 0.39 0 0.728 0.299 0.728 0.689Z m -3.588 0c 0 0.39 -0.338 0.689 -0.728 0.689c -0.403 0 -0.728 -0.299 -0.728 -0.689c 0 -0.39 0.325 -0.689 0.728 -0.689c 0.39 0 0.728 0.299 0.728 0.689Z m -3.575 0c 0 0.39 -0.338 0.689 -0.741 0.689c -0.39 0 -0.728 -0.299 -0.728 -0.689c 0 -0.39 0.338 -0.689 0.728 -0.689c 0.39 0 0.741 0.299 0.741 0.689Z "/></symbol><symbol id="g6BCCDCE0D843C0F823A4CE121D6D1649" overflow="visible"><path d="M 0 0m 5.577 8.216l -0.767 -3.159c -0.273 0.481 -0.65 0.728 -1.157 0.728c -0.845 0 -1.586 -0.429 -2.236 -1.3c -0.598 -0.806 -0.897 -1.651 -0.897 -2.522c 0 -1.144 0.663 -2.106 1.755 -2.106c 0.559 0 1.105 0.299 1.625 0.91c 0.143 -0.494 0.585 -0.91 1.196 -0.91c 0.897 0 1.183 1.066 1.378 2.028c 0 0.117 -0.065 0.182 -0.195 0.182c -0.117 0 -0.195 -0.091 -0.234 -0.273c -0.26 -1.027 -0.572 -1.547 -0.923 -1.547c -0.221 0 -0.338 0.182 -0.338 0.533c 0 0.195 0.026 0.403 0.078 0.611l 1.846 7.436v 0.052c -0.039 0.091 -0.117 0.143 -0.221 0.143c -0.299 0 -0.845 -0.052 -1.625 -0.143c -0.143 -0.013 -0.221 -0.117 -0.221 -0.299c 0 -0.13 0.117 -0.195 0.351 -0.195c 0.247 0 0.585 0.013 0.585 -0.169Z m -1.144 -3.328c 0.13 -0.273 0.195 -0.455 0.195 -0.572c -0.013 -0.052 -0.026 -0.117 -0.039 -0.208l -0.637 -2.522c -0.039 -0.143 -0.13 -0.299 -0.247 -0.455c -0.481 -0.585 -0.949 -0.884 -1.404 -0.884c -0.507 0 -0.767 0.39 -0.767 1.157c 0 0.312 0.078 0.78 0.234 1.404c 0.273 1.105 0.663 1.859 1.144 2.262c 0.26 0.221 0.507 0.325 0.754 0.325c 0.351 0 0.611 -0.169 0.767 -0.507Z "/></symbol><symbol id="g5EE8C4A84F8A12CB3DE79793924C3207" overflow="visible"><path d="M 0 0m 3.2123 3.2123c 0.6097 0.2457 1.1921 0.7826 1.1921 1.5561c 0 0.4095 -0.2184 0.7371 -0.6461 0.9737c -0.3549 0.2002 -0.7553 0.3003 -1.2012 0.3003c -0.4459 0 -0.8372 -0.091 -1.1739 -0.2821c -0.4095 -0.2275 -0.6188 -0.546 -0.6188 -0.9555c 0 -0.3458 0.1729 -0.5187 0.5096 -0.5187c 0.2821 0 0.4914 0.2184 0.4914 0.5005c 0 0.2821 -0.1456 0.4459 -0.4277 0.4914c 0.2639 0.2821 0.6552 0.4277 1.1921 0.4277c 0.5915 0 0.9282 -0.3549 0.9282 -0.9373c 0 -0.4277 -0.1183 -0.7735 -0.3458 -1.0465c -0.2548 -0.3003 -0.4368 -0.3458 -0.9646 -0.3822c -0.2457 -0.0182 -0.4095 0.0091 -0.4095 -0.1729c 0 -0.1092 0.091 -0.1638 0.2639 -0.1638h 0.4823c 0.7826 0 1.1648 -0.5915 1.1648 -1.4105c 0 -0.8008 -0.364 -1.4105 -1.1284 -1.4105c -0.6643 0 -1.1466 0.182 -1.4469 0.5551c 0.3185 0.0364 0.4823 0.2184 0.4823 0.5369c 0 0.3003 -0.2275 0.5278 -0.5278 0.5278c -0.3549 0 -0.5369 -0.182 -0.5369 -0.5551c 0 -0.4641 0.2366 -0.8372 0.7007 -1.1011c 0.3913 -0.2184 0.8372 -0.3276 1.3468 -0.3276c 0.5551 0 1.0374 0.1547 1.456 0.4641c 0.455 0.3367 0.6825 0.7735 0.6825 1.3104c 0 0.8463 -0.7371 1.4287 -1.4651 1.6198Z "/></symbol><symbol id="gDA6300BE1A83285F3E02339F05C53FB2" overflow="visible"><path d="M 0 0m 4.836 4.901c -0.26 0.559 -0.663 0.845 -1.196 0.845c -0.845 0 -1.586 -0.429 -2.223 -1.3c -0.598 -0.806 -0.897 -1.638 -0.897 -2.509c 0 -1.131 0.65 -2.106 1.729 -2.106c 0.468 0 0.936 0.221 1.417 0.663l -0.533 -2.132c -0.039 -0.195 -0.156 -0.312 -0.338 -0.351c -0.065 -0.013 -0.234 -0.026 -0.533 -0.026c -0.078 -0.013 -0.13 -0.013 -0.156 -0.013c -0.117 -0.013 -0.182 -0.117 -0.182 -0.299v -0.052c 0.039 -0.091 0.117 -0.143 0.221 -0.143c 0.247 0 1.027 0.039 1.274 0.039c 0.247 0 1.066 -0.039 1.313 -0.039c 0.182 0 0.273 0.104 0.273 0.312c 0 0.13 -0.13 0.195 -0.377 0.195c -0.234 0 -0.559 -0.013 -0.559 0.143c 0 0.052 0.013 0.143 0.052 0.273l 1.755 7.15c 0 0.117 -0.065 0.182 -0.182 0.182c -0.234 0 -0.728 -0.65 -0.858 -0.832Z m -0.416 -0.052c 0.117 -0.273 0.182 -0.455 0.182 -0.572c 0 -0.013 -0.013 -0.091 -0.039 -0.208l -0.312 -1.261c -0.247 -0.936 -0.364 -1.417 -0.377 -1.443c -0.247 -0.455 -0.962 -1.157 -1.586 -1.157c -0.507 0 -0.767 0.39 -0.767 1.157c 0 0.598 0.403 2.054 0.585 2.535c 0.247 0.611 0.819 1.456 1.534 1.456c 0.351 0 0.611 -0.169 0.78 -0.507Z "/></symbol><symbol id="g5A380D51C1693CF037954AEF50086985" overflow="visible"><path d="M 0 0m 2.7573 6.0424c -0.3913 -0.3822 -0.9737 -0.5733 -1.7654 -0.5733v -0.4004c 0.5369 0 0.9646 0.0819 1.2922 0.2366v -4.5318c 0 -0.1183 -0.0091 -0.1911 -0.0364 -0.2275c -0.0455 -0.1001 -0.3185 -0.1547 -0.819 -0.1547h -0.3731v -0.3913l 1.6198 0.0364l 1.6289 -0.0364v 0.3913h -0.3731c -0.5005 0 -0.7735 0.0546 -0.8281 0.1547c -0.0182 0.0364 -0.0273 0.1092 -0.0273 0.2275v 4.9777c 0 0.2457 -0.0364 0.2912 -0.3185 0.2912Z "/></symbol><symbol id="g7413A85D70934E3816A3D1EE8499A939" overflow="visible"><path d="M 0 0m 5.395 3.263c 0 1.495 -0.871 2.561 -2.327 2.561c -0.78 0 -1.43 -0.299 -1.963 -0.91c -0.494 -0.572 -0.741 -1.261 -0.741 -2.054c 0 -0.819 0.273 -1.508 0.819 -2.106c 0.546 -0.598 1.222 -0.897 2.028 -0.897c 0.741 0 1.313 0.26 1.703 0.767c 0.325 0.429 0.481 0.741 0.481 0.949c 0 0.13 -0.078 0.195 -0.221 0.195c -0.104 0 -0.169 -0.065 -0.208 -0.208c -0.286 -0.858 -0.845 -1.287 -1.677 -1.287c -0.585 0 -1.04 0.273 -1.391 0.832c -0.247 0.403 -0.364 1.014 -0.377 1.846h 3.51c 0.286 0 0.364 0.026 0.364 0.312Z m -1.157 1.274c 0.143 -0.429 0.208 -0.845 0.208 -1.222h -2.912c 0.039 0.858 0.26 1.443 0.65 1.742c 0.325 0.26 0.611 0.39 0.884 0.39c 0.585 0 0.975 -0.299 1.17 -0.91Z "/></symbol><symbol id="gFCB94C35A6936272B966DC9E5D65B3F4" overflow="visible"><path d="M 0 0m 5.434 0.039c 0.299 0.013 0.728 0 1.274 -0.039v 0.494c -0.689 0 -0.949 0.013 -1.222 0.377l -1.69 2.184c 0.559 0.689 0.936 1.157 1.144 1.404c 0.364 0.416 0.871 0.637 1.534 0.65v 0.494c -0.364 -0.026 -0.728 -0.039 -1.092 -0.039c -0.481 0 -0.91 0.013 -1.287 0.039v -0.494c 0.247 -0.026 0.377 -0.143 0.377 -0.351c 0 -0.117 -0.065 -0.26 -0.182 -0.416l -0.754 -0.936l -0.962 1.235c -0.065 0.091 -0.104 0.156 -0.104 0.195c 0 0.169 0.156 0.26 0.455 0.273v 0.494l -1.443 -0.039c -0.338 -0.013 -0.754 0 -1.261 0.039v -0.494c 0.468 0 0.767 -0.039 0.897 -0.104c 0.13 -0.065 0.338 -0.286 0.624 -0.663l 1.235 -1.612c -0.637 -0.819 -1.027 -1.313 -1.17 -1.482c -0.416 -0.507 -0.962 -0.754 -1.651 -0.754v -0.494c 0.481 0.039 0.845 0.052 1.118 0.039l 1.261 -0.039v 0.494c -0.247 0.039 -0.364 0.156 -0.364 0.351c 0 0.052 0.013 0.117 0.039 0.182c 0.078 0.169 0.429 0.611 1.053 1.352l 0.936 -1.222c 0.143 -0.182 0.221 -0.312 0.26 -0.39c 0 -0.169 -0.156 -0.26 -0.468 -0.273v -0.494Z "/></symbol><symbol id="g35A7BA3FBB03354D7A4358A466CD34D8" overflow="visible"><path d="M 0 0m 3.874 -0.169c 0.806 0 1.495 0.286 2.054 0.871c 0.559 0.585 0.845 1.274 0.845 2.093c 0 0.793 -0.26 1.469 -0.767 2.041c -0.533 0.611 -1.183 0.91 -1.963 0.91c -0.663 0 -1.235 -0.26 -1.729 -0.767v 0.767l -1.95 -0.143v -0.494c 0.481 0 0.767 -0.026 0.858 -0.091c 0.091 -0.065 0.143 -0.234 0.143 -0.507v -6.006c 0 -0.247 -0.052 -0.403 -0.143 -0.455c -0.091 -0.052 -0.377 -0.065 -0.858 -0.065v -0.507l 1.482 0.039l 1.495 -0.039v 0.507c -0.481 0 -0.754 0.013 -0.845 0.065c -0.091 0.052 -0.143 0.208 -0.143 0.455v 2.067c 0.286 -0.403 0.845 -0.741 1.521 -0.741Z m 0.078 5.486c 0.533 0 0.949 -0.299 1.274 -0.897c 0.247 -0.507 0.377 -1.04 0.377 -1.625c 0 -0.611 -0.143 -1.17 -0.429 -1.677c -0.338 -0.611 -0.793 -0.91 -1.352 -0.91c -0.546 0 -0.975 0.26 -1.3 0.767c -0.117 0.169 -0.169 0.338 -0.169 0.507v 2.847c 0.377 0.663 0.91 0.988 1.599 0.988Z "/></symbol><symbol id="g594523384BCA97CC035210B36637FD16" overflow="visible"><path d="M 0 0m 10.374 -16.185c 0.221 0 0.325 0.104 0.325 0.325c 0 0.104 -0.039 0.195 -0.13 0.26c -1.053 0.793 -2.002 2.041 -2.873 3.77c -1.547 3.081 -2.691 7.41 -2.691 11.843v 6.474c 0 2.015 0.234 4.043 0.689 6.084c 0.806 3.64 2.496 7.735 4.875 9.529c 0.091 0.065 0.13 0.156 0.13 0.26c 0 0.221 -0.104 0.325 -0.325 0.325c -0.065 0 -0.13 -0.026 -0.182 -0.065c -1.131 -0.871 -2.21 -2.158 -3.224 -3.887c -1.794 -3.068 -3.367 -7.683 -3.367 -12.246v -6.474c 0 -4.29 1.443 -8.684 3.055 -11.7c 1.066 -1.963 2.249 -3.445 3.536 -4.433c 0.052 -0.039 0.117 -0.065 0.182 -0.065Z "/></symbol><symbol id="g9B543B57F718853EF8F95EF155B6CF69" overflow="visible"><path d="M 0 0m 9.074 3.51h -8.034c -0.208 0 -0.312 -0.091 -0.312 -0.26c 0 -0.169 0.104 -0.26 0.312 -0.26h 8.034c 0.208 0 0.312 0.091 0.312 0.26c 0 0.156 -0.156 0.26 -0.312 0.26Z "/></symbol><symbol id="g9CDF097AB5923513691DBE4A30B628B5" overflow="visible"><path d="M 0 0m 5.551 9.178c -1.677 0 -2.795 -1.989 -3.185 -3.562l -1.976 -7.93c 0 -0.143 0.065 -0.208 0.182 -0.208h 0.065c 0.091 0 0.156 0.039 0.169 0.13l 0.832 3.354c 0.286 -0.754 0.845 -1.131 1.677 -1.131c 0.806 0 1.547 0.247 2.21 0.754c 0.923 0.689 1.391 1.586 1.391 2.665c 0 0.871 -0.299 1.521 -0.897 1.95c 0.741 0.455 1.209 1.04 1.378 1.742c 0.039 0.169 0.065 0.338 0.065 0.481c 0 1.079 -0.871 1.755 -1.911 1.755Z m -1.573 -3.991c 0.065 0.039 0.299 0.052 0.676 0.052c 0.091 0 0.169 -0.013 0.26 -0.026c -0.13 -0.026 -0.247 -0.039 -0.364 -0.039h -0.234c -0.143 0 -0.26 0 -0.338 0.013Z m -2.054 -3.393c 0 0.208 0.026 0.416 0.078 0.624l 0.767 3.12c 0.351 1.404 1.287 3.237 2.769 3.237c 0.741 0 1.105 -0.377 1.105 -1.118c 0 -0.182 -0.026 -0.39 -0.091 -0.637c -0.182 -0.728 -0.52 -1.248 -1.027 -1.547c -0.286 0.104 -0.572 0.156 -0.858 0.156c -0.572 0 -1.157 -0.013 -1.157 -0.481c 0 -0.091 0.039 -0.169 0.104 -0.221c 0.117 -0.091 0.416 -0.143 0.923 -0.143c 0.325 0 0.65 0.052 0.949 0.156c 0.351 -0.286 0.533 -0.728 0.533 -1.326c 0 -0.325 -0.052 -0.702 -0.156 -1.105c -0.299 -1.17 -1.183 -2.288 -2.535 -2.288c -0.884 0 -1.404 0.663 -1.404 1.573Z "/></symbol><symbol id="g4511C92E9BF59263ADBD37DA8A7526D7" overflow="visible"><path d="M 0 0m 16.445 -5.85l 1.612 4.238h -0.442c -0.247 -0.65 -0.663 -1.196 -1.261 -1.638c -1.469 -1.092 -3.354 -1.378 -6.071 -1.378h -7.683l 6.5 7.644c 0.091 0.091 0.13 0.182 0.13 0.247l -6.058 8.359h 6.981c 2.457 0 4.498 -0.312 5.837 -1.17c 0.78 -0.494 1.326 -1.105 1.638 -1.833h 0.429l -1.612 3.731h -15.301c -0.234 0 -0.364 -0.039 -0.403 -0.117c -0.013 -0.039 -0.013 -0.195 -0.013 -0.468l 6.825 -9.334l -6.669 -7.826c -0.091 -0.104 -0.143 -0.195 -0.143 -0.26c 0 -0.13 0.13 -0.195 0.403 -0.195Z "/></symbol><symbol id="g4CE686876A17D681BBB59265FB1A41AE" overflow="visible"><path d="M 0 0m 2.9575 5.6511c 0 0.2184 -0.1729 0.3822 -0.3913 0.3822c -0.273 0 -0.5369 -0.2548 -0.5369 -0.5278c 0 -0.2184 0.1729 -0.3822 0.3913 -0.3822c 0.273 0 0.5369 0.2548 0.5369 0.5278Z m -1.2103 -1.6107c -0.4277 0 -0.7644 -0.2184 -1.0101 -0.6552c -0.2093 -0.364 -0.3094 -0.6188 -0.3094 -0.7644c 0 -0.1001 0.0637 -0.1456 0.182 -0.1456c 0.1001 0 0.1638 0.0546 0.2002 0.1638c 0.2093 0.7189 0.5096 1.0738 0.91 1.0738c 0.1274 0 0.1911 -0.091 0.1911 -0.2821c 0 -0.1183 -0.091 -0.4095 -0.273 -0.8827l -0.5642 -1.4469c -0.0546 -0.1456 -0.0819 -0.273 -0.0819 -0.3913c 0 -0.4732 0.4095 -0.8008 0.8827 -0.8008c 0.4277 0 0.7553 0.2184 1.001 0.6643c 0.2093 0.364 0.3094 0.6097 0.3094 0.7462c 0 0.1001 -0.0637 0.1547 -0.182 0.1547c -0.0546 -0.0091 -0.1183 -0.0546 -0.182 -0.1456c -0.0091 -0.0091 -0.0182 -0.0273 -0.0182 -0.0364c -0.2093 -0.7007 -0.5096 -1.0556 -0.9009 -1.0556c -0.1274 0 -0.1911 0.091 -0.1911 0.273c 0 0.1365 0.0455 0.3276 0.1456 0.5642l 0.7189 1.8655c 0.0364 0.1001 0.0546 0.2002 0.0546 0.3003c 0 0.4732 -0.4095 0.8008 -0.8827 0.8008Z "/></symbol><symbol id="gE229ECA86323523572CC6E6A54FD70EC" overflow="visible"><path d="M 0 0m 6.0606 -0.4095c 0.1547 -0.0637 0.3185 0.0546 0.3185 0.2002c 0 0.091 -0.0455 0.1547 -0.1274 0.1911l -4.8594 2.2932l 4.8594 2.2932c 0.0819 0.0364 0.1274 0.1001 0.1274 0.182c 0 0.1547 -0.0728 0.2275 -0.2184 0.2275c -0.0364 0 -0.0728 -0.0091 -0.1001 -0.0182l -5.2234 -2.4752c -0.091 -0.0455 -0.1365 -0.1092 -0.1365 -0.2093c 0 -0.1001 0.0455 -0.1638 0.1365 -0.2093Z "/></symbol><symbol id="g98601464C894CB168BCFB296435320FA" overflow="visible"><path d="M 0 0m 3.9949 5.6511c 0 0.2184 -0.1729 0.3822 -0.3913 0.3822c -0.2639 0 -0.5369 -0.2639 -0.5369 -0.5278c 0 -0.2184 0.1729 -0.3822 0.3913 -0.3822c 0.273 0 0.5369 0.2548 0.5369 0.5278Z m -1.3195 -1.6198c -0.5096 0 -0.9555 -0.3367 -1.1921 -0.6552c -0.273 -0.3913 -0.4095 -0.6461 -0.4095 -0.7644c 0 -0.1001 0.0637 -0.1456 0.182 -0.1456c 0.091 0 0.1638 0.0637 0.2184 0.182c 0.1001 0.2184 0.2184 0.4095 0.3549 0.5824c 0.2639 0.3185 0.5369 0.4732 0.819 0.4732c 0.1729 0 0.2639 -0.1365 0.2639 -0.4004c 0 -0.1092 -0.0091 -0.2002 -0.0273 -0.2639l -0.8554 -3.4489c -0.1274 -0.5187 -0.5369 -1.1193 -1.1193 -1.1193c -0.0819 0 -0.1547 0.0091 -0.2275 0.0273c 0.1638 0.1001 0.2457 0.2548 0.2457 0.4459c 0 0.2457 -0.1274 0.3731 -0.3822 0.3731c -0.3094 0 -0.546 -0.2639 -0.546 -0.5733c 0 -0.4186 0.455 -0.6006 0.9191 -0.6006c 0.2093 0 0.4368 0.0364 0.6734 0.1183c 0.5642 0.1911 1.0738 0.728 1.2194 1.3377l 0.8099 3.2214c 0.0273 0.1183 0.0455 0.2275 0.0455 0.3276c 0 0.5278 -0.4641 0.8827 -0.9919 0.8827Z "/></symbol><symbol id="gB24A0226C4D0F4163B274EF0E882A9CE" overflow="visible"><path d="M 0 0m 7.059 1.872c 0 0.117 -0.065 0.182 -0.208 0.182c -0.117 0 -0.182 -0.091 -0.221 -0.273c -0.065 -0.247 -0.13 -0.494 -0.221 -0.741c -0.169 -0.533 -0.403 -0.806 -0.689 -0.806c -0.234 0 -0.351 0.182 -0.351 0.546c 0 0.221 0.091 0.663 0.26 1.313l 0.351 1.378c 0.117 0.468 0.221 0.793 0.299 1.196l 0.078 0.351c 0.026 0.091 0.039 0.156 0.039 0.195c 0 0.26 -0.143 0.39 -0.429 0.39c -0.286 0 -0.468 -0.156 -0.546 -0.481l -0.962 -3.848c -0.013 -0.039 -0.065 -0.13 -0.169 -0.286c -0.208 -0.338 -0.715 -0.754 -1.235 -0.754c -0.494 0 -0.741 0.338 -0.741 1.001c 0 0.533 0.234 1.391 0.689 2.587c 0.143 0.39 0.221 0.663 0.221 0.819c 0 0.65 -0.455 1.105 -1.105 1.105c -0.585 0 -1.04 -0.325 -1.365 -0.975c -0.247 -0.507 -0.377 -0.858 -0.377 -1.04c 0 -0.117 0.065 -0.182 0.208 -0.182c 0.169 0 0.195 0.078 0.247 0.26c 0.299 1.04 0.715 1.56 1.248 1.56c 0.182 0 0.273 -0.13 0.273 -0.377c 0 -0.195 -0.078 -0.468 -0.221 -0.845c -0.494 -1.313 -0.741 -2.223 -0.741 -2.704c 0 -1.001 0.624 -1.586 1.625 -1.586c 0.559 0 1.066 0.26 1.495 0.793c 0.182 -0.533 0.572 -0.793 1.17 -0.793c 0.897 0 1.17 1.053 1.378 2.015Z "/></symbol><symbol id="g7AE04F15A7C3AC417269385A78E6B62E" overflow="visible"><path d="M 0 0m 4.94 -4.511c 0.13 0 0.195 0.065 0.195 0.195c 0 0.065 -0.026 0.117 -0.065 0.156c -0.793 0.611 -1.43 1.612 -1.911 3.016c -0.416 1.209 -0.624 2.405 -0.624 3.562v 1.664c 0 1.157 0.208 2.353 0.624 3.562c 0.481 1.404 1.118 2.405 1.911 3.016c 0.039 0.039 0.065 0.091 0.065 0.156c 0 0.13 -0.065 0.195 -0.195 0.195c -0.026 0 -0.065 -0.013 -0.104 -0.039c -0.91 -0.689 -1.664 -1.729 -2.262 -3.12c -0.585 -1.313 -0.871 -2.574 -0.871 -3.77v -1.664c 0 -1.196 0.286 -2.457 0.871 -3.77c 0.598 -1.391 1.352 -2.431 2.262 -3.12c 0.039 -0.026 0.078 -0.039 0.104 -0.039Z "/></symbol><symbol id="gF5FB9F3934311C9D089606536CC9B01A" overflow="visible"><path d="M 0 0m 5.668 4.862c 0 0.546 -0.533 0.884 -1.105 0.884c -0.637 0 -1.17 -0.299 -1.612 -0.91c -0.13 0.507 -0.572 0.91 -1.183 0.91c -0.533 0 -0.923 -0.416 -1.196 -1.261c -0.13 -0.429 -0.195 -0.676 -0.195 -0.754c 0 -0.117 0.065 -0.182 0.208 -0.182c 0.065 0 0.104 0.013 0.143 0.039c 0.065 0.117 0.104 0.208 0.117 0.299c 0.234 0.988 0.533 1.482 0.884 1.482c 0.221 0 0.338 -0.182 0.338 -0.546c 0 -0.169 -0.065 -0.52 -0.195 -1.053l -0.741 -2.951c -0.039 -0.169 -0.117 -0.507 -0.117 -0.572c 0 -0.26 0.143 -0.39 0.416 -0.39c 0.26 0 0.429 0.13 0.52 0.39l 0.247 0.936c 0.143 0.559 0.234 0.923 0.273 1.092l 0.403 1.664c 0.026 0.104 0.13 0.273 0.299 0.52c 0.351 0.494 0.754 0.91 1.391 0.91c 0.156 0 0.286 -0.026 0.403 -0.091c -0.39 -0.117 -0.585 -0.364 -0.585 -0.715c 0 -0.338 0.182 -0.507 0.533 -0.507c 0.429 0 0.754 0.377 0.754 0.806Z "/></symbol><symbol id="g51B3DB8755C43AB79D2F02785B5613F6" overflow="visible"><path d="M 0 0m 1.118 -4.472c 0.91 0.689 1.664 1.729 2.262 3.12c 0.585 1.313 0.871 2.574 0.871 3.77v 1.664c 0 1.196 -0.286 2.457 -0.871 3.77c -0.598 1.391 -1.352 2.431 -2.262 3.12c -0.039 0.026 -0.078 0.039 -0.104 0.039c -0.13 0 -0.195 -0.065 -0.195 -0.195c 0 -0.065 0.026 -0.117 0.065 -0.156c 0.793 -0.611 1.43 -1.612 1.911 -3.016c 0.416 -1.209 0.624 -2.405 0.624 -3.562v -1.664c 0 -1.157 -0.208 -2.353 -0.624 -3.562c -0.481 -1.404 -1.118 -2.405 -1.911 -3.016c -0.039 -0.039 -0.065 -0.091 -0.065 -0.156c 0 -0.13 0.065 -0.195 0.195 -0.195c 0.026 0 0.065 0.013 0.104 0.039Z "/></symbol><symbol id="g541875353FA5EEDAD7F236F2BC89466F" overflow="visible"><path d="M 0 0m 7.774 0.013v 6.474c 0 4.29 -1.443 8.684 -3.055 11.7c -1.066 1.963 -2.249 3.445 -3.536 4.433c -0.052 0.039 -0.117 0.065 -0.182 0.065c -0.221 0 -0.325 -0.104 -0.325 -0.325c 0 -0.104 0.039 -0.195 0.13 -0.26c 1.053 -0.793 2.002 -2.041 2.873 -3.77c 1.547 -3.081 2.691 -7.41 2.691 -11.843v -6.474c 0 -2.015 -0.234 -4.043 -0.689 -6.084c -0.806 -3.64 -2.496 -7.735 -4.875 -9.529c -0.091 -0.065 -0.13 -0.156 -0.13 -0.26c 0 -0.221 0.104 -0.325 0.325 -0.325c 0.065 0 0.13 0.026 0.182 0.065c 1.131 0.871 2.21 2.158 3.224 3.887c 1.794 3.068 3.367 7.683 3.367 12.246Z "/></symbol></defs></svg>