<svg viewBox="0 0 276.4918 34.2966" width="276.4918pt" height="34.2966pt" xmlns="http://www.w3.org/2000/svg" xmlns:xlink="http://www.w3.org/1999/xlink" xmlns:h5="http://www.w3.org/1999/xhtml"><g transform="matrix(1 0 0 -1 6.5 16.2513)"><use xlink:href="#g4511C92E9BF59263ADBD37DA8A7526D7" x="0" y="0" fill="#e6edf3" fill-rule="nonzero"/></g><g transform="matrix(1 0 0 -1 14.0478 30.3056)"><use xlink:href="#g4CE686876A17D681BBB59265FB1A41AE" x="0" y="0" fill="#e6edf3" fill-rule="nonzero"/></g><g transform="matrix(1 0 0 -1 27.438666667 16.2513)"><use xlink:href="#gCF2B21B167A57F3B14E084B241FF3BA4" x="0" y="0" fill="#e6edf3" fill-rule="nonzero"/></g><g transform="matrix(1 0 0 -1 33.860666667 19.4623)"><use xlink:href="#g4CE686876A17D681BBB59265FB1A41AE" x="0" y="0" fill="#e6edf3" fill-rule="nonzero"/></g><g transform="matrix(1 0 0 -1 38.265066667 16.2513)"><use xlink:href="#gA32CAC846971E9468FADD933D647D41A" x="0" y="0" fill="#e6edf3" fill-rule="nonzero"/></g><g transform="matrix(1 0 0 -1 46.104066667 19.4623)"><use xlink:href="#g4CE686876A17D681BBB59265FB1A41AE" x="0" y="0" fill="#e6edf3" fill-rule="nonzero"/></g><g transform="matrix(1 0 0 -1 54.119577778 16.2513)"><use xlink:href="#g13AFF74D87C474CFAF661EEAD0458F8B" x="0" y="0" fill="#e6edf3" fill-rule="nonzero"/></g><g transform="matrix(1 0 0 -1 67.844688889 16.2513)"><use xlink:href="#gC189A0A36A47FB1CBF46D2ED82C939AF" x="0" y="0" fill="#e6edf3" fill-rule="nonzero"/></g><g transform="matrix(1 0 0 -1 100.344688889 16.2513)"><use xlink:href="#g40250C3693DC0DFD75B60E230F9F53E2" x="0" y="0" fill="#e6edf3" fill-rule="nonzero"/></g><g transform="matrix(1 0 0 -1 112.265688889 16.2513)"><use xlink:href="#g2D7122AD31FABF41BED931716B883F58" x="0" y="0" fill="#e6edf3" fill-rule="nonzero"/></g><g transform="matrix(1 0 0 -1 117.322688889 16.2513)"><use xlink:href="#g2D1FD5FA7721AD843D67732819992226" x="0" y="0" fill="#e6edf3" fill-rule="nonzero"/></g><g transform="matrix(1 0 0 -1 126.838688889 16.2513)"><use xlink:href="#g2F93E6EEEE2061842AA37F49EEA2F1A2" x="0" y="0" fill="#e6edf3" fill-rule="nonzero"/></g><g transform="matrix(1 0 0 -1 135.5068 16.2513)"><use xlink:href="#g13AFF74D87C474CFAF661EEAD0458F8B" x="0" y="0" fill="#e6edf3" fill-rule="nonzero"/></g><g transform="matrix(1 0 0 -1 149.231911111 16.2513)"><use xlink:href="#gEA405CFBD0D250DC6A801DC66741D6B4" x="0" y="0" fill="#e6edf3" fill-rule="nonzero"/></g><g transform="matrix(1 0 0 -1 155.700711111 30.3056)"><use xlink:href="#g4CE686876A17D681BBB59265FB1A41AE" x="0" y="0" fill="#e6edf3" fill-rule="nonzero"/></g><g transform="matrix(1 0 0 -1 168.012577778 16.2513)"><use xlink:href="#gA6F2C1D597D3EC5A6DEDB5B511CF0779" x="0" y="0" fill="#e6edf3" fill-rule="nonzero"/></g><g transform="matrix(1 0 0 -1 175.448577778 9.24495)"><use xlink:href="#gFA82768741BA29232B97B2E9D4DBACA7" x="0" y="0" fill="#e6edf3" fill-rule="nonzero"/></g><g transform="matrix(1 0 0 -1 180.662877778 11.49265)"><use xlink:href="#gC48B6A210272368C1F8FEAF9557822B5" x="0" y="0" fill="#e6edf3" fill-rule="nonzero"/></g><g transform="matrix(1 0 0 -1 175.448577778 19.67745)"><use xlink:href="#g4CE686876A17D681BBB59265FB1A41AE" x="0" y="0" fill="#e6edf3" fill-rule="nonzero"/></g><g transform="matrix(1 0 0 -1 188.982588889 16.2513)"><use xlink:href="#g13AFF74D87C474CFAF661EEAD0458F8B" x="0" y="0" fill="#e6edf3" fill-rule="nonzero"/></g><g transform="matrix(1 0 0 -1 202.7077 16.2513)"><use xlink:href="#gC717BE5B93447205292D108A434A4EF5" x="0" y="0" fill="#e6edf3" fill-rule="nonzero"/></g><g transform="matrix(1 0 0 -1 208.7657 11.5323)"><use xlink:href="#g9948C0FDABF29E771DA30338E5C0072D" x="0" y="0" fill="#e6edf3" fill-rule="nonzero"/></g><g transform="matrix(1 0 0 -1 215.8455 11.5323)"><use xlink:href="#g17ACE8417A2EAEB8E970DA0760C4EF5C" x="0" y="0" fill="#e6edf3" fill-rule="nonzero"/></g><g transform="matrix(1 0 0 -1 224.3904 11.5323)"><use xlink:href="#g8565C03560F84A6BA40B78125DBB281E" x="0" y="0" fill="#e6edf3" fill-rule="nonzero"/></g><g transform="matrix(1 0 0 -1 232.4803 8.229)"><use xlink:href="#gFA9C496F3B51D521A73CFA99F8A9D69F" x="0" y="0" fill="#e6edf3" fill-rule="nonzero"/></g><g transform="matrix(1 0 0 -1 237.4164 11.5323)"><use xlink:href="#g1496F20E01A9F81D8E91FA120B618555" x="0" y="0" fill="#e6edf3" fill-rule="nonzero"/></g><g transform="matrix(1 0 0 -1 241.9664 11.5323)"><use xlink:href="#g113F13A4D17198A1C07EDFC5CF3E0BE9" x="0" y="0" fill="#e6edf3" fill-rule="nonzero"/></g><g transform="matrix(1 0 0 -1 245.5063 11.5323)"><use xlink:href="#g65687811D8F633ACD21B0AF632B28F04" x="0" y="0" fill="#e6edf3" fill-rule="nonzero"/></g><g transform="matrix(1 0 0 -1 251.03 13.78)"><use xlink:href="#g761689E490812CEA84940060572FBDB5" x="0" y="0" fill="#e6edf3" fill-rule="nonzero"/></g><g transform="matrix(1 0 0 -1 258.2801 11.5323)"><use xlink:href="#g93B96925AF20254D7D82B92F2475B654" x="0" y="0" fill="#e6edf3" fill-rule="nonzero"/></g><g transform="matrix(1 0 0 -1 265.7239 11.5323)"><use xlink:href="#g46583585F9F2E82789E32589C97B74E" x="0" y="0" fill="#e6edf3" fill-rule="nonzero"/></g><defs><symbol id="g4511C92E9BF59263ADBD37DA8A7526D7" overflow="visible"><path d="M 0 0m 16.445 -5.85l 1.612 4.238h -0.442c -0.247 -0.65 -0.663 -1.196 -1.261 -1.638c -1.469 -1.092 -3.354 -1.378 -6.071 -1.378h -7.683l 6.5 7.644c 0.091 0.091 0.13 0.182 0.13 0.247l -6.058 8.359h 6.981c 2.457 0 4.498 -0.312 5.837 -1.17c 0.78 -0.494 1.326 -1.105 1.638 -1.833h 0.429l -1.612 3.731h -15.301c -0.234 0 -0.364 -0.039 -0.403 -0.117c -0.013 -0.039 -0.013 -0.195 -0.013 -0.468l 6.825 -9.334l -6.669 -7.826c -0.091 -0.104 -0.143 -0.195 -0.143 -0.26c 0 -0.13 0.13 -0.195 0.403 -0.195Z "/></symbol><symbol id="g4CE686876A17D681BBB59265FB1A41AE" overflow="visible"><path d="M 0 0m 2.9575 5.6511c 0 0.2184 -0.1729 0.3822 -0.3913 0.3822c -0.273 0 -0.5369 -0.2548 -0.5369 -0.5278c 0 -0.2184 0.1729 -0.3822 0.3913 -0.3822c 0.273 0 0.5369 0.2548 0.5369 0.5278Z m -1.2103 -1.6107c -0.4277 0 -0.7644 -0.2184 -1.0101 -0.6552c -0.2093 -0.364 -0.3094 -0.6188 -0.3094 -0.7644c 0 -0.1001 0.0637 -0.1456 0.182 -0.1456c 0.1001 0 0.1638 0.0546 0.2002 0.1638c 0.2093 0.7189 0.5096 1.0738 0.91 1.0738c 0.1274 0 0.1911 -0.091 0.1911 -0.2821c 0 -0.1183 -0.091 -0.4095 -0.273 -0.8827l -0.5642 -1.4469c -0.0546 -0.1456 -0.0819 -0.273 -0.0819 -0.3913c 0 -0.4732 0.4095 -0.8008 0.8827 -0.8008c 0.4277 0 0.7553 0.2184 1.001 0.6643c 0.2093 0.364 0.3094 0.6097 0.3094 0.7462c 0 0.1001 -0.0637 0.1547 -0.182 0.1547c -0.0546 -0.0091 -0.1183 -0.0546 -0.182 -0.1456c -0.0091 -0.0091 -0.0182 -0.0273 -0.0182 -0.0364c -0.2093 -0.7007 -0.5096 -1.0556 -0.9009 -1.0556c -0.1274 0 -0.1911 0.091 -0.1911 0.273c 0 0.1365 0.0455 0.3276 0.1456 0.5642l 0.7189 1.8655c 0.0364 0.1001 0.0546 0.2002 0.0546 0.3003c 0 0.4732 -0.4095 0.8008 -0.8827 0.8008Z "/></symbol><symbol id="gCF2B21B167A57F3B14E084B241FF3BA4" overflow="visible"><path d="M 0 0m 1.846 4.94c 0 -0.026 -0.013 -0.13 -0.052 -0.299c -0.364 -1.482 -0.741 -2.951 -1.105 -4.433c 0 -0.143 0.091 -0.208 0.26 -0.208h 0.182c 1.313 0.221 2.522 0.858 3.627 1.885c 0.507 0.481 0.936 1.001 1.274 1.573c 0.52 0.871 0.78 1.508 0.78 1.898c 0 0.26 -0.143 0.39 -0.416 0.39c -0.286 0 -0.468 -0.156 -0.559 -0.455c -0.377 -1.391 -1.001 -2.483 -1.859 -3.302c -0.728 -0.689 -1.469 -1.17 -2.236 -1.443l 1.235 5.005v 0.052c -0.039 0.091 -0.117 0.143 -0.221 0.143c -0.429 0 -1.378 -0.117 -1.547 -0.13c -0.195 -0.026 -0.299 -0.117 -0.299 -0.299c 0 -0.143 0.117 -0.208 0.351 -0.208c 0.247 0 0.585 0.013 0.585 -0.169Z "/></symbol><symbol id="gA32CAC846971E9468FADD933D647D41A" overflow="visible"><path d="M 0 0m 7.436 1.846c 0 0.117 -0.065 0.182 -0.208 0.182c -0.104 0 -0.182 -0.091 -0.221 -0.26c -0.26 -1.04 -0.572 -1.56 -0.923 -1.56c -0.221 0 -0.338 0.182 -0.338 0.546c 0 0.221 0.078 0.663 0.247 1.313l 0.364 1.391c 0.117 0.468 0.221 0.793 0.299 1.196l 0.078 0.364c 0.026 0.091 0.039 0.156 0.039 0.182c 0 0.273 -0.143 0.403 -0.429 0.403c -0.286 0 -0.468 -0.156 -0.546 -0.481l -0.936 -3.718c 0 -0.143 -0.208 -0.403 -0.624 -0.793c -0.286 -0.273 -0.611 -0.403 -0.988 -0.403c -0.598 0 -0.897 0.351 -0.897 1.066c 0 0.247 0.052 0.598 0.169 1.079l 0.546 2.158c 0.104 0.403 0.169 0.689 0.195 0.832c 0 0.273 -0.143 0.403 -0.429 0.403c -0.286 0 -0.468 -0.169 -0.559 -0.507l -1.846 -7.436c -0.026 -0.104 -0.039 -0.169 -0.039 -0.208c 0 -0.273 0.143 -0.403 0.416 -0.403c 0.195 0 0.351 0.104 0.494 0.299c 0.039 0.091 0.26 0.988 0.689 2.691c 0.312 -0.234 0.715 -0.351 1.209 -0.351c 0.767 0 1.274 0.403 1.677 0.871c 0.143 -0.481 0.572 -0.871 1.183 -0.871c 0.897 0 1.17 1.053 1.378 2.015Z "/></symbol><symbol id="g13AFF74D87C474CFAF661EEAD0458F8B" overflow="visible"><path d="M 0 0m 9.074 4.771h -8.034c -0.208 0 -0.312 -0.104 -0.312 -0.299c 0 -0.195 0.104 -0.299 0.312 -0.299h 8.034c 0.208 0 0.312 0.104 0.312 0.299c 0 0.156 -0.143 0.299 -0.312 0.299Z m 0 -2.444h -8.034c -0.208 0 -0.312 -0.104 -0.312 -0.299c 0 -0.195 0.104 -0.299 0.312 -0.299h 8.034c 0.208 0 0.312 0.104 0.312 0.299c 0 0.169 -0.143 0.299 -0.312 0.299Z "/></symbol><symbol id="gC189A0A36A47FB1CBF46D2ED82C939AF" overflow="visible"><path d="M 0 0m 3.237 -0.286c 1.833 0 2.743 1.482 2.743 4.446c 0 1.989 -0.416 3.315 -1.235 3.965c -0.455 0.351 -0.962 0.533 -1.495 0.533c -1.833 0 -2.743 -1.495 -2.743 -4.498c 0 -2.392 0.637 -4.446 2.73 -4.446Z m 1.456 7.098c 0.091 -0.455 0.13 -1.287 0.13 -2.496c 0 -1.196 -0.052 -2.08 -0.143 -2.652c -0.169 -1.04 -0.65 -1.56 -1.443 -1.56c -0.299 0 -0.598 0.117 -0.871 0.338c -0.351 0.299 -0.559 0.91 -0.65 1.846c -0.039 0.325 -0.052 1.001 -0.052 2.028c 0 1.131 0.039 1.924 0.104 2.353c 0.117 0.715 0.351 1.17 0.715 1.365c 0.286 0.156 0.533 0.234 0.754 0.234c 0.845 0 1.313 -0.689 1.456 -1.456Z "/></symbol><symbol id="g40250C3693DC0DFD75B60E230F9F53E2" overflow="visible"><path d="M 0 0m 10.452 8.84c -0.273 0 -1.157 0.039 -1.43 0.039c -0.195 0 -0.299 -0.104 -0.299 -0.312c 0 -0.104 0.091 -0.169 0.273 -0.208c 0.182 -0.039 0.286 -0.104 0.286 -0.195c 0 -0.143 -0.143 -0.338 -0.442 -0.559l -4.914 -3.757l 1.001 3.978c 0.065 0.273 0.182 0.442 0.351 0.507c 0.078 0.026 0.299 0.039 0.676 0.039c 0.338 0 0.494 0 0.494 0.312c 0 0.13 -0.078 0.195 -0.234 0.195l -1.651 -0.039l -1.664 0.039c -0.208 0.013 -0.312 -0.091 -0.312 -0.299c 0 -0.143 0.143 -0.208 0.429 -0.208c 0.26 0 0.793 0.039 0.793 -0.169c 0 -0.026 -0.013 -0.104 -0.052 -0.234l -1.729 -6.903c -0.065 -0.286 -0.195 -0.455 -0.39 -0.52c -0.091 -0.026 -0.325 -0.039 -0.728 -0.039c -0.286 0 -0.416 -0.026 -0.416 -0.299c 0 -0.143 0.078 -0.208 0.247 -0.208l 1.638 0.039l 0.819 -0.013c 0.143 0 0.689 -0.026 0.832 -0.026c 0.208 0 0.312 0.104 0.312 0.312c 0 0.13 -0.13 0.195 -0.403 0.195c -0.533 0 -0.793 0.052 -0.793 0.169c 0 0.065 0.039 0.26 0.117 0.559l 0.507 2.002l 1.859 1.43l 1.469 -3.393c 0.091 -0.221 0.143 -0.364 0.143 -0.429c 0 -0.221 -0.208 -0.338 -0.611 -0.338c -0.234 0 -0.338 -0.052 -0.338 -0.312c 0 -0.13 0.078 -0.195 0.234 -0.195c 0.286 0 1.274 0.039 1.56 0.039c 0.247 0 1.027 -0.039 1.274 -0.039c 0.182 0 0.273 0.104 0.273 0.312c 0 0.117 -0.104 0.182 -0.299 0.195c -0.533 0 -0.663 0.143 -0.845 0.546l -1.833 4.199c -0.013 0.065 -0.039 0.117 -0.052 0.156l 2.6 2.002c 0.637 0.494 1.183 0.793 1.625 0.897c 0.312 0.052 0.728 0.039 0.728 0.377c 0 0.13 -0.065 0.195 -0.195 0.195c -0.182 0 -0.728 -0.039 -0.91 -0.039Z "/></symbol><symbol id="g2D7122AD31FABF41BED931716B883F58" overflow="visible"><path d="M 0 0m 4.134 -3.224c 0.117 0 0.182 0.065 0.182 0.182c 0 0.039 -0.026 0.091 -0.065 0.143c -0.676 0.52 -1.222 1.378 -1.625 2.561c -0.351 1.027 -0.533 2.041 -0.533 3.042v 1.092c 0 1.001 0.182 2.015 0.533 3.042c 0.403 1.183 0.949 2.041 1.625 2.561c 0.039 0.039 0.065 0.091 0.065 0.143c 0 0.117 -0.065 0.182 -0.182 0.182c -0.013 0 -0.052 -0.013 -0.091 -0.039c -0.78 -0.598 -1.43 -1.482 -1.963 -2.665c -0.507 -1.131 -0.767 -2.197 -0.767 -3.224v -1.092c 0 -1.027 0.26 -2.093 0.767 -3.224c 0.533 -1.183 1.183 -2.067 1.963 -2.665c 0.039 -0.026 0.078 -0.039 0.091 -0.039Z "/></symbol><symbol id="g2D1FD5FA7721AD843D67732819992226" overflow="visible"><path d="M 0 0m 4.472 8.203c 0 -0.039 -0.013 -0.13 -0.052 -0.26l -1.716 -6.864c -0.052 -0.195 -0.104 -0.312 -0.143 -0.364c -0.117 -0.143 -0.559 -0.208 -1.339 -0.208c -0.403 0 -0.585 0.039 -0.585 -0.299c 0 -0.143 0.091 -0.208 0.26 -0.208c 0.663 0 1.599 0.052 2.158 0.039l 1.066 -0.013c 0.182 0 0.897 -0.026 1.118 -0.026c 0.221 0 0.325 0.104 0.325 0.312c 0 0.13 -0.156 0.195 -0.481 0.195c -0.676 0 -1.066 0.026 -1.183 0.091c -0.039 0.026 -0.065 0.078 -0.065 0.156l 1.755 7.085c 0.039 0.182 0.078 0.299 0.117 0.338c 0.052 0.078 0.364 0.117 0.936 0.117c 0.715 0 1.209 -0.052 1.456 -0.169c 0.247 -0.117 0.377 -0.39 0.377 -0.832c 0 -0.234 -0.039 -0.572 -0.104 -1.014c -0.026 -0.104 -0.039 -0.182 -0.039 -0.247c 0 -0.143 0.065 -0.221 0.208 -0.221c 0.117 0 0.195 0.117 0.234 0.338l 0.351 2.236c 0.013 0.065 0.026 0.143 0.026 0.221c 0 0.13 -0.13 0.195 -0.403 0.195h -7.124c -0.338 0 -0.364 -0.039 -0.468 -0.286l -0.767 -2.262c -0.039 -0.117 -0.065 -0.195 -0.078 -0.247c 0 -0.13 0.065 -0.195 0.208 -0.195c 0.104 0 0.195 0.104 0.26 0.299c 0.325 0.949 0.65 1.534 0.949 1.781c 0.338 0.273 0.988 0.403 1.937 0.403h 0.507c 0.143 0 0.299 0.013 0.299 -0.091Z "/></symbol><symbol id="g2F93E6EEEE2061842AA37F49EEA2F1A2" overflow="visible"><path d="M 0 0m 1.014 -3.185c 0.78 0.598 1.43 1.482 1.963 2.665c 0.507 1.131 0.767 2.197 0.767 3.224v 1.092c 0 1.027 -0.26 2.093 -0.767 3.224c -0.533 1.183 -1.183 2.067 -1.963 2.665c -0.039 0.026 -0.078 0.039 -0.091 0.039c -0.117 0 -0.182 -0.065 -0.182 -0.182c 0 -0.052 0.026 -0.104 0.065 -0.143c 0.676 -0.52 1.222 -1.378 1.625 -2.561c 0.351 -1.027 0.533 -2.041 0.533 -3.042v -1.092c 0 -1.001 -0.182 -2.015 -0.533 -3.042c -0.403 -1.183 -0.949 -2.041 -1.625 -2.561c -0.039 -0.052 -0.065 -0.104 -0.065 -0.143c 0 -0.117 0.065 -0.182 0.182 -0.182c 0.013 0 0.052 0.013 0.091 0.039Z "/></symbol><symbol id="gEA405CFBD0D250DC6A801DC66741D6B4" overflow="visible"><path d="M 0 0m 9.555 -5.85h 6.318v 0.806c -0.819 0 -1.378 0.117 -1.677 0.351c -0.299 0.234 -0.442 0.572 -0.442 1.014v 13.858c 0 0.455 0.143 0.793 0.442 1.027c 0.299 0.234 0.858 0.338 1.677 0.338v 0.806h -15.145v -0.806c 0.819 0 1.378 -0.117 1.677 -0.351c 0.299 -0.234 0.442 -0.572 0.442 -1.014v -13.858c 0 -0.455 -0.143 -0.793 -0.442 -1.027c -0.299 -0.234 -0.858 -0.338 -1.677 -0.338v -0.806h 6.318v 0.806c -0.819 0 -1.378 0.117 -1.677 0.351c -0.299 0.234 -0.442 0.572 -0.442 1.014v 15.223h 6.747v -15.223c 0 -0.455 -0.143 -0.793 -0.442 -1.027c -0.299 -0.234 -0.858 -0.338 -1.677 -0.338Z "/></symbol><symbol id="gA6F2C1D597D3EC5A6DEDB5B511CF0779" overflow="visible"><path d="M 0 0m 6.851 4.849c 0 0.598 -0.585 0.897 -1.235 0.897c -0.559 0 -1.001 -0.299 -1.339 -0.897c -0.273 0.598 -0.728 0.897 -1.391 0.897c -0.637 0 -1.157 -0.299 -1.573 -0.884c -0.351 -0.507 -0.533 -0.884 -0.533 -1.131c 0 -0.117 0.065 -0.182 0.195 -0.182c 0.117 0 0.195 0.065 0.221 0.182c 0.247 0.754 0.793 1.638 1.664 1.638c 0.429 0 0.637 -0.273 0.637 -0.806c 0 -0.273 -0.234 -1.287 -0.689 -3.029c -0.221 -0.871 -0.611 -1.3 -1.17 -1.3c -0.182 0 -0.351 0.039 -0.494 0.104c 0.338 0.13 0.507 0.364 0.507 0.702c 0 0.338 -0.169 0.507 -0.52 0.507c -0.429 0 -0.754 -0.364 -0.754 -0.793c 0 -0.598 0.611 -0.897 1.248 -0.897c 0.546 0 0.988 0.299 1.339 0.897c 0.247 -0.598 0.715 -0.897 1.391 -0.897c 0.624 0 1.144 0.299 1.56 0.884c 0.351 0.507 0.533 0.884 0.533 1.131c 0 0.117 -0.065 0.182 -0.195 0.182c -0.117 0 -0.182 -0.065 -0.221 -0.182c -0.221 -0.741 -0.806 -1.638 -1.651 -1.638c -0.429 0 -0.65 0.26 -0.65 0.793c 0 0.169 0.065 0.533 0.208 1.118l 0.442 1.755c 0.247 0.975 0.65 1.469 1.222 1.469c 0.182 0 0.351 -0.039 0.494 -0.104c -0.351 -0.117 -0.52 -0.351 -0.52 -0.702c 0 -0.338 0.182 -0.507 0.533 -0.507c 0.416 0 0.741 0.377 0.741 0.793Z "/></symbol><symbol id="gFA82768741BA29232B97B2E9D4DBACA7" overflow="visible"><path d="M 0 0m 1.4651 3.4216c 0 -0.0182 -0.0091 -0.0546 -0.0273 -0.1183l -0.5005 -2.0293c -0.182 -0.7189 -0.273 -1.092 -0.273 -1.1102c 0 -0.1092 0.0728 -0.1638 0.2093 -0.1638h 0.1456c 0.455 0.0728 0.9464 0.2275 1.4651 0.455c 1.2103 0.546 2.2386 1.4924 2.7118 2.7391c 0.0637 0.1729 0.1092 0.2912 0.1183 0.3549l 0.0273 0.1365c 0 0.2184 -0.1092 0.3276 -0.3367 0.3276c -0.0819 0 -0.1456 -0.0091 -0.2093 -0.0364c -0.1183 -0.0546 -0.2093 -0.2184 -0.2821 -0.4914c -0.2002 -0.6825 -0.5824 -1.3104 -1.1375 -1.8746c -0.5551 -0.5642 -1.183 -0.9555 -1.8655 -1.1648l 0.819 3.2669c 0.0091 0.0455 0.0182 0.1001 0.0182 0.1456c -0.0364 0.1001 -0.0364 0.1638 -0.182 0.1547l -0.5824 -0.0455c -0.182 -0.0091 -0.5733 -0.0455 -0.637 -0.0637c -0.1001 -0.0182 -0.1456 -0.091 -0.1456 -0.2184c 0 -0.1092 0.091 -0.1638 0.2639 -0.1638c 0.1729 0 0.4004 0.0091 0.4004 -0.1001Z "/></symbol><symbol id="gC48B6A210272368C1F8FEAF9557822B5" overflow="visible"><path d="M 0 0m 2.5805 4.0365c 0 0.1755 -0.1365 0.299 -0.3055 0.299c -0.208 0 -0.4095 -0.2015 -0.4095 -0.4095c 0 -0.169 0.1235 -0.3055 0.299 -0.3055c 0.208 0 0.416 0.208 0.416 0.416Z m -0.9425 -1.144c -0.3185 0 -0.5785 -0.1495 -0.78 -0.4485c -0.1755 -0.2535 -0.2665 -0.4485 -0.2665 -0.5785c 0 -0.0715 0.052 -0.1105 0.156 -0.1105c 0.0845 0 0.143 0.0455 0.1755 0.143c 0.091 0.312 0.3445 0.7215 0.689 0.7215c 0.1105 0 0.169 -0.0715 0.169 -0.2145c 0 -0.0715 -0.013 -0.1495 -0.039 -0.2275c -0.182 -0.455 -0.3705 -0.91 -0.559 -1.3585c -0.0455 -0.1365 -0.0715 -0.2405 -0.0715 -0.299c 0 -0.364 0.3445 -0.5915 0.7215 -0.5915c 0.3185 0 0.5785 0.1495 0.78 0.4485c 0.1755 0.26 0.2665 0.4485 0.2665 0.572c 0 0.078 -0.052 0.117 -0.156 0.117c -0.078 0 -0.13 -0.026 -0.1495 -0.078c -0.0195 -0.052 -0.026 -0.078 -0.0325 -0.091c -0.0975 -0.299 -0.351 -0.6955 -0.6825 -0.6955c -0.1105 0 -0.169 0.0715 -0.169 0.2145c 0 0.0715 0.026 0.182 0.0845 0.3185l 0.494 1.235c 0.0585 0.1495 0.091 0.26 0.091 0.3315c 0 0.3705 -0.351 0.5915 -0.7215 0.5915Z "/></symbol><symbol id="gC717BE5B93447205292D108A434A4EF5" overflow="visible"><path d="M 0 0m 1.612 1.677c 0 0.312 0.065 0.741 0.195 1.274h 0.637c 0.845 0 1.495 0.104 1.963 0.299c 0.429 0.182 0.715 0.442 0.858 0.767c 0.091 0.221 0.13 0.429 0.13 0.598c 0 0.715 -0.676 1.131 -1.404 1.131c -0.507 0 -1.014 -0.13 -1.521 -0.39c -1.001 -0.52 -1.872 -1.703 -1.872 -3.133c 0 -1.326 0.767 -2.366 2.054 -2.366c 0.689 0 1.3 0.169 1.833 0.494c 0.442 0.273 0.767 0.546 0.975 0.819c 0.091 0.117 0.13 0.208 0.13 0.247c 0 0.143 -0.065 0.221 -0.208 0.221c -0.065 0 -0.13 -0.052 -0.208 -0.156c -0.429 -0.572 -0.962 -0.936 -1.573 -1.092c -0.403 -0.104 -0.702 -0.156 -0.923 -0.156c -0.741 0 -1.066 0.702 -1.066 1.443Z m 3.263 2.938c 0 -0.858 -0.832 -1.287 -2.509 -1.287h -0.455c 0.247 0.858 0.611 1.43 1.105 1.703c 0.39 0.221 0.715 0.338 0.975 0.338c 0.468 0 0.884 -0.286 0.884 -0.754Z "/></symbol><symbol id="g9948C0FDABF29E771DA30338E5C0072D" overflow="visible"><path d="M 0 0m 6.3336 2.4843h -5.5874c -0.182 0 -0.2366 -0.091 -0.2366 -0.2093c 0 -0.1183 0.0546 -0.2093 0.2366 -0.2093h 5.5874c 0.182 0 0.2366 0.091 0.2366 0.2093c 0 0.1092 -0.0546 0.2093 -0.2366 0.2093Z "/></symbol><symbol id="g17ACE8417A2EAEB8E970DA0760C4EF5C" overflow="visible"><path d="M 0 0m 7.7168 0c 0.1729 0 0.2548 0.0455 0.2548 0.1365l -3.3852 6.1243c -0.0819 0.1547 -0.1911 0.2275 -0.3276 0.2275c -0.1365 0 -0.2457 -0.0637 -0.3094 -0.1911l -3.3306 -6.0242c -0.0455 -0.0819 -0.0637 -0.1365 -0.0637 -0.1456c 0 -0.0819 0.0819 -0.1274 0.2548 -0.1274Z m -3.7583 5.4964l 2.5935 -4.6865h -5.1779Z "/></symbol><symbol id="g8565C03560F84A6BA40B78125DBB281E" overflow="visible"><path d="M 0 0m 4.7775 2.5571c -0.1547 0 -0.2275 -0.0819 -0.2275 -0.2366c 0 -0.1729 0.1274 -0.1638 0.3549 -0.1638c 0.4459 0 0.6916 -0.0182 0.7553 -0.0637c 0.0182 -0.0091 0.0273 -0.0455 0.0273 -0.091c 0 -0.0273 -0.0182 -0.1183 -0.0637 -0.273c -0.1183 -0.4823 -0.182 -0.728 -0.1911 -0.7462c -0.2184 -0.4914 -1.0101 -0.7644 -1.7654 -0.7644c -0.5096 0 -0.9646 0.1274 -1.3559 0.3913c -0.4641 0.3003 -0.6916 0.8099 -0.6916 1.5197c 0 1.0829 0.5369 2.2568 1.1011 2.821c 0.7098 0.7007 1.5015 1.0465 2.3751 1.0465c 1.001 0 1.6198 -0.7189 1.6198 -1.7199c 0 -0.1365 -0.0091 -0.2639 -0.0273 -0.3731c 0 -0.1001 0.0637 -0.1547 0.2002 -0.1547c 0.1092 0 0.182 0.0728 0.2275 0.2275l 0.5551 2.2659c 0 0.1001 -0.0546 0.1547 -0.1547 0.1547c -0.0455 0 -0.1092 -0.0364 -0.1911 -0.1183l -0.6279 -0.6643c -0.4095 0.5187 -0.9737 0.7826 -1.6926 0.7826c -0.7189 0 -1.4196 -0.1911 -2.1021 -0.5642c -1.1102 -0.6188 -2.2659 -1.8746 -2.2659 -3.4398c 0 -0.7826 0.2821 -1.4105 0.8372 -1.8928c 0.5278 -0.455 1.1921 -0.6825 1.9929 -0.6825c 0.9464 0 1.638 0.2275 2.0839 0.6825c 0.1729 -0.3276 0.3185 -0.4914 0.455 -0.4914c 0.0819 0 0.1365 0.0819 0.182 0.2548l 0.364 1.5015c 0.1001 0.3913 0.1092 0.3913 0.6188 0.3913c 0.1547 0.0091 0.2275 0.0819 0.2275 0.2275c 0 0.1183 -0.0546 0.1729 -0.1729 0.1729c -0.182 0 -0.7917 -0.0455 -0.9828 -0.0364l -0.7462 0.0091c -0.2184 0 -0.5642 0.0091 -0.7189 0.0273Z "/></symbol><symbol id="gFA9C496F3B51D521A73CFA99F8A9D69F" overflow="visible"><path d="M 0 0m 3.9065 2.08c 0 0.286 0 0.338 -0.039 0.637c -0.117 0.9165 -0.6045 1.612 -1.6575 1.612c -0.6825 0 -1.1505 -0.3055 -1.3845 -0.7475c -0.2275 -0.429 -0.312 -0.8775 -0.312 -1.5015c 0 -0.2275 0.013 -0.4355 0.039 -0.637c 0.117 -0.9035 0.611 -1.586 1.6575 -1.586c 0.676 0 1.1505 0.3055 1.3845 0.7345c 0.234 0.429 0.312 0.871 0.312 1.4885Z m -0.78 1.313c 0.0585 -0.2145 0.091 -0.624 0.091 -1.235c 0 -0.6435 -0.0325 -1.0855 -0.0975 -1.339c -0.1105 -0.429 -0.4225 -0.6955 -0.91 -0.6955c -0.1495 0 -0.312 0.039 -0.481 0.1105c -0.208 0.0975 -0.351 0.2925 -0.429 0.598c -0.065 0.247 -0.0975 0.689 -0.0975 1.326c 0 0.6175 0.0325 1.0465 0.104 1.274c 0.1235 0.4225 0.4225 0.6305 0.9035 0.6305c 0.4875 0 0.793 -0.221 0.9165 -0.6695Z "/></symbol><symbol id="g1496F20E01A9F81D8E91FA120B618555" overflow="visible"><path d="M 0 0m 3.5945 6.6612l -3.0849 -8.5995c -0.0728 -0.2002 0.0273 -0.2912 0.1365 -0.3276c 0.1092 -0.0364 0.2457 -0.0364 0.3185 0.1638l 3.0849 8.5904c 0.0728 0.2002 -0.0273 0.2912 -0.1365 0.3276c -0.1001 0.0364 -0.2457 0.0455 -0.3185 -0.1547Z "/></symbol><symbol id="g113F13A4D17198A1C07EDFC5CF3E0BE9" overflow="visible"><path d="M 0 0m 2.8938 -2.2568c 0.0819 0 0.1274 0.0455 0.1274 0.1274c 0 0.0273 -0.0182 0.0637 -0.0455 0.1001c -0.4732 0.364 -0.8554 0.9646 -1.1375 1.7927c -0.2457 0.7189 -0.3731 1.4287 -0.3731 2.1294v 0.7644c 0 0.7007 0.1274 1.4105 0.3731 2.1294c 0.2821 0.8281 0.6643 1.4287 1.1375 1.7927c 0.0273 0.0273 0.0455 0.0637 0.0455 0.1001c 0 0.0819 -0.0455 0.1274 -0.1274 0.1274c -0.0091 0 -0.0364 -0.0091 -0.0637 -0.0273c -0.546 -0.4186 -1.001 -1.0374 -1.3741 -1.8655c -0.3549 -0.7917 -0.5369 -1.5379 -0.5369 -2.2568v -0.7644c 0 -0.7189 0.182 -1.4651 0.5369 -2.2568c 0.3731 -0.8281 0.8281 -1.4469 1.3741 -1.8655c 0.0273 -0.0182 0.0546 -0.0273 0.0637 -0.0273Z "/></symbol><symbol id="g65687811D8F633ACD21B0AF632B28F04" overflow="visible"><path d="M 0 0m 5.1597 3.3761c 0 0.4004 -0.3276 0.6643 -0.728 0.6643c -0.4095 0 -0.8918 -0.2639 -1.456 -0.8008c -0.4095 -0.3913 -0.7371 -0.6461 -0.9646 -0.7553l 0.8736 3.5126c 0.0091 0.0182 0.0182 0.0728 0.0364 0.1547c 0 0.1092 -0.0637 0.1638 -0.182 0.1638l -1.1466 -0.091c -0.1547 -0.0091 -0.2275 -0.091 -0.2275 -0.2457c 0 -0.1001 0.091 -0.1547 0.2639 -0.1547c 0.1547 0 0.4004 0 0.4004 -0.1001c 0 -0.0364 -0.0091 -0.1001 -0.0364 -0.1911c -0.4368 -1.7381 -0.8554 -3.4944 -1.3013 -5.2234c -0.0091 -0.0364 -0.0091 -0.0637 -0.0091 -0.0728c 0 -0.2184 0.1092 -0.3276 0.3367 -0.3276c 0.2275 0 0.3731 0.1365 0.4459 0.4004c 0.1456 0.5551 0.3549 1.3832 0.4368 1.7199c 0.7189 -0.0819 1.0829 -0.3094 1.0829 -0.7007c 0 -0.0819 -0.0546 -0.3731 -0.0546 -0.455c 0 -0.5642 0.4277 -0.9646 0.9828 -0.9646c 0.3276 0 0.6006 0.1638 0.8099 0.4914c 0.1911 0.3003 0.3094 0.6006 0.364 0.9191c 0 0.1001 -0.0637 0.1547 -0.182 0.1547c -0.0546 0 -0.091 -0.0091 -0.1183 -0.0273c -0.0455 -0.0819 -0.0819 -0.1547 -0.091 -0.2184c -0.182 -0.6643 -0.4368 -0.9919 -0.7553 -0.9919c -0.182 0 -0.273 0.1456 -0.273 0.4277c 0 0.1092 0.0182 0.2366 0.0455 0.3913c 0.0273 0.1001 0.0455 0.1911 0.0455 0.2912c 0 0.3913 -0.2002 0.6643 -0.6097 0.8008c -0.2548 0.091 -0.5096 0.1547 -0.7644 0.182c 0.1729 0.1183 0.3913 0.3003 0.6552 0.5369c 0.4277 0.3822 0.8281 0.8463 1.3832 0.8463c 0.1001 0 0.1729 -0.0182 0.2275 -0.0546c -0.2821 -0.0728 -0.4277 -0.2457 -0.4277 -0.5278c 0 -0.2184 0.1729 -0.3731 0.3913 -0.3731c 0.3276 0 0.546 0.2912 0.546 0.6188Z "/></symbol><symbol id="g761689E490812CEA84940060572FBDB5" overflow="visible"><path d="M 0 0m 1.8135 4.2315c 0 -0.0845 0.0845 -0.13 0.26 -0.13c 0.1755 0 0.3055 -0.013 0.39 -0.0325c 0 -0.0455 -0.0065 -0.091 -0.013 -0.1365l -0.845 -3.367c -0.0195 -0.0715 -0.039 -0.117 -0.0585 -0.143c -0.039 -0.0585 -0.195 -0.0845 -0.4615 -0.0845c -0.195 0 -0.299 -0.013 -0.299 -0.2015c 0 -0.091 0.078 -0.1365 0.2405 -0.1365h 2.8015c 0.455 0 0.9035 0.117 1.339 0.3445c 0.52 0.2795 0.78 0.624 0.78 1.04c 0 0.546 -0.572 0.845 -1.105 0.9425c 0.1755 0.0325 0.351 0.091 0.5265 0.1625c 0.39 0.1625 0.8775 0.52 0.8775 0.988c 0 0.325 -0.182 0.5785 -0.5525 0.754c -0.2925 0.1365 -0.6175 0.208 -0.988 0.208h -2.639c -0.182 0 -0.2535 -0.052 -0.2535 -0.208Z m 3.692 -0.7735c 0 -0.3185 -0.1885 -0.5785 -0.572 -0.7735c -0.3185 -0.1625 -0.65 -0.2405 -1.001 -0.2405h -1.183l 0.364 1.4625c 0.052 0.195 0.0455 0.195 0.299 0.195h 1.1765c 0.468 0 0.9165 -0.2145 0.9165 -0.6435Z m -0.312 -2.0475c 0 -0.3315 -0.182 -0.598 -0.546 -0.806c -0.3055 -0.1755 -0.637 -0.2665 -0.9945 -0.2665h -1.2415c -0.078 0 -0.1365 0.0065 -0.182 0.013c 0.0065 0.026 0.013 0.052 0.0195 0.0845l 0.429 1.7355h 1.5535c 0.5265 0 0.962 -0.26 0.962 -0.7605Z "/></symbol><symbol id="g93B96925AF20254D7D82B92F2475B654" overflow="visible"><path d="M 0 0m 3.5763 5.7057l -1.2194 -4.914c -0.0364 -0.1365 -0.0728 -0.2184 -0.1001 -0.2548c -0.0819 -0.1001 -0.3913 -0.1456 -0.9191 -0.1456c -0.3003 0 -0.4459 0.0182 -0.4459 -0.2275c 0 -0.1092 0.0637 -0.1638 0.1911 -0.1638c 0.4914 0 1.0374 0.0455 1.547 0.0364l 0.8099 -0.0091c 0.2366 0 0.5915 -0.0091 0.7644 -0.0273c 0.1547 0 0.2366 0.0819 0.2366 0.2366c 0 0.0819 -0.0455 0.1365 -0.1456 0.1547h -0.2548c -0.4459 0 -0.7098 0.0182 -0.7735 0.0637c -0.0273 0.0182 -0.0364 0.0455 -0.0364 0.091c 0 0.0455 0.0091 0.1092 0.0273 0.2002l 1.1921 4.7229c 0.0637 0.2093 0.0455 0.2639 0.2457 0.2821c 0.0273 0.0091 0.2002 0.0091 0.5369 0.0091c 0.5187 0 0.8554 -0.0273 1.001 -0.0728c 0.2912 -0.1001 0.4004 -0.2366 0.4004 -0.6825c 0 -0.2457 -0.0273 -0.5187 -0.0819 -0.819c 0 -0.1183 0.0637 -0.1729 0.1911 -0.1729c 0.0455 0 0.091 0.0091 0.1183 0.0364c 0.0455 0.091 0.0728 0.1638 0.0819 0.2184l 0.2457 1.7199c 0 0.1092 -0.1001 0.1638 -0.3094 0.1638h -5.5328c -0.2548 0 -0.273 -0.0182 -0.3367 -0.2093l -0.5733 -1.5925c -0.0091 -0.0455 -0.0455 -0.1456 -0.0455 -0.1729c 0 -0.1092 0.0637 -0.1638 0.1911 -0.1638c 0.091 0 0.1638 0.0819 0.2184 0.2366c 0.3094 0.8463 0.5096 1.3832 1.4469 1.4924c 0.1001 0.0091 0.3367 0.0182 0.7098 0.0182h 0.3822c 0.1638 0 0.2366 0.0182 0.2366 -0.0546Z "/></symbol><symbol id="g46583585F9F2E82789E32589C97B74E" overflow="visible"><path d="M 0 0m 0.7098 -2.2295c 0.546 0.4186 1.001 1.0374 1.3741 1.8655c 0.3549 0.7917 0.5369 1.5379 0.5369 2.2568v 0.7644c 0 0.7189 -0.182 1.4651 -0.5369 2.2568c -0.3731 0.8281 -0.8281 1.4469 -1.3741 1.8655c -0.0273 0.0182 -0.0546 0.0273 -0.0637 0.0273c -0.0819 0 -0.1274 -0.0455 -0.1274 -0.1274c 0 -0.0364 0.0182 -0.0728 0.0455 -0.1001c 0.4732 -0.364 0.8554 -0.9646 1.1375 -1.7927c 0.2457 -0.7189 0.3731 -1.4287 0.3731 -2.1294v -0.7644c 0 -0.7007 -0.1274 -1.4105 -0.3731 -2.1294c -0.2821 -0.8281 -0.6643 -1.4287 -1.1375 -1.7927c -0.0273 -0.0364 -0.0455 -0.0728 -0.0455 -0.1001c 0 -0.0819 0.0455 -0.1274 0.1274 -0.1274c 0.0091 0 0.0364 0.0091 0.0637 0.0273Z "/></symbol></defs></svg>