<svg viewBox="0 0 110.773866667 39.741" width="110.773866667pt" height="39.741pt" xmlns="http://www.w3.org/2000/svg" xmlns:xlink="http://www.w3.org/1999/xlink" xmlns:h5="http://www.w3.org/1999/xhtml"><g transform="matrix(1 0 0 -1 6.5 21.866)"><use xlink:href="#g23CEEBFA764149797E7EA3D2360CE782" x="0" y="0" fill="#e6edf3" fill-rule="nonzero"/></g><g transform="matrix(1 0 0 -1 13.637 35.659)"><use xlink:href="#gAFF071B78EC9EEFB01BB2C72F5E749E4" x="0" y="0" fill="#e6edf3" fill-rule="nonzero"/></g><g transform="matrix(1 0 0 -1 23.247466667 21.866)"><use xlink:href="#g219318600111ED0DDD69E7A24294373" x="0" y="0" fill="#e6edf3" fill-rule="nonzero"/></g><g transform="matrix(1 0 0 -1 37.225355556 21.866)"><use xlink:href="#gB323F9E42E1C20C087FBF81136E27860" x="0" y="0" fill="#e6edf3" fill-rule="nonzero"/></g><g transform="matrix(1 0 0 -1 43.728244444 21.866)"><use xlink:href="#g6BCCDCE0D843C0F823A4CE121D6D1649" x="0" y="0" fill="#e6edf3" fill-rule="nonzero"/></g><g transform="matrix(1 0 0 -1 50.800244444 21.866)"><use xlink:href="#gBD2F635BE1AA233FD824DB5B16D5C07E" x="0" y="0" fill="#e6edf3" fill-rule="nonzero"/></g><g transform="matrix(1 0 0 -1 64.057355556 21.866)"><use xlink:href="#g13AFF74D87C474CFAF661EEAD0458F8B" x="0" y="0" fill="#e6edf3" fill-rule="nonzero"/></g><g transform="matrix(1 0 0 -1 79.082466667 13.065)"><use xlink:href="#gFCB8EE904C83D15DBBDA0F3192DB537A" x="0" y="0" fill="#e6edf3" fill-rule="nonzero"/></g><g transform="matrix(1 0 0 -1 89.105466667 16.276)"><use xlink:href="#g6F1B2EC7690C574873AE01D06ED173C6" x="0" y="0" fill="#e6edf3" fill-rule="nonzero"/><use xlink:href="#g689CD2C8CC31657A53FE374FF94F6738" x="4.0404" y="0" fill="#e6edf3" fill-rule="nonzero"/><use xlink:href="#gC86B0FAB9444A46451EA9A07C4DA98BD" x="9.1" y="0" fill="#e6edf3" fill-rule="nonzero"/></g><g transform="matrix(1 0 0 -1 85.436216667 30.784)"><use xlink:href="#gC0145148BC36294A1E6393678561EC4B" x="0" y="0" fill="#e6edf3" fill-rule="nonzero"/></g><g transform="matrix(1 0 0 -1 90.714216667 33.995)"><use xlink:href="#g66C287F757172C4FBEE46C9B113A6E1F" x="0" y="0" fill="#e6edf3" fill-rule="nonzero"/></g><path fill="none" stroke="#e6edf3" stroke-width="0.624" stroke-linecap="butt" stroke-linejoin="miter" stroke-miterlimit="4" transform="translate(79.082466667 18.616)" d="M 0 0h 23.8914"/><defs><symbol id="g23CEEBFA764149797E7EA3D2360CE782" overflow="visible"><path d="M 0 0m 10.803 17.693c -0.611 0 -1.157 -0.559 -1.651 -1.677c -0.234 -0.507 -0.507 -1.313 -0.806 -2.418c -0.429 -1.573 -0.936 -3.692 -1.521 -6.37h -0.052c -1.105 0 -2.028 -0.39 -2.795 -1.17c -0.767 -0.78 -1.157 -1.703 -1.157 -2.808c 0 -1.807 1.131 -3.159 2.496 -3.705l -0.182 -1.066c -0.507 -2.951 -0.884 -4.927 -1.131 -5.941c -0.533 -2.223 -1.144 -3.341 -1.82 -3.341c -0.247 0 -0.468 0.065 -0.663 0.208c 0.377 0.065 0.559 0.286 0.559 0.676c 0 0.377 -0.286 0.676 -0.663 0.676c -0.455 0 -0.689 -0.234 -0.689 -0.689c 0 -0.754 0.741 -1.261 1.482 -1.261c 0.949 0 1.729 0.754 2.34 2.249c 0.39 0.949 0.832 2.483 1.313 4.576l 0.845 3.64h 0.065c 1.092 0 2.028 0.39 2.795 1.17c 0.767 0.78 1.157 1.703 1.157 2.808c 0 1.794 -1.17 3.172 -2.522 3.705l 0.195 1.066c 0.429 2.47 0.741 4.16 0.936 5.083c 0.598 2.795 1.092 4.199 1.495 4.199c 0.26 0 0.481 -0.065 0.65 -0.208c -0.377 -0.065 -0.572 -0.286 -0.572 -0.676c 0 -0.377 0.286 -0.676 0.663 -0.676c 0.455 0 0.689 0.234 0.689 0.689c 0 0.715 -0.702 1.261 -1.456 1.261Z m -2.717 -11.44c 1.053 -0.468 1.95 -1.56 1.95 -3.003c 0 -0.897 -0.312 -1.651 -0.923 -2.288c -0.611 -0.637 -1.365 -0.962 -2.249 -0.988Z m -4.576 -3.003c 0 0.884 0.299 1.651 0.91 2.288c 0.611 0.637 1.365 0.962 2.249 0.988l -1.222 -6.279c -1.04 0.481 -1.937 1.56 -1.937 3.003Z "/></symbol><symbol id="gAFF071B78EC9EEFB01BB2C72F5E749E4" overflow="visible"><path d="M 0 0m 5.5874 4.2679c 0 -0.1092 0.0637 -0.1638 0.1911 -0.1638c 0.1729 0 0.1729 0.0637 0.2184 0.2275l 0.4641 1.911c 0 0.1001 -0.0546 0.1547 -0.1547 0.1547c -0.0546 0 -0.1274 -0.0455 -0.2093 -0.1365l -0.4095 -0.4823c -0.3094 0.4095 -0.7917 0.6188 -1.456 0.6188c -0.5915 0 -1.1375 -0.2002 -1.6289 -0.5915c -0.5369 -0.4277 -0.8008 -0.9282 -0.8008 -1.5015c 0 -0.6643 0.4641 -1.1557 1.0283 -1.3104c 0.5824 -0.1456 1.0192 -0.2548 1.3104 -0.3185c 0.5369 -0.1274 0.8099 -0.4277 0.8099 -0.91c 0 -0.4277 -0.182 -0.7917 -0.546 -1.092c -0.364 -0.3003 -0.7735 -0.455 -1.2012 -0.455c -0.4277 0 -0.819 0.0819 -1.1557 0.2548c -0.3731 0.1911 -0.5551 0.5187 -0.5551 0.9828c 0 0.1365 0.0182 0.2912 0.0546 0.4459c 0.0091 0.0273 0.0091 0.0455 0.0091 0.0546c 0 0.1001 -0.0637 0.1547 -0.182 0.1547c -0.0455 0 -0.0728 0 -0.1001 -0.0091c -0.0637 -0.0728 -0.1001 -0.1365 -0.1092 -0.2002l -0.455 -1.7927c -0.0182 -0.0728 -0.0273 -0.1183 -0.0273 -0.1456c 0 -0.1001 0.0546 -0.1456 0.1638 -0.1456c 0.0637 0 0.1274 0.0455 0.2002 0.1365l 0.2184 0.2548c 0.0819 0.1001 0.1456 0.1729 0.1911 0.2184c 0.3913 -0.4095 0.9646 -0.6097 1.7199 -0.6097c 0.6188 0 1.183 0.2184 1.6926 0.6552c 0.5278 0.4641 0.7917 1.001 0.7917 1.6107c 0 0.7917 -0.4732 1.2194 -1.1284 1.4287c 0 0 -1.2649 0.2821 -1.4287 0.3458c -0.3913 0.1365 -0.5824 0.4004 -0.5824 0.7826c 0 0.3913 0.1911 0.728 0.5733 1.0101c 0.3458 0.2548 0.7189 0.3822 1.1284 0.3822c 0.9373 0 1.4014 -0.455 1.4014 -1.365c 0 -0.0728 -0.0364 -0.3276 -0.0364 -0.4004Z "/></symbol><symbol id="g219318600111ED0DDD69E7A24294373" overflow="visible"><path d="M 0 0m 10.725 8.606c 0 0.234 -0.221 0.234 -0.429 0.234h -7.202c -0.273 0 -0.286 -0.013 -0.351 -0.065c -0.091 -0.065 -0.117 -0.312 -0.117 -0.312c 0 -0.234 0.182 -0.234 0.533 -0.234c 0.273 0 0.52 -0.013 0.793 -0.026l -1.833 -7.332c -0.052 -0.208 -0.065 -0.221 -0.299 -0.247c -0.221 -0.013 -0.481 -0.013 -0.689 -0.013c -0.338 0 -0.364 0 -0.416 -0.026c -0.156 -0.091 -0.156 -0.299 -0.156 -0.351c 0 -0.234 0.221 -0.234 0.442 -0.234h 7.423c 0.312 0 0.364 0 0.481 0.273l 1.248 2.821c 0.078 0.169 0.078 0.234 0.078 0.234c 0 0.234 -0.247 0.234 -0.312 0.234c -0.208 0 -0.221 -0.026 -0.377 -0.377c -0.78 -1.716 -1.456 -2.574 -3.653 -2.574h -1.69c -0.195 0 -0.221 0 -0.312 0.013l 0.91 3.653h 0.897c 0.767 0 1.027 -0.117 1.027 -0.559c 0 -0.208 -0.091 -0.559 -0.104 -0.598l -0.013 -0.13c 0 -0.195 0.169 -0.234 0.299 -0.234c 0.247 0 0.26 0.078 0.325 0.312l 0.728 2.899c 0.052 0.169 0.052 0.208 0.052 0.208c 0 0.234 -0.26 0.234 -0.312 0.234c -0.247 0 -0.273 -0.091 -0.338 -0.338c -0.26 -0.975 -0.65 -1.183 -1.625 -1.183h -0.78l 0.819 3.315c 0.169 0.026 0.312 0.026 0.442 0.026h 1.703c 1.417 0 1.989 -0.312 1.989 -1.547c 0 -0.234 -0.052 -0.52 -0.052 -0.728c 0 -0.247 0.247 -0.247 0.312 -0.247c 0.273 0 0.286 0.13 0.312 0.364c 0.078 0.845 0.182 1.677 0.247 2.535Z "/></symbol><symbol id="gB323F9E42E1C20C087FBF81136E27860" overflow="visible"><path d="M 0 0m 2.496 3.25c 0 0.377 -0.312 0.689 -0.689 0.689c -0.377 0 -0.689 -0.312 -0.689 -0.689c 0 -0.377 0.312 -0.689 0.689 -0.689c 0.377 0 0.689 0.312 0.689 0.689Z "/></symbol><symbol id="g6BCCDCE0D843C0F823A4CE121D6D1649" overflow="visible"><path d="M 0 0m 5.577 8.216l -0.767 -3.159c -0.273 0.481 -0.65 0.728 -1.157 0.728c -0.845 0 -1.586 -0.429 -2.236 -1.3c -0.598 -0.806 -0.897 -1.651 -0.897 -2.522c 0 -1.144 0.663 -2.106 1.755 -2.106c 0.559 0 1.105 0.299 1.625 0.91c 0.143 -0.494 0.585 -0.91 1.196 -0.91c 0.897 0 1.183 1.066 1.378 2.028c 0 0.117 -0.065 0.182 -0.195 0.182c -0.117 0 -0.195 -0.091 -0.234 -0.273c -0.26 -1.027 -0.572 -1.547 -0.923 -1.547c -0.221 0 -0.338 0.182 -0.338 0.533c 0 0.195 0.026 0.403 0.078 0.611l 1.846 7.436v 0.052c -0.039 0.091 -0.117 0.143 -0.221 0.143c -0.299 0 -0.845 -0.052 -1.625 -0.143c -0.143 -0.013 -0.221 -0.117 -0.221 -0.299c 0 -0.13 0.117 -0.195 0.351 -0.195c 0.247 0 0.585 0.013 0.585 -0.169Z m -1.144 -3.328c 0.13 -0.273 0.195 -0.455 0.195 -0.572c -0.013 -0.052 -0.026 -0.117 -0.039 -0.208l -0.637 -2.522c -0.039 -0.143 -0.13 -0.299 -0.247 -0.455c -0.481 -0.585 -0.949 -0.884 -1.404 -0.884c -0.507 0 -0.767 0.39 -0.767 1.157c 0 0.312 0.078 0.78 0.234 1.404c 0.273 1.105 0.663 1.859 1.144 2.262c 0.26 0.221 0.507 0.325 0.754 0.325c 0.351 0 0.611 -0.169 0.767 -0.507Z "/></symbol><symbol id="gBD2F635BE1AA233FD824DB5B16D5C07E" overflow="visible"><path d="M 0 0m 9.282 8.944c 0 0.169 -0.143 0.195 -0.234 0.195c -0.091 0 -0.117 0 -0.286 -0.156l -0.715 -0.598c -0.507 0.52 -1.196 0.754 -2.067 0.754c -2.405 0 -3.588 -1.859 -3.588 -3.185c 0 -0.689 0.312 -1.183 0.624 -1.482c 0.455 -0.403 0.767 -0.468 1.729 -0.689l 1.014 -0.234c 0.221 -0.052 1.027 -0.234 1.027 -1.17c 0 -0.624 -0.533 -1.989 -2.223 -1.989c -0.312 0 -1.17 0.039 -1.768 0.39c -0.741 0.455 -0.741 1.079 -0.741 1.339c 0 0.104 0 0.286 0.065 0.533c 0 0.039 0.013 0.13 0.013 0.13c 0 0.182 -0.182 0.182 -0.299 0.182c -0.26 0 -0.273 -0.052 -0.338 -0.299l -0.663 -2.704c 0 -0.143 0.117 -0.182 0.221 -0.182c 0.117 0 0.117 0.013 0.26 0.13c 0.039 0.026 0.533 0.455 0.741 0.624c 0.728 -0.65 1.833 -0.754 2.457 -0.754c 2.548 0 3.679 2.119 3.679 3.445c 0 0.702 -0.286 1.222 -0.585 1.521c -0.468 0.468 -0.78 0.533 -1.872 0.78l -1.014 0.234c -0.572 0.13 -0.923 0.533 -0.923 1.04c 0 0.624 0.572 1.781 2.145 1.781c 1.079 0 2.067 -0.455 2.067 -1.924c 0 -0.234 -0.039 -0.468 -0.039 -0.507c 0 -0.195 0.182 -0.195 0.312 -0.195c 0.247 0 0.26 0.026 0.325 0.286l 0.624 2.444c 0.013 0.039 0.052 0.26 0.052 0.26Z "/></symbol><symbol id="g13AFF74D87C474CFAF661EEAD0458F8B" overflow="visible"><path d="M 0 0m 9.074 4.771h -8.034c -0.208 0 -0.312 -0.104 -0.312 -0.299c 0 -0.195 0.104 -0.299 0.312 -0.299h 8.034c 0.208 0 0.312 0.104 0.312 0.299c 0 0.156 -0.143 0.299 -0.312 0.299Z m 0 -2.444h -8.034c -0.208 0 -0.312 -0.104 -0.312 -0.299c 0 -0.195 0.104 -0.299 0.312 -0.299h 8.034c 0.208 0 0.312 0.104 0.312 0.299c 0 0.169 -0.143 0.299 -0.312 0.299Z "/></symbol><symbol id="gFCB8EE904C83D15DBBDA0F3192DB537A" overflow="visible"><path d="M 0 0m 3.978 -0.312c 0.377 0 0.78 0.065 1.209 0.182c -0.039 -0.494 -0.052 -0.806 -0.052 -0.923c 0 -0.975 0.377 -1.469 1.118 -1.469c 0.793 0 1.404 0.637 1.703 1.222c 0.325 0.676 0.494 1.118 0.494 1.326c 0 0.117 -0.065 0.182 -0.195 0.182c -0.091 0 -0.156 -0.052 -0.195 -0.169c -0.195 -0.598 -0.728 -1.209 -1.456 -1.209c -0.663 0 -0.754 0.533 -0.858 1.248c 1.092 0.429 2.015 1.17 2.756 2.236c 0.741 1.066 1.118 2.171 1.118 3.328c 0 1.027 -0.299 1.859 -0.91 2.522c -0.611 0.663 -1.417 1.001 -2.418 1.001c -0.689 0 -1.378 -0.169 -2.067 -0.52c -1.404 -0.689 -2.431 -1.781 -3.094 -3.25c -0.325 -0.741 -0.494 -1.469 -0.494 -2.21c 0 -2.041 1.326 -3.497 3.341 -3.497Z m 4.407 6.37c 0 -0.793 -0.195 -1.703 -0.585 -2.756c -0.455 -1.209 -1.157 -2.106 -2.132 -2.678c -0.052 0.286 -0.13 0.546 -0.234 0.78c -0.169 0.39 -0.481 0.585 -0.936 0.585c -0.715 0 -1.365 -0.65 -1.365 -1.365c 0 -0.117 0.013 -0.234 0.039 -0.325c -0.871 0.403 -1.3 1.222 -1.3 2.47c 0 0.546 0.104 1.209 0.325 1.989c 0.455 1.651 1.274 2.821 2.457 3.51c 0.559 0.312 1.079 0.468 1.56 0.468c 1.43 0 2.171 -1.183 2.171 -2.678Z m -3.887 -4.459c 0.481 0 0.728 -0.351 0.728 -1.04c 0 -0.117 -0.039 -0.182 -0.117 -0.208c -0.364 -0.156 -0.715 -0.234 -1.053 -0.234c -0.364 0 -0.546 0.169 -0.546 0.507c 0 0.494 0.494 0.975 0.988 0.975Z "/></symbol><symbol id="g6F1B2EC7690C574873AE01D06ED173C6" overflow="visible"><path d="M 0 0m 3.7765 2.2841c 0 1.0465 -0.6097 1.7927 -1.6289 1.7927c -0.546 0 -1.001 -0.2093 -1.3741 -0.637c -0.3458 -0.4004 -0.5187 -0.8827 -0.5187 -1.4378c 0 -0.5733 0.1911 -1.0556 0.5733 -1.4742c 0.3822 -0.4186 0.8554 -0.6279 1.4196 -0.6279c 0.5187 0 0.9191 0.182 1.1921 0.5369c 0.2275 0.3003 0.3367 0.5187 0.3367 0.6643c 0 0.091 -0.0546 0.1365 -0.1547 0.1365c -0.0728 0 -0.1183 -0.0455 -0.1456 -0.1456c -0.2002 -0.6006 -0.5915 -0.9009 -1.1739 -0.9009c -0.4095 0 -0.728 0.1911 -0.9737 0.5824c -0.1729 0.2821 -0.2548 0.7098 -0.2639 1.2922h 2.457c 0.2002 0 0.2548 0.0182 0.2548 0.2184Z m -0.8099 0.8918c 0.1001 -0.3003 0.1456 -0.5915 0.1456 -0.8554h -2.0384c 0.0273 0.6006 0.182 1.0101 0.455 1.2194c 0.2275 0.182 0.4277 0.273 0.6188 0.273c 0.4095 0 0.6825 -0.2093 0.819 -0.637Z "/></symbol><symbol id="g689CD2C8CC31657A53FE374FF94F6738" overflow="visible"><path d="M 0 0m 2.8574 3.7583c 0.4095 0 0.6188 -0.3185 0.6188 -0.9646v -2.0748c 0 -0.1729 -0.0273 -0.2821 -0.091 -0.3185c -0.0637 -0.0364 -0.2639 -0.0546 -0.6006 -0.0546v -0.3458l 1.0465 0.0273l 1.0374 -0.0273v 0.3458c -0.2912 0 -0.4823 0.0091 -0.5733 0.0364c -0.091 0.0273 -0.1274 0.091 -0.1274 0.2002v 1.7017c 0 0.4277 -0.0091 0.728 -0.0364 0.9009c -0.091 0.5551 -0.5005 0.8372 -1.2194 0.8372c -0.5733 0 -1.001 -0.273 -1.2831 -0.819v 0.819l -1.3377 -0.1001v -0.3458c 0.3276 0 0.5278 -0.0273 0.6006 -0.0819c 0.0728 -0.0546 0.1001 -0.1729 0.1001 -0.3822v -2.3933c 0 -0.1729 -0.0364 -0.2821 -0.1001 -0.3185c -0.0637 -0.0364 -0.2639 -0.0546 -0.6006 -0.0546v -0.3458l 1.0465 0.0273l 1.0374 -0.0273v 0.3458c -0.3367 0 -0.5278 0.0182 -0.5915 0.0546c -0.0637 0.0364 -0.1001 0.1456 -0.1001 0.3185v 1.638c 0 0.7371 0.4641 1.4014 1.1739 1.4014Z "/></symbol><symbol id="gC86B0FAB9444A46451EA9A07C4DA98BD" overflow="visible"><path d="M 0 0m 2.2841 3.7856c 0.3822 0 0.6734 -0.091 0.8736 -0.273c -0.2184 -0.0273 -0.3731 -0.2275 -0.3731 -0.4368c 0 -0.3003 0.1456 -0.4459 0.4459 -0.4459c 0.3003 0 0.4459 0.1547 0.4459 0.455c 0 0.6461 -0.7007 0.9919 -1.4014 0.9919c -0.5642 0 -1.0283 -0.2002 -1.4014 -0.6188c -0.3731 -0.4186 -0.5642 -0.9191 -0.5642 -1.4924c 0 -0.5551 0.1911 -1.0465 0.5642 -1.456c 0.3731 -0.4095 0.8281 -0.6097 1.3832 -0.6097c 0.455 0 0.8099 0.1274 1.0647 0.3913c 0.2093 0.2093 0.3458 0.4186 0.4186 0.637c 0.0273 0.0819 0.0364 0.1365 0.0364 0.1729c 0 0.0819 -0.0546 0.1183 -0.1547 0.1183c -0.0728 0 -0.1183 -0.0364 -0.1456 -0.1092c -0.1911 -0.6097 -0.5642 -0.9191 -1.1375 -0.9191c -0.2639 0 -0.5187 0.1183 -0.7735 0.364c -0.3003 0.2821 -0.4459 0.7553 -0.4459 1.4287c 0 0.91 0.3458 1.8018 1.1648 1.8018Z "/></symbol><symbol id="gC0145148BC36294A1E6393678561EC4B" overflow="visible"><path d="M 0 0m 2.964 -0.143c 0.52 0 1.001 0.143 1.443 0.429c 0.169 0.117 0.247 0.208 0.247 0.273c 0 0.156 -0.065 0.234 -0.182 0.234l -0.182 -0.091c -0.481 -0.312 -0.91 -0.468 -1.3 -0.468c -0.871 0 -1.326 0.702 -1.326 1.612c 0 0.338 0.039 0.689 0.13 1.04h 2.054c 0.325 0 0.481 0.091 0.481 0.26c 0 0.156 -0.143 0.234 -0.416 0.234h -1.989c 0.351 1.157 1.053 1.729 2.106 1.729h 0.39c 0.312 0 0.468 0.091 0.468 0.26c 0 0.156 -0.143 0.234 -0.429 0.234h -0.442c -0.923 0 -1.729 -0.312 -2.405 -0.949c -0.676 -0.637 -1.001 -1.404 -1.001 -2.327c 0 -1.404 0.949 -2.47 2.353 -2.47Z "/></symbol><symbol id="g66C287F757172C4FBEE46C9B113A6E1F" overflow="visible"><path d="M 0 0m 4.6956 2.9029c 0 1.0283 -0.182 1.8109 -0.5369 2.3478c -0.2912 0.455 -0.8736 0.7917 -1.5743 0.7917c -0.2912 0 -0.5551 -0.0455 -0.7826 -0.1456c -1.001 -0.4186 -1.3286 -1.5834 -1.3286 -2.9939c 0 -0.3094 0.0182 -0.6006 0.0455 -0.8827c 0.1547 -1.1921 0.7098 -2.2022 2.0657 -2.2022c 0.2912 0 0.5551 0.0455 0.7826 0.1456c 1.001 0.4095 1.3286 1.547 1.3286 2.9393Z m -1.0374 2.0202c 0.1001 -0.3367 0.1547 -0.9646 0.1547 -1.9019c 0 -0.8918 -0.0364 -1.5197 -0.1183 -1.8928c -0.1092 -0.5369 -0.4914 -0.9828 -1.1102 -0.9828c -0.2275 0 -0.455 0.0728 -0.6643 0.2275c -0.2821 0.2093 -0.455 0.6188 -0.5278 1.2467c -0.0273 0.2093 -0.0364 0.6734 -0.0364 1.4014c 0 0.8827 0.0455 1.4924 0.1365 1.82c 0.1547 0.5824 0.5187 0.8736 1.092 0.8736c 0.546 0 0.9464 -0.3549 1.0738 -0.7917Z "/></symbol></defs></svg>