<svg viewBox="0 0 246.172044444 53.30546" width="246.172044444pt" height="53.30546pt" xmlns="http://www.w3.org/2000/svg" xmlns:xlink="http://www.w3.org/1999/xlink" xmlns:h5="http://www.w3.org/1999/xhtml"><g transform="matrix(1 0 0 -1 6.5 29.90273)"><use xlink:href="#gF4455947FC057089CFA62E76F26386FD" x="0" y="0" fill="#e6edf3" fill-rule="nonzero"/></g><g transform="matrix(1 0 0 -1 16.796 29.90273)"><use xlink:href="#g2D7122AD31FABF41BED931716B883F58" x="0" y="0" fill="#e6edf3" fill-rule="nonzero"/></g><g transform="matrix(1 0 0 -1 21.853 29.90273)"><use xlink:href="#gF5FB9F3934311C9D089606536CC9B01A" x="0" y="0" fill="#e6edf3" fill-rule="nonzero"/></g><g transform="matrix(1 0 0 -1 27.885 29.90273)"><use xlink:href="#g2F93E6EEEE2061842AA37F49EEA2F1A2" x="0" y="0" fill="#e6edf3" fill-rule="nonzero"/></g><g transform="matrix(1 0 0 -1 36.553111111 29.90273)"><use xlink:href="#g13AFF74D87C474CFAF661EEAD0458F8B" x="0" y="0" fill="#e6edf3" fill-rule="nonzero"/></g><g transform="matrix(1 0 0 -1 50.278222222 49.40546)"><use xlink:href="#g345098F43CD7D9C5688169455C50E540" x="0" y="0" fill="#e6edf3" fill-rule="nonzero"/><use xlink:href="#gAA0156C0B76543080740CCD765C5C97E" x="0" y="6.514365" fill="#e6edf3" fill-rule="nonzero"/><use xlink:href="#g8B8F006753F11A35C3FEA63279BEBDEB" x="0" y="13.00273" fill="#e6edf3" fill-rule="nonzero"/><use xlink:href="#gAA0156C0B76543080740CCD765C5C97E" x="0" y="29.267095" fill="#e6edf3" fill-rule="nonzero"/><use xlink:href="#g3D09B6A900012F064C28F16B8E482B5F" x="0" y="35.75546" fill="#e6edf3" fill-rule="nonzero"/></g><g transform="matrix(1 0 0 -1 74.414672222 12.36573)"><use xlink:href="#g5A3419BA7D977510B8E0974DE0684B2" x="0" y="0" fill="#e6edf3" fill-rule="nonzero"/></g><g transform="matrix(1 0 0 -1 63.304222222 22.96203)"><use xlink:href="#gA606C0CE8C60E36688427617C8536C21" x="0" y="0" fill="#e6edf3" fill-rule="nonzero"/></g><g transform="matrix(1 0 0 -1 68.482122222 22.96203)"><use xlink:href="#gCC5579AAC0EE5A3145B8A0F2ECFB97BD" x="0" y="0" fill="#e6edf3" fill-rule="nonzero"/></g><g transform="matrix(1 0 0 -1 74.597322222 22.96203)"><use xlink:href="#g5E80B0744C6A59A6E5966DD4C843ED38" x="0" y="0" fill="#e6edf3" fill-rule="nonzero"/></g><g transform="matrix(1 0 0 -1 78.928922222 25.20973)"><use xlink:href="#gFA9C496F3B51D521A73CFA99F8A9D69F" x="0" y="0" fill="#e6edf3" fill-rule="nonzero"/></g><g transform="matrix(1 0 0 -1 83.865022222 22.96203)"><use xlink:href="#gC8D3C41E96247D923393A2468BB66E86" x="0" y="0" fill="#e6edf3" fill-rule="nonzero"/></g><g transform="matrix(1 0 0 -1 88.779022222 20.33213)"><use xlink:href="#g7594C19EACA82C804431EC922115ECFD" x="0" y="0" fill="#e6edf3" fill-rule="nonzero"/></g><path fill="none" stroke="#e6edf3" stroke-width="0.624" stroke-linecap="butt" stroke-linejoin="miter" stroke-miterlimit="4" transform="translate(63.304222222 15.06713)" d="M 0 0h 30.4109"/><g transform="matrix(1 0 0 -1 98.081822222 18.31713)"><use xlink:href="#gF5FB9F3934311C9D089606536CC9B01A" x="0" y="0" fill="#e6edf3" fill-rule="nonzero"/></g><g transform="matrix(1 0 0 -1 107.724933333 18.31713)"><use xlink:href="#g3A04ED2BED26798A89A96732901846A4" x="0" y="0" fill="#e6edf3" fill-rule="nonzero"/></g><g transform="matrix(1 0 0 -1 121.450044444 18.31713)"><use xlink:href="#g64EED7C1DC5EF9C242224A119317485D" x="0" y="0" fill="#e6edf3" fill-rule="nonzero"/></g><g transform="matrix(1 0 0 -1 73.491022222 34.35003)"><use xlink:href="#g5A3419BA7D977510B8E0974DE0684B2" x="0" y="0" fill="#e6edf3" fill-rule="nonzero"/></g><g transform="matrix(1 0 0 -1 81.681022222 34.35003)"><use xlink:href="#gC8D3C41E96247D923393A2468BB66E86" x="0" y="0" fill="#e6edf3" fill-rule="nonzero"/></g><g transform="matrix(1 0 0 -1 63.304222222 44.94633)"><use xlink:href="#gA606C0CE8C60E36688427617C8536C21" x="0" y="0" fill="#e6edf3" fill-rule="nonzero"/></g><g transform="matrix(1 0 0 -1 68.482122222 44.94633)"><use xlink:href="#gCC5579AAC0EE5A3145B8A0F2ECFB97BD" x="0" y="0" fill="#e6edf3" fill-rule="nonzero"/></g><g transform="matrix(1 0 0 -1 74.597322222 44.94633)"><use xlink:href="#g5E80B0744C6A59A6E5966DD4C843ED38" x="0" y="0" fill="#e6edf3" fill-rule="nonzero"/></g><g transform="matrix(1 0 0 -1 78.928922222 47.19403)"><use xlink:href="#gFA9C496F3B51D521A73CFA99F8A9D69F" x="0" y="0" fill="#e6edf3" fill-rule="nonzero"/></g><g transform="matrix(1 0 0 -1 83.865022222 44.94633)"><use xlink:href="#g81CABFA788D1C3B17E7F7308C44F3DF" x="0" y="0" fill="#e6edf3" fill-rule="nonzero"/></g><g transform="matrix(1 0 0 -1 91.845722222 42.31643)"><use xlink:href="#g3900F4A8FB8639A1C9962F77F4EBAF87" x="0" y="0" fill="#e6edf3" fill-rule="nonzero"/></g><path fill="none" stroke="#e6edf3" stroke-width="0.624" stroke-linecap="butt" stroke-linejoin="miter" stroke-miterlimit="4" transform="translate(63.304222222 37.05143)" d="M 0 0h 33.4776"/><g transform="matrix(1 0 0 -1 98.081822222 40.30143)"><use xlink:href="#gF5FB9F3934311C9D089606536CC9B01A" x="0" y="0" fill="#e6edf3" fill-rule="nonzero"/></g><g transform="matrix(1 0 0 -1 107.724933333 40.30143)"><use xlink:href="#g3CDB071E19D0E5A44EA9C23D26C7531F" x="0" y="0" fill="#e6edf3" fill-rule="nonzero"/></g><g transform="matrix(1 0 0 -1 121.450044444 40.30143)"><use xlink:href="#g64EED7C1DC5EF9C242224A119317485D" x="0" y="0" fill="#e6edf3" fill-rule="nonzero"/></g><g transform="matrix(1 0 0 -1 144.629044444 40.30143)"><use xlink:href="#g2D7122AD31FABF41BED931716B883F58" x="0" y="0" fill="#e6edf3" fill-rule="nonzero"/><use xlink:href="#g8B273DA24598714A1DE03FD5302C001A" x="5.057" y="0" fill="#e6edf3" fill-rule="nonzero"/><use xlink:href="#g3BE14B656A783D87D3540BF1AAF22AA9" x="10.829" y="0" fill="#e6edf3" fill-rule="nonzero"/><use xlink:href="#gCCDACA59E6D598A65CF16A9645890FC7" x="17.329" y="0" fill="#e6edf3" fill-rule="nonzero"/><use xlink:href="#gC6152AE651DB3C20E108D025AA5B86BB" x="22.425" y="0" fill="#e6edf3" fill-rule="nonzero"/><use xlink:href="#g3BE14B656A783D87D3540BF1AAF22AA9" x="28.925" y="0" fill="#e6edf3" fill-rule="nonzero"/><use xlink:href="#g639DFB7C802EA1E209EC54229B0444AB" x="39.741" y="0" fill="#e6edf3" fill-rule="nonzero"/><use xlink:href="#gA2276AEFE9378953E87817A497BFC175" x="46.969" y="0" fill="#e6edf3" fill-rule="nonzero"/><use xlink:href="#g49CA9B429DF3D7281052206316ECCC8A" x="54.197" y="0" fill="#e6edf3" fill-rule="nonzero"/><use xlink:href="#g9CF4C7F6E66EE1167F2DF83B88DA16D1" x="57.811" y="0" fill="#e6edf3" fill-rule="nonzero"/><use xlink:href="#g5D4DFCA3C00979A1E9076032CC813B65" x="61.789" y="0" fill="#e6edf3" fill-rule="nonzero"/><use xlink:href="#gCCDACA59E6D598A65CF16A9645890FC7" x="68.289" y="0" fill="#e6edf3" fill-rule="nonzero"/><use xlink:href="#g5B7304E1A312B7A0A314BC6F385C42DD" x="73.385" y="0" fill="#e6edf3" fill-rule="nonzero"/><use xlink:href="#g7413A85D70934E3816A3D1EE8499A939" x="84.214" y="0" fill="#e6edf3" fill-rule="nonzero"/><use xlink:href="#g2F93E6EEEE2061842AA37F49EEA2F1A2" x="89.986" y="0" fill="#e6edf3" fill-rule="nonzero"/></g><defs><symbol id="gF4455947FC057089CFA62E76F26386FD" overflow="visible"><path d="M 0 0m 2.587 8.528c 0 -0.13 0.143 -0.195 0.416 -0.195c 0.52 0 0.78 -0.052 0.78 -0.169c 0 -0.039 -0.026 -0.13 -0.065 -0.299l -1.69 -6.799c -0.065 -0.286 -0.195 -0.455 -0.39 -0.52c -0.091 -0.026 -0.325 -0.039 -0.728 -0.039c -0.286 0 -0.416 -0.026 -0.416 -0.299c 0 -0.143 0.143 -0.208 0.416 -0.208h 6.669c 0.312 0 0.338 0.026 0.442 0.247l 0.52 1.17c 0.351 0.806 0.598 1.404 0.741 1.807c -0.026 0.117 -0.065 0.195 -0.208 0.195c -0.091 0 -0.169 -0.065 -0.221 -0.182c -0.325 -0.767 -0.637 -1.352 -0.949 -1.768c -0.52 -0.702 -1.287 -0.962 -2.509 -0.962h -1.885c -0.13 0 -0.221 0 -0.273 0.013c -0.078 0 -0.117 0.026 -0.117 0.065c 0 0.026 0.026 0.117 0.065 0.286l 0.858 3.471h 1.235c 0.611 0 0.936 -0.078 1.001 -0.247c 0.026 -0.065 0.039 -0.156 0.039 -0.286c 0 -0.169 -0.026 -0.377 -0.091 -0.624c -0.026 -0.065 -0.039 -0.117 -0.039 -0.156c 0 -0.13 0.078 -0.195 0.221 -0.195c 0.117 0 0.195 0.104 0.247 0.299l 0.728 3.016c 0 0.13 -0.065 0.195 -0.208 0.195c -0.104 0 -0.182 -0.091 -0.221 -0.273c -0.13 -0.507 -0.299 -0.832 -0.52 -0.988c -0.221 -0.156 -0.585 -0.234 -1.118 -0.234h -1.144l 0.754 3.029c 0.104 0.442 0.104 0.455 0.65 0.455h 1.807c 0.663 0 1.118 -0.065 1.365 -0.195c 0.364 -0.195 0.546 -0.585 0.546 -1.17c 0 -0.221 -0.013 -0.455 -0.052 -0.676c 0 -0.026 0 -0.065 -0.013 -0.117v -0.117c 0 -0.143 0.065 -0.208 0.195 -0.208c 0.13 0 0.208 0.117 0.234 0.364l 0.26 2.223c 0.039 0.364 -0.052 0.403 -0.403 0.403h -6.487c -0.299 0 -0.442 -0.013 -0.442 -0.312Z "/></symbol><symbol id="g2D7122AD31FABF41BED931716B883F58" overflow="visible"><path d="M 0 0m 4.134 -3.224c 0.117 0 0.182 0.065 0.182 0.182c 0 0.039 -0.026 0.091 -0.065 0.143c -0.676 0.52 -1.222 1.378 -1.625 2.561c -0.351 1.027 -0.533 2.041 -0.533 3.042v 1.092c 0 1.001 0.182 2.015 0.533 3.042c 0.403 1.183 0.949 2.041 1.625 2.561c 0.039 0.039 0.065 0.091 0.065 0.143c 0 0.117 -0.065 0.182 -0.182 0.182c -0.013 0 -0.052 -0.013 -0.091 -0.039c -0.78 -0.598 -1.43 -1.482 -1.963 -2.665c -0.507 -1.131 -0.767 -2.197 -0.767 -3.224v -1.092c 0 -1.027 0.26 -2.093 0.767 -3.224c 0.533 -1.183 1.183 -2.067 1.963 -2.665c 0.039 -0.026 0.078 -0.039 0.091 -0.039Z "/></symbol><symbol id="gF5FB9F3934311C9D089606536CC9B01A" overflow="visible"><path d="M 0 0m 5.668 4.862c 0 0.546 -0.533 0.884 -1.105 0.884c -0.637 0 -1.17 -0.299 -1.612 -0.91c -0.13 0.507 -0.572 0.91 -1.183 0.91c -0.533 0 -0.923 -0.416 -1.196 -1.261c -0.13 -0.429 -0.195 -0.676 -0.195 -0.754c 0 -0.117 0.065 -0.182 0.208 -0.182c 0.065 0 0.104 0.013 0.143 0.039c 0.065 0.117 0.104 0.208 0.117 0.299c 0.234 0.988 0.533 1.482 0.884 1.482c 0.221 0 0.338 -0.182 0.338 -0.546c 0 -0.169 -0.065 -0.52 -0.195 -1.053l -0.741 -2.951c -0.039 -0.169 -0.117 -0.507 -0.117 -0.572c 0 -0.26 0.143 -0.39 0.416 -0.39c 0.26 0 0.429 0.13 0.52 0.39l 0.247 0.936c 0.143 0.559 0.234 0.923 0.273 1.092l 0.403 1.664c 0.026 0.104 0.13 0.273 0.299 0.52c 0.351 0.494 0.754 0.91 1.391 0.91c 0.156 0 0.286 -0.026 0.403 -0.091c -0.39 -0.117 -0.585 -0.364 -0.585 -0.715c 0 -0.338 0.182 -0.507 0.533 -0.507c 0.429 0 0.754 0.377 0.754 0.806Z "/></symbol><symbol id="g2F93E6EEEE2061842AA37F49EEA2F1A2" overflow="visible"><path d="M 0 0m 1.014 -3.185c 0.78 0.598 1.43 1.482 1.963 2.665c 0.507 1.131 0.767 2.197 0.767 3.224v 1.092c 0 1.027 -0.26 2.093 -0.767 3.224c -0.533 1.183 -1.183 2.067 -1.963 2.665c -0.039 0.026 -0.078 0.039 -0.091 0.039c -0.117 0 -0.182 -0.065 -0.182 -0.182c 0 -0.052 0.026 -0.104 0.065 -0.143c 0.676 -0.52 1.222 -1.378 1.625 -2.561c 0.351 -1.027 0.533 -2.041 0.533 -3.042v -1.092c 0 -1.001 -0.182 -2.015 -0.533 -3.042c -0.403 -1.183 -0.949 -2.041 -1.625 -2.561c -0.039 -0.052 -0.065 -0.104 -0.065 -0.143c 0 -0.117 0.065 -0.182 0.182 -0.182c 0.013 0 0.052 0.013 0.091 0.039Z "/></symbol><symbol id="g13AFF74D87C474CFAF661EEAD0458F8B" overflow="visible"><path d="M 0 0m 9.074 4.771h -8.034c -0.208 0 -0.312 -0.104 -0.312 -0.299c 0 -0.195 0.104 -0.299 0.312 -0.299h 8.034c 0.208 0 0.312 0.104 0.312 0.299c 0 0.156 -0.143 0.299 -0.312 0.299Z m 0 -2.444h -8.034c -0.208 0 -0.312 -0.104 -0.312 -0.299c 0 -0.195 0.104 -0.299 0.312 -0.299h 8.034c 0.208 0 0.312 0.104 0.312 0.299c 0 0.169 -0.143 0.299 -0.312 0.299Z "/></symbol><symbol id="g345098F43CD7D9C5688169455C50E540" overflow="visible"><path d="M 0 0m 9.399 0c 0.247 0 0.377 0.13 0.377 0.39c 0 0.169 -0.078 0.286 -0.247 0.351c -0.806 0.299 -1.508 0.845 -2.093 1.651c -0.585 0.806 -0.871 1.638 -0.871 2.483v 4.875h -1.404v -4.875c 0 -1.027 0.442 -2.015 1.339 -2.977c 0.793 -0.871 1.716 -1.495 2.769 -1.872c 0.052 -0.013 0.091 -0.026 0.13 -0.026Z "/></symbol><symbol id="gAA0156C0B76543080740CCD765C5C97E" overflow="visible"><path d="M 0 0m 5.161 0h 1.404v 9.724h -1.404Z "/></symbol><symbol id="g8B8F006753F11A35C3FEA63279BEBDEB" overflow="visible"><path d="M 0 0m 3.25 9.75c 1.534 0.832 3.315 2.717 3.315 4.849v 4.901h -1.404v -4.901c 0 -0.923 -0.273 -1.807 -0.832 -2.678c -0.585 -0.897 -1.287 -1.508 -2.132 -1.807c -0.169 -0.065 -0.247 -0.182 -0.247 -0.364c 0 -0.182 0.078 -0.299 0.247 -0.364c 0.845 -0.299 1.547 -0.91 2.132 -1.807c 0.559 -0.871 0.832 -1.755 0.832 -2.678v -4.901h 1.404v 4.901c 0 2.132 -1.781 4.017 -3.315 4.849Z "/></symbol><symbol id="g3D09B6A900012F064C28F16B8E482B5F" overflow="visible"><path d="M 0 0m 9.529 9.009c 0.169 0.065 0.247 0.182 0.247 0.351c 0 0.26 -0.13 0.39 -0.377 0.39c -0.039 0 -0.078 -0.013 -0.13 -0.026c -1.053 -0.377 -1.976 -1.001 -2.769 -1.872c -0.897 -0.962 -1.339 -1.95 -1.339 -2.977v -4.875h 1.404v 4.875c 0 0.845 0.286 1.677 0.871 2.483c 0.585 0.806 1.287 1.352 2.093 1.651Z "/></symbol><symbol id="g5A3419BA7D977510B8E0974DE0684B2" overflow="visible"><path d="M 0 0m 3.2851 -0.2002c 0.2821 0 0.5915 0.0364 0.91 0.1183v -0.4368c 0 -0.3367 0.0546 -0.6097 0.1547 -0.8372c 0.1183 -0.273 0.364 -0.4095 0.7371 -0.4095c 0.5642 0 1.0192 0.4277 1.2467 0.8281c 0.2639 0.455 0.4004 0.7735 0.4004 0.9555c 0 0.1092 -0.0546 0.1638 -0.1638 0.1638c -0.0819 0 -0.1365 -0.0455 -0.1547 -0.1365c -0.1365 -0.4186 -0.546 -0.7917 -1.0829 -0.7917c -0.4641 0 -0.5733 0.3458 -0.6734 0.819c 0.7917 0.2821 1.4651 0.7735 2.0202 1.4651c 0.5733 0.728 0.8645 1.5015 0.8645 2.3114c 0 0.7644 -0.2548 1.3832 -0.7553 1.8473c -0.5005 0.4641 -1.1284 0.7007 -1.8928 0.7007c -0.7098 0 -1.3923 -0.2002 -2.0566 -0.5915c -1.0829 -0.6461 -2.2113 -1.9292 -2.2113 -3.4944c 0 -1.5106 1.1193 -2.5116 2.6572 -2.5116Z m 3.3124 4.2952c 0 -0.5369 -0.1365 -1.1466 -0.4186 -1.8291c -0.3185 -0.8099 -0.8554 -1.4014 -1.6107 -1.7745c -0.1729 0.6188 -0.4823 0.9282 -0.9282 0.9282c -0.5096 0 -1.0374 -0.4277 -1.0374 -0.9373c 0 -0.0637 0 -0.1274 0.0091 -0.1729c -0.6916 0.273 -1.0374 0.8645 -1.0374 1.7745c 0 1.0283 0.3367 1.9565 1.001 2.7755c 0.4732 0.5824 1.3013 1.1739 2.2477 1.1739c 1.1102 0 1.7745 -0.8008 1.7745 -1.9383Z m -2.9575 -3.003c 0.3458 0 0.5278 -0.2548 0.5551 -0.7735c -0.2821 -0.1001 -0.5642 -0.1547 -0.8463 -0.1547c -0.2821 0 -0.4277 0.1092 -0.4277 0.3185c 0 0.3458 0.3731 0.6097 0.7189 0.6097Z "/></symbol><symbol id="gA606C0CE8C60E36688427617C8536C21" overflow="visible"><path d="M 0 0m 3.5854 6.1334c -0.1001 0 -0.1911 -0.0455 -0.2639 -0.1365l -2.9666 -4.1496v -0.3731h 2.6299v -0.7007c 0 -0.1547 -0.0273 -0.2639 -0.091 -0.3094c -0.0637 -0.0455 -0.2639 -0.0728 -0.5915 -0.0728h -0.2821v -0.3913l 1.3741 0.0364l 1.3923 -0.0364v 0.3913h -0.273c -0.3367 0 -0.5369 0.0273 -0.6006 0.0728c -0.0637 0.0455 -0.091 0.1547 -0.091 0.3094v 0.7007h 0.9919v 0.4004h -0.9919v 3.9676c 0 0.2184 -0.0273 0.2912 -0.2366 0.2912Z m -0.5369 -1.1193v -3.1395h -2.2568Z "/></symbol><symbol id="gCC5579AAC0EE5A3145B8A0F2ECFB97BD" overflow="visible"><path d="M 0 0m 4.0768 -0.091c 0.2275 0 0.455 0.2093 0.455 0.4368c 0 0.0455 -0.0273 0.1183 -0.0728 0.2184c -0.2184 0.4095 -0.3276 0.9282 -0.3276 1.5561c 0 0.3367 0.0364 0.7098 0.1183 1.1193h 1.092c 0.3458 0 0.5187 0.1274 0.5187 0.3913c 0 0.1911 -0.1365 0.2912 -0.4186 0.2912h -3.3852c -0.364 0 -0.7189 -0.1547 -1.0556 -0.4641c -0.1183 -0.1183 -0.2457 -0.2639 -0.3822 -0.4459c -0.1365 -0.182 -0.2093 -0.3003 -0.2093 -0.3458c 0 -0.1001 0.0637 -0.1456 0.1911 -0.1456c 0.0728 0 0.1365 0.0364 0.1911 0.1092c 0.2912 0.4095 0.6825 0.6097 1.183 0.6097h 0.5005c -0.1911 -0.6825 -0.5733 -1.5925 -1.1284 -2.7482c -0.0273 -0.0637 -0.0546 -0.1001 -0.0637 -0.1092c -0.0182 -0.0819 -0.0273 -0.1274 -0.0273 -0.1547c 0 -0.2093 0.1183 -0.3185 0.3458 -0.3185c 0.2002 0 0.364 0.1638 0.5005 0.4914c 0.0273 0.0819 0.1001 0.3276 0.2093 0.7462l 0.546 2.093h 1.001c -0.2184 -0.8645 -0.3276 -1.5379 -0.3276 -2.0202c 0 -0.5369 0.1365 -1.3104 0.546 -1.3104Z "/></symbol><symbol id="g5E80B0744C6A59A6E5966DD4C843ED38" overflow="visible"><path d="M 0 0m 3.549 3.9221h -0.3822c -0.6643 0 -1.2467 -0.2002 -1.7472 -0.6097c -0.5369 -0.4277 -0.8008 -0.9737 -0.8008 -1.6198c 0 -1.0556 0.8008 -1.7836 1.8564 -1.7836c 0.3822 0 0.7644 0.1092 1.1375 0.3185c 0.1365 0.0819 0.2093 0.1456 0.2093 0.2093c 0 0.1456 -0.0546 0.2184 -0.1638 0.2184c -0.0364 0 -0.0819 -0.0182 -0.1274 -0.0546c -0.3731 -0.2457 -0.7189 -0.3731 -1.0374 -0.3731c -0.2093 0 -0.4277 0.0728 -0.6552 0.2093c -0.2639 0.1729 -0.4004 0.4914 -0.4004 0.9555c 0 0.1911 0.0273 0.4004 0.0728 0.6097h 1.6471c 0.2275 0 0.3367 0.0637 0.3367 0.2002c 0 0.1638 -0.1274 0.1911 -0.3367 0.1911h -1.547c 0.2639 0.7553 0.7917 1.1375 1.5834 1.1375h 0.3367c 0.2275 0 0.3458 0.0637 0.3458 0.2002c 0 0.1638 -0.1183 0.1911 -0.3276 0.1911Z "/></symbol><symbol id="gFA9C496F3B51D521A73CFA99F8A9D69F" overflow="visible"><path d="M 0 0m 3.9065 2.08c 0 0.286 0 0.338 -0.039 0.637c -0.117 0.9165 -0.6045 1.612 -1.6575 1.612c -0.6825 0 -1.1505 -0.3055 -1.3845 -0.7475c -0.2275 -0.429 -0.312 -0.8775 -0.312 -1.5015c 0 -0.2275 0.013 -0.4355 0.039 -0.637c 0.117 -0.9035 0.611 -1.586 1.6575 -1.586c 0.676 0 1.1505 0.3055 1.3845 0.7345c 0.234 0.429 0.312 0.871 0.312 1.4885Z m -0.78 1.313c 0.0585 -0.2145 0.091 -0.624 0.091 -1.235c 0 -0.6435 -0.0325 -1.0855 -0.0975 -1.339c -0.1105 -0.429 -0.4225 -0.6955 -0.91 -0.6955c -0.1495 0 -0.312 0.039 -0.481 0.1105c -0.208 0.0975 -0.351 0.2925 -0.429 0.598c -0.065 0.247 -0.0975 0.689 -0.0975 1.326c 0 0.6175 0.0325 1.0465 0.104 1.274c 0.1235 0.4225 0.4225 0.6305 0.9035 0.6305c 0.4875 0 0.793 -0.221 0.9165 -0.6695Z "/></symbol><symbol id="gC8D3C41E96247D923393A2468BB66E86" overflow="visible"><path d="M 0 0m 4.6592 3.3215c 0 0.4732 -0.4823 0.6916 -0.9828 0.6916c -0.4641 0 -0.8827 -0.2002 -1.2467 -0.6006c -0.0546 0.1456 -0.1365 0.2639 -0.2548 0.364c -0.2093 0.1547 -0.4368 0.2366 -0.6825 0.2366c -0.3094 0 -0.5551 -0.1547 -0.728 -0.4732c -0.2275 -0.3913 -0.3367 -0.7007 -0.3367 -0.9282c 0 -0.1001 0.0637 -0.1547 0.1911 -0.1547c 0.182 0 0.1729 0.1001 0.2275 0.2912c 0.1547 0.6279 0.364 0.9464 0.6188 0.9464c 0.1729 0 0.2639 -0.1365 0.2639 -0.4095c 0 -0.1001 -0.0455 -0.3367 -0.1456 -0.728l -0.4823 -1.9474c -0.0637 -0.2457 -0.091 -0.3731 -0.091 -0.3822c 0 -0.2093 0.1092 -0.3185 0.3367 -0.3185c 0.3185 0 0.4095 0.2002 0.4823 0.5005c 0.2002 0.8281 0.3549 1.4469 0.4641 1.8746c 0.0819 0.2912 0.1183 0.4459 0.1183 0.455c 0.0091 0.0455 0.0728 0.1547 0.1911 0.3185c 0.3003 0.4277 0.6552 0.637 1.0647 0.637c 0.1547 0 0.2912 -0.0273 0.4004 -0.0819c -0.2275 -0.1001 -0.3367 -0.2639 -0.3367 -0.5005c 0 -0.2184 0.1729 -0.3731 0.3913 -0.3731c 0.3094 0 0.5369 0.273 0.5369 0.5824Z "/></symbol><symbol id="g7594C19EACA82C804431EC922115ECFD" overflow="visible"><path d="M 0 0m 0.988 2.756c 0.234 0 0.403 0.169 0.403 0.403c 0 0.2275 -0.117 0.364 -0.3445 0.403c 0.2015 0.2925 0.5135 0.4355 0.936 0.4355c 0.6175 0 1.1115 -0.3835 1.1115 -0.9815c 0 -0.4095 -0.286 -0.858 -0.858 -1.3455l -1.56 -1.3325c -0.052 -0.0455 -0.078 -0.0845 -0.0845 -0.117v -0.221h 3.0225l 0.221 1.2935h -0.325c -0.0585 -0.351 -0.117 -0.546 -0.1755 -0.5915c -0.0325 -0.0195 -0.26 -0.0325 -0.6695 -0.0325h -1.1765c 0.8385 0.6175 1.0205 0.741 1.56 1.1245c 0.26 0.1885 0.442 0.364 0.5525 0.5265c 0.1495 0.2275 0.2275 0.4615 0.2275 0.702c 0 0.4355 -0.1885 0.767 -0.559 1.001c -0.3185 0.2015 -0.702 0.3055 -1.157 0.3055c -0.3835 0 -0.7215 -0.0975 -1.014 -0.286c -0.338 -0.2145 -0.507 -0.507 -0.507 -0.871c 0 -0.247 0.195 -0.416 0.3965 -0.416Z "/></symbol><symbol id="g3A04ED2BED26798A89A96732901846A4" overflow="visible"><path d="M 0 0m 8.918 2.951c 0.13 0.065 0.195 0.156 0.195 0.299c 0 0.143 -0.065 0.234 -0.195 0.299l -7.462 3.536c -0.039 0.013 -0.091 0.026 -0.143 0.026c -0.208 0 -0.312 -0.104 -0.312 -0.325c 0 -0.117 0.065 -0.208 0.182 -0.26l 6.942 -3.276l -6.942 -3.276c -0.117 -0.052 -0.182 -0.143 -0.182 -0.26c 0 -0.221 0.104 -0.325 0.312 -0.325c 0.052 0 0.104 0.013 0.143 0.026Z "/></symbol><symbol id="g64EED7C1DC5EF9C242224A119317485D" overflow="visible"><path d="M 0 0m 9.607 6.903c 0 0.663 -0.338 1.17 -1.001 1.534c -0.533 0.299 -1.17 0.442 -1.885 0.442h -3.666c -0.299 0 -0.429 -0.013 -0.429 -0.312c 0 -0.091 0.039 -0.156 0.117 -0.169c 0.13 -0.013 0.234 -0.026 0.299 -0.026c 0.39 -0.013 0.611 -0.039 0.676 -0.052c 0.065 -0.013 0.104 -0.052 0.104 -0.117c 0 -0.026 -0.013 -0.104 -0.052 -0.234l -1.716 -6.903c -0.065 -0.286 -0.195 -0.468 -0.39 -0.533c -0.091 -0.026 -0.325 -0.039 -0.728 -0.039c -0.286 0 -0.403 -0.013 -0.403 -0.299c 0 -0.143 0.078 -0.208 0.234 -0.195l 1.612 0.039l 1.638 -0.039c 0.208 -0.013 0.312 0.104 0.312 0.299c 0 0.13 -0.143 0.195 -0.416 0.195c -0.52 0 -0.78 0.065 -0.78 0.182c 0 0 0.013 0.026 0.039 0.208l 0.832 3.367h 1.495c 0.897 0 1.352 -0.377 1.352 -1.118c 0 -0.117 -0.065 -0.403 -0.182 -0.871c -0.143 -0.546 -0.208 -0.91 -0.208 -1.105c 0 -0.988 0.767 -1.443 1.755 -1.443c 0.364 0 0.715 0.169 1.066 0.494c 0.351 0.325 0.533 0.676 0.533 1.04c 0 0.13 -0.065 0.195 -0.208 0.195c -0.091 0 -0.169 -0.065 -0.208 -0.208c -0.143 -0.403 -0.325 -0.702 -0.533 -0.871c -0.208 -0.169 -0.403 -0.26 -0.598 -0.26c -0.299 0 -0.455 0.247 -0.455 0.728c 0 0.312 0.039 0.793 0.13 1.456c 0.039 0.273 0.052 0.468 0.052 0.611c 0 0.689 -0.364 1.196 -1.092 1.508c 1.222 0.299 2.704 1.17 2.704 2.496Z m -1.69 1.105c 0.26 -0.169 0.39 -0.455 0.39 -0.858c 0 -0.26 -0.052 -0.559 -0.169 -0.91c -0.351 -1.066 -1.235 -1.599 -2.652 -1.599h -1.378l 0.819 3.289c 0.065 0.273 0.169 0.416 0.312 0.429c 0.065 0.013 0.325 0.013 0.78 0.013c 0.845 0 1.339 -0.026 1.898 -0.364Z "/></symbol><symbol id="g81CABFA788D1C3B17E7F7308C44F3DF" overflow="visible"><path d="M 0 0m 7.4529 4.7957c 0 0.4823 -0.273 0.8463 -0.8099 1.1102c -0.4277 0.2093 -0.91 0.3094 -1.4469 0.3094h -2.7664c -0.2093 0 -0.3276 -0.0273 -0.3276 -0.2366c 0 -0.1001 0.0637 -0.1456 0.1911 -0.1547l 0.4732 -0.0182c 0.1183 -0.0091 0.1729 0 0.1729 -0.091l -1.2285 -4.9686c -0.0455 -0.182 -0.1365 -0.2912 -0.273 -0.3367c -0.0455 -0.0091 -0.2093 -0.0182 -0.4823 -0.0182h -0.1547c -0.1001 -0.0091 -0.1547 -0.0819 -0.1547 -0.2184c 0 -0.1183 0.0637 -0.1729 0.182 -0.1729c 0.364 0 0.7735 0.0455 1.1466 0.0364l 0.5824 -0.0091c 0.1092 0 0.4823 -0.0273 0.6006 -0.0273c 0.1547 0 0.2275 0.0728 0.2275 0.2184c 0 0.1001 -0.0546 0.1638 -0.1547 0.1729h -0.182c -0.2821 0 -0.4459 0.0182 -0.4914 0.0546c -0.0091 0.0091 -0.0091 0.0273 -0.0091 0.0637l 0.5915 2.4388h 1.2012c 0.5733 0 1.0738 -0.2457 1.0738 -0.7735c 0 -0.0637 -0.0455 -0.273 -0.1274 -0.6188c -0.1001 -0.4095 -0.1456 -0.6461 -0.1456 -0.7098c 0 -0.6916 0.6188 -1.0283 1.3559 -1.0283c 0.273 0 0.546 0.1183 0.819 0.3458c 0.273 0.2275 0.4095 0.4732 0.4095 0.7371c 0 0.1001 -0.0637 0.1547 -0.1911 0.1547c -0.091 0 -0.1547 -0.0546 -0.1911 -0.1729c -0.1092 -0.3276 -0.4095 -0.7371 -0.8099 -0.7371c -0.2457 0 -0.364 0.182 -0.364 0.546c 0 0.2093 0.0273 0.5187 0.091 0.9282c 0.0273 0.1638 0.0364 0.3094 0.0364 0.4277c 0 0.4732 -0.2639 0.819 -0.7826 1.0374c 0.8372 0.2184 1.9383 0.8099 1.9383 1.7108Z m -1.2831 0.7553c 0.1911 -0.1183 0.2821 -0.3185 0.2821 -0.6188c 0 -0.2093 -0.0455 -0.4277 -0.1456 -0.6643c -0.273 -0.6643 -0.9282 -0.9919 -1.9565 -0.9919h -1.1193l 0.5642 2.2659c 0.0546 0.1911 0.0364 0.2548 0.2457 0.273h 0.5824c 0.7007 0 1.0829 0.0091 1.547 -0.2639Z "/></symbol><symbol id="g3900F4A8FB8639A1C9962F77F4EBAF87" overflow="visible"><path d="M 0 0m 2.769 2.288c 0.6045 0.2275 0.91 0.5915 0.91 1.0985c 0 0.312 -0.182 0.559 -0.5395 0.7345c -0.286 0.1365 -0.6045 0.208 -0.949 0.208c -0.3575 0 -0.6695 -0.065 -0.936 -0.195c -0.3445 -0.169 -0.5135 -0.416 -0.5135 -0.741c 0 -0.234 0.1625 -0.4095 0.3965 -0.4095c 0.221 0 0.39 0.1755 0.39 0.3965c 0 0.2015 -0.0975 0.3315 -0.286 0.377c 0.195 0.1885 0.507 0.2795 0.9295 0.2795c 0.442 0 0.7735 -0.2275 0.7735 -0.65c 0 -0.533 -0.3835 -0.9425 -0.8905 -0.975c -0.221 -0.013 -0.3445 -0.0195 -0.3705 -0.0195c -0.1105 -0.0065 -0.1625 -0.052 -0.1625 -0.13c 0 -0.1365 0.065 -0.1365 0.2015 -0.1365h 0.4225c 0.598 0 0.9555 -0.377 0.9555 -0.975c 0 -0.6045 -0.351 -0.9815 -0.949 -0.9815c -0.5135 0 -0.884 0.0975 -1.105 0.2925c 0.208 0.052 0.312 0.1885 0.312 0.4095c 0 0.2405 -0.182 0.416 -0.416 0.416c -0.2535 0 -0.4225 -0.1755 -0.4225 -0.429c 0 -0.3575 0.195 -0.6305 0.5915 -0.806c 0.2925 -0.13 0.6435 -0.195 1.0595 -0.195c 0.4225 0 0.806 0.104 1.144 0.312c 0.39 0.247 0.585 0.572 0.585 0.975c 0 0.611 -0.5785 1.0075 -1.131 1.144Z "/></symbol><symbol id="g3CDB071E19D0E5A44EA9C23D26C7531F" overflow="visible"><path d="M 0 0m 8.658 -0.585c 0.221 -0.091 0.455 0.078 0.455 0.286c 0 0.13 -0.065 0.221 -0.182 0.273l -6.942 3.276l 6.942 3.276c 0.117 0.052 0.182 0.143 0.182 0.26c 0 0.221 -0.104 0.325 -0.312 0.325c -0.052 0 -0.104 -0.013 -0.143 -0.026l -7.462 -3.536c -0.13 -0.065 -0.195 -0.156 -0.195 -0.299c 0 -0.143 0.065 -0.234 0.195 -0.299Z "/></symbol><symbol id="g8B273DA24598714A1DE03FD5302C001A" overflow="visible"><path d="M 0 0m 3.263 5.408c 0.546 0 0.962 -0.13 1.248 -0.39c -0.312 -0.039 -0.533 -0.325 -0.533 -0.624c 0 -0.429 0.208 -0.637 0.637 -0.637c 0.429 0 0.637 0.221 0.637 0.65c 0 0.923 -1.001 1.417 -2.002 1.417c -0.806 0 -1.469 -0.286 -2.002 -0.884c -0.533 -0.598 -0.806 -1.313 -0.806 -2.132c 0 -0.793 0.273 -1.495 0.806 -2.08c 0.533 -0.585 1.183 -0.871 1.976 -0.871c 0.65 0 1.157 0.182 1.521 0.559c 0.299 0.299 0.494 0.598 0.598 0.91c 0.039 0.117 0.052 0.195 0.052 0.247c 0 0.117 -0.078 0.169 -0.221 0.169c -0.104 0 -0.169 -0.052 -0.208 -0.156c -0.273 -0.871 -0.806 -1.313 -1.625 -1.313c -0.377 0 -0.741 0.169 -1.105 0.52c -0.429 0.403 -0.637 1.079 -0.637 2.041c 0 1.3 0.494 2.574 1.664 2.574Z "/></symbol><symbol id="g3BE14B656A783D87D3540BF1AAF22AA9" overflow="visible"><path d="M 0 0m 6.279 1.183v 0.767h -0.416v -0.767c 0 -0.507 -0.143 -0.767 -0.416 -0.767c -0.26 0 -0.416 0.325 -0.416 0.585v 2.561c 0 0.455 -0.052 0.793 -0.143 1.027c -0.312 0.767 -1.209 1.235 -2.119 1.235c -1.001 0 -1.989 -0.559 -1.989 -1.495c 0 -0.429 0.221 -0.65 0.65 -0.65c 0.429 0 0.637 0.208 0.637 0.637c 0 0.377 -0.195 0.598 -0.598 0.637c 0.286 0.325 0.715 0.494 1.274 0.494c 0.806 0 1.3 -0.741 1.3 -1.586v -0.429c -1.014 -0.065 -1.781 -0.221 -2.314 -0.468c -0.871 -0.403 -1.313 -0.962 -1.313 -1.703c 0 -0.338 0.13 -0.624 0.377 -0.845c 0.416 -0.377 0.988 -0.559 1.716 -0.559c 0.767 0 1.313 0.325 1.651 0.988c 0.091 -0.494 0.455 -0.923 1.014 -0.923c 0.689 0 1.105 0.546 1.105 1.261Z m -3.679 -0.949c -0.598 0 -1.092 0.442 -1.092 1.04c 0 1.209 1.261 1.729 2.535 1.794v -1.235c 0 -0.871 -0.572 -1.599 -1.443 -1.599Z "/></symbol><symbol id="gCCDACA59E6D598A65CF16A9645890FC7" overflow="visible"><path d="M 0 0m 4.732 4.914c 0 0.507 -0.481 0.832 -0.988 0.832c -0.663 0 -1.17 -0.39 -1.508 -1.183v 1.183l -1.872 -0.143v -0.494c 0.455 0 0.728 -0.039 0.832 -0.117c 0.104 -0.078 0.156 -0.247 0.156 -0.546v -3.419c 0 -0.247 -0.039 -0.403 -0.13 -0.455c -0.091 -0.052 -0.377 -0.078 -0.858 -0.078v -0.494l 1.495 0.039c 0.546 0.013 1.105 0 1.664 -0.039v 0.494h -0.312c -0.429 0 -0.702 0.039 -0.793 0.104c -0.091 0.065 -0.13 0.221 -0.13 0.455v 1.963c 0 0.559 0.104 1.066 0.299 1.495c 0.26 0.559 0.637 0.845 1.144 0.858c -0.13 -0.13 -0.195 -0.286 -0.195 -0.468c 0 -0.403 0.195 -0.598 0.598 -0.598c 0.351 0 0.598 0.273 0.598 0.611Z "/></symbol><symbol id="gC6152AE651DB3C20E108D025AA5B86BB" overflow="visible"><path d="M 0 0m 5.603 5.889c -0.494 0 -0.949 -0.195 -1.365 -0.585c -0.39 0.299 -0.832 0.442 -1.339 0.442c -1.118 0 -2.132 -0.832 -2.132 -1.924c 0 -0.546 0.195 -0.988 0.585 -1.326c -0.247 -0.312 -0.377 -0.663 -0.377 -1.066c 0 -0.494 0.169 -0.871 0.494 -1.118c -0.546 -0.182 -1.105 -0.65 -1.105 -1.313c 0 -0.559 0.364 -1.001 1.079 -1.313c 0.546 -0.247 1.144 -0.364 1.794 -0.364c 0.663 0 1.274 0.117 1.82 0.364c 0.715 0.312 1.066 0.754 1.066 1.339c 0 0.689 -0.286 1.196 -0.858 1.521c -0.598 0.325 -1.261 0.364 -2.223 0.364c -0.572 0 -0.884 0 -0.949 0.013c -0.364 0.052 -0.624 0.403 -0.624 0.806c 0 0.195 0.052 0.377 0.169 0.533c 0.364 -0.247 0.78 -0.377 1.261 -0.377c 1.118 0 2.119 0.832 2.119 1.924c 0 0.507 -0.169 0.923 -0.507 1.248c 0.325 0.299 0.676 0.442 1.053 0.442c -0.065 -0.065 -0.104 -0.169 -0.104 -0.299c 0 -0.286 0.143 -0.429 0.429 -0.429c 0.273 0 0.416 0.143 0.416 0.442c 0 0.403 -0.312 0.676 -0.702 0.676Z m -2.704 -0.546c 0.702 0 1.053 -0.507 1.053 -1.521c 0 -1.027 -0.351 -1.547 -1.053 -1.547c -0.715 0 -1.066 0.507 -1.066 1.534c 0 1.027 0.351 1.534 1.066 1.534Z m -0.767 -5.291h 0.754c 0.676 0 1.222 -0.039 1.638 -0.13c 0.559 -0.117 0.832 -0.429 0.832 -0.923c 0 -0.416 -0.26 -0.741 -0.78 -0.988c -0.403 -0.195 -0.845 -0.286 -1.326 -0.286c -0.468 0 -0.91 0.091 -1.326 0.286c -0.533 0.247 -0.793 0.572 -0.793 0.988c 0 0.546 0.468 1.053 1.001 1.053Z "/></symbol><symbol id="g639DFB7C802EA1E209EC54229B0444AB" overflow="visible"><path d="M 0 0m 3.471 0.234c -0.897 0 -1.066 0.377 -1.066 1.222v 4.29l -1.989 -0.143v -0.494c 0.507 0 0.806 -0.052 0.884 -0.143c 0.078 -0.091 0.117 -0.416 0.117 -0.988v -1.911c 0 -0.507 0.039 -0.897 0.13 -1.196c 0.195 -0.676 0.91 -1.014 1.859 -1.014c 0.702 0 1.235 0.325 1.599 0.988v -0.988l 1.95 0.143v 0.494c -0.468 0 -0.741 0.026 -0.845 0.104c -0.104 0.078 -0.156 0.26 -0.156 0.559v 4.589l -1.976 -0.143v -0.494c 0.455 0 0.728 -0.039 0.832 -0.117c 0.104 -0.078 0.156 -0.247 0.156 -0.546v -2.275c 0 -1.027 -0.546 -1.937 -1.495 -1.937Z "/></symbol><symbol id="gA2276AEFE9378953E87817A497BFC175" overflow="visible"><path d="M 0 0m 4.082 5.369c 0.585 0 0.884 -0.455 0.884 -1.378v -2.964c 0 -0.247 -0.039 -0.403 -0.13 -0.455c -0.091 -0.052 -0.377 -0.078 -0.858 -0.078v -0.494l 1.495 0.039l 1.482 -0.039v 0.494c -0.416 0 -0.689 0.013 -0.819 0.052c -0.13 0.039 -0.182 0.13 -0.182 0.286v 2.431c 0 0.611 -0.013 1.04 -0.052 1.287c -0.13 0.793 -0.715 1.196 -1.742 1.196c -0.819 0 -1.43 -0.39 -1.833 -1.17v 1.17l -1.911 -0.143v -0.494c 0.468 0 0.754 -0.039 0.858 -0.117c 0.104 -0.078 0.143 -0.247 0.143 -0.546v -3.419c 0 -0.247 -0.052 -0.403 -0.143 -0.455c -0.091 -0.052 -0.377 -0.078 -0.858 -0.078v -0.494l 1.495 0.039l 1.482 -0.039v 0.494c -0.481 0 -0.754 0.026 -0.845 0.078c -0.091 0.052 -0.143 0.208 -0.143 0.455v 2.34c 0 1.053 0.663 2.002 1.677 2.002Z "/></symbol><symbol id="g49CA9B429DF3D7281052206316ECCC8A" overflow="visible"><path d="M 0 0m 2.522 7.813c 0 0.39 -0.325 0.728 -0.715 0.728c -0.39 0 -0.728 -0.338 -0.728 -0.728c 0 -0.39 0.325 -0.741 0.715 -0.741c 0.403 0 0.728 0.338 0.728 0.741Z m -0.663 -7.774l 1.352 -0.039v 0.507c -0.429 0 -0.689 0.026 -0.767 0.078c -0.078 0.052 -0.104 0.195 -0.104 0.429v 4.771l -1.859 -0.156v -0.494c 0.429 0 0.702 -0.039 0.793 -0.104c 0.091 -0.065 0.13 -0.247 0.13 -0.546v -3.458c 0 -0.247 -0.039 -0.403 -0.13 -0.455c -0.091 -0.052 -0.377 -0.065 -0.845 -0.065v -0.507Z "/></symbol><symbol id="g9CF4C7F6E66EE1167F2DF83B88DA16D1" overflow="visible"><path d="M 0 0m 3.445 9.165c -1.157 0 -2.015 -0.936 -2.015 -2.093v -1.43h -1.001v -0.494h 1.001v -4.121c 0 -0.247 -0.039 -0.403 -0.13 -0.455c -0.091 -0.052 -0.377 -0.065 -0.858 -0.065v -0.507l 1.495 0.039c 0.546 0.013 1.105 0 1.664 -0.039v 0.507h -0.312c -0.429 0 -0.702 0.026 -0.793 0.091c -0.091 0.065 -0.13 0.221 -0.13 0.455v 4.095h 1.456v 0.494h -1.495v 1.443c 0 0.78 0.403 1.69 1.118 1.69c 0.104 0 0.195 -0.013 0.286 -0.039c -0.195 -0.104 -0.299 -0.286 -0.299 -0.533c 0 -0.403 0.195 -0.611 0.598 -0.611c 0.403 0 0.611 0.208 0.611 0.624c 0 0.585 -0.611 0.949 -1.196 0.949Z "/></symbol><symbol id="g5D4DFCA3C00979A1E9076032CC813B65" overflow="visible"><path d="M 0 0m 3.237 -0.143c 0.806 0 1.482 0.286 2.041 0.858c 0.559 0.572 0.845 1.261 0.845 2.067c 0 0.819 -0.273 1.534 -0.819 2.132c -0.546 0.598 -1.235 0.91 -2.054 0.91c -0.819 0 -1.495 -0.312 -2.054 -0.91c -0.559 -0.598 -0.832 -1.313 -0.832 -2.132c 0 -0.806 0.273 -1.495 0.832 -2.067c 0.559 -0.572 1.248 -0.858 2.041 -0.858Z m 0.013 0.416c -0.624 0 -1.092 0.273 -1.417 0.832c -0.208 0.364 -0.312 0.962 -0.312 1.781c 0 0.793 0.104 1.365 0.299 1.729c 0.312 0.559 0.78 0.832 1.417 0.832c 0.611 0 1.079 -0.273 1.404 -0.806c 0.221 -0.364 0.325 -0.949 0.325 -1.755c 0 -1.508 -0.442 -2.613 -1.716 -2.613Z "/></symbol><symbol id="g5B7304E1A312B7A0A314BC6F385C42DD" overflow="visible"><path d="M 0 0m 4.095 5.369c 0.598 0 0.897 -0.455 0.897 -1.378v -2.964c 0 -0.247 -0.039 -0.403 -0.13 -0.455c -0.091 -0.052 -0.39 -0.078 -0.871 -0.078v -0.494l 1.508 0.039l 1.495 -0.039v 0.494c -0.481 0 -0.767 0.026 -0.858 0.078c -0.091 0.052 -0.143 0.208 -0.143 0.455v 2.34c 0 1.04 0.676 2.002 1.677 2.002c 0.611 0 0.91 -0.455 0.91 -1.378v -2.964c 0 -0.247 -0.052 -0.403 -0.143 -0.455c -0.091 -0.052 -0.39 -0.078 -0.871 -0.078v -0.494l 1.508 0.039l 1.495 -0.039v 0.494c -0.416 0 -0.689 0.013 -0.819 0.052c -0.13 0.039 -0.182 0.13 -0.182 0.286v 2.431c 0 0.611 -0.026 1.04 -0.065 1.287c -0.13 0.793 -0.715 1.196 -1.742 1.196c -0.819 0 -1.43 -0.377 -1.846 -1.144c -0.182 0.767 -0.754 1.144 -1.729 1.144c -0.819 0 -1.443 -0.39 -1.859 -1.17v 1.17l -1.911 -0.143v -0.494c 0.468 0 0.754 -0.039 0.858 -0.117c 0.104 -0.078 0.143 -0.247 0.143 -0.546v -3.419c 0 -0.247 -0.052 -0.403 -0.143 -0.455c -0.091 -0.052 -0.377 -0.078 -0.858 -0.078v -0.494l 1.508 0.039l 1.495 -0.039v 0.494c -0.481 0 -0.78 0.026 -0.871 0.078c -0.091 0.052 -0.143 0.208 -0.143 0.455v 2.34c 0 1.053 0.689 2.002 1.69 2.002Z "/></symbol><symbol id="g7413A85D70934E3816A3D1EE8499A939" overflow="visible"><path d="M 0 0m 5.395 3.263c 0 1.495 -0.871 2.561 -2.327 2.561c -0.78 0 -1.43 -0.299 -1.963 -0.91c -0.494 -0.572 -0.741 -1.261 -0.741 -2.054c 0 -0.819 0.273 -1.508 0.819 -2.106c 0.546 -0.598 1.222 -0.897 2.028 -0.897c 0.741 0 1.313 0.26 1.703 0.767c 0.325 0.429 0.481 0.741 0.481 0.949c 0 0.13 -0.078 0.195 -0.221 0.195c -0.104 0 -0.169 -0.065 -0.208 -0.208c -0.286 -0.858 -0.845 -1.287 -1.677 -1.287c -0.585 0 -1.04 0.273 -1.391 0.832c -0.247 0.403 -0.364 1.014 -0.377 1.846h 3.51c 0.286 0 0.364 0.026 0.364 0.312Z m -1.157 1.274c 0.143 -0.429 0.208 -0.845 0.208 -1.222h -2.912c 0.039 0.858 0.26 1.443 0.65 1.742c 0.325 0.26 0.611 0.39 0.884 0.39c 0.585 0 0.975 -0.299 1.17 -0.91Z "/></symbol></defs></svg>