<svg viewBox="0 0 322.930544444 42.6998" width="322.930544444pt" height="42.6998pt" xmlns="http://www.w3.org/2000/svg" xmlns:xlink="http://www.w3.org/1999/xlink" xmlns:h5="http://www.w3.org/1999/xhtml"><g transform="matrix(1 0 0 -1 6.5 24.7598)"><use xlink:href="#g67F14AC23942C2CCA8D4F8A1F079A1D1" x="0" y="0" fill="#e6edf3" fill-rule="nonzero"/></g><g transform="matrix(1 0 0 -1 14.755 27.9708)"><use xlink:href="#gDE2B0DCD42F709297493CB2FA2EBD985" x="0" y="0" fill="#e6edf3" fill-rule="nonzero"/></g><g transform="matrix(1 0 0 -1 23.731788889 24.7598)"><use xlink:href="#g9B543B57F718853EF8F95EF155B6CF69" x="0" y="0" fill="#e6edf3" fill-rule="nonzero"/></g><g transform="matrix(1 0 0 -1 36.734677778 24.7598)"><use xlink:href="#g67F14AC23942C2CCA8D4F8A1F079A1D1" x="0" y="0" fill="#e6edf3" fill-rule="nonzero"/></g><g transform="matrix(1 0 0 -1 44.989677778 27.9708)"><use xlink:href="#gB520C4FDFB2403295A40FD77402E9185" x="0" y="0" fill="#e6edf3" fill-rule="nonzero"/></g><g transform="matrix(1 0 0 -1 57.418688889 24.7598)"><use xlink:href="#g13AFF74D87C474CFAF661EEAD0458F8B" x="0" y="0" fill="#e6edf3" fill-rule="nonzero"/></g><g transform="matrix(1 0 0 -1 72.4438 14.6614)"><use xlink:href="#g2D1FD5FA7721AD843D67732819992226" x="0" y="0" fill="#e6edf3" fill-rule="nonzero"/></g><g transform="matrix(1 0 0 -1 81.9598 14.6614)"><use xlink:href="#g53251C539233983FE9FC826CA7FBAC4A" x="0" y="0" fill="#e6edf3" fill-rule="nonzero"/></g><g transform="matrix(1 0 0 -1 92.3208 14.6614)"><use xlink:href="#g183B7F76720C9CEFDB35CD9597C39B17" x="0" y="0" fill="#e6edf3" fill-rule="nonzero"/></g><g transform="matrix(1 0 0 -1 100.6408 9.9424)"><use xlink:href="#g8A6A9074F91D642F82CC8BE39AC39D3A" x="0" y="0" fill="#e6edf3" fill-rule="nonzero"/></g><g transform="matrix(1 0 0 -1 100.6408 17.8724)"><use xlink:href="#gDE2B0DCD42F709297493CB2FA2EBD985" x="0" y="0" fill="#e6edf3" fill-rule="nonzero"/></g><g transform="matrix(1 0 0 -1 81.75635 33.6778)"><use xlink:href="#g8BD9E367B0D1CE61F83DBB1091E8830A" x="0" y="0" fill="#e6edf3" fill-rule="nonzero"/></g><g transform="matrix(1 0 0 -1 89.24435 36.8888)"><use xlink:href="#g93B96925AF20254D7D82B92F2475B654" x="0" y="0" fill="#e6edf3" fill-rule="nonzero"/></g><path fill="none" stroke="#e6edf3" stroke-width="0.624" stroke-linecap="butt" stroke-linejoin="miter" stroke-miterlimit="4" transform="translate(72.4438 21.5098)" d="M 0 0h 34.2849"/><g transform="matrix(1 0 0 -1 134.0287 24.7598)"><use xlink:href="#g183B7F76720C9CEFDB35CD9597C39B17" x="0" y="0" fill="#e6edf3" fill-rule="nonzero"/></g><g transform="matrix(1 0 0 -1 142.3487 27.9708)"><use xlink:href="#gDE2B0DCD42F709297493CB2FA2EBD985" x="0" y="0" fill="#e6edf3" fill-rule="nonzero"/></g><g transform="matrix(1 0 0 -1 152.047711111 24.7598)"><use xlink:href="#g13AFF74D87C474CFAF661EEAD0458F8B" x="0" y="0" fill="#e6edf3" fill-rule="nonzero"/></g><g transform="matrix(1 0 0 -1 169.003322222 15.9588)"><use xlink:href="#g6B3DB0E0ADE6D994825CC39624067234" x="0" y="0" fill="#e6edf3" fill-rule="nonzero"/></g><g transform="matrix(1 0 0 -1 167.072822222 33.6778)"><use xlink:href="#g53251C539233983FE9FC826CA7FBAC4A" x="0" y="0" fill="#e6edf3" fill-rule="nonzero"/></g><path fill="none" stroke="#e6edf3" stroke-width="0.624" stroke-linecap="butt" stroke-linejoin="miter" stroke-miterlimit="4" transform="translate(167.072822222 21.5098)" d="M 0 0h 10.361"/><g transform="matrix(1 0 0 -1 180.033822222 15.9588)"><use xlink:href="#gECD202B73668A69AC8A33649F9D5BDE0" x="0" y="0" fill="#e6edf3" fill-rule="nonzero"/></g><g transform="matrix(1 0 0 -1 187.755822222 15.9588)"><use xlink:href="#g53251C539233983FE9FC826CA7FBAC4A" x="0" y="0" fill="#e6edf3" fill-rule="nonzero"/></g><g transform="matrix(1 0 0 -1 180.456322222 33.6778)"><use xlink:href="#gECD202B73668A69AC8A33649F9D5BDE0" x="0" y="0" fill="#e6edf3" fill-rule="nonzero"/></g><g transform="matrix(1 0 0 -1 188.178322222 33.6778)"><use xlink:href="#g2D1FD5FA7721AD843D67732819992226" x="0" y="0" fill="#e6edf3" fill-rule="nonzero"/></g><path fill="none" stroke="#e6edf3" stroke-width="0.624" stroke-linecap="butt" stroke-linejoin="miter" stroke-miterlimit="4" transform="translate(180.033822222 21.5098)" d="M 0 0h 18.083"/><g transform="matrix(1 0 0 -1 199.416822222 36.5638)"><use xlink:href="#gDE2B0DCD42F709297493CB2FA2EBD985" x="0" y="0" fill="#e6edf3" fill-rule="nonzero"/></g><g transform="matrix(1 0 0 -1 231.504722222 24.7598)"><use xlink:href="#g8BD9E367B0D1CE61F83DBB1091E8830A" x="0" y="0" fill="#e6edf3" fill-rule="nonzero"/></g><g transform="matrix(1 0 0 -1 238.992722222 27.9708)"><use xlink:href="#g93B96925AF20254D7D82B92F2475B654" x="0" y="0" fill="#e6edf3" fill-rule="nonzero"/></g><g transform="matrix(1 0 0 -1 250.775633333 24.7598)"><use xlink:href="#g13AFF74D87C474CFAF661EEAD0458F8B" x="0" y="0" fill="#e6edf3" fill-rule="nonzero"/></g><g transform="matrix(1 0 0 -1 264.500744444 24.7598)"><use xlink:href="#g9B543B57F718853EF8F95EF155B6CF69" x="0" y="0" fill="#e6edf3" fill-rule="nonzero"/></g><g transform="matrix(1 0 0 -1 277.845244444 15.9588)"><use xlink:href="#g6B3DB0E0ADE6D994825CC39624067234" x="0" y="0" fill="#e6edf3" fill-rule="nonzero"/></g><g transform="matrix(1 0 0 -1 275.914744444 33.6778)"><use xlink:href="#g53251C539233983FE9FC826CA7FBAC4A" x="0" y="0" fill="#e6edf3" fill-rule="nonzero"/></g><path fill="none" stroke="#e6edf3" stroke-width="0.624" stroke-linecap="butt" stroke-linejoin="miter" stroke-miterlimit="4" transform="translate(275.914744444 21.5098)" d="M 0 0h 10.361"/><g transform="matrix(1 0 0 -1 288.875744444 15.9588)"><use xlink:href="#gECD202B73668A69AC8A33649F9D5BDE0" x="0" y="0" fill="#e6edf3" fill-rule="nonzero"/></g><g transform="matrix(1 0 0 -1 296.597744444 15.9588)"><use xlink:href="#g53251C539233983FE9FC826CA7FBAC4A" x="0" y="0" fill="#e6edf3" fill-rule="nonzero"/></g><g transform="matrix(1 0 0 -1 290.689244444 33.6778)"><use xlink:href="#gECD202B73668A69AC8A33649F9D5BDE0" x="0" y="0" fill="#e6edf3" fill-rule="nonzero"/></g><g transform="matrix(1 0 0 -1 298.411244444 33.6778)"><use xlink:href="#gAF39B06637020F254AB7B881282CA7F5" x="0" y="0" fill="#e6edf3" fill-rule="nonzero"/></g><path fill="none" stroke="#e6edf3" stroke-width="0.624" stroke-linecap="butt" stroke-linejoin="miter" stroke-miterlimit="4" transform="translate(288.875744444 21.5098)" d="M 0 0h 18.083"/><g transform="matrix(1 0 0 -1 308.258744444 38.7998)"><use xlink:href="#g93B96925AF20254D7D82B92F2475B654" x="0" y="0" fill="#e6edf3" fill-rule="nonzero"/></g><defs><symbol id="g67F14AC23942C2CCA8D4F8A1F079A1D1" overflow="visible"><path d="M 0 0m 1.924 2.834c 0 1.664 0.728 3.354 1.547 4.29c 0.663 0.767 1.807 1.534 3.094 1.534c 1.352 0 2.015 -1.027 2.015 -2.431c 0 -0.117 -0.039 -0.533 -0.039 -0.65c 0 -0.117 0.078 -0.182 0.247 -0.182c 0.065 0 0.117 0.013 0.156 0.026c 0.065 0.091 0.104 0.182 0.13 0.273l 0.806 3.289c 0 0.117 -0.065 0.182 -0.195 0.182c -0.052 0 -0.13 -0.052 -0.234 -0.169l -0.845 -0.949c -0.507 0.741 -1.222 1.118 -2.145 1.118c -0.715 0 -1.417 -0.169 -2.132 -0.494c -1.443 -0.676 -2.496 -1.742 -3.172 -3.198c -0.338 -0.715 -0.507 -1.443 -0.507 -2.184c 0 -1.04 0.325 -1.885 0.988 -2.561c 0.663 -0.676 1.508 -1.014 2.548 -1.014c 1.027 0 1.963 0.377 2.808 1.118c 0.351 0.299 0.65 0.663 0.897 1.066c 0.351 0.585 0.533 0.988 0.533 1.235c 0 0.117 -0.065 0.182 -0.208 0.182c -0.117 0 -0.182 -0.052 -0.208 -0.169c -0.273 -0.845 -0.702 -1.521 -1.287 -2.002c -0.741 -0.611 -1.521 -0.923 -2.327 -0.923c -1.56 0 -2.47 1.053 -2.47 2.613Z "/></symbol><symbol id="gDE2B0DCD42F709297493CB2FA2EBD985" overflow="visible"><path d="M 0 0m 3.6855 4.0131c -0.4459 0 -0.8645 -0.2002 -1.2558 -0.6006c -0.1365 0.4004 -0.455 0.6006 -0.9373 0.6006c -0.4277 0 -0.7462 -0.3367 -0.9646 -1.0192c -0.0728 -0.2184 -0.1092 -0.3458 -0.1092 -0.3913c 0 -0.1001 0.0637 -0.1547 0.1911 -0.1547c 0.182 0 0.1911 0.1001 0.2366 0.3003c 0.1547 0.6279 0.3549 0.9373 0.6188 0.9373c 0.1729 0 0.2548 -0.1365 0.2548 -0.4004c 0 -0.1001 -0.0091 -0.1911 -0.0273 -0.2639l -1.0192 -4.095c -0.0637 -0.2548 -0.0819 -0.3003 -0.4004 -0.3003c -0.1911 0 -0.2821 -0.0546 -0.2821 -0.2184c 0 -0.1183 0.0546 -0.1729 0.1638 -0.1729c 0.1456 0 0.6188 0.0364 0.7735 0.0364c 0.1729 0 0.7644 -0.0364 0.9373 -0.0364c 0.1456 0 0.2184 0.0819 0.2184 0.2366c 0 0.1001 -0.091 0.1547 -0.273 0.1547c -0.2639 0 -0.4004 0.0273 -0.4004 0.0728c 0 0.0091 0.0091 0.0546 0.0273 0.1183l 0.3822 1.547c 0.2093 -0.3185 0.5187 -0.4732 0.91 -0.4732c 0.6188 0 1.1648 0.2821 1.6471 0.8372c 0.4641 0.5369 0.6916 1.1193 0.6916 1.7472c 0 0.8463 -0.5278 1.5379 -1.3832 1.5379Z m -0.0273 -0.3276c 0.4095 0 0.6188 -0.273 0.6188 -0.8281c 0 -0.5187 -0.273 -1.4378 -0.455 -1.7927c -0.182 -0.3731 -0.6097 -0.8554 -1.092 -0.8554c -0.182 0 -0.3367 0.0546 -0.4641 0.1729c -0.2002 0.1911 -0.3003 0.3822 -0.3003 0.5733c 0 0.0182 0.0091 0.0637 0.0273 0.1274l 0.4459 1.8018c 0.4004 0.5369 0.8099 0.8008 1.2194 0.8008Z "/></symbol><symbol id="g9B543B57F718853EF8F95EF155B6CF69" overflow="visible"><path d="M 0 0m 9.074 3.51h -8.034c -0.208 0 -0.312 -0.091 -0.312 -0.26c 0 -0.169 0.104 -0.26 0.312 -0.26h 8.034c 0.208 0 0.312 0.091 0.312 0.26c 0 0.156 -0.156 0.26 -0.312 0.26Z "/></symbol><symbol id="gB520C4FDFB2403295A40FD77402E9185" overflow="visible"><path d="M 0 0m 6.9524 6.1789c -0.1729 0 -0.7644 0.0364 -0.9373 0.0364c -0.1456 0 -0.2184 -0.0819 -0.2184 -0.2366c 0 -0.1001 0.0637 -0.1547 0.2002 -0.1638c 0.2275 -0.0091 0.3367 -0.0819 0.3367 -0.2184c 0 -0.0728 -0.0546 -0.1911 -0.1547 -0.3458l -2.912 -4.277l -0.8008 4.5136c -0.0091 0.0637 -0.0182 0.1001 -0.0182 0.1274c 0 0.1365 0.1729 0.2002 0.5278 0.2002c 0.1911 0 0.3094 0.0455 0.3094 0.2366v 0.0364c -0.0182 0.0819 -0.0819 0.1274 -0.1911 0.1274c -0.2093 0 -0.9464 -0.0364 -1.1557 -0.0364c -0.1911 0 -0.8099 0.0364 -1.001 0.0364c -0.1456 0 -0.2184 -0.0819 -0.2184 -0.2366c 0 -0.1092 0.091 -0.1638 0.2639 -0.1638c 0.3913 0 0.4732 0.0273 0.5187 -0.2548l 0.9828 -5.4691c 0.0273 -0.182 0.1183 -0.273 0.2548 -0.273c 0.1274 0 0.2366 0.0728 0.3367 0.2093l 3.4398 5.0596c 0.3094 0.455 0.6734 0.7007 1.0829 0.7371c 0.1638 0.0091 0.2366 0.0728 0.2366 0.2275c 0 0.1092 -0.0546 0.1638 -0.1638 0.1638c -0.1274 0 -0.5915 -0.0364 -0.7189 -0.0364Z "/></symbol><symbol id="g13AFF74D87C474CFAF661EEAD0458F8B" overflow="visible"><path d="M 0 0m 9.074 4.771h -8.034c -0.208 0 -0.312 -0.104 -0.312 -0.299c 0 -0.195 0.104 -0.299 0.312 -0.299h 8.034c 0.208 0 0.312 0.104 0.312 0.299c 0 0.156 -0.143 0.299 -0.312 0.299Z m 0 -2.444h -8.034c -0.208 0 -0.312 -0.104 -0.312 -0.299c 0 -0.195 0.104 -0.299 0.312 -0.299h 8.034c 0.208 0 0.312 0.104 0.312 0.299c 0 0.169 -0.143 0.299 -0.312 0.299Z "/></symbol><symbol id="g2D1FD5FA7721AD843D67732819992226" overflow="visible"><path d="M 0 0m 4.472 8.203c 0 -0.039 -0.013 -0.13 -0.052 -0.26l -1.716 -6.864c -0.052 -0.195 -0.104 -0.312 -0.143 -0.364c -0.117 -0.143 -0.559 -0.208 -1.339 -0.208c -0.403 0 -0.585 0.039 -0.585 -0.299c 0 -0.143 0.091 -0.208 0.26 -0.208c 0.663 0 1.599 0.052 2.158 0.039l 1.066 -0.013c 0.182 0 0.897 -0.026 1.118 -0.026c 0.221 0 0.325 0.104 0.325 0.312c 0 0.13 -0.156 0.195 -0.481 0.195c -0.676 0 -1.066 0.026 -1.183 0.091c -0.039 0.026 -0.065 0.078 -0.065 0.156l 1.755 7.085c 0.039 0.182 0.078 0.299 0.117 0.338c 0.052 0.078 0.364 0.117 0.936 0.117c 0.715 0 1.209 -0.052 1.456 -0.169c 0.247 -0.117 0.377 -0.39 0.377 -0.832c 0 -0.234 -0.039 -0.572 -0.104 -1.014c -0.026 -0.104 -0.039 -0.182 -0.039 -0.247c 0 -0.143 0.065 -0.221 0.208 -0.221c 0.117 0 0.195 0.117 0.234 0.338l 0.351 2.236c 0.013 0.065 0.026 0.143 0.026 0.221c 0 0.13 -0.13 0.195 -0.403 0.195h -7.124c -0.338 0 -0.364 -0.039 -0.468 -0.286l -0.767 -2.262c -0.039 -0.117 -0.065 -0.195 -0.078 -0.247c 0 -0.13 0.065 -0.195 0.208 -0.195c 0.104 0 0.195 0.104 0.26 0.299c 0.325 0.949 0.65 1.534 0.949 1.781c 0.338 0.273 0.988 0.403 1.937 0.403h 0.507c 0.143 0 0.299 0.013 0.299 -0.091Z "/></symbol><symbol id="g53251C539233983FE9FC826CA7FBAC4A" overflow="visible"><path d="M 0 0m 8.723 8.84c -0.247 0 -1.027 0.039 -1.274 0.039c -0.195 0 -0.299 -0.104 -0.299 -0.299c 0 -0.13 0.091 -0.195 0.26 -0.208c 0.364 -0.013 0.546 -0.143 0.546 -0.364c 0 -0.117 -0.065 -0.273 -0.182 -0.468l -3.874 -6.149l -0.858 6.656c 0 0.221 0.273 0.325 0.832 0.325c 0.26 0 0.377 0.091 0.377 0.312c 0 0.13 -0.078 0.195 -0.234 0.195c -0.286 0 -1.3 -0.039 -1.586 -0.039c -0.26 0 -1.144 0.039 -1.404 0.039c -0.195 0 -0.299 -0.104 -0.299 -0.299c 0 -0.143 0.13 -0.208 0.377 -0.208c 0.221 0 0.377 -0.026 0.481 -0.052c 0.208 -0.065 0.195 -0.091 0.234 -0.338l 1.014 -7.93c 0.039 -0.221 0.143 -0.338 0.312 -0.338c 0.169 0 0.299 0.091 0.403 0.26l 4.628 7.358c 0.299 0.468 0.585 0.767 0.871 0.884c 0.195 0.091 0.442 0.143 0.728 0.156c 0.143 0.013 0.208 0.104 0.221 0.299c 0.013 0.143 -0.065 0.208 -0.221 0.208c -0.195 0 -0.858 -0.039 -1.053 -0.039Z "/></symbol><symbol id="g183B7F76720C9CEFDB35CD9597C39B17" overflow="visible"><path d="M 0 0m 4.03 5.746c -0.897 0 -1.703 -0.39 -2.418 -1.157c -0.715 -0.767 -1.079 -1.612 -1.079 -2.522c 0 -1.274 0.858 -2.21 2.132 -2.21c 0.897 0 1.781 0.351 2.665 1.04c 0.195 -0.689 0.598 -1.04 1.196 -1.04c 0.468 0 1.131 0.494 1.131 0.962c 0 0.117 -0.065 0.169 -0.208 0.169c -0.091 0 -0.169 -0.052 -0.208 -0.156c -0.104 -0.273 -0.377 -0.598 -0.676 -0.598c -0.221 0 -0.338 0.416 -0.338 1.261c 0 0.182 0.039 0.325 0.117 0.416c 0.351 0.429 0.663 0.923 0.91 1.469c 0.325 0.702 0.52 1.222 0.572 1.56v 0.052c -0.039 0.091 -0.117 0.13 -0.208 0.13c -0.065 -0.013 -0.143 -0.117 -0.234 -0.299c -0.273 -0.936 -0.65 -1.742 -1.157 -2.405v 0.65c 0 1.508 -0.754 2.678 -2.197 2.678Z m 1.209 -3.003c 0 -0.767 0.013 -1.235 0.026 -1.404c -0.845 -0.741 -1.703 -1.105 -2.574 -1.105c -0.741 0 -1.105 0.455 -1.105 1.352c 0 0.754 0.429 2.158 0.728 2.626c 0.494 0.767 1.066 1.157 1.703 1.157c 0.403 0 0.676 -0.156 0.845 -0.468c 0.091 -0.156 0.156 -0.312 0.221 -0.455c 0.104 -0.299 0.156 -1.092 0.156 -1.703Z "/></symbol><symbol id="g8A6A9074F91D642F82CC8BE39AC39D3A" overflow="visible"><path d="M 0 0m 1.0829 3.8584c 0.2912 0 0.5096 0.2184 0.5096 0.5096c 0 0.3276 -0.1729 0.5005 -0.5096 0.5096c 0.2002 0.4277 0.6552 0.7735 1.2467 0.7735c 0.8008 0 1.3286 -0.6006 1.3286 -1.4014c 0 -0.4368 -0.1547 -0.8554 -0.4732 -1.2649c -0.1547 -0.2093 -0.273 -0.3549 -0.3549 -0.4368l -2.1567 -2.1385c -0.1183 -0.1092 -0.1001 -0.1365 -0.1001 -0.4095h 3.7492l 0.2821 1.7108h -0.3822c -0.0637 -0.4823 -0.1365 -0.7644 -0.2184 -0.8281c -0.0455 -0.0273 -0.3276 -0.0455 -0.8645 -0.0455h -1.547c 0.6097 0.5369 1.1739 1.0192 1.7108 1.4469c 0.4095 0.3185 0.7007 0.6006 0.8827 0.8463c 0.273 0.3549 0.4095 0.728 0.4095 1.1193c 0 0.5642 -0.2184 1.0101 -0.6643 1.3377c -0.3913 0.3003 -0.8827 0.455 -1.4651 0.455c -0.5005 0 -0.9282 -0.1456 -1.3013 -0.4368c -0.3913 -0.3185 -0.5915 -0.7189 -0.5915 -1.2103c 0 -0.3094 0.2275 -0.5369 0.5096 -0.5369Z "/></symbol><symbol id="g8BD9E367B0D1CE61F83DBB1091E8830A" overflow="visible"><path d="M 0 0m 6.695 5.109c 0 0.299 -0.247 0.494 -0.572 0.494c -0.247 0 -0.507 -0.065 -0.806 -0.208c -0.377 -0.182 -0.819 -0.481 -1.326 -0.91c -0.663 -0.572 -1.17 -0.923 -1.521 -1.053c 0.156 0.637 0.312 1.274 0.455 1.911c 0 0.273 -0.143 0.403 -0.416 0.403c -0.299 0 -0.481 -0.169 -0.559 -0.494l -1.183 -4.693c -0.039 -0.143 -0.052 -0.247 -0.052 -0.312c 0 -0.26 0.143 -0.39 0.416 -0.39c 0.52 0 0.572 0.585 0.689 1.027l 0.065 0.26c 0.039 0.117 0.091 0.325 0.169 0.637l 0.286 1.157c 1.391 -0.065 2.093 -0.403 2.093 -1.04c 0 -0.143 -0.091 -0.585 -0.091 -0.728c 0 -0.741 0.494 -1.313 1.235 -1.313c 0.741 0 1.248 0.676 1.521 2.015c 0 0.117 -0.065 0.182 -0.208 0.182c -0.104 0 -0.182 -0.091 -0.221 -0.273c -0.273 -1.027 -0.624 -1.547 -1.066 -1.547c -0.247 0 -0.364 0.195 -0.364 0.572c 0 0.169 0.039 0.403 0.104 0.702c 0.039 0.195 0.065 0.338 0.065 0.429c 0 0.819 -0.78 1.274 -2.353 1.365c 0.247 0.156 0.598 0.416 1.027 0.78c 0.559 0.468 1.001 0.793 1.352 0.962c -0.013 -0.065 -0.026 -0.117 -0.026 -0.182c 0 -0.325 0.182 -0.494 0.533 -0.494c 0.39 0 0.754 0.351 0.754 0.741Z "/></symbol><symbol id="g93B96925AF20254D7D82B92F2475B654" overflow="visible"><path d="M 0 0m 3.5763 5.7057l -1.2194 -4.914c -0.0364 -0.1365 -0.0728 -0.2184 -0.1001 -0.2548c -0.0819 -0.1001 -0.3913 -0.1456 -0.9191 -0.1456c -0.3003 0 -0.4459 0.0182 -0.4459 -0.2275c 0 -0.1092 0.0637 -0.1638 0.1911 -0.1638c 0.4914 0 1.0374 0.0455 1.547 0.0364l 0.8099 -0.0091c 0.2366 0 0.5915 -0.0091 0.7644 -0.0273c 0.1547 0 0.2366 0.0819 0.2366 0.2366c 0 0.0819 -0.0455 0.1365 -0.1456 0.1547h -0.2548c -0.4459 0 -0.7098 0.0182 -0.7735 0.0637c -0.0273 0.0182 -0.0364 0.0455 -0.0364 0.091c 0 0.0455 0.0091 0.1092 0.0273 0.2002l 1.1921 4.7229c 0.0637 0.2093 0.0455 0.2639 0.2457 0.2821c 0.0273 0.0091 0.2002 0.0091 0.5369 0.0091c 0.5187 0 0.8554 -0.0273 1.001 -0.0728c 0.2912 -0.1001 0.4004 -0.2366 0.4004 -0.6825c 0 -0.2457 -0.0273 -0.5187 -0.0819 -0.819c 0 -0.1183 0.0637 -0.1729 0.1911 -0.1729c 0.0455 0 0.091 0.0091 0.1183 0.0364c 0.0455 0.091 0.0728 0.1638 0.0819 0.2184l 0.2457 1.7199c 0 0.1092 -0.1001 0.1638 -0.3094 0.1638h -5.5328c -0.2548 0 -0.273 -0.0182 -0.3367 -0.2093l -0.5733 -1.5925c -0.0091 -0.0455 -0.0455 -0.1456 -0.0455 -0.1729c 0 -0.1092 0.0637 -0.1638 0.1911 -0.1638c 0.091 0 0.1638 0.0819 0.2184 0.2366c 0.3094 0.8463 0.5096 1.3832 1.4469 1.4924c 0.1001 0.0091 0.3367 0.0182 0.7098 0.0182h 0.3822c 0.1638 0 0.2366 0.0182 0.2366 -0.0546Z "/></symbol><symbol id="g6B3DB0E0ADE6D994825CC39624067234" overflow="visible"><path d="M 0 0m 3.497 8.658c -0.533 -0.546 -1.313 -0.819 -2.34 -0.819v -0.507c 0.676 0 1.235 0.104 1.664 0.312v -6.578c 0 -0.234 -0.052 -0.39 -0.169 -0.455c -0.117 -0.065 -0.442 -0.104 -0.962 -0.104h -0.455v -0.507c 0.325 0.026 1.027 0.039 2.106 0.039c 1.079 0 1.781 -0.013 2.106 -0.039v 0.507h -0.455c -0.533 0 -0.858 0.039 -0.962 0.104c -0.104 0.065 -0.169 0.221 -0.169 0.455v 7.202c 0 0.312 -0.026 0.39 -0.364 0.39Z "/></symbol><symbol id="gECD202B73668A69AC8A33649F9D5BDE0" overflow="visible"><path d="M 0 0m 3.328 7.462c 0 0.299 -0.195 0.468 -0.572 0.494c 0.403 0.611 0.988 0.923 1.755 0.923c 1.196 0 1.781 -1.001 1.781 -2.275c 0 -0.533 -0.104 -1.183 -0.299 -1.976c -0.221 0.897 -0.78 1.352 -1.651 1.352c -1.001 0 -1.872 -0.416 -2.652 -1.222c -0.78 -0.806 -1.17 -1.703 -1.17 -2.704c 0 -0.481 0.169 -0.975 0.507 -1.469c 0.403 -0.585 1.027 -0.871 1.898 -0.871c 1.17 0 2.145 0.546 2.912 1.651c 0.728 1.066 1.521 2.912 1.521 4.563c 0 0.923 -0.234 1.703 -0.702 2.327c -0.507 0.702 -1.222 1.053 -2.119 1.053c -0.871 0 -1.521 -0.299 -1.963 -0.91c -0.351 -0.481 -0.533 -0.871 -0.533 -1.17c 0 -0.338 0.182 -0.507 0.546 -0.507c 0.39 0 0.741 0.351 0.741 0.741Z m 2.379 -3.523c 0 -0.819 -0.247 -1.625 -0.754 -2.418c -0.559 -0.897 -1.222 -1.339 -1.989 -1.339c -0.858 0 -1.352 0.559 -1.352 1.391c 0 0.364 0.091 0.871 0.273 1.521c 0.182 0.65 0.364 1.105 0.559 1.378c 0.52 0.741 1.157 1.118 1.898 1.118c 0.949 0 1.365 -0.702 1.365 -1.651Z "/></symbol><symbol id="gAF39B06637020F254AB7B881282CA7F5" overflow="visible"><path d="M 0 0m 4.615 5.746c -0.572 0 -1.118 -0.299 -1.651 -0.897c -0.143 0.598 -0.546 0.897 -1.183 0.897c -0.533 0 -0.923 -0.429 -1.196 -1.274c -0.13 -0.429 -0.195 -0.676 -0.195 -0.754c 0 -0.117 0.065 -0.182 0.208 -0.182c 0.065 0 0.104 0.013 0.143 0.039c 0.065 0.117 0.104 0.208 0.117 0.299c 0.234 0.988 0.533 1.482 0.884 1.482c 0.234 0 0.351 -0.182 0.351 -0.533c 0 -0.195 -0.026 -0.416 -0.091 -0.65l -1.43 -5.707c -0.117 -0.429 -0.13 -0.481 -0.637 -0.481c -0.234 0 -0.351 -0.104 -0.351 -0.299c 0 -0.143 0.078 -0.208 0.221 -0.208c 0.195 0 0.871 0.039 1.066 0.039c 0.247 0 1.027 -0.039 1.274 -0.039c 0.195 0 0.286 0.104 0.286 0.312c 0 0.13 -0.117 0.195 -0.364 0.195c -0.234 0 -0.585 -0.013 -0.585 0.143c 0 0.169 0.533 2.21 0.585 2.431c 0.26 -0.481 0.65 -0.728 1.17 -0.728c 0.845 0 1.586 0.429 2.236 1.3c 0.598 0.793 0.897 1.638 0.897 2.509c 0 1.131 -0.676 2.106 -1.755 2.106Z m -0.039 -0.39c 0.507 0 0.767 -0.39 0.767 -1.157c 0 -0.351 -0.078 -0.819 -0.221 -1.404c -0.299 -1.131 -0.676 -1.872 -1.131 -2.249c -0.273 -0.221 -0.52 -0.338 -0.767 -0.338c -0.377 0 -0.637 0.169 -0.78 0.52c -0.117 0.273 -0.182 0.468 -0.182 0.572l 0.663 2.717c 0.065 0.286 0.299 0.585 0.663 0.884c 0.364 0.299 0.689 0.455 0.988 0.455Z "/></symbol></defs></svg>