<svg viewBox="0 0 188.849266667 39.3744" width="188.849266667pt" height="39.3744pt" xmlns="http://www.w3.org/2000/svg" xmlns:xlink="http://www.w3.org/1999/xlink" xmlns:h5="http://www.w3.org/1999/xhtml"><g transform="matrix(1 0 0 -1 6.5 23.1634)"><use xlink:href="#g7FAFCFC8164C43C0AF779766359DEA70" x="0" y="0" fill="#e6edf3" fill-rule="nonzero"/></g><g transform="matrix(1 0 0 -1 17.534111111 23.1634)"><use xlink:href="#g13AFF74D87C474CFAF661EEAD0458F8B" x="0" y="0" fill="#e6edf3" fill-rule="nonzero"/></g><g transform="matrix(1 0 0 -1 33.924222222 13.065)"><use xlink:href="#g67F14AC23942C2CCA8D4F8A1F079A1D1" x="0" y="0" fill="#e6edf3" fill-rule="nonzero"/></g><g transform="matrix(1 0 0 -1 42.179222222 16.276)"><use xlink:href="#gDE2B0DCD42F709297493CB2FA2EBD985" x="0" y="0" fill="#e6edf3" fill-rule="nonzero"/></g><g transform="matrix(1 0 0 -1 32.559222222 32.0814)"><use xlink:href="#g67F14AC23942C2CCA8D4F8A1F079A1D1" x="0" y="0" fill="#e6edf3" fill-rule="nonzero"/></g><g transform="matrix(1 0 0 -1 40.814222222 35.2924)"><use xlink:href="#gB520C4FDFB2403295A40FD77402E9185" x="0" y="0" fill="#e6edf3" fill-rule="nonzero"/></g><path fill="none" stroke="#e6edf3" stroke-width="0.624" stroke-linecap="butt" stroke-linejoin="miter" stroke-miterlimit="4" transform="translate(32.559222222 19.9134)" d="M 0 0h 17.0729"/><g transform="matrix(1 0 0 -1 54.543233333 23.1634)"><use xlink:href="#g13AFF74D87C474CFAF661EEAD0458F8B" x="0" y="0" fill="#e6edf3" fill-rule="nonzero"/></g><g transform="matrix(1 0 0 -1 69.568344444 14.3624)"><use xlink:href="#g8BD9E367B0D1CE61F83DBB1091E8830A" x="0" y="0" fill="#e6edf3" fill-rule="nonzero"/></g><g transform="matrix(1 0 0 -1 77.056344444 17.5734)"><use xlink:href="#g93B96925AF20254D7D82B92F2475B654" x="0" y="0" fill="#e6edf3" fill-rule="nonzero"/></g><g transform="matrix(1 0 0 -1 69.932344444 32.0814)"><use xlink:href="#g8BD9E367B0D1CE61F83DBB1091E8830A" x="0" y="0" fill="#e6edf3" fill-rule="nonzero"/></g><g transform="matrix(1 0 0 -1 77.420344444 35.2924)"><use xlink:href="#gAFF071B78EC9EEFB01BB2C72F5E749E4" x="0" y="0" fill="#e6edf3" fill-rule="nonzero"/></g><path fill="none" stroke="#e6edf3" stroke-width="0.624" stroke-linecap="butt" stroke-linejoin="miter" stroke-miterlimit="4" transform="translate(69.568344444 19.9134)" d="M 0 0h 15.6598"/><g transform="matrix(1 0 0 -1 112.528144444 23.1634)"><use xlink:href="#gF291FCC7BBD497BC1B54131876EE661E" x="0" y="0" fill="#e6edf3" fill-rule="nonzero"/></g><g transform="matrix(1 0 0 -1 118.833144444 26.3744)"><use xlink:href="#gBBA4DF69B4336752C72E907B110611D2" x="0" y="0" fill="#e6edf3" fill-rule="nonzero"/></g><g transform="matrix(1 0 0 -1 128.077155556 23.1634)"><use xlink:href="#g13AFF74D87C474CFAF661EEAD0458F8B" x="0" y="0" fill="#e6edf3" fill-rule="nonzero"/></g><g transform="matrix(1 0 0 -1 141.802266667 21.8894)"><use xlink:href="#g41DD0379D8A3E04981ED32215CCCD900" x="0" y="0" fill="#e6edf3" fill-rule="nonzero"/></g><path fill="none" stroke="#e6edf3" stroke-width="0.624" stroke-linecap="butt" stroke-linejoin="miter" stroke-miterlimit="4" transform="translate(154.802266667 11.1514)" d="M 0 0h 27.547"/><g transform="matrix(1 0 0 -1 154.802266667 23.1634)"><use xlink:href="#g7FAFCFC8164C43C0AF779766359DEA70" x="0" y="0" fill="#e6edf3" fill-rule="nonzero"/></g><g transform="matrix(1 0 0 -1 162.225266667 23.1634)"><use xlink:href="#gAF39B06637020F254AB7B881282CA7F5" x="0" y="0" fill="#e6edf3" fill-rule="nonzero"/></g><g transform="matrix(1 0 0 -1 168.959266667 23.1634)"><use xlink:href="#gBD71DD9E9466376912EA1F5384258320" x="0" y="0" fill="#e6edf3" fill-rule="nonzero"/></g><g transform="matrix(1 0 0 -1 175.459266667 23.1634)"><use xlink:href="#gF894C2D74D7097E9F8A03474A816F1E2" x="0" y="0" fill="#e6edf3" fill-rule="nonzero"/></g><defs><symbol id="g7FAFCFC8164C43C0AF779766359DEA70" overflow="visible"><path d="M 0 0m 6.812 4.914c 0.169 0.325 0.247 0.494 0.247 0.507c 0 0.117 -0.065 0.182 -0.208 0.182c -0.091 0 -0.156 -0.039 -0.195 -0.117c -0.455 -0.845 -0.988 -2.041 -1.612 -3.588c -0.052 0.858 -0.221 1.664 -0.507 2.405c -0.377 0.962 -0.962 1.443 -1.755 1.443c -0.819 0 -1.534 -0.546 -1.898 -1.053c -0.429 -0.611 -0.65 -1.066 -0.65 -1.352c 0 -0.117 0.104 -0.182 0.325 -0.182l 0.065 0.091c 0.221 0.676 0.598 1.105 1.131 1.287c 0.364 0.117 0.65 0.182 0.858 0.182c 1.352 0 2.028 -1.066 2.028 -3.211c 0 -0.507 -0.052 -0.923 -0.156 -1.248c -0.442 -1.443 -0.663 -2.366 -0.663 -2.769c 0 -0.195 0.078 -0.286 0.221 -0.286c 0.156 0 0.312 0.273 0.455 0.806c 0.221 0.832 0.377 1.573 0.468 2.223c 0.039 0.195 0.065 0.364 0.104 0.481c 0.468 1.456 1.053 2.86 1.742 4.199Z "/></symbol><symbol id="g13AFF74D87C474CFAF661EEAD0458F8B" overflow="visible"><path d="M 0 0m 9.074 4.771h -8.034c -0.208 0 -0.312 -0.104 -0.312 -0.299c 0 -0.195 0.104 -0.299 0.312 -0.299h 8.034c 0.208 0 0.312 0.104 0.312 0.299c 0 0.156 -0.143 0.299 -0.312 0.299Z m 0 -2.444h -8.034c -0.208 0 -0.312 -0.104 -0.312 -0.299c 0 -0.195 0.104 -0.299 0.312 -0.299h 8.034c 0.208 0 0.312 0.104 0.312 0.299c 0 0.169 -0.143 0.299 -0.312 0.299Z "/></symbol><symbol id="g67F14AC23942C2CCA8D4F8A1F079A1D1" overflow="visible"><path d="M 0 0m 1.924 2.834c 0 1.664 0.728 3.354 1.547 4.29c 0.663 0.767 1.807 1.534 3.094 1.534c 1.352 0 2.015 -1.027 2.015 -2.431c 0 -0.117 -0.039 -0.533 -0.039 -0.65c 0 -0.117 0.078 -0.182 0.247 -0.182c 0.065 0 0.117 0.013 0.156 0.026c 0.065 0.091 0.104 0.182 0.13 0.273l 0.806 3.289c 0 0.117 -0.065 0.182 -0.195 0.182c -0.052 0 -0.13 -0.052 -0.234 -0.169l -0.845 -0.949c -0.507 0.741 -1.222 1.118 -2.145 1.118c -0.715 0 -1.417 -0.169 -2.132 -0.494c -1.443 -0.676 -2.496 -1.742 -3.172 -3.198c -0.338 -0.715 -0.507 -1.443 -0.507 -2.184c 0 -1.04 0.325 -1.885 0.988 -2.561c 0.663 -0.676 1.508 -1.014 2.548 -1.014c 1.027 0 1.963 0.377 2.808 1.118c 0.351 0.299 0.65 0.663 0.897 1.066c 0.351 0.585 0.533 0.988 0.533 1.235c 0 0.117 -0.065 0.182 -0.208 0.182c -0.117 0 -0.182 -0.052 -0.208 -0.169c -0.273 -0.845 -0.702 -1.521 -1.287 -2.002c -0.741 -0.611 -1.521 -0.923 -2.327 -0.923c -1.56 0 -2.47 1.053 -2.47 2.613Z "/></symbol><symbol id="gDE2B0DCD42F709297493CB2FA2EBD985" overflow="visible"><path d="M 0 0m 3.6855 4.0131c -0.4459 0 -0.8645 -0.2002 -1.2558 -0.6006c -0.1365 0.4004 -0.455 0.6006 -0.9373 0.6006c -0.4277 0 -0.7462 -0.3367 -0.9646 -1.0192c -0.0728 -0.2184 -0.1092 -0.3458 -0.1092 -0.3913c 0 -0.1001 0.0637 -0.1547 0.1911 -0.1547c 0.182 0 0.1911 0.1001 0.2366 0.3003c 0.1547 0.6279 0.3549 0.9373 0.6188 0.9373c 0.1729 0 0.2548 -0.1365 0.2548 -0.4004c 0 -0.1001 -0.0091 -0.1911 -0.0273 -0.2639l -1.0192 -4.095c -0.0637 -0.2548 -0.0819 -0.3003 -0.4004 -0.3003c -0.1911 0 -0.2821 -0.0546 -0.2821 -0.2184c 0 -0.1183 0.0546 -0.1729 0.1638 -0.1729c 0.1456 0 0.6188 0.0364 0.7735 0.0364c 0.1729 0 0.7644 -0.0364 0.9373 -0.0364c 0.1456 0 0.2184 0.0819 0.2184 0.2366c 0 0.1001 -0.091 0.1547 -0.273 0.1547c -0.2639 0 -0.4004 0.0273 -0.4004 0.0728c 0 0.0091 0.0091 0.0546 0.0273 0.1183l 0.3822 1.547c 0.2093 -0.3185 0.5187 -0.4732 0.91 -0.4732c 0.6188 0 1.1648 0.2821 1.6471 0.8372c 0.4641 0.5369 0.6916 1.1193 0.6916 1.7472c 0 0.8463 -0.5278 1.5379 -1.3832 1.5379Z m -0.0273 -0.3276c 0.4095 0 0.6188 -0.273 0.6188 -0.8281c 0 -0.5187 -0.273 -1.4378 -0.455 -1.7927c -0.182 -0.3731 -0.6097 -0.8554 -1.092 -0.8554c -0.182 0 -0.3367 0.0546 -0.4641 0.1729c -0.2002 0.1911 -0.3003 0.3822 -0.3003 0.5733c 0 0.0182 0.0091 0.0637 0.0273 0.1274l 0.4459 1.8018c 0.4004 0.5369 0.8099 0.8008 1.2194 0.8008Z "/></symbol><symbol id="gB520C4FDFB2403295A40FD77402E9185" overflow="visible"><path d="M 0 0m 6.9524 6.1789c -0.1729 0 -0.7644 0.0364 -0.9373 0.0364c -0.1456 0 -0.2184 -0.0819 -0.2184 -0.2366c 0 -0.1001 0.0637 -0.1547 0.2002 -0.1638c 0.2275 -0.0091 0.3367 -0.0819 0.3367 -0.2184c 0 -0.0728 -0.0546 -0.1911 -0.1547 -0.3458l -2.912 -4.277l -0.8008 4.5136c -0.0091 0.0637 -0.0182 0.1001 -0.0182 0.1274c 0 0.1365 0.1729 0.2002 0.5278 0.2002c 0.1911 0 0.3094 0.0455 0.3094 0.2366v 0.0364c -0.0182 0.0819 -0.0819 0.1274 -0.1911 0.1274c -0.2093 0 -0.9464 -0.0364 -1.1557 -0.0364c -0.1911 0 -0.8099 0.0364 -1.001 0.0364c -0.1456 0 -0.2184 -0.0819 -0.2184 -0.2366c 0 -0.1092 0.091 -0.1638 0.2639 -0.1638c 0.3913 0 0.4732 0.0273 0.5187 -0.2548l 0.9828 -5.4691c 0.0273 -0.182 0.1183 -0.273 0.2548 -0.273c 0.1274 0 0.2366 0.0728 0.3367 0.2093l 3.4398 5.0596c 0.3094 0.455 0.6734 0.7007 1.0829 0.7371c 0.1638 0.0091 0.2366 0.0728 0.2366 0.2275c 0 0.1092 -0.0546 0.1638 -0.1638 0.1638c -0.1274 0 -0.5915 -0.0364 -0.7189 -0.0364Z "/></symbol><symbol id="g8BD9E367B0D1CE61F83DBB1091E8830A" overflow="visible"><path d="M 0 0m 6.695 5.109c 0 0.299 -0.247 0.494 -0.572 0.494c -0.247 0 -0.507 -0.065 -0.806 -0.208c -0.377 -0.182 -0.819 -0.481 -1.326 -0.91c -0.663 -0.572 -1.17 -0.923 -1.521 -1.053c 0.156 0.637 0.312 1.274 0.455 1.911c 0 0.273 -0.143 0.403 -0.416 0.403c -0.299 0 -0.481 -0.169 -0.559 -0.494l -1.183 -4.693c -0.039 -0.143 -0.052 -0.247 -0.052 -0.312c 0 -0.26 0.143 -0.39 0.416 -0.39c 0.52 0 0.572 0.585 0.689 1.027l 0.065 0.26c 0.039 0.117 0.091 0.325 0.169 0.637l 0.286 1.157c 1.391 -0.065 2.093 -0.403 2.093 -1.04c 0 -0.143 -0.091 -0.585 -0.091 -0.728c 0 -0.741 0.494 -1.313 1.235 -1.313c 0.741 0 1.248 0.676 1.521 2.015c 0 0.117 -0.065 0.182 -0.208 0.182c -0.104 0 -0.182 -0.091 -0.221 -0.273c -0.273 -1.027 -0.624 -1.547 -1.066 -1.547c -0.247 0 -0.364 0.195 -0.364 0.572c 0 0.169 0.039 0.403 0.104 0.702c 0.039 0.195 0.065 0.338 0.065 0.429c 0 0.819 -0.78 1.274 -2.353 1.365c 0.247 0.156 0.598 0.416 1.027 0.78c 0.559 0.468 1.001 0.793 1.352 0.962c -0.013 -0.065 -0.026 -0.117 -0.026 -0.182c 0 -0.325 0.182 -0.494 0.533 -0.494c 0.39 0 0.754 0.351 0.754 0.741Z "/></symbol><symbol id="g93B96925AF20254D7D82B92F2475B654" overflow="visible"><path d="M 0 0m 3.5763 5.7057l -1.2194 -4.914c -0.0364 -0.1365 -0.0728 -0.2184 -0.1001 -0.2548c -0.0819 -0.1001 -0.3913 -0.1456 -0.9191 -0.1456c -0.3003 0 -0.4459 0.0182 -0.4459 -0.2275c 0 -0.1092 0.0637 -0.1638 0.1911 -0.1638c 0.4914 0 1.0374 0.0455 1.547 0.0364l 0.8099 -0.0091c 0.2366 0 0.5915 -0.0091 0.7644 -0.0273c 0.1547 0 0.2366 0.0819 0.2366 0.2366c 0 0.0819 -0.0455 0.1365 -0.1456 0.1547h -0.2548c -0.4459 0 -0.7098 0.0182 -0.7735 0.0637c -0.0273 0.0182 -0.0364 0.0455 -0.0364 0.091c 0 0.0455 0.0091 0.1092 0.0273 0.2002l 1.1921 4.7229c 0.0637 0.2093 0.0455 0.2639 0.2457 0.2821c 0.0273 0.0091 0.2002 0.0091 0.5369 0.0091c 0.5187 0 0.8554 -0.0273 1.001 -0.0728c 0.2912 -0.1001 0.4004 -0.2366 0.4004 -0.6825c 0 -0.2457 -0.0273 -0.5187 -0.0819 -0.819c 0 -0.1183 0.0637 -0.1729 0.1911 -0.1729c 0.0455 0 0.091 0.0091 0.1183 0.0364c 0.0455 0.091 0.0728 0.1638 0.0819 0.2184l 0.2457 1.7199c 0 0.1092 -0.1001 0.1638 -0.3094 0.1638h -5.5328c -0.2548 0 -0.273 -0.0182 -0.3367 -0.2093l -0.5733 -1.5925c -0.0091 -0.0455 -0.0455 -0.1456 -0.0455 -0.1729c 0 -0.1092 0.0637 -0.1638 0.1911 -0.1638c 0.091 0 0.1638 0.0819 0.2184 0.2366c 0.3094 0.8463 0.5096 1.3832 1.4469 1.4924c 0.1001 0.0091 0.3367 0.0182 0.7098 0.0182h 0.3822c 0.1638 0 0.2366 0.0182 0.2366 -0.0546Z "/></symbol><symbol id="gAFF071B78EC9EEFB01BB2C72F5E749E4" overflow="visible"><path d="M 0 0m 5.5874 4.2679c 0 -0.1092 0.0637 -0.1638 0.1911 -0.1638c 0.1729 0 0.1729 0.0637 0.2184 0.2275l 0.4641 1.911c 0 0.1001 -0.0546 0.1547 -0.1547 0.1547c -0.0546 0 -0.1274 -0.0455 -0.2093 -0.1365l -0.4095 -0.4823c -0.3094 0.4095 -0.7917 0.6188 -1.456 0.6188c -0.5915 0 -1.1375 -0.2002 -1.6289 -0.5915c -0.5369 -0.4277 -0.8008 -0.9282 -0.8008 -1.5015c 0 -0.6643 0.4641 -1.1557 1.0283 -1.3104c 0.5824 -0.1456 1.0192 -0.2548 1.3104 -0.3185c 0.5369 -0.1274 0.8099 -0.4277 0.8099 -0.91c 0 -0.4277 -0.182 -0.7917 -0.546 -1.092c -0.364 -0.3003 -0.7735 -0.455 -1.2012 -0.455c -0.4277 0 -0.819 0.0819 -1.1557 0.2548c -0.3731 0.1911 -0.5551 0.5187 -0.5551 0.9828c 0 0.1365 0.0182 0.2912 0.0546 0.4459c 0.0091 0.0273 0.0091 0.0455 0.0091 0.0546c 0 0.1001 -0.0637 0.1547 -0.182 0.1547c -0.0455 0 -0.0728 0 -0.1001 -0.0091c -0.0637 -0.0728 -0.1001 -0.1365 -0.1092 -0.2002l -0.455 -1.7927c -0.0182 -0.0728 -0.0273 -0.1183 -0.0273 -0.1456c 0 -0.1001 0.0546 -0.1456 0.1638 -0.1456c 0.0637 0 0.1274 0.0455 0.2002 0.1365l 0.2184 0.2548c 0.0819 0.1001 0.1456 0.1729 0.1911 0.2184c 0.3913 -0.4095 0.9646 -0.6097 1.7199 -0.6097c 0.6188 0 1.183 0.2184 1.6926 0.6552c 0.5278 0.4641 0.7917 1.001 0.7917 1.6107c 0 0.7917 -0.4732 1.2194 -1.1284 1.4287c 0 0 -1.2649 0.2821 -1.4287 0.3458c -0.3913 0.1365 -0.5824 0.4004 -0.5824 0.7826c 0 0.3913 0.1911 0.728 0.5733 1.0101c 0.3458 0.2548 0.7189 0.3822 1.1284 0.3822c 0.9373 0 1.4014 -0.455 1.4014 -1.365c 0 -0.0728 -0.0364 -0.3276 -0.0364 -0.4004Z "/></symbol><symbol id="gF291FCC7BBD497BC1B54131876EE661E" overflow="visible"><path d="M 0 0m 4.797 5.083c 0 -0.104 0.117 -0.273 0.325 -0.533c 0.208 -0.26 0.312 -0.559 0.312 -0.897c 0 -0.377 -0.182 -1.014 -0.559 -1.911c -0.273 -0.624 -0.897 -1.508 -1.664 -1.508c -0.598 0 -0.897 0.351 -0.897 1.066c 0 0.507 0.247 1.404 0.741 2.691c 0.104 0.273 0.156 0.494 0.156 0.65c 0 0.65 -0.442 1.105 -1.092 1.105c -0.572 0 -1.027 -0.325 -1.352 -0.975c -0.26 -0.533 -0.39 -0.871 -0.39 -1.04c 0 -0.117 0.065 -0.182 0.208 -0.182c 0.169 0 0.195 0.078 0.247 0.26c 0.299 1.04 0.715 1.56 1.248 1.56c 0.169 0 0.26 -0.117 0.26 -0.364c 0 -0.208 -0.065 -0.494 -0.208 -0.871c -0.481 -1.287 -0.728 -2.158 -0.728 -2.639c 0 -0.663 0.221 -1.118 0.663 -1.365c 0.351 -0.182 0.715 -0.273 1.092 -0.273c 1.157 0 1.963 1.248 2.301 2.249c 0.416 1.222 0.624 2.119 0.624 2.691c 0 0.637 -0.208 0.949 -0.611 0.949c -0.325 0 -0.676 -0.338 -0.676 -0.663Z "/></symbol><symbol id="gBBA4DF69B4336752C72E907B110611D2" overflow="visible"><path d="M 0 0m 4.277 3.2032c 0 0.5642 -0.5915 0.8099 -1.2194 0.8099c -0.6552 0 -1.1193 -0.1911 -1.3832 -0.5733c -0.2002 -0.2821 -0.3003 -0.5369 -0.3003 -0.7644c 0 -0.4277 0.2275 -0.7189 0.6825 -0.8736c 0.0819 -0.0273 0.3094 -0.0728 0.6734 -0.1365c 0.4823 -0.091 0.728 -0.273 0.728 -0.5551c 0 -0.1001 -0.0364 -0.2093 -0.1092 -0.3458c -0.1911 -0.3549 -0.6006 -0.5369 -1.2194 -0.5369c -0.5005 0 -0.8372 0.1092 -1.0101 0.3185c 0.2457 0.0455 0.4641 0.2548 0.4641 0.5369c 0 0.2457 -0.1274 0.364 -0.3822 0.364c -0.3458 0 -0.5551 -0.2912 -0.5551 -0.637c 0 -0.637 0.7553 -0.9009 1.4742 -0.9009c 0.6188 0 1.092 0.1456 1.4196 0.4277c 0.3731 0.3185 0.5551 0.6825 0.5551 1.0829c 0 0.5642 -0.4186 0.9282 -1.2558 1.0829c -0.1547 0.0364 -0.273 0.0637 -0.3549 0.0728c -0.3094 0.0546 -0.4641 0.1911 -0.4641 0.4095c 0 0.1001 0.0364 0.1911 0.1001 0.2912c 0.1729 0.2821 0.4823 0.4186 0.9282 0.4186c 0.3822 0 0.6461 -0.091 0.7826 -0.273c -0.2275 -0.0728 -0.3458 -0.2184 -0.3458 -0.4459c 0 -0.2093 0.1092 -0.3185 0.3276 -0.3185c 0.273 0 0.4641 0.2366 0.4641 0.546Z "/></symbol><symbol id="g41DD0379D8A3E04981ED32215CCCD900" overflow="visible"><path d="M 0 0m 13.169 10.491c 0.065 0.13 0.091 0.208 0.091 0.247c 0 0.208 -0.104 0.312 -0.312 0.312c -0.13 0 -0.234 -0.091 -0.325 -0.286l -6.604 -13.793l -2.73 6.357l -1.885 -1.456l 0.26 -0.286l 0.91 0.689l 2.925 -6.825c 0.403 0 0.494 0.013 0.611 0.286Z "/></symbol><symbol id="gAF39B06637020F254AB7B881282CA7F5" overflow="visible"><path d="M 0 0m 4.615 5.746c -0.572 0 -1.118 -0.299 -1.651 -0.897c -0.143 0.598 -0.546 0.897 -1.183 0.897c -0.533 0 -0.923 -0.429 -1.196 -1.274c -0.13 -0.429 -0.195 -0.676 -0.195 -0.754c 0 -0.117 0.065 -0.182 0.208 -0.182c 0.065 0 0.104 0.013 0.143 0.039c 0.065 0.117 0.104 0.208 0.117 0.299c 0.234 0.988 0.533 1.482 0.884 1.482c 0.234 0 0.351 -0.182 0.351 -0.533c 0 -0.195 -0.026 -0.416 -0.091 -0.65l -1.43 -5.707c -0.117 -0.429 -0.13 -0.481 -0.637 -0.481c -0.234 0 -0.351 -0.104 -0.351 -0.299c 0 -0.143 0.078 -0.208 0.221 -0.208c 0.195 0 0.871 0.039 1.066 0.039c 0.247 0 1.027 -0.039 1.274 -0.039c 0.195 0 0.286 0.104 0.286 0.312c 0 0.13 -0.117 0.195 -0.364 0.195c -0.234 0 -0.585 -0.013 -0.585 0.143c 0 0.169 0.533 2.21 0.585 2.431c 0.26 -0.481 0.65 -0.728 1.17 -0.728c 0.845 0 1.586 0.429 2.236 1.3c 0.598 0.793 0.897 1.638 0.897 2.509c 0 1.131 -0.676 2.106 -1.755 2.106Z m -0.039 -0.39c 0.507 0 0.767 -0.39 0.767 -1.157c 0 -0.351 -0.078 -0.819 -0.221 -1.404c -0.299 -1.131 -0.676 -1.872 -1.131 -2.249c -0.273 -0.221 -0.52 -0.338 -0.767 -0.338c -0.377 0 -0.637 0.169 -0.78 0.52c -0.117 0.273 -0.182 0.468 -0.182 0.572l 0.663 2.717c 0.065 0.286 0.299 0.585 0.663 0.884c 0.364 0.299 0.689 0.455 0.988 0.455Z "/></symbol><symbol id="gBD71DD9E9466376912EA1F5384258320" overflow="visible"><path d="M 0 0m 5.772 9.334c 0.013 0.026 0.013 0.065 0.013 0.104c 0 0.208 -0.104 0.312 -0.312 0.312c -0.143 0 -0.234 -0.065 -0.286 -0.208l -4.446 -12.376c -0.013 -0.026 -0.013 -0.065 -0.013 -0.104c 0 -0.208 0.104 -0.312 0.312 -0.312c 0.143 0 0.234 0.065 0.286 0.208Z "/></symbol><symbol id="gF894C2D74D7097E9F8A03474A816F1E2" overflow="visible"><path d="M 0 0m 4.693 5.746c -1.469 0 -2.691 -1.586 -3.016 -2.886l -1.248 -5.057c -0.026 -0.104 -0.039 -0.169 -0.039 -0.208c 0 -0.273 0.13 -0.403 0.403 -0.403c 0.195 0 0.364 0.104 0.494 0.299l 0.793 3.107c 0.299 -0.507 0.715 -0.767 1.248 -0.767c 0.858 0 1.612 0.416 2.275 1.261c 0.611 0.793 0.923 1.638 0.923 2.509c 0 1.183 -0.689 2.145 -1.833 2.145Z m -0.026 -0.39c 0.559 0 0.832 -0.403 0.832 -1.209c 0 -0.351 -0.078 -0.806 -0.221 -1.391c -0.286 -1.105 -0.689 -1.846 -1.196 -2.236c -0.273 -0.208 -0.52 -0.312 -0.767 -0.312c -0.247 0 -0.468 0.091 -0.637 0.26c -0.273 0.273 -0.403 0.559 -0.403 0.832c 0.013 0.091 0.039 0.247 0.091 0.468c 0.299 1.235 0.559 2.028 0.767 2.392c 0.455 0.793 0.962 1.196 1.534 1.196Z "/></symbol></defs></svg>