<svg viewBox="0 0 190.875244444 39.3744" width="190.875244444pt" height="39.3744pt" xmlns="http://www.w3.org/2000/svg" xmlns:xlink="http://www.w3.org/1999/xlink" xmlns:h5="http://www.w3.org/1999/xhtml"><g transform="matrix(1 0 0 -1 6.5 23.1634)"><use xlink:href="#gAF39B06637020F254AB7B881282CA7F5" x="0" y="0" fill="#e6edf3" fill-rule="nonzero"/></g><g transform="matrix(1 0 0 -1 13.234 23.1634)"><use xlink:href="#g53251C539233983FE9FC826CA7FBAC4A" x="0" y="0" fill="#e6edf3" fill-rule="nonzero"/></g><g transform="matrix(1 0 0 -1 23.595 18.4444)"><use xlink:href="#gECC459ED2B29D2545DF93BEDB9969CFB" x="0" y="0" fill="#e6edf3" fill-rule="nonzero"/></g><g transform="matrix(1 0 0 -1 33.749011111 23.1634)"><use xlink:href="#g13AFF74D87C474CFAF661EEAD0458F8B" x="0" y="0" fill="#e6edf3" fill-rule="nonzero"/></g><g transform="matrix(1 0 0 -1 47.474122222 23.1634)"><use xlink:href="#g8B273DA24598714A1DE03FD5302C001A" x="0" y="0" fill="#e6edf3" fill-rule="nonzero"/><use xlink:href="#gAA15FA55B6D99ABF04E317BC87D5459D" x="5.772" y="0" fill="#e6edf3" fill-rule="nonzero"/><use xlink:href="#g7413A85D70934E3816A3D1EE8499A939" x="10.829" y="0" fill="#e6edf3" fill-rule="nonzero"/></g><g transform="matrix(1 0 0 -1 90.075122222 23.1634)"><use xlink:href="#g7FAFCFC8164C43C0AF779766359DEA70" x="0" y="0" fill="#e6edf3" fill-rule="nonzero"/></g><g transform="matrix(1 0 0 -1 101.109233333 23.1634)"><use xlink:href="#g13AFF74D87C474CFAF661EEAD0458F8B" x="0" y="0" fill="#e6edf3" fill-rule="nonzero"/></g><g transform="matrix(1 0 0 -1 117.499344444 13.065)"><use xlink:href="#g67F14AC23942C2CCA8D4F8A1F079A1D1" x="0" y="0" fill="#e6edf3" fill-rule="nonzero"/></g><g transform="matrix(1 0 0 -1 125.754344444 16.276)"><use xlink:href="#gDE2B0DCD42F709297493CB2FA2EBD985" x="0" y="0" fill="#e6edf3" fill-rule="nonzero"/></g><g transform="matrix(1 0 0 -1 116.134344444 32.0814)"><use xlink:href="#g67F14AC23942C2CCA8D4F8A1F079A1D1" x="0" y="0" fill="#e6edf3" fill-rule="nonzero"/></g><g transform="matrix(1 0 0 -1 124.389344444 35.2924)"><use xlink:href="#gB520C4FDFB2403295A40FD77402E9185" x="0" y="0" fill="#e6edf3" fill-rule="nonzero"/></g><path fill="none" stroke="#e6edf3" stroke-width="0.624" stroke-linecap="butt" stroke-linejoin="miter" stroke-miterlimit="4" transform="translate(116.134344444 19.9134)" d="M 0 0h 17.0729"/><g transform="matrix(1 0 0 -1 138.118355556 23.1634)"><use xlink:href="#g13AFF74D87C474CFAF661EEAD0458F8B" x="0" y="0" fill="#e6edf3" fill-rule="nonzero"/></g><g transform="matrix(1 0 0 -1 153.143466667 14.3624)"><use xlink:href="#gD4E6477E4F7B402D83BEF565D2756B73" x="0" y="0" fill="#e6edf3" fill-rule="nonzero"/></g><g transform="matrix(1 0 0 -1 163.572355556 14.3624)"><use xlink:href="#gEDF6611ACB83925E748178A176190AF2" x="0" y="0" fill="#e6edf3" fill-rule="nonzero"/></g><g transform="matrix(1 0 0 -1 176.575244444 14.3624)"><use xlink:href="#g21E6026C55295689503B3E9C99FAF46D" x="0" y="0" fill="#e6edf3" fill-rule="nonzero"/></g><g transform="matrix(1 0 0 -1 164.339355556 32.0814)"><use xlink:href="#gD4E6477E4F7B402D83BEF565D2756B73" x="0" y="0" fill="#e6edf3" fill-rule="nonzero"/></g><path fill="none" stroke="#e6edf3" stroke-width="0.624" stroke-linecap="butt" stroke-linejoin="miter" stroke-miterlimit="4" transform="translate(153.143466667 19.9134)" d="M 0 0h 29.931777778"/><defs><symbol id="gAF39B06637020F254AB7B881282CA7F5" overflow="visible"><path d="M 0 0m 4.615 5.746c -0.572 0 -1.118 -0.299 -1.651 -0.897c -0.143 0.598 -0.546 0.897 -1.183 0.897c -0.533 0 -0.923 -0.429 -1.196 -1.274c -0.13 -0.429 -0.195 -0.676 -0.195 -0.754c 0 -0.117 0.065 -0.182 0.208 -0.182c 0.065 0 0.104 0.013 0.143 0.039c 0.065 0.117 0.104 0.208 0.117 0.299c 0.234 0.988 0.533 1.482 0.884 1.482c 0.234 0 0.351 -0.182 0.351 -0.533c 0 -0.195 -0.026 -0.416 -0.091 -0.65l -1.43 -5.707c -0.117 -0.429 -0.13 -0.481 -0.637 -0.481c -0.234 0 -0.351 -0.104 -0.351 -0.299c 0 -0.143 0.078 -0.208 0.221 -0.208c 0.195 0 0.871 0.039 1.066 0.039c 0.247 0 1.027 -0.039 1.274 -0.039c 0.195 0 0.286 0.104 0.286 0.312c 0 0.13 -0.117 0.195 -0.364 0.195c -0.234 0 -0.585 -0.013 -0.585 0.143c 0 0.169 0.533 2.21 0.585 2.431c 0.26 -0.481 0.65 -0.728 1.17 -0.728c 0.845 0 1.586 0.429 2.236 1.3c 0.598 0.793 0.897 1.638 0.897 2.509c 0 1.131 -0.676 2.106 -1.755 2.106Z m -0.039 -0.39c 0.507 0 0.767 -0.39 0.767 -1.157c 0 -0.351 -0.078 -0.819 -0.221 -1.404c -0.299 -1.131 -0.676 -1.872 -1.131 -2.249c -0.273 -0.221 -0.52 -0.338 -0.767 -0.338c -0.377 0 -0.637 0.169 -0.78 0.52c -0.117 0.273 -0.182 0.468 -0.182 0.572l 0.663 2.717c 0.065 0.286 0.299 0.585 0.663 0.884c 0.364 0.299 0.689 0.455 0.988 0.455Z "/></symbol><symbol id="g53251C539233983FE9FC826CA7FBAC4A" overflow="visible"><path d="M 0 0m 8.723 8.84c -0.247 0 -1.027 0.039 -1.274 0.039c -0.195 0 -0.299 -0.104 -0.299 -0.299c 0 -0.13 0.091 -0.195 0.26 -0.208c 0.364 -0.013 0.546 -0.143 0.546 -0.364c 0 -0.117 -0.065 -0.273 -0.182 -0.468l -3.874 -6.149l -0.858 6.656c 0 0.221 0.273 0.325 0.832 0.325c 0.26 0 0.377 0.091 0.377 0.312c 0 0.13 -0.078 0.195 -0.234 0.195c -0.286 0 -1.3 -0.039 -1.586 -0.039c -0.26 0 -1.144 0.039 -1.404 0.039c -0.195 0 -0.299 -0.104 -0.299 -0.299c 0 -0.143 0.13 -0.208 0.377 -0.208c 0.221 0 0.377 -0.026 0.481 -0.052c 0.208 -0.065 0.195 -0.091 0.234 -0.338l 1.014 -7.93c 0.039 -0.221 0.143 -0.338 0.312 -0.338c 0.169 0 0.299 0.091 0.403 0.26l 4.628 7.358c 0.299 0.468 0.585 0.767 0.871 0.884c 0.195 0.091 0.442 0.143 0.728 0.156c 0.143 0.013 0.208 0.104 0.221 0.299c 0.013 0.143 -0.065 0.208 -0.221 0.208c -0.195 0 -0.858 -0.039 -1.053 -0.039Z "/></symbol><symbol id="gECC459ED2B29D2545DF93BEDB9969CFB" overflow="visible"><path d="M 0 0m 5.5146 3.6491c 0.0273 0.0546 0.0455 0.1001 0.0455 0.1274c 0 0.1001 -0.0637 0.1456 -0.182 0.1456c -0.0819 0 -0.1365 -0.0182 -0.1638 -0.0637c -0.4186 -0.728 -0.8008 -1.5379 -1.1375 -2.4297c -0.0637 0.5915 -0.3003 1.3286 -0.546 1.7745c -0.3094 0.5369 -0.7371 0.8099 -1.2922 0.8099c -0.4641 0 -0.8827 -0.1729 -1.2649 -0.5278c -0.2366 -0.2275 -0.6643 -0.8099 -0.6643 -1.1284c 0 -0.1001 0.0637 -0.1456 0.182 -0.1456c 0.091 0 0.1547 0.0637 0.2002 0.182c 0.1638 0.4732 0.7826 0.8281 1.4196 0.8281c 1.0647 0 1.6016 -0.7735 1.6016 -2.3296c 0 -0.2912 -0.0182 -0.5005 -0.0637 -0.637c -0.3185 -1.0192 -0.4732 -1.6653 -0.4732 -1.9474c 0 -0.1729 0.0637 -0.2548 0.182 -0.2548c 0.0364 0 0.0637 0.0091 0.091 0.0182c 0.0819 0.0273 0.1638 0.1911 0.2548 0.4732c 0.1729 0.5733 0.2821 1.1284 0.3458 1.6744c 0.0273 0.2639 0.273 0.91 0.728 1.9474c 0.2093 0.4914 0.455 0.9828 0.7371 1.4833Z "/></symbol><symbol id="g13AFF74D87C474CFAF661EEAD0458F8B" overflow="visible"><path d="M 0 0m 9.074 4.771h -8.034c -0.208 0 -0.312 -0.104 -0.312 -0.299c 0 -0.195 0.104 -0.299 0.312 -0.299h 8.034c 0.208 0 0.312 0.104 0.312 0.299c 0 0.156 -0.143 0.299 -0.312 0.299Z m 0 -2.444h -8.034c -0.208 0 -0.312 -0.104 -0.312 -0.299c 0 -0.195 0.104 -0.299 0.312 -0.299h 8.034c 0.208 0 0.312 0.104 0.312 0.299c 0 0.169 -0.143 0.299 -0.312 0.299Z "/></symbol><symbol id="g8B273DA24598714A1DE03FD5302C001A" overflow="visible"><path d="M 0 0m 3.263 5.408c 0.546 0 0.962 -0.13 1.248 -0.39c -0.312 -0.039 -0.533 -0.325 -0.533 -0.624c 0 -0.429 0.208 -0.637 0.637 -0.637c 0.429 0 0.637 0.221 0.637 0.65c 0 0.923 -1.001 1.417 -2.002 1.417c -0.806 0 -1.469 -0.286 -2.002 -0.884c -0.533 -0.598 -0.806 -1.313 -0.806 -2.132c 0 -0.793 0.273 -1.495 0.806 -2.08c 0.533 -0.585 1.183 -0.871 1.976 -0.871c 0.65 0 1.157 0.182 1.521 0.559c 0.299 0.299 0.494 0.598 0.598 0.91c 0.039 0.117 0.052 0.195 0.052 0.247c 0 0.117 -0.078 0.169 -0.221 0.169c -0.104 0 -0.169 -0.052 -0.208 -0.156c -0.273 -0.871 -0.806 -1.313 -1.625 -1.313c -0.377 0 -0.741 0.169 -1.105 0.52c -0.429 0.403 -0.637 1.079 -0.637 2.041c 0 1.3 0.494 2.574 1.664 2.574Z "/></symbol><symbol id="gAA15FA55B6D99ABF04E317BC87D5459D" overflow="visible"><path d="M 0 0m 4.316 1.638v 0.78h -0.416v -0.754c 0 -0.65 -0.234 -1.378 -0.806 -1.378c -0.533 0 -0.793 0.442 -0.793 1.326v 3.523h 1.807v 0.494h -1.807v 2.366h -0.416c -0.013 -0.429 -0.052 -0.806 -0.143 -1.144c -0.221 -0.858 -0.728 -1.3 -1.495 -1.339v -0.377h 1.079v -3.497c 0 -0.767 0.234 -1.261 0.689 -1.508c 0.351 -0.182 0.676 -0.273 1.001 -0.273c 0.858 0 1.3 0.858 1.3 1.781Z "/></symbol><symbol id="g7413A85D70934E3816A3D1EE8499A939" overflow="visible"><path d="M 0 0m 5.395 3.263c 0 1.495 -0.871 2.561 -2.327 2.561c -0.78 0 -1.43 -0.299 -1.963 -0.91c -0.494 -0.572 -0.741 -1.261 -0.741 -2.054c 0 -0.819 0.273 -1.508 0.819 -2.106c 0.546 -0.598 1.222 -0.897 2.028 -0.897c 0.741 0 1.313 0.26 1.703 0.767c 0.325 0.429 0.481 0.741 0.481 0.949c 0 0.13 -0.078 0.195 -0.221 0.195c -0.104 0 -0.169 -0.065 -0.208 -0.208c -0.286 -0.858 -0.845 -1.287 -1.677 -1.287c -0.585 0 -1.04 0.273 -1.391 0.832c -0.247 0.403 -0.364 1.014 -0.377 1.846h 3.51c 0.286 0 0.364 0.026 0.364 0.312Z m -1.157 1.274c 0.143 -0.429 0.208 -0.845 0.208 -1.222h -2.912c 0.039 0.858 0.26 1.443 0.65 1.742c 0.325 0.26 0.611 0.39 0.884 0.39c 0.585 0 0.975 -0.299 1.17 -0.91Z "/></symbol><symbol id="g7FAFCFC8164C43C0AF779766359DEA70" overflow="visible"><path d="M 0 0m 6.812 4.914c 0.169 0.325 0.247 0.494 0.247 0.507c 0 0.117 -0.065 0.182 -0.208 0.182c -0.091 0 -0.156 -0.039 -0.195 -0.117c -0.455 -0.845 -0.988 -2.041 -1.612 -3.588c -0.052 0.858 -0.221 1.664 -0.507 2.405c -0.377 0.962 -0.962 1.443 -1.755 1.443c -0.819 0 -1.534 -0.546 -1.898 -1.053c -0.429 -0.611 -0.65 -1.066 -0.65 -1.352c 0 -0.117 0.104 -0.182 0.325 -0.182l 0.065 0.091c 0.221 0.676 0.598 1.105 1.131 1.287c 0.364 0.117 0.65 0.182 0.858 0.182c 1.352 0 2.028 -1.066 2.028 -3.211c 0 -0.507 -0.052 -0.923 -0.156 -1.248c -0.442 -1.443 -0.663 -2.366 -0.663 -2.769c 0 -0.195 0.078 -0.286 0.221 -0.286c 0.156 0 0.312 0.273 0.455 0.806c 0.221 0.832 0.377 1.573 0.468 2.223c 0.039 0.195 0.065 0.364 0.104 0.481c 0.468 1.456 1.053 2.86 1.742 4.199Z "/></symbol><symbol id="g67F14AC23942C2CCA8D4F8A1F079A1D1" overflow="visible"><path d="M 0 0m 1.924 2.834c 0 1.664 0.728 3.354 1.547 4.29c 0.663 0.767 1.807 1.534 3.094 1.534c 1.352 0 2.015 -1.027 2.015 -2.431c 0 -0.117 -0.039 -0.533 -0.039 -0.65c 0 -0.117 0.078 -0.182 0.247 -0.182c 0.065 0 0.117 0.013 0.156 0.026c 0.065 0.091 0.104 0.182 0.13 0.273l 0.806 3.289c 0 0.117 -0.065 0.182 -0.195 0.182c -0.052 0 -0.13 -0.052 -0.234 -0.169l -0.845 -0.949c -0.507 0.741 -1.222 1.118 -2.145 1.118c -0.715 0 -1.417 -0.169 -2.132 -0.494c -1.443 -0.676 -2.496 -1.742 -3.172 -3.198c -0.338 -0.715 -0.507 -1.443 -0.507 -2.184c 0 -1.04 0.325 -1.885 0.988 -2.561c 0.663 -0.676 1.508 -1.014 2.548 -1.014c 1.027 0 1.963 0.377 2.808 1.118c 0.351 0.299 0.65 0.663 0.897 1.066c 0.351 0.585 0.533 0.988 0.533 1.235c 0 0.117 -0.065 0.182 -0.208 0.182c -0.117 0 -0.182 -0.052 -0.208 -0.169c -0.273 -0.845 -0.702 -1.521 -1.287 -2.002c -0.741 -0.611 -1.521 -0.923 -2.327 -0.923c -1.56 0 -2.47 1.053 -2.47 2.613Z "/></symbol><symbol id="gDE2B0DCD42F709297493CB2FA2EBD985" overflow="visible"><path d="M 0 0m 3.6855 4.0131c -0.4459 0 -0.8645 -0.2002 -1.2558 -0.6006c -0.1365 0.4004 -0.455 0.6006 -0.9373 0.6006c -0.4277 0 -0.7462 -0.3367 -0.9646 -1.0192c -0.0728 -0.2184 -0.1092 -0.3458 -0.1092 -0.3913c 0 -0.1001 0.0637 -0.1547 0.1911 -0.1547c 0.182 0 0.1911 0.1001 0.2366 0.3003c 0.1547 0.6279 0.3549 0.9373 0.6188 0.9373c 0.1729 0 0.2548 -0.1365 0.2548 -0.4004c 0 -0.1001 -0.0091 -0.1911 -0.0273 -0.2639l -1.0192 -4.095c -0.0637 -0.2548 -0.0819 -0.3003 -0.4004 -0.3003c -0.1911 0 -0.2821 -0.0546 -0.2821 -0.2184c 0 -0.1183 0.0546 -0.1729 0.1638 -0.1729c 0.1456 0 0.6188 0.0364 0.7735 0.0364c 0.1729 0 0.7644 -0.0364 0.9373 -0.0364c 0.1456 0 0.2184 0.0819 0.2184 0.2366c 0 0.1001 -0.091 0.1547 -0.273 0.1547c -0.2639 0 -0.4004 0.0273 -0.4004 0.0728c 0 0.0091 0.0091 0.0546 0.0273 0.1183l 0.3822 1.547c 0.2093 -0.3185 0.5187 -0.4732 0.91 -0.4732c 0.6188 0 1.1648 0.2821 1.6471 0.8372c 0.4641 0.5369 0.6916 1.1193 0.6916 1.7472c 0 0.8463 -0.5278 1.5379 -1.3832 1.5379Z m -0.0273 -0.3276c 0.4095 0 0.6188 -0.273 0.6188 -0.8281c 0 -0.5187 -0.273 -1.4378 -0.455 -1.7927c -0.182 -0.3731 -0.6097 -0.8554 -1.092 -0.8554c -0.182 0 -0.3367 0.0546 -0.4641 0.1729c -0.2002 0.1911 -0.3003 0.3822 -0.3003 0.5733c 0 0.0182 0.0091 0.0637 0.0273 0.1274l 0.4459 1.8018c 0.4004 0.5369 0.8099 0.8008 1.2194 0.8008Z "/></symbol><symbol id="gB520C4FDFB2403295A40FD77402E9185" overflow="visible"><path d="M 0 0m 6.9524 6.1789c -0.1729 0 -0.7644 0.0364 -0.9373 0.0364c -0.1456 0 -0.2184 -0.0819 -0.2184 -0.2366c 0 -0.1001 0.0637 -0.1547 0.2002 -0.1638c 0.2275 -0.0091 0.3367 -0.0819 0.3367 -0.2184c 0 -0.0728 -0.0546 -0.1911 -0.1547 -0.3458l -2.912 -4.277l -0.8008 4.5136c -0.0091 0.0637 -0.0182 0.1001 -0.0182 0.1274c 0 0.1365 0.1729 0.2002 0.5278 0.2002c 0.1911 0 0.3094 0.0455 0.3094 0.2366v 0.0364c -0.0182 0.0819 -0.0819 0.1274 -0.1911 0.1274c -0.2093 0 -0.9464 -0.0364 -1.1557 -0.0364c -0.1911 0 -0.8099 0.0364 -1.001 0.0364c -0.1456 0 -0.2184 -0.0819 -0.2184 -0.2366c 0 -0.1092 0.091 -0.1638 0.2639 -0.1638c 0.3913 0 0.4732 0.0273 0.5187 -0.2548l 0.9828 -5.4691c 0.0273 -0.182 0.1183 -0.273 0.2548 -0.273c 0.1274 0 0.2366 0.0728 0.3367 0.2093l 3.4398 5.0596c 0.3094 0.455 0.6734 0.7007 1.0829 0.7371c 0.1638 0.0091 0.2366 0.0728 0.2366 0.2275c 0 0.1092 -0.0546 0.1638 -0.1638 0.1638c -0.1274 0 -0.5915 -0.0364 -0.7189 -0.0364Z "/></symbol><symbol id="gD4E6477E4F7B402D83BEF565D2756B73" overflow="visible"><path d="M 0 0m 7.176 8.229c 0 0.572 -0.559 0.936 -1.17 0.936c -0.806 0 -1.365 -0.52 -1.664 -1.547c -0.065 -0.234 -0.208 -0.897 -0.416 -1.989h -0.845c -0.286 0 -0.429 -0.013 -0.429 -0.286c 0 -0.143 0.13 -0.208 0.403 -0.208h 0.78l -0.949 -5.031c -0.143 -0.741 -0.273 -1.287 -0.39 -1.651c -0.156 -0.481 -0.377 -0.728 -0.663 -0.728c -0.195 0 -0.351 0.052 -0.494 0.143c 0.416 0.065 0.624 0.312 0.624 0.728c 0 0.338 -0.169 0.507 -0.52 0.507c -0.442 0 -0.754 -0.39 -0.754 -0.832c 0 -0.572 0.533 -0.936 1.144 -0.936c 0.325 0 0.624 0.13 0.871 0.403c 0.416 0.429 0.741 1.04 0.975 1.859c 0.143 0.507 0.273 1.001 0.364 1.495l 0.754 4.043h 1.066c 0.299 0 0.429 0.013 0.429 0.312c 0 0.117 -0.13 0.182 -0.39 0.182h -1.001c 0.078 0.533 0.442 2.496 0.559 2.743c 0.13 0.273 0.312 0.403 0.546 0.403c 0.195 0 0.364 -0.052 0.507 -0.143c -0.403 -0.091 -0.611 -0.325 -0.611 -0.728c 0 -0.338 0.169 -0.507 0.52 -0.507c 0.442 0 0.754 0.39 0.754 0.832Z "/></symbol><symbol id="gEDF6611ACB83925E748178A176190AF2" overflow="visible"><path d="M 0 0m 9.074 3.562h -3.705v 3.705c 0 0.208 -0.104 0.312 -0.312 0.312c -0.208 0 -0.312 -0.104 -0.312 -0.312v -3.705h -3.705c -0.208 0 -0.312 -0.104 -0.312 -0.312c 0 -0.208 0.104 -0.312 0.312 -0.312h 3.705v -3.705c 0 -0.208 0.104 -0.312 0.312 -0.312c 0.208 0 0.312 0.104 0.312 0.312v 3.705h 3.705c 0.208 0 0.312 0.104 0.312 0.312c 0 0.169 -0.143 0.312 -0.312 0.312Z "/></symbol><symbol id="g21E6026C55295689503B3E9C99FAF46D" overflow="visible"><path d="M 0 0m 3.081 8.658c -0.663 0 -1.222 -0.234 -1.703 -0.702c -0.481 -0.468 -0.728 -1.014 -0.728 -1.677c 0 -0.442 0.325 -0.767 0.728 -0.767c 0.39 0 0.715 0.338 0.715 0.728c 0 0.429 -0.312 0.728 -0.728 0.728c -0.039 0 -0.065 0 -0.091 -0.013c 0.247 0.637 0.819 1.196 1.638 1.196c 1.066 0 1.664 -0.923 1.664 -2.041c 0 -0.871 -0.442 -1.807 -1.326 -2.795l -2.444 -2.756c -0.169 -0.195 -0.156 -0.182 -0.156 -0.559h 4.823l 0.377 2.34h -0.429c -0.104 -0.663 -0.195 -1.04 -0.273 -1.157c -0.065 -0.065 -0.455 -0.091 -1.17 -0.091h -2.171l 1.261 1.235c 0.884 0.832 2.002 1.729 2.379 2.418c 0.26 0.455 0.39 0.91 0.39 1.365c 0 1.534 -1.196 2.548 -2.756 2.548Z "/></symbol></defs></svg>