<svg viewBox="0 0 163.364644444 24.05" width="163.364644444pt" height="24.05pt" xmlns="http://www.w3.org/2000/svg" xmlns:xlink="http://www.w3.org/1999/xlink" xmlns:h5="http://www.w3.org/1999/xhtml"><g transform="matrix(1 0 0 -1 6.5 16.848)"><use xlink:href="#gF291FCC7BBD497BC1B54131876EE661E" x="0" y="0" fill="#e6edf3" fill-rule="nonzero"/></g><g transform="matrix(1 0 0 -1 12.805 20.059)"><use xlink:href="#gBBA4DF69B4336752C72E907B110611D2" x="0" y="0" fill="#e6edf3" fill-rule="nonzero"/></g><g transform="matrix(1 0 0 -1 22.049011111 16.848)"><use xlink:href="#g13AFF74D87C474CFAF661EEAD0458F8B" x="0" y="0" fill="#e6edf3" fill-rule="nonzero"/></g><g transform="matrix(1 0 0 -1 35.774122222 15.574)"><use xlink:href="#g41DD0379D8A3E04981ED32215CCCD900" x="0" y="0" fill="#e6edf3" fill-rule="nonzero"/></g><path fill="none" stroke="#e6edf3" stroke-width="0.624" stroke-linecap="butt" stroke-linejoin="miter" stroke-miterlimit="4" transform="translate(48.774122222 4.836)" d="M 0 0h 27.547"/><g transform="matrix(1 0 0 -1 48.774122222 16.848)"><use xlink:href="#g7FAFCFC8164C43C0AF779766359DEA70" x="0" y="0" fill="#e6edf3" fill-rule="nonzero"/></g><g transform="matrix(1 0 0 -1 56.197122222 16.848)"><use xlink:href="#gAF39B06637020F254AB7B881282CA7F5" x="0" y="0" fill="#e6edf3" fill-rule="nonzero"/></g><g transform="matrix(1 0 0 -1 62.931122222 16.848)"><use xlink:href="#gBD71DD9E9466376912EA1F5384258320" x="0" y="0" fill="#e6edf3" fill-rule="nonzero"/></g><g transform="matrix(1 0 0 -1 69.431122222 16.848)"><use xlink:href="#gF894C2D74D7097E9F8A03474A816F1E2" x="0" y="0" fill="#e6edf3" fill-rule="nonzero"/></g><g transform="matrix(1 0 0 -1 79.932233333 16.848)"><use xlink:href="#g13AFF74D87C474CFAF661EEAD0458F8B" x="0" y="0" fill="#e6edf3" fill-rule="nonzero"/></g><g transform="matrix(1 0 0 -1 93.657344444 15.574)"><use xlink:href="#g41DD0379D8A3E04981ED32215CCCD900" x="0" y="0" fill="#e6edf3" fill-rule="nonzero"/></g><path fill="none" stroke="#e6edf3" stroke-width="0.624" stroke-linecap="butt" stroke-linejoin="miter" stroke-miterlimit="4" transform="translate(106.657344444 4.836)" d="M 0 0h 50.2073"/><g transform="matrix(1 0 0 -1 106.657344444 16.848)"><use xlink:href="#g7FAFCFC8164C43C0AF779766359DEA70" x="0" y="0" fill="#e6edf3" fill-rule="nonzero"/></g><g transform="matrix(1 0 0 -1 114.080344444 16.848)"><use xlink:href="#gCD18A55F4CC2CA429D96672C565B9565" x="0" y="0" fill="#e6edf3" fill-rule="nonzero"/></g><g transform="matrix(1 0 0 -1 120.853344444 20.059)"><use xlink:href="#gC7B20184179011BBC954B5E7CD84FB69" x="0" y="0" fill="#e6edf3" fill-rule="nonzero"/></g><g transform="matrix(1 0 0 -1 129.434644444 16.848)"><use xlink:href="#g2D1FD5FA7721AD843D67732819992226" x="0" y="0" fill="#e6edf3" fill-rule="nonzero"/></g><g transform="matrix(1 0 0 -1 138.950644444 16.848)"><use xlink:href="#gBD71DD9E9466376912EA1F5384258320" x="0" y="0" fill="#e6edf3" fill-rule="nonzero"/></g><g transform="matrix(1 0 0 -1 145.450644444 16.848)"><use xlink:href="#g6F6DC66390EDB4031842963E7A41B7D9" x="0" y="0" fill="#e6edf3" fill-rule="nonzero"/></g><defs><symbol id="gF291FCC7BBD497BC1B54131876EE661E" overflow="visible"><path d="M 0 0m 4.797 5.083c 0 -0.104 0.117 -0.273 0.325 -0.533c 0.208 -0.26 0.312 -0.559 0.312 -0.897c 0 -0.377 -0.182 -1.014 -0.559 -1.911c -0.273 -0.624 -0.897 -1.508 -1.664 -1.508c -0.598 0 -0.897 0.351 -0.897 1.066c 0 0.507 0.247 1.404 0.741 2.691c 0.104 0.273 0.156 0.494 0.156 0.65c 0 0.65 -0.442 1.105 -1.092 1.105c -0.572 0 -1.027 -0.325 -1.352 -0.975c -0.26 -0.533 -0.39 -0.871 -0.39 -1.04c 0 -0.117 0.065 -0.182 0.208 -0.182c 0.169 0 0.195 0.078 0.247 0.26c 0.299 1.04 0.715 1.56 1.248 1.56c 0.169 0 0.26 -0.117 0.26 -0.364c 0 -0.208 -0.065 -0.494 -0.208 -0.871c -0.481 -1.287 -0.728 -2.158 -0.728 -2.639c 0 -0.663 0.221 -1.118 0.663 -1.365c 0.351 -0.182 0.715 -0.273 1.092 -0.273c 1.157 0 1.963 1.248 2.301 2.249c 0.416 1.222 0.624 2.119 0.624 2.691c 0 0.637 -0.208 0.949 -0.611 0.949c -0.325 0 -0.676 -0.338 -0.676 -0.663Z "/></symbol><symbol id="gBBA4DF69B4336752C72E907B110611D2" overflow="visible"><path d="M 0 0m 4.277 3.2032c 0 0.5642 -0.5915 0.8099 -1.2194 0.8099c -0.6552 0 -1.1193 -0.1911 -1.3832 -0.5733c -0.2002 -0.2821 -0.3003 -0.5369 -0.3003 -0.7644c 0 -0.4277 0.2275 -0.7189 0.6825 -0.8736c 0.0819 -0.0273 0.3094 -0.0728 0.6734 -0.1365c 0.4823 -0.091 0.728 -0.273 0.728 -0.5551c 0 -0.1001 -0.0364 -0.2093 -0.1092 -0.3458c -0.1911 -0.3549 -0.6006 -0.5369 -1.2194 -0.5369c -0.5005 0 -0.8372 0.1092 -1.0101 0.3185c 0.2457 0.0455 0.4641 0.2548 0.4641 0.5369c 0 0.2457 -0.1274 0.364 -0.3822 0.364c -0.3458 0 -0.5551 -0.2912 -0.5551 -0.637c 0 -0.637 0.7553 -0.9009 1.4742 -0.9009c 0.6188 0 1.092 0.1456 1.4196 0.4277c 0.3731 0.3185 0.5551 0.6825 0.5551 1.0829c 0 0.5642 -0.4186 0.9282 -1.2558 1.0829c -0.1547 0.0364 -0.273 0.0637 -0.3549 0.0728c -0.3094 0.0546 -0.4641 0.1911 -0.4641 0.4095c 0 0.1001 0.0364 0.1911 0.1001 0.2912c 0.1729 0.2821 0.4823 0.4186 0.9282 0.4186c 0.3822 0 0.6461 -0.091 0.7826 -0.273c -0.2275 -0.0728 -0.3458 -0.2184 -0.3458 -0.4459c 0 -0.2093 0.1092 -0.3185 0.3276 -0.3185c 0.273 0 0.4641 0.2366 0.4641 0.546Z "/></symbol><symbol id="g13AFF74D87C474CFAF661EEAD0458F8B" overflow="visible"><path d="M 0 0m 9.074 4.771h -8.034c -0.208 0 -0.312 -0.104 -0.312 -0.299c 0 -0.195 0.104 -0.299 0.312 -0.299h 8.034c 0.208 0 0.312 0.104 0.312 0.299c 0 0.156 -0.143 0.299 -0.312 0.299Z m 0 -2.444h -8.034c -0.208 0 -0.312 -0.104 -0.312 -0.299c 0 -0.195 0.104 -0.299 0.312 -0.299h 8.034c 0.208 0 0.312 0.104 0.312 0.299c 0 0.169 -0.143 0.299 -0.312 0.299Z "/></symbol><symbol id="g41DD0379D8A3E04981ED32215CCCD900" overflow="visible"><path d="M 0 0m 13.169 10.491c 0.065 0.13 0.091 0.208 0.091 0.247c 0 0.208 -0.104 0.312 -0.312 0.312c -0.13 0 -0.234 -0.091 -0.325 -0.286l -6.604 -13.793l -2.73 6.357l -1.885 -1.456l 0.26 -0.286l 0.91 0.689l 2.925 -6.825c 0.403 0 0.494 0.013 0.611 0.286Z "/></symbol><symbol id="g7FAFCFC8164C43C0AF779766359DEA70" overflow="visible"><path d="M 0 0m 6.812 4.914c 0.169 0.325 0.247 0.494 0.247 0.507c 0 0.117 -0.065 0.182 -0.208 0.182c -0.091 0 -0.156 -0.039 -0.195 -0.117c -0.455 -0.845 -0.988 -2.041 -1.612 -3.588c -0.052 0.858 -0.221 1.664 -0.507 2.405c -0.377 0.962 -0.962 1.443 -1.755 1.443c -0.819 0 -1.534 -0.546 -1.898 -1.053c -0.429 -0.611 -0.65 -1.066 -0.65 -1.352c 0 -0.117 0.104 -0.182 0.325 -0.182l 0.065 0.091c 0.221 0.676 0.598 1.105 1.131 1.287c 0.364 0.117 0.65 0.182 0.858 0.182c 1.352 0 2.028 -1.066 2.028 -3.211c 0 -0.507 -0.052 -0.923 -0.156 -1.248c -0.442 -1.443 -0.663 -2.366 -0.663 -2.769c 0 -0.195 0.078 -0.286 0.221 -0.286c 0.156 0 0.312 0.273 0.455 0.806c 0.221 0.832 0.377 1.573 0.468 2.223c 0.039 0.195 0.065 0.364 0.104 0.481c 0.468 1.456 1.053 2.86 1.742 4.199Z "/></symbol><symbol id="gAF39B06637020F254AB7B881282CA7F5" overflow="visible"><path d="M 0 0m 4.615 5.746c -0.572 0 -1.118 -0.299 -1.651 -0.897c -0.143 0.598 -0.546 0.897 -1.183 0.897c -0.533 0 -0.923 -0.429 -1.196 -1.274c -0.13 -0.429 -0.195 -0.676 -0.195 -0.754c 0 -0.117 0.065 -0.182 0.208 -0.182c 0.065 0 0.104 0.013 0.143 0.039c 0.065 0.117 0.104 0.208 0.117 0.299c 0.234 0.988 0.533 1.482 0.884 1.482c 0.234 0 0.351 -0.182 0.351 -0.533c 0 -0.195 -0.026 -0.416 -0.091 -0.65l -1.43 -5.707c -0.117 -0.429 -0.13 -0.481 -0.637 -0.481c -0.234 0 -0.351 -0.104 -0.351 -0.299c 0 -0.143 0.078 -0.208 0.221 -0.208c 0.195 0 0.871 0.039 1.066 0.039c 0.247 0 1.027 -0.039 1.274 -0.039c 0.195 0 0.286 0.104 0.286 0.312c 0 0.13 -0.117 0.195 -0.364 0.195c -0.234 0 -0.585 -0.013 -0.585 0.143c 0 0.169 0.533 2.21 0.585 2.431c 0.26 -0.481 0.65 -0.728 1.17 -0.728c 0.845 0 1.586 0.429 2.236 1.3c 0.598 0.793 0.897 1.638 0.897 2.509c 0 1.131 -0.676 2.106 -1.755 2.106Z m -0.039 -0.39c 0.507 0 0.767 -0.39 0.767 -1.157c 0 -0.351 -0.078 -0.819 -0.221 -1.404c -0.299 -1.131 -0.676 -1.872 -1.131 -2.249c -0.273 -0.221 -0.52 -0.338 -0.767 -0.338c -0.377 0 -0.637 0.169 -0.78 0.52c -0.117 0.273 -0.182 0.468 -0.182 0.572l 0.663 2.717c 0.065 0.286 0.299 0.585 0.663 0.884c 0.364 0.299 0.689 0.455 0.988 0.455Z "/></symbol><symbol id="gBD71DD9E9466376912EA1F5384258320" overflow="visible"><path d="M 0 0m 5.772 9.334c 0.013 0.026 0.013 0.065 0.013 0.104c 0 0.208 -0.104 0.312 -0.312 0.312c -0.143 0 -0.234 -0.065 -0.286 -0.208l -4.446 -12.376c -0.013 -0.026 -0.013 -0.065 -0.013 -0.104c 0 -0.208 0.104 -0.312 0.312 -0.312c 0.143 0 0.234 0.065 0.286 0.208Z "/></symbol><symbol id="gF894C2D74D7097E9F8A03474A816F1E2" overflow="visible"><path d="M 0 0m 4.693 5.746c -1.469 0 -2.691 -1.586 -3.016 -2.886l -1.248 -5.057c -0.026 -0.104 -0.039 -0.169 -0.039 -0.208c 0 -0.273 0.13 -0.403 0.403 -0.403c 0.195 0 0.364 0.104 0.494 0.299l 0.793 3.107c 0.299 -0.507 0.715 -0.767 1.248 -0.767c 0.858 0 1.612 0.416 2.275 1.261c 0.611 0.793 0.923 1.638 0.923 2.509c 0 1.183 -0.689 2.145 -1.833 2.145Z m -0.026 -0.39c 0.559 0 0.832 -0.403 0.832 -1.209c 0 -0.351 -0.078 -0.806 -0.221 -1.391c -0.286 -1.105 -0.689 -1.846 -1.196 -2.236c -0.273 -0.208 -0.52 -0.312 -0.767 -0.312c -0.247 0 -0.468 0.091 -0.637 0.26c -0.273 0.273 -0.403 0.559 -0.403 0.832c 0.013 0.091 0.039 0.247 0.091 0.468c 0.299 1.235 0.559 2.028 0.767 2.392c 0.455 0.793 0.962 1.196 1.534 1.196Z "/></symbol><symbol id="gCD18A55F4CC2CA429D96672C565B9565" overflow="visible"><path d="M 0 0m 5.317 4.589c 0 -0.338 0.182 -0.507 0.533 -0.507c 0.455 0 0.754 0.403 0.754 0.845c 0 0.507 -0.416 0.858 -0.923 0.858c -0.585 0 -1.209 -0.39 -1.898 -1.157c -0.533 -0.585 -0.962 -0.962 -1.313 -1.131l 1.313 5.33c -0.026 0.117 -0.052 0.195 -0.221 0.195c -0.416 0 -1.404 -0.117 -1.56 -0.13c -0.195 -0.026 -0.286 -0.117 -0.286 -0.312c 0 -0.13 0.117 -0.195 0.351 -0.195c 0.247 0 0.585 0.013 0.585 -0.169l -1.885 -7.657c -0.039 -0.143 -0.052 -0.234 -0.052 -0.286c 0 -0.273 0.143 -0.416 0.416 -0.416c 0.221 0 0.39 0.104 0.481 0.299c 0.065 0.117 0.299 1.04 0.715 2.782c 0.676 -0.065 1.391 -0.39 1.391 -1.04c 0 -0.195 -0.091 -0.585 -0.091 -0.715c 0 -0.741 0.481 -1.326 1.222 -1.326c 0.754 0 1.261 0.676 1.521 2.028c 0 0.117 -0.065 0.182 -0.195 0.182c -0.117 0 -0.195 -0.091 -0.234 -0.273c -0.286 -1.027 -0.637 -1.547 -1.066 -1.547c -0.234 0 -0.351 0.182 -0.351 0.546c 0 0.208 0.156 0.91 0.156 1.118c 0 0.741 -0.598 1.196 -1.807 1.378c 0.299 0.208 0.637 0.507 1.001 0.897c 0.364 0.39 0.624 0.637 0.793 0.78c 0.351 0.286 0.689 0.429 0.988 0.429c 0.13 0 0.234 -0.026 0.312 -0.078c -0.351 -0.065 -0.65 -0.39 -0.65 -0.728Z "/></symbol><symbol id="gC7B20184179011BBC954B5E7CD84FB69" overflow="visible"><path d="M 0 0m 7.6167 4.9049c 0 0.4368 -0.2184 0.7735 -0.6552 1.0101c -0.3549 0.2002 -0.7735 0.3003 -1.2467 0.3003h -3.276c -0.2093 0 -0.3276 -0.0273 -0.3276 -0.2366c 0 -0.1001 0.0637 -0.1456 0.1911 -0.1547l 0.4732 -0.0182c 0.1183 -0.0091 0.1729 0 0.1729 -0.091l -1.2285 -4.9686c -0.0455 -0.182 -0.1365 -0.2912 -0.273 -0.3367c -0.0455 -0.0091 -0.2002 -0.0182 -0.4823 -0.0182h -0.1547c -0.1001 -0.0091 -0.1547 -0.0819 -0.1547 -0.2184c 0 -0.1547 0.1183 -0.1729 0.3094 -0.1729h 3.4853c 0.6097 0 1.1921 0.1729 1.7472 0.5096c 0.6461 0.3913 0.9646 0.8736 0.9646 1.4469c 0 0.728 -0.6916 1.1739 -1.3741 1.3013c 0.8099 0.182 1.8291 0.7826 1.8291 1.6471Z m -0.9555 0.0091c 0 -0.455 -0.2275 -0.8281 -0.6734 -1.1284c -0.4004 -0.2639 -0.8372 -0.3913 -1.3195 -0.3913h -1.4287l 0.5369 2.1476c 0.0728 0.273 0.0728 0.2821 0.4277 0.2821h 1.365c 0.6279 0 1.092 -0.3185 1.092 -0.91Z m -0.4823 -2.8938c 0 -0.4732 -0.2184 -0.8736 -0.6461 -1.1921c -0.3913 -0.2912 -0.8281 -0.4368 -1.3195 -0.4368h -1.4469c -0.1729 0 -0.2548 -0.0182 -0.2548 0.0546l 0.6461 2.6208h 1.8837c 0.6643 0 1.1375 -0.3822 1.1375 -1.0465Z "/></symbol><symbol id="g2D1FD5FA7721AD843D67732819992226" overflow="visible"><path d="M 0 0m 4.472 8.203c 0 -0.039 -0.013 -0.13 -0.052 -0.26l -1.716 -6.864c -0.052 -0.195 -0.104 -0.312 -0.143 -0.364c -0.117 -0.143 -0.559 -0.208 -1.339 -0.208c -0.403 0 -0.585 0.039 -0.585 -0.299c 0 -0.143 0.091 -0.208 0.26 -0.208c 0.663 0 1.599 0.052 2.158 0.039l 1.066 -0.013c 0.182 0 0.897 -0.026 1.118 -0.026c 0.221 0 0.325 0.104 0.325 0.312c 0 0.13 -0.156 0.195 -0.481 0.195c -0.676 0 -1.066 0.026 -1.183 0.091c -0.039 0.026 -0.065 0.078 -0.065 0.156l 1.755 7.085c 0.039 0.182 0.078 0.299 0.117 0.338c 0.052 0.078 0.364 0.117 0.936 0.117c 0.715 0 1.209 -0.052 1.456 -0.169c 0.247 -0.117 0.377 -0.39 0.377 -0.832c 0 -0.234 -0.039 -0.572 -0.104 -1.014c -0.026 -0.104 -0.039 -0.182 -0.039 -0.247c 0 -0.143 0.065 -0.221 0.208 -0.221c 0.117 0 0.195 0.117 0.234 0.338l 0.351 2.236c 0.013 0.065 0.026 0.143 0.026 0.221c 0 0.13 -0.13 0.195 -0.403 0.195h -7.124c -0.338 0 -0.364 -0.039 -0.468 -0.286l -0.767 -2.262c -0.039 -0.117 -0.065 -0.195 -0.078 -0.247c 0 -0.13 0.065 -0.195 0.208 -0.195c 0.104 0 0.195 0.104 0.26 0.299c 0.325 0.949 0.65 1.534 0.949 1.781c 0.338 0.273 0.988 0.403 1.937 0.403h 0.507c 0.143 0 0.299 0.013 0.299 -0.091Z "/></symbol><symbol id="g6F6DC66390EDB4031842963E7A41B7D9" overflow="visible"><path d="M 0 0m 8.541 5.746c -0.793 0 -1.482 -0.39 -2.067 -1.157c -0.117 0.767 -0.611 1.157 -1.495 1.157c -0.767 0 -1.43 -0.338 -1.976 -1.027c -0.104 0.572 -0.559 1.027 -1.222 1.027c -0.533 0 -0.923 -0.429 -1.196 -1.274c -0.143 -0.416 -0.208 -0.663 -0.208 -0.741c 0 -0.117 0.065 -0.182 0.208 -0.182c 0.065 0 0.104 0.013 0.143 0.039c 0.065 0.117 0.104 0.208 0.13 0.299c 0.234 0.988 0.533 1.482 0.884 1.482c 0.234 0 0.351 -0.182 0.351 -0.546c 0 -0.169 -0.065 -0.52 -0.208 -1.053l -0.741 -2.951c -0.052 -0.156 -0.117 -0.494 -0.117 -0.572c 0 -0.26 0.143 -0.39 0.416 -0.39c 0.26 0 0.442 0.13 0.533 0.39c 0.013 0.065 0.104 0.39 0.247 0.949l 0.273 1.157l 0.39 1.482c 0.143 0.299 0.364 0.598 0.65 0.91c 0.377 0.416 0.845 0.624 1.404 0.624c 0.429 0 0.637 -0.286 0.637 -0.845c 0 -0.169 -0.065 -0.52 -0.195 -1.053l -0.351 -1.482c -0.091 -0.377 -0.299 -1.157 -0.403 -1.573c -0.013 -0.091 -0.026 -0.143 -0.026 -0.169c 0 -0.26 0.143 -0.39 0.429 -0.39c 0.143 0 0.247 0.039 0.338 0.13c 0.195 0.195 0.208 0.286 0.286 0.637l 0.767 3.081c 0.039 0.169 0.221 0.468 0.533 0.884c 0.39 0.52 0.91 0.78 1.547 0.78c 0.429 0 0.637 -0.286 0.637 -0.845c 0 -0.507 -0.26 -1.456 -0.793 -2.847c -0.117 -0.299 -0.169 -0.546 -0.169 -0.715c 0 -0.637 0.481 -1.105 1.105 -1.105c 0.585 0 1.027 0.325 1.352 0.975c 0.26 0.52 0.39 0.871 0.39 1.04c 0 0.117 -0.065 0.182 -0.208 0.182c -0.091 -0.013 -0.182 -0.13 -0.247 -0.273c -0.286 -1.027 -0.702 -1.547 -1.261 -1.547c -0.169 0 -0.26 0.13 -0.26 0.377c 0 0.195 0.078 0.481 0.234 0.884c 0.533 1.391 0.793 2.34 0.793 2.834c 0 0.923 -0.611 1.417 -1.534 1.417Z "/></symbol></defs></svg>