<svg viewBox="0 0 91.267222222 20.748" width="91.267222222pt" height="20.748pt" xmlns="http://www.w3.org/2000/svg" xmlns:xlink="http://www.w3.org/1999/xlink" xmlns:h5="http://www.w3.org/1999/xhtml"><g transform="matrix(1 0 0 -1 6.5 13.624)"><use xlink:href="#gC8FE9299987BC399BCDE6DD4129703BD" x="0" y="0" fill="#e6edf3" fill-rule="nonzero"/></g><g transform="matrix(1 0 0 -1 16.744 13.624)"><use xlink:href="#g2D7122AD31FABF41BED931716B883F58" x="0" y="0" fill="#e6edf3" fill-rule="nonzero"/></g><g transform="matrix(1 0 0 -1 21.801 13.624)"><use xlink:href="#g2E14CA3B9ED9898497EE95E7951B1DCB" x="0" y="0" fill="#e6edf3" fill-rule="nonzero"/></g><g transform="matrix(1 0 0 -1 28.73 13.624)"><use xlink:href="#g2F93E6EEEE2061842AA37F49EEA2F1A2" x="0" y="0" fill="#e6edf3" fill-rule="nonzero"/></g><g transform="matrix(1 0 0 -1 37.398111111 13.624)"><use xlink:href="#g13AFF74D87C474CFAF661EEAD0458F8B" x="0" y="0" fill="#e6edf3" fill-rule="nonzero"/></g><g transform="matrix(1 0 0 -1 51.123222222 13.624)"><use xlink:href="#gDA6300BE1A83285F3E02339F05C53FB2" x="0" y="0" fill="#e6edf3" fill-rule="nonzero"/></g><g transform="matrix(1 0 0 -1 57.363222222 13.624)"><use xlink:href="#g53251C539233983FE9FC826CA7FBAC4A" x="0" y="0" fill="#e6edf3" fill-rule="nonzero"/></g><g transform="matrix(1 0 0 -1 67.724222222 13.624)"><use xlink:href="#g2D7122AD31FABF41BED931716B883F58" x="0" y="0" fill="#e6edf3" fill-rule="nonzero"/></g><g transform="matrix(1 0 0 -1 72.781222222 13.624)"><use xlink:href="#g2E14CA3B9ED9898497EE95E7951B1DCB" x="0" y="0" fill="#e6edf3" fill-rule="nonzero"/></g><g transform="matrix(1 0 0 -1 79.710222222 13.624)"><use xlink:href="#g2F93E6EEEE2061842AA37F49EEA2F1A2" x="0" y="0" fill="#e6edf3" fill-rule="nonzero"/></g><defs><symbol id="gC8FE9299987BC399BCDE6DD4129703BD" overflow="visible"><path d="M 0 0m 8.346 8.84c -0.247 0 -1.079 0.039 -1.326 0.039c -0.195 0 -0.286 -0.104 -0.286 -0.312c 0 -0.117 0.091 -0.182 0.273 -0.195c 0.559 0 0.832 -0.169 0.832 -0.507c 0 -0.078 -0.013 -0.169 -0.039 -0.26l -1.157 -4.589c -0.195 -0.741 -0.572 -1.378 -1.131 -1.924c -0.611 -0.585 -1.287 -0.871 -2.015 -0.871c -0.962 0 -1.521 0.65 -1.521 1.612l 0.013 0.117c 0 0.247 0.039 0.533 0.13 0.871l 1.248 5.005c 0.065 0.273 0.182 0.442 0.351 0.507c 0.078 0.026 0.299 0.039 0.676 0.039c 0.338 0 0.481 0 0.481 0.312c 0 0.13 -0.078 0.195 -0.221 0.195l -1.651 -0.039l -1.651 0.039c -0.208 0 -0.299 -0.117 -0.299 -0.312c 0 -0.091 0.039 -0.156 0.104 -0.169c 0.13 -0.013 0.234 -0.026 0.299 -0.026c 0.403 -0.013 0.637 -0.039 0.702 -0.052c 0.065 -0.013 0.091 -0.052 0.091 -0.117c 0 -0.026 -0.013 -0.117 -0.052 -0.26l -1.235 -4.953c -0.065 -0.247 -0.091 -0.494 -0.091 -0.754c 0 -1.495 1.079 -2.522 2.574 -2.522c 0.845 0 1.625 0.325 2.34 0.988c 0.689 0.624 1.131 1.352 1.339 2.197l 1.144 4.563c 0.169 0.663 0.533 0.897 1.339 0.91c 0.182 0.013 0.273 0.117 0.273 0.312v 0.052c -0.039 0.091 -0.104 0.143 -0.221 0.143c -0.247 0 -1.066 -0.039 -1.313 -0.039Z "/></symbol><symbol id="g2D7122AD31FABF41BED931716B883F58" overflow="visible"><path d="M 0 0m 4.134 -3.224c 0.117 0 0.182 0.065 0.182 0.182c 0 0.039 -0.026 0.091 -0.065 0.143c -0.676 0.52 -1.222 1.378 -1.625 2.561c -0.351 1.027 -0.533 2.041 -0.533 3.042v 1.092c 0 1.001 0.182 2.015 0.533 3.042c 0.403 1.183 0.949 2.041 1.625 2.561c 0.039 0.039 0.065 0.091 0.065 0.143c 0 0.117 -0.065 0.182 -0.182 0.182c -0.013 0 -0.052 -0.013 -0.091 -0.039c -0.78 -0.598 -1.43 -1.482 -1.963 -2.665c -0.507 -1.131 -0.767 -2.197 -0.767 -3.224v -1.092c 0 -1.027 0.26 -2.093 0.767 -3.224c 0.533 -1.183 1.183 -2.067 1.963 -2.665c 0.039 -0.026 0.078 -0.039 0.091 -0.039Z "/></symbol><symbol id="g2E14CA3B9ED9898497EE95E7951B1DCB" overflow="visible"><path d="M 0 0m 6.565 4.745c 0 0.598 -0.468 1.131 -1.274 1.131c -0.728 0 -1.339 -0.364 -1.729 -0.78c -0.312 0.598 -1.053 0.78 -1.521 0.78c -0.481 0 -0.845 -0.273 -1.131 -0.741c -0.312 -0.507 -0.494 -1.209 -0.494 -1.287c 0 -0.182 0.195 -0.182 0.312 -0.182c 0.143 0 0.195 0 0.26 0.065c 0.026 0.026 0.026 0.052 0.104 0.377c 0.247 0.988 0.533 1.3 0.884 1.3c 0.195 0 0.299 -0.13 0.299 -0.468c 0 -0.234 -0.039 -0.377 -0.182 -0.988c -0.208 -0.819 -0.429 -1.638 -0.624 -2.47c -0.078 -0.338 -0.234 -0.923 -0.234 -1.014c 0 -0.273 0.208 -0.572 0.611 -0.572c 0.26 0 0.715 0.156 0.858 0.689l 0.91 3.653c 0.052 0.195 0.052 0.221 0.221 0.416c 0.299 0.377 0.78 0.754 1.43 0.754c 0.325 0 0.468 -0.143 0.507 -0.182c -0.715 -0.143 -0.793 -0.78 -0.793 -0.91c 0 -0.286 0.221 -0.598 0.65 -0.598c 0.442 0 0.936 0.364 0.936 1.027Z "/></symbol><symbol id="g2F93E6EEEE2061842AA37F49EEA2F1A2" overflow="visible"><path d="M 0 0m 1.014 -3.185c 0.78 0.598 1.43 1.482 1.963 2.665c 0.507 1.131 0.767 2.197 0.767 3.224v 1.092c 0 1.027 -0.26 2.093 -0.767 3.224c -0.533 1.183 -1.183 2.067 -1.963 2.665c -0.039 0.026 -0.078 0.039 -0.091 0.039c -0.117 0 -0.182 -0.065 -0.182 -0.182c 0 -0.052 0.026 -0.104 0.065 -0.143c 0.676 -0.52 1.222 -1.378 1.625 -2.561c 0.351 -1.027 0.533 -2.041 0.533 -3.042v -1.092c 0 -1.001 -0.182 -2.015 -0.533 -3.042c -0.403 -1.183 -0.949 -2.041 -1.625 -2.561c -0.039 -0.052 -0.065 -0.104 -0.065 -0.143c 0 -0.117 0.065 -0.182 0.182 -0.182c 0.013 0 0.052 0.013 0.091 0.039Z "/></symbol><symbol id="g13AFF74D87C474CFAF661EEAD0458F8B" overflow="visible"><path d="M 0 0m 9.074 4.771h -8.034c -0.208 0 -0.312 -0.104 -0.312 -0.299c 0 -0.195 0.104 -0.299 0.312 -0.299h 8.034c 0.208 0 0.312 0.104 0.312 0.299c 0 0.156 -0.143 0.299 -0.312 0.299Z m 0 -2.444h -8.034c -0.208 0 -0.312 -0.104 -0.312 -0.299c 0 -0.195 0.104 -0.299 0.312 -0.299h 8.034c 0.208 0 0.312 0.104 0.312 0.299c 0 0.169 -0.143 0.299 -0.312 0.299Z "/></symbol><symbol id="gDA6300BE1A83285F3E02339F05C53FB2" overflow="visible"><path d="M 0 0m 4.836 4.901c -0.26 0.559 -0.663 0.845 -1.196 0.845c -0.845 0 -1.586 -0.429 -2.223 -1.3c -0.598 -0.806 -0.897 -1.638 -0.897 -2.509c 0 -1.131 0.65 -2.106 1.729 -2.106c 0.468 0 0.936 0.221 1.417 0.663l -0.533 -2.132c -0.039 -0.195 -0.156 -0.312 -0.338 -0.351c -0.065 -0.013 -0.234 -0.026 -0.533 -0.026c -0.078 -0.013 -0.13 -0.013 -0.156 -0.013c -0.117 -0.013 -0.182 -0.117 -0.182 -0.299v -0.052c 0.039 -0.091 0.117 -0.143 0.221 -0.143c 0.247 0 1.027 0.039 1.274 0.039c 0.247 0 1.066 -0.039 1.313 -0.039c 0.182 0 0.273 0.104 0.273 0.312c 0 0.13 -0.13 0.195 -0.377 0.195c -0.234 0 -0.559 -0.013 -0.559 0.143c 0 0.052 0.013 0.143 0.052 0.273l 1.755 7.15c 0 0.117 -0.065 0.182 -0.182 0.182c -0.234 0 -0.728 -0.65 -0.858 -0.832Z m -0.416 -0.052c 0.117 -0.273 0.182 -0.455 0.182 -0.572c 0 -0.013 -0.013 -0.091 -0.039 -0.208l -0.312 -1.261c -0.247 -0.936 -0.364 -1.417 -0.377 -1.443c -0.247 -0.455 -0.962 -1.157 -1.586 -1.157c -0.507 0 -0.767 0.39 -0.767 1.157c 0 0.598 0.403 2.054 0.585 2.535c 0.247 0.611 0.819 1.456 1.534 1.456c 0.351 0 0.611 -0.169 0.78 -0.507Z "/></symbol><symbol id="g53251C539233983FE9FC826CA7FBAC4A" overflow="visible"><path d="M 0 0m 8.723 8.84c -0.247 0 -1.027 0.039 -1.274 0.039c -0.195 0 -0.299 -0.104 -0.299 -0.299c 0 -0.13 0.091 -0.195 0.26 -0.208c 0.364 -0.013 0.546 -0.143 0.546 -0.364c 0 -0.117 -0.065 -0.273 -0.182 -0.468l -3.874 -6.149l -0.858 6.656c 0 0.221 0.273 0.325 0.832 0.325c 0.26 0 0.377 0.091 0.377 0.312c 0 0.13 -0.078 0.195 -0.234 0.195c -0.286 0 -1.3 -0.039 -1.586 -0.039c -0.26 0 -1.144 0.039 -1.404 0.039c -0.195 0 -0.299 -0.104 -0.299 -0.299c 0 -0.143 0.13 -0.208 0.377 -0.208c 0.221 0 0.377 -0.026 0.481 -0.052c 0.208 -0.065 0.195 -0.091 0.234 -0.338l 1.014 -7.93c 0.039 -0.221 0.143 -0.338 0.312 -0.338c 0.169 0 0.299 0.091 0.403 0.26l 4.628 7.358c 0.299 0.468 0.585 0.767 0.871 0.884c 0.195 0.091 0.442 0.143 0.728 0.156c 0.143 0.013 0.208 0.104 0.221 0.299c 0.013 0.143 -0.065 0.208 -0.221 0.208c -0.195 0 -0.858 -0.039 -1.053 -0.039Z "/></symbol></defs></svg>