<svg viewBox="0 0 72.729222222 17.108" width="72.729222222pt" height="17.108pt" xmlns="http://www.w3.org/2000/svg" xmlns:xlink="http://www.w3.org/1999/xlink" xmlns:h5="http://www.w3.org/1999/xhtml"><g transform="matrix(1 0 0 -1 6.5 12.779)"><use xlink:href="#g219318600111ED0DDD69E7A24294373" x="0" y="0" fill="#e6edf3" fill-rule="nonzero"/></g><g transform="matrix(1 0 0 -1 21.200111111 12.779)"><use xlink:href="#g13AFF74D87C474CFAF661EEAD0458F8B" x="0" y="0" fill="#e6edf3" fill-rule="nonzero"/></g><g transform="matrix(1 0 0 -1 34.925222222 12.779)"><use xlink:href="#g9B543B57F718853EF8F95EF155B6CF69" x="0" y="0" fill="#e6edf3" fill-rule="nonzero"/></g><g transform="matrix(1 0 0 -1 45.039222222 12.779)"><use xlink:href="#gA01F6DC51669829F49C013CF8E967E44" x="0" y="0" fill="#e6edf3" fill-rule="nonzero"/></g><g transform="matrix(1 0 0 -1 55.868222222 12.779)"><use xlink:href="#g53251C539233983FE9FC826CA7FBAC4A" x="0" y="0" fill="#e6edf3" fill-rule="nonzero"/></g><defs><symbol id="g219318600111ED0DDD69E7A24294373" overflow="visible"><path d="M 0 0m 10.725 8.606c 0 0.234 -0.221 0.234 -0.429 0.234h -7.202c -0.273 0 -0.286 -0.013 -0.351 -0.065c -0.091 -0.065 -0.117 -0.312 -0.117 -0.312c 0 -0.234 0.182 -0.234 0.533 -0.234c 0.273 0 0.52 -0.013 0.793 -0.026l -1.833 -7.332c -0.052 -0.208 -0.065 -0.221 -0.299 -0.247c -0.221 -0.013 -0.481 -0.013 -0.689 -0.013c -0.338 0 -0.364 0 -0.416 -0.026c -0.156 -0.091 -0.156 -0.299 -0.156 -0.351c 0 -0.234 0.221 -0.234 0.442 -0.234h 7.423c 0.312 0 0.364 0 0.481 0.273l 1.248 2.821c 0.078 0.169 0.078 0.234 0.078 0.234c 0 0.234 -0.247 0.234 -0.312 0.234c -0.208 0 -0.221 -0.026 -0.377 -0.377c -0.78 -1.716 -1.456 -2.574 -3.653 -2.574h -1.69c -0.195 0 -0.221 0 -0.312 0.013l 0.91 3.653h 0.897c 0.767 0 1.027 -0.117 1.027 -0.559c 0 -0.208 -0.091 -0.559 -0.104 -0.598l -0.013 -0.13c 0 -0.195 0.169 -0.234 0.299 -0.234c 0.247 0 0.26 0.078 0.325 0.312l 0.728 2.899c 0.052 0.169 0.052 0.208 0.052 0.208c 0 0.234 -0.26 0.234 -0.312 0.234c -0.247 0 -0.273 -0.091 -0.338 -0.338c -0.26 -0.975 -0.65 -1.183 -1.625 -1.183h -0.78l 0.819 3.315c 0.169 0.026 0.312 0.026 0.442 0.026h 1.703c 1.417 0 1.989 -0.312 1.989 -1.547c 0 -0.234 -0.052 -0.52 -0.052 -0.728c 0 -0.247 0.247 -0.247 0.312 -0.247c 0.273 0 0.286 0.13 0.312 0.364c 0.078 0.845 0.182 1.677 0.247 2.535Z "/></symbol><symbol id="g13AFF74D87C474CFAF661EEAD0458F8B" overflow="visible"><path d="M 0 0m 9.074 4.771h -8.034c -0.208 0 -0.312 -0.104 -0.312 -0.299c 0 -0.195 0.104 -0.299 0.312 -0.299h 8.034c 0.208 0 0.312 0.104 0.312 0.299c 0 0.156 -0.143 0.299 -0.312 0.299Z m 0 -2.444h -8.034c -0.208 0 -0.312 -0.104 -0.312 -0.299c 0 -0.195 0.104 -0.299 0.312 -0.299h 8.034c 0.208 0 0.312 0.104 0.312 0.299c 0 0.169 -0.143 0.299 -0.312 0.299Z "/></symbol><symbol id="g9B543B57F718853EF8F95EF155B6CF69" overflow="visible"><path d="M 0 0m 9.074 3.51h -8.034c -0.208 0 -0.312 -0.091 -0.312 -0.26c 0 -0.169 0.104 -0.26 0.312 -0.26h 8.034c 0.208 0 0.312 0.091 0.312 0.26c 0 0.156 -0.156 0.26 -0.312 0.26Z "/></symbol><symbol id="gA01F6DC51669829F49C013CF8E967E44" overflow="visible"><path d="M 0 0m 10.14 8.541c 0.039 0.091 0.065 0.156 0.065 0.182c 0 0.104 -0.117 0.156 -0.338 0.156h -8.918c -0.221 0 -0.338 -0.052 -0.338 -0.169l 4.42 -8.879c 0.091 -0.169 0.208 -0.26 0.377 -0.26c 0.169 0 0.286 0.091 0.377 0.26Z m -4.355 -7.605l -3.458 6.929h 6.903Z "/></symbol><symbol id="g53251C539233983FE9FC826CA7FBAC4A" overflow="visible"><path d="M 0 0m 8.723 8.84c -0.247 0 -1.027 0.039 -1.274 0.039c -0.195 0 -0.299 -0.104 -0.299 -0.299c 0 -0.13 0.091 -0.195 0.26 -0.208c 0.364 -0.013 0.546 -0.143 0.546 -0.364c 0 -0.117 -0.065 -0.273 -0.182 -0.468l -3.874 -6.149l -0.858 6.656c 0 0.221 0.273 0.325 0.832 0.325c 0.26 0 0.377 0.091 0.377 0.312c 0 0.13 -0.078 0.195 -0.234 0.195c -0.286 0 -1.3 -0.039 -1.586 -0.039c -0.26 0 -1.144 0.039 -1.404 0.039c -0.195 0 -0.299 -0.104 -0.299 -0.299c 0 -0.143 0.13 -0.208 0.377 -0.208c 0.221 0 0.377 -0.026 0.481 -0.052c 0.208 -0.065 0.195 -0.091 0.234 -0.338l 1.014 -7.93c 0.039 -0.221 0.143 -0.338 0.312 -0.338c 0.169 0 0.299 0.091 0.403 0.26l 4.628 7.358c 0.299 0.468 0.585 0.767 0.871 0.884c 0.195 0.091 0.442 0.143 0.728 0.156c 0.143 0.013 0.208 0.104 0.221 0.299c 0.013 0.143 -0.065 0.208 -0.221 0.208c -0.195 0 -0.858 -0.039 -1.053 -0.039Z "/></symbol></defs></svg>