<svg viewBox="0 0 80.373222222 38.155" width="80.373222222pt" height="38.155pt" xmlns="http://www.w3.org/2000/svg" xmlns:xlink="http://www.w3.org/1999/xlink" xmlns:h5="http://www.w3.org/1999/xhtml"><g transform="matrix(1 0 0 -1 7.8 13.208)"><use xlink:href="#g1EC01C5368D684131831F3BFC5D2F1C1" x="0" y="0" fill="#e6edf3" fill-rule="nonzero"/></g><g transform="matrix(1 0 0 -1 18.629 13.208)"><use xlink:href="#g2E05E4BA2453DAF72F497CD91E5C3E4E" x="0" y="0" fill="#e6edf3" fill-rule="nonzero"/></g><g transform="matrix(1 0 0 -1 8.1575 30.927)"><use xlink:href="#g2F389E882241F7D883BD9BE49B9B556F" x="0" y="0" fill="#e6edf3" fill-rule="nonzero"/></g><g transform="matrix(1 0 0 -1 13.2145 30.927)"><use xlink:href="#g2E05E4BA2453DAF72F497CD91E5C3E4E" x="0" y="0" fill="#e6edf3" fill-rule="nonzero"/></g><g transform="matrix(1 0 0 -1 24.6415 30.927)"><use xlink:href="#g77D2A3BE49641BC9FE86B31DAB4932B4" x="0" y="0" fill="#e6edf3" fill-rule="nonzero"/></g><path fill="none" stroke="#e6edf3" stroke-width="0.624" stroke-linecap="butt" stroke-linejoin="miter" stroke-miterlimit="4" transform="translate(7.8 18.759)" d="M 0 0h 22.256"/><g transform="matrix(1 0 0 -1 34.967111111 22.009)"><use xlink:href="#g1FE322D6C00842B4F96AAB02434645A8" x="0" y="0" fill="#e6edf3" fill-rule="nonzero"/></g><g transform="matrix(1 0 0 -1 58.000222222 13.208)"><use xlink:href="#g6B3DB0E0ADE6D994825CC39624067234" x="0" y="0" fill="#e6edf3" fill-rule="nonzero"/></g><g transform="matrix(1 0 0 -1 49.927222222 21.775)"><use xlink:href="#gEB855E52B5496AD576A4ED35A38BE77F" x="0" y="0" fill="#e6edf3" fill-rule="nonzero"/></g><path fill="none" stroke="#e6edf3" stroke-width="0.624" stroke-linecap="butt" stroke-linejoin="miter" stroke-miterlimit="4" transform="translate(60.756222222 21.567)" d="M 0 0h 11.817"/><g transform="matrix(1 0 0 -1 60.756222222 32.8315)"><use xlink:href="#gACA2FE1DD062579B79E6E19150F5B03F" x="0" y="0" fill="#e6edf3" fill-rule="nonzero"/></g><path fill="none" stroke="#e6edf3" stroke-width="0.624" stroke-linecap="butt" stroke-linejoin="miter" stroke-miterlimit="4" transform="translate(49.927222222 18.759)" d="M 0 0h 22.646"/><defs><symbol id="g1EC01C5368D684131831F3BFC5D2F1C1" overflow="visible"><path d="M 0 0m 9.867 0c 0.221 0 0.338 0.052 0.338 0.169l -4.42 8.879c -0.091 0.169 -0.208 0.26 -0.377 0.26c -0.169 0 -0.286 -0.091 -0.377 -0.26l -4.355 -8.723c -0.039 -0.091 -0.065 -0.143 -0.065 -0.169c 0 -0.104 0.117 -0.156 0.338 -0.156Z m -4.875 7.852l 3.38 -6.773h -6.76Z "/></symbol><symbol id="g2E05E4BA2453DAF72F497CD91E5C3E4E" overflow="visible"><path d="M 0 0m 10.842 8.879c -0.221 0 -0.988 -0.039 -1.209 -0.039c -0.26 0 -1.17 0.039 -1.43 0.039c -0.195 0 -0.299 -0.104 -0.299 -0.312c 0 -0.117 0.065 -0.182 0.208 -0.195c 0.312 -0.039 0.468 -0.143 0.468 -0.338c 0 -0.117 -0.078 -0.26 -0.234 -0.429l -2.028 -2.184c -0.377 0.884 -0.741 1.755 -1.118 2.639c 0.013 0.026 0.026 0.052 0.065 0.078c 0.117 0.13 0.338 0.208 0.65 0.234c 0.208 0.026 0.312 0.13 0.312 0.299c 0 0.143 -0.078 0.208 -0.247 0.208c -0.312 0 -1.313 -0.039 -1.625 -0.039c -0.273 0 -1.17 0.039 -1.443 0.039c -0.195 0 -0.286 -0.104 -0.286 -0.312c 0 -0.13 0.117 -0.195 0.351 -0.195c 0.585 0 0.767 0 0.923 -0.377l 1.508 -3.549l -2.704 -2.899c -0.039 -0.039 -0.091 -0.091 -0.156 -0.13c -0.533 -0.559 -1.144 -0.871 -1.859 -0.91c -0.221 -0.013 -0.338 -0.13 -0.338 -0.325c 0.039 -0.117 0.052 -0.182 0.221 -0.182c 0.221 0 0.988 0.039 1.209 0.039c 0.273 0 1.17 -0.039 1.443 -0.039c 0.195 0 0.286 0.104 0.286 0.312c 0 0.117 -0.065 0.182 -0.208 0.195c -0.312 0.026 -0.468 0.143 -0.468 0.338c 0 0.13 0.117 0.312 0.338 0.546c 0.806 0.858 1.625 1.716 2.418 2.587c 0.442 -1.053 0.897 -2.093 1.326 -3.159c -0.013 -0.026 -0.026 -0.052 -0.065 -0.091c -0.117 -0.117 -0.325 -0.182 -0.637 -0.221c -0.195 -0.026 -0.299 -0.13 -0.299 -0.299c 0 -0.143 0.078 -0.208 0.247 -0.208l 1.625 0.039c 0.273 0 1.183 -0.039 1.417 -0.039c 0.195 0 0.299 0.104 0.299 0.299c 0 0.13 -0.091 0.195 -0.286 0.208c -0.403 0 -0.663 0.013 -0.754 0.065c -0.091 0.052 -0.195 0.208 -0.299 0.468l -1.651 3.939c 0.884 0.936 1.547 1.638 1.976 2.119c 0.312 0.325 0.52 0.546 0.637 0.637c 0.481 0.403 1.014 0.611 1.599 0.637c 0.273 0.013 0.338 0.078 0.338 0.325c -0.039 0.117 -0.052 0.182 -0.221 0.182Z "/></symbol><symbol id="g2F389E882241F7D883BD9BE49B9B556F" overflow="visible"><path d="M 0 0m 4.069 -3.25c 0.195 0 0.299 0.104 0.299 0.312c 0 0.039 0 0.078 -0.013 0.104l -2.301 6.084l 2.301 6.071c 0.013 0.026 0.013 0.065 0.013 0.117c 0 0.208 -0.104 0.312 -0.299 0.312c -0.143 0 -0.234 -0.065 -0.286 -0.195l -2.34 -6.188c -0.013 -0.026 -0.013 -0.065 -0.013 -0.117c 0 -0.039 0 -0.078 0.013 -0.104l 2.34 -6.201c 0.052 -0.13 0.143 -0.195 0.286 -0.195Z "/></symbol><symbol id="g77D2A3BE49641BC9FE86B31DAB4932B4" overflow="visible"><path d="M 0 0m 3.614 3.146c 0.013 0.026 0.013 0.065 0.013 0.104c 0 0.039 0 0.078 -0.013 0.104l -2.34 6.201c -0.052 0.13 -0.143 0.195 -0.286 0.195c -0.195 0 -0.299 -0.104 -0.299 -0.312c 0 -0.039 0 -0.078 0.013 -0.104l 2.301 -6.084l -2.301 -6.071c -0.013 -0.026 -0.013 -0.065 -0.013 -0.117c 0 -0.208 0.104 -0.312 0.299 -0.312c 0.143 0 0.234 0.065 0.286 0.195Z "/></symbol><symbol id="g1FE322D6C00842B4F96AAB02434645A8" overflow="visible"><path d="M 0 0m 7.761 1.859c 1.001 0.299 1.521 1.196 1.56 2.691c 0 0.143 -0.065 0.208 -0.208 0.208c -0.13 0 -0.195 -0.065 -0.208 -0.195c -0.013 -0.559 -0.13 -0.988 -0.364 -1.3c -0.26 -0.351 -0.845 -0.741 -1.417 -0.741c -0.39 0 -0.806 0.169 -1.235 0.507c -0.247 0.195 -0.455 0.364 -0.611 0.494c -0.923 0.806 -1.716 1.209 -2.392 1.209c -0.195 0 -0.39 -0.026 -0.585 -0.091c -1.105 -0.325 -1.534 -1.235 -1.573 -2.691c 0 -0.143 0.065 -0.208 0.208 -0.208c 0.13 0 0.195 0.065 0.208 0.195c 0.013 0.559 0.13 0.988 0.364 1.3c 0.247 0.338 0.858 0.741 1.417 0.741c 0.39 0 0.806 -0.169 1.235 -0.507c 0.247 -0.195 0.455 -0.364 0.611 -0.494c 0.923 -0.806 1.716 -1.209 2.392 -1.209c 0.195 0 0.403 0.026 0.598 0.091Z "/></symbol><symbol id="g6B3DB0E0ADE6D994825CC39624067234" overflow="visible"><path d="M 0 0m 3.497 8.658c -0.533 -0.546 -1.313 -0.819 -2.34 -0.819v -0.507c 0.676 0 1.235 0.104 1.664 0.312v -6.578c 0 -0.234 -0.052 -0.39 -0.169 -0.455c -0.117 -0.065 -0.442 -0.104 -0.962 -0.104h -0.455v -0.507c 0.325 0.026 1.027 0.039 2.106 0.039c 1.079 0 1.781 -0.013 2.106 -0.039v 0.507h -0.455c -0.533 0 -0.858 0.039 -0.962 0.104c -0.104 0.065 -0.169 0.221 -0.169 0.455v 7.202c 0 0.312 -0.026 0.39 -0.364 0.39Z "/></symbol><symbol id="gEB855E52B5496AD576A4ED35A38BE77F" overflow="visible"><path d="M 0 0m 11.011 -0.026c 0.052 0.117 0.078 0.195 0.078 0.234c 0 0.208 -0.104 0.312 -0.312 0.312c -0.117 0 -0.208 -0.052 -0.26 -0.169c -1.859 -3.718 -2.782 -5.59 -2.782 -5.616v -0.013c 0 -0.091 -0.884 -1.976 -2.665 -5.681l -2.249 4.966c -0.065 0.143 -0.13 0.208 -0.208 0.208c -0.039 0 -0.117 -0.039 -0.221 -0.117l -1.274 -0.962c -0.117 -0.091 -0.169 -0.156 -0.169 -0.221c 0 -0.13 0.065 -0.195 0.182 -0.195c 0.039 0 0.104 0.039 0.208 0.117l 0.624 0.455l 2.522 -5.551c 0.065 -0.143 0.156 -0.221 0.286 -0.221c 0.156 0 0.26 0.065 0.325 0.182Z "/></symbol><symbol id="gACA2FE1DD062579B79E6E19150F5B03F" overflow="visible"><path d="M 0 0m 11.232 8.879c -0.247 0 -1.053 -0.039 -1.3 -0.039c -0.247 0 -1.066 0.039 -1.313 0.039c -0.195 0 -0.286 -0.104 -0.286 -0.312c 0 -0.117 0.091 -0.182 0.286 -0.195c 0.546 0 0.819 -0.169 0.819 -0.507c 0 -0.078 -0.013 -0.169 -0.026 -0.26l -1.404 -5.564l -2.795 6.565c -0.104 0.247 -0.13 0.273 -0.455 0.273h -1.729c -0.312 0 -0.429 -0.026 -0.429 -0.312c 0 -0.13 0.143 -0.195 0.416 -0.195c 0.546 0 0.819 -0.013 0.832 -0.052l -1.729 -6.89c -0.117 -0.507 -0.416 -0.793 -0.884 -0.884c -0.338 -0.039 -0.728 0.013 -0.728 -0.351c 0 -0.13 0.078 -0.195 0.221 -0.195c 0.234 0 1.04 0.039 1.287 0.039c 0.247 0 1.079 -0.039 1.326 -0.039c 0.195 0 0.286 0.104 0.286 0.312c 0 0.117 -0.104 0.182 -0.312 0.195c -0.533 0.013 -0.793 0.182 -0.793 0.507c 0 0.065 0.013 0.156 0.039 0.286l 1.677 6.643l 3.25 -7.67c 0.078 -0.182 0.182 -0.273 0.299 -0.273c 0.117 0 0.195 0.104 0.247 0.312l 1.807 7.15c 0.169 0.663 0.533 0.897 1.339 0.91c 0.182 0.013 0.273 0.117 0.273 0.325c -0.039 0.117 -0.052 0.182 -0.221 0.182Z "/></symbol></defs></svg>