<svg viewBox="0 0 134.137466667 36.5664" width="134.137466667pt" height="36.5664pt" xmlns="http://www.w3.org/2000/svg" xmlns:xlink="http://www.w3.org/1999/xlink" xmlns:h5="http://www.w3.org/1999/xhtml"><g transform="matrix(1 0 0 -1 6.5 23.4624)"><use xlink:href="#gA7C36109E42D4F0EB4F28B48DBFDEDEE" x="0" y="0" fill="#e6edf3" fill-rule="nonzero"/></g><g transform="matrix(1 0 0 -1 20.277111111 23.4624)"><use xlink:href="#g13AFF74D87C474CFAF661EEAD0458F8B" x="0" y="0" fill="#e6edf3" fill-rule="nonzero"/></g><g transform="matrix(1 0 0 -1 34.002222222 23.4624)"><use xlink:href="#g115DED64194A3B9D1CA25A004CD4734D" x="0" y="0" fill="#e6edf3" fill-rule="nonzero"/></g><g transform="matrix(1 0 0 -1 40.827222222 18.7434)"><use xlink:href="#g8A6A9074F91D642F82CC8BE39AC39D3A" x="0" y="0" fill="#e6edf3" fill-rule="nonzero"/></g><g transform="matrix(1 0 0 -1 46.733122222 23.4624)"><use xlink:href="#g64EED7C1DC5EF9C242224A119317485D" x="0" y="0" fill="#e6edf3" fill-rule="nonzero"/></g><g transform="matrix(1 0 0 -1 60.523233333 23.4624)"><use xlink:href="#g13AFF74D87C474CFAF661EEAD0458F8B" x="0" y="0" fill="#e6edf3" fill-rule="nonzero"/></g><g transform="matrix(1 0 0 -1 75.548344444 14.6614)"><use xlink:href="#g53251C539233983FE9FC826CA7FBAC4A" x="0" y="0" fill="#e6edf3" fill-rule="nonzero"/></g><g transform="matrix(1 0 0 -1 85.909344444 9.9424)"><use xlink:href="#g8A6A9074F91D642F82CC8BE39AC39D3A" x="0" y="0" fill="#e6edf3" fill-rule="nonzero"/></g><g transform="matrix(1 0 0 -1 78.592294444 32.3804)"><use xlink:href="#g64EED7C1DC5EF9C242224A119317485D" x="0" y="0" fill="#e6edf3" fill-rule="nonzero"/></g><path fill="none" stroke="#e6edf3" stroke-width="0.624" stroke-linecap="butt" stroke-linejoin="miter" stroke-miterlimit="4" transform="translate(75.548344444 20.2124)" d="M 0 0h 16.2669"/><g transform="matrix(1 0 0 -1 96.726355556 23.4624)"><use xlink:href="#g13AFF74D87C474CFAF661EEAD0458F8B" x="0" y="0" fill="#e6edf3" fill-rule="nonzero"/></g><g transform="matrix(1 0 0 -1 110.451466667 23.4624)"><use xlink:href="#g115DED64194A3B9D1CA25A004CD4734D" x="0" y="0" fill="#e6edf3" fill-rule="nonzero"/></g><g transform="matrix(1 0 0 -1 117.276466667 23.4624)"><use xlink:href="#g53251C539233983FE9FC826CA7FBAC4A" x="0" y="0" fill="#e6edf3" fill-rule="nonzero"/></g><defs><symbol id="gA7C36109E42D4F0EB4F28B48DBFDEDEE" overflow="visible"><path d="M 0 0m 7.215 8.879h -4.16c -0.299 0 -0.442 -0.013 -0.442 -0.299c 0 -0.143 0.143 -0.208 0.429 -0.208c 0.26 0 0.78 0.039 0.78 -0.169c 0 -0.026 -0.013 -0.104 -0.052 -0.234l -1.716 -6.903c -0.078 -0.286 -0.208 -0.455 -0.39 -0.52c -0.091 -0.026 -0.325 -0.039 -0.728 -0.039c -0.286 0 -0.416 -0.026 -0.416 -0.299c 0 -0.143 0.078 -0.208 0.247 -0.208l 1.625 0.039l 0.832 -0.013c 0.143 0 0.663 -0.026 0.832 -0.026c 0.208 0 0.312 0.104 0.312 0.312c 0 0.13 -0.143 0.195 -0.416 0.195c -0.52 0 -0.78 0.052 -0.78 0.169c 0 0 0.013 0.039 0.039 0.208l 0.78 3.172h 2.145c 0.845 0 1.651 0.26 2.405 0.767c 0.845 0.559 1.261 1.248 1.261 2.067c 0 1.287 -1.222 1.989 -2.587 1.989Z m -0.403 -0.507c 1.131 0 1.69 -0.39 1.69 -1.17c 0 -0.728 -0.364 -1.703 -0.741 -2.041c -0.494 -0.442 -1.144 -0.663 -1.95 -0.663h -1.742l 0.858 3.432c 0.104 0.442 0.104 0.442 0.65 0.442Z "/></symbol><symbol id="g13AFF74D87C474CFAF661EEAD0458F8B" overflow="visible"><path d="M 0 0m 9.074 4.771h -8.034c -0.208 0 -0.312 -0.104 -0.312 -0.299c 0 -0.195 0.104 -0.299 0.312 -0.299h 8.034c 0.208 0 0.312 0.104 0.312 0.299c 0 0.156 -0.143 0.299 -0.312 0.299Z m 0 -2.444h -8.034c -0.208 0 -0.312 -0.104 -0.312 -0.299c 0 -0.195 0.104 -0.299 0.312 -0.299h 8.034c 0.208 0 0.312 0.104 0.312 0.299c 0 0.169 -0.143 0.299 -0.312 0.299Z "/></symbol><symbol id="g115DED64194A3B9D1CA25A004CD4734D" overflow="visible"><path d="M 0 0m 6.461 8.671c 0 0.143 -0.078 0.208 -0.247 0.208l -1.677 -0.039l -1.703 0.039c -0.208 0.013 -0.312 -0.091 -0.312 -0.312c 0 -0.13 0.143 -0.195 0.416 -0.195c 0.559 0 0.832 -0.065 0.832 -0.182c 0 -0.065 -0.013 -0.13 -0.026 -0.195l -1.729 -6.929c -0.065 -0.286 -0.195 -0.455 -0.39 -0.52c -0.091 -0.026 -0.325 -0.039 -0.728 -0.039c -0.325 0 -0.455 -0.013 -0.455 -0.312c 0 -0.13 0.078 -0.195 0.247 -0.195l 1.664 0.039l 1.716 -0.039c 0.208 -0.013 0.312 0.091 0.312 0.299c 0 0.208 -0.156 0.208 -0.442 0.208c -0.507 0 -0.819 -0.026 -0.819 0.182c 0 0.065 0.013 0.156 0.052 0.286l 1.716 6.851c 0.065 0.273 0.195 0.442 0.39 0.507c 0.091 0.026 0.325 0.039 0.728 0.039c 0.312 0 0.455 0.013 0.455 0.299Z "/></symbol><symbol id="g8A6A9074F91D642F82CC8BE39AC39D3A" overflow="visible"><path d="M 0 0m 1.0829 3.8584c 0.2912 0 0.5096 0.2184 0.5096 0.5096c 0 0.3276 -0.1729 0.5005 -0.5096 0.5096c 0.2002 0.4277 0.6552 0.7735 1.2467 0.7735c 0.8008 0 1.3286 -0.6006 1.3286 -1.4014c 0 -0.4368 -0.1547 -0.8554 -0.4732 -1.2649c -0.1547 -0.2093 -0.273 -0.3549 -0.3549 -0.4368l -2.1567 -2.1385c -0.1183 -0.1092 -0.1001 -0.1365 -0.1001 -0.4095h 3.7492l 0.2821 1.7108h -0.3822c -0.0637 -0.4823 -0.1365 -0.7644 -0.2184 -0.8281c -0.0455 -0.0273 -0.3276 -0.0455 -0.8645 -0.0455h -1.547c 0.6097 0.5369 1.1739 1.0192 1.7108 1.4469c 0.4095 0.3185 0.7007 0.6006 0.8827 0.8463c 0.273 0.3549 0.4095 0.728 0.4095 1.1193c 0 0.5642 -0.2184 1.0101 -0.6643 1.3377c -0.3913 0.3003 -0.8827 0.455 -1.4651 0.455c -0.5005 0 -0.9282 -0.1456 -1.3013 -0.4368c -0.3913 -0.3185 -0.5915 -0.7189 -0.5915 -1.2103c 0 -0.3094 0.2275 -0.5369 0.5096 -0.5369Z "/></symbol><symbol id="g64EED7C1DC5EF9C242224A119317485D" overflow="visible"><path d="M 0 0m 9.607 6.903c 0 0.663 -0.338 1.17 -1.001 1.534c -0.533 0.299 -1.17 0.442 -1.885 0.442h -3.666c -0.299 0 -0.429 -0.013 -0.429 -0.312c 0 -0.091 0.039 -0.156 0.117 -0.169c 0.13 -0.013 0.234 -0.026 0.299 -0.026c 0.39 -0.013 0.611 -0.039 0.676 -0.052c 0.065 -0.013 0.104 -0.052 0.104 -0.117c 0 -0.026 -0.013 -0.104 -0.052 -0.234l -1.716 -6.903c -0.065 -0.286 -0.195 -0.468 -0.39 -0.533c -0.091 -0.026 -0.325 -0.039 -0.728 -0.039c -0.286 0 -0.403 -0.013 -0.403 -0.299c 0 -0.143 0.078 -0.208 0.234 -0.195l 1.612 0.039l 1.638 -0.039c 0.208 -0.013 0.312 0.104 0.312 0.299c 0 0.13 -0.143 0.195 -0.416 0.195c -0.52 0 -0.78 0.065 -0.78 0.182c 0 0 0.013 0.026 0.039 0.208l 0.832 3.367h 1.495c 0.897 0 1.352 -0.377 1.352 -1.118c 0 -0.117 -0.065 -0.403 -0.182 -0.871c -0.143 -0.546 -0.208 -0.91 -0.208 -1.105c 0 -0.988 0.767 -1.443 1.755 -1.443c 0.364 0 0.715 0.169 1.066 0.494c 0.351 0.325 0.533 0.676 0.533 1.04c 0 0.13 -0.065 0.195 -0.208 0.195c -0.091 0 -0.169 -0.065 -0.208 -0.208c -0.143 -0.403 -0.325 -0.702 -0.533 -0.871c -0.208 -0.169 -0.403 -0.26 -0.598 -0.26c -0.299 0 -0.455 0.247 -0.455 0.728c 0 0.312 0.039 0.793 0.13 1.456c 0.039 0.273 0.052 0.468 0.052 0.611c 0 0.689 -0.364 1.196 -1.092 1.508c 1.222 0.299 2.704 1.17 2.704 2.496Z m -1.69 1.105c 0.26 -0.169 0.39 -0.455 0.39 -0.858c 0 -0.26 -0.052 -0.559 -0.169 -0.91c -0.351 -1.066 -1.235 -1.599 -2.652 -1.599h -1.378l 0.819 3.289c 0.065 0.273 0.169 0.416 0.312 0.429c 0.065 0.013 0.325 0.013 0.78 0.013c 0.845 0 1.339 -0.026 1.898 -0.364Z "/></symbol><symbol id="g53251C539233983FE9FC826CA7FBAC4A" overflow="visible"><path d="M 0 0m 8.723 8.84c -0.247 0 -1.027 0.039 -1.274 0.039c -0.195 0 -0.299 -0.104 -0.299 -0.299c 0 -0.13 0.091 -0.195 0.26 -0.208c 0.364 -0.013 0.546 -0.143 0.546 -0.364c 0 -0.117 -0.065 -0.273 -0.182 -0.468l -3.874 -6.149l -0.858 6.656c 0 0.221 0.273 0.325 0.832 0.325c 0.26 0 0.377 0.091 0.377 0.312c 0 0.13 -0.078 0.195 -0.234 0.195c -0.286 0 -1.3 -0.039 -1.586 -0.039c -0.26 0 -1.144 0.039 -1.404 0.039c -0.195 0 -0.299 -0.104 -0.299 -0.299c 0 -0.143 0.13 -0.208 0.377 -0.208c 0.221 0 0.377 -0.026 0.481 -0.052c 0.208 -0.065 0.195 -0.091 0.234 -0.338l 1.014 -7.93c 0.039 -0.221 0.143 -0.338 0.312 -0.338c 0.169 0 0.299 0.091 0.403 0.26l 4.628 7.358c 0.299 0.468 0.585 0.767 0.871 0.884c 0.195 0.091 0.442 0.143 0.728 0.156c 0.143 0.013 0.208 0.104 0.221 0.299c 0.013 0.143 -0.065 0.208 -0.221 0.208c -0.195 0 -0.858 -0.039 -1.053 -0.039Z "/></symbol></defs></svg>