<svg viewBox="0 0 289.068722222 46.8" width="289.068722222pt" height="46.8pt" xmlns="http://www.w3.org/2000/svg" xmlns:xlink="http://www.w3.org/1999/xlink" xmlns:h5="http://www.w3.org/1999/xhtml"><g transform="matrix(1 0 0 -1 6.5 26.65)"><use xlink:href="#gC8FE9299987BC399BCDE6DD4129703BD" x="0" y="0" fill="#e6edf3" fill-rule="nonzero"/></g><g transform="matrix(1 0 0 -1 14.599 29.861)"><use xlink:href="#gC0ABA531695025EEEBCE35B3C23FE9A6" x="0" y="0" fill="#e6edf3" fill-rule="nonzero"/><use xlink:href="#g9968A3AC7C110F52BFA8A83B9AB20B24" x="5.6875" y="0" fill="#e6edf3" fill-rule="nonzero"/></g><g transform="matrix(1 0 0 -1 29.303011111 26.65)"><use xlink:href="#gE828C0DA283AFA5E1FAF8B74B793D4A8" x="0" y="0" fill="#e6edf3" fill-rule="nonzero"/></g><g transform="matrix(1 0 0 -1 43.028122222 26.65)"><use xlink:href="#gA6C94A81134E5ECF43806D8C91953C00" x="0" y="0" fill="#e6edf3" fill-rule="nonzero"/></g><g transform="matrix(1 0 0 -1 54.754122222 17.3641)"><use xlink:href="#gEDF6611ACB83925E748178A176190AF2" x="0" y="0" fill="#e6edf3" fill-rule="nonzero"/></g><g transform="matrix(1 0 0 -1 70.717472222 12.2421)"><use xlink:href="#g5A380D51C1693CF037954AEF50086985" x="0" y="0" fill="#e6edf3" fill-rule="nonzero"/></g><g transform="matrix(1 0 0 -1 66.168122222 22.009)"><use xlink:href="#gC8D3C41E96247D923393A2468BB66E86" x="0" y="0" fill="#e6edf3" fill-rule="nonzero"/></g><g transform="matrix(1 0 0 -1 71.082122222 19.3791)"><use xlink:href="#g13D66751935FA09636BAA1F04EF91FE0" x="0" y="0" fill="#e6edf3" fill-rule="nonzero"/></g><g transform="matrix(1 0 0 -1 75.508622222 19.3791)"><use xlink:href="#g7594C19EACA82C804431EC922115ECFD" x="0" y="0" fill="#e6edf3" fill-rule="nonzero"/></g><path fill="none" stroke="#e6edf3" stroke-width="0.624" stroke-linecap="butt" stroke-linejoin="miter" stroke-miterlimit="4" transform="translate(66.168122222 14.1141)" d="M 0 0h 14.2766"/><g transform="matrix(1 0 0 -1 86.060722222 17.3641)"><use xlink:href="#g2D7122AD31FABF41BED931716B883F58" x="0" y="0" fill="#e6edf3" fill-rule="nonzero"/><use xlink:href="#gCCDACA59E6D598A65CF16A9645890FC7" x="5.057" y="0" fill="#e6edf3" fill-rule="nonzero"/><use xlink:href="#g7413A85D70934E3816A3D1EE8499A939" x="10.153" y="0" fill="#e6edf3" fill-rule="nonzero"/><use xlink:href="#g35A7BA3FBB03354D7A4358A466CD34D8" x="15.925" y="0" fill="#e6edf3" fill-rule="nonzero"/><use xlink:href="#g639DFB7C802EA1E209EC54229B0444AB" x="23.153" y="0" fill="#e6edf3" fill-rule="nonzero"/><use xlink:href="#gBC3D9C1A249D0D4F874E09900DF515A4" x="30.381" y="0" fill="#e6edf3" fill-rule="nonzero"/><use xlink:href="#gFD7B4B4FA231C83EBA33EE1F285F6134" x="33.995" y="0" fill="#e6edf3" fill-rule="nonzero"/><use xlink:href="#g49CA9B429DF3D7281052206316ECCC8A" x="39.117" y="0" fill="#e6edf3" fill-rule="nonzero"/><use xlink:href="#g66E488693FE2CB4E6A901EA1738CF831" x="42.731" y="0" fill="#e6edf3" fill-rule="nonzero"/><use xlink:href="#gA2276AEFE9378953E87817A497BFC175" x="49.231" y="0" fill="#e6edf3" fill-rule="nonzero"/><use xlink:href="#gEFA988DEC565252013B2D05DB9DFDA82" x="56.459" y="0" fill="#e6edf3" fill-rule="nonzero"/><use xlink:href="#g5D4DFCA3C00979A1E9076032CC813B65" x="64.389" y="0" fill="#e6edf3" fill-rule="nonzero"/><use xlink:href="#gCCDACA59E6D598A65CF16A9645890FC7" x="70.889" y="0" fill="#e6edf3" fill-rule="nonzero"/><use xlink:href="#g49CA9B429DF3D7281052206316ECCC8A" x="75.985" y="0" fill="#e6edf3" fill-rule="nonzero"/><use xlink:href="#gC6152AE651DB3C20E108D025AA5B86BB" x="79.599" y="0" fill="#e6edf3" fill-rule="nonzero"/><use xlink:href="#g7413A85D70934E3816A3D1EE8499A939" x="86.099" y="0" fill="#e6edf3" fill-rule="nonzero"/><use xlink:href="#gA2276AEFE9378953E87817A497BFC175" x="91.871" y="0" fill="#e6edf3" fill-rule="nonzero"/><use xlink:href="#g8B273DA24598714A1DE03FD5302C001A" x="103.415" y="0" fill="#e6edf3" fill-rule="nonzero"/><use xlink:href="#g639DFB7C802EA1E209EC54229B0444AB" x="109.187" y="0" fill="#e6edf3" fill-rule="nonzero"/><use xlink:href="#g31D50A2841E51515DAE8D9B3E07A3F01" x="116.415" y="0" fill="#e6edf3" fill-rule="nonzero"/><use xlink:href="#gA2276AEFE9378953E87817A497BFC175" x="122.915" y="0" fill="#e6edf3" fill-rule="nonzero"/><use xlink:href="#gAA15FA55B6D99ABF04E317BC87D5459D" x="130.143" y="0" fill="#e6edf3" fill-rule="nonzero"/><use xlink:href="#g49CA9B429DF3D7281052206316ECCC8A" x="135.2" y="0" fill="#e6edf3" fill-rule="nonzero"/><use xlink:href="#g8B273DA24598714A1DE03FD5302C001A" x="138.814" y="0" fill="#e6edf3" fill-rule="nonzero"/><use xlink:href="#g5D4DFCA3C00979A1E9076032CC813B65" x="144.586" y="0" fill="#e6edf3" fill-rule="nonzero"/><use xlink:href="#gEFA988DEC565252013B2D05DB9DFDA82" x="151.086" y="0" fill="#e6edf3" fill-rule="nonzero"/><use xlink:href="#g8E97D087849068FDB678D73E5CECDEE2" x="159.016" y="0" fill="#e6edf3" fill-rule="nonzero"/><use xlink:href="#g3BE14B656A783D87D3540BF1AAF22AA9" x="167.869" y="0" fill="#e6edf3" fill-rule="nonzero"/><use xlink:href="#g639DFB7C802EA1E209EC54229B0444AB" x="174.369" y="0" fill="#e6edf3" fill-rule="nonzero"/><use xlink:href="#gBC3D9C1A249D0D4F874E09900DF515A4" x="181.597" y="0" fill="#e6edf3" fill-rule="nonzero"/><use xlink:href="#g49CA9B429DF3D7281052206316ECCC8A" x="185.211" y="0" fill="#e6edf3" fill-rule="nonzero"/><use xlink:href="#g2F93E6EEEE2061842AA37F49EEA2F1A2" x="188.825" y="0" fill="#e6edf3" fill-rule="nonzero"/></g><g transform="matrix(1 0 0 -1 54.754122222 35.8644)"><use xlink:href="#g9B543B57F718853EF8F95EF155B6CF69" x="0" y="0" fill="#e6edf3" fill-rule="nonzero"/></g><g transform="matrix(1 0 0 -1 68.504222222 30.7424)"><use xlink:href="#g5A380D51C1693CF037954AEF50086985" x="0" y="0" fill="#e6edf3" fill-rule="nonzero"/></g><g transform="matrix(1 0 0 -1 66.168122222 40.5093)"><use xlink:href="#gC8D3C41E96247D923393A2468BB66E86" x="0" y="0" fill="#e6edf3" fill-rule="nonzero"/></g><g transform="matrix(1 0 0 -1 71.082122222 37.8794)"><use xlink:href="#gE7CB49ADEF0BFBE23A52AF8F331DEE76" x="0" y="0" fill="#e6edf3" fill-rule="nonzero"/></g><path fill="none" stroke="#e6edf3" stroke-width="0.624" stroke-linecap="butt" stroke-linejoin="miter" stroke-miterlimit="4" transform="translate(66.168122222 32.6144)" d="M 0 0h 9.8501"/><g transform="matrix(1 0 0 -1 86.060722222 35.8644)"><use xlink:href="#g2D7122AD31FABF41BED931716B883F58" x="0" y="0" fill="#e6edf3" fill-rule="nonzero"/><use xlink:href="#g3BE14B656A783D87D3540BF1AAF22AA9" x="5.057" y="0" fill="#e6edf3" fill-rule="nonzero"/><use xlink:href="#gAA15FA55B6D99ABF04E317BC87D5459D" x="11.557" y="0" fill="#e6edf3" fill-rule="nonzero"/><use xlink:href="#gCCDACA59E6D598A65CF16A9645890FC7" x="16.614" y="0" fill="#e6edf3" fill-rule="nonzero"/><use xlink:href="#g3BE14B656A783D87D3540BF1AAF22AA9" x="21.71" y="0" fill="#e6edf3" fill-rule="nonzero"/><use xlink:href="#g8B273DA24598714A1DE03FD5302C001A" x="28.21" y="0" fill="#e6edf3" fill-rule="nonzero"/><use xlink:href="#g8B273DA24598714A1DE03FD5302C001A" x="33.982" y="0" fill="#e6edf3" fill-rule="nonzero"/><use xlink:href="#g49CA9B429DF3D7281052206316ECCC8A" x="39.754" y="0" fill="#e6edf3" fill-rule="nonzero"/><use xlink:href="#g66E488693FE2CB4E6A901EA1738CF831" x="43.368" y="0" fill="#e6edf3" fill-rule="nonzero"/><use xlink:href="#gA2276AEFE9378953E87817A497BFC175" x="49.868" y="0" fill="#e6edf3" fill-rule="nonzero"/><use xlink:href="#gEFA988DEC565252013B2D05DB9DFDA82" x="57.096" y="0" fill="#e6edf3" fill-rule="nonzero"/><use xlink:href="#gEB9B079EF07FFCCA69ED7A9B1F1ABEB" x="65.026" y="0" fill="#e6edf3" fill-rule="nonzero"/><use xlink:href="#g49CA9B429DF3D7281052206316ECCC8A" x="72.254" y="0" fill="#e6edf3" fill-rule="nonzero"/><use xlink:href="#g35A7BA3FBB03354D7A4358A466CD34D8" x="75.868" y="0" fill="#e6edf3" fill-rule="nonzero"/><use xlink:href="#g5D4DFCA3C00979A1E9076032CC813B65" x="83.096" y="0" fill="#e6edf3" fill-rule="nonzero"/><use xlink:href="#gBC3D9C1A249D0D4F874E09900DF515A4" x="89.596" y="0" fill="#e6edf3" fill-rule="nonzero"/><use xlink:href="#g5D4DFCA3C00979A1E9076032CC813B65" x="93.21" y="0" fill="#e6edf3" fill-rule="nonzero"/><use xlink:href="#gAD96C2EEE7EE2AE3951947EAB253D6C8" x="99.71" y="0" fill="#e6edf3" fill-rule="nonzero"/><use xlink:href="#gEB9B079EF07FFCCA69ED7A9B1F1ABEB" x="104.039" y="0" fill="#e6edf3" fill-rule="nonzero"/><use xlink:href="#g49CA9B429DF3D7281052206316ECCC8A" x="111.267" y="0" fill="#e6edf3" fill-rule="nonzero"/><use xlink:href="#g35A7BA3FBB03354D7A4358A466CD34D8" x="114.881" y="0" fill="#e6edf3" fill-rule="nonzero"/><use xlink:href="#g5D4DFCA3C00979A1E9076032CC813B65" x="122.109" y="0" fill="#e6edf3" fill-rule="nonzero"/><use xlink:href="#gBC3D9C1A249D0D4F874E09900DF515A4" x="128.609" y="0" fill="#e6edf3" fill-rule="nonzero"/><use xlink:href="#g5D4DFCA3C00979A1E9076032CC813B65" x="132.223" y="0" fill="#e6edf3" fill-rule="nonzero"/><use xlink:href="#g49CA9B429DF3D7281052206316ECCC8A" x="143.039" y="0" fill="#e6edf3" fill-rule="nonzero"/><use xlink:href="#gA2276AEFE9378953E87817A497BFC175" x="146.653" y="0" fill="#e6edf3" fill-rule="nonzero"/><use xlink:href="#gEB9B079EF07FFCCA69ED7A9B1F1ABEB" x="153.881" y="0" fill="#e6edf3" fill-rule="nonzero"/><use xlink:href="#g639DFB7C802EA1E209EC54229B0444AB" x="161.109" y="0" fill="#e6edf3" fill-rule="nonzero"/><use xlink:href="#g8B273DA24598714A1DE03FD5302C001A" x="168.337" y="0" fill="#e6edf3" fill-rule="nonzero"/><use xlink:href="#g49CA9B429DF3D7281052206316ECCC8A" x="174.109" y="0" fill="#e6edf3" fill-rule="nonzero"/><use xlink:href="#gEB9B079EF07FFCCA69ED7A9B1F1ABEB" x="177.723" y="0" fill="#e6edf3" fill-rule="nonzero"/><use xlink:href="#g5D4DFCA3C00979A1E9076032CC813B65" x="184.951" y="0" fill="#e6edf3" fill-rule="nonzero"/><use xlink:href="#g2F93E6EEEE2061842AA37F49EEA2F1A2" x="191.451" y="0" fill="#e6edf3" fill-rule="nonzero"/></g><defs><symbol id="gC8FE9299987BC399BCDE6DD4129703BD" overflow="visible"><path d="M 0 0m 8.346 8.84c -0.247 0 -1.079 0.039 -1.326 0.039c -0.195 0 -0.286 -0.104 -0.286 -0.312c 0 -0.117 0.091 -0.182 0.273 -0.195c 0.559 0 0.832 -0.169 0.832 -0.507c 0 -0.078 -0.013 -0.169 -0.039 -0.26l -1.157 -4.589c -0.195 -0.741 -0.572 -1.378 -1.131 -1.924c -0.611 -0.585 -1.287 -0.871 -2.015 -0.871c -0.962 0 -1.521 0.65 -1.521 1.612l 0.013 0.117c 0 0.247 0.039 0.533 0.13 0.871l 1.248 5.005c 0.065 0.273 0.182 0.442 0.351 0.507c 0.078 0.026 0.299 0.039 0.676 0.039c 0.338 0 0.481 0 0.481 0.312c 0 0.13 -0.078 0.195 -0.221 0.195l -1.651 -0.039l -1.651 0.039c -0.208 0 -0.299 -0.117 -0.299 -0.312c 0 -0.091 0.039 -0.156 0.104 -0.169c 0.13 -0.013 0.234 -0.026 0.299 -0.026c 0.403 -0.013 0.637 -0.039 0.702 -0.052c 0.065 -0.013 0.091 -0.052 0.091 -0.117c 0 -0.026 -0.013 -0.117 -0.052 -0.26l -1.235 -4.953c -0.065 -0.247 -0.091 -0.494 -0.091 -0.754c 0 -1.495 1.079 -2.522 2.574 -2.522c 0.845 0 1.625 0.325 2.34 0.988c 0.689 0.624 1.131 1.352 1.339 2.197l 1.144 4.563c 0.169 0.663 0.533 0.897 1.339 0.91c 0.182 0.013 0.273 0.117 0.273 0.312v 0.052c -0.039 0.091 -0.104 0.143 -0.221 0.143c -0.247 0 -1.066 -0.039 -1.313 -0.039Z "/></symbol><symbol id="gC0ABA531695025EEEBCE35B3C23FE9A6" overflow="visible"><path d="M 0 0m 2.093 0.6734v 4.7957c 0 0.1183 0.0091 0.1911 0.0273 0.2366c 0.0455 0.1001 0.3094 0.1547 0.7917 0.1547h 0.3276v 0.3549c -0.2366 -0.0182 -0.7462 -0.0273 -1.5379 -0.0273c -0.7007 0 -1.1648 0.0091 -1.4014 0.0273v -0.3549h 0.2548c 0.3185 0 0.5096 -0.0273 0.5733 -0.0728c 0.0637 -0.0455 0.1001 -0.1456 0.1001 -0.3094v -4.7411c 0 -0.1638 -0.0364 -0.273 -0.1001 -0.3185c -0.0637 -0.0455 -0.2548 -0.0637 -0.5733 -0.0637h -0.2548v -0.3549h 4.7411l 0.2548 2.3933h -0.2912c -0.0455 -0.4641 -0.1274 -0.8372 -0.2275 -1.1284c -0.2002 -0.5733 -0.7371 -0.91 -1.547 -0.91h -0.7371c -0.3458 0 -0.4004 0 -0.4004 0.3185Z "/></symbol><symbol id="g9968A3AC7C110F52BFA8A83B9AB20B24" overflow="visible"><path d="M 0 0m 1.82 0.0728c -0.4095 0 -0.7098 0.1456 -0.9191 0.4459c 0.364 0.0182 0.546 0.2002 0.546 0.5369c 0 0.3094 -0.2275 0.546 -0.5369 0.546c -0.3276 0 -0.5369 -0.2366 -0.5369 -0.5642c 0 -0.7371 0.7098 -1.2376 1.4651 -1.2376c 0.4095 0 0.7826 0.1183 1.1102 0.364c 0.3276 0.2457 0.5278 0.5733 0.5824 0.9737c 0.0091 0.0455 0.0091 0.1729 0.0091 0.4004v 3.9949c 0 0.1547 0.0273 0.2548 0.1001 0.2821c 0.0728 0.0273 0.273 0.0455 0.5915 0.0455v 0.3549l -1.1921 -0.0273c -0.5915 -0.0091 -1.1011 0 -1.5288 0.0273v -0.3549h 0.3549c 0.4823 0 0.7553 -0.0455 0.8099 -0.1456c 0.0182 -0.0455 0.0273 -0.1274 0.0273 -0.2457v -4.1041c 0 -0.6279 -0.3003 -1.2922 -0.8827 -1.2922Z "/></symbol><symbol id="gE828C0DA283AFA5E1FAF8B74B793D4A8" overflow="visible"><path d="M 0 0m 6.006 3.601c -0.351 0.52 -0.715 0.962 -1.066 1.326c -0.52 0.546 -1.157 0.819 -1.924 0.819c -0.715 0 -1.3 -0.325 -1.729 -0.975c -0.377 -0.559 -0.559 -1.222 -0.559 -1.976c 0 -0.754 0.182 -1.417 0.546 -1.976c 0.429 -0.637 1.001 -0.962 1.716 -0.962c 1.404 0 2.366 1.079 2.899 2.145c 0.351 -0.52 0.702 -0.962 1.053 -1.326c 0.533 -0.546 1.17 -0.819 1.924 -0.819c 0.169 0 0.351 0.026 0.52 0.065v 0.611c -0.195 -0.039 -0.312 -0.052 -0.351 -0.052c -0.468 0 -0.897 0.208 -1.287 0.624c -0.247 0.273 -0.533 0.663 -0.858 1.144l -0.546 0.806c 0.208 0.468 0.52 0.936 0.923 1.417c 0.468 0.533 1.04 0.806 1.716 0.806c 0.13 0 0.26 -0.026 0.403 -0.065c 0 0.286 -0.026 0.455 -0.065 0.494c -0.091 0.026 -0.234 0.039 -0.429 0.039c -1.391 0 -2.366 -1.079 -2.886 -2.145Z m -1.001 -0.247l 0.533 -0.806c -0.208 -0.468 -0.52 -0.936 -0.923 -1.417c -0.468 -0.533 -1.04 -0.806 -1.716 -0.806c -0.585 0 -1.04 0.273 -1.365 0.832c -0.273 0.468 -0.416 1.014 -0.416 1.638c 0 0.585 0.143 1.092 0.416 1.547c 0.325 0.52 0.767 0.78 1.313 0.78c 0.481 0 0.91 -0.208 1.287 -0.624c 0.247 -0.273 0.546 -0.663 0.871 -1.144Z "/></symbol><symbol id="gA6C94A81134E5ECF43806D8C91953C00" overflow="visible"><path d="M 0 0m 3.224 3.25c 1.56 0.832 3.341 2.704 3.341 4.862v 9.724c 0 0.858 0.299 1.69 0.897 2.509c 0.598 0.819 1.287 1.365 2.106 1.651c 0.169 0.065 0.247 0.182 0.247 0.364c 0 0.26 -0.13 0.39 -0.39 0.39c -0.039 0 -0.078 -0.013 -0.13 -0.026c -1.053 -0.39 -1.989 -1.014 -2.795 -1.885c -0.897 -0.975 -1.339 -1.976 -1.339 -3.003v -9.724c 0 -0.923 -0.286 -1.82 -0.858 -2.691c -0.585 -0.897 -1.3 -1.508 -2.145 -1.807c -0.169 -0.065 -0.247 -0.182 -0.247 -0.364c 0 -0.182 0.078 -0.299 0.247 -0.364c 0.845 -0.299 1.56 -0.91 2.132 -1.794c 0.572 -0.884 0.871 -1.781 0.871 -2.704v -9.724c 0 -1.027 0.442 -2.028 1.339 -3.003c 0.806 -0.871 1.742 -1.495 2.795 -1.885c 0.052 -0.013 0.091 -0.026 0.13 -0.026c 0.26 0 0.39 0.13 0.39 0.39c 0 0.182 -0.078 0.299 -0.247 0.364c -0.819 0.286 -1.508 0.832 -2.106 1.651c -0.598 0.819 -0.897 1.651 -0.897 2.509v 9.724c 0 2.158 -1.781 4.017 -3.341 4.862Z "/></symbol><symbol id="gEDF6611ACB83925E748178A176190AF2" overflow="visible"><path d="M 0 0m 9.074 3.562h -3.705v 3.705c 0 0.208 -0.104 0.312 -0.312 0.312c -0.208 0 -0.312 -0.104 -0.312 -0.312v -3.705h -3.705c -0.208 0 -0.312 -0.104 -0.312 -0.312c 0 -0.208 0.104 -0.312 0.312 -0.312h 3.705v -3.705c 0 -0.208 0.104 -0.312 0.312 -0.312c 0.208 0 0.312 0.104 0.312 0.312v 3.705h 3.705c 0.208 0 0.312 0.104 0.312 0.312c 0 0.169 -0.143 0.312 -0.312 0.312Z "/></symbol><symbol id="g5A380D51C1693CF037954AEF50086985" overflow="visible"><path d="M 0 0m 2.7573 6.0424c -0.3913 -0.3822 -0.9737 -0.5733 -1.7654 -0.5733v -0.4004c 0.5369 0 0.9646 0.0819 1.2922 0.2366v -4.5318c 0 -0.1183 -0.0091 -0.1911 -0.0364 -0.2275c -0.0455 -0.1001 -0.3185 -0.1547 -0.819 -0.1547h -0.3731v -0.3913l 1.6198 0.0364l 1.6289 -0.0364v 0.3913h -0.3731c -0.5005 0 -0.7735 0.0546 -0.8281 0.1547c -0.0182 0.0364 -0.0273 0.1092 -0.0273 0.2275v 4.9777c 0 0.2457 -0.0364 0.2912 -0.3185 0.2912Z "/></symbol><symbol id="gC8D3C41E96247D923393A2468BB66E86" overflow="visible"><path d="M 0 0m 4.6592 3.3215c 0 0.4732 -0.4823 0.6916 -0.9828 0.6916c -0.4641 0 -0.8827 -0.2002 -1.2467 -0.6006c -0.0546 0.1456 -0.1365 0.2639 -0.2548 0.364c -0.2093 0.1547 -0.4368 0.2366 -0.6825 0.2366c -0.3094 0 -0.5551 -0.1547 -0.728 -0.4732c -0.2275 -0.3913 -0.3367 -0.7007 -0.3367 -0.9282c 0 -0.1001 0.0637 -0.1547 0.1911 -0.1547c 0.182 0 0.1729 0.1001 0.2275 0.2912c 0.1547 0.6279 0.364 0.9464 0.6188 0.9464c 0.1729 0 0.2639 -0.1365 0.2639 -0.4095c 0 -0.1001 -0.0455 -0.3367 -0.1456 -0.728l -0.4823 -1.9474c -0.0637 -0.2457 -0.091 -0.3731 -0.091 -0.3822c 0 -0.2093 0.1092 -0.3185 0.3367 -0.3185c 0.3185 0 0.4095 0.2002 0.4823 0.5005c 0.2002 0.8281 0.3549 1.4469 0.4641 1.8746c 0.0819 0.2912 0.1183 0.4459 0.1183 0.455c 0.0091 0.0455 0.0728 0.1547 0.1911 0.3185c 0.3003 0.4277 0.6552 0.637 1.0647 0.637c 0.1547 0 0.2912 -0.0273 0.4004 -0.0819c -0.2275 -0.1001 -0.3367 -0.2639 -0.3367 -0.5005c 0 -0.2184 0.1729 -0.3731 0.3913 -0.3731c 0.3094 0 0.5369 0.273 0.5369 0.5824Z "/></symbol><symbol id="g13D66751935FA09636BAA1F04EF91FE0" overflow="visible"><path d="M 0 0m 2.34 4.329c -0.299 -0.273 -0.7215 -0.4095 -1.274 -0.4095h -0.1365v -0.338h 0.1365c 0.3315 0 0.6305 0.0585 0.9035 0.169v -3.172c 0 -0.0715 -0.0065 -0.1235 -0.026 -0.1495c -0.0325 -0.065 -0.2405 -0.0975 -0.624 -0.0975h -0.3445v -0.3315c 0.2535 0.0195 0.689 0.026 1.313 0.026c 0.624 0 1.0595 -0.0065 1.313 -0.026v 0.3315h -0.3445c -0.3835 0 -0.5915 0.0325 -0.6305 0.0975c -0.013 0.026 -0.0195 0.078 -0.0195 0.1495v 3.5295c 0 0.221 -0.026 0.221 -0.2665 0.221Z "/></symbol><symbol id="g7594C19EACA82C804431EC922115ECFD" overflow="visible"><path d="M 0 0m 0.988 2.756c 0.234 0 0.403 0.169 0.403 0.403c 0 0.2275 -0.117 0.364 -0.3445 0.403c 0.2015 0.2925 0.5135 0.4355 0.936 0.4355c 0.6175 0 1.1115 -0.3835 1.1115 -0.9815c 0 -0.4095 -0.286 -0.858 -0.858 -1.3455l -1.56 -1.3325c -0.052 -0.0455 -0.078 -0.0845 -0.0845 -0.117v -0.221h 3.0225l 0.221 1.2935h -0.325c -0.0585 -0.351 -0.117 -0.546 -0.1755 -0.5915c -0.0325 -0.0195 -0.26 -0.0325 -0.6695 -0.0325h -1.1765c 0.8385 0.6175 1.0205 0.741 1.56 1.1245c 0.26 0.1885 0.442 0.364 0.5525 0.5265c 0.1495 0.2275 0.2275 0.4615 0.2275 0.702c 0 0.4355 -0.1885 0.767 -0.559 1.001c -0.3185 0.2015 -0.702 0.3055 -1.157 0.3055c -0.3835 0 -0.7215 -0.0975 -1.014 -0.286c -0.338 -0.2145 -0.507 -0.507 -0.507 -0.871c 0 -0.247 0.195 -0.416 0.3965 -0.416Z "/></symbol><symbol id="g2D7122AD31FABF41BED931716B883F58" overflow="visible"><path d="M 0 0m 4.134 -3.224c 0.117 0 0.182 0.065 0.182 0.182c 0 0.039 -0.026 0.091 -0.065 0.143c -0.676 0.52 -1.222 1.378 -1.625 2.561c -0.351 1.027 -0.533 2.041 -0.533 3.042v 1.092c 0 1.001 0.182 2.015 0.533 3.042c 0.403 1.183 0.949 2.041 1.625 2.561c 0.039 0.039 0.065 0.091 0.065 0.143c 0 0.117 -0.065 0.182 -0.182 0.182c -0.013 0 -0.052 -0.013 -0.091 -0.039c -0.78 -0.598 -1.43 -1.482 -1.963 -2.665c -0.507 -1.131 -0.767 -2.197 -0.767 -3.224v -1.092c 0 -1.027 0.26 -2.093 0.767 -3.224c 0.533 -1.183 1.183 -2.067 1.963 -2.665c 0.039 -0.026 0.078 -0.039 0.091 -0.039Z "/></symbol><symbol id="gCCDACA59E6D598A65CF16A9645890FC7" overflow="visible"><path d="M 0 0m 4.732 4.914c 0 0.507 -0.481 0.832 -0.988 0.832c -0.663 0 -1.17 -0.39 -1.508 -1.183v 1.183l -1.872 -0.143v -0.494c 0.455 0 0.728 -0.039 0.832 -0.117c 0.104 -0.078 0.156 -0.247 0.156 -0.546v -3.419c 0 -0.247 -0.039 -0.403 -0.13 -0.455c -0.091 -0.052 -0.377 -0.078 -0.858 -0.078v -0.494l 1.495 0.039c 0.546 0.013 1.105 0 1.664 -0.039v 0.494h -0.312c -0.429 0 -0.702 0.039 -0.793 0.104c -0.091 0.065 -0.13 0.221 -0.13 0.455v 1.963c 0 0.559 0.104 1.066 0.299 1.495c 0.26 0.559 0.637 0.845 1.144 0.858c -0.13 -0.13 -0.195 -0.286 -0.195 -0.468c 0 -0.403 0.195 -0.598 0.598 -0.598c 0.351 0 0.598 0.273 0.598 0.611Z "/></symbol><symbol id="g7413A85D70934E3816A3D1EE8499A939" overflow="visible"><path d="M 0 0m 5.395 3.263c 0 1.495 -0.871 2.561 -2.327 2.561c -0.78 0 -1.43 -0.299 -1.963 -0.91c -0.494 -0.572 -0.741 -1.261 -0.741 -2.054c 0 -0.819 0.273 -1.508 0.819 -2.106c 0.546 -0.598 1.222 -0.897 2.028 -0.897c 0.741 0 1.313 0.26 1.703 0.767c 0.325 0.429 0.481 0.741 0.481 0.949c 0 0.13 -0.078 0.195 -0.221 0.195c -0.104 0 -0.169 -0.065 -0.208 -0.208c -0.286 -0.858 -0.845 -1.287 -1.677 -1.287c -0.585 0 -1.04 0.273 -1.391 0.832c -0.247 0.403 -0.364 1.014 -0.377 1.846h 3.51c 0.286 0 0.364 0.026 0.364 0.312Z m -1.157 1.274c 0.143 -0.429 0.208 -0.845 0.208 -1.222h -2.912c 0.039 0.858 0.26 1.443 0.65 1.742c 0.325 0.26 0.611 0.39 0.884 0.39c 0.585 0 0.975 -0.299 1.17 -0.91Z "/></symbol><symbol id="g35A7BA3FBB03354D7A4358A466CD34D8" overflow="visible"><path d="M 0 0m 3.874 -0.169c 0.806 0 1.495 0.286 2.054 0.871c 0.559 0.585 0.845 1.274 0.845 2.093c 0 0.793 -0.26 1.469 -0.767 2.041c -0.533 0.611 -1.183 0.91 -1.963 0.91c -0.663 0 -1.235 -0.26 -1.729 -0.767v 0.767l -1.95 -0.143v -0.494c 0.481 0 0.767 -0.026 0.858 -0.091c 0.091 -0.065 0.143 -0.234 0.143 -0.507v -6.006c 0 -0.247 -0.052 -0.403 -0.143 -0.455c -0.091 -0.052 -0.377 -0.065 -0.858 -0.065v -0.507l 1.482 0.039l 1.495 -0.039v 0.507c -0.481 0 -0.754 0.013 -0.845 0.065c -0.091 0.052 -0.143 0.208 -0.143 0.455v 2.067c 0.286 -0.403 0.845 -0.741 1.521 -0.741Z m 0.078 5.486c 0.533 0 0.949 -0.299 1.274 -0.897c 0.247 -0.507 0.377 -1.04 0.377 -1.625c 0 -0.611 -0.143 -1.17 -0.429 -1.677c -0.338 -0.611 -0.793 -0.91 -1.352 -0.91c -0.546 0 -0.975 0.26 -1.3 0.767c -0.117 0.169 -0.169 0.338 -0.169 0.507v 2.847c 0.377 0.663 0.91 0.988 1.599 0.988Z "/></symbol><symbol id="g639DFB7C802EA1E209EC54229B0444AB" overflow="visible"><path d="M 0 0m 3.471 0.234c -0.897 0 -1.066 0.377 -1.066 1.222v 4.29l -1.989 -0.143v -0.494c 0.507 0 0.806 -0.052 0.884 -0.143c 0.078 -0.091 0.117 -0.416 0.117 -0.988v -1.911c 0 -0.507 0.039 -0.897 0.13 -1.196c 0.195 -0.676 0.91 -1.014 1.859 -1.014c 0.702 0 1.235 0.325 1.599 0.988v -0.988l 1.95 0.143v 0.494c -0.468 0 -0.741 0.026 -0.845 0.104c -0.104 0.078 -0.156 0.26 -0.156 0.559v 4.589l -1.976 -0.143v -0.494c 0.455 0 0.728 -0.039 0.832 -0.117c 0.104 -0.078 0.156 -0.247 0.156 -0.546v -2.275c 0 -1.027 -0.546 -1.937 -1.495 -1.937Z "/></symbol><symbol id="gBC3D9C1A249D0D4F874E09900DF515A4" overflow="visible"><path d="M 0 0m 1.872 0.039l 1.443 -0.039v 0.507c -0.468 0 -0.754 0.013 -0.845 0.065c -0.091 0.052 -0.13 0.208 -0.13 0.455v 7.995l -1.911 -0.143v -0.494c 0.455 0 0.741 -0.039 0.832 -0.117c 0.091 -0.078 0.143 -0.26 0.143 -0.559v -6.682c 0 -0.247 -0.039 -0.403 -0.13 -0.455c -0.091 -0.052 -0.377 -0.065 -0.845 -0.065v -0.507Z "/></symbol><symbol id="gFD7B4B4FA231C83EBA33EE1F285F6134" overflow="visible"><path d="M 0 0m 4.68 1.69c 0 0.988 -0.676 1.612 -2.015 1.872c -0.611 0.117 -1.001 0.26 -1.209 0.403c -0.208 0.143 -0.312 0.351 -0.312 0.598c 0 0.611 0.455 0.91 1.365 0.91c 0.884 0 1.365 -0.494 1.43 -1.495c 0.013 -0.104 0.078 -0.156 0.208 -0.156c 0.143 0 0.221 0.117 0.221 0.351v 1.287c 0 0.247 -0.065 0.364 -0.195 0.364c -0.143 0 -0.338 -0.234 -0.468 -0.338c -0.325 0.221 -0.728 0.338 -1.196 0.338c -1.157 0 -2.08 -0.52 -2.08 -1.625c 0 -0.442 0.182 -0.819 0.559 -1.118c 0.455 -0.377 0.884 -0.455 1.703 -0.598c 0.845 -0.169 1.274 -0.546 1.274 -1.131c 0 -0.741 -0.455 -1.118 -1.378 -1.118c -0.897 0 -1.469 0.598 -1.716 1.781c -0.039 0.169 -0.104 0.26 -0.221 0.26c -0.143 0 -0.221 -0.13 -0.221 -0.377v -1.677c 0 -0.247 0.065 -0.364 0.195 -0.364c 0.039 0 0.104 0.039 0.208 0.13c 0.234 0.208 0.13 0.169 0.364 0.403c 0.377 -0.351 0.845 -0.533 1.391 -0.533c 1.235 0 2.093 0.637 2.093 1.833Z "/></symbol><symbol id="g49CA9B429DF3D7281052206316ECCC8A" overflow="visible"><path d="M 0 0m 2.522 7.813c 0 0.39 -0.325 0.728 -0.715 0.728c -0.39 0 -0.728 -0.338 -0.728 -0.728c 0 -0.39 0.325 -0.741 0.715 -0.741c 0.403 0 0.728 0.338 0.728 0.741Z m -0.663 -7.774l 1.352 -0.039v 0.507c -0.429 0 -0.689 0.026 -0.767 0.078c -0.078 0.052 -0.104 0.195 -0.104 0.429v 4.771l -1.859 -0.156v -0.494c 0.429 0 0.702 -0.039 0.793 -0.104c 0.091 -0.065 0.13 -0.247 0.13 -0.546v -3.458c 0 -0.247 -0.039 -0.403 -0.13 -0.455c -0.091 -0.052 -0.377 -0.065 -0.845 -0.065v -0.507Z "/></symbol><symbol id="g66E488693FE2CB4E6A901EA1738CF831" overflow="visible"><path d="M 0 0m 4.368 9.074c -0.156 0 -0.299 -0.078 -0.416 -0.234l -1.56 -2.002l 0.273 -0.299l 1.989 1.599c 0.156 0.117 0.234 0.26 0.234 0.416c 0 0.273 -0.247 0.52 -0.52 0.52Z m -1.131 -9.217c 0.806 0 1.482 0.299 2.041 0.871c 0.559 0.572 0.845 1.261 0.845 2.067c 0 0.819 -0.273 1.534 -0.819 2.145c -0.546 0.611 -1.235 0.923 -2.054 0.923c -0.819 0 -1.495 -0.299 -2.054 -0.91c -0.559 -0.611 -0.832 -1.326 -0.832 -2.158c 0 -0.806 0.273 -1.495 0.832 -2.067c 0.559 -0.572 1.235 -0.871 2.041 -0.871Z m 0.013 0.429c -0.624 0 -1.092 0.273 -1.417 0.832c -0.208 0.364 -0.312 0.962 -0.312 1.781c 0 0.793 0.104 1.378 0.299 1.742c 0.312 0.559 0.78 0.832 1.417 0.832c 0.611 0 1.079 -0.273 1.404 -0.806c 0.221 -0.364 0.325 -0.949 0.325 -1.768c 0 -1.508 -0.442 -2.613 -1.716 -2.613Z "/></symbol><symbol id="gA2276AEFE9378953E87817A497BFC175" overflow="visible"><path d="M 0 0m 4.082 5.369c 0.585 0 0.884 -0.455 0.884 -1.378v -2.964c 0 -0.247 -0.039 -0.403 -0.13 -0.455c -0.091 -0.052 -0.377 -0.078 -0.858 -0.078v -0.494l 1.495 0.039l 1.482 -0.039v 0.494c -0.416 0 -0.689 0.013 -0.819 0.052c -0.13 0.039 -0.182 0.13 -0.182 0.286v 2.431c 0 0.611 -0.013 1.04 -0.052 1.287c -0.13 0.793 -0.715 1.196 -1.742 1.196c -0.819 0 -1.43 -0.39 -1.833 -1.17v 1.17l -1.911 -0.143v -0.494c 0.468 0 0.754 -0.039 0.858 -0.117c 0.104 -0.078 0.143 -0.247 0.143 -0.546v -3.419c 0 -0.247 -0.052 -0.403 -0.143 -0.455c -0.091 -0.052 -0.377 -0.078 -0.858 -0.078v -0.494l 1.495 0.039l 1.482 -0.039v 0.494c -0.481 0 -0.754 0.026 -0.845 0.078c -0.091 0.052 -0.143 0.208 -0.143 0.455v 2.34c 0 1.053 0.663 2.002 1.677 2.002Z "/></symbol><symbol id="gEFA988DEC565252013B2D05DB9DFDA82" overflow="visible"><path d="M 0 0m 1.807 1.378c -0.416 0 -0.689 -0.312 -0.689 -0.728c 0 -0.39 0.299 -0.715 0.689 -0.715c 0.182 0 0.338 0.052 0.455 0.169l 0.013 -0.104c 0 -0.819 -0.273 -1.521 -0.819 -2.08c -0.091 -0.104 -0.143 -0.182 -0.143 -0.234c 0 -0.13 0.052 -0.195 0.169 -0.195c 0.117 0 0.273 0.156 0.494 0.455c 0.442 0.624 0.663 1.313 0.663 2.054c 0 0.689 -0.234 1.378 -0.832 1.378Z "/></symbol><symbol id="g5D4DFCA3C00979A1E9076032CC813B65" overflow="visible"><path d="M 0 0m 3.237 -0.143c 0.806 0 1.482 0.286 2.041 0.858c 0.559 0.572 0.845 1.261 0.845 2.067c 0 0.819 -0.273 1.534 -0.819 2.132c -0.546 0.598 -1.235 0.91 -2.054 0.91c -0.819 0 -1.495 -0.312 -2.054 -0.91c -0.559 -0.598 -0.832 -1.313 -0.832 -2.132c 0 -0.806 0.273 -1.495 0.832 -2.067c 0.559 -0.572 1.248 -0.858 2.041 -0.858Z m 0.013 0.416c -0.624 0 -1.092 0.273 -1.417 0.832c -0.208 0.364 -0.312 0.962 -0.312 1.781c 0 0.793 0.104 1.365 0.299 1.729c 0.312 0.559 0.78 0.832 1.417 0.832c 0.611 0 1.079 -0.273 1.404 -0.806c 0.221 -0.364 0.325 -0.949 0.325 -1.755c 0 -1.508 -0.442 -2.613 -1.716 -2.613Z "/></symbol><symbol id="gC6152AE651DB3C20E108D025AA5B86BB" overflow="visible"><path d="M 0 0m 5.603 5.889c -0.494 0 -0.949 -0.195 -1.365 -0.585c -0.39 0.299 -0.832 0.442 -1.339 0.442c -1.118 0 -2.132 -0.832 -2.132 -1.924c 0 -0.546 0.195 -0.988 0.585 -1.326c -0.247 -0.312 -0.377 -0.663 -0.377 -1.066c 0 -0.494 0.169 -0.871 0.494 -1.118c -0.546 -0.182 -1.105 -0.65 -1.105 -1.313c 0 -0.559 0.364 -1.001 1.079 -1.313c 0.546 -0.247 1.144 -0.364 1.794 -0.364c 0.663 0 1.274 0.117 1.82 0.364c 0.715 0.312 1.066 0.754 1.066 1.339c 0 0.689 -0.286 1.196 -0.858 1.521c -0.598 0.325 -1.261 0.364 -2.223 0.364c -0.572 0 -0.884 0 -0.949 0.013c -0.364 0.052 -0.624 0.403 -0.624 0.806c 0 0.195 0.052 0.377 0.169 0.533c 0.364 -0.247 0.78 -0.377 1.261 -0.377c 1.118 0 2.119 0.832 2.119 1.924c 0 0.507 -0.169 0.923 -0.507 1.248c 0.325 0.299 0.676 0.442 1.053 0.442c -0.065 -0.065 -0.104 -0.169 -0.104 -0.299c 0 -0.286 0.143 -0.429 0.429 -0.429c 0.273 0 0.416 0.143 0.416 0.442c 0 0.403 -0.312 0.676 -0.702 0.676Z m -2.704 -0.546c 0.702 0 1.053 -0.507 1.053 -1.521c 0 -1.027 -0.351 -1.547 -1.053 -1.547c -0.715 0 -1.066 0.507 -1.066 1.534c 0 1.027 0.351 1.534 1.066 1.534Z m -0.767 -5.291h 0.754c 0.676 0 1.222 -0.039 1.638 -0.13c 0.559 -0.117 0.832 -0.429 0.832 -0.923c 0 -0.416 -0.26 -0.741 -0.78 -0.988c -0.403 -0.195 -0.845 -0.286 -1.326 -0.286c -0.468 0 -0.91 0.091 -1.326 0.286c -0.533 0.247 -0.793 0.572 -0.793 0.988c 0 0.546 0.468 1.053 1.001 1.053Z "/></symbol><symbol id="g8B273DA24598714A1DE03FD5302C001A" overflow="visible"><path d="M 0 0m 3.263 5.408c 0.546 0 0.962 -0.13 1.248 -0.39c -0.312 -0.039 -0.533 -0.325 -0.533 -0.624c 0 -0.429 0.208 -0.637 0.637 -0.637c 0.429 0 0.637 0.221 0.637 0.65c 0 0.923 -1.001 1.417 -2.002 1.417c -0.806 0 -1.469 -0.286 -2.002 -0.884c -0.533 -0.598 -0.806 -1.313 -0.806 -2.132c 0 -0.793 0.273 -1.495 0.806 -2.08c 0.533 -0.585 1.183 -0.871 1.976 -0.871c 0.65 0 1.157 0.182 1.521 0.559c 0.299 0.299 0.494 0.598 0.598 0.91c 0.039 0.117 0.052 0.195 0.052 0.247c 0 0.117 -0.078 0.169 -0.221 0.169c -0.104 0 -0.169 -0.052 -0.208 -0.156c -0.273 -0.871 -0.806 -1.313 -1.625 -1.313c -0.377 0 -0.741 0.169 -1.105 0.52c -0.429 0.403 -0.637 1.079 -0.637 2.041c 0 1.3 0.494 2.574 1.664 2.574Z "/></symbol><symbol id="g31D50A2841E51515DAE8D9B3E07A3F01" overflow="visible"><path d="M 0 0m 4.381 9.074c -0.169 0 -0.312 -0.078 -0.429 -0.234l -1.56 -2.002l 0.286 -0.299l 1.976 1.599c 0.156 0.117 0.234 0.26 0.234 0.416c 0 0.273 -0.247 0.52 -0.507 0.52Z m 1.898 -7.878v 0.767h -0.416v -0.767c 0 -0.507 -0.143 -0.767 -0.416 -0.767c -0.26 0 -0.416 0.325 -0.416 0.585v 2.574c 0 0.455 -0.052 0.793 -0.143 1.027c -0.299 0.78 -1.222 1.248 -2.119 1.248c -1.001 0 -1.989 -0.572 -1.989 -1.508c 0 -0.429 0.221 -0.65 0.65 -0.65c 0.429 0 0.637 0.208 0.637 0.637c 0 0.377 -0.195 0.598 -0.598 0.637c 0.286 0.325 0.715 0.494 1.274 0.494c 0.806 0 1.3 -0.741 1.3 -1.586v -0.429c -1.014 -0.065 -1.781 -0.221 -2.314 -0.468c -0.871 -0.403 -1.313 -0.975 -1.313 -1.716c 0 -0.351 0.13 -0.624 0.377 -0.845c 0.416 -0.377 0.988 -0.572 1.716 -0.572c 0.767 0 1.313 0.325 1.651 0.988c 0.091 -0.481 0.455 -0.923 1.014 -0.923c 0.689 0 1.105 0.559 1.105 1.274Z m -3.679 -0.949c -0.598 0 -1.092 0.442 -1.092 1.04c 0 1.209 1.248 1.742 2.535 1.794v -1.235c 0 -0.884 -0.585 -1.599 -1.443 -1.599Z "/></symbol><symbol id="gAA15FA55B6D99ABF04E317BC87D5459D" overflow="visible"><path d="M 0 0m 4.316 1.638v 0.78h -0.416v -0.754c 0 -0.65 -0.234 -1.378 -0.806 -1.378c -0.533 0 -0.793 0.442 -0.793 1.326v 3.523h 1.807v 0.494h -1.807v 2.366h -0.416c -0.013 -0.429 -0.052 -0.806 -0.143 -1.144c -0.221 -0.858 -0.728 -1.3 -1.495 -1.339v -0.377h 1.079v -3.497c 0 -0.767 0.234 -1.261 0.689 -1.508c 0.351 -0.182 0.676 -0.273 1.001 -0.273c 0.858 0 1.3 0.858 1.3 1.781Z "/></symbol><symbol id="g8E97D087849068FDB678D73E5CECDEE2" overflow="visible"><path d="M 0 0m 5.135 4.056c 0.741 0 1.404 0.208 1.989 0.624c 0.663 0.468 0.988 1.053 0.988 1.755c 0 0.741 -0.338 1.352 -1.014 1.82c -0.598 0.416 -1.287 0.624 -2.067 0.624h -4.576v -0.507h 0.364c 0.455 0 0.728 -0.039 0.819 -0.104c 0.091 -0.065 0.143 -0.208 0.143 -0.442v -6.773c 0 -0.234 -0.052 -0.39 -0.143 -0.455c -0.091 -0.065 -0.364 -0.091 -0.819 -0.091h -0.364v -0.507c 0.338 0.026 0.988 0.039 1.937 0.039c 0.962 0 1.612 -0.013 1.95 -0.039v 0.507h -0.364c -0.455 0 -0.728 0.026 -0.819 0.091c -0.091 0.065 -0.143 0.221 -0.143 0.455v 3.003Z m -1.573 4.316h 1.144c 0.377 0 0.702 -0.052 0.975 -0.143c 0.741 -0.273 1.001 -0.819 1.001 -1.794c 0 -0.364 -0.039 -0.676 -0.13 -0.936c -0.221 -0.65 -0.923 -1.001 -1.846 -1.001h -1.729v 3.419c 0 0.468 0.078 0.455 0.585 0.455Z "/></symbol><symbol id="g3BE14B656A783D87D3540BF1AAF22AA9" overflow="visible"><path d="M 0 0m 6.279 1.183v 0.767h -0.416v -0.767c 0 -0.507 -0.143 -0.767 -0.416 -0.767c -0.26 0 -0.416 0.325 -0.416 0.585v 2.561c 0 0.455 -0.052 0.793 -0.143 1.027c -0.312 0.767 -1.209 1.235 -2.119 1.235c -1.001 0 -1.989 -0.559 -1.989 -1.495c 0 -0.429 0.221 -0.65 0.65 -0.65c 0.429 0 0.637 0.208 0.637 0.637c 0 0.377 -0.195 0.598 -0.598 0.637c 0.286 0.325 0.715 0.494 1.274 0.494c 0.806 0 1.3 -0.741 1.3 -1.586v -0.429c -1.014 -0.065 -1.781 -0.221 -2.314 -0.468c -0.871 -0.403 -1.313 -0.962 -1.313 -1.703c 0 -0.338 0.13 -0.624 0.377 -0.845c 0.416 -0.377 0.988 -0.559 1.716 -0.559c 0.767 0 1.313 0.325 1.651 0.988c 0.091 -0.494 0.455 -0.923 1.014 -0.923c 0.689 0 1.105 0.546 1.105 1.261Z m -3.679 -0.949c -0.598 0 -1.092 0.442 -1.092 1.04c 0 1.209 1.261 1.729 2.535 1.794v -1.235c 0 -0.871 -0.572 -1.599 -1.443 -1.599Z "/></symbol><symbol id="g2F93E6EEEE2061842AA37F49EEA2F1A2" overflow="visible"><path d="M 0 0m 1.014 -3.185c 0.78 0.598 1.43 1.482 1.963 2.665c 0.507 1.131 0.767 2.197 0.767 3.224v 1.092c 0 1.027 -0.26 2.093 -0.767 3.224c -0.533 1.183 -1.183 2.067 -1.963 2.665c -0.039 0.026 -0.078 0.039 -0.091 0.039c -0.117 0 -0.182 -0.065 -0.182 -0.182c 0 -0.052 0.026 -0.104 0.065 -0.143c 0.676 -0.52 1.222 -1.378 1.625 -2.561c 0.351 -1.027 0.533 -2.041 0.533 -3.042v -1.092c 0 -1.001 -0.182 -2.015 -0.533 -3.042c -0.403 -1.183 -0.949 -2.041 -1.625 -2.561c -0.039 -0.052 -0.065 -0.104 -0.065 -0.143c 0 -0.117 0.065 -0.182 0.182 -0.182c 0.013 0 0.052 0.013 0.091 0.039Z "/></symbol><symbol id="g9B543B57F718853EF8F95EF155B6CF69" overflow="visible"><path d="M 0 0m 9.074 3.51h -8.034c -0.208 0 -0.312 -0.091 -0.312 -0.26c 0 -0.169 0.104 -0.26 0.312 -0.26h 8.034c 0.208 0 0.312 0.091 0.312 0.26c 0 0.156 -0.156 0.26 -0.312 0.26Z "/></symbol><symbol id="gE7CB49ADEF0BFBE23A52AF8F331DEE76" overflow="visible"><path d="M 0 0m 3.3345 3.185c 0.2405 0 0.364 0.13 0.364 0.3835c 0 0.5265 -0.4745 0.7605 -1.04 0.7605c -0.6175 0 -1.1245 -0.221 -1.5275 -0.663c -0.403 -0.442 -0.611 -0.9815 -0.611 -1.599c 0 -1.2545 0.5265 -2.21 1.7095 -2.21c 0.5265 0 0.8385 0.156 1.17 0.4225c 0.3315 0.2795 0.5005 0.637 0.5005 1.0595c 0 0.3965 -0.156 0.741 -0.468 1.0205c -0.325 0.2925 -0.7085 0.442 -1.1505 0.442c -0.4355 0 -0.7735 -0.195 -1.027 -0.5785c 0.0195 0.4875 0.0975 0.858 0.234 1.118c 0.208 0.3835 0.6175 0.6955 1.1765 0.6955c 0.2275 0 0.4095 -0.0455 0.546 -0.1365c -0.1625 -0.065 -0.2405 -0.182 -0.2405 -0.351c 0 -0.208 0.156 -0.364 0.364 -0.364Z m -1.066 -0.6565c 0.299 0 0.533 -0.1105 0.7085 -0.3315c 0.13 -0.1625 0.195 -0.442 0.195 -0.8515c 0 -0.273 -0.0195 -0.468 -0.0585 -0.5915c -0.1235 -0.39 -0.4225 -0.585 -0.884 -0.585c -0.6435 0 -0.962 0.4355 -0.962 1.313c 0 0.5785 0.4225 1.0465 1.001 1.0465Z "/></symbol><symbol id="gEB9B079EF07FFCCA69ED7A9B1F1ABEB" overflow="visible"><path d="M 0 0m 4.862 -0.143l 1.989 0.143v 0.494c -0.468 0 -0.741 0.026 -0.845 0.104c -0.104 0.078 -0.156 0.273 -0.156 0.572v 7.852l -1.937 -0.143v -0.494c 0.455 0 0.741 -0.039 0.845 -0.117c 0.104 -0.078 0.143 -0.26 0.143 -0.559v -2.639c -0.416 0.481 -0.936 0.715 -1.56 0.715c -0.806 0 -1.495 -0.286 -2.054 -0.871c -0.559 -0.585 -0.845 -1.287 -0.845 -2.106c 0 -0.793 0.26 -1.482 0.793 -2.067c 0.533 -0.585 1.183 -0.884 1.976 -0.884c 0.663 0 1.222 0.247 1.651 0.754Z m -1.469 5.538c 0.559 0 1.014 -0.247 1.339 -0.741c 0.091 -0.143 0.13 -0.286 0.13 -0.455v -2.626c 0 -0.169 -0.039 -0.312 -0.13 -0.455c -0.364 -0.585 -0.858 -0.871 -1.469 -0.871c -0.533 0 -0.962 0.26 -1.3 0.793c -0.234 0.39 -0.351 0.975 -0.351 1.755c 0 1.417 0.481 2.6 1.781 2.6Z "/></symbol><symbol id="gAD96C2EEE7EE2AE3951947EAB253D6C8" overflow="visible"><path d="M 0 0m 0.143 2.431h 3.445v 0.754h -3.445Z "/></symbol></defs></svg>