<svg viewBox="0 0 284.834766667 39.7943" width="284.834766667pt" height="39.7943pt" xmlns="http://www.w3.org/2000/svg" xmlns:xlink="http://www.w3.org/1999/xlink" xmlns:h5="http://www.w3.org/1999/xhtml"><g transform="matrix(1 0 0 -1 6.5 22.009)"><use xlink:href="#gA7C36109E42D4F0EB4F28B48DBFDEDEE" x="0" y="0" fill="#e6edf3" fill-rule="nonzero"/></g><g transform="matrix(1 0 0 -1 20.277111111 22.009)"><use xlink:href="#g13AFF74D87C474CFAF661EEAD0458F8B" x="0" y="0" fill="#e6edf3" fill-rule="nonzero"/></g><g transform="matrix(1 0 0 -1 34.002222222 22.009)"><use xlink:href="#g9B543B57F718853EF8F95EF155B6CF69" x="0" y="0" fill="#e6edf3" fill-rule="nonzero"/></g><g transform="matrix(1 0 0 -1 60.726972222 13.208)"><use xlink:href="#gECD202B73668A69AC8A33649F9D5BDE0" x="0" y="0" fill="#e6edf3" fill-rule="nonzero"/></g><g transform="matrix(1 0 0 -1 68.448972222 13.208)"><use xlink:href="#g1BB2B5D3B118FC32761E8AAB6F68EABA" x="0" y="0" fill="#e6edf3" fill-rule="nonzero"/></g><g transform="matrix(1 0 0 -1 45.416222222 30.927)"><use xlink:href="#g2D7122AD31FABF41BED931716B883F58" x="0" y="0" fill="#e6edf3" fill-rule="nonzero"/></g><g transform="matrix(1 0 0 -1 50.473222222 30.927)"><use xlink:href="#gECD202B73668A69AC8A33649F9D5BDE0" x="0" y="0" fill="#e6edf3" fill-rule="nonzero"/></g><g transform="matrix(1 0 0 -1 58.195222222 30.927)"><use xlink:href="#g53251C539233983FE9FC826CA7FBAC4A" x="0" y="0" fill="#e6edf3" fill-rule="nonzero"/></g><g transform="matrix(1 0 0 -1 68.556222222 30.927)"><use xlink:href="#g2F93E6EEEE2061842AA37F49EEA2F1A2" x="0" y="0" fill="#e6edf3" fill-rule="nonzero"/></g><g transform="matrix(1 0 0 -1 73.613222222 34.138)"><use xlink:href="#g93B96925AF20254D7D82B92F2475B654" x="0" y="0" fill="#e6edf3" fill-rule="nonzero"/></g><g transform="matrix(1 0 0 -1 81.057022222 34.138)"><use xlink:href="#gBEEE2912D783E659636489D0C0BC01CB" x="0" y="0" fill="#e6edf3" fill-rule="nonzero"/></g><g transform="matrix(1 0 0 -1 84.141922222 34.138)"><use xlink:href="#g528A59098A0D3781770F15CFBE29D3CD" x="0" y="0" fill="#e6edf3" fill-rule="nonzero"/></g><path fill="none" stroke="#e6edf3" stroke-width="0.624" stroke-linecap="butt" stroke-linejoin="miter" stroke-miterlimit="4" transform="translate(45.416222222 18.759)" d="M 0 0h 48.4445"/><g transform="matrix(1 0 0 -1 98.771833333 22.009)"><use xlink:href="#g13AFF74D87C474CFAF661EEAD0458F8B" x="0" y="0" fill="#e6edf3" fill-rule="nonzero"/></g><g transform="matrix(1 0 0 -1 113.796944444 13.208)"><use xlink:href="#gACA2FE1DD062579B79E6E19150F5B03F" x="0" y="0" fill="#e6edf3" fill-rule="nonzero"/></g><g transform="matrix(1 0 0 -1 125.613944444 13.208)"><use xlink:href="#gCD18A55F4CC2CA429D96672C565B9565" x="0" y="0" fill="#e6edf3" fill-rule="nonzero"/></g><g transform="matrix(1 0 0 -1 132.386944444 16.419)"><use xlink:href="#gC7B20184179011BBC954B5E7CD84FB69" x="0" y="0" fill="#e6edf3" fill-rule="nonzero"/></g><g transform="matrix(1 0 0 -1 140.968244444 13.208)"><use xlink:href="#g2D1FD5FA7721AD843D67732819992226" x="0" y="0" fill="#e6edf3" fill-rule="nonzero"/></g><g transform="matrix(1 0 0 -1 126.960094444 30.927)"><use xlink:href="#g53251C539233983FE9FC826CA7FBAC4A" x="0" y="0" fill="#e6edf3" fill-rule="nonzero"/></g><path fill="none" stroke="#e6edf3" stroke-width="0.624" stroke-linecap="butt" stroke-linejoin="miter" stroke-miterlimit="4" transform="translate(113.796944444 18.759)" d="M 0 0h 36.6873"/><g transform="matrix(1 0 0 -1 177.784244444 22.009)"><use xlink:href="#g7AF10AFFE59D420B8F89A40B982EF05" x="0" y="0" fill="#e6edf3" fill-rule="nonzero"/></g><g transform="matrix(1 0 0 -1 203.784244444 22.009)"><use xlink:href="#gA7C36109E42D4F0EB4F28B48DBFDEDEE" x="0" y="0" fill="#e6edf3" fill-rule="nonzero"/></g><g transform="matrix(1 0 0 -1 213.950244444 22.009)"><use xlink:href="#g53251C539233983FE9FC826CA7FBAC4A" x="0" y="0" fill="#e6edf3" fill-rule="nonzero"/></g><g transform="matrix(1 0 0 -1 227.922355556 22.009)"><use xlink:href="#g13AFF74D87C474CFAF661EEAD0458F8B" x="0" y="0" fill="#e6edf3" fill-rule="nonzero"/></g><g transform="matrix(1 0 0 -1 241.647466667 22.009)"><use xlink:href="#gACA2FE1DD062579B79E6E19150F5B03F" x="0" y="0" fill="#e6edf3" fill-rule="nonzero"/></g><g transform="matrix(1 0 0 -1 253.464466667 22.009)"><use xlink:href="#gCD18A55F4CC2CA429D96672C565B9565" x="0" y="0" fill="#e6edf3" fill-rule="nonzero"/></g><g transform="matrix(1 0 0 -1 260.237466667 25.22)"><use xlink:href="#gC7B20184179011BBC954B5E7CD84FB69" x="0" y="0" fill="#e6edf3" fill-rule="nonzero"/></g><g transform="matrix(1 0 0 -1 268.818766667 22.009)"><use xlink:href="#g2D1FD5FA7721AD843D67732819992226" x="0" y="0" fill="#e6edf3" fill-rule="nonzero"/></g><defs><symbol id="gA7C36109E42D4F0EB4F28B48DBFDEDEE" overflow="visible"><path d="M 0 0m 7.215 8.879h -4.16c -0.299 0 -0.442 -0.013 -0.442 -0.299c 0 -0.143 0.143 -0.208 0.429 -0.208c 0.26 0 0.78 0.039 0.78 -0.169c 0 -0.026 -0.013 -0.104 -0.052 -0.234l -1.716 -6.903c -0.078 -0.286 -0.208 -0.455 -0.39 -0.52c -0.091 -0.026 -0.325 -0.039 -0.728 -0.039c -0.286 0 -0.416 -0.026 -0.416 -0.299c 0 -0.143 0.078 -0.208 0.247 -0.208l 1.625 0.039l 0.832 -0.013c 0.143 0 0.663 -0.026 0.832 -0.026c 0.208 0 0.312 0.104 0.312 0.312c 0 0.13 -0.143 0.195 -0.416 0.195c -0.52 0 -0.78 0.052 -0.78 0.169c 0 0 0.013 0.039 0.039 0.208l 0.78 3.172h 2.145c 0.845 0 1.651 0.26 2.405 0.767c 0.845 0.559 1.261 1.248 1.261 2.067c 0 1.287 -1.222 1.989 -2.587 1.989Z m -0.403 -0.507c 1.131 0 1.69 -0.39 1.69 -1.17c 0 -0.728 -0.364 -1.703 -0.741 -2.041c -0.494 -0.442 -1.144 -0.663 -1.95 -0.663h -1.742l 0.858 3.432c 0.104 0.442 0.104 0.442 0.65 0.442Z "/></symbol><symbol id="g13AFF74D87C474CFAF661EEAD0458F8B" overflow="visible"><path d="M 0 0m 9.074 4.771h -8.034c -0.208 0 -0.312 -0.104 -0.312 -0.299c 0 -0.195 0.104 -0.299 0.312 -0.299h 8.034c 0.208 0 0.312 0.104 0.312 0.299c 0 0.156 -0.143 0.299 -0.312 0.299Z m 0 -2.444h -8.034c -0.208 0 -0.312 -0.104 -0.312 -0.299c 0 -0.195 0.104 -0.299 0.312 -0.299h 8.034c 0.208 0 0.312 0.104 0.312 0.299c 0 0.169 -0.143 0.299 -0.312 0.299Z "/></symbol><symbol id="g9B543B57F718853EF8F95EF155B6CF69" overflow="visible"><path d="M 0 0m 9.074 3.51h -8.034c -0.208 0 -0.312 -0.091 -0.312 -0.26c 0 -0.169 0.104 -0.26 0.312 -0.26h 8.034c 0.208 0 0.312 0.091 0.312 0.26c 0 0.156 -0.156 0.26 -0.312 0.26Z "/></symbol><symbol id="gECD202B73668A69AC8A33649F9D5BDE0" overflow="visible"><path d="M 0 0m 3.328 7.462c 0 0.299 -0.195 0.468 -0.572 0.494c 0.403 0.611 0.988 0.923 1.755 0.923c 1.196 0 1.781 -1.001 1.781 -2.275c 0 -0.533 -0.104 -1.183 -0.299 -1.976c -0.221 0.897 -0.78 1.352 -1.651 1.352c -1.001 0 -1.872 -0.416 -2.652 -1.222c -0.78 -0.806 -1.17 -1.703 -1.17 -2.704c 0 -0.481 0.169 -0.975 0.507 -1.469c 0.403 -0.585 1.027 -0.871 1.898 -0.871c 1.17 0 2.145 0.546 2.912 1.651c 0.728 1.066 1.521 2.912 1.521 4.563c 0 0.923 -0.234 1.703 -0.702 2.327c -0.507 0.702 -1.222 1.053 -2.119 1.053c -0.871 0 -1.521 -0.299 -1.963 -0.91c -0.351 -0.481 -0.533 -0.871 -0.533 -1.17c 0 -0.338 0.182 -0.507 0.546 -0.507c 0.39 0 0.741 0.351 0.741 0.741Z m 2.379 -3.523c 0 -0.819 -0.247 -1.625 -0.754 -2.418c -0.559 -0.897 -1.222 -1.339 -1.989 -1.339c -0.858 0 -1.352 0.559 -1.352 1.391c 0 0.364 0.091 0.871 0.273 1.521c 0.182 0.65 0.364 1.105 0.559 1.378c 0.52 0.741 1.157 1.118 1.898 1.118c 0.949 0 1.365 -0.702 1.365 -1.651Z "/></symbol><symbol id="g1BB2B5D3B118FC32761E8AAB6F68EABA" overflow="visible"><path d="M 0 0m 2.587 8.528c 0 -0.13 0.143 -0.195 0.416 -0.195c 0.52 0 0.78 -0.052 0.78 -0.169c 0 -0.039 -0.026 -0.13 -0.065 -0.299l -1.69 -6.799c -0.078 -0.286 -0.208 -0.455 -0.39 -0.52c -0.091 -0.026 -0.325 -0.039 -0.728 -0.039c -0.286 0 -0.416 -0.026 -0.416 -0.299c 0 -0.143 0.078 -0.208 0.247 -0.208l 1.69 0.039l 1.924 -0.039c 0.208 0 0.312 0.104 0.312 0.299c 0 0.221 -0.143 0.208 -0.481 0.208c -0.572 0 -0.897 0.026 -0.975 0.091c -0.039 0.013 -0.052 0.065 -0.052 0.13l 0.832 3.445h 1.209c 0.598 0 1.014 -0.026 1.014 -0.52c 0 -0.169 -0.026 -0.377 -0.091 -0.624c -0.013 -0.039 -0.026 -0.091 -0.039 -0.143c 0 -0.143 0.065 -0.208 0.208 -0.208c 0.065 0.013 0.156 0.104 0.247 0.299l 0.702 2.795c 0.026 0.104 0.039 0.182 0.039 0.221c -0.039 0.117 -0.117 0.182 -0.208 0.182c -0.104 0 -0.182 -0.104 -0.234 -0.299c -0.13 -0.494 -0.312 -0.806 -0.52 -0.962c -0.208 -0.156 -0.572 -0.234 -1.092 -0.234h -1.105l 0.806 3.198c 0.104 0.442 0.104 0.455 0.65 0.455h 1.69c 1.261 0 1.833 -0.195 1.833 -1.352c 0 -0.26 -0.013 -0.494 -0.039 -0.689c -0.013 -0.143 -0.026 -0.221 -0.026 -0.234c 0 -0.143 0.065 -0.208 0.195 -0.208c 0.13 0 0.208 0.117 0.234 0.364l 0.26 2.223c 0.039 0.364 -0.052 0.403 -0.403 0.403h -6.292c -0.299 0 -0.442 -0.013 -0.442 -0.312Z "/></symbol><symbol id="g2D7122AD31FABF41BED931716B883F58" overflow="visible"><path d="M 0 0m 4.134 -3.224c 0.117 0 0.182 0.065 0.182 0.182c 0 0.039 -0.026 0.091 -0.065 0.143c -0.676 0.52 -1.222 1.378 -1.625 2.561c -0.351 1.027 -0.533 2.041 -0.533 3.042v 1.092c 0 1.001 0.182 2.015 0.533 3.042c 0.403 1.183 0.949 2.041 1.625 2.561c 0.039 0.039 0.065 0.091 0.065 0.143c 0 0.117 -0.065 0.182 -0.182 0.182c -0.013 0 -0.052 -0.013 -0.091 -0.039c -0.78 -0.598 -1.43 -1.482 -1.963 -2.665c -0.507 -1.131 -0.767 -2.197 -0.767 -3.224v -1.092c 0 -1.027 0.26 -2.093 0.767 -3.224c 0.533 -1.183 1.183 -2.067 1.963 -2.665c 0.039 -0.026 0.078 -0.039 0.091 -0.039Z "/></symbol><symbol id="g53251C539233983FE9FC826CA7FBAC4A" overflow="visible"><path d="M 0 0m 8.723 8.84c -0.247 0 -1.027 0.039 -1.274 0.039c -0.195 0 -0.299 -0.104 -0.299 -0.299c 0 -0.13 0.091 -0.195 0.26 -0.208c 0.364 -0.013 0.546 -0.143 0.546 -0.364c 0 -0.117 -0.065 -0.273 -0.182 -0.468l -3.874 -6.149l -0.858 6.656c 0 0.221 0.273 0.325 0.832 0.325c 0.26 0 0.377 0.091 0.377 0.312c 0 0.13 -0.078 0.195 -0.234 0.195c -0.286 0 -1.3 -0.039 -1.586 -0.039c -0.26 0 -1.144 0.039 -1.404 0.039c -0.195 0 -0.299 -0.104 -0.299 -0.299c 0 -0.143 0.13 -0.208 0.377 -0.208c 0.221 0 0.377 -0.026 0.481 -0.052c 0.208 -0.065 0.195 -0.091 0.234 -0.338l 1.014 -7.93c 0.039 -0.221 0.143 -0.338 0.312 -0.338c 0.169 0 0.299 0.091 0.403 0.26l 4.628 7.358c 0.299 0.468 0.585 0.767 0.871 0.884c 0.195 0.091 0.442 0.143 0.728 0.156c 0.143 0.013 0.208 0.104 0.221 0.299c 0.013 0.143 -0.065 0.208 -0.221 0.208c -0.195 0 -0.858 -0.039 -1.053 -0.039Z "/></symbol><symbol id="g2F93E6EEEE2061842AA37F49EEA2F1A2" overflow="visible"><path d="M 0 0m 1.014 -3.185c 0.78 0.598 1.43 1.482 1.963 2.665c 0.507 1.131 0.767 2.197 0.767 3.224v 1.092c 0 1.027 -0.26 2.093 -0.767 3.224c -0.533 1.183 -1.183 2.067 -1.963 2.665c -0.039 0.026 -0.078 0.039 -0.091 0.039c -0.117 0 -0.182 -0.065 -0.182 -0.182c 0 -0.052 0.026 -0.104 0.065 -0.143c 0.676 -0.52 1.222 -1.378 1.625 -2.561c 0.351 -1.027 0.533 -2.041 0.533 -3.042v -1.092c 0 -1.001 -0.182 -2.015 -0.533 -3.042c -0.403 -1.183 -0.949 -2.041 -1.625 -2.561c -0.039 -0.052 -0.065 -0.104 -0.065 -0.143c 0 -0.117 0.065 -0.182 0.182 -0.182c 0.013 0 0.052 0.013 0.091 0.039Z "/></symbol><symbol id="g93B96925AF20254D7D82B92F2475B654" overflow="visible"><path d="M 0 0m 3.5763 5.7057l -1.2194 -4.914c -0.0364 -0.1365 -0.0728 -0.2184 -0.1001 -0.2548c -0.0819 -0.1001 -0.3913 -0.1456 -0.9191 -0.1456c -0.3003 0 -0.4459 0.0182 -0.4459 -0.2275c 0 -0.1092 0.0637 -0.1638 0.1911 -0.1638c 0.4914 0 1.0374 0.0455 1.547 0.0364l 0.8099 -0.0091c 0.2366 0 0.5915 -0.0091 0.7644 -0.0273c 0.1547 0 0.2366 0.0819 0.2366 0.2366c 0 0.0819 -0.0455 0.1365 -0.1456 0.1547h -0.2548c -0.4459 0 -0.7098 0.0182 -0.7735 0.0637c -0.0273 0.0182 -0.0364 0.0455 -0.0364 0.091c 0 0.0455 0.0091 0.1092 0.0273 0.2002l 1.1921 4.7229c 0.0637 0.2093 0.0455 0.2639 0.2457 0.2821c 0.0273 0.0091 0.2002 0.0091 0.5369 0.0091c 0.5187 0 0.8554 -0.0273 1.001 -0.0728c 0.2912 -0.1001 0.4004 -0.2366 0.4004 -0.6825c 0 -0.2457 -0.0273 -0.5187 -0.0819 -0.819c 0 -0.1183 0.0637 -0.1729 0.1911 -0.1729c 0.0455 0 0.091 0.0091 0.1183 0.0364c 0.0455 0.091 0.0728 0.1638 0.0819 0.2184l 0.2457 1.7199c 0 0.1092 -0.1001 0.1638 -0.3094 0.1638h -5.5328c -0.2548 0 -0.273 -0.0182 -0.3367 -0.2093l -0.5733 -1.5925c -0.0091 -0.0455 -0.0455 -0.1456 -0.0455 -0.1729c 0 -0.1092 0.0637 -0.1638 0.1911 -0.1638c 0.091 0 0.1638 0.0819 0.2184 0.2366c 0.3094 0.8463 0.5096 1.3832 1.4469 1.4924c 0.1001 0.0091 0.3367 0.0182 0.7098 0.0182h 0.3822c 0.1638 0 0.2366 0.0182 0.2366 -0.0546Z "/></symbol><symbol id="gBEEE2912D783E659636489D0C0BC01CB" overflow="visible"><path d="M 0 0m 1.5379 1.0465c -0.2912 0 -0.5187 -0.2366 -0.5187 -0.5369c 0 -0.3185 0.2184 -0.5551 0.5278 -0.5551c 0.1183 0 0.2275 0.0364 0.3185 0.1001c -0.0182 -0.6006 -0.2366 -1.1102 -0.6552 -1.5197c -0.0455 -0.0455 -0.0728 -0.0819 -0.0728 -0.1274c 0 -0.1092 0.0546 -0.1638 0.1547 -0.1638c 0.0637 0 0.1547 0.0728 0.2912 0.2184c 0.3003 0.3276 0.5915 0.9919 0.5915 1.5834c 0 0.5005 -0.182 1.001 -0.637 1.001Z "/></symbol><symbol id="g528A59098A0D3781770F15CFBE29D3CD" overflow="visible"><path d="M 0 0m 7.6258 6.1789c -0.182 0 -0.7735 0.0364 -0.9555 0.0364c -0.1456 0 -0.2184 -0.0819 -0.2184 -0.2366c 0 -0.1001 0.0819 -0.1547 0.2366 -0.1547c 0.3549 -0.0091 0.5369 -0.1183 0.5369 -0.3367c 0 -0.0455 -0.0091 -0.1092 -0.0273 -0.2093l -0.9646 -3.822l -2.2477 4.5864c -0.0728 0.1547 -0.1183 0.1729 -0.3367 0.1729h -1.2376c -0.2093 0 -0.3185 -0.0273 -0.3185 -0.2366c 0 -0.1001 0.1092 -0.1547 0.3276 -0.1547c 0.2184 0 0.3913 -0.0182 0.5369 -0.0455l -1.2012 -4.7684c -0.1183 -0.455 -0.3549 -0.5915 -0.9009 -0.6188c -0.1547 0 -0.2275 -0.0728 -0.2275 -0.2184c 0 -0.1183 0.0546 -0.1729 0.1729 -0.1729c 0.1729 0 0.7644 0.0364 0.9373 0.0364c 0.182 0 0.7735 -0.0364 0.9555 -0.0364c 0.1456 0 0.2184 0.0728 0.2184 0.2275c 0 0.1092 -0.0819 0.1638 -0.2457 0.1638c -0.3549 0.0091 -0.5278 0.0637 -0.5278 0.3458c 0 0.0455 0.0091 0.1183 0.0273 0.2184l 1.1375 4.5045l 2.5844 -5.2871c 0.0637 -0.1183 0.1365 -0.1729 0.2366 -0.1729c 0.1183 0 0.2184 0.0728 0.2184 0.2184l 1.2558 4.9686c 0.1183 0.4641 0.3458 0.6279 0.9191 0.637c 0.1456 0 0.2184 0.0728 0.2184 0.2275c 0 0.1092 -0.0546 0.1638 -0.1729 0.1638c -0.1729 0 -0.7644 -0.0364 -0.9373 -0.0364Z "/></symbol><symbol id="gACA2FE1DD062579B79E6E19150F5B03F" overflow="visible"><path d="M 0 0m 11.232 8.879c -0.247 0 -1.053 -0.039 -1.3 -0.039c -0.247 0 -1.066 0.039 -1.313 0.039c -0.195 0 -0.286 -0.104 -0.286 -0.312c 0 -0.117 0.091 -0.182 0.286 -0.195c 0.546 0 0.819 -0.169 0.819 -0.507c 0 -0.078 -0.013 -0.169 -0.026 -0.26l -1.404 -5.564l -2.795 6.565c -0.104 0.247 -0.13 0.273 -0.455 0.273h -1.729c -0.312 0 -0.429 -0.026 -0.429 -0.312c 0 -0.13 0.143 -0.195 0.416 -0.195c 0.546 0 0.819 -0.013 0.832 -0.052l -1.729 -6.89c -0.117 -0.507 -0.416 -0.793 -0.884 -0.884c -0.338 -0.039 -0.728 0.013 -0.728 -0.351c 0 -0.13 0.078 -0.195 0.221 -0.195c 0.234 0 1.04 0.039 1.287 0.039c 0.247 0 1.079 -0.039 1.326 -0.039c 0.195 0 0.286 0.104 0.286 0.312c 0 0.117 -0.104 0.182 -0.312 0.195c -0.533 0.013 -0.793 0.182 -0.793 0.507c 0 0.065 0.013 0.156 0.039 0.286l 1.677 6.643l 3.25 -7.67c 0.078 -0.182 0.182 -0.273 0.299 -0.273c 0.117 0 0.195 0.104 0.247 0.312l 1.807 7.15c 0.169 0.663 0.533 0.897 1.339 0.91c 0.182 0.013 0.273 0.117 0.273 0.325c -0.039 0.117 -0.052 0.182 -0.221 0.182Z "/></symbol><symbol id="gCD18A55F4CC2CA429D96672C565B9565" overflow="visible"><path d="M 0 0m 5.317 4.589c 0 -0.338 0.182 -0.507 0.533 -0.507c 0.455 0 0.754 0.403 0.754 0.845c 0 0.507 -0.416 0.858 -0.923 0.858c -0.585 0 -1.209 -0.39 -1.898 -1.157c -0.533 -0.585 -0.962 -0.962 -1.313 -1.131l 1.313 5.33c -0.026 0.117 -0.052 0.195 -0.221 0.195c -0.416 0 -1.404 -0.117 -1.56 -0.13c -0.195 -0.026 -0.286 -0.117 -0.286 -0.312c 0 -0.13 0.117 -0.195 0.351 -0.195c 0.247 0 0.585 0.013 0.585 -0.169l -1.885 -7.657c -0.039 -0.143 -0.052 -0.234 -0.052 -0.286c 0 -0.273 0.143 -0.416 0.416 -0.416c 0.221 0 0.39 0.104 0.481 0.299c 0.065 0.117 0.299 1.04 0.715 2.782c 0.676 -0.065 1.391 -0.39 1.391 -1.04c 0 -0.195 -0.091 -0.585 -0.091 -0.715c 0 -0.741 0.481 -1.326 1.222 -1.326c 0.754 0 1.261 0.676 1.521 2.028c 0 0.117 -0.065 0.182 -0.195 0.182c -0.117 0 -0.195 -0.091 -0.234 -0.273c -0.286 -1.027 -0.637 -1.547 -1.066 -1.547c -0.234 0 -0.351 0.182 -0.351 0.546c 0 0.208 0.156 0.91 0.156 1.118c 0 0.741 -0.598 1.196 -1.807 1.378c 0.299 0.208 0.637 0.507 1.001 0.897c 0.364 0.39 0.624 0.637 0.793 0.78c 0.351 0.286 0.689 0.429 0.988 0.429c 0.13 0 0.234 -0.026 0.312 -0.078c -0.351 -0.065 -0.65 -0.39 -0.65 -0.728Z "/></symbol><symbol id="gC7B20184179011BBC954B5E7CD84FB69" overflow="visible"><path d="M 0 0m 7.6167 4.9049c 0 0.4368 -0.2184 0.7735 -0.6552 1.0101c -0.3549 0.2002 -0.7735 0.3003 -1.2467 0.3003h -3.276c -0.2093 0 -0.3276 -0.0273 -0.3276 -0.2366c 0 -0.1001 0.0637 -0.1456 0.1911 -0.1547l 0.4732 -0.0182c 0.1183 -0.0091 0.1729 0 0.1729 -0.091l -1.2285 -4.9686c -0.0455 -0.182 -0.1365 -0.2912 -0.273 -0.3367c -0.0455 -0.0091 -0.2002 -0.0182 -0.4823 -0.0182h -0.1547c -0.1001 -0.0091 -0.1547 -0.0819 -0.1547 -0.2184c 0 -0.1547 0.1183 -0.1729 0.3094 -0.1729h 3.4853c 0.6097 0 1.1921 0.1729 1.7472 0.5096c 0.6461 0.3913 0.9646 0.8736 0.9646 1.4469c 0 0.728 -0.6916 1.1739 -1.3741 1.3013c 0.8099 0.182 1.8291 0.7826 1.8291 1.6471Z m -0.9555 0.0091c 0 -0.455 -0.2275 -0.8281 -0.6734 -1.1284c -0.4004 -0.2639 -0.8372 -0.3913 -1.3195 -0.3913h -1.4287l 0.5369 2.1476c 0.0728 0.273 0.0728 0.2821 0.4277 0.2821h 1.365c 0.6279 0 1.092 -0.3185 1.092 -0.91Z m -0.4823 -2.8938c 0 -0.4732 -0.2184 -0.8736 -0.6461 -1.1921c -0.3913 -0.2912 -0.8281 -0.4368 -1.3195 -0.4368h -1.4469c -0.1729 0 -0.2548 -0.0182 -0.2548 0.0546l 0.6461 2.6208h 1.8837c 0.6643 0 1.1375 -0.3822 1.1375 -1.0465Z "/></symbol><symbol id="g2D1FD5FA7721AD843D67732819992226" overflow="visible"><path d="M 0 0m 4.472 8.203c 0 -0.039 -0.013 -0.13 -0.052 -0.26l -1.716 -6.864c -0.052 -0.195 -0.104 -0.312 -0.143 -0.364c -0.117 -0.143 -0.559 -0.208 -1.339 -0.208c -0.403 0 -0.585 0.039 -0.585 -0.299c 0 -0.143 0.091 -0.208 0.26 -0.208c 0.663 0 1.599 0.052 2.158 0.039l 1.066 -0.013c 0.182 0 0.897 -0.026 1.118 -0.026c 0.221 0 0.325 0.104 0.325 0.312c 0 0.13 -0.156 0.195 -0.481 0.195c -0.676 0 -1.066 0.026 -1.183 0.091c -0.039 0.026 -0.065 0.078 -0.065 0.156l 1.755 7.085c 0.039 0.182 0.078 0.299 0.117 0.338c 0.052 0.078 0.364 0.117 0.936 0.117c 0.715 0 1.209 -0.052 1.456 -0.169c 0.247 -0.117 0.377 -0.39 0.377 -0.832c 0 -0.234 -0.039 -0.572 -0.104 -1.014c -0.026 -0.104 -0.039 -0.182 -0.039 -0.247c 0 -0.143 0.065 -0.221 0.208 -0.221c 0.117 0 0.195 0.117 0.234 0.338l 0.351 2.236c 0.013 0.065 0.026 0.143 0.026 0.221c 0 0.13 -0.13 0.195 -0.403 0.195h -7.124c -0.338 0 -0.364 -0.039 -0.468 -0.286l -0.767 -2.262c -0.039 -0.117 -0.065 -0.195 -0.078 -0.247c 0 -0.13 0.065 -0.195 0.208 -0.195c 0.104 0 0.195 0.104 0.26 0.299c 0.325 0.949 0.65 1.534 0.949 1.781c 0.338 0.273 0.988 0.403 1.937 0.403h 0.507c 0.143 0 0.299 0.013 0.299 -0.091Z "/></symbol><symbol id="g7AF10AFFE59D420B8F89A40B982EF05" overflow="visible"><path d="M 0 0m 12.051 3.029c 0.104 0.052 0.156 0.13 0.156 0.221c 0 0.091 -0.052 0.169 -0.156 0.221c -0.793 0.208 -1.599 0.663 -2.405 1.352c -0.585 0.507 -1.04 1.092 -1.378 1.768c -0.052 0.117 -0.143 0.169 -0.273 0.169c -0.208 0 -0.312 -0.104 -0.312 -0.312c 0 -0.026 0.013 -0.065 0.026 -0.13c 0.299 -0.572 0.663 -1.079 1.079 -1.521h -7.696c -0.208 0 -0.312 -0.104 -0.312 -0.299c 0 -0.208 0.104 -0.312 0.312 -0.312h 8.372c 0.481 -0.39 1.014 -0.702 1.573 -0.936c -0.559 -0.234 -1.092 -0.546 -1.573 -0.936h -8.372c -0.208 0 -0.312 -0.104 -0.312 -0.312c 0 -0.195 0.104 -0.299 0.312 -0.299h 7.696c -0.416 -0.442 -0.78 -0.949 -1.079 -1.521c -0.013 -0.065 -0.026 -0.104 -0.026 -0.13c 0 -0.208 0.104 -0.312 0.312 -0.312c 0.13 0 0.221 0.052 0.273 0.169c 0.338 0.676 0.793 1.261 1.378 1.768c 0.806 0.689 1.612 1.144 2.405 1.352Z "/></symbol></defs></svg>