<svg viewBox="0 0 292.318722222 46.8" width="292.318722222pt" height="46.8pt" xmlns="http://www.w3.org/2000/svg" xmlns:xlink="http://www.w3.org/1999/xlink" xmlns:h5="http://www.w3.org/1999/xhtml"><g transform="matrix(1 0 0 -1 6.5 26.65)"><use xlink:href="#gC8FE9299987BC399BCDE6DD4129703BD" x="0" y="0" fill="#e6edf3" fill-rule="nonzero"/></g><g transform="matrix(1 0 0 -1 14.599 29.861)"><use xlink:href="#gC0ABA531695025EEEBCE35B3C23FE9A6" x="0" y="0" fill="#e6edf3" fill-rule="nonzero"/><use xlink:href="#g9968A3AC7C110F52BFA8A83B9AB20B24" x="5.6875" y="0" fill="#e6edf3" fill-rule="nonzero"/></g><g transform="matrix(1 0 0 -1 25.6919 26.65)"><use xlink:href="#g2D7122AD31FABF41BED931716B883F58" x="0" y="0" fill="#e6edf3" fill-rule="nonzero"/></g><g transform="matrix(1 0 0 -1 30.7489 26.65)"><use xlink:href="#gF5FB9F3934311C9D089606536CC9B01A" x="0" y="0" fill="#e6edf3" fill-rule="nonzero"/></g><g transform="matrix(1 0 0 -1 36.7809 26.65)"><use xlink:href="#g2F93E6EEEE2061842AA37F49EEA2F1A2" x="0" y="0" fill="#e6edf3" fill-rule="nonzero"/></g><g transform="matrix(1 0 0 -1 45.449011111 26.65)"><use xlink:href="#g13AFF74D87C474CFAF661EEAD0458F8B" x="0" y="0" fill="#e6edf3" fill-rule="nonzero"/></g><g transform="matrix(1 0 0 -1 59.174122222 26.65)"><use xlink:href="#g20CFFEADE4897488A8BFC1664802F723" x="0" y="0" fill="#e6edf3" fill-rule="nonzero"/></g><g transform="matrix(1 0 0 -1 65.674122222 26.65)"><use xlink:href="#g894190FA0EEFA6A5DCF83D53FA4E4038" x="0" y="0" fill="#e6edf3" fill-rule="nonzero"/></g><g transform="matrix(1 0 0 -1 71.732122222 26.65)"><use xlink:href="#gC1559FF44754B03CEF3DB5FBEA04CAD3" x="0" y="0" fill="#e6edf3" fill-rule="nonzero"/></g><g transform="matrix(1 0 0 -1 80.403122222 26.65)"><use xlink:href="#g40DC7874710A20371E3C4E36DD1CD7A7" x="0" y="0" fill="#e6edf3" fill-rule="nonzero"/></g><g transform="matrix(1 0 0 -1 90.322122222 17.849)"><use xlink:href="#g37A25FD9304FC623B4D612A207BC8176" x="0" y="0" fill="#e6edf3" fill-rule="nonzero"/></g><g transform="matrix(1 0 0 -1 91.173622222 35.568)"><use xlink:href="#gF5FB9F3934311C9D089606536CC9B01A" x="0" y="0" fill="#e6edf3" fill-rule="nonzero"/></g><path fill="none" stroke="#e6edf3" stroke-width="0.624" stroke-linecap="butt" stroke-linejoin="miter" stroke-miterlimit="4" transform="translate(90.322122222 23.4)" d="M 0 0h 7.735"/><g transform="matrix(1 0 0 -1 99.357122222 26.65)"><use xlink:href="#gCF32271CBB45E5A038DE6AFE051A2D40" x="0" y="0" fill="#e6edf3" fill-rule="nonzero"/></g><g transform="matrix(1 0 0 -1 107.976122222 13.052)"><use xlink:href="#g5A380D51C1693CF037954AEF50086985" x="0" y="0" fill="#e6edf3" fill-rule="nonzero"/></g><g transform="matrix(1 0 0 -1 113.154022222 13.052)"><use xlink:href="#g8A6A9074F91D642F82CC8BE39AC39D3A" x="0" y="0" fill="#e6edf3" fill-rule="nonzero"/></g><g transform="matrix(1 0 0 -1 121.948811111 26.65)"><use xlink:href="#g9B543B57F718853EF8F95EF155B6CF69" x="0" y="0" fill="#e6edf3" fill-rule="nonzero"/></g><g transform="matrix(1 0 0 -1 134.9517 26.65)"><use xlink:href="#g40DC7874710A20371E3C4E36DD1CD7A7" x="0" y="0" fill="#e6edf3" fill-rule="nonzero"/></g><g transform="matrix(1 0 0 -1 144.8707 17.849)"><use xlink:href="#g37A25FD9304FC623B4D612A207BC8176" x="0" y="0" fill="#e6edf3" fill-rule="nonzero"/></g><g transform="matrix(1 0 0 -1 145.7222 35.568)"><use xlink:href="#gF5FB9F3934311C9D089606536CC9B01A" x="0" y="0" fill="#e6edf3" fill-rule="nonzero"/></g><path fill="none" stroke="#e6edf3" stroke-width="0.624" stroke-linecap="butt" stroke-linejoin="miter" stroke-miterlimit="4" transform="translate(144.8707 23.4)" d="M 0 0h 7.735"/><g transform="matrix(1 0 0 -1 153.9057 26.65)"><use xlink:href="#gCF32271CBB45E5A038DE6AFE051A2D40" x="0" y="0" fill="#e6edf3" fill-rule="nonzero"/></g><g transform="matrix(1 0 0 -1 162.5247 13.052)"><use xlink:href="#gEEAA93DCE5B699BEBB55590CC1E6F7A8" x="0" y="0" fill="#e6edf3" fill-rule="nonzero"/></g><g transform="matrix(1 0 0 -1 168.4306 26.65)"><use xlink:href="#g7B313E996C7824E867CAA6A9B7A771F6" x="0" y="0" fill="#e6edf3" fill-rule="nonzero"/></g><g transform="matrix(1 0 0 -1 203.1016 26.65)"><use xlink:href="#g1BB2B5D3B118FC32761E8AAB6F68EABA" x="0" y="0" fill="#e6edf3" fill-rule="nonzero"/></g><g transform="matrix(1 0 0 -1 213.2026 26.65)"><use xlink:href="#g2D7122AD31FABF41BED931716B883F58" x="0" y="0" fill="#e6edf3" fill-rule="nonzero"/></g><g transform="matrix(1 0 0 -1 218.2596 26.65)"><use xlink:href="#gF5FB9F3934311C9D089606536CC9B01A" x="0" y="0" fill="#e6edf3" fill-rule="nonzero"/></g><g transform="matrix(1 0 0 -1 224.2916 26.65)"><use xlink:href="#g2F93E6EEEE2061842AA37F49EEA2F1A2" x="0" y="0" fill="#e6edf3" fill-rule="nonzero"/></g><g transform="matrix(1 0 0 -1 232.959711111 26.65)"><use xlink:href="#g13AFF74D87C474CFAF661EEAD0458F8B" x="0" y="0" fill="#e6edf3" fill-rule="nonzero"/></g><g transform="matrix(1 0 0 -1 246.684822222 26.65)"><use xlink:href="#g9B543B57F718853EF8F95EF155B6CF69" x="0" y="0" fill="#e6edf3" fill-rule="nonzero"/></g><g transform="matrix(1 0 0 -1 258.098822222 17.849)"><use xlink:href="#gEB9B079EF07FFCCA69ED7A9B1F1ABEB" x="0" y="0" fill="#e6edf3" fill-rule="nonzero"/></g><g transform="matrix(1 0 0 -1 265.326822222 17.849)"><use xlink:href="#gC8FE9299987BC399BCDE6DD4129703BD" x="0" y="0" fill="#e6edf3" fill-rule="nonzero"/></g><g transform="matrix(1 0 0 -1 273.425822222 21.06)"><use xlink:href="#gC0ABA531695025EEEBCE35B3C23FE9A6" x="0" y="0" fill="#e6edf3" fill-rule="nonzero"/><use xlink:href="#g9968A3AC7C110F52BFA8A83B9AB20B24" x="5.6875" y="0" fill="#e6edf3" fill-rule="nonzero"/></g><g transform="matrix(1 0 0 -1 264.678772222 35.568)"><use xlink:href="#gEB9B079EF07FFCCA69ED7A9B1F1ABEB" x="0" y="0" fill="#e6edf3" fill-rule="nonzero"/></g><g transform="matrix(1 0 0 -1 271.906772222 35.568)"><use xlink:href="#gF5FB9F3934311C9D089606536CC9B01A" x="0" y="0" fill="#e6edf3" fill-rule="nonzero"/></g><path fill="none" stroke="#e6edf3" stroke-width="0.624" stroke-linecap="butt" stroke-linejoin="miter" stroke-miterlimit="4" transform="translate(258.098822222 23.4)" d="M 0 0h 26.4199"/><defs><symbol id="gC8FE9299987BC399BCDE6DD4129703BD" overflow="visible"><path d="M 0 0m 8.346 8.84c -0.247 0 -1.079 0.039 -1.326 0.039c -0.195 0 -0.286 -0.104 -0.286 -0.312c 0 -0.117 0.091 -0.182 0.273 -0.195c 0.559 0 0.832 -0.169 0.832 -0.507c 0 -0.078 -0.013 -0.169 -0.039 -0.26l -1.157 -4.589c -0.195 -0.741 -0.572 -1.378 -1.131 -1.924c -0.611 -0.585 -1.287 -0.871 -2.015 -0.871c -0.962 0 -1.521 0.65 -1.521 1.612l 0.013 0.117c 0 0.247 0.039 0.533 0.13 0.871l 1.248 5.005c 0.065 0.273 0.182 0.442 0.351 0.507c 0.078 0.026 0.299 0.039 0.676 0.039c 0.338 0 0.481 0 0.481 0.312c 0 0.13 -0.078 0.195 -0.221 0.195l -1.651 -0.039l -1.651 0.039c -0.208 0 -0.299 -0.117 -0.299 -0.312c 0 -0.091 0.039 -0.156 0.104 -0.169c 0.13 -0.013 0.234 -0.026 0.299 -0.026c 0.403 -0.013 0.637 -0.039 0.702 -0.052c 0.065 -0.013 0.091 -0.052 0.091 -0.117c 0 -0.026 -0.013 -0.117 -0.052 -0.26l -1.235 -4.953c -0.065 -0.247 -0.091 -0.494 -0.091 -0.754c 0 -1.495 1.079 -2.522 2.574 -2.522c 0.845 0 1.625 0.325 2.34 0.988c 0.689 0.624 1.131 1.352 1.339 2.197l 1.144 4.563c 0.169 0.663 0.533 0.897 1.339 0.91c 0.182 0.013 0.273 0.117 0.273 0.312v 0.052c -0.039 0.091 -0.104 0.143 -0.221 0.143c -0.247 0 -1.066 -0.039 -1.313 -0.039Z "/></symbol><symbol id="gC0ABA531695025EEEBCE35B3C23FE9A6" overflow="visible"><path d="M 0 0m 2.093 0.6734v 4.7957c 0 0.1183 0.0091 0.1911 0.0273 0.2366c 0.0455 0.1001 0.3094 0.1547 0.7917 0.1547h 0.3276v 0.3549c -0.2366 -0.0182 -0.7462 -0.0273 -1.5379 -0.0273c -0.7007 0 -1.1648 0.0091 -1.4014 0.0273v -0.3549h 0.2548c 0.3185 0 0.5096 -0.0273 0.5733 -0.0728c 0.0637 -0.0455 0.1001 -0.1456 0.1001 -0.3094v -4.7411c 0 -0.1638 -0.0364 -0.273 -0.1001 -0.3185c -0.0637 -0.0455 -0.2548 -0.0637 -0.5733 -0.0637h -0.2548v -0.3549h 4.7411l 0.2548 2.3933h -0.2912c -0.0455 -0.4641 -0.1274 -0.8372 -0.2275 -1.1284c -0.2002 -0.5733 -0.7371 -0.91 -1.547 -0.91h -0.7371c -0.3458 0 -0.4004 0 -0.4004 0.3185Z "/></symbol><symbol id="g9968A3AC7C110F52BFA8A83B9AB20B24" overflow="visible"><path d="M 0 0m 1.82 0.0728c -0.4095 0 -0.7098 0.1456 -0.9191 0.4459c 0.364 0.0182 0.546 0.2002 0.546 0.5369c 0 0.3094 -0.2275 0.546 -0.5369 0.546c -0.3276 0 -0.5369 -0.2366 -0.5369 -0.5642c 0 -0.7371 0.7098 -1.2376 1.4651 -1.2376c 0.4095 0 0.7826 0.1183 1.1102 0.364c 0.3276 0.2457 0.5278 0.5733 0.5824 0.9737c 0.0091 0.0455 0.0091 0.1729 0.0091 0.4004v 3.9949c 0 0.1547 0.0273 0.2548 0.1001 0.2821c 0.0728 0.0273 0.273 0.0455 0.5915 0.0455v 0.3549l -1.1921 -0.0273c -0.5915 -0.0091 -1.1011 0 -1.5288 0.0273v -0.3549h 0.3549c 0.4823 0 0.7553 -0.0455 0.8099 -0.1456c 0.0182 -0.0455 0.0273 -0.1274 0.0273 -0.2457v -4.1041c 0 -0.6279 -0.3003 -1.2922 -0.8827 -1.2922Z "/></symbol><symbol id="g2D7122AD31FABF41BED931716B883F58" overflow="visible"><path d="M 0 0m 4.134 -3.224c 0.117 0 0.182 0.065 0.182 0.182c 0 0.039 -0.026 0.091 -0.065 0.143c -0.676 0.52 -1.222 1.378 -1.625 2.561c -0.351 1.027 -0.533 2.041 -0.533 3.042v 1.092c 0 1.001 0.182 2.015 0.533 3.042c 0.403 1.183 0.949 2.041 1.625 2.561c 0.039 0.039 0.065 0.091 0.065 0.143c 0 0.117 -0.065 0.182 -0.182 0.182c -0.013 0 -0.052 -0.013 -0.091 -0.039c -0.78 -0.598 -1.43 -1.482 -1.963 -2.665c -0.507 -1.131 -0.767 -2.197 -0.767 -3.224v -1.092c 0 -1.027 0.26 -2.093 0.767 -3.224c 0.533 -1.183 1.183 -2.067 1.963 -2.665c 0.039 -0.026 0.078 -0.039 0.091 -0.039Z "/></symbol><symbol id="gF5FB9F3934311C9D089606536CC9B01A" overflow="visible"><path d="M 0 0m 5.668 4.862c 0 0.546 -0.533 0.884 -1.105 0.884c -0.637 0 -1.17 -0.299 -1.612 -0.91c -0.13 0.507 -0.572 0.91 -1.183 0.91c -0.533 0 -0.923 -0.416 -1.196 -1.261c -0.13 -0.429 -0.195 -0.676 -0.195 -0.754c 0 -0.117 0.065 -0.182 0.208 -0.182c 0.065 0 0.104 0.013 0.143 0.039c 0.065 0.117 0.104 0.208 0.117 0.299c 0.234 0.988 0.533 1.482 0.884 1.482c 0.221 0 0.338 -0.182 0.338 -0.546c 0 -0.169 -0.065 -0.52 -0.195 -1.053l -0.741 -2.951c -0.039 -0.169 -0.117 -0.507 -0.117 -0.572c 0 -0.26 0.143 -0.39 0.416 -0.39c 0.26 0 0.429 0.13 0.52 0.39l 0.247 0.936c 0.143 0.559 0.234 0.923 0.273 1.092l 0.403 1.664c 0.026 0.104 0.13 0.273 0.299 0.52c 0.351 0.494 0.754 0.91 1.391 0.91c 0.156 0 0.286 -0.026 0.403 -0.091c -0.39 -0.117 -0.585 -0.364 -0.585 -0.715c 0 -0.338 0.182 -0.507 0.533 -0.507c 0.429 0 0.754 0.377 0.754 0.806Z "/></symbol><symbol id="g2F93E6EEEE2061842AA37F49EEA2F1A2" overflow="visible"><path d="M 0 0m 1.014 -3.185c 0.78 0.598 1.43 1.482 1.963 2.665c 0.507 1.131 0.767 2.197 0.767 3.224v 1.092c 0 1.027 -0.26 2.093 -0.767 3.224c -0.533 1.183 -1.183 2.067 -1.963 2.665c -0.039 0.026 -0.078 0.039 -0.091 0.039c -0.117 0 -0.182 -0.065 -0.182 -0.182c 0 -0.052 0.026 -0.104 0.065 -0.143c 0.676 -0.52 1.222 -1.378 1.625 -2.561c 0.351 -1.027 0.533 -2.041 0.533 -3.042v -1.092c 0 -1.001 -0.182 -2.015 -0.533 -3.042c -0.403 -1.183 -0.949 -2.041 -1.625 -2.561c -0.039 -0.052 -0.065 -0.104 -0.065 -0.143c 0 -0.117 0.065 -0.182 0.182 -0.182c 0.013 0 0.052 0.013 0.091 0.039Z "/></symbol><symbol id="g13AFF74D87C474CFAF661EEAD0458F8B" overflow="visible"><path d="M 0 0m 9.074 4.771h -8.034c -0.208 0 -0.312 -0.104 -0.312 -0.299c 0 -0.195 0.104 -0.299 0.312 -0.299h 8.034c 0.208 0 0.312 0.104 0.312 0.299c 0 0.156 -0.143 0.299 -0.312 0.299Z m 0 -2.444h -8.034c -0.208 0 -0.312 -0.104 -0.312 -0.299c 0 -0.195 0.104 -0.299 0.312 -0.299h 8.034c 0.208 0 0.312 0.104 0.312 0.299c 0 0.169 -0.143 0.299 -0.312 0.299Z "/></symbol><symbol id="g20CFFEADE4897488A8BFC1664802F723" overflow="visible"><path d="M 0 0m 4.589 8.801c -0.117 0 -0.221 -0.065 -0.299 -0.182l -3.926 -6.032v -0.468h 3.393v -1.066c 0 -0.234 -0.052 -0.39 -0.143 -0.455c -0.091 -0.065 -0.338 -0.091 -0.767 -0.091h -0.325v -0.507c 0.377 0.026 0.975 0.039 1.781 0.039c 0.806 0 1.404 -0.013 1.781 -0.039v 0.507h -0.325c -0.429 0 -0.676 0.026 -0.767 0.091c -0.091 0.065 -0.143 0.221 -0.143 0.455v 1.066h 1.274v 0.507h -1.274v 5.954c 0 0.13 -0.091 0.221 -0.26 0.221Z m -0.754 -1.612v -4.563h -2.964Z "/></symbol><symbol id="g894190FA0EEFA6A5DCF83D53FA4E4038" overflow="visible"><path d="M 0 0m 5.577 5.109c 0 0.156 -0.169 0.325 -0.533 0.507c -0.364 0.182 -0.754 0.273 -1.157 0.273c -0.637 0 -1.261 -0.156 -1.846 -0.455c -0.702 -0.364 -1.053 -0.845 -1.053 -1.43c 0 -0.338 0.156 -0.637 0.468 -0.897c -0.533 -0.325 -1.118 -0.962 -1.118 -1.729c 0 -1.066 1.014 -1.664 2.132 -1.664c 0.637 0 1.17 0.143 1.599 0.416c 0.559 0.351 0.845 0.676 0.845 0.949c 0 0.117 -0.065 0.182 -0.195 0.182c -0.065 0 -0.117 -0.039 -0.169 -0.117c -0.325 -0.572 -0.832 -0.741 -1.963 -0.741c -0.299 0 -0.585 0.026 -0.845 0.078c -0.481 0.091 -0.975 0.442 -0.975 0.975c 0 0.637 0.598 1.196 1.092 1.43c 0.286 -0.117 0.65 -0.169 1.092 -0.169c 0.715 0 1.079 0.156 1.079 0.455c 0 0.26 -0.325 0.39 -0.975 0.39c -0.442 0 -0.832 -0.078 -1.183 -0.234c -0.312 0.169 -0.468 0.39 -0.468 0.676c 0 0.403 0.312 0.728 0.923 0.949c 0.455 0.169 0.936 0.247 1.43 0.247c 0.429 0 0.819 -0.117 1.144 -0.351c 0.13 -0.091 0.221 -0.13 0.286 -0.13c 0.195 0 0.39 0.195 0.39 0.39Z m -2.522 -1.924c 0.143 0 0.273 -0.013 0.403 -0.039c -0.13 -0.026 -0.299 -0.039 -0.507 -0.039c -0.169 0 -0.325 0 -0.442 0.013c 0.169 0.039 0.351 0.065 0.546 0.065Z "/></symbol><symbol id="gC1559FF44754B03CEF3DB5FBEA04CAD3" overflow="visible"><path d="M 0 0m 7.982 -15.366h -2.951v 37.232h 2.951c 0.286 0 0.429 0.143 0.429 0.442c 0 0.299 -0.143 0.442 -0.429 0.442h -3.809v -39h 3.809c 0.286 0 0.429 0.143 0.429 0.442c 0 0.247 -0.182 0.442 -0.429 0.442Z "/></symbol><symbol id="g40DC7874710A20371E3C4E36DD1CD7A7" overflow="visible"><path d="M 0 0m 7.644 -10.348c 0.169 0 0.26 0.091 0.26 0.26c 0 0.078 -0.026 0.143 -0.091 0.208c -1.313 0.988 -2.353 2.704 -3.12 5.135c -0.663 2.067 -0.988 4.082 -0.988 6.058v 3.874c 0 1.976 0.325 3.991 0.988 6.058c 0.767 2.431 1.807 4.147 3.12 5.135c 0.065 0.065 0.091 0.13 0.091 0.208c 0 0.169 -0.091 0.26 -0.26 0.26c -0.065 0 -0.117 -0.013 -0.156 -0.052c -1.456 -1.105 -2.652 -2.873 -3.588 -5.278c -0.858 -2.197 -1.287 -4.316 -1.287 -6.331v -3.874c 0 -2.015 0.429 -4.134 1.287 -6.331c 0.936 -2.405 2.132 -4.173 3.588 -5.278c 0.039 -0.039 0.091 -0.052 0.156 -0.052Z "/></symbol><symbol id="g37A25FD9304FC623B4D612A207BC8176" overflow="visible"><path d="M 0 0m 6.825 5.603h -2.925c -0.624 0 -1.209 -0.195 -1.742 -0.598c -0.832 -0.637 -1.664 -1.755 -1.664 -3.081c 0 -1.17 0.806 -2.067 1.976 -2.067c 0.871 0 1.651 0.377 2.314 1.131c 0.637 0.728 0.949 1.534 0.949 2.431c 0 0.533 -0.117 0.975 -0.351 1.339h 1.313c 0.455 0 0.676 0.156 0.676 0.481c 0 0.299 -0.221 0.364 -0.546 0.364Z m -5.434 -4.03c 0 0.767 0.182 1.469 0.559 2.093c 0.442 0.728 1.014 1.092 1.729 1.092c 0.754 0 1.131 -0.39 1.131 -1.183c 0 -0.325 -0.065 -0.702 -0.195 -1.144c -0.26 -0.923 -0.689 -1.573 -1.287 -1.924c -0.299 -0.182 -0.585 -0.273 -0.845 -0.273c -0.715 0 -1.092 0.585 -1.092 1.339Z "/></symbol><symbol id="gCF32271CBB45E5A038DE6AFE051A2D40" overflow="visible"><path d="M 0 0m 1.118 -10.296c 1.456 1.105 2.652 2.873 3.601 5.278c 0.858 2.197 1.287 4.316 1.287 6.331v 3.874c 0 2.015 -0.429 4.134 -1.287 6.331c -0.949 2.405 -2.145 4.173 -3.601 5.278c -0.039 0.039 -0.078 0.052 -0.143 0.052c -0.169 0 -0.26 -0.091 -0.26 -0.26c 0 -0.091 0.026 -0.156 0.091 -0.208c 1.313 -1.001 2.353 -2.704 3.12 -5.135c 0.663 -2.054 0.988 -4.069 0.988 -6.058v -3.874c 0 -1.976 -0.325 -3.991 -0.988 -6.058c -0.767 -2.431 -1.807 -4.147 -3.12 -5.135c -0.065 -0.052 -0.091 -0.117 -0.091 -0.208c 0 -0.169 0.091 -0.26 0.26 -0.26c 0.065 0 0.104 0.013 0.143 0.052Z "/></symbol><symbol id="g5A380D51C1693CF037954AEF50086985" overflow="visible"><path d="M 0 0m 2.7573 6.0424c -0.3913 -0.3822 -0.9737 -0.5733 -1.7654 -0.5733v -0.4004c 0.5369 0 0.9646 0.0819 1.2922 0.2366v -4.5318c 0 -0.1183 -0.0091 -0.1911 -0.0364 -0.2275c -0.0455 -0.1001 -0.3185 -0.1547 -0.819 -0.1547h -0.3731v -0.3913l 1.6198 0.0364l 1.6289 -0.0364v 0.3913h -0.3731c -0.5005 0 -0.7735 0.0546 -0.8281 0.1547c -0.0182 0.0364 -0.0273 0.1092 -0.0273 0.2275v 4.9777c 0 0.2457 -0.0364 0.2912 -0.3185 0.2912Z "/></symbol><symbol id="g8A6A9074F91D642F82CC8BE39AC39D3A" overflow="visible"><path d="M 0 0m 1.0829 3.8584c 0.2912 0 0.5096 0.2184 0.5096 0.5096c 0 0.3276 -0.1729 0.5005 -0.5096 0.5096c 0.2002 0.4277 0.6552 0.7735 1.2467 0.7735c 0.8008 0 1.3286 -0.6006 1.3286 -1.4014c 0 -0.4368 -0.1547 -0.8554 -0.4732 -1.2649c -0.1547 -0.2093 -0.273 -0.3549 -0.3549 -0.4368l -2.1567 -2.1385c -0.1183 -0.1092 -0.1001 -0.1365 -0.1001 -0.4095h 3.7492l 0.2821 1.7108h -0.3822c -0.0637 -0.4823 -0.1365 -0.7644 -0.2184 -0.8281c -0.0455 -0.0273 -0.3276 -0.0455 -0.8645 -0.0455h -1.547c 0.6097 0.5369 1.1739 1.0192 1.7108 1.4469c 0.4095 0.3185 0.7007 0.6006 0.8827 0.8463c 0.273 0.3549 0.4095 0.728 0.4095 1.1193c 0 0.5642 -0.2184 1.0101 -0.6643 1.3377c -0.3913 0.3003 -0.8827 0.455 -1.4651 0.455c -0.5005 0 -0.9282 -0.1456 -1.3013 -0.4368c -0.3913 -0.3185 -0.5915 -0.7189 -0.5915 -1.2103c 0 -0.3094 0.2275 -0.5369 0.5096 -0.5369Z "/></symbol><symbol id="g9B543B57F718853EF8F95EF155B6CF69" overflow="visible"><path d="M 0 0m 9.074 3.51h -8.034c -0.208 0 -0.312 -0.091 -0.312 -0.26c 0 -0.169 0.104 -0.26 0.312 -0.26h 8.034c 0.208 0 0.312 0.091 0.312 0.26c 0 0.156 -0.156 0.26 -0.312 0.26Z "/></symbol><symbol id="gEEAA93DCE5B699BEBB55590CC1E6F7A8" overflow="visible"><path d="M 0 0m 3.1304 6.0424c -0.7917 0 -1.4469 -0.3367 -1.9474 -1.0101c -0.4641 -0.6097 -0.6916 -1.3286 -0.6916 -2.1476c 0 -1.1284 0.2275 -1.9383 0.6825 -2.4206c 0.4095 -0.4277 0.8827 -0.6461 1.4287 -0.6461c 0.5824 0 1.0738 0.2002 1.4742 0.5915c 0.4004 0.3913 0.6006 0.8827 0.6006 1.456c 0 0.5642 -0.1911 1.0465 -0.5733 1.4378c -0.3822 0.3913 -0.8554 0.5915 -1.4105 0.5915c -0.5551 0 -0.9737 -0.2548 -1.274 -0.7735c 0.0182 0.7917 0.1547 1.3832 0.4004 1.7836c 0.3367 0.5369 0.7735 0.8008 1.3286 0.8008c 0.3367 0 0.5824 -0.0819 0.7371 -0.2457c -0.2548 -0.0546 -0.3822 -0.2093 -0.3822 -0.4641c 0 -0.3003 0.1547 -0.455 0.455 -0.455c 0.3094 0 0.4641 0.1547 0.4641 0.4732c 0 0.6916 -0.5642 1.0283 -1.2922 1.0283Z m -1.6835 -3.9858c 0 0.7826 0.4641 1.5106 1.2012 1.5106c 0.2821 0 0.5187 -0.091 0.7098 -0.273c 0.3458 -0.3276 0.3913 -0.7371 0.3913 -1.4287c 0 -0.5824 -0.0819 -0.9919 -0.2366 -1.2194c -0.2184 -0.3094 -0.5187 -0.4641 -0.91 -0.4641c -0.8827 0 -1.1557 0.8281 -1.1557 1.8746Z "/></symbol><symbol id="g7B313E996C7824E867CAA6A9B7A771F6" overflow="visible"><path d="M 0 0m 0.689 -16.25h 3.809v 39h -3.809c -0.286 0 -0.429 -0.143 -0.429 -0.442c 0 -0.299 0.143 -0.442 0.429 -0.442h 2.951v -37.232h -2.951c -0.286 0 -0.429 -0.143 -0.429 -0.442c 0 -0.299 0.143 -0.442 0.429 -0.442Z "/></symbol><symbol id="g1BB2B5D3B118FC32761E8AAB6F68EABA" overflow="visible"><path d="M 0 0m 2.587 8.528c 0 -0.13 0.143 -0.195 0.416 -0.195c 0.52 0 0.78 -0.052 0.78 -0.169c 0 -0.039 -0.026 -0.13 -0.065 -0.299l -1.69 -6.799c -0.078 -0.286 -0.208 -0.455 -0.39 -0.52c -0.091 -0.026 -0.325 -0.039 -0.728 -0.039c -0.286 0 -0.416 -0.026 -0.416 -0.299c 0 -0.143 0.078 -0.208 0.247 -0.208l 1.69 0.039l 1.924 -0.039c 0.208 0 0.312 0.104 0.312 0.299c 0 0.221 -0.143 0.208 -0.481 0.208c -0.572 0 -0.897 0.026 -0.975 0.091c -0.039 0.013 -0.052 0.065 -0.052 0.13l 0.832 3.445h 1.209c 0.598 0 1.014 -0.026 1.014 -0.52c 0 -0.169 -0.026 -0.377 -0.091 -0.624c -0.013 -0.039 -0.026 -0.091 -0.039 -0.143c 0 -0.143 0.065 -0.208 0.208 -0.208c 0.065 0.013 0.156 0.104 0.247 0.299l 0.702 2.795c 0.026 0.104 0.039 0.182 0.039 0.221c -0.039 0.117 -0.117 0.182 -0.208 0.182c -0.104 0 -0.182 -0.104 -0.234 -0.299c -0.13 -0.494 -0.312 -0.806 -0.52 -0.962c -0.208 -0.156 -0.572 -0.234 -1.092 -0.234h -1.105l 0.806 3.198c 0.104 0.442 0.104 0.455 0.65 0.455h 1.69c 1.261 0 1.833 -0.195 1.833 -1.352c 0 -0.26 -0.013 -0.494 -0.039 -0.689c -0.013 -0.143 -0.026 -0.221 -0.026 -0.234c 0 -0.143 0.065 -0.208 0.195 -0.208c 0.13 0 0.208 0.117 0.234 0.364l 0.26 2.223c 0.039 0.364 -0.052 0.403 -0.403 0.403h -6.292c -0.299 0 -0.442 -0.013 -0.442 -0.312Z "/></symbol><symbol id="gEB9B079EF07FFCCA69ED7A9B1F1ABEB" overflow="visible"><path d="M 0 0m 4.862 -0.143l 1.989 0.143v 0.494c -0.468 0 -0.741 0.026 -0.845 0.104c -0.104 0.078 -0.156 0.273 -0.156 0.572v 7.852l -1.937 -0.143v -0.494c 0.455 0 0.741 -0.039 0.845 -0.117c 0.104 -0.078 0.143 -0.26 0.143 -0.559v -2.639c -0.416 0.481 -0.936 0.715 -1.56 0.715c -0.806 0 -1.495 -0.286 -2.054 -0.871c -0.559 -0.585 -0.845 -1.287 -0.845 -2.106c 0 -0.793 0.26 -1.482 0.793 -2.067c 0.533 -0.585 1.183 -0.884 1.976 -0.884c 0.663 0 1.222 0.247 1.651 0.754Z m -1.469 5.538c 0.559 0 1.014 -0.247 1.339 -0.741c 0.091 -0.143 0.13 -0.286 0.13 -0.455v -2.626c 0 -0.169 -0.039 -0.312 -0.13 -0.455c -0.364 -0.585 -0.858 -0.871 -1.469 -0.871c -0.533 0 -0.962 0.26 -1.3 0.793c -0.234 0.39 -0.351 0.975 -0.351 1.755c 0 1.417 0.481 2.6 1.781 2.6Z "/></symbol></defs></svg>