<svg viewBox="0 0 87.846922222 37.895" width="87.846922222pt" height="37.895pt" xmlns="http://www.w3.org/2000/svg" xmlns:xlink="http://www.w3.org/1999/xlink" xmlns:h5="http://www.w3.org/1999/xhtml"><g transform="matrix(1 0 0 -1 8.606 13.208)"><use xlink:href="#gECD202B73668A69AC8A33649F9D5BDE0" x="0" y="0" fill="#e6edf3" fill-rule="nonzero"/></g><g transform="matrix(1 0 0 -1 16.328 13.208)"><use xlink:href="#g7FCD119A4094BE7F1574F3E8F3A7E7BD" x="0" y="0" fill="#e6edf3" fill-rule="nonzero"/></g><g transform="matrix(1 0 0 -1 7.8 30.927)"><use xlink:href="#gECD202B73668A69AC8A33649F9D5BDE0" x="0" y="0" fill="#e6edf3" fill-rule="nonzero"/></g><g transform="matrix(1 0 0 -1 15.522 30.927)"><use xlink:href="#g53251C539233983FE9FC826CA7FBAC4A" x="0" y="0" fill="#e6edf3" fill-rule="nonzero"/></g><path fill="none" stroke="#e6edf3" stroke-width="0.624" stroke-linecap="butt" stroke-linejoin="miter" stroke-miterlimit="4" transform="translate(7.8 18.759)" d="M 0 0h 18.083"/><g transform="matrix(1 0 0 -1 27.183 33.813)"><use xlink:href="#g93B96925AF20254D7D82B92F2475B654" x="0" y="0" fill="#e6edf3" fill-rule="nonzero"/></g><g transform="matrix(1 0 0 -1 38.965911111 22.009)"><use xlink:href="#g13AFF74D87C474CFAF661EEAD0458F8B" x="0" y="0" fill="#e6edf3" fill-rule="nonzero"/></g><g transform="matrix(1 0 0 -1 55.382022222 13.208)"><use xlink:href="#gECD202B73668A69AC8A33649F9D5BDE0" x="0" y="0" fill="#e6edf3" fill-rule="nonzero"/></g><g transform="matrix(1 0 0 -1 63.104022222 13.208)"><use xlink:href="#gAF39B06637020F254AB7B881282CA7F5" x="0" y="0" fill="#e6edf3" fill-rule="nonzero"/></g><g transform="matrix(1 0 0 -1 53.991022222 30.927)"><use xlink:href="#gECD202B73668A69AC8A33649F9D5BDE0" x="0" y="0" fill="#e6edf3" fill-rule="nonzero"/></g><g transform="matrix(1 0 0 -1 61.713022222 30.927)"><use xlink:href="#g2D1FD5FA7721AD843D67732819992226" x="0" y="0" fill="#e6edf3" fill-rule="nonzero"/></g><path fill="none" stroke="#e6edf3" stroke-width="0.624" stroke-linecap="butt" stroke-linejoin="miter" stroke-miterlimit="4" transform="translate(53.991022222 18.759)" d="M 0 0h 17.238"/><g transform="matrix(1 0 0 -1 72.529022222 33.813)"><use xlink:href="#gB520C4FDFB2403295A40FD77402E9185" x="0" y="0" fill="#e6edf3" fill-rule="nonzero"/></g><defs><symbol id="gECD202B73668A69AC8A33649F9D5BDE0" overflow="visible"><path d="M 0 0m 3.328 7.462c 0 0.299 -0.195 0.468 -0.572 0.494c 0.403 0.611 0.988 0.923 1.755 0.923c 1.196 0 1.781 -1.001 1.781 -2.275c 0 -0.533 -0.104 -1.183 -0.299 -1.976c -0.221 0.897 -0.78 1.352 -1.651 1.352c -1.001 0 -1.872 -0.416 -2.652 -1.222c -0.78 -0.806 -1.17 -1.703 -1.17 -2.704c 0 -0.481 0.169 -0.975 0.507 -1.469c 0.403 -0.585 1.027 -0.871 1.898 -0.871c 1.17 0 2.145 0.546 2.912 1.651c 0.728 1.066 1.521 2.912 1.521 4.563c 0 0.923 -0.234 1.703 -0.702 2.327c -0.507 0.702 -1.222 1.053 -2.119 1.053c -0.871 0 -1.521 -0.299 -1.963 -0.91c -0.351 -0.481 -0.533 -0.871 -0.533 -1.17c 0 -0.338 0.182 -0.507 0.546 -0.507c 0.39 0 0.741 0.351 0.741 0.741Z m 2.379 -3.523c 0 -0.819 -0.247 -1.625 -0.754 -2.418c -0.559 -0.897 -1.222 -1.339 -1.989 -1.339c -0.858 0 -1.352 0.559 -1.352 1.391c 0 0.364 0.091 0.871 0.273 1.521c 0.182 0.65 0.364 1.105 0.559 1.378c 0.52 0.741 1.157 1.118 1.898 1.118c 0.949 0 1.365 -0.702 1.365 -1.651Z "/></symbol><symbol id="g7FCD119A4094BE7F1574F3E8F3A7E7BD" overflow="visible"><path d="M 0 0m 1.729 2.041c 0 0.312 0.039 0.572 0.104 0.78c 0 0.13 -0.065 0.195 -0.208 0.195c -0.065 0 -0.117 -0.026 -0.143 -0.052c -0.065 -0.065 -0.806 -2.86 -0.806 -3.068c 0 -0.117 0.065 -0.182 0.195 -0.182c 0.065 0 0.156 0.065 0.273 0.208l 0.585 0.689c 0.455 -0.598 1.183 -0.897 2.171 -0.897c 0.858 0 1.612 0.351 2.288 1.04c 0.676 0.689 1.014 1.456 1.014 2.314c 0 0.611 -0.208 1.131 -0.637 1.547c -0.195 0.169 -0.455 0.312 -0.78 0.429c -0.299 0.065 -0.585 0.143 -0.871 0.221l -0.858 0.234c -0.429 0.117 -0.754 0.598 -0.754 1.118c 0 0.559 0.221 1.04 0.676 1.456c 0.455 0.416 0.962 0.624 1.521 0.624c 1.196 0 1.794 -0.65 1.794 -1.937c 0 -0.234 -0.052 -0.494 -0.052 -0.715v -0.039c 0.039 -0.091 0.104 -0.143 0.208 -0.143c 0.117 0 0.195 0.104 0.247 0.299l 0.689 2.821c 0 0.117 -0.065 0.182 -0.195 0.182c -0.065 0 -0.156 -0.065 -0.273 -0.208l -0.559 -0.676c -0.364 0.585 -0.975 0.884 -1.846 0.884c -0.819 0 -1.56 -0.312 -2.21 -0.923c -0.676 -0.624 -1.014 -1.339 -1.014 -2.158c 0 -0.936 0.611 -1.677 1.378 -1.885l 1.365 -0.351c 0.702 -0.195 1.144 -0.442 1.144 -1.313c 0 -0.598 -0.234 -1.131 -0.689 -1.599c -0.455 -0.468 -0.975 -0.715 -1.56 -0.715c -1.274 0 -2.197 0.559 -2.197 1.82Z "/></symbol><symbol id="g53251C539233983FE9FC826CA7FBAC4A" overflow="visible"><path d="M 0 0m 8.723 8.84c -0.247 0 -1.027 0.039 -1.274 0.039c -0.195 0 -0.299 -0.104 -0.299 -0.299c 0 -0.13 0.091 -0.195 0.26 -0.208c 0.364 -0.013 0.546 -0.143 0.546 -0.364c 0 -0.117 -0.065 -0.273 -0.182 -0.468l -3.874 -6.149l -0.858 6.656c 0 0.221 0.273 0.325 0.832 0.325c 0.26 0 0.377 0.091 0.377 0.312c 0 0.13 -0.078 0.195 -0.234 0.195c -0.286 0 -1.3 -0.039 -1.586 -0.039c -0.26 0 -1.144 0.039 -1.404 0.039c -0.195 0 -0.299 -0.104 -0.299 -0.299c 0 -0.143 0.13 -0.208 0.377 -0.208c 0.221 0 0.377 -0.026 0.481 -0.052c 0.208 -0.065 0.195 -0.091 0.234 -0.338l 1.014 -7.93c 0.039 -0.221 0.143 -0.338 0.312 -0.338c 0.169 0 0.299 0.091 0.403 0.26l 4.628 7.358c 0.299 0.468 0.585 0.767 0.871 0.884c 0.195 0.091 0.442 0.143 0.728 0.156c 0.143 0.013 0.208 0.104 0.221 0.299c 0.013 0.143 -0.065 0.208 -0.221 0.208c -0.195 0 -0.858 -0.039 -1.053 -0.039Z "/></symbol><symbol id="g93B96925AF20254D7D82B92F2475B654" overflow="visible"><path d="M 0 0m 3.5763 5.7057l -1.2194 -4.914c -0.0364 -0.1365 -0.0728 -0.2184 -0.1001 -0.2548c -0.0819 -0.1001 -0.3913 -0.1456 -0.9191 -0.1456c -0.3003 0 -0.4459 0.0182 -0.4459 -0.2275c 0 -0.1092 0.0637 -0.1638 0.1911 -0.1638c 0.4914 0 1.0374 0.0455 1.547 0.0364l 0.8099 -0.0091c 0.2366 0 0.5915 -0.0091 0.7644 -0.0273c 0.1547 0 0.2366 0.0819 0.2366 0.2366c 0 0.0819 -0.0455 0.1365 -0.1456 0.1547h -0.2548c -0.4459 0 -0.7098 0.0182 -0.7735 0.0637c -0.0273 0.0182 -0.0364 0.0455 -0.0364 0.091c 0 0.0455 0.0091 0.1092 0.0273 0.2002l 1.1921 4.7229c 0.0637 0.2093 0.0455 0.2639 0.2457 0.2821c 0.0273 0.0091 0.2002 0.0091 0.5369 0.0091c 0.5187 0 0.8554 -0.0273 1.001 -0.0728c 0.2912 -0.1001 0.4004 -0.2366 0.4004 -0.6825c 0 -0.2457 -0.0273 -0.5187 -0.0819 -0.819c 0 -0.1183 0.0637 -0.1729 0.1911 -0.1729c 0.0455 0 0.091 0.0091 0.1183 0.0364c 0.0455 0.091 0.0728 0.1638 0.0819 0.2184l 0.2457 1.7199c 0 0.1092 -0.1001 0.1638 -0.3094 0.1638h -5.5328c -0.2548 0 -0.273 -0.0182 -0.3367 -0.2093l -0.5733 -1.5925c -0.0091 -0.0455 -0.0455 -0.1456 -0.0455 -0.1729c 0 -0.1092 0.0637 -0.1638 0.1911 -0.1638c 0.091 0 0.1638 0.0819 0.2184 0.2366c 0.3094 0.8463 0.5096 1.3832 1.4469 1.4924c 0.1001 0.0091 0.3367 0.0182 0.7098 0.0182h 0.3822c 0.1638 0 0.2366 0.0182 0.2366 -0.0546Z "/></symbol><symbol id="g13AFF74D87C474CFAF661EEAD0458F8B" overflow="visible"><path d="M 0 0m 9.074 4.771h -8.034c -0.208 0 -0.312 -0.104 -0.312 -0.299c 0 -0.195 0.104 -0.299 0.312 -0.299h 8.034c 0.208 0 0.312 0.104 0.312 0.299c 0 0.156 -0.143 0.299 -0.312 0.299Z m 0 -2.444h -8.034c -0.208 0 -0.312 -0.104 -0.312 -0.299c 0 -0.195 0.104 -0.299 0.312 -0.299h 8.034c 0.208 0 0.312 0.104 0.312 0.299c 0 0.169 -0.143 0.299 -0.312 0.299Z "/></symbol><symbol id="gAF39B06637020F254AB7B881282CA7F5" overflow="visible"><path d="M 0 0m 4.615 5.746c -0.572 0 -1.118 -0.299 -1.651 -0.897c -0.143 0.598 -0.546 0.897 -1.183 0.897c -0.533 0 -0.923 -0.429 -1.196 -1.274c -0.13 -0.429 -0.195 -0.676 -0.195 -0.754c 0 -0.117 0.065 -0.182 0.208 -0.182c 0.065 0 0.104 0.013 0.143 0.039c 0.065 0.117 0.104 0.208 0.117 0.299c 0.234 0.988 0.533 1.482 0.884 1.482c 0.234 0 0.351 -0.182 0.351 -0.533c 0 -0.195 -0.026 -0.416 -0.091 -0.65l -1.43 -5.707c -0.117 -0.429 -0.13 -0.481 -0.637 -0.481c -0.234 0 -0.351 -0.104 -0.351 -0.299c 0 -0.143 0.078 -0.208 0.221 -0.208c 0.195 0 0.871 0.039 1.066 0.039c 0.247 0 1.027 -0.039 1.274 -0.039c 0.195 0 0.286 0.104 0.286 0.312c 0 0.13 -0.117 0.195 -0.364 0.195c -0.234 0 -0.585 -0.013 -0.585 0.143c 0 0.169 0.533 2.21 0.585 2.431c 0.26 -0.481 0.65 -0.728 1.17 -0.728c 0.845 0 1.586 0.429 2.236 1.3c 0.598 0.793 0.897 1.638 0.897 2.509c 0 1.131 -0.676 2.106 -1.755 2.106Z m -0.039 -0.39c 0.507 0 0.767 -0.39 0.767 -1.157c 0 -0.351 -0.078 -0.819 -0.221 -1.404c -0.299 -1.131 -0.676 -1.872 -1.131 -2.249c -0.273 -0.221 -0.52 -0.338 -0.767 -0.338c -0.377 0 -0.637 0.169 -0.78 0.52c -0.117 0.273 -0.182 0.468 -0.182 0.572l 0.663 2.717c 0.065 0.286 0.299 0.585 0.663 0.884c 0.364 0.299 0.689 0.455 0.988 0.455Z "/></symbol><symbol id="g2D1FD5FA7721AD843D67732819992226" overflow="visible"><path d="M 0 0m 4.472 8.203c 0 -0.039 -0.013 -0.13 -0.052 -0.26l -1.716 -6.864c -0.052 -0.195 -0.104 -0.312 -0.143 -0.364c -0.117 -0.143 -0.559 -0.208 -1.339 -0.208c -0.403 0 -0.585 0.039 -0.585 -0.299c 0 -0.143 0.091 -0.208 0.26 -0.208c 0.663 0 1.599 0.052 2.158 0.039l 1.066 -0.013c 0.182 0 0.897 -0.026 1.118 -0.026c 0.221 0 0.325 0.104 0.325 0.312c 0 0.13 -0.156 0.195 -0.481 0.195c -0.676 0 -1.066 0.026 -1.183 0.091c -0.039 0.026 -0.065 0.078 -0.065 0.156l 1.755 7.085c 0.039 0.182 0.078 0.299 0.117 0.338c 0.052 0.078 0.364 0.117 0.936 0.117c 0.715 0 1.209 -0.052 1.456 -0.169c 0.247 -0.117 0.377 -0.39 0.377 -0.832c 0 -0.234 -0.039 -0.572 -0.104 -1.014c -0.026 -0.104 -0.039 -0.182 -0.039 -0.247c 0 -0.143 0.065 -0.221 0.208 -0.221c 0.117 0 0.195 0.117 0.234 0.338l 0.351 2.236c 0.013 0.065 0.026 0.143 0.026 0.221c 0 0.13 -0.13 0.195 -0.403 0.195h -7.124c -0.338 0 -0.364 -0.039 -0.468 -0.286l -0.767 -2.262c -0.039 -0.117 -0.065 -0.195 -0.078 -0.247c 0 -0.13 0.065 -0.195 0.208 -0.195c 0.104 0 0.195 0.104 0.26 0.299c 0.325 0.949 0.65 1.534 0.949 1.781c 0.338 0.273 0.988 0.403 1.937 0.403h 0.507c 0.143 0 0.299 0.013 0.299 -0.091Z "/></symbol><symbol id="gB520C4FDFB2403295A40FD77402E9185" overflow="visible"><path d="M 0 0m 6.9524 6.1789c -0.1729 0 -0.7644 0.0364 -0.9373 0.0364c -0.1456 0 -0.2184 -0.0819 -0.2184 -0.2366c 0 -0.1001 0.0637 -0.1547 0.2002 -0.1638c 0.2275 -0.0091 0.3367 -0.0819 0.3367 -0.2184c 0 -0.0728 -0.0546 -0.1911 -0.1547 -0.3458l -2.912 -4.277l -0.8008 4.5136c -0.0091 0.0637 -0.0182 0.1001 -0.0182 0.1274c 0 0.1365 0.1729 0.2002 0.5278 0.2002c 0.1911 0 0.3094 0.0455 0.3094 0.2366v 0.0364c -0.0182 0.0819 -0.0819 0.1274 -0.1911 0.1274c -0.2093 0 -0.9464 -0.0364 -1.1557 -0.0364c -0.1911 0 -0.8099 0.0364 -1.001 0.0364c -0.1456 0 -0.2184 -0.0819 -0.2184 -0.2366c 0 -0.1092 0.091 -0.1638 0.2639 -0.1638c 0.3913 0 0.4732 0.0273 0.5187 -0.2548l 0.9828 -5.4691c 0.0273 -0.182 0.1183 -0.273 0.2548 -0.273c 0.1274 0 0.2366 0.0728 0.3367 0.2093l 3.4398 5.0596c 0.3094 0.455 0.6734 0.7007 1.0829 0.7371c 0.1638 0.0091 0.2366 0.0728 0.2366 0.2275c 0 0.1092 -0.0546 0.1638 -0.1638 0.1638c -0.1274 0 -0.5915 -0.0364 -0.7189 -0.0364Z "/></symbol></defs></svg>