<svg viewBox="0 0 245.042344444 49.6353" width="245.042344444pt" height="49.6353pt" xmlns="http://www.w3.org/2000/svg" xmlns:xlink="http://www.w3.org/1999/xlink" xmlns:h5="http://www.w3.org/1999/xhtml"><g transform="matrix(1 0 0 -1 6.5 29.5503)"><use xlink:href="#g4F4A543C48CF8402D9EEEC7880A7C7C3" x="0" y="0" fill="#e6edf3" fill-rule="nonzero"/></g><g transform="matrix(1 0 0 -1 15.119 32.7613)"><use xlink:href="#g528A59098A0D3781770F15CFBE29D3CD" x="0" y="0" fill="#e6edf3" fill-rule="nonzero"/></g><g transform="matrix(1 0 0 -1 28.448911111 29.5503)"><use xlink:href="#g13AFF74D87C474CFAF661EEAD0458F8B" x="0" y="0" fill="#e6edf3" fill-rule="nonzero"/></g><g transform="matrix(1 0 0 -1 47.939522222 20.7493)"><use xlink:href="#g6B3DB0E0ADE6D994825CC39624067234" x="0" y="0" fill="#e6edf3" fill-rule="nonzero"/></g><g transform="matrix(1 0 0 -1 43.474022222 38.4683)"><use xlink:href="#gACA2FE1DD062579B79E6E19150F5B03F" x="0" y="0" fill="#e6edf3" fill-rule="nonzero"/></g><g transform="matrix(1 0 0 -1 55.291022222 38.4683)"><use xlink:href="#g1117949E8E84A5DADCB5D2CC13D48D24" x="0" y="0" fill="#e6edf3" fill-rule="nonzero"/></g><path fill="none" stroke="#e6edf3" stroke-width="0.624" stroke-linecap="butt" stroke-linejoin="miter" stroke-miterlimit="4" transform="translate(43.474022222 26.3003)" d="M 0 0h 15.431"/><g transform="matrix(1 0 0 -1 60.205022222 29.5503)"><use xlink:href="#g594523384BCA97CC035210B36637FD16" x="0" y="0" fill="#e6edf3" fill-rule="nonzero"/></g><g transform="matrix(1 0 0 -1 76.152772222 20.7493)"><use xlink:href="#g53251C539233983FE9FC826CA7FBAC4A" x="0" y="0" fill="#e6edf3" fill-rule="nonzero"/></g><g transform="matrix(1 0 0 -1 72.880022222 39.2249)"><use xlink:href="#g6B775A53E6D9184B0A4F5F1B155E7F6" x="0" y="0" fill="#e6edf3" fill-rule="nonzero"/></g><g transform="matrix(1 0 0 -1 80.459022222 34.2147)"><use xlink:href="#g5EE8C4A84F8A12CB3DE79793924C3207" x="0" y="0" fill="#e6edf3" fill-rule="nonzero"/></g><g transform="matrix(1 0 0 -1 80.459022222 42.7921)"><use xlink:href="#g929C9F5835BF20B9E99EAF8B7595E15F" x="0" y="0" fill="#e6edf3" fill-rule="nonzero"/><use xlink:href="#g58580DD08ABB5193C5543DC06B252156" x="3.5399" y="0" fill="#e6edf3" fill-rule="nonzero"/></g><path fill="none" stroke="#e6edf3" stroke-width="0.624" stroke-linecap="butt" stroke-linejoin="miter" stroke-miterlimit="4" transform="translate(72.880022222 26.3003)" d="M 0 0h 16.9065"/><g transform="matrix(1 0 0 -1 91.086522222 29.5503)"><use xlink:href="#g541875353FA5EEDAD7F236F2BC89466F" x="0" y="0" fill="#e6edf3" fill-rule="nonzero"/></g><g transform="matrix(1 0 0 -1 102.461522222 10.1153)"><use xlink:href="#g528A59098A0D3781770F15CFBE29D3CD" x="0" y="0" fill="#e6edf3" fill-rule="nonzero"/></g><g transform="matrix(1 0 0 -1 138.180322222 29.5503)"><use xlink:href="#g6B775A53E6D9184B0A4F5F1B155E7F6" x="0" y="0" fill="#e6edf3" fill-rule="nonzero"/></g><g transform="matrix(1 0 0 -1 145.759322222 32.7613)"><use xlink:href="#g929C9F5835BF20B9E99EAF8B7595E15F" x="0" y="0" fill="#e6edf3" fill-rule="nonzero"/><use xlink:href="#g58580DD08ABB5193C5543DC06B252156" x="3.5399" y="0" fill="#e6edf3" fill-rule="nonzero"/></g><g transform="matrix(1 0 0 -1 158.697933333 29.5503)"><use xlink:href="#g13AFF74D87C474CFAF661EEAD0458F8B" x="0" y="0" fill="#e6edf3" fill-rule="nonzero"/></g><g transform="matrix(1 0 0 -1 201.738694444 20.7493)"><use xlink:href="#g51033D4B12CB440E1F4B9E20D47EE5DA" x="0" y="0" fill="#e6edf3" fill-rule="nonzero"/></g><g transform="matrix(1 0 0 -1 173.723044444 39.8463)"><use xlink:href="#g41DD0379D8A3E04981ED32215CCCD900" x="0" y="0" fill="#e6edf3" fill-rule="nonzero"/></g><path fill="none" stroke="#e6edf3" stroke-width="0.624" stroke-linecap="butt" stroke-linejoin="miter" stroke-miterlimit="4" transform="translate(186.723044444 29.1083)" d="M 0 0h 50.5193"/><g transform="matrix(1 0 0 -1 186.723044444 40.1388)"><use xlink:href="#g21E6026C55295689503B3E9C99FAF46D" x="0" y="0" fill="#e6edf3" fill-rule="nonzero"/></g><g transform="matrix(1 0 0 -1 193.223044444 40.1388)"><use xlink:href="#g3286A19CC752B68D2D94F2BC1EB495F" x="0" y="0" fill="#e6edf3" fill-rule="nonzero"/></g><g transform="matrix(1 0 0 -1 200.958044444 40.1388)"><use xlink:href="#g6F6DC66390EDB4031842963E7A41B7D9" x="0" y="0" fill="#e6edf3" fill-rule="nonzero"/></g><g transform="matrix(1 0 0 -1 212.372044444 40.1388)"><use xlink:href="#gCD18A55F4CC2CA429D96672C565B9565" x="0" y="0" fill="#e6edf3" fill-rule="nonzero"/></g><g transform="matrix(1 0 0 -1 219.145044444 43.3498)"><use xlink:href="#gC7B20184179011BBC954B5E7CD84FB69" x="0" y="0" fill="#e6edf3" fill-rule="nonzero"/></g><g transform="matrix(1 0 0 -1 227.726344444 40.1388)"><use xlink:href="#g2D1FD5FA7721AD843D67732819992226" x="0" y="0" fill="#e6edf3" fill-rule="nonzero"/></g><path fill="none" stroke="#e6edf3" stroke-width="0.624" stroke-linecap="butt" stroke-linejoin="miter" stroke-miterlimit="4" transform="translate(173.723044444 26.3003)" d="M 0 0h 63.5193"/><defs><symbol id="g4F4A543C48CF8402D9EEEC7880A7C7C3" overflow="visible"><path d="M 0 0m 9.36 8.489c 0.026 0.117 0.039 0.195 0.039 0.221c 0 0.117 -0.065 0.169 -0.208 0.169h -5.59c -0.325 0 -0.364 -0.039 -0.442 -0.299l -0.702 -2.301c -0.026 -0.065 -0.039 -0.143 -0.052 -0.208c 0.039 -0.104 0.065 -0.182 0.208 -0.182c 0.065 0 0.143 0.052 0.221 0.156c 0.273 0.845 0.637 1.456 1.092 1.807c 0.455 0.351 1.131 0.52 2.015 0.52h 1.976l -7.111 -7.943l -0.052 -0.26c 0 -0.117 0.078 -0.169 0.221 -0.169h 5.733c 0.338 0 0.377 0.026 0.455 0.299l 0.91 2.847c 0.013 0.052 0.052 0.143 0.052 0.195c 0 0.13 -0.078 0.195 -0.221 0.195c -0.091 0 -0.182 -0.117 -0.26 -0.364c -0.286 -0.884 -0.637 -1.534 -1.066 -1.95c -0.455 -0.455 -1.209 -0.676 -2.249 -0.676h -2.08Z "/></symbol><symbol id="g528A59098A0D3781770F15CFBE29D3CD" overflow="visible"><path d="M 0 0m 7.6258 6.1789c -0.182 0 -0.7735 0.0364 -0.9555 0.0364c -0.1456 0 -0.2184 -0.0819 -0.2184 -0.2366c 0 -0.1001 0.0819 -0.1547 0.2366 -0.1547c 0.3549 -0.0091 0.5369 -0.1183 0.5369 -0.3367c 0 -0.0455 -0.0091 -0.1092 -0.0273 -0.2093l -0.9646 -3.822l -2.2477 4.5864c -0.0728 0.1547 -0.1183 0.1729 -0.3367 0.1729h -1.2376c -0.2093 0 -0.3185 -0.0273 -0.3185 -0.2366c 0 -0.1001 0.1092 -0.1547 0.3276 -0.1547c 0.2184 0 0.3913 -0.0182 0.5369 -0.0455l -1.2012 -4.7684c -0.1183 -0.455 -0.3549 -0.5915 -0.9009 -0.6188c -0.1547 0 -0.2275 -0.0728 -0.2275 -0.2184c 0 -0.1183 0.0546 -0.1729 0.1729 -0.1729c 0.1729 0 0.7644 0.0364 0.9373 0.0364c 0.182 0 0.7735 -0.0364 0.9555 -0.0364c 0.1456 0 0.2184 0.0728 0.2184 0.2275c 0 0.1092 -0.0819 0.1638 -0.2457 0.1638c -0.3549 0.0091 -0.5278 0.0637 -0.5278 0.3458c 0 0.0455 0.0091 0.1183 0.0273 0.2184l 1.1375 4.5045l 2.5844 -5.2871c 0.0637 -0.1183 0.1365 -0.1729 0.2366 -0.1729c 0.1183 0 0.2184 0.0728 0.2184 0.2184l 1.2558 4.9686c 0.1183 0.4641 0.3458 0.6279 0.9191 0.637c 0.1456 0 0.2184 0.0728 0.2184 0.2275c 0 0.1092 -0.0546 0.1638 -0.1729 0.1638c -0.1729 0 -0.7644 -0.0364 -0.9373 -0.0364Z "/></symbol><symbol id="g13AFF74D87C474CFAF661EEAD0458F8B" overflow="visible"><path d="M 0 0m 9.074 4.771h -8.034c -0.208 0 -0.312 -0.104 -0.312 -0.299c 0 -0.195 0.104 -0.299 0.312 -0.299h 8.034c 0.208 0 0.312 0.104 0.312 0.299c 0 0.156 -0.143 0.299 -0.312 0.299Z m 0 -2.444h -8.034c -0.208 0 -0.312 -0.104 -0.312 -0.299c 0 -0.195 0.104 -0.299 0.312 -0.299h 8.034c 0.208 0 0.312 0.104 0.312 0.299c 0 0.169 -0.143 0.299 -0.312 0.299Z "/></symbol><symbol id="g6B3DB0E0ADE6D994825CC39624067234" overflow="visible"><path d="M 0 0m 3.497 8.658c -0.533 -0.546 -1.313 -0.819 -2.34 -0.819v -0.507c 0.676 0 1.235 0.104 1.664 0.312v -6.578c 0 -0.234 -0.052 -0.39 -0.169 -0.455c -0.117 -0.065 -0.442 -0.104 -0.962 -0.104h -0.455v -0.507c 0.325 0.026 1.027 0.039 2.106 0.039c 1.079 0 1.781 -0.013 2.106 -0.039v 0.507h -0.455c -0.533 0 -0.858 0.039 -0.962 0.104c -0.104 0.065 -0.169 0.221 -0.169 0.455v 7.202c 0 0.312 -0.026 0.39 -0.364 0.39Z "/></symbol><symbol id="gACA2FE1DD062579B79E6E19150F5B03F" overflow="visible"><path d="M 0 0m 11.232 8.879c -0.247 0 -1.053 -0.039 -1.3 -0.039c -0.247 0 -1.066 0.039 -1.313 0.039c -0.195 0 -0.286 -0.104 -0.286 -0.312c 0 -0.117 0.091 -0.182 0.286 -0.195c 0.546 0 0.819 -0.169 0.819 -0.507c 0 -0.078 -0.013 -0.169 -0.026 -0.26l -1.404 -5.564l -2.795 6.565c -0.104 0.247 -0.13 0.273 -0.455 0.273h -1.729c -0.312 0 -0.429 -0.026 -0.429 -0.312c 0 -0.13 0.143 -0.195 0.416 -0.195c 0.546 0 0.819 -0.013 0.832 -0.052l -1.729 -6.89c -0.117 -0.507 -0.416 -0.793 -0.884 -0.884c -0.338 -0.039 -0.728 0.013 -0.728 -0.351c 0 -0.13 0.078 -0.195 0.221 -0.195c 0.234 0 1.04 0.039 1.287 0.039c 0.247 0 1.079 -0.039 1.326 -0.039c 0.195 0 0.286 0.104 0.286 0.312c 0 0.117 -0.104 0.182 -0.312 0.195c -0.533 0.013 -0.793 0.182 -0.793 0.507c 0 0.065 0.013 0.156 0.039 0.286l 1.677 6.643l 3.25 -7.67c 0.078 -0.182 0.182 -0.273 0.299 -0.273c 0.117 0 0.195 0.104 0.247 0.312l 1.807 7.15c 0.169 0.663 0.533 0.897 1.339 0.91c 0.182 0.013 0.273 0.117 0.273 0.325c -0.039 0.117 -0.052 0.182 -0.221 0.182Z "/></symbol><symbol id="g1117949E8E84A5DADCB5D2CC13D48D24" overflow="visible"><path d="M 0 0m 1.807 9.308c -0.377 0 -0.728 -0.325 -0.689 -0.715l 0.468 -5.85c 0.013 -0.221 0.091 -0.338 0.221 -0.338c 0.13 0 0.208 0.104 0.221 0.325l 0.468 5.863c 0.039 0.39 -0.312 0.715 -0.689 0.715Z m 0.689 -8.58c 0 0.403 -0.299 0.741 -0.689 0.741c -0.39 0 -0.689 -0.338 -0.689 -0.741c 0 -0.39 0.299 -0.728 0.689 -0.728c 0.39 0 0.689 0.338 0.689 0.728Z "/></symbol><symbol id="g594523384BCA97CC035210B36637FD16" overflow="visible"><path d="M 0 0m 10.374 -16.185c 0.221 0 0.325 0.104 0.325 0.325c 0 0.104 -0.039 0.195 -0.13 0.26c -1.053 0.793 -2.002 2.041 -2.873 3.77c -1.547 3.081 -2.691 7.41 -2.691 11.843v 6.474c 0 2.015 0.234 4.043 0.689 6.084c 0.806 3.64 2.496 7.735 4.875 9.529c 0.091 0.065 0.13 0.156 0.13 0.26c 0 0.221 -0.104 0.325 -0.325 0.325c -0.065 0 -0.13 -0.026 -0.182 -0.065c -1.131 -0.871 -2.21 -2.158 -3.224 -3.887c -1.794 -3.068 -3.367 -7.683 -3.367 -12.246v -6.474c 0 -4.29 1.443 -8.684 3.055 -11.7c 1.066 -1.963 2.249 -3.445 3.536 -4.433c 0.052 -0.039 0.117 -0.065 0.182 -0.065Z "/></symbol><symbol id="g53251C539233983FE9FC826CA7FBAC4A" overflow="visible"><path d="M 0 0m 8.723 8.84c -0.247 0 -1.027 0.039 -1.274 0.039c -0.195 0 -0.299 -0.104 -0.299 -0.299c 0 -0.13 0.091 -0.195 0.26 -0.208c 0.364 -0.013 0.546 -0.143 0.546 -0.364c 0 -0.117 -0.065 -0.273 -0.182 -0.468l -3.874 -6.149l -0.858 6.656c 0 0.221 0.273 0.325 0.832 0.325c 0.26 0 0.377 0.091 0.377 0.312c 0 0.13 -0.078 0.195 -0.234 0.195c -0.286 0 -1.3 -0.039 -1.586 -0.039c -0.26 0 -1.144 0.039 -1.404 0.039c -0.195 0 -0.299 -0.104 -0.299 -0.299c 0 -0.143 0.13 -0.208 0.377 -0.208c 0.221 0 0.377 -0.026 0.481 -0.052c 0.208 -0.065 0.195 -0.091 0.234 -0.338l 1.014 -7.93c 0.039 -0.221 0.143 -0.338 0.312 -0.338c 0.169 0 0.299 0.091 0.403 0.26l 4.628 7.358c 0.299 0.468 0.585 0.767 0.871 0.884c 0.195 0.091 0.442 0.143 0.728 0.156c 0.143 0.013 0.208 0.104 0.221 0.299c 0.013 0.143 -0.065 0.208 -0.221 0.208c -0.195 0 -0.858 -0.039 -1.053 -0.039Z "/></symbol><symbol id="g6B775A53E6D9184B0A4F5F1B155E7F6" overflow="visible"><path d="M 0 0m 1.118 -0.169c 0.143 0 0.299 0.091 0.468 0.286l 3.029 3.588c 0.455 -1.248 0.793 -2.184 1.014 -2.821c 0.143 -0.403 0.234 -0.637 0.299 -0.728c 0.143 -0.195 0.39 -0.299 0.728 -0.299h 0.273c 0.13 0.013 0.195 0.065 0.195 0.182c 0 0.026 -0.026 0.078 -0.078 0.143c -0.091 0.091 -0.182 0.286 -0.286 0.585l -2.613 7.306c -0.221 0.637 -0.754 0.949 -1.599 0.949c -0.195 0 -0.286 -0.065 -0.286 -0.195c 0 -0.091 0.078 -0.156 0.221 -0.195c 0.182 -0.052 0.299 -0.117 0.364 -0.195c 0.091 -0.104 0.221 -0.364 0.364 -0.78l 1.235 -3.471l -3.51 -3.497c -0.169 -0.169 -0.247 -0.312 -0.247 -0.429c 0 -0.234 0.195 -0.429 0.429 -0.429Z "/></symbol><symbol id="g5EE8C4A84F8A12CB3DE79793924C3207" overflow="visible"><path d="M 0 0m 3.2123 3.2123c 0.6097 0.2457 1.1921 0.7826 1.1921 1.5561c 0 0.4095 -0.2184 0.7371 -0.6461 0.9737c -0.3549 0.2002 -0.7553 0.3003 -1.2012 0.3003c -0.4459 0 -0.8372 -0.091 -1.1739 -0.2821c -0.4095 -0.2275 -0.6188 -0.546 -0.6188 -0.9555c 0 -0.3458 0.1729 -0.5187 0.5096 -0.5187c 0.2821 0 0.4914 0.2184 0.4914 0.5005c 0 0.2821 -0.1456 0.4459 -0.4277 0.4914c 0.2639 0.2821 0.6552 0.4277 1.1921 0.4277c 0.5915 0 0.9282 -0.3549 0.9282 -0.9373c 0 -0.4277 -0.1183 -0.7735 -0.3458 -1.0465c -0.2548 -0.3003 -0.4368 -0.3458 -0.9646 -0.3822c -0.2457 -0.0182 -0.4095 0.0091 -0.4095 -0.1729c 0 -0.1092 0.091 -0.1638 0.2639 -0.1638h 0.4823c 0.7826 0 1.1648 -0.5915 1.1648 -1.4105c 0 -0.8008 -0.364 -1.4105 -1.1284 -1.4105c -0.6643 0 -1.1466 0.182 -1.4469 0.5551c 0.3185 0.0364 0.4823 0.2184 0.4823 0.5369c 0 0.3003 -0.2275 0.5278 -0.5278 0.5278c -0.3549 0 -0.5369 -0.182 -0.5369 -0.5551c 0 -0.4641 0.2366 -0.8372 0.7007 -1.1011c 0.3913 -0.2184 0.8372 -0.3276 1.3468 -0.3276c 0.5551 0 1.0374 0.1547 1.456 0.4641c 0.455 0.3367 0.6825 0.7735 0.6825 1.3104c 0 0.8463 -0.7371 1.4287 -1.4651 1.6198Z "/></symbol><symbol id="g929C9F5835BF20B9E99EAF8B7595E15F" overflow="visible"><path d="M 0 0m 3.0212 1.1466v 0.546h -0.2912v -0.5278c 0 -0.455 -0.1638 -0.9646 -0.5642 -0.9646c -0.3731 0 -0.5551 0.3094 -0.5551 0.9282v 2.4661h 1.2649v 0.3458h -1.2649v 1.6562h -0.2912c -0.0091 -0.3003 -0.0364 -0.5642 -0.1001 -0.8008c -0.1547 -0.6006 -0.5096 -0.91 -1.0465 -0.9373v -0.2639h 0.7553v -2.4479c 0 -0.5369 0.1638 -0.8827 0.4823 -1.0556c 0.2457 -0.1274 0.4732 -0.1911 0.7007 -0.1911c 0.6006 0 0.91 0.6006 0.91 1.2467Z "/></symbol><symbol id="g58580DD08ABB5193C5543DC06B252156" overflow="visible"><path d="M 0 0m 2.8574 3.7765c 0.4095 0 0.6188 -0.3185 0.6188 -0.9646v -2.093c 0 -0.1729 -0.0273 -0.2821 -0.091 -0.3185c -0.0637 -0.0364 -0.2639 -0.0455 -0.6006 -0.0455v -0.3549l 1.0465 0.0273l 1.0374 -0.0273v 0.3549c -0.2912 0 -0.4823 0.0091 -0.5733 0.0364c -0.091 0.0273 -0.1274 0.091 -0.1274 0.1911v 1.7199c 0 0.4368 -0.0091 0.7371 -0.0364 0.91c -0.091 0.5551 -0.5005 0.8372 -1.2194 0.8372c -0.5551 0 -0.9737 -0.2548 -1.2558 -0.7644v 3.0303l -1.365 -0.1001v -0.3458c 0.3276 0 0.5278 -0.0273 0.6006 -0.0819c 0.0728 -0.0546 0.1001 -0.182 0.1001 -0.3913v -4.6774c 0 -0.1729 -0.0364 -0.2821 -0.1001 -0.3185c -0.0637 -0.0364 -0.2639 -0.0455 -0.6006 -0.0455v -0.3549l 1.0465 0.0273l 1.0374 -0.0273v 0.3549c -0.3367 0 -0.5278 0.0091 -0.5915 0.0455c -0.0637 0.0364 -0.1001 0.1456 -0.1001 0.3185v 1.6562c 0 0.7371 0.4641 1.4014 1.1739 1.4014Z "/></symbol><symbol id="g541875353FA5EEDAD7F236F2BC89466F" overflow="visible"><path d="M 0 0m 7.774 0.013v 6.474c 0 4.29 -1.443 8.684 -3.055 11.7c -1.066 1.963 -2.249 3.445 -3.536 4.433c -0.052 0.039 -0.117 0.065 -0.182 0.065c -0.221 0 -0.325 -0.104 -0.325 -0.325c 0 -0.104 0.039 -0.195 0.13 -0.26c 1.053 -0.793 2.002 -2.041 2.873 -3.77c 1.547 -3.081 2.691 -7.41 2.691 -11.843v -6.474c 0 -2.015 -0.234 -4.043 -0.689 -6.084c -0.806 -3.64 -2.496 -7.735 -4.875 -9.529c -0.091 -0.065 -0.13 -0.156 -0.13 -0.26c 0 -0.221 0.104 -0.325 0.325 -0.325c 0.065 0 0.13 0.026 0.182 0.065c 1.131 0.871 2.21 2.158 3.224 3.887c 1.794 3.068 3.367 7.683 3.367 12.246Z "/></symbol><symbol id="g51033D4B12CB440E1F4B9E20D47EE5DA" overflow="visible"><path d="M 0 0m 6.656 1.794c -0.299 -1.027 -0.715 -1.547 -1.261 -1.547c -0.169 0 -0.26 0.117 -0.26 0.364c 0 0.195 0.078 0.494 0.234 0.897c 0.52 1.391 0.78 2.34 0.78 2.847c 0 0.923 -0.598 1.43 -1.521 1.43c -0.689 0 -1.287 -0.286 -1.794 -0.845l 0.949 3.887c -0.026 0.117 -0.052 0.195 -0.221 0.195c -0.429 0 -1.378 -0.117 -1.547 -0.13c -0.195 -0.026 -0.299 -0.117 -0.299 -0.312c 0 -0.13 0.117 -0.195 0.351 -0.195c 0.273 0 0.572 0.013 0.598 -0.169l -1.898 -7.657c -0.039 -0.143 -0.052 -0.234 -0.052 -0.286c 0 -0.273 0.143 -0.416 0.416 -0.416c 0.26 0 0.442 0.13 0.533 0.377l 0.52 2.132c 0.156 0.637 0.273 1.118 0.364 1.443c 0.039 0.091 0.143 0.273 0.312 0.533c 0.468 0.702 1.04 1.053 1.729 1.053c 0.429 0 0.637 -0.286 0.637 -0.845c 0 -0.533 -0.26 -1.482 -0.78 -2.86c -0.117 -0.299 -0.169 -0.533 -0.169 -0.728c 0 -0.624 0.468 -1.105 1.092 -1.105c 0.572 0 1.027 0.325 1.352 0.988c 0.247 0.52 0.377 0.871 0.377 1.04c 0 0.117 -0.065 0.182 -0.208 0.182c -0.039 0 -0.234 -0.117 -0.234 -0.273Z "/></symbol><symbol id="g41DD0379D8A3E04981ED32215CCCD900" overflow="visible"><path d="M 0 0m 13.169 10.491c 0.065 0.13 0.091 0.208 0.091 0.247c 0 0.208 -0.104 0.312 -0.312 0.312c -0.13 0 -0.234 -0.091 -0.325 -0.286l -6.604 -13.793l -2.73 6.357l -1.885 -1.456l 0.26 -0.286l 0.91 0.689l 2.925 -6.825c 0.403 0 0.494 0.013 0.611 0.286Z "/></symbol><symbol id="g21E6026C55295689503B3E9C99FAF46D" overflow="visible"><path d="M 0 0m 3.081 8.658c -0.663 0 -1.222 -0.234 -1.703 -0.702c -0.481 -0.468 -0.728 -1.014 -0.728 -1.677c 0 -0.442 0.325 -0.767 0.728 -0.767c 0.39 0 0.715 0.338 0.715 0.728c 0 0.429 -0.312 0.728 -0.728 0.728c -0.039 0 -0.065 0 -0.091 -0.013c 0.247 0.637 0.819 1.196 1.638 1.196c 1.066 0 1.664 -0.923 1.664 -2.041c 0 -0.871 -0.442 -1.807 -1.326 -2.795l -2.444 -2.756c -0.169 -0.195 -0.156 -0.182 -0.156 -0.559h 4.823l 0.377 2.34h -0.429c -0.104 -0.663 -0.195 -1.04 -0.273 -1.157c -0.065 -0.065 -0.455 -0.091 -1.17 -0.091h -2.171l 1.261 1.235c 0.884 0.832 2.002 1.729 2.379 2.418c 0.26 0.455 0.39 0.91 0.39 1.365c 0 1.534 -1.196 2.548 -2.756 2.548Z "/></symbol><symbol id="g3286A19CC752B68D2D94F2BC1EB495F" overflow="visible"><path d="M 0 0m 6.812 5.603h -4.29c -0.533 0 -1.001 -0.208 -1.378 -0.611c -0.182 -0.195 -0.793 -1.027 -0.793 -1.196c 0.052 -0.091 0.052 -0.169 0.208 -0.169c 0.091 0 0.169 0.052 0.247 0.169c 0.416 0.637 0.949 0.962 1.586 0.962h 0.663c -0.299 -1.131 -0.845 -2.522 -1.625 -4.173c -0.065 -0.156 -0.104 -0.273 -0.104 -0.338c 0 -0.26 0.143 -0.39 0.416 -0.39c 0.247 0 0.429 0.143 0.546 0.416c 0.234 0.741 0.403 1.313 0.494 1.703l 0.715 2.782h 1.339c -0.351 -1.547 -0.533 -2.626 -0.533 -3.237c 0 -0.637 0.143 -1.664 0.624 -1.664c 0.273 0 0.572 0.26 0.572 0.533c 0 0.065 -0.026 0.169 -0.078 0.299c -0.247 0.611 -0.364 1.3 -0.364 2.093c 0 0.611 0.078 1.274 0.221 1.976h 1.417c 0.455 0 0.676 0.156 0.676 0.481c 0 0.299 -0.234 0.364 -0.559 0.364Z "/></symbol><symbol id="g6F6DC66390EDB4031842963E7A41B7D9" overflow="visible"><path d="M 0 0m 8.541 5.746c -0.793 0 -1.482 -0.39 -2.067 -1.157c -0.117 0.767 -0.611 1.157 -1.495 1.157c -0.767 0 -1.43 -0.338 -1.976 -1.027c -0.104 0.572 -0.559 1.027 -1.222 1.027c -0.533 0 -0.923 -0.429 -1.196 -1.274c -0.143 -0.416 -0.208 -0.663 -0.208 -0.741c 0 -0.117 0.065 -0.182 0.208 -0.182c 0.065 0 0.104 0.013 0.143 0.039c 0.065 0.117 0.104 0.208 0.13 0.299c 0.234 0.988 0.533 1.482 0.884 1.482c 0.234 0 0.351 -0.182 0.351 -0.546c 0 -0.169 -0.065 -0.52 -0.208 -1.053l -0.741 -2.951c -0.052 -0.156 -0.117 -0.494 -0.117 -0.572c 0 -0.26 0.143 -0.39 0.416 -0.39c 0.26 0 0.442 0.13 0.533 0.39c 0.013 0.065 0.104 0.39 0.247 0.949l 0.273 1.157l 0.39 1.482c 0.143 0.299 0.364 0.598 0.65 0.91c 0.377 0.416 0.845 0.624 1.404 0.624c 0.429 0 0.637 -0.286 0.637 -0.845c 0 -0.169 -0.065 -0.52 -0.195 -1.053l -0.351 -1.482c -0.091 -0.377 -0.299 -1.157 -0.403 -1.573c -0.013 -0.091 -0.026 -0.143 -0.026 -0.169c 0 -0.26 0.143 -0.39 0.429 -0.39c 0.143 0 0.247 0.039 0.338 0.13c 0.195 0.195 0.208 0.286 0.286 0.637l 0.767 3.081c 0.039 0.169 0.221 0.468 0.533 0.884c 0.39 0.52 0.91 0.78 1.547 0.78c 0.429 0 0.637 -0.286 0.637 -0.845c 0 -0.507 -0.26 -1.456 -0.793 -2.847c -0.117 -0.299 -0.169 -0.546 -0.169 -0.715c 0 -0.637 0.481 -1.105 1.105 -1.105c 0.585 0 1.027 0.325 1.352 0.975c 0.26 0.52 0.39 0.871 0.39 1.04c 0 0.117 -0.065 0.182 -0.208 0.182c -0.091 -0.013 -0.182 -0.13 -0.247 -0.273c -0.286 -1.027 -0.702 -1.547 -1.261 -1.547c -0.169 0 -0.26 0.13 -0.26 0.377c 0 0.195 0.078 0.481 0.234 0.884c 0.533 1.391 0.793 2.34 0.793 2.834c 0 0.923 -0.611 1.417 -1.534 1.417Z "/></symbol><symbol id="gCD18A55F4CC2CA429D96672C565B9565" overflow="visible"><path d="M 0 0m 5.317 4.589c 0 -0.338 0.182 -0.507 0.533 -0.507c 0.455 0 0.754 0.403 0.754 0.845c 0 0.507 -0.416 0.858 -0.923 0.858c -0.585 0 -1.209 -0.39 -1.898 -1.157c -0.533 -0.585 -0.962 -0.962 -1.313 -1.131l 1.313 5.33c -0.026 0.117 -0.052 0.195 -0.221 0.195c -0.416 0 -1.404 -0.117 -1.56 -0.13c -0.195 -0.026 -0.286 -0.117 -0.286 -0.312c 0 -0.13 0.117 -0.195 0.351 -0.195c 0.247 0 0.585 0.013 0.585 -0.169l -1.885 -7.657c -0.039 -0.143 -0.052 -0.234 -0.052 -0.286c 0 -0.273 0.143 -0.416 0.416 -0.416c 0.221 0 0.39 0.104 0.481 0.299c 0.065 0.117 0.299 1.04 0.715 2.782c 0.676 -0.065 1.391 -0.39 1.391 -1.04c 0 -0.195 -0.091 -0.585 -0.091 -0.715c 0 -0.741 0.481 -1.326 1.222 -1.326c 0.754 0 1.261 0.676 1.521 2.028c 0 0.117 -0.065 0.182 -0.195 0.182c -0.117 0 -0.195 -0.091 -0.234 -0.273c -0.286 -1.027 -0.637 -1.547 -1.066 -1.547c -0.234 0 -0.351 0.182 -0.351 0.546c 0 0.208 0.156 0.91 0.156 1.118c 0 0.741 -0.598 1.196 -1.807 1.378c 0.299 0.208 0.637 0.507 1.001 0.897c 0.364 0.39 0.624 0.637 0.793 0.78c 0.351 0.286 0.689 0.429 0.988 0.429c 0.13 0 0.234 -0.026 0.312 -0.078c -0.351 -0.065 -0.65 -0.39 -0.65 -0.728Z "/></symbol><symbol id="gC7B20184179011BBC954B5E7CD84FB69" overflow="visible"><path d="M 0 0m 7.6167 4.9049c 0 0.4368 -0.2184 0.7735 -0.6552 1.0101c -0.3549 0.2002 -0.7735 0.3003 -1.2467 0.3003h -3.276c -0.2093 0 -0.3276 -0.0273 -0.3276 -0.2366c 0 -0.1001 0.0637 -0.1456 0.1911 -0.1547l 0.4732 -0.0182c 0.1183 -0.0091 0.1729 0 0.1729 -0.091l -1.2285 -4.9686c -0.0455 -0.182 -0.1365 -0.2912 -0.273 -0.3367c -0.0455 -0.0091 -0.2002 -0.0182 -0.4823 -0.0182h -0.1547c -0.1001 -0.0091 -0.1547 -0.0819 -0.1547 -0.2184c 0 -0.1547 0.1183 -0.1729 0.3094 -0.1729h 3.4853c 0.6097 0 1.1921 0.1729 1.7472 0.5096c 0.6461 0.3913 0.9646 0.8736 0.9646 1.4469c 0 0.728 -0.6916 1.1739 -1.3741 1.3013c 0.8099 0.182 1.8291 0.7826 1.8291 1.6471Z m -0.9555 0.0091c 0 -0.455 -0.2275 -0.8281 -0.6734 -1.1284c -0.4004 -0.2639 -0.8372 -0.3913 -1.3195 -0.3913h -1.4287l 0.5369 2.1476c 0.0728 0.273 0.0728 0.2821 0.4277 0.2821h 1.365c 0.6279 0 1.092 -0.3185 1.092 -0.91Z m -0.4823 -2.8938c 0 -0.4732 -0.2184 -0.8736 -0.6461 -1.1921c -0.3913 -0.2912 -0.8281 -0.4368 -1.3195 -0.4368h -1.4469c -0.1729 0 -0.2548 -0.0182 -0.2548 0.0546l 0.6461 2.6208h 1.8837c 0.6643 0 1.1375 -0.3822 1.1375 -1.0465Z "/></symbol><symbol id="g2D1FD5FA7721AD843D67732819992226" overflow="visible"><path d="M 0 0m 4.472 8.203c 0 -0.039 -0.013 -0.13 -0.052 -0.26l -1.716 -6.864c -0.052 -0.195 -0.104 -0.312 -0.143 -0.364c -0.117 -0.143 -0.559 -0.208 -1.339 -0.208c -0.403 0 -0.585 0.039 -0.585 -0.299c 0 -0.143 0.091 -0.208 0.26 -0.208c 0.663 0 1.599 0.052 2.158 0.039l 1.066 -0.013c 0.182 0 0.897 -0.026 1.118 -0.026c 0.221 0 0.325 0.104 0.325 0.312c 0 0.13 -0.156 0.195 -0.481 0.195c -0.676 0 -1.066 0.026 -1.183 0.091c -0.039 0.026 -0.065 0.078 -0.065 0.156l 1.755 7.085c 0.039 0.182 0.078 0.299 0.117 0.338c 0.052 0.078 0.364 0.117 0.936 0.117c 0.715 0 1.209 -0.052 1.456 -0.169c 0.247 -0.117 0.377 -0.39 0.377 -0.832c 0 -0.234 -0.039 -0.572 -0.104 -1.014c -0.026 -0.104 -0.039 -0.182 -0.039 -0.247c 0 -0.143 0.065 -0.221 0.208 -0.221c 0.117 0 0.195 0.117 0.234 0.338l 0.351 2.236c 0.013 0.065 0.026 0.143 0.026 0.221c 0 0.13 -0.13 0.195 -0.403 0.195h -7.124c -0.338 0 -0.364 -0.039 -0.468 -0.286l -0.767 -2.262c -0.039 -0.117 -0.065 -0.195 -0.078 -0.247c 0 -0.13 0.065 -0.195 0.208 -0.195c 0.104 0 0.195 0.104 0.26 0.299c 0.325 0.949 0.65 1.534 0.949 1.781c 0.338 0.273 0.988 0.403 1.937 0.403h 0.507c 0.143 0 0.299 0.013 0.299 -0.091Z "/></symbol></defs></svg>