<svg viewBox="0 0 158.613577778 37.57" width="158.613577778pt" height="37.57pt" xmlns="http://www.w3.org/2000/svg" xmlns:xlink="http://www.w3.org/1999/xlink" xmlns:h5="http://www.w3.org/1999/xhtml"><g transform="matrix(1 0 0 -1 6.5 21.359)"><use xlink:href="#g219318600111ED0DDD69E7A24294373" x="0" y="0" fill="#e6edf3" fill-rule="nonzero"/></g><g transform="matrix(1 0 0 -1 21.200111111 21.359)"><use xlink:href="#g13AFF74D87C474CFAF661EEAD0458F8B" x="0" y="0" fill="#e6edf3" fill-rule="nonzero"/></g><g transform="matrix(1 0 0 -1 51.653622222 12.558)"><use xlink:href="#g6B3DB0E0ADE6D994825CC39624067234" x="0" y="0" fill="#e6edf3" fill-rule="nonzero"/></g><g transform="matrix(1 0 0 -1 36.225222222 30.277)"><use xlink:href="#g20CFFEADE4897488A8BFC1664802F723" x="0" y="0" fill="#e6edf3" fill-rule="nonzero"/></g><g transform="matrix(1 0 0 -1 42.725222222 30.277)"><use xlink:href="#g3286A19CC752B68D2D94F2BC1EB495F" x="0" y="0" fill="#e6edf3" fill-rule="nonzero"/></g><g transform="matrix(1 0 0 -1 50.460222222 30.277)"><use xlink:href="#gC0145148BC36294A1E6393678561EC4B" x="0" y="0" fill="#e6edf3" fill-rule="nonzero"/></g><g transform="matrix(1 0 0 -1 55.738222222 33.488)"><use xlink:href="#g66C287F757172C4FBEE46C9B113A6E1F" x="0" y="0" fill="#e6edf3" fill-rule="nonzero"/></g><g transform="matrix(1 0 0 -1 61.644122222 30.277)"><use xlink:href="#gF5FB9F3934311C9D089606536CC9B01A" x="0" y="0" fill="#e6edf3" fill-rule="nonzero"/></g><g transform="matrix(1 0 0 -1 67.676122222 26.52)"><use xlink:href="#g5EE8C4A84F8A12CB3DE79793924C3207" x="0" y="0" fill="#e6edf3" fill-rule="nonzero"/></g><path fill="none" stroke="#e6edf3" stroke-width="0.624" stroke-linecap="butt" stroke-linejoin="miter" stroke-miterlimit="4" transform="translate(36.225222222 18.109)" d="M 0 0h 37.3568"/><g transform="matrix(1 0 0 -1 74.882022222 21.359)"><use xlink:href="#gCA149633E7D67E58F5B4D4B500D841BD" x="0" y="0" fill="#e6edf3" fill-rule="nonzero"/></g><g transform="matrix(1 0 0 -1 78.574022222 21.359)"><use xlink:href="#gD5105E1CC4CD5829824BEAD95693D8C5" x="0" y="0" fill="#e6edf3" fill-rule="nonzero"/></g><g transform="matrix(1 0 0 -1 85.074022222 21.359)"><use xlink:href="#g2D7122AD31FABF41BED931716B883F58" x="0" y="0" fill="#e6edf3" fill-rule="nonzero"/></g><g transform="matrix(1 0 0 -1 90.131022222 21.359)"><use xlink:href="#gBCE9C3F416AF5E19F6F90E3B26988558" x="0" y="0" fill="#e6edf3" fill-rule="nonzero"/></g><g transform="matrix(1 0 0 -1 101.001911111 21.359)"><use xlink:href="#gB323F9E42E1C20C087FBF81136E27860" x="0" y="0" fill="#e6edf3" fill-rule="nonzero"/></g><g transform="matrix(1 0 0 -1 107.5048 21.359)"><use xlink:href="#gF5FB9F3934311C9D089606536CC9B01A" x="0" y="0" fill="#e6edf3" fill-rule="nonzero"/></g><g transform="matrix(1 0 0 -1 107.4658 21.359)"><use xlink:href="#g5B90E9196699B0DF3EE96BEA297F231B" x="0" y="0" fill="#e6edf3" fill-rule="nonzero"/></g><g transform="matrix(1 0 0 -1 113.5368 21.359)"><use xlink:href="#g2F93E6EEEE2061842AA37F49EEA2F1A2" x="0" y="0" fill="#e6edf3" fill-rule="nonzero"/></g><g transform="matrix(1 0 0 -1 118.5938 21.359)"><use xlink:href="#gF5FB9F3934311C9D089606536CC9B01A" x="0" y="0" fill="#e6edf3" fill-rule="nonzero"/></g><g transform="matrix(1 0 0 -1 118.5548 21.359)"><use xlink:href="#g5B90E9196699B0DF3EE96BEA297F231B" x="0" y="0" fill="#e6edf3" fill-rule="nonzero"/></g><g transform="matrix(1 0 0 -1 127.514688889 21.359)"><use xlink:href="#g9B543B57F718853EF8F95EF155B6CF69" x="0" y="0" fill="#e6edf3" fill-rule="nonzero"/></g><g transform="matrix(1 0 0 -1 140.517577778 21.359)"><use xlink:href="#gBCE9C3F416AF5E19F6F90E3B26988558" x="0" y="0" fill="#e6edf3" fill-rule="nonzero"/></g><g transform="matrix(1 0 0 -1 148.499577778 21.359)"><use xlink:href="#g40BCF21C5F299F0459A9B25B2740A57D" x="0" y="0" fill="#e6edf3" fill-rule="nonzero"/></g><defs><symbol id="g219318600111ED0DDD69E7A24294373" overflow="visible"><path d="M 0 0m 10.725 8.606c 0 0.234 -0.221 0.234 -0.429 0.234h -7.202c -0.273 0 -0.286 -0.013 -0.351 -0.065c -0.091 -0.065 -0.117 -0.312 -0.117 -0.312c 0 -0.234 0.182 -0.234 0.533 -0.234c 0.273 0 0.52 -0.013 0.793 -0.026l -1.833 -7.332c -0.052 -0.208 -0.065 -0.221 -0.299 -0.247c -0.221 -0.013 -0.481 -0.013 -0.689 -0.013c -0.338 0 -0.364 0 -0.416 -0.026c -0.156 -0.091 -0.156 -0.299 -0.156 -0.351c 0 -0.234 0.221 -0.234 0.442 -0.234h 7.423c 0.312 0 0.364 0 0.481 0.273l 1.248 2.821c 0.078 0.169 0.078 0.234 0.078 0.234c 0 0.234 -0.247 0.234 -0.312 0.234c -0.208 0 -0.221 -0.026 -0.377 -0.377c -0.78 -1.716 -1.456 -2.574 -3.653 -2.574h -1.69c -0.195 0 -0.221 0 -0.312 0.013l 0.91 3.653h 0.897c 0.767 0 1.027 -0.117 1.027 -0.559c 0 -0.208 -0.091 -0.559 -0.104 -0.598l -0.013 -0.13c 0 -0.195 0.169 -0.234 0.299 -0.234c 0.247 0 0.26 0.078 0.325 0.312l 0.728 2.899c 0.052 0.169 0.052 0.208 0.052 0.208c 0 0.234 -0.26 0.234 -0.312 0.234c -0.247 0 -0.273 -0.091 -0.338 -0.338c -0.26 -0.975 -0.65 -1.183 -1.625 -1.183h -0.78l 0.819 3.315c 0.169 0.026 0.312 0.026 0.442 0.026h 1.703c 1.417 0 1.989 -0.312 1.989 -1.547c 0 -0.234 -0.052 -0.52 -0.052 -0.728c 0 -0.247 0.247 -0.247 0.312 -0.247c 0.273 0 0.286 0.13 0.312 0.364c 0.078 0.845 0.182 1.677 0.247 2.535Z "/></symbol><symbol id="g13AFF74D87C474CFAF661EEAD0458F8B" overflow="visible"><path d="M 0 0m 9.074 4.771h -8.034c -0.208 0 -0.312 -0.104 -0.312 -0.299c 0 -0.195 0.104 -0.299 0.312 -0.299h 8.034c 0.208 0 0.312 0.104 0.312 0.299c 0 0.156 -0.143 0.299 -0.312 0.299Z m 0 -2.444h -8.034c -0.208 0 -0.312 -0.104 -0.312 -0.299c 0 -0.195 0.104 -0.299 0.312 -0.299h 8.034c 0.208 0 0.312 0.104 0.312 0.299c 0 0.169 -0.143 0.299 -0.312 0.299Z "/></symbol><symbol id="g6B3DB0E0ADE6D994825CC39624067234" overflow="visible"><path d="M 0 0m 3.497 8.658c -0.533 -0.546 -1.313 -0.819 -2.34 -0.819v -0.507c 0.676 0 1.235 0.104 1.664 0.312v -6.578c 0 -0.234 -0.052 -0.39 -0.169 -0.455c -0.117 -0.065 -0.442 -0.104 -0.962 -0.104h -0.455v -0.507c 0.325 0.026 1.027 0.039 2.106 0.039c 1.079 0 1.781 -0.013 2.106 -0.039v 0.507h -0.455c -0.533 0 -0.858 0.039 -0.962 0.104c -0.104 0.065 -0.169 0.221 -0.169 0.455v 7.202c 0 0.312 -0.026 0.39 -0.364 0.39Z "/></symbol><symbol id="g20CFFEADE4897488A8BFC1664802F723" overflow="visible"><path d="M 0 0m 4.589 8.801c -0.117 0 -0.221 -0.065 -0.299 -0.182l -3.926 -6.032v -0.468h 3.393v -1.066c 0 -0.234 -0.052 -0.39 -0.143 -0.455c -0.091 -0.065 -0.338 -0.091 -0.767 -0.091h -0.325v -0.507c 0.377 0.026 0.975 0.039 1.781 0.039c 0.806 0 1.404 -0.013 1.781 -0.039v 0.507h -0.325c -0.429 0 -0.676 0.026 -0.767 0.091c -0.091 0.065 -0.143 0.221 -0.143 0.455v 1.066h 1.274v 0.507h -1.274v 5.954c 0 0.13 -0.091 0.221 -0.26 0.221Z m -0.754 -1.612v -4.563h -2.964Z "/></symbol><symbol id="g3286A19CC752B68D2D94F2BC1EB495F" overflow="visible"><path d="M 0 0m 6.812 5.603h -4.29c -0.533 0 -1.001 -0.208 -1.378 -0.611c -0.182 -0.195 -0.793 -1.027 -0.793 -1.196c 0.052 -0.091 0.052 -0.169 0.208 -0.169c 0.091 0 0.169 0.052 0.247 0.169c 0.416 0.637 0.949 0.962 1.586 0.962h 0.663c -0.299 -1.131 -0.845 -2.522 -1.625 -4.173c -0.065 -0.156 -0.104 -0.273 -0.104 -0.338c 0 -0.26 0.143 -0.39 0.416 -0.39c 0.247 0 0.429 0.143 0.546 0.416c 0.234 0.741 0.403 1.313 0.494 1.703l 0.715 2.782h 1.339c -0.351 -1.547 -0.533 -2.626 -0.533 -3.237c 0 -0.637 0.143 -1.664 0.624 -1.664c 0.273 0 0.572 0.26 0.572 0.533c 0 0.065 -0.026 0.169 -0.078 0.299c -0.247 0.611 -0.364 1.3 -0.364 2.093c 0 0.611 0.078 1.274 0.221 1.976h 1.417c 0.455 0 0.676 0.156 0.676 0.481c 0 0.299 -0.234 0.364 -0.559 0.364Z "/></symbol><symbol id="gC0145148BC36294A1E6393678561EC4B" overflow="visible"><path d="M 0 0m 2.964 -0.143c 0.52 0 1.001 0.143 1.443 0.429c 0.169 0.117 0.247 0.208 0.247 0.273c 0 0.156 -0.065 0.234 -0.182 0.234l -0.182 -0.091c -0.481 -0.312 -0.91 -0.468 -1.3 -0.468c -0.871 0 -1.326 0.702 -1.326 1.612c 0 0.338 0.039 0.689 0.13 1.04h 2.054c 0.325 0 0.481 0.091 0.481 0.26c 0 0.156 -0.143 0.234 -0.416 0.234h -1.989c 0.351 1.157 1.053 1.729 2.106 1.729h 0.39c 0.312 0 0.468 0.091 0.468 0.26c 0 0.156 -0.143 0.234 -0.429 0.234h -0.442c -0.923 0 -1.729 -0.312 -2.405 -0.949c -0.676 -0.637 -1.001 -1.404 -1.001 -2.327c 0 -1.404 0.949 -2.47 2.353 -2.47Z "/></symbol><symbol id="g66C287F757172C4FBEE46C9B113A6E1F" overflow="visible"><path d="M 0 0m 4.6956 2.9029c 0 1.0283 -0.182 1.8109 -0.5369 2.3478c -0.2912 0.455 -0.8736 0.7917 -1.5743 0.7917c -0.2912 0 -0.5551 -0.0455 -0.7826 -0.1456c -1.001 -0.4186 -1.3286 -1.5834 -1.3286 -2.9939c 0 -0.3094 0.0182 -0.6006 0.0455 -0.8827c 0.1547 -1.1921 0.7098 -2.2022 2.0657 -2.2022c 0.2912 0 0.5551 0.0455 0.7826 0.1456c 1.001 0.4095 1.3286 1.547 1.3286 2.9393Z m -1.0374 2.0202c 0.1001 -0.3367 0.1547 -0.9646 0.1547 -1.9019c 0 -0.8918 -0.0364 -1.5197 -0.1183 -1.8928c -0.1092 -0.5369 -0.4914 -0.9828 -1.1102 -0.9828c -0.2275 0 -0.455 0.0728 -0.6643 0.2275c -0.2821 0.2093 -0.455 0.6188 -0.5278 1.2467c -0.0273 0.2093 -0.0364 0.6734 -0.0364 1.4014c 0 0.8827 0.0455 1.4924 0.1365 1.82c 0.1547 0.5824 0.5187 0.8736 1.092 0.8736c 0.546 0 0.9464 -0.3549 1.0738 -0.7917Z "/></symbol><symbol id="gF5FB9F3934311C9D089606536CC9B01A" overflow="visible"><path d="M 0 0m 5.668 4.862c 0 0.546 -0.533 0.884 -1.105 0.884c -0.637 0 -1.17 -0.299 -1.612 -0.91c -0.13 0.507 -0.572 0.91 -1.183 0.91c -0.533 0 -0.923 -0.416 -1.196 -1.261c -0.13 -0.429 -0.195 -0.676 -0.195 -0.754c 0 -0.117 0.065 -0.182 0.208 -0.182c 0.065 0 0.104 0.013 0.143 0.039c 0.065 0.117 0.104 0.208 0.117 0.299c 0.234 0.988 0.533 1.482 0.884 1.482c 0.221 0 0.338 -0.182 0.338 -0.546c 0 -0.169 -0.065 -0.52 -0.195 -1.053l -0.741 -2.951c -0.039 -0.169 -0.117 -0.507 -0.117 -0.572c 0 -0.26 0.143 -0.39 0.416 -0.39c 0.26 0 0.429 0.13 0.52 0.39l 0.247 0.936c 0.143 0.559 0.234 0.923 0.273 1.092l 0.403 1.664c 0.026 0.104 0.13 0.273 0.299 0.52c 0.351 0.494 0.754 0.91 1.391 0.91c 0.156 0 0.286 -0.026 0.403 -0.091c -0.39 -0.117 -0.585 -0.364 -0.585 -0.715c 0 -0.338 0.182 -0.507 0.533 -0.507c 0.429 0 0.754 0.377 0.754 0.806Z "/></symbol><symbol id="g5EE8C4A84F8A12CB3DE79793924C3207" overflow="visible"><path d="M 0 0m 3.2123 3.2123c 0.6097 0.2457 1.1921 0.7826 1.1921 1.5561c 0 0.4095 -0.2184 0.7371 -0.6461 0.9737c -0.3549 0.2002 -0.7553 0.3003 -1.2012 0.3003c -0.4459 0 -0.8372 -0.091 -1.1739 -0.2821c -0.4095 -0.2275 -0.6188 -0.546 -0.6188 -0.9555c 0 -0.3458 0.1729 -0.5187 0.5096 -0.5187c 0.2821 0 0.4914 0.2184 0.4914 0.5005c 0 0.2821 -0.1456 0.4459 -0.4277 0.4914c 0.2639 0.2821 0.6552 0.4277 1.1921 0.4277c 0.5915 0 0.9282 -0.3549 0.9282 -0.9373c 0 -0.4277 -0.1183 -0.7735 -0.3458 -1.0465c -0.2548 -0.3003 -0.4368 -0.3458 -0.9646 -0.3822c -0.2457 -0.0182 -0.4095 0.0091 -0.4095 -0.1729c 0 -0.1092 0.091 -0.1638 0.2639 -0.1638h 0.4823c 0.7826 0 1.1648 -0.5915 1.1648 -1.4105c 0 -0.8008 -0.364 -1.4105 -1.1284 -1.4105c -0.6643 0 -1.1466 0.182 -1.4469 0.5551c 0.3185 0.0364 0.4823 0.2184 0.4823 0.5369c 0 0.3003 -0.2275 0.5278 -0.5278 0.5278c -0.3549 0 -0.5369 -0.182 -0.5369 -0.5551c 0 -0.4641 0.2366 -0.8372 0.7007 -1.1011c 0.3913 -0.2184 0.8372 -0.3276 1.3468 -0.3276c 0.5551 0 1.0374 0.1547 1.456 0.4641c 0.455 0.3367 0.6825 0.7735 0.6825 1.3104c 0 0.8463 -0.7371 1.4287 -1.4651 1.6198Z "/></symbol><symbol id="gCA149633E7D67E58F5B4D4B500D841BD" overflow="visible"><path d="M 0 0m 3.029 -2.626h -0.962v 11.752h 0.962c 0.195 0 0.299 0.104 0.299 0.312c 0 0.208 -0.104 0.312 -0.299 0.312h -1.547v -13h 1.547c 0.195 0 0.299 0.104 0.299 0.312c 0 0.156 -0.143 0.312 -0.299 0.312Z "/></symbol><symbol id="gD5105E1CC4CD5829824BEAD95693D8C5" overflow="visible"><path d="M 0 0m 3.939 4.589c 0.858 0.325 1.664 1.144 1.664 2.249c 0 0.559 -0.273 1.014 -0.806 1.365c -0.468 0.299 -1.001 0.455 -1.599 0.455c -0.585 0 -1.092 -0.156 -1.547 -0.455c -0.507 -0.338 -0.767 -0.78 -0.767 -1.339c 0 -0.429 0.286 -0.728 0.702 -0.728c 0.416 0 0.702 0.299 0.702 0.715c 0 0.429 -0.247 0.663 -0.741 0.689c 0.338 0.455 0.871 0.689 1.599 0.689c 0.78 0 1.17 -0.455 1.17 -1.378c 0 -0.546 -0.104 -1.001 -0.299 -1.378c -0.351 -0.624 -0.832 -0.741 -1.638 -0.741c -0.156 -0.026 -0.234 -0.091 -0.234 -0.208c 0 -0.195 0.091 -0.195 0.351 -0.195h 0.559c 0.975 0 1.469 -0.689 1.469 -2.08c 0 -1.105 -0.403 -2.067 -1.391 -2.067c -0.845 0 -1.469 0.286 -1.846 0.858c 0.455 -0.013 0.793 0.325 0.793 0.767c 0 0.442 -0.325 0.767 -0.767 0.767c -0.507 0 -0.767 -0.26 -0.767 -0.793c 0 -0.637 0.286 -1.144 0.858 -1.547c 0.507 -0.351 1.105 -0.52 1.768 -0.52c 0.741 0 1.378 0.247 1.937 0.728c 0.559 0.481 0.832 1.079 0.832 1.807c 0 1.222 -0.962 2.067 -2.002 2.34Z "/></symbol><symbol id="g2D7122AD31FABF41BED931716B883F58" overflow="visible"><path d="M 0 0m 4.134 -3.224c 0.117 0 0.182 0.065 0.182 0.182c 0 0.039 -0.026 0.091 -0.065 0.143c -0.676 0.52 -1.222 1.378 -1.625 2.561c -0.351 1.027 -0.533 2.041 -0.533 3.042v 1.092c 0 1.001 0.182 2.015 0.533 3.042c 0.403 1.183 0.949 2.041 1.625 2.561c 0.039 0.039 0.065 0.091 0.065 0.143c 0 0.117 -0.065 0.182 -0.182 0.182c -0.013 0 -0.052 -0.013 -0.091 -0.039c -0.78 -0.598 -1.43 -1.482 -1.963 -2.665c -0.507 -1.131 -0.767 -2.197 -0.767 -3.224v -1.092c 0 -1.027 0.26 -2.093 0.767 -3.224c 0.533 -1.183 1.183 -2.067 1.963 -2.665c 0.039 -0.026 0.078 -0.039 0.091 -0.039Z "/></symbol><symbol id="gBCE9C3F416AF5E19F6F90E3B26988558" overflow="visible"><path d="M 0 0m 7.618 3.731c 0 1.599 -1.196 2.145 -2.275 2.145c -0.923 0 -1.599 -0.507 -1.807 -0.702c -0.494 0.702 -1.352 0.702 -1.495 0.702c -0.481 0 -0.858 -0.273 -1.131 -0.741c -0.325 -0.52 -0.494 -1.222 -0.494 -1.287c 0 -0.182 0.195 -0.182 0.312 -0.182c 0.143 0 0.195 0 0.26 0.065c 0.026 0.026 0.026 0.052 0.104 0.377c 0.26 1.04 0.559 1.3 0.884 1.3c 0.143 0 0.299 -0.052 0.299 -0.481c 0 -0.195 -0.026 -0.377 -0.078 -0.559l -1.521 -6.045c -0.052 -0.182 -0.078 -0.208 -0.078 -0.208c -0.078 -0.026 -0.221 -0.026 -0.338 -0.026c -0.221 0 -0.455 0 -0.455 -0.364c 0 -0.143 0.104 -0.247 0.247 -0.247c 0.377 0 0.806 0.039 1.196 0.039c 0.455 0 0.949 -0.039 1.391 -0.039c 0.091 0 0.338 0 0.338 0.377c 0 0.221 -0.208 0.234 -0.338 0.234c -0.182 0 -0.39 0 -0.559 0.013l 0.559 2.262c 0.195 -0.182 0.624 -0.468 1.313 -0.468c 2.262 0 3.666 2.054 3.666 3.835Z m -1.469 0.689c 0 -0.676 -0.442 -2.275 -0.65 -2.782c -0.403 -0.949 -1.04 -1.274 -1.573 -1.274c -0.767 0 -1.079 0.611 -1.079 0.754l 0.026 0.182l 0.793 3.263c 0.377 0.442 0.988 0.845 1.612 0.845c 0.806 0 0.871 -0.702 0.871 -0.988Z "/></symbol><symbol id="gB323F9E42E1C20C087FBF81136E27860" overflow="visible"><path d="M 0 0m 2.496 3.25c 0 0.377 -0.312 0.689 -0.689 0.689c -0.377 0 -0.689 -0.312 -0.689 -0.689c 0 -0.377 0.312 -0.689 0.689 -0.689c 0.377 0 0.689 0.312 0.689 0.689Z "/></symbol><symbol id="g5B90E9196699B0DF3EE96BEA297F231B" overflow="visible"><path d="M 0 0m 5.018 6.695l 0.221 0.234l -1.989 2.093l -1.989 -2.093l 0.221 -0.234l 1.768 1.339Z "/></symbol><symbol id="g2F93E6EEEE2061842AA37F49EEA2F1A2" overflow="visible"><path d="M 0 0m 1.014 -3.185c 0.78 0.598 1.43 1.482 1.963 2.665c 0.507 1.131 0.767 2.197 0.767 3.224v 1.092c 0 1.027 -0.26 2.093 -0.767 3.224c -0.533 1.183 -1.183 2.067 -1.963 2.665c -0.039 0.026 -0.078 0.039 -0.091 0.039c -0.117 0 -0.182 -0.065 -0.182 -0.182c 0 -0.052 0.026 -0.104 0.065 -0.143c 0.676 -0.52 1.222 -1.378 1.625 -2.561c 0.351 -1.027 0.533 -2.041 0.533 -3.042v -1.092c 0 -1.001 -0.182 -2.015 -0.533 -3.042c -0.403 -1.183 -0.949 -2.041 -1.625 -2.561c -0.039 -0.052 -0.065 -0.104 -0.065 -0.143c 0 -0.117 0.065 -0.182 0.182 -0.182c 0.013 0 0.052 0.013 0.091 0.039Z "/></symbol><symbol id="g9B543B57F718853EF8F95EF155B6CF69" overflow="visible"><path d="M 0 0m 9.074 3.51h -8.034c -0.208 0 -0.312 -0.091 -0.312 -0.26c 0 -0.169 0.104 -0.26 0.312 -0.26h 8.034c 0.208 0 0.312 0.091 0.312 0.26c 0 0.156 -0.156 0.26 -0.312 0.26Z "/></symbol><symbol id="g40BCF21C5F299F0459A9B25B2740A57D" overflow="visible"><path d="M 0 0m 0.585 -3.25h 1.547v 13h -1.547c -0.195 0 -0.299 -0.104 -0.299 -0.312c 0 -0.208 0.104 -0.312 0.299 -0.312h 0.962v -11.752h -0.962c -0.195 0 -0.299 -0.104 -0.299 -0.312c 0 -0.208 0.104 -0.312 0.299 -0.312Z "/></symbol></defs></svg>