<svg viewBox="0 0 187.3274 16.679" width="187.3274pt" height="16.679pt" xmlns="http://www.w3.org/2000/svg" xmlns:xlink="http://www.w3.org/1999/xlink" xmlns:h5="http://www.w3.org/1999/xhtml"><g transform="matrix(1 0 0 -1 6.5 12.779)"><use xlink:href="#g6697F866823FE95C3132B77B4272D97A" x="0" y="0" fill="#e6edf3" fill-rule="nonzero"/></g><g transform="matrix(1 0 0 -1 14.183 15.99)"><use xlink:href="#g31B61B3DC86BBCC37CEA5A6A7246B2DC" x="0" y="0" fill="#e6edf3" fill-rule="nonzero"/></g><g transform="matrix(1 0 0 -1 23.090311111 12.779)"><use xlink:href="#g13AFF74D87C474CFAF661EEAD0458F8B" x="0" y="0" fill="#e6edf3" fill-rule="nonzero"/></g><g transform="matrix(1 0 0 -1 36.815422222 12.779)"><use xlink:href="#gA01F6DC51669829F49C013CF8E967E44" x="0" y="0" fill="#e6edf3" fill-rule="nonzero"/></g><g transform="matrix(1 0 0 -1 50.533311111 12.779)"><use xlink:href="#g596E6AE655F7C550875F3D7A9A58D2C7" x="0" y="0" fill="#e6edf3" fill-rule="nonzero"/></g><g transform="matrix(1 0 0 -1 63.5362 12.779)"><use xlink:href="#gBA06005D305302ED8D9E1AED23F144F" x="0" y="0" fill="#e6edf3" fill-rule="nonzero"/></g><g transform="matrix(1 0 0 -1 105.7082 12.779)"><use xlink:href="#g7E0DE8510F76F8FD5F8C8A25983FCF95" x="0" y="0" fill="#e6edf3" fill-rule="nonzero"/></g><g transform="matrix(1 0 0 -1 118.3312 15.99)"><use xlink:href="#g31B61B3DC86BBCC37CEA5A6A7246B2DC" x="0" y="0" fill="#e6edf3" fill-rule="nonzero"/></g><g transform="matrix(1 0 0 -1 127.238511111 12.779)"><use xlink:href="#g13AFF74D87C474CFAF661EEAD0458F8B" x="0" y="0" fill="#e6edf3" fill-rule="nonzero"/></g><g transform="matrix(1 0 0 -1 140.963622222 12.779)"><use xlink:href="#gBA06005D305302ED8D9E1AED23F144F" x="0" y="0" fill="#e6edf3" fill-rule="nonzero"/></g><g transform="matrix(1 0 0 -1 160.024511111 12.779)"><use xlink:href="#g596E6AE655F7C550875F3D7A9A58D2C7" x="0" y="0" fill="#e6edf3" fill-rule="nonzero"/></g><g transform="matrix(1 0 0 -1 173.0274 12.779)"><use xlink:href="#g5AAD6B38658AAA3198C014B3B7995D3E" x="0" y="0" fill="#e6edf3" fill-rule="nonzero"/></g><g transform="matrix(1 0 0 -1 174.0024 12.779)"><use xlink:href="#g5B90E9196699B0DF3EE96BEA297F231B" x="0" y="0" fill="#e6edf3" fill-rule="nonzero"/></g><defs><symbol id="g6697F866823FE95C3132B77B4272D97A" overflow="visible"><path d="M 0 0m 9.022 8.684c 0 0 -0.013 0.234 -0.273 0.234c -0.26 0 -0.546 -0.026 -0.819 -0.026l -0.897 -0.013l -2.262 0.039c -0.156 0 -0.39 0 -0.39 -0.377c 0 -0.234 0.208 -0.234 0.442 -0.234h 0.455c 0.507 0 0.533 0 0.845 -0.039l -1.573 -6.305c -0.325 -1.326 -1.144 -1.716 -1.742 -1.716c -0.117 0 -0.676 0.013 -1.066 0.312c 0.702 0.169 0.936 0.78 0.936 1.131c 0 0.429 -0.351 0.741 -0.793 0.741c -0.52 0 -1.157 -0.416 -1.157 -1.235c 0 -0.897 0.897 -1.417 2.145 -1.417c 1.456 0 3.029 0.598 3.406 2.119l 1.547 6.162c 0.052 0.195 0.065 0.208 0.156 0.221c 0.156 0.026 0.338 0.026 0.494 0.026c 0.338 0 0.546 0 0.546 0.377Z "/></symbol><symbol id="g31B61B3DC86BBCC37CEA5A6A7246B2DC" overflow="visible"><path d="M 0 0m 2.912 4.0404c -0.3549 0 -0.7098 -0.1456 -1.0647 -0.4368l 0.5915 2.3933c 0.0091 0.0182 0.0182 0.0728 0.0364 0.1547c 0 0.1092 -0.0637 0.1638 -0.182 0.1638l -1.1466 -0.091c -0.1547 -0.0091 -0.2275 -0.091 -0.2275 -0.2457c 0 -0.1001 0.091 -0.1547 0.273 -0.1547c 0.1547 0 0.3913 0 0.3913 -0.1001c 0 -0.0273 -0.0091 -0.091 -0.0364 -0.1911c -0.1365 -0.5551 -0.2457 -0.9737 -0.3094 -1.2558l -0.5915 -2.3933c -0.0273 -0.1274 -0.0455 -0.2821 -0.0455 -0.455c 0 -0.8463 0.5187 -1.5197 1.3468 -1.5197c 0.6188 0 1.1648 0.2821 1.6471 0.8372c 0.4641 0.5369 0.6916 1.1284 0.6916 1.7563c 0 0.8645 -0.5369 1.5379 -1.3741 1.5379Z m -1.6107 -2.9302c 0 0.2457 0.1092 0.7917 0.3367 1.6471c 0.0273 0.1183 0.091 0.2366 0.2093 0.3731c 0.3367 0.3913 0.6825 0.5824 1.0374 0.5824c 0.4095 0 0.6188 -0.2821 0.6188 -0.8372c 0 -0.5278 -0.2821 -1.4196 -0.4641 -1.7836c -0.182 -0.3822 -0.5915 -0.8554 -1.0829 -0.8554c -0.4368 0 -0.6552 0.4004 -0.6552 0.8736Z "/></symbol><symbol id="g13AFF74D87C474CFAF661EEAD0458F8B" overflow="visible"><path d="M 0 0m 9.074 4.771h -8.034c -0.208 0 -0.312 -0.104 -0.312 -0.299c 0 -0.195 0.104 -0.299 0.312 -0.299h 8.034c 0.208 0 0.312 0.104 0.312 0.299c 0 0.156 -0.143 0.299 -0.312 0.299Z m 0 -2.444h -8.034c -0.208 0 -0.312 -0.104 -0.312 -0.299c 0 -0.195 0.104 -0.299 0.312 -0.299h 8.034c 0.208 0 0.312 0.104 0.312 0.299c 0 0.169 -0.143 0.299 -0.312 0.299Z "/></symbol><symbol id="gA01F6DC51669829F49C013CF8E967E44" overflow="visible"><path d="M 0 0m 10.14 8.541c 0.039 0.091 0.065 0.156 0.065 0.182c 0 0.104 -0.117 0.156 -0.338 0.156h -8.918c -0.221 0 -0.338 -0.052 -0.338 -0.169l 4.42 -8.879c 0.091 -0.169 0.208 -0.26 0.377 -0.26c 0.169 0 0.286 0.091 0.377 0.26Z m -4.355 -7.605l -3.458 6.929h 6.903Z "/></symbol><symbol id="g596E6AE655F7C550875F3D7A9A58D2C7" overflow="visible"><path d="M 0 0m 8.19 0.416c 0 0.091 -0.026 0.156 -0.091 0.221l -2.613 2.613l 2.613 2.613c 0.065 0.065 0.091 0.13 0.091 0.221c 0 0.169 -0.13 0.299 -0.299 0.299c -0.091 0 -0.156 -0.026 -0.221 -0.091l -2.613 -2.613l -2.613 2.613c -0.065 0.065 -0.13 0.091 -0.221 0.091c -0.169 0 -0.299 -0.13 -0.299 -0.299c 0 -0.091 0.026 -0.156 0.091 -0.221l 2.613 -2.613l -2.613 -2.613c -0.065 -0.065 -0.091 -0.13 -0.091 -0.221c 0 -0.169 0.13 -0.299 0.299 -0.299c 0.091 0 0.156 0.026 0.221 0.091l 2.613 2.613l 2.613 -2.613c 0.065 -0.065 0.13 -0.091 0.221 -0.091c 0.169 0 0.299 0.13 0.299 0.299Z "/></symbol><symbol id="gBA06005D305302ED8D9E1AED23F144F" overflow="visible"><path d="M 0 0m 15.808 8.684c 0 0.234 -0.208 0.234 -0.442 0.234h -2.314c -0.403 0 -0.468 -0.039 -0.663 -0.325l -4.875 -6.916l -1.391 6.877c -0.078 0.364 -0.195 0.364 -0.52 0.364h -2.444c -0.26 0 -0.481 0 -0.481 -0.377c 0 -0.234 0.169 -0.234 0.546 -0.234c 0.273 0 0.52 -0.013 0.793 -0.026l -1.82 -7.254c -0.065 -0.26 -0.065 -0.273 -0.39 -0.338c -0.312 -0.078 -0.702 -0.078 -0.741 -0.078c -0.247 0 -0.468 0 -0.468 -0.377c 0 -0.078 0.065 -0.234 0.26 -0.234c 0.468 0 0.962 0.039 1.443 0.039c 0.325 0 1.157 -0.039 1.482 -0.039c 0.104 0 0.351 0 0.351 0.377c 0 0.234 -0.221 0.234 -0.39 0.234c -0.143 0 -0.598 0 -0.91 0.13l 1.833 7.371h 0.013l 1.573 -7.722c 0.039 -0.195 0.078 -0.39 0.351 -0.39c 0.26 0 0.364 0.156 0.468 0.299l 5.616 7.995l 0.013 -0.013l -1.846 -7.41c -0.052 -0.208 -0.065 -0.221 -0.299 -0.247c -0.221 -0.013 -0.481 -0.013 -0.689 -0.013c -0.338 0 -0.364 0 -0.416 -0.026c -0.156 -0.091 -0.156 -0.299 -0.156 -0.351c 0 0 0.013 -0.234 0.286 -0.234c 0.312 0 0.637 0.026 0.949 0.026l 0.91 0.013l 1.001 -0.013c 0.312 0 0.624 -0.026 0.923 -0.026c 0.104 0 0.208 0 0.273 0.091c 0.078 0.078 0.091 0.286 0.091 0.286c 0 0.234 -0.169 0.234 -0.533 0.234c -0.273 0 -0.52 0.013 -0.793 0.026l 1.898 7.618c 0.286 0.052 0.741 0.052 0.884 0.052c 0.455 0 0.624 0 0.624 0.377Z "/></symbol><symbol id="g7E0DE8510F76F8FD5F8C8A25983FCF95" overflow="visible"><path d="M 0 0m 13.039 8.684c 0 0.117 -0.104 0.234 -0.234 0.234c -0.325 0 -0.702 -0.039 -1.04 -0.039c -0.533 0 -1.092 0.039 -1.625 0.039c -0.104 0 -0.364 0 -0.364 -0.377c 0 -0.234 0.234 -0.234 0.312 -0.234c 0.104 0 0.377 -0.013 0.598 -0.091l -5.928 -4.095l 1.027 4.134c 0.286 0.052 0.741 0.052 0.884 0.052c 0.169 0 0.429 0 0.481 0.039c 0.13 0.091 0.143 0.338 0.143 0.338c 0 0.169 -0.13 0.234 -0.286 0.234c -0.325 0 -0.663 -0.026 -0.988 -0.026l -0.975 -0.013l -1.001 0.013c -0.338 0 -0.689 0.026 -1.027 0.026c -0.117 0 -0.377 0 -0.377 -0.377c 0 -0.234 0.169 -0.234 0.546 -0.234c 0.273 0 0.52 -0.013 0.793 -0.026l -1.859 -7.41c -0.052 -0.208 -0.065 -0.221 -0.299 -0.247c -0.221 -0.013 -0.481 -0.013 -0.689 -0.013c -0.338 0 -0.364 0 -0.416 -0.026c -0.156 -0.091 -0.156 -0.299 -0.156 -0.351c 0 0 0.013 -0.234 0.286 -0.234c 0.325 0 0.663 0.026 0.988 0.026l 0.988 0.013l 1.001 -0.013c 0.338 0 0.689 -0.026 1.014 -0.026c 0.13 0 0.221 0 0.299 0.091c 0.052 0.078 0.078 0.286 0.078 0.286c 0 0.234 -0.182 0.234 -0.533 0.234c -0.273 0 -0.52 0.013 -0.793 0.026l 0.676 2.704l 1.612 1.105l 1.937 -3.757c -0.26 -0.078 -0.65 -0.078 -0.702 -0.078c -0.169 0 -0.247 0 -0.325 -0.091c -0.052 -0.065 -0.078 -0.286 -0.078 -0.286c 0 0 0 -0.234 0.273 -0.234l 1.924 0.039l 0.832 -0.013c 0.26 0 0.533 -0.026 0.78 -0.026c 0.091 0 0.351 0 0.351 0.377c 0 0.234 -0.221 0.234 -0.416 0.234c -0.598 0 -0.624 0.052 -0.728 0.26l -2.366 4.589c 0.871 0.611 3.25 2.288 3.705 2.522c 0.299 0.156 0.572 0.299 1.235 0.325c 0.234 0.013 0.442 0.013 0.442 0.377Z "/></symbol><symbol id="g5AAD6B38658AAA3198C014B3B7995D3E" overflow="visible"><path d="M 0 0m 6.981 1.781c -0.299 -1.027 -0.728 -1.547 -1.261 -1.547c -0.169 0 -0.26 0.13 -0.26 0.377c 0 0.182 0.078 0.481 0.234 0.884c 0.52 1.417 0.78 2.353 0.78 2.834c 0 0.91 -0.611 1.417 -1.521 1.417c -0.767 0 -1.43 -0.338 -1.963 -1.027c -0.104 0.572 -0.559 1.027 -1.222 1.027c -0.728 0 -1.014 -0.676 -1.196 -1.261c -0.13 -0.416 -0.195 -0.663 -0.195 -0.754c 0 -0.117 0.065 -0.182 0.208 -0.182c 0.065 0 0.104 0.013 0.143 0.039c 0.065 0.117 0.104 0.208 0.117 0.299c 0.234 0.988 0.533 1.482 0.884 1.482c 0.234 0 0.351 -0.182 0.351 -0.546c 0 -0.169 -0.065 -0.52 -0.208 -1.053l -0.741 -2.951c -0.039 -0.169 -0.117 -0.507 -0.117 -0.572c 0 -0.26 0.143 -0.39 0.429 -0.39c 0.247 0 0.429 0.13 0.52 0.39c 0.026 0.065 0.104 0.39 0.247 0.949l 0.273 1.157l 0.39 1.482c 0.143 0.299 0.364 0.598 0.637 0.91c 0.377 0.416 0.845 0.624 1.404 0.624c 0.429 0 0.637 -0.286 0.637 -0.845c 0 -0.494 -0.273 -1.482 -0.832 -2.964c -0.091 -0.234 -0.13 -0.429 -0.13 -0.598c 0 -0.637 0.481 -1.105 1.105 -1.105c 0.572 0 1.027 0.325 1.352 0.975c 0.247 0.52 0.377 0.871 0.377 1.04c 0 0.117 -0.065 0.182 -0.208 0.182c -0.039 0 -0.234 -0.117 -0.234 -0.273Z "/></symbol><symbol id="g5B90E9196699B0DF3EE96BEA297F231B" overflow="visible"><path d="M 0 0m 5.018 6.695l 0.221 0.234l -1.989 2.093l -1.989 -2.093l 0.221 -0.234l 1.768 1.339Z "/></symbol></defs></svg>