<svg viewBox="0 0 124.8936 16.9" width="124.8936pt" height="16.9pt" xmlns="http://www.w3.org/2000/svg" xmlns:xlink="http://www.w3.org/1999/xlink" xmlns:h5="http://www.w3.org/1999/xhtml"><g transform="matrix(1 0 0 -1 6.5 12.779)"><use xlink:href="#gCC416E75927AD0A8099D8AB0ED7855DE" x="0" y="0" fill="#e6edf3" fill-rule="nonzero"/></g><g transform="matrix(1 0 0 -1 20.303111111 12.779)"><use xlink:href="#g13AFF74D87C474CFAF661EEAD0458F8B" x="0" y="0" fill="#e6edf3" fill-rule="nonzero"/></g><g transform="matrix(1 0 0 -1 34.028222222 12.779)"><use xlink:href="#gA32CAC846971E9468FADD933D647D41A" x="0" y="0" fill="#e6edf3" fill-rule="nonzero"/></g><g transform="matrix(1 0 0 -1 41.867222222 15.99)"><use xlink:href="#g66C287F757172C4FBEE46C9B113A6E1F" x="0" y="0" fill="#e6edf3" fill-rule="nonzero"/></g><g transform="matrix(1 0 0 -1 47.773122222 12.779)"><use xlink:href="#g35B4FBA1E2C6B292D79BD0F4F0E600B8" x="0" y="0" fill="#e6edf3" fill-rule="nonzero"/></g><g transform="matrix(1 0 0 -1 61.709122222 12.779)"><use xlink:href="#gB84B4B524BFEEE6444EA3386B96F6612" x="0" y="0" fill="#e6edf3" fill-rule="nonzero"/></g><g transform="matrix(1 0 0 -1 68.508122222 12.779)"><use xlink:href="#g6B3DB0E0ADE6D994825CC39624067234" x="0" y="0" fill="#e6edf3" fill-rule="nonzero"/></g><g transform="matrix(1 0 0 -1 77.897011111 12.779)"><use xlink:href="#g9B543B57F718853EF8F95EF155B6CF69" x="0" y="0" fill="#e6edf3" fill-rule="nonzero"/></g><g transform="matrix(1 0 0 -1 92.1999 7.657)"><use xlink:href="#g8A6A9074F91D642F82CC8BE39AC39D3A" x="0" y="0" fill="#e6edf3" fill-rule="nonzero"/></g><g transform="matrix(1 0 0 -1 97.3778 7.657)"><use xlink:href="#g81CABFA788D1C3B17E7F7308C44F3DF" x="0" y="0" fill="#e6edf3" fill-rule="nonzero"/></g><g transform="matrix(1 0 0 -1 105.3585 4.3537)"><use xlink:href="#g7594C19EACA82C804431EC922115ECFD" x="0" y="0" fill="#e6edf3" fill-rule="nonzero"/></g><g transform="matrix(1 0 0 -1 95.212 17.4239)"><use xlink:href="#g3A3803C249DC4366E52B1910AD4ECAE2" x="0" y="0" fill="#e6edf3" fill-rule="nonzero"/></g><g transform="matrix(1 0 0 -1 102.3464 14.794)"><use xlink:href="#g7594C19EACA82C804431EC922115ECFD" x="0" y="0" fill="#e6edf3" fill-rule="nonzero"/></g><path fill="none" stroke="#e6edf3" stroke-width="0.624" stroke-linecap="butt" stroke-linejoin="miter" stroke-miterlimit="4" transform="translate(92.1999 9.529)" d="M 0 0h 18.0947"/><g transform="matrix(1 0 0 -1 111.5946 12.779)"><use xlink:href="#gB7EE54B2081D470F3808A2B249039CCF" x="0" y="0" fill="#e6edf3" fill-rule="nonzero"/></g><defs><symbol id="gCC416E75927AD0A8099D8AB0ED7855DE" overflow="visible"><path d="M 0 0m 9.828 7.059c 0 1.183 -1.17 1.82 -2.444 1.82h -4.316c -0.299 0 -0.429 -0.013 -0.429 -0.312c 0 -0.208 0.26 -0.195 0.416 -0.195c 0.39 -0.013 0.624 -0.039 0.689 -0.052c 0.065 -0.013 0.091 -0.052 0.091 -0.117c 0 -0.026 -0.013 -0.104 -0.052 -0.234l -1.716 -6.903c -0.065 -0.286 -0.195 -0.455 -0.39 -0.52c -0.091 -0.026 -0.325 -0.039 -0.728 -0.039c -0.273 0 -0.403 -0.104 -0.403 -0.312c 0 -0.13 0.13 -0.195 0.403 -0.195h 4.589c 0.845 0 1.625 0.26 2.366 0.767c 0.819 0.559 1.235 1.248 1.235 2.054c 0 1.027 -0.845 1.651 -1.768 1.833c 1.144 0.273 2.457 1.144 2.457 2.405Z m -2.626 1.313c 0.897 0 1.352 -0.416 1.352 -1.261c 0 -0.663 -0.26 -1.209 -0.806 -1.651c -0.546 -0.442 -1.157 -0.65 -1.82 -0.65h -1.807l 0.78 3.12c 0.104 0.442 0.104 0.442 0.65 0.442Z m 0.364 -4.485c 0.182 -0.299 0.273 -0.598 0.273 -0.923c 0 -0.676 -0.26 -1.261 -0.793 -1.742c -0.533 -0.481 -1.131 -0.715 -1.82 -0.715h -1.755c -0.13 0 -0.221 0 -0.273 0.013c -0.078 0 -0.117 0.026 -0.117 0.065c 0 0.013 0 0.052 0.013 0.104c 0.403 1.651 0.715 2.899 0.923 3.731h 2.392c 0.559 0 0.936 -0.182 1.157 -0.533Z "/></symbol><symbol id="g13AFF74D87C474CFAF661EEAD0458F8B" overflow="visible"><path d="M 0 0m 9.074 4.771h -8.034c -0.208 0 -0.312 -0.104 -0.312 -0.299c 0 -0.195 0.104 -0.299 0.312 -0.299h 8.034c 0.208 0 0.312 0.104 0.312 0.299c 0 0.156 -0.143 0.299 -0.312 0.299Z m 0 -2.444h -8.034c -0.208 0 -0.312 -0.104 -0.312 -0.299c 0 -0.195 0.104 -0.299 0.312 -0.299h 8.034c 0.208 0 0.312 0.104 0.312 0.299c 0 0.169 -0.143 0.299 -0.312 0.299Z "/></symbol><symbol id="gA32CAC846971E9468FADD933D647D41A" overflow="visible"><path d="M 0 0m 7.436 1.846c 0 0.117 -0.065 0.182 -0.208 0.182c -0.104 0 -0.182 -0.091 -0.221 -0.26c -0.26 -1.04 -0.572 -1.56 -0.923 -1.56c -0.221 0 -0.338 0.182 -0.338 0.546c 0 0.221 0.078 0.663 0.247 1.313l 0.364 1.391c 0.117 0.468 0.221 0.793 0.299 1.196l 0.078 0.364c 0.026 0.091 0.039 0.156 0.039 0.182c 0 0.273 -0.143 0.403 -0.429 0.403c -0.286 0 -0.468 -0.156 -0.546 -0.481l -0.936 -3.718c 0 -0.143 -0.208 -0.403 -0.624 -0.793c -0.286 -0.273 -0.611 -0.403 -0.988 -0.403c -0.598 0 -0.897 0.351 -0.897 1.066c 0 0.247 0.052 0.598 0.169 1.079l 0.546 2.158c 0.104 0.403 0.169 0.689 0.195 0.832c 0 0.273 -0.143 0.403 -0.429 0.403c -0.286 0 -0.468 -0.169 -0.559 -0.507l -1.846 -7.436c -0.026 -0.104 -0.039 -0.169 -0.039 -0.208c 0 -0.273 0.143 -0.403 0.416 -0.403c 0.195 0 0.351 0.104 0.494 0.299c 0.039 0.091 0.26 0.988 0.689 2.691c 0.312 -0.234 0.715 -0.351 1.209 -0.351c 0.767 0 1.274 0.403 1.677 0.871c 0.143 -0.481 0.572 -0.871 1.183 -0.871c 0.897 0 1.17 1.053 1.378 2.015Z "/></symbol><symbol id="g66C287F757172C4FBEE46C9B113A6E1F" overflow="visible"><path d="M 0 0m 4.6956 2.9029c 0 1.0283 -0.182 1.8109 -0.5369 2.3478c -0.2912 0.455 -0.8736 0.7917 -1.5743 0.7917c -0.2912 0 -0.5551 -0.0455 -0.7826 -0.1456c -1.001 -0.4186 -1.3286 -1.5834 -1.3286 -2.9939c 0 -0.3094 0.0182 -0.6006 0.0455 -0.8827c 0.1547 -1.1921 0.7098 -2.2022 2.0657 -2.2022c 0.2912 0 0.5551 0.0455 0.7826 0.1456c 1.001 0.4095 1.3286 1.547 1.3286 2.9393Z m -1.0374 2.0202c 0.1001 -0.3367 0.1547 -0.9646 0.1547 -1.9019c 0 -0.8918 -0.0364 -1.5197 -0.1183 -1.8928c -0.1092 -0.5369 -0.4914 -0.9828 -1.1102 -0.9828c -0.2275 0 -0.455 0.0728 -0.6643 0.2275c -0.2821 0.2093 -0.455 0.6188 -0.5278 1.2467c -0.0273 0.2093 -0.0364 0.6734 -0.0364 1.4014c 0 0.8827 0.0455 1.4924 0.1365 1.82c 0.1547 0.5824 0.5187 0.8736 1.092 0.8736c 0.546 0 0.9464 -0.3549 1.0738 -0.7917Z "/></symbol><symbol id="g35B4FBA1E2C6B292D79BD0F4F0E600B8" overflow="visible"><path d="M 0 0m 7.722 0.208c 0 -0.143 0.078 -0.208 0.247 -0.208l 1.599 0.039c 0.299 0.013 1.352 -0.039 1.599 -0.039c 0.195 0 0.299 0.104 0.299 0.312c 0 0.13 -0.13 0.195 -0.403 0.195c -0.533 0 -0.793 0.052 -0.793 0.169c 0 0.039 0.026 0.13 0.065 0.299l 1.716 6.851c 0.065 0.273 0.195 0.442 0.364 0.507c 0.078 0.026 0.312 0.039 0.689 0.039c 0.325 0 0.468 0.013 0.468 0.312c 0 0.13 -0.13 0.195 -0.403 0.195h -1.703c -0.377 0 -0.377 -0.026 -0.546 -0.273l -4.628 -7.202l -0.988 7.137c -0.052 0.325 -0.078 0.338 -0.455 0.338h -1.768c -0.286 0 -0.429 -0.013 -0.429 -0.299c 0 -0.143 0.143 -0.208 0.416 -0.208c 0.26 0 0.793 0.039 0.793 -0.169c 0 -0.026 -0.013 -0.104 -0.052 -0.234l -1.638 -6.539c -0.117 -0.494 -0.416 -0.793 -0.871 -0.884c -0.325 -0.039 -0.754 0.013 -0.754 -0.338c 0 -0.143 0.078 -0.208 0.234 -0.208c 0.234 0 1.053 0.039 1.287 0.039c 0.247 0 1.079 -0.039 1.326 -0.039c 0.195 0 0.286 0.104 0.286 0.312c 0 0.117 -0.091 0.182 -0.286 0.195c -0.546 0 -0.819 0.169 -0.819 0.507c 0 0.052 0.013 0.143 0.052 0.286l 1.69 6.773l 1.079 -7.735c 0.039 -0.221 0.117 -0.338 0.247 -0.338c 0.104 0 0.208 0.091 0.325 0.26l 5.057 7.891l -1.768 -7.085c -0.078 -0.286 -0.208 -0.455 -0.403 -0.52c -0.078 -0.026 -0.325 -0.039 -0.728 -0.039c -0.273 0 -0.403 -0.026 -0.403 -0.299Z "/></symbol><symbol id="gB84B4B524BFEEE6444EA3386B96F6612" overflow="visible"><path d="M 0 0m 5.772 -6.136c 0.143 0 0.221 0.078 0.221 0.221c 0 0.078 -0.026 0.13 -0.091 0.169c -0.936 0.715 -1.677 1.924 -2.236 3.614c -0.481 1.443 -0.728 2.873 -0.728 4.264v 2.236c 0 1.391 0.247 2.808 0.728 4.264c 0.559 1.677 1.3 2.886 2.236 3.614c 0.065 0.039 0.091 0.091 0.091 0.169c 0 0.143 -0.078 0.221 -0.221 0.221c -0.052 0 -0.091 -0.013 -0.13 -0.052c -1.053 -0.819 -1.937 -2.067 -2.626 -3.731c -0.663 -1.573 -0.988 -3.068 -0.988 -4.485v -2.236c 0 -1.417 0.325 -2.912 0.988 -4.485c 0.689 -1.677 1.573 -2.912 2.626 -3.731c 0.039 -0.039 0.078 -0.052 0.13 -0.052Z "/></symbol><symbol id="g6B3DB0E0ADE6D994825CC39624067234" overflow="visible"><path d="M 0 0m 3.497 8.658c -0.533 -0.546 -1.313 -0.819 -2.34 -0.819v -0.507c 0.676 0 1.235 0.104 1.664 0.312v -6.578c 0 -0.234 -0.052 -0.39 -0.169 -0.455c -0.117 -0.065 -0.442 -0.104 -0.962 -0.104h -0.455v -0.507c 0.325 0.026 1.027 0.039 2.106 0.039c 1.079 0 1.781 -0.013 2.106 -0.039v 0.507h -0.455c -0.533 0 -0.858 0.039 -0.962 0.104c -0.104 0.065 -0.169 0.221 -0.169 0.455v 7.202c 0 0.312 -0.026 0.39 -0.364 0.39Z "/></symbol><symbol id="g9B543B57F718853EF8F95EF155B6CF69" overflow="visible"><path d="M 0 0m 9.074 3.51h -8.034c -0.208 0 -0.312 -0.091 -0.312 -0.26c 0 -0.169 0.104 -0.26 0.312 -0.26h 8.034c 0.208 0 0.312 0.091 0.312 0.26c 0 0.156 -0.156 0.26 -0.312 0.26Z "/></symbol><symbol id="g8A6A9074F91D642F82CC8BE39AC39D3A" overflow="visible"><path d="M 0 0m 1.0829 3.8584c 0.2912 0 0.5096 0.2184 0.5096 0.5096c 0 0.3276 -0.1729 0.5005 -0.5096 0.5096c 0.2002 0.4277 0.6552 0.7735 1.2467 0.7735c 0.8008 0 1.3286 -0.6006 1.3286 -1.4014c 0 -0.4368 -0.1547 -0.8554 -0.4732 -1.2649c -0.1547 -0.2093 -0.273 -0.3549 -0.3549 -0.4368l -2.1567 -2.1385c -0.1183 -0.1092 -0.1001 -0.1365 -0.1001 -0.4095h 3.7492l 0.2821 1.7108h -0.3822c -0.0637 -0.4823 -0.1365 -0.7644 -0.2184 -0.8281c -0.0455 -0.0273 -0.3276 -0.0455 -0.8645 -0.0455h -1.547c 0.6097 0.5369 1.1739 1.0192 1.7108 1.4469c 0.4095 0.3185 0.7007 0.6006 0.8827 0.8463c 0.273 0.3549 0.4095 0.728 0.4095 1.1193c 0 0.5642 -0.2184 1.0101 -0.6643 1.3377c -0.3913 0.3003 -0.8827 0.455 -1.4651 0.455c -0.5005 0 -0.9282 -0.1456 -1.3013 -0.4368c -0.3913 -0.3185 -0.5915 -0.7189 -0.5915 -1.2103c 0 -0.3094 0.2275 -0.5369 0.5096 -0.5369Z "/></symbol><symbol id="g81CABFA788D1C3B17E7F7308C44F3DF" overflow="visible"><path d="M 0 0m 7.4529 4.7957c 0 0.4823 -0.273 0.8463 -0.8099 1.1102c -0.4277 0.2093 -0.91 0.3094 -1.4469 0.3094h -2.7664c -0.2093 0 -0.3276 -0.0273 -0.3276 -0.2366c 0 -0.1001 0.0637 -0.1456 0.1911 -0.1547l 0.4732 -0.0182c 0.1183 -0.0091 0.1729 0 0.1729 -0.091l -1.2285 -4.9686c -0.0455 -0.182 -0.1365 -0.2912 -0.273 -0.3367c -0.0455 -0.0091 -0.2093 -0.0182 -0.4823 -0.0182h -0.1547c -0.1001 -0.0091 -0.1547 -0.0819 -0.1547 -0.2184c 0 -0.1183 0.0637 -0.1729 0.182 -0.1729c 0.364 0 0.7735 0.0455 1.1466 0.0364l 0.5824 -0.0091c 0.1092 0 0.4823 -0.0273 0.6006 -0.0273c 0.1547 0 0.2275 0.0728 0.2275 0.2184c 0 0.1001 -0.0546 0.1638 -0.1547 0.1729h -0.182c -0.2821 0 -0.4459 0.0182 -0.4914 0.0546c -0.0091 0.0091 -0.0091 0.0273 -0.0091 0.0637l 0.5915 2.4388h 1.2012c 0.5733 0 1.0738 -0.2457 1.0738 -0.7735c 0 -0.0637 -0.0455 -0.273 -0.1274 -0.6188c -0.1001 -0.4095 -0.1456 -0.6461 -0.1456 -0.7098c 0 -0.6916 0.6188 -1.0283 1.3559 -1.0283c 0.273 0 0.546 0.1183 0.819 0.3458c 0.273 0.2275 0.4095 0.4732 0.4095 0.7371c 0 0.1001 -0.0637 0.1547 -0.1911 0.1547c -0.091 0 -0.1547 -0.0546 -0.1911 -0.1729c -0.1092 -0.3276 -0.4095 -0.7371 -0.8099 -0.7371c -0.2457 0 -0.364 0.182 -0.364 0.546c 0 0.2093 0.0273 0.5187 0.091 0.9282c 0.0273 0.1638 0.0364 0.3094 0.0364 0.4277c 0 0.4732 -0.2639 0.819 -0.7826 1.0374c 0.8372 0.2184 1.9383 0.8099 1.9383 1.7108Z m -1.2831 0.7553c 0.1911 -0.1183 0.2821 -0.3185 0.2821 -0.6188c 0 -0.2093 -0.0455 -0.4277 -0.1456 -0.6643c -0.273 -0.6643 -0.9282 -0.9919 -1.9565 -0.9919h -1.1193l 0.5642 2.2659c 0.0546 0.1911 0.0364 0.2548 0.2457 0.273h 0.5824c 0.7007 0 1.0829 0.0091 1.547 -0.2639Z "/></symbol><symbol id="g7594C19EACA82C804431EC922115ECFD" overflow="visible"><path d="M 0 0m 0.988 2.756c 0.234 0 0.403 0.169 0.403 0.403c 0 0.2275 -0.117 0.364 -0.3445 0.403c 0.2015 0.2925 0.5135 0.4355 0.936 0.4355c 0.6175 0 1.1115 -0.3835 1.1115 -0.9815c 0 -0.4095 -0.286 -0.858 -0.858 -1.3455l -1.56 -1.3325c -0.052 -0.0455 -0.078 -0.0845 -0.0845 -0.117v -0.221h 3.0225l 0.221 1.2935h -0.325c -0.0585 -0.351 -0.117 -0.546 -0.1755 -0.5915c -0.0325 -0.0195 -0.26 -0.0325 -0.6695 -0.0325h -1.1765c 0.8385 0.6175 1.0205 0.741 1.56 1.1245c 0.26 0.1885 0.442 0.364 0.5525 0.5265c 0.1495 0.2275 0.2275 0.4615 0.2275 0.702c 0 0.4355 -0.1885 0.767 -0.559 1.001c -0.3185 0.2015 -0.702 0.3055 -1.157 0.3055c -0.3835 0 -0.7215 -0.0975 -1.014 -0.286c -0.338 -0.2145 -0.507 -0.507 -0.507 -0.871c 0 -0.247 0.195 -0.416 0.3965 -0.416Z "/></symbol><symbol id="g3A3803C249DC4366E52B1910AD4ECAE2" overflow="visible"><path d="M 0 0m 2.5389 0.4459l 1.2467 4.9868c 0.0273 0.1183 0.0637 0.2002 0.091 0.2457c 0.0728 0.1001 0.3458 0.1456 0.8099 0.1456c 0.2548 0 0.4004 0 0.4004 0.2366c -0.0273 0.091 -0.0455 0.1547 -0.1911 0.1547c -0.2093 -0.0091 -0.4277 -0.0182 -0.6643 -0.0273l -0.7189 -0.0091l -0.6188 0.0091c -0.1092 0 -0.4732 0.0273 -0.5824 0.0273c -0.1547 0 -0.2275 -0.0819 -0.2275 -0.2366c 0 -0.1001 0.0637 -0.1456 0.182 -0.1547l 0.4823 -0.0182c 0.1092 -0.0091 0.1729 -0.0091 0.1729 -0.091l -1.2285 -4.9686c -0.0455 -0.182 -0.1365 -0.2912 -0.273 -0.3367c -0.0455 -0.0091 -0.2002 -0.0182 -0.4823 -0.0182h -0.1547c -0.1001 -0.0091 -0.1547 -0.0819 -0.1547 -0.2184c 0 -0.1547 0.1183 -0.1729 0.3094 -0.1729h 4.5136c 0.2548 0 0.2639 0.0182 0.3458 0.2002c 0.0182 0.0455 0.091 0.2366 0.2184 0.5915l 0.3731 0.9919c 0.1183 0.3003 0.1729 0.4641 0.1729 0.4914c 0 0.1092 -0.0637 0.1638 -0.1911 0.1638c -0.0819 0 -0.1365 -0.0364 -0.1638 -0.1001c -0.2366 -0.5642 -0.2457 -0.6552 -0.5551 -1.1102c -0.3276 -0.5005 -0.9919 -0.8372 -1.8382 -0.8372h -1.0192c -0.1638 0 -0.2548 -0.0182 -0.2548 0.0546Z "/></symbol><symbol id="gB7EE54B2081D470F3808A2B249039CCF" overflow="visible"><path d="M 0 0m 1.157 -6.084c 1.053 0.819 1.937 2.054 2.626 3.731c 0.663 1.573 0.988 3.068 0.988 4.485v 2.236c 0 1.417 -0.325 2.912 -0.988 4.485c -0.689 1.677 -1.573 2.912 -2.626 3.731c -0.052 0.039 -0.091 0.052 -0.13 0.052c -0.143 0 -0.221 -0.078 -0.221 -0.221c 0 -0.065 0.026 -0.13 0.078 -0.169c 0.936 -0.715 1.69 -1.911 2.249 -3.614c 0.481 -1.456 0.728 -2.873 0.728 -4.264v -2.236c 0 -1.391 -0.247 -2.808 -0.728 -4.264c -0.559 -1.703 -1.313 -2.899 -2.249 -3.614c -0.052 -0.039 -0.078 -0.104 -0.078 -0.169c 0 -0.143 0.078 -0.221 0.221 -0.221c 0.039 0 0.091 0.013 0.13 0.052Z "/></symbol></defs></svg>