<svg viewBox="0 0 187.5978 16.679" width="187.5978pt" height="16.679pt" xmlns="http://www.w3.org/2000/svg" xmlns:xlink="http://www.w3.org/1999/xlink" xmlns:h5="http://www.w3.org/1999/xhtml"><g transform="matrix(1 0 0 -1 6.5 12.779)"><use xlink:href="#gF894C2D74D7097E9F8A03474A816F1E2" x="0" y="0" fill="#e6edf3" fill-rule="nonzero"/></g><g transform="matrix(1 0 0 -1 13.221 15.99)"><use xlink:href="#g101A15221A0EE003755D1DFBD155057" x="0" y="0" fill="#e6edf3" fill-rule="nonzero"/></g><g transform="matrix(1 0 0 -1 26.787511111 12.779)"><use xlink:href="#g13AFF74D87C474CFAF661EEAD0458F8B" x="0" y="0" fill="#e6edf3" fill-rule="nonzero"/></g><g transform="matrix(1 0 0 -1 40.512622222 12.779)"><use xlink:href="#g9B543B57F718853EF8F95EF155B6CF69" x="0" y="0" fill="#e6edf3" fill-rule="nonzero"/></g><g transform="matrix(1 0 0 -1 50.626622222 12.779)"><use xlink:href="#gA01F6DC51669829F49C013CF8E967E44" x="0" y="0" fill="#e6edf3" fill-rule="nonzero"/></g><g transform="matrix(1 0 0 -1 64.344511111 12.779)"><use xlink:href="#gB323F9E42E1C20C087FBF81136E27860" x="0" y="0" fill="#e6edf3" fill-rule="nonzero"/></g><g transform="matrix(1 0 0 -1 70.8474 12.779)"><use xlink:href="#gBA06005D305302ED8D9E1AED23F144F" x="0" y="0" fill="#e6edf3" fill-rule="nonzero"/></g><g transform="matrix(1 0 0 -1 113.0194 12.779)"><use xlink:href="#g37A25FD9304FC623B4D612A207BC8176" x="0" y="0" fill="#e6edf3" fill-rule="nonzero"/></g><g transform="matrix(1 0 0 -1 120.4424 15.99)"><use xlink:href="#g101A15221A0EE003755D1DFBD155057" x="0" y="0" fill="#e6edf3" fill-rule="nonzero"/></g><g transform="matrix(1 0 0 -1 134.008911111 12.779)"><use xlink:href="#g13AFF74D87C474CFAF661EEAD0458F8B" x="0" y="0" fill="#e6edf3" fill-rule="nonzero"/></g><g transform="matrix(1 0 0 -1 147.734022222 12.779)"><use xlink:href="#gBA06005D305302ED8D9E1AED23F144F" x="0" y="0" fill="#e6edf3" fill-rule="nonzero"/></g><g transform="matrix(1 0 0 -1 166.794911111 12.779)"><use xlink:href="#gB323F9E42E1C20C087FBF81136E27860" x="0" y="0" fill="#e6edf3" fill-rule="nonzero"/></g><g transform="matrix(1 0 0 -1 173.2978 12.779)"><use xlink:href="#g5AAD6B38658AAA3198C014B3B7995D3E" x="0" y="0" fill="#e6edf3" fill-rule="nonzero"/></g><g transform="matrix(1 0 0 -1 174.2728 12.779)"><use xlink:href="#g5B90E9196699B0DF3EE96BEA297F231B" x="0" y="0" fill="#e6edf3" fill-rule="nonzero"/></g><defs><symbol id="gF894C2D74D7097E9F8A03474A816F1E2" overflow="visible"><path d="M 0 0m 4.693 5.746c -1.469 0 -2.691 -1.586 -3.016 -2.886l -1.248 -5.057c -0.026 -0.104 -0.039 -0.169 -0.039 -0.208c 0 -0.273 0.13 -0.403 0.403 -0.403c 0.195 0 0.364 0.104 0.494 0.299l 0.793 3.107c 0.299 -0.507 0.715 -0.767 1.248 -0.767c 0.858 0 1.612 0.416 2.275 1.261c 0.611 0.793 0.923 1.638 0.923 2.509c 0 1.183 -0.689 2.145 -1.833 2.145Z m -0.026 -0.39c 0.559 0 0.832 -0.403 0.832 -1.209c 0 -0.351 -0.078 -0.806 -0.221 -1.391c -0.286 -1.105 -0.689 -1.846 -1.196 -2.236c -0.273 -0.208 -0.52 -0.312 -0.767 -0.312c -0.247 0 -0.468 0.091 -0.637 0.26c -0.273 0.273 -0.403 0.559 -0.403 0.832c 0.013 0.091 0.039 0.247 0.091 0.468c 0.299 1.235 0.559 2.028 0.767 2.392c 0.455 0.793 0.962 1.196 1.534 1.196Z "/></symbol><symbol id="g101A15221A0EE003755D1DFBD155057" overflow="visible"><path d="M 0 0m 1.5015 4.0131c -0.3003 0 -0.5551 -0.1638 -0.7462 -0.5005c -0.1274 -0.2275 -0.2275 -0.4641 -0.2912 -0.728c -0.0273 -0.1001 -0.0364 -0.1547 -0.0364 -0.1729c 0 -0.1001 0.0637 -0.1547 0.1911 -0.1547c 0.1729 0 0.182 0.1001 0.2275 0.2912c 0.1547 0.6279 0.364 0.9464 0.6279 0.9464c 0.1729 0 0.2639 -0.1365 0.2639 -0.4095c 0 -0.1001 -0.0455 -0.3367 -0.1456 -0.728l -0.4914 -1.9474c -0.0637 -0.2457 -0.091 -0.3731 -0.091 -0.3822c 0 -0.2093 0.1183 -0.3185 0.3458 -0.3185c 0.1729 0 0.3003 0.0728 0.3822 0.2184c 0.0273 0.0546 0.0819 0.2457 0.1638 0.5642l 0.2002 0.8008c 0.1092 0.4277 0.1729 0.6643 0.1911 0.7189c 0.0728 0.2366 0.182 0.4641 0.3367 0.6734c 0.3822 0.5369 0.8281 0.8099 1.3286 0.8099c 0.3276 0 0.4914 -0.2002 0.4914 -0.5915c 0 -0.1547 -0.0546 -0.4277 -0.1547 -0.8372l -0.3731 -1.5015c -0.0819 -0.3367 -0.1274 -0.5096 -0.1274 -0.5369c 0 -0.2093 0.1092 -0.3185 0.3367 -0.3185c 0.1729 0 0.3094 0.0728 0.3913 0.2184c 0.0273 0.0546 0.0819 0.2457 0.1638 0.5642l 0.2002 0.8008c 0.1456 0.5642 0.1729 0.9009 0.4277 1.2649c 0.4095 0.6279 0.8736 0.9373 1.4105 0.9373c 0.3276 0 0.4914 -0.2002 0.4914 -0.5915c 0 -0.3549 -0.1729 -0.9828 -0.5278 -1.8928c -0.091 -0.2366 -0.1365 -0.4004 -0.1365 -0.5005c 0 -0.4914 0.4004 -0.8008 0.8918 -0.8008c 0.4368 0 0.7826 0.2184 1.0283 0.6552c 0.2093 0.3731 0.3094 0.6188 0.3094 0.7462c 0 0.1001 -0.0637 0.1547 -0.182 0.1547c -0.0637 -0.0091 -0.1547 -0.0819 -0.2093 -0.182c -0.2093 -0.7007 -0.5096 -1.0556 -0.9191 -1.0556c -0.1274 0 -0.1911 0.091 -0.1911 0.2821c 0 0.1274 0.0728 0.364 0.2093 0.7098c 0.3185 0.8099 0.4823 1.3923 0.4823 1.7381c 0 0.7007 -0.4004 1.0556 -1.2103 1.0556c -0.5915 0 -1.1102 -0.2821 -1.5743 -0.8463c -0.091 0.5642 -0.4914 0.8463 -1.1921 0.8463c -0.5915 0 -1.092 -0.2548 -1.5015 -0.7644c -0.0819 0.4459 -0.4732 0.7644 -0.9919 0.7644Z "/></symbol><symbol id="g13AFF74D87C474CFAF661EEAD0458F8B" overflow="visible"><path d="M 0 0m 9.074 4.771h -8.034c -0.208 0 -0.312 -0.104 -0.312 -0.299c 0 -0.195 0.104 -0.299 0.312 -0.299h 8.034c 0.208 0 0.312 0.104 0.312 0.299c 0 0.156 -0.143 0.299 -0.312 0.299Z m 0 -2.444h -8.034c -0.208 0 -0.312 -0.104 -0.312 -0.299c 0 -0.195 0.104 -0.299 0.312 -0.299h 8.034c 0.208 0 0.312 0.104 0.312 0.299c 0 0.169 -0.143 0.299 -0.312 0.299Z "/></symbol><symbol id="g9B543B57F718853EF8F95EF155B6CF69" overflow="visible"><path d="M 0 0m 9.074 3.51h -8.034c -0.208 0 -0.312 -0.091 -0.312 -0.26c 0 -0.169 0.104 -0.26 0.312 -0.26h 8.034c 0.208 0 0.312 0.091 0.312 0.26c 0 0.156 -0.156 0.26 -0.312 0.26Z "/></symbol><symbol id="gA01F6DC51669829F49C013CF8E967E44" overflow="visible"><path d="M 0 0m 10.14 8.541c 0.039 0.091 0.065 0.156 0.065 0.182c 0 0.104 -0.117 0.156 -0.338 0.156h -8.918c -0.221 0 -0.338 -0.052 -0.338 -0.169l 4.42 -8.879c 0.091 -0.169 0.208 -0.26 0.377 -0.26c 0.169 0 0.286 0.091 0.377 0.26Z m -4.355 -7.605l -3.458 6.929h 6.903Z "/></symbol><symbol id="gB323F9E42E1C20C087FBF81136E27860" overflow="visible"><path d="M 0 0m 2.496 3.25c 0 0.377 -0.312 0.689 -0.689 0.689c -0.377 0 -0.689 -0.312 -0.689 -0.689c 0 -0.377 0.312 -0.689 0.689 -0.689c 0.377 0 0.689 0.312 0.689 0.689Z "/></symbol><symbol id="gBA06005D305302ED8D9E1AED23F144F" overflow="visible"><path d="M 0 0m 15.808 8.684c 0 0.234 -0.208 0.234 -0.442 0.234h -2.314c -0.403 0 -0.468 -0.039 -0.663 -0.325l -4.875 -6.916l -1.391 6.877c -0.078 0.364 -0.195 0.364 -0.52 0.364h -2.444c -0.26 0 -0.481 0 -0.481 -0.377c 0 -0.234 0.169 -0.234 0.546 -0.234c 0.273 0 0.52 -0.013 0.793 -0.026l -1.82 -7.254c -0.065 -0.26 -0.065 -0.273 -0.39 -0.338c -0.312 -0.078 -0.702 -0.078 -0.741 -0.078c -0.247 0 -0.468 0 -0.468 -0.377c 0 -0.078 0.065 -0.234 0.26 -0.234c 0.468 0 0.962 0.039 1.443 0.039c 0.325 0 1.157 -0.039 1.482 -0.039c 0.104 0 0.351 0 0.351 0.377c 0 0.234 -0.221 0.234 -0.39 0.234c -0.143 0 -0.598 0 -0.91 0.13l 1.833 7.371h 0.013l 1.573 -7.722c 0.039 -0.195 0.078 -0.39 0.351 -0.39c 0.26 0 0.364 0.156 0.468 0.299l 5.616 7.995l 0.013 -0.013l -1.846 -7.41c -0.052 -0.208 -0.065 -0.221 -0.299 -0.247c -0.221 -0.013 -0.481 -0.013 -0.689 -0.013c -0.338 0 -0.364 0 -0.416 -0.026c -0.156 -0.091 -0.156 -0.299 -0.156 -0.351c 0 0 0.013 -0.234 0.286 -0.234c 0.312 0 0.637 0.026 0.949 0.026l 0.91 0.013l 1.001 -0.013c 0.312 0 0.624 -0.026 0.923 -0.026c 0.104 0 0.208 0 0.273 0.091c 0.078 0.078 0.091 0.286 0.091 0.286c 0 0.234 -0.169 0.234 -0.533 0.234c -0.273 0 -0.52 0.013 -0.793 0.026l 1.898 7.618c 0.286 0.052 0.741 0.052 0.884 0.052c 0.455 0 0.624 0 0.624 0.377Z "/></symbol><symbol id="g37A25FD9304FC623B4D612A207BC8176" overflow="visible"><path d="M 0 0m 6.825 5.603h -2.925c -0.624 0 -1.209 -0.195 -1.742 -0.598c -0.832 -0.637 -1.664 -1.755 -1.664 -3.081c 0 -1.17 0.806 -2.067 1.976 -2.067c 0.871 0 1.651 0.377 2.314 1.131c 0.637 0.728 0.949 1.534 0.949 2.431c 0 0.533 -0.117 0.975 -0.351 1.339h 1.313c 0.455 0 0.676 0.156 0.676 0.481c 0 0.299 -0.221 0.364 -0.546 0.364Z m -5.434 -4.03c 0 0.767 0.182 1.469 0.559 2.093c 0.442 0.728 1.014 1.092 1.729 1.092c 0.754 0 1.131 -0.39 1.131 -1.183c 0 -0.325 -0.065 -0.702 -0.195 -1.144c -0.26 -0.923 -0.689 -1.573 -1.287 -1.924c -0.299 -0.182 -0.585 -0.273 -0.845 -0.273c -0.715 0 -1.092 0.585 -1.092 1.339Z "/></symbol><symbol id="g5AAD6B38658AAA3198C014B3B7995D3E" overflow="visible"><path d="M 0 0m 6.981 1.781c -0.299 -1.027 -0.728 -1.547 -1.261 -1.547c -0.169 0 -0.26 0.13 -0.26 0.377c 0 0.182 0.078 0.481 0.234 0.884c 0.52 1.417 0.78 2.353 0.78 2.834c 0 0.91 -0.611 1.417 -1.521 1.417c -0.767 0 -1.43 -0.338 -1.963 -1.027c -0.104 0.572 -0.559 1.027 -1.222 1.027c -0.728 0 -1.014 -0.676 -1.196 -1.261c -0.13 -0.416 -0.195 -0.663 -0.195 -0.754c 0 -0.117 0.065 -0.182 0.208 -0.182c 0.065 0 0.104 0.013 0.143 0.039c 0.065 0.117 0.104 0.208 0.117 0.299c 0.234 0.988 0.533 1.482 0.884 1.482c 0.234 0 0.351 -0.182 0.351 -0.546c 0 -0.169 -0.065 -0.52 -0.208 -1.053l -0.741 -2.951c -0.039 -0.169 -0.117 -0.507 -0.117 -0.572c 0 -0.26 0.143 -0.39 0.429 -0.39c 0.247 0 0.429 0.13 0.52 0.39c 0.026 0.065 0.104 0.39 0.247 0.949l 0.273 1.157l 0.39 1.482c 0.143 0.299 0.364 0.598 0.637 0.91c 0.377 0.416 0.845 0.624 1.404 0.624c 0.429 0 0.637 -0.286 0.637 -0.845c 0 -0.494 -0.273 -1.482 -0.832 -2.964c -0.091 -0.234 -0.13 -0.429 -0.13 -0.598c 0 -0.637 0.481 -1.105 1.105 -1.105c 0.572 0 1.027 0.325 1.352 0.975c 0.247 0.52 0.377 0.871 0.377 1.04c 0 0.117 -0.065 0.182 -0.208 0.182c -0.039 0 -0.234 -0.117 -0.234 -0.273Z "/></symbol><symbol id="g5B90E9196699B0DF3EE96BEA297F231B" overflow="visible"><path d="M 0 0m 5.018 6.695l 0.221 0.234l -1.989 2.093l -1.989 -2.093l 0.221 -0.234l 1.768 1.339Z "/></symbol></defs></svg>