<svg viewBox="0 0 371.257611111 37.934" width="371.257611111pt" height="37.934pt" xmlns="http://www.w3.org/2000/svg" xmlns:xlink="http://www.w3.org/1999/xlink" xmlns:h5="http://www.w3.org/1999/xhtml"><g transform="matrix(1 0 0 -1 6.5 21.723)"><use xlink:href="#gE24915BF1AE395C8F839C38F3AE173D" x="0" y="0" fill="#e6edf3" fill-rule="nonzero"/></g><g transform="matrix(1 0 0 -1 14.586 24.934)"><use xlink:href="#g8A6A9074F91D642F82CC8BE39AC39D3A" x="0" y="0" fill="#e6edf3" fill-rule="nonzero"/></g><g transform="matrix(1 0 0 -1 24.103011111 21.723)"><use xlink:href="#g13AFF74D87C474CFAF661EEAD0458F8B" x="0" y="0" fill="#e6edf3" fill-rule="nonzero"/></g><g transform="matrix(1 0 0 -1 37.828122222 21.723)"><use xlink:href="#g35B4FBA1E2C6B292D79BD0F4F0E600B8" x="0" y="0" fill="#e6edf3" fill-rule="nonzero"/></g><g transform="matrix(1 0 0 -1 51.764122222 21.723)"><use xlink:href="#g115DED64194A3B9D1CA25A004CD4734D" x="0" y="0" fill="#e6edf3" fill-rule="nonzero"/></g><g transform="matrix(1 0 0 -1 56.834122222 24.934)"><use xlink:href="#g5A380D51C1693CF037954AEF50086985" x="0" y="0" fill="#e6edf3" fill-rule="nonzero"/></g><g transform="matrix(1 0 0 -1 62.740022222 21.723)"><use xlink:href="#gEFA988DEC565252013B2D05DB9DFDA82" x="0" y="0" fill="#e6edf3" fill-rule="nonzero"/></g><g transform="matrix(1 0 0 -1 79.354022222 21.723)"><use xlink:href="#g894190FA0EEFA6A5DCF83D53FA4E4038" x="0" y="0" fill="#e6edf3" fill-rule="nonzero"/></g><g transform="matrix(1 0 0 -1 85.412022222 24.934)"><use xlink:href="#g8A6A9074F91D642F82CC8BE39AC39D3A" x="0" y="0" fill="#e6edf3" fill-rule="nonzero"/></g><g transform="matrix(1 0 0 -1 94.929033333 21.723)"><use xlink:href="#g13AFF74D87C474CFAF661EEAD0458F8B" x="0" y="0" fill="#e6edf3" fill-rule="nonzero"/></g><g transform="matrix(1 0 0 -1 108.654144444 21.723)"><use xlink:href="#g9B543B57F718853EF8F95EF155B6CF69" x="0" y="0" fill="#e6edf3" fill-rule="nonzero"/></g><g transform="matrix(1 0 0 -1 118.768144444 21.723)"><use xlink:href="#g35B4FBA1E2C6B292D79BD0F4F0E600B8" x="0" y="0" fill="#e6edf3" fill-rule="nonzero"/></g><g transform="matrix(1 0 0 -1 134.004144444 12.922)"><use xlink:href="#g6BCCDCE0D843C0F823A4CE121D6D1649" x="0" y="0" fill="#e6edf3" fill-rule="nonzero"/></g><g transform="matrix(1 0 0 -1 141.076144444 12.922)"><use xlink:href="#g115DED64194A3B9D1CA25A004CD4734D" x="0" y="0" fill="#e6edf3" fill-rule="nonzero"/></g><g transform="matrix(1 0 0 -1 146.146144444 16.133)"><use xlink:href="#g5A380D51C1693CF037954AEF50086985" x="0" y="0" fill="#e6edf3" fill-rule="nonzero"/></g><g transform="matrix(1 0 0 -1 137.145594444 30.641)"><use xlink:href="#g6BCCDCE0D843C0F823A4CE121D6D1649" x="0" y="0" fill="#e6edf3" fill-rule="nonzero"/></g><g transform="matrix(1 0 0 -1 144.217594444 30.641)"><use xlink:href="#g3780884EF0B1863BCCC7385193F65A25" x="0" y="0" fill="#e6edf3" fill-rule="nonzero"/></g><path fill="none" stroke="#e6edf3" stroke-width="0.624" stroke-linecap="butt" stroke-linejoin="miter" stroke-miterlimit="4" transform="translate(134.004144444 18.473)" d="M 0 0h 18.0479"/><g transform="matrix(1 0 0 -1 153.352044444 21.723)"><use xlink:href="#gEFA988DEC565252013B2D05DB9DFDA82" x="0" y="0" fill="#e6edf3" fill-rule="nonzero"/></g><g transform="matrix(1 0 0 -1 169.966044444 21.723)"><use xlink:href="#g35B4FBA1E2C6B292D79BD0F4F0E600B8" x="0" y="0" fill="#e6edf3" fill-rule="nonzero"/></g><g transform="matrix(1 0 0 -1 187.513155556 21.723)"><use xlink:href="#g13AFF74D87C474CFAF661EEAD0458F8B" x="0" y="0" fill="#e6edf3" fill-rule="nonzero"/></g><g transform="matrix(1 0 0 -1 202.538266667 12.922)"><use xlink:href="#gCC416E75927AD0A8099D8AB0ED7855DE" x="0" y="0" fill="#e6edf3" fill-rule="nonzero"/></g><g transform="matrix(1 0 0 -1 211.755266667 16.133)"><use xlink:href="#g66C287F757172C4FBEE46C9B113A6E1F" x="0" y="0" fill="#e6edf3" fill-rule="nonzero"/></g><g transform="matrix(1 0 0 -1 217.661166667 12.922)"><use xlink:href="#g6F1473A4C93C0F65EF32B6DD19A2D771" x="0" y="0" fill="#e6edf3" fill-rule="nonzero"/></g><g transform="matrix(1 0 0 -1 221.535166667 12.922)"><use xlink:href="#gA6F2C1D597D3EC5A6DEDB5B511CF0779" x="0" y="0" fill="#e6edf3" fill-rule="nonzero"/></g><g transform="matrix(1 0 0 -1 210.266766667 30.641)"><use xlink:href="#g115DED64194A3B9D1CA25A004CD4734D" x="0" y="0" fill="#e6edf3" fill-rule="nonzero"/></g><g transform="matrix(1 0 0 -1 215.336766667 33.852)"><use xlink:href="#g66C287F757172C4FBEE46C9B113A6E1F" x="0" y="0" fill="#e6edf3" fill-rule="nonzero"/></g><path fill="none" stroke="#e6edf3" stroke-width="0.624" stroke-linecap="butt" stroke-linejoin="miter" stroke-miterlimit="4" transform="translate(202.538266667 18.473)" d="M 0 0h 26.4329"/><g transform="matrix(1 0 0 -1 230.271166667 21.723)"><use xlink:href="#g33F7536FD48B65A98BF58DD6C69AC9A7" x="0" y="0" fill="#e6edf3" fill-rule="nonzero"/></g><g transform="matrix(1 0 0 -1 246.885166667 21.723)"><use xlink:href="#gE24915BF1AE395C8F839C38F3AE173D" x="0" y="0" fill="#e6edf3" fill-rule="nonzero"/></g><g transform="matrix(1 0 0 -1 259.882277778 21.723)"><use xlink:href="#g13AFF74D87C474CFAF661EEAD0458F8B" x="0" y="0" fill="#e6edf3" fill-rule="nonzero"/></g><g transform="matrix(1 0 0 -1 273.607388889 21.723)"><use xlink:href="#g219D7D161E803083B7D838AFD138262C" x="0" y="0" fill="#e6edf3" fill-rule="nonzero"/></g><g transform="matrix(1 0 0 -1 282.460388889 21.723)"><use xlink:href="#g115DED64194A3B9D1CA25A004CD4734D" x="0" y="0" fill="#e6edf3" fill-rule="nonzero"/></g><g transform="matrix(1 0 0 -1 289.285388889 21.723)"><use xlink:href="#gEFA988DEC565252013B2D05DB9DFDA82" x="0" y="0" fill="#e6edf3" fill-rule="nonzero"/></g><g transform="matrix(1 0 0 -1 305.899388889 21.723)"><use xlink:href="#g894190FA0EEFA6A5DCF83D53FA4E4038" x="0" y="0" fill="#e6edf3" fill-rule="nonzero"/></g><g transform="matrix(1 0 0 -1 315.5685 21.723)"><use xlink:href="#g13AFF74D87C474CFAF661EEAD0458F8B" x="0" y="0" fill="#e6edf3" fill-rule="nonzero"/></g><g transform="matrix(1 0 0 -1 329.293611111 21.723)"><use xlink:href="#g9B543B57F718853EF8F95EF155B6CF69" x="0" y="0" fill="#e6edf3" fill-rule="nonzero"/></g><g transform="matrix(1 0 0 -1 339.407611111 21.723)"><use xlink:href="#g219D7D161E803083B7D838AFD138262C" x="0" y="0" fill="#e6edf3" fill-rule="nonzero"/></g><g transform="matrix(1 0 0 -1 349.560611111 12.922)"><use xlink:href="#g6BCCDCE0D843C0F823A4CE121D6D1649" x="0" y="0" fill="#e6edf3" fill-rule="nonzero"/></g><g transform="matrix(1 0 0 -1 356.632611111 12.922)"><use xlink:href="#g115DED64194A3B9D1CA25A004CD4734D" x="0" y="0" fill="#e6edf3" fill-rule="nonzero"/></g><g transform="matrix(1 0 0 -1 350.626611111 30.641)"><use xlink:href="#g6BCCDCE0D843C0F823A4CE121D6D1649" x="0" y="0" fill="#e6edf3" fill-rule="nonzero"/></g><g transform="matrix(1 0 0 -1 357.698611111 30.641)"><use xlink:href="#g3780884EF0B1863BCCC7385193F65A25" x="0" y="0" fill="#e6edf3" fill-rule="nonzero"/></g><path fill="none" stroke="#e6edf3" stroke-width="0.624" stroke-linecap="butt" stroke-linejoin="miter" stroke-miterlimit="4" transform="translate(349.560611111 18.473)" d="M 0 0h 13.897"/><defs><symbol id="gE24915BF1AE395C8F839C38F3AE173D" overflow="visible"><path d="M 0 0m 5.226 1.742c 0.845 0.065 1.586 0.325 2.249 0.754c 0.78 0.52 1.17 1.17 1.17 1.937c 0 0.767 -0.39 1.417 -1.17 1.937c -0.663 0.442 -1.404 0.702 -2.249 0.767v 0.676c 0 0.169 0.013 0.273 0.052 0.338c 0.065 0.143 0.429 0.221 1.118 0.221h 0.481v 0.507c -0.351 -0.026 -1.092 -0.039 -2.223 -0.039c -1.144 0 -1.885 0.013 -2.236 0.039v -0.507h 0.481c 0.689 0 1.066 -0.065 1.131 -0.208c 0.026 -0.065 0.039 -0.182 0.039 -0.351v -0.676c -0.832 -0.091 -1.56 -0.351 -2.197 -0.78c -0.767 -0.507 -1.144 -1.144 -1.144 -1.911c 0 -0.767 0.377 -1.404 1.131 -1.924c 0.637 -0.429 1.378 -0.689 2.21 -0.78v -0.676c 0 -0.169 -0.013 -0.273 -0.039 -0.338c -0.065 -0.143 -0.442 -0.221 -1.131 -0.221h -0.481v -0.507c 0.351 0.026 1.092 0.039 2.223 0.039c 1.144 0 1.885 -0.013 2.236 -0.039v 0.507h -0.481c -0.689 0 -1.053 0.065 -1.118 0.208c -0.039 0.065 -0.052 0.182 -0.052 0.351Z m 0 5.005c 1.352 -0.169 2.028 -0.936 2.028 -2.301c 0 -1.365 -0.676 -2.132 -2.028 -2.314Z m -1.157 -0.013v -4.589c -1.3 0.195 -1.95 0.949 -1.95 2.288c 0 1.339 0.65 2.106 1.95 2.301Z "/></symbol><symbol id="g8A6A9074F91D642F82CC8BE39AC39D3A" overflow="visible"><path d="M 0 0m 1.0829 3.8584c 0.2912 0 0.5096 0.2184 0.5096 0.5096c 0 0.3276 -0.1729 0.5005 -0.5096 0.5096c 0.2002 0.4277 0.6552 0.7735 1.2467 0.7735c 0.8008 0 1.3286 -0.6006 1.3286 -1.4014c 0 -0.4368 -0.1547 -0.8554 -0.4732 -1.2649c -0.1547 -0.2093 -0.273 -0.3549 -0.3549 -0.4368l -2.1567 -2.1385c -0.1183 -0.1092 -0.1001 -0.1365 -0.1001 -0.4095h 3.7492l 0.2821 1.7108h -0.3822c -0.0637 -0.4823 -0.1365 -0.7644 -0.2184 -0.8281c -0.0455 -0.0273 -0.3276 -0.0455 -0.8645 -0.0455h -1.547c 0.6097 0.5369 1.1739 1.0192 1.7108 1.4469c 0.4095 0.3185 0.7007 0.6006 0.8827 0.8463c 0.273 0.3549 0.4095 0.728 0.4095 1.1193c 0 0.5642 -0.2184 1.0101 -0.6643 1.3377c -0.3913 0.3003 -0.8827 0.455 -1.4651 0.455c -0.5005 0 -0.9282 -0.1456 -1.3013 -0.4368c -0.3913 -0.3185 -0.5915 -0.7189 -0.5915 -1.2103c 0 -0.3094 0.2275 -0.5369 0.5096 -0.5369Z "/></symbol><symbol id="g13AFF74D87C474CFAF661EEAD0458F8B" overflow="visible"><path d="M 0 0m 9.074 4.771h -8.034c -0.208 0 -0.312 -0.104 -0.312 -0.299c 0 -0.195 0.104 -0.299 0.312 -0.299h 8.034c 0.208 0 0.312 0.104 0.312 0.299c 0 0.156 -0.143 0.299 -0.312 0.299Z m 0 -2.444h -8.034c -0.208 0 -0.312 -0.104 -0.312 -0.299c 0 -0.195 0.104 -0.299 0.312 -0.299h 8.034c 0.208 0 0.312 0.104 0.312 0.299c 0 0.169 -0.143 0.299 -0.312 0.299Z "/></symbol><symbol id="g35B4FBA1E2C6B292D79BD0F4F0E600B8" overflow="visible"><path d="M 0 0m 7.722 0.208c 0 -0.143 0.078 -0.208 0.247 -0.208l 1.599 0.039c 0.299 0.013 1.352 -0.039 1.599 -0.039c 0.195 0 0.299 0.104 0.299 0.312c 0 0.13 -0.13 0.195 -0.403 0.195c -0.533 0 -0.793 0.052 -0.793 0.169c 0 0.039 0.026 0.13 0.065 0.299l 1.716 6.851c 0.065 0.273 0.195 0.442 0.364 0.507c 0.078 0.026 0.312 0.039 0.689 0.039c 0.325 0 0.468 0.013 0.468 0.312c 0 0.13 -0.13 0.195 -0.403 0.195h -1.703c -0.377 0 -0.377 -0.026 -0.546 -0.273l -4.628 -7.202l -0.988 7.137c -0.052 0.325 -0.078 0.338 -0.455 0.338h -1.768c -0.286 0 -0.429 -0.013 -0.429 -0.299c 0 -0.143 0.143 -0.208 0.416 -0.208c 0.26 0 0.793 0.039 0.793 -0.169c 0 -0.026 -0.013 -0.104 -0.052 -0.234l -1.638 -6.539c -0.117 -0.494 -0.416 -0.793 -0.871 -0.884c -0.325 -0.039 -0.754 0.013 -0.754 -0.338c 0 -0.143 0.078 -0.208 0.234 -0.208c 0.234 0 1.053 0.039 1.287 0.039c 0.247 0 1.079 -0.039 1.326 -0.039c 0.195 0 0.286 0.104 0.286 0.312c 0 0.117 -0.091 0.182 -0.286 0.195c -0.546 0 -0.819 0.169 -0.819 0.507c 0 0.052 0.013 0.143 0.052 0.286l 1.69 6.773l 1.079 -7.735c 0.039 -0.221 0.117 -0.338 0.247 -0.338c 0.104 0 0.208 0.091 0.325 0.26l 5.057 7.891l -1.768 -7.085c -0.078 -0.286 -0.208 -0.455 -0.403 -0.52c -0.078 -0.026 -0.325 -0.039 -0.728 -0.039c -0.273 0 -0.403 -0.026 -0.403 -0.299Z "/></symbol><symbol id="g115DED64194A3B9D1CA25A004CD4734D" overflow="visible"><path d="M 0 0m 6.461 8.671c 0 0.143 -0.078 0.208 -0.247 0.208l -1.677 -0.039l -1.703 0.039c -0.208 0.013 -0.312 -0.091 -0.312 -0.312c 0 -0.13 0.143 -0.195 0.416 -0.195c 0.559 0 0.832 -0.065 0.832 -0.182c 0 -0.065 -0.013 -0.13 -0.026 -0.195l -1.729 -6.929c -0.065 -0.286 -0.195 -0.455 -0.39 -0.52c -0.091 -0.026 -0.325 -0.039 -0.728 -0.039c -0.325 0 -0.455 -0.013 -0.455 -0.312c 0 -0.13 0.078 -0.195 0.247 -0.195l 1.664 0.039l 1.716 -0.039c 0.208 -0.013 0.312 0.091 0.312 0.299c 0 0.208 -0.156 0.208 -0.442 0.208c -0.507 0 -0.819 -0.026 -0.819 0.182c 0 0.065 0.013 0.156 0.052 0.286l 1.716 6.851c 0.065 0.273 0.195 0.442 0.39 0.507c 0.091 0.026 0.325 0.039 0.728 0.039c 0.312 0 0.455 0.013 0.455 0.299Z "/></symbol><symbol id="g5A380D51C1693CF037954AEF50086985" overflow="visible"><path d="M 0 0m 2.7573 6.0424c -0.3913 -0.3822 -0.9737 -0.5733 -1.7654 -0.5733v -0.4004c 0.5369 0 0.9646 0.0819 1.2922 0.2366v -4.5318c 0 -0.1183 -0.0091 -0.1911 -0.0364 -0.2275c -0.0455 -0.1001 -0.3185 -0.1547 -0.819 -0.1547h -0.3731v -0.3913l 1.6198 0.0364l 1.6289 -0.0364v 0.3913h -0.3731c -0.5005 0 -0.7735 0.0546 -0.8281 0.1547c -0.0182 0.0364 -0.0273 0.1092 -0.0273 0.2275v 4.9777c 0 0.2457 -0.0364 0.2912 -0.3185 0.2912Z "/></symbol><symbol id="gEFA988DEC565252013B2D05DB9DFDA82" overflow="visible"><path d="M 0 0m 1.807 1.378c -0.416 0 -0.689 -0.312 -0.689 -0.728c 0 -0.39 0.299 -0.715 0.689 -0.715c 0.182 0 0.338 0.052 0.455 0.169l 0.013 -0.104c 0 -0.819 -0.273 -1.521 -0.819 -2.08c -0.091 -0.104 -0.143 -0.182 -0.143 -0.234c 0 -0.13 0.052 -0.195 0.169 -0.195c 0.117 0 0.273 0.156 0.494 0.455c 0.442 0.624 0.663 1.313 0.663 2.054c 0 0.689 -0.234 1.378 -0.832 1.378Z "/></symbol><symbol id="g894190FA0EEFA6A5DCF83D53FA4E4038" overflow="visible"><path d="M 0 0m 5.577 5.109c 0 0.156 -0.169 0.325 -0.533 0.507c -0.364 0.182 -0.754 0.273 -1.157 0.273c -0.637 0 -1.261 -0.156 -1.846 -0.455c -0.702 -0.364 -1.053 -0.845 -1.053 -1.43c 0 -0.338 0.156 -0.637 0.468 -0.897c -0.533 -0.325 -1.118 -0.962 -1.118 -1.729c 0 -1.066 1.014 -1.664 2.132 -1.664c 0.637 0 1.17 0.143 1.599 0.416c 0.559 0.351 0.845 0.676 0.845 0.949c 0 0.117 -0.065 0.182 -0.195 0.182c -0.065 0 -0.117 -0.039 -0.169 -0.117c -0.325 -0.572 -0.832 -0.741 -1.963 -0.741c -0.299 0 -0.585 0.026 -0.845 0.078c -0.481 0.091 -0.975 0.442 -0.975 0.975c 0 0.637 0.598 1.196 1.092 1.43c 0.286 -0.117 0.65 -0.169 1.092 -0.169c 0.715 0 1.079 0.156 1.079 0.455c 0 0.26 -0.325 0.39 -0.975 0.39c -0.442 0 -0.832 -0.078 -1.183 -0.234c -0.312 0.169 -0.468 0.39 -0.468 0.676c 0 0.403 0.312 0.728 0.923 0.949c 0.455 0.169 0.936 0.247 1.43 0.247c 0.429 0 0.819 -0.117 1.144 -0.351c 0.13 -0.091 0.221 -0.13 0.286 -0.13c 0.195 0 0.39 0.195 0.39 0.39Z m -2.522 -1.924c 0.143 0 0.273 -0.013 0.403 -0.039c -0.13 -0.026 -0.299 -0.039 -0.507 -0.039c -0.169 0 -0.325 0 -0.442 0.013c 0.169 0.039 0.351 0.065 0.546 0.065Z "/></symbol><symbol id="g9B543B57F718853EF8F95EF155B6CF69" overflow="visible"><path d="M 0 0m 9.074 3.51h -8.034c -0.208 0 -0.312 -0.091 -0.312 -0.26c 0 -0.169 0.104 -0.26 0.312 -0.26h 8.034c 0.208 0 0.312 0.091 0.312 0.26c 0 0.156 -0.156 0.26 -0.312 0.26Z "/></symbol><symbol id="g6BCCDCE0D843C0F823A4CE121D6D1649" overflow="visible"><path d="M 0 0m 5.577 8.216l -0.767 -3.159c -0.273 0.481 -0.65 0.728 -1.157 0.728c -0.845 0 -1.586 -0.429 -2.236 -1.3c -0.598 -0.806 -0.897 -1.651 -0.897 -2.522c 0 -1.144 0.663 -2.106 1.755 -2.106c 0.559 0 1.105 0.299 1.625 0.91c 0.143 -0.494 0.585 -0.91 1.196 -0.91c 0.897 0 1.183 1.066 1.378 2.028c 0 0.117 -0.065 0.182 -0.195 0.182c -0.117 0 -0.195 -0.091 -0.234 -0.273c -0.26 -1.027 -0.572 -1.547 -0.923 -1.547c -0.221 0 -0.338 0.182 -0.338 0.533c 0 0.195 0.026 0.403 0.078 0.611l 1.846 7.436v 0.052c -0.039 0.091 -0.117 0.143 -0.221 0.143c -0.299 0 -0.845 -0.052 -1.625 -0.143c -0.143 -0.013 -0.221 -0.117 -0.221 -0.299c 0 -0.13 0.117 -0.195 0.351 -0.195c 0.247 0 0.585 0.013 0.585 -0.169Z m -1.144 -3.328c 0.13 -0.273 0.195 -0.455 0.195 -0.572c -0.013 -0.052 -0.026 -0.117 -0.039 -0.208l -0.637 -2.522c -0.039 -0.143 -0.13 -0.299 -0.247 -0.455c -0.481 -0.585 -0.949 -0.884 -1.404 -0.884c -0.507 0 -0.767 0.39 -0.767 1.157c 0 0.312 0.078 0.78 0.234 1.404c 0.273 1.105 0.663 1.859 1.144 2.262c 0.26 0.221 0.507 0.325 0.754 0.325c 0.351 0 0.611 -0.169 0.767 -0.507Z "/></symbol><symbol id="g3780884EF0B1863BCCC7385193F65A25" overflow="visible"><path d="M 0 0m 4.29 5.447c 0 0.117 -0.13 0.182 -0.403 0.182h -1.053c 0.338 1.352 0.507 2.054 0.507 2.106c 0 0.273 -0.143 0.403 -0.416 0.403c -0.299 0 -0.481 -0.169 -0.559 -0.507l -0.481 -2.002h -1.157c -0.286 0 -0.429 -0.013 -0.429 -0.286c 0 -0.143 0.13 -0.208 0.403 -0.208h 1.053c -0.637 -2.535 -0.949 -3.874 -0.949 -4.043c 0 -0.728 0.494 -1.235 1.222 -1.235c 0.494 0 0.923 0.221 1.3 0.676c 0.312 0.377 0.533 0.741 0.676 1.092c 0.052 0.143 0.078 0.221 0.078 0.26c 0 0.117 -0.065 0.182 -0.195 0.182c -0.104 0 -0.182 -0.065 -0.234 -0.208c -0.442 -1.079 -0.975 -1.612 -1.612 -1.612c -0.221 0 -0.338 0.182 -0.338 0.533c 0 0.195 0.026 0.403 0.078 0.611l 0.923 3.744h 1.157c 0.338 0 0.429 0.026 0.429 0.312Z "/></symbol><symbol id="gCC416E75927AD0A8099D8AB0ED7855DE" overflow="visible"><path d="M 0 0m 9.828 7.059c 0 1.183 -1.17 1.82 -2.444 1.82h -4.316c -0.299 0 -0.429 -0.013 -0.429 -0.312c 0 -0.208 0.26 -0.195 0.416 -0.195c 0.39 -0.013 0.624 -0.039 0.689 -0.052c 0.065 -0.013 0.091 -0.052 0.091 -0.117c 0 -0.026 -0.013 -0.104 -0.052 -0.234l -1.716 -6.903c -0.065 -0.286 -0.195 -0.455 -0.39 -0.52c -0.091 -0.026 -0.325 -0.039 -0.728 -0.039c -0.273 0 -0.403 -0.104 -0.403 -0.312c 0 -0.13 0.13 -0.195 0.403 -0.195h 4.589c 0.845 0 1.625 0.26 2.366 0.767c 0.819 0.559 1.235 1.248 1.235 2.054c 0 1.027 -0.845 1.651 -1.768 1.833c 1.144 0.273 2.457 1.144 2.457 2.405Z m -2.626 1.313c 0.897 0 1.352 -0.416 1.352 -1.261c 0 -0.663 -0.26 -1.209 -0.806 -1.651c -0.546 -0.442 -1.157 -0.65 -1.82 -0.65h -1.807l 0.78 3.12c 0.104 0.442 0.104 0.442 0.65 0.442Z m 0.364 -4.485c 0.182 -0.299 0.273 -0.598 0.273 -0.923c 0 -0.676 -0.26 -1.261 -0.793 -1.742c -0.533 -0.481 -1.131 -0.715 -1.82 -0.715h -1.755c -0.13 0 -0.221 0 -0.273 0.013c -0.078 0 -0.117 0.026 -0.117 0.065c 0 0.013 0 0.052 0.013 0.104c 0.403 1.651 0.715 2.899 0.923 3.731h 2.392c 0.559 0 0.936 -0.182 1.157 -0.533Z "/></symbol><symbol id="g66C287F757172C4FBEE46C9B113A6E1F" overflow="visible"><path d="M 0 0m 4.6956 2.9029c 0 1.0283 -0.182 1.8109 -0.5369 2.3478c -0.2912 0.455 -0.8736 0.7917 -1.5743 0.7917c -0.2912 0 -0.5551 -0.0455 -0.7826 -0.1456c -1.001 -0.4186 -1.3286 -1.5834 -1.3286 -2.9939c 0 -0.3094 0.0182 -0.6006 0.0455 -0.8827c 0.1547 -1.1921 0.7098 -2.2022 2.0657 -2.2022c 0.2912 0 0.5551 0.0455 0.7826 0.1456c 1.001 0.4095 1.3286 1.547 1.3286 2.9393Z m -1.0374 2.0202c 0.1001 -0.3367 0.1547 -0.9646 0.1547 -1.9019c 0 -0.8918 -0.0364 -1.5197 -0.1183 -1.8928c -0.1092 -0.5369 -0.4914 -0.9828 -1.1102 -0.9828c -0.2275 0 -0.455 0.0728 -0.6643 0.2275c -0.2821 0.2093 -0.455 0.6188 -0.5278 1.2467c -0.0273 0.2093 -0.0364 0.6734 -0.0364 1.4014c 0 0.8827 0.0455 1.4924 0.1365 1.82c 0.1547 0.5824 0.5187 0.8736 1.092 0.8736c 0.546 0 0.9464 -0.3549 1.0738 -0.7917Z "/></symbol><symbol id="g6F1473A4C93C0F65EF32B6DD19A2D771" overflow="visible"><path d="M 0 0m 2.249 8.216l -1.612 -6.669c -0.039 -0.182 -0.065 -0.338 -0.065 -0.455c 0 -0.689 0.507 -1.235 1.196 -1.235c 0.637 0 1.092 0.676 1.365 2.028c 0 0.117 -0.065 0.182 -0.208 0.182c -0.104 0 -0.182 -0.091 -0.221 -0.273c -0.26 -1.027 -0.559 -1.547 -0.91 -1.547c -0.221 0 -0.325 0.182 -0.325 0.533c 0 0.195 0.026 0.403 0.078 0.611l 1.807 7.436v 0.052c -0.039 0.091 -0.117 0.143 -0.208 0.143c -0.416 0 -1.378 -0.117 -1.534 -0.13c -0.195 -0.026 -0.286 -0.13 -0.286 -0.325c 0 -0.117 0.117 -0.182 0.364 -0.182c 0.221 0 0.559 0 0.559 -0.169Z "/></symbol><symbol id="gA6F2C1D597D3EC5A6DEDB5B511CF0779" overflow="visible"><path d="M 0 0m 6.851 4.849c 0 0.598 -0.585 0.897 -1.235 0.897c -0.559 0 -1.001 -0.299 -1.339 -0.897c -0.273 0.598 -0.728 0.897 -1.391 0.897c -0.637 0 -1.157 -0.299 -1.573 -0.884c -0.351 -0.507 -0.533 -0.884 -0.533 -1.131c 0 -0.117 0.065 -0.182 0.195 -0.182c 0.117 0 0.195 0.065 0.221 0.182c 0.247 0.754 0.793 1.638 1.664 1.638c 0.429 0 0.637 -0.273 0.637 -0.806c 0 -0.273 -0.234 -1.287 -0.689 -3.029c -0.221 -0.871 -0.611 -1.3 -1.17 -1.3c -0.182 0 -0.351 0.039 -0.494 0.104c 0.338 0.13 0.507 0.364 0.507 0.702c 0 0.338 -0.169 0.507 -0.52 0.507c -0.429 0 -0.754 -0.364 -0.754 -0.793c 0 -0.598 0.611 -0.897 1.248 -0.897c 0.546 0 0.988 0.299 1.339 0.897c 0.247 -0.598 0.715 -0.897 1.391 -0.897c 0.624 0 1.144 0.299 1.56 0.884c 0.351 0.507 0.533 0.884 0.533 1.131c 0 0.117 -0.065 0.182 -0.195 0.182c -0.117 0 -0.182 -0.065 -0.221 -0.182c -0.221 -0.741 -0.806 -1.638 -1.651 -1.638c -0.429 0 -0.65 0.26 -0.65 0.793c 0 0.169 0.065 0.533 0.208 1.118l 0.442 1.755c 0.247 0.975 0.65 1.469 1.222 1.469c 0.182 0 0.351 -0.039 0.494 -0.104c -0.351 -0.117 -0.52 -0.351 -0.52 -0.702c 0 -0.338 0.182 -0.507 0.533 -0.507c 0.416 0 0.741 0.377 0.741 0.793Z "/></symbol><symbol id="g33F7536FD48B65A98BF58DD6C69AC9A7" overflow="visible"><path d="M 0 0m 2.496 4.875c 0 0.39 -0.299 0.728 -0.689 0.728c -0.39 0 -0.689 -0.338 -0.689 -0.728c 0 -0.403 0.299 -0.741 0.689 -0.741c 0.39 0 0.689 0.351 0.689 0.741Z m -1.378 -4.173c 0 -0.416 0.273 -0.728 0.689 -0.728c 0.143 0 0.273 0.039 0.364 0.091c -0.013 -0.858 -0.273 -1.586 -0.767 -2.184c -0.065 -0.078 -0.091 -0.143 -0.091 -0.195c 0 -0.13 0.052 -0.195 0.169 -0.195c 0.065 0 0.182 0.104 0.351 0.325c 0.468 0.611 0.702 1.352 0.702 2.236c 0 0.923 -0.247 1.378 -0.728 1.378c -0.416 0 -0.689 -0.312 -0.689 -0.728Z "/></symbol><symbol id="g219D7D161E803083B7D838AFD138262C" overflow="visible"><path d="M 0 0m 6.76 8.671c 0 0.143 -0.091 0.208 -0.26 0.208l -1.898 -0.039l -1.703 0.039c -0.195 0.013 -0.299 -0.091 -0.299 -0.312c 0 -0.091 0.039 -0.156 0.117 -0.169c 0.117 -0.013 0.221 -0.026 0.286 -0.026c 0.403 -0.013 0.624 -0.039 0.689 -0.052c 0.065 -0.013 0.104 -0.052 0.104 -0.117c 0 -0.026 -0.013 -0.104 -0.052 -0.234l -1.716 -6.903c -0.078 -0.286 -0.208 -0.455 -0.403 -0.52c -0.078 -0.026 -0.312 -0.039 -0.715 -0.039c -0.273 0 -0.403 -0.104 -0.403 -0.312c 0 -0.13 0.13 -0.195 0.403 -0.195h 5.941c 0.325 0 0.351 0 0.442 0.247l 1.014 2.782c 0.039 0.091 0.052 0.156 0.052 0.195c 0 0.13 -0.065 0.195 -0.208 0.195c -0.13 0 -0.195 -0.117 -0.26 -0.299c -0.247 -0.637 -0.481 -1.118 -0.676 -1.417c -0.481 -0.728 -1.3 -1.196 -2.496 -1.196h -1.209c -0.143 0 -0.234 0 -0.273 0.013c -0.091 0 -0.13 0.026 -0.13 0.065c 0 0.026 0.026 0.117 0.065 0.286l 1.729 6.942c 0.078 0.299 0.247 0.468 0.494 0.533c 0.078 0.013 0.351 0.026 0.819 0.026c 0.364 0 0.546 0 0.546 0.299Z "/></symbol></defs></svg>