<svg viewBox="0 0 176.737022222 34.684" width="176.737022222pt" height="34.684pt" xmlns="http://www.w3.org/2000/svg" xmlns:xlink="http://www.w3.org/1999/xlink" xmlns:h5="http://www.w3.org/1999/xhtml"><g transform="matrix(1 0 0 -1 6.5 21.723)"><use xlink:href="#g219D7D161E803083B7D838AFD138262C" x="0" y="0" fill="#e6edf3" fill-rule="nonzero"/></g><g transform="matrix(1 0 0 -1 16.653 12.922)"><use xlink:href="#g6BCCDCE0D843C0F823A4CE121D6D1649" x="0" y="0" fill="#e6edf3" fill-rule="nonzero"/></g><g transform="matrix(1 0 0 -1 23.725 12.922)"><use xlink:href="#g115DED64194A3B9D1CA25A004CD4734D" x="0" y="0" fill="#e6edf3" fill-rule="nonzero"/></g><g transform="matrix(1 0 0 -1 17.719 30.641)"><use xlink:href="#g6BCCDCE0D843C0F823A4CE121D6D1649" x="0" y="0" fill="#e6edf3" fill-rule="nonzero"/></g><g transform="matrix(1 0 0 -1 24.791 30.641)"><use xlink:href="#g3780884EF0B1863BCCC7385193F65A25" x="0" y="0" fill="#e6edf3" fill-rule="nonzero"/></g><path fill="none" stroke="#e6edf3" stroke-width="0.624" stroke-linecap="butt" stroke-linejoin="miter" stroke-miterlimit="4" transform="translate(16.653 18.473)" d="M 0 0h 13.897"/><g transform="matrix(1 0 0 -1 34.738888889 21.723)"><use xlink:href="#gEDF6611ACB83925E748178A176190AF2" x="0" y="0" fill="#e6edf3" fill-rule="nonzero"/></g><g transform="matrix(1 0 0 -1 47.741777778 21.723)"><use xlink:href="#g64EED7C1DC5EF9C242224A119317485D" x="0" y="0" fill="#e6edf3" fill-rule="nonzero"/></g><g transform="matrix(1 0 0 -1 57.920777778 21.723)"><use xlink:href="#g115DED64194A3B9D1CA25A004CD4734D" x="0" y="0" fill="#e6edf3" fill-rule="nonzero"/></g><g transform="matrix(1 0 0 -1 68.356888889 21.723)"><use xlink:href="#g13AFF74D87C474CFAF661EEAD0458F8B" x="0" y="0" fill="#e6edf3" fill-rule="nonzero"/></g><g transform="matrix(1 0 0 -1 82.082 21.723)"><use xlink:href="#gCC416E75927AD0A8099D8AB0ED7855DE" x="0" y="0" fill="#e6edf3" fill-rule="nonzero"/></g><g transform="matrix(1 0 0 -1 91.299 24.934)"><use xlink:href="#g66C287F757172C4FBEE46C9B113A6E1F" x="0" y="0" fill="#e6edf3" fill-rule="nonzero"/></g><g transform="matrix(1 0 0 -1 97.2049 21.723)"><use xlink:href="#g6F1473A4C93C0F65EF32B6DD19A2D771" x="0" y="0" fill="#e6edf3" fill-rule="nonzero"/></g><g transform="matrix(1 0 0 -1 101.0789 21.723)"><use xlink:href="#gF291FCC7BBD497BC1B54131876EE661E" x="0" y="0" fill="#e6edf3" fill-rule="nonzero"/></g><g transform="matrix(1 0 0 -1 107.5269 21.723)"><use xlink:href="#g2D7122AD31FABF41BED931716B883F58" x="0" y="0" fill="#e6edf3" fill-rule="nonzero"/></g><g transform="matrix(1 0 0 -1 112.5839 21.723)"><use xlink:href="#g3780884EF0B1863BCCC7385193F65A25" x="0" y="0" fill="#e6edf3" fill-rule="nonzero"/></g><g transform="matrix(1 0 0 -1 117.2769 21.723)"><use xlink:href="#g2F93E6EEEE2061842AA37F49EEA2F1A2" x="0" y="0" fill="#e6edf3" fill-rule="nonzero"/></g><g transform="matrix(1 0 0 -1 125.945011111 21.723)"><use xlink:href="#g13AFF74D87C474CFAF661EEAD0458F8B" x="0" y="0" fill="#e6edf3" fill-rule="nonzero"/></g><g transform="matrix(1 0 0 -1 139.670122222 21.723)"><use xlink:href="#gCC416E75927AD0A8099D8AB0ED7855DE" x="0" y="0" fill="#e6edf3" fill-rule="nonzero"/></g><g transform="matrix(1 0 0 -1 148.887122222 24.934)"><use xlink:href="#g66C287F757172C4FBEE46C9B113A6E1F" x="0" y="0" fill="#e6edf3" fill-rule="nonzero"/></g><g transform="matrix(1 0 0 -1 154.793022222 21.723)"><use xlink:href="#g6F1473A4C93C0F65EF32B6DD19A2D771" x="0" y="0" fill="#e6edf3" fill-rule="nonzero"/></g><g transform="matrix(1 0 0 -1 158.667022222 21.723)"><use xlink:href="#gE9E0C553A910389E98181E1EB82F3CA5" x="0" y="0" fill="#e6edf3" fill-rule="nonzero"/></g><g transform="matrix(1 0 0 -1 165.544022222 21.723)"><use xlink:href="#g3780884EF0B1863BCCC7385193F65A25" x="0" y="0" fill="#e6edf3" fill-rule="nonzero"/></g><defs><symbol id="g219D7D161E803083B7D838AFD138262C" overflow="visible"><path d="M 0 0m 6.76 8.671c 0 0.143 -0.091 0.208 -0.26 0.208l -1.898 -0.039l -1.703 0.039c -0.195 0.013 -0.299 -0.091 -0.299 -0.312c 0 -0.091 0.039 -0.156 0.117 -0.169c 0.117 -0.013 0.221 -0.026 0.286 -0.026c 0.403 -0.013 0.624 -0.039 0.689 -0.052c 0.065 -0.013 0.104 -0.052 0.104 -0.117c 0 -0.026 -0.013 -0.104 -0.052 -0.234l -1.716 -6.903c -0.078 -0.286 -0.208 -0.455 -0.403 -0.52c -0.078 -0.026 -0.312 -0.039 -0.715 -0.039c -0.273 0 -0.403 -0.104 -0.403 -0.312c 0 -0.13 0.13 -0.195 0.403 -0.195h 5.941c 0.325 0 0.351 0 0.442 0.247l 1.014 2.782c 0.039 0.091 0.052 0.156 0.052 0.195c 0 0.13 -0.065 0.195 -0.208 0.195c -0.13 0 -0.195 -0.117 -0.26 -0.299c -0.247 -0.637 -0.481 -1.118 -0.676 -1.417c -0.481 -0.728 -1.3 -1.196 -2.496 -1.196h -1.209c -0.143 0 -0.234 0 -0.273 0.013c -0.091 0 -0.13 0.026 -0.13 0.065c 0 0.026 0.026 0.117 0.065 0.286l 1.729 6.942c 0.078 0.299 0.247 0.468 0.494 0.533c 0.078 0.013 0.351 0.026 0.819 0.026c 0.364 0 0.546 0 0.546 0.299Z "/></symbol><symbol id="g6BCCDCE0D843C0F823A4CE121D6D1649" overflow="visible"><path d="M 0 0m 5.577 8.216l -0.767 -3.159c -0.273 0.481 -0.65 0.728 -1.157 0.728c -0.845 0 -1.586 -0.429 -2.236 -1.3c -0.598 -0.806 -0.897 -1.651 -0.897 -2.522c 0 -1.144 0.663 -2.106 1.755 -2.106c 0.559 0 1.105 0.299 1.625 0.91c 0.143 -0.494 0.585 -0.91 1.196 -0.91c 0.897 0 1.183 1.066 1.378 2.028c 0 0.117 -0.065 0.182 -0.195 0.182c -0.117 0 -0.195 -0.091 -0.234 -0.273c -0.26 -1.027 -0.572 -1.547 -0.923 -1.547c -0.221 0 -0.338 0.182 -0.338 0.533c 0 0.195 0.026 0.403 0.078 0.611l 1.846 7.436v 0.052c -0.039 0.091 -0.117 0.143 -0.221 0.143c -0.299 0 -0.845 -0.052 -1.625 -0.143c -0.143 -0.013 -0.221 -0.117 -0.221 -0.299c 0 -0.13 0.117 -0.195 0.351 -0.195c 0.247 0 0.585 0.013 0.585 -0.169Z m -1.144 -3.328c 0.13 -0.273 0.195 -0.455 0.195 -0.572c -0.013 -0.052 -0.026 -0.117 -0.039 -0.208l -0.637 -2.522c -0.039 -0.143 -0.13 -0.299 -0.247 -0.455c -0.481 -0.585 -0.949 -0.884 -1.404 -0.884c -0.507 0 -0.767 0.39 -0.767 1.157c 0 0.312 0.078 0.78 0.234 1.404c 0.273 1.105 0.663 1.859 1.144 2.262c 0.26 0.221 0.507 0.325 0.754 0.325c 0.351 0 0.611 -0.169 0.767 -0.507Z "/></symbol><symbol id="g115DED64194A3B9D1CA25A004CD4734D" overflow="visible"><path d="M 0 0m 6.461 8.671c 0 0.143 -0.078 0.208 -0.247 0.208l -1.677 -0.039l -1.703 0.039c -0.208 0.013 -0.312 -0.091 -0.312 -0.312c 0 -0.13 0.143 -0.195 0.416 -0.195c 0.559 0 0.832 -0.065 0.832 -0.182c 0 -0.065 -0.013 -0.13 -0.026 -0.195l -1.729 -6.929c -0.065 -0.286 -0.195 -0.455 -0.39 -0.52c -0.091 -0.026 -0.325 -0.039 -0.728 -0.039c -0.325 0 -0.455 -0.013 -0.455 -0.312c 0 -0.13 0.078 -0.195 0.247 -0.195l 1.664 0.039l 1.716 -0.039c 0.208 -0.013 0.312 0.091 0.312 0.299c 0 0.208 -0.156 0.208 -0.442 0.208c -0.507 0 -0.819 -0.026 -0.819 0.182c 0 0.065 0.013 0.156 0.052 0.286l 1.716 6.851c 0.065 0.273 0.195 0.442 0.39 0.507c 0.091 0.026 0.325 0.039 0.728 0.039c 0.312 0 0.455 0.013 0.455 0.299Z "/></symbol><symbol id="g3780884EF0B1863BCCC7385193F65A25" overflow="visible"><path d="M 0 0m 4.29 5.447c 0 0.117 -0.13 0.182 -0.403 0.182h -1.053c 0.338 1.352 0.507 2.054 0.507 2.106c 0 0.273 -0.143 0.403 -0.416 0.403c -0.299 0 -0.481 -0.169 -0.559 -0.507l -0.481 -2.002h -1.157c -0.286 0 -0.429 -0.013 -0.429 -0.286c 0 -0.143 0.13 -0.208 0.403 -0.208h 1.053c -0.637 -2.535 -0.949 -3.874 -0.949 -4.043c 0 -0.728 0.494 -1.235 1.222 -1.235c 0.494 0 0.923 0.221 1.3 0.676c 0.312 0.377 0.533 0.741 0.676 1.092c 0.052 0.143 0.078 0.221 0.078 0.26c 0 0.117 -0.065 0.182 -0.195 0.182c -0.104 0 -0.182 -0.065 -0.234 -0.208c -0.442 -1.079 -0.975 -1.612 -1.612 -1.612c -0.221 0 -0.338 0.182 -0.338 0.533c 0 0.195 0.026 0.403 0.078 0.611l 0.923 3.744h 1.157c 0.338 0 0.429 0.026 0.429 0.312Z "/></symbol><symbol id="gEDF6611ACB83925E748178A176190AF2" overflow="visible"><path d="M 0 0m 9.074 3.562h -3.705v 3.705c 0 0.208 -0.104 0.312 -0.312 0.312c -0.208 0 -0.312 -0.104 -0.312 -0.312v -3.705h -3.705c -0.208 0 -0.312 -0.104 -0.312 -0.312c 0 -0.208 0.104 -0.312 0.312 -0.312h 3.705v -3.705c 0 -0.208 0.104 -0.312 0.312 -0.312c 0.208 0 0.312 0.104 0.312 0.312v 3.705h 3.705c 0.208 0 0.312 0.104 0.312 0.312c 0 0.169 -0.143 0.312 -0.312 0.312Z "/></symbol><symbol id="g64EED7C1DC5EF9C242224A119317485D" overflow="visible"><path d="M 0 0m 9.607 6.903c 0 0.663 -0.338 1.17 -1.001 1.534c -0.533 0.299 -1.17 0.442 -1.885 0.442h -3.666c -0.299 0 -0.429 -0.013 -0.429 -0.312c 0 -0.091 0.039 -0.156 0.117 -0.169c 0.13 -0.013 0.234 -0.026 0.299 -0.026c 0.39 -0.013 0.611 -0.039 0.676 -0.052c 0.065 -0.013 0.104 -0.052 0.104 -0.117c 0 -0.026 -0.013 -0.104 -0.052 -0.234l -1.716 -6.903c -0.065 -0.286 -0.195 -0.468 -0.39 -0.533c -0.091 -0.026 -0.325 -0.039 -0.728 -0.039c -0.286 0 -0.403 -0.013 -0.403 -0.299c 0 -0.143 0.078 -0.208 0.234 -0.195l 1.612 0.039l 1.638 -0.039c 0.208 -0.013 0.312 0.104 0.312 0.299c 0 0.13 -0.143 0.195 -0.416 0.195c -0.52 0 -0.78 0.065 -0.78 0.182c 0 0 0.013 0.026 0.039 0.208l 0.832 3.367h 1.495c 0.897 0 1.352 -0.377 1.352 -1.118c 0 -0.117 -0.065 -0.403 -0.182 -0.871c -0.143 -0.546 -0.208 -0.91 -0.208 -1.105c 0 -0.988 0.767 -1.443 1.755 -1.443c 0.364 0 0.715 0.169 1.066 0.494c 0.351 0.325 0.533 0.676 0.533 1.04c 0 0.13 -0.065 0.195 -0.208 0.195c -0.091 0 -0.169 -0.065 -0.208 -0.208c -0.143 -0.403 -0.325 -0.702 -0.533 -0.871c -0.208 -0.169 -0.403 -0.26 -0.598 -0.26c -0.299 0 -0.455 0.247 -0.455 0.728c 0 0.312 0.039 0.793 0.13 1.456c 0.039 0.273 0.052 0.468 0.052 0.611c 0 0.689 -0.364 1.196 -1.092 1.508c 1.222 0.299 2.704 1.17 2.704 2.496Z m -1.69 1.105c 0.26 -0.169 0.39 -0.455 0.39 -0.858c 0 -0.26 -0.052 -0.559 -0.169 -0.91c -0.351 -1.066 -1.235 -1.599 -2.652 -1.599h -1.378l 0.819 3.289c 0.065 0.273 0.169 0.416 0.312 0.429c 0.065 0.013 0.325 0.013 0.78 0.013c 0.845 0 1.339 -0.026 1.898 -0.364Z "/></symbol><symbol id="g13AFF74D87C474CFAF661EEAD0458F8B" overflow="visible"><path d="M 0 0m 9.074 4.771h -8.034c -0.208 0 -0.312 -0.104 -0.312 -0.299c 0 -0.195 0.104 -0.299 0.312 -0.299h 8.034c 0.208 0 0.312 0.104 0.312 0.299c 0 0.156 -0.143 0.299 -0.312 0.299Z m 0 -2.444h -8.034c -0.208 0 -0.312 -0.104 -0.312 -0.299c 0 -0.195 0.104 -0.299 0.312 -0.299h 8.034c 0.208 0 0.312 0.104 0.312 0.299c 0 0.169 -0.143 0.299 -0.312 0.299Z "/></symbol><symbol id="gCC416E75927AD0A8099D8AB0ED7855DE" overflow="visible"><path d="M 0 0m 9.828 7.059c 0 1.183 -1.17 1.82 -2.444 1.82h -4.316c -0.299 0 -0.429 -0.013 -0.429 -0.312c 0 -0.208 0.26 -0.195 0.416 -0.195c 0.39 -0.013 0.624 -0.039 0.689 -0.052c 0.065 -0.013 0.091 -0.052 0.091 -0.117c 0 -0.026 -0.013 -0.104 -0.052 -0.234l -1.716 -6.903c -0.065 -0.286 -0.195 -0.455 -0.39 -0.52c -0.091 -0.026 -0.325 -0.039 -0.728 -0.039c -0.273 0 -0.403 -0.104 -0.403 -0.312c 0 -0.13 0.13 -0.195 0.403 -0.195h 4.589c 0.845 0 1.625 0.26 2.366 0.767c 0.819 0.559 1.235 1.248 1.235 2.054c 0 1.027 -0.845 1.651 -1.768 1.833c 1.144 0.273 2.457 1.144 2.457 2.405Z m -2.626 1.313c 0.897 0 1.352 -0.416 1.352 -1.261c 0 -0.663 -0.26 -1.209 -0.806 -1.651c -0.546 -0.442 -1.157 -0.65 -1.82 -0.65h -1.807l 0.78 3.12c 0.104 0.442 0.104 0.442 0.65 0.442Z m 0.364 -4.485c 0.182 -0.299 0.273 -0.598 0.273 -0.923c 0 -0.676 -0.26 -1.261 -0.793 -1.742c -0.533 -0.481 -1.131 -0.715 -1.82 -0.715h -1.755c -0.13 0 -0.221 0 -0.273 0.013c -0.078 0 -0.117 0.026 -0.117 0.065c 0 0.013 0 0.052 0.013 0.104c 0.403 1.651 0.715 2.899 0.923 3.731h 2.392c 0.559 0 0.936 -0.182 1.157 -0.533Z "/></symbol><symbol id="g66C287F757172C4FBEE46C9B113A6E1F" overflow="visible"><path d="M 0 0m 4.6956 2.9029c 0 1.0283 -0.182 1.8109 -0.5369 2.3478c -0.2912 0.455 -0.8736 0.7917 -1.5743 0.7917c -0.2912 0 -0.5551 -0.0455 -0.7826 -0.1456c -1.001 -0.4186 -1.3286 -1.5834 -1.3286 -2.9939c 0 -0.3094 0.0182 -0.6006 0.0455 -0.8827c 0.1547 -1.1921 0.7098 -2.2022 2.0657 -2.2022c 0.2912 0 0.5551 0.0455 0.7826 0.1456c 1.001 0.4095 1.3286 1.547 1.3286 2.9393Z m -1.0374 2.0202c 0.1001 -0.3367 0.1547 -0.9646 0.1547 -1.9019c 0 -0.8918 -0.0364 -1.5197 -0.1183 -1.8928c -0.1092 -0.5369 -0.4914 -0.9828 -1.1102 -0.9828c -0.2275 0 -0.455 0.0728 -0.6643 0.2275c -0.2821 0.2093 -0.455 0.6188 -0.5278 1.2467c -0.0273 0.2093 -0.0364 0.6734 -0.0364 1.4014c 0 0.8827 0.0455 1.4924 0.1365 1.82c 0.1547 0.5824 0.5187 0.8736 1.092 0.8736c 0.546 0 0.9464 -0.3549 1.0738 -0.7917Z "/></symbol><symbol id="g6F1473A4C93C0F65EF32B6DD19A2D771" overflow="visible"><path d="M 0 0m 2.249 8.216l -1.612 -6.669c -0.039 -0.182 -0.065 -0.338 -0.065 -0.455c 0 -0.689 0.507 -1.235 1.196 -1.235c 0.637 0 1.092 0.676 1.365 2.028c 0 0.117 -0.065 0.182 -0.208 0.182c -0.104 0 -0.182 -0.091 -0.221 -0.273c -0.26 -1.027 -0.559 -1.547 -0.91 -1.547c -0.221 0 -0.325 0.182 -0.325 0.533c 0 0.195 0.026 0.403 0.078 0.611l 1.807 7.436v 0.052c -0.039 0.091 -0.117 0.143 -0.208 0.143c -0.416 0 -1.378 -0.117 -1.534 -0.13c -0.195 -0.026 -0.286 -0.13 -0.286 -0.325c 0 -0.117 0.117 -0.182 0.364 -0.182c 0.221 0 0.559 0 0.559 -0.169Z "/></symbol><symbol id="gF291FCC7BBD497BC1B54131876EE661E" overflow="visible"><path d="M 0 0m 4.797 5.083c 0 -0.104 0.117 -0.273 0.325 -0.533c 0.208 -0.26 0.312 -0.559 0.312 -0.897c 0 -0.377 -0.182 -1.014 -0.559 -1.911c -0.273 -0.624 -0.897 -1.508 -1.664 -1.508c -0.598 0 -0.897 0.351 -0.897 1.066c 0 0.507 0.247 1.404 0.741 2.691c 0.104 0.273 0.156 0.494 0.156 0.65c 0 0.65 -0.442 1.105 -1.092 1.105c -0.572 0 -1.027 -0.325 -1.352 -0.975c -0.26 -0.533 -0.39 -0.871 -0.39 -1.04c 0 -0.117 0.065 -0.182 0.208 -0.182c 0.169 0 0.195 0.078 0.247 0.26c 0.299 1.04 0.715 1.56 1.248 1.56c 0.169 0 0.26 -0.117 0.26 -0.364c 0 -0.208 -0.065 -0.494 -0.208 -0.871c -0.481 -1.287 -0.728 -2.158 -0.728 -2.639c 0 -0.663 0.221 -1.118 0.663 -1.365c 0.351 -0.182 0.715 -0.273 1.092 -0.273c 1.157 0 1.963 1.248 2.301 2.249c 0.416 1.222 0.624 2.119 0.624 2.691c 0 0.637 -0.208 0.949 -0.611 0.949c -0.325 0 -0.676 -0.338 -0.676 -0.663Z "/></symbol><symbol id="g2D7122AD31FABF41BED931716B883F58" overflow="visible"><path d="M 0 0m 4.134 -3.224c 0.117 0 0.182 0.065 0.182 0.182c 0 0.039 -0.026 0.091 -0.065 0.143c -0.676 0.52 -1.222 1.378 -1.625 2.561c -0.351 1.027 -0.533 2.041 -0.533 3.042v 1.092c 0 1.001 0.182 2.015 0.533 3.042c 0.403 1.183 0.949 2.041 1.625 2.561c 0.039 0.039 0.065 0.091 0.065 0.143c 0 0.117 -0.065 0.182 -0.182 0.182c -0.013 0 -0.052 -0.013 -0.091 -0.039c -0.78 -0.598 -1.43 -1.482 -1.963 -2.665c -0.507 -1.131 -0.767 -2.197 -0.767 -3.224v -1.092c 0 -1.027 0.26 -2.093 0.767 -3.224c 0.533 -1.183 1.183 -2.067 1.963 -2.665c 0.039 -0.026 0.078 -0.039 0.091 -0.039Z "/></symbol><symbol id="g2F93E6EEEE2061842AA37F49EEA2F1A2" overflow="visible"><path d="M 0 0m 1.014 -3.185c 0.78 0.598 1.43 1.482 1.963 2.665c 0.507 1.131 0.767 2.197 0.767 3.224v 1.092c 0 1.027 -0.26 2.093 -0.767 3.224c -0.533 1.183 -1.183 2.067 -1.963 2.665c -0.039 0.026 -0.078 0.039 -0.091 0.039c -0.117 0 -0.182 -0.065 -0.182 -0.182c 0 -0.052 0.026 -0.104 0.065 -0.143c 0.676 -0.52 1.222 -1.378 1.625 -2.561c 0.351 -1.027 0.533 -2.041 0.533 -3.042v -1.092c 0 -1.001 -0.182 -2.015 -0.533 -3.042c -0.403 -1.183 -0.949 -2.041 -1.625 -2.561c -0.039 -0.052 -0.065 -0.104 -0.065 -0.143c 0 -0.117 0.065 -0.182 0.182 -0.182c 0.013 0 0.052 0.013 0.091 0.039Z "/></symbol><symbol id="gE9E0C553A910389E98181E1EB82F3CA5" overflow="visible"><path d="M 0 0m 6.474 1.872c 0 0.117 -0.065 0.182 -0.208 0.182c -0.104 0 -0.182 -0.091 -0.221 -0.273c -0.26 -1.027 -0.572 -1.547 -0.923 -1.547c -0.221 0 -0.338 0.182 -0.338 0.546c 0 0.169 0.052 0.481 0.169 0.936l 0.741 2.925c 0.065 0.247 0.091 0.39 0.091 0.455c 0 0.26 -0.143 0.39 -0.429 0.39c -0.273 0 -0.455 -0.156 -0.546 -0.455c -0.273 0.481 -0.663 0.715 -1.157 0.715c -0.845 0 -1.586 -0.429 -2.236 -1.287c -0.598 -0.806 -0.897 -1.638 -0.897 -2.509c 0 -1.131 0.663 -2.093 1.755 -2.093c 0.559 0 1.105 0.299 1.625 0.897c 0.143 -0.494 0.585 -0.897 1.196 -0.897c 0.897 0 1.17 1.053 1.378 2.015Z m -2.041 2.99c 0.117 -0.273 0.182 -0.455 0.182 -0.572c 0 -0.052 -0.013 -0.117 -0.026 -0.208l -0.637 -2.496c -0.039 -0.143 -0.13 -0.299 -0.247 -0.455c -0.481 -0.598 -0.949 -0.897 -1.404 -0.897c -0.507 0 -0.767 0.39 -0.767 1.157c 0 0.312 0.078 0.78 0.234 1.404c 0.273 1.105 0.663 1.846 1.144 2.249c 0.26 0.221 0.507 0.325 0.754 0.325c 0.351 0 0.611 -0.169 0.767 -0.507Z "/></symbol></defs></svg>