<svg viewBox="0 0 174.028111111 35.048" width="174.028111111pt" height="35.048pt" xmlns="http://www.w3.org/2000/svg" xmlns:xlink="http://www.w3.org/1999/xlink" xmlns:h5="http://www.w3.org/1999/xhtml"><g transform="matrix(1 0 0 -1 6.5 21.944)"><use xlink:href="#g6BCCDCE0D843C0F823A4CE121D6D1649" x="0" y="0" fill="#e6edf3" fill-rule="nonzero"/></g><g transform="matrix(1 0 0 -1 13.572 21.944)"><use xlink:href="#g6F6DC66390EDB4031842963E7A41B7D9" x="0" y="0" fill="#e6edf3" fill-rule="nonzero"/></g><g transform="matrix(1 0 0 -1 22.932 21.944)"><use xlink:href="#g37D7AF847EB8D066970F2B84C26D7F75" x="0" y="0" fill="#e6edf3" fill-rule="nonzero"/></g><g transform="matrix(1 0 0 -1 28.597111111 21.944)"><use xlink:href="#g13AFF74D87C474CFAF661EEAD0458F8B" x="0" y="0" fill="#e6edf3" fill-rule="nonzero"/></g><g transform="matrix(1 0 0 -1 42.322222222 21.944)"><use xlink:href="#g35B4FBA1E2C6B292D79BD0F4F0E600B8" x="0" y="0" fill="#e6edf3" fill-rule="nonzero"/></g><g transform="matrix(1 0 0 -1 43.479222222 18.915)"><use xlink:href="#g6A78CAAF56C04D0BAE1AD9D27244E736" x="0" y="0" fill="#e6edf3" fill-rule="nonzero"/><use xlink:href="#g6A658C14ECD274003A3345FA4D90D1A3" x="2.386346999" y="0" fill="#e6edf3" fill-rule="nonzero"/><use xlink:href="#g6A658C14ECD274003A3345FA4D90D1A3" x="3.862808199" y="0" fill="#e6edf3" fill-rule="nonzero"/><use xlink:href="#g6A658C14ECD274003A3345FA4D90D1A3" x="5.3392694" y="0" fill="#e6edf3" fill-rule="nonzero"/><use xlink:href="#g6A658C14ECD274003A3345FA4D90D1A3" x="6.8157306" y="0" fill="#e6edf3" fill-rule="nonzero"/><use xlink:href="#g6A658C14ECD274003A3345FA4D90D1A3" x="8.292191801" y="0" fill="#e6edf3" fill-rule="nonzero"/><use xlink:href="#g6A658C14ECD274003A3345FA4D90D1A3" x="9.768653001" y="0" fill="#e6edf3" fill-rule="nonzero"/><use xlink:href="#gD07B3A091BC0675D761F91A53E2AE192" x="11.271" y="0" fill="#e6edf3" fill-rule="nonzero"/></g><g transform="matrix(1 0 0 -1 58.424888889 21.944)"><use xlink:href="#gEB9B079EF07FFCCA69ED7A9B1F1ABEB" x="0" y="0" fill="#e6edf3" fill-rule="nonzero"/></g><g transform="matrix(1 0 0 -1 65.652888889 21.944)"><use xlink:href="#g53251C539233983FE9FC826CA7FBAC4A" x="0" y="0" fill="#e6edf3" fill-rule="nonzero"/></g><g transform="matrix(1 0 0 -1 89.013888889 21.944)"><use xlink:href="#g7AF10AFFE59D420B8F89A40B982EF05" x="0" y="0" fill="#e6edf3" fill-rule="nonzero"/></g><g transform="matrix(1 0 0 -1 115.013888889 21.944)"><use xlink:href="#g35B4FBA1E2C6B292D79BD0F4F0E600B8" x="0" y="0" fill="#e6edf3" fill-rule="nonzero"/></g><g transform="matrix(1 0 0 -1 116.170888889 18.915)"><use xlink:href="#g6A78CAAF56C04D0BAE1AD9D27244E736" x="0" y="0" fill="#e6edf3" fill-rule="nonzero"/><use xlink:href="#g6A658C14ECD274003A3345FA4D90D1A3" x="2.386346999" y="0" fill="#e6edf3" fill-rule="nonzero"/><use xlink:href="#g6A658C14ECD274003A3345FA4D90D1A3" x="3.862808199" y="0" fill="#e6edf3" fill-rule="nonzero"/><use xlink:href="#g6A658C14ECD274003A3345FA4D90D1A3" x="5.3392694" y="0" fill="#e6edf3" fill-rule="nonzero"/><use xlink:href="#g6A658C14ECD274003A3345FA4D90D1A3" x="6.8157306" y="0" fill="#e6edf3" fill-rule="nonzero"/><use xlink:href="#g6A658C14ECD274003A3345FA4D90D1A3" x="8.292191801" y="0" fill="#e6edf3" fill-rule="nonzero"/><use xlink:href="#g6A658C14ECD274003A3345FA4D90D1A3" x="9.768653001" y="0" fill="#e6edf3" fill-rule="nonzero"/><use xlink:href="#gD07B3A091BC0675D761F91A53E2AE192" x="11.271" y="0" fill="#e6edf3" fill-rule="nonzero"/></g><g transform="matrix(1 0 0 -1 132.561 21.944)"><use xlink:href="#g13AFF74D87C474CFAF661EEAD0458F8B" x="0" y="0" fill="#e6edf3" fill-rule="nonzero"/></g><g transform="matrix(1 0 0 -1 147.586111111 13.143)"><use xlink:href="#gEB9B079EF07FFCCA69ED7A9B1F1ABEB" x="0" y="0" fill="#e6edf3" fill-rule="nonzero"/></g><g transform="matrix(1 0 0 -1 154.814111111 13.143)"><use xlink:href="#g6F6DC66390EDB4031842963E7A41B7D9" x="0" y="0" fill="#e6edf3" fill-rule="nonzero"/></g><g transform="matrix(1 0 0 -1 164.174111111 13.143)"><use xlink:href="#g37D7AF847EB8D066970F2B84C26D7F75" x="0" y="0" fill="#e6edf3" fill-rule="nonzero"/></g><g transform="matrix(1 0 0 -1 148.112611111 30.862)"><use xlink:href="#gEB9B079EF07FFCCA69ED7A9B1F1ABEB" x="0" y="0" fill="#e6edf3" fill-rule="nonzero"/></g><g transform="matrix(1 0 0 -1 155.340611111 30.862)"><use xlink:href="#g53251C539233983FE9FC826CA7FBAC4A" x="0" y="0" fill="#e6edf3" fill-rule="nonzero"/></g><path fill="none" stroke="#e6edf3" stroke-width="0.624" stroke-linecap="butt" stroke-linejoin="miter" stroke-miterlimit="4" transform="translate(147.586111111 18.694)" d="M 0 0h 18.642"/><defs><symbol id="g6BCCDCE0D843C0F823A4CE121D6D1649" overflow="visible"><path d="M 0 0m 5.577 8.216l -0.767 -3.159c -0.273 0.481 -0.65 0.728 -1.157 0.728c -0.845 0 -1.586 -0.429 -2.236 -1.3c -0.598 -0.806 -0.897 -1.651 -0.897 -2.522c 0 -1.144 0.663 -2.106 1.755 -2.106c 0.559 0 1.105 0.299 1.625 0.91c 0.143 -0.494 0.585 -0.91 1.196 -0.91c 0.897 0 1.183 1.066 1.378 2.028c 0 0.117 -0.065 0.182 -0.195 0.182c -0.117 0 -0.195 -0.091 -0.234 -0.273c -0.26 -1.027 -0.572 -1.547 -0.923 -1.547c -0.221 0 -0.338 0.182 -0.338 0.533c 0 0.195 0.026 0.403 0.078 0.611l 1.846 7.436v 0.052c -0.039 0.091 -0.117 0.143 -0.221 0.143c -0.299 0 -0.845 -0.052 -1.625 -0.143c -0.143 -0.013 -0.221 -0.117 -0.221 -0.299c 0 -0.13 0.117 -0.195 0.351 -0.195c 0.247 0 0.585 0.013 0.585 -0.169Z m -1.144 -3.328c 0.13 -0.273 0.195 -0.455 0.195 -0.572c -0.013 -0.052 -0.026 -0.117 -0.039 -0.208l -0.637 -2.522c -0.039 -0.143 -0.13 -0.299 -0.247 -0.455c -0.481 -0.585 -0.949 -0.884 -1.404 -0.884c -0.507 0 -0.767 0.39 -0.767 1.157c 0 0.312 0.078 0.78 0.234 1.404c 0.273 1.105 0.663 1.859 1.144 2.262c 0.26 0.221 0.507 0.325 0.754 0.325c 0.351 0 0.611 -0.169 0.767 -0.507Z "/></symbol><symbol id="g6F6DC66390EDB4031842963E7A41B7D9" overflow="visible"><path d="M 0 0m 8.541 5.746c -0.793 0 -1.482 -0.39 -2.067 -1.157c -0.117 0.767 -0.611 1.157 -1.495 1.157c -0.767 0 -1.43 -0.338 -1.976 -1.027c -0.104 0.572 -0.559 1.027 -1.222 1.027c -0.533 0 -0.923 -0.429 -1.196 -1.274c -0.143 -0.416 -0.208 -0.663 -0.208 -0.741c 0 -0.117 0.065 -0.182 0.208 -0.182c 0.065 0 0.104 0.013 0.143 0.039c 0.065 0.117 0.104 0.208 0.13 0.299c 0.234 0.988 0.533 1.482 0.884 1.482c 0.234 0 0.351 -0.182 0.351 -0.546c 0 -0.169 -0.065 -0.52 -0.208 -1.053l -0.741 -2.951c -0.052 -0.156 -0.117 -0.494 -0.117 -0.572c 0 -0.26 0.143 -0.39 0.416 -0.39c 0.26 0 0.442 0.13 0.533 0.39c 0.013 0.065 0.104 0.39 0.247 0.949l 0.273 1.157l 0.39 1.482c 0.143 0.299 0.364 0.598 0.65 0.91c 0.377 0.416 0.845 0.624 1.404 0.624c 0.429 0 0.637 -0.286 0.637 -0.845c 0 -0.169 -0.065 -0.52 -0.195 -1.053l -0.351 -1.482c -0.091 -0.377 -0.299 -1.157 -0.403 -1.573c -0.013 -0.091 -0.026 -0.143 -0.026 -0.169c 0 -0.26 0.143 -0.39 0.429 -0.39c 0.143 0 0.247 0.039 0.338 0.13c 0.195 0.195 0.208 0.286 0.286 0.637l 0.767 3.081c 0.039 0.169 0.221 0.468 0.533 0.884c 0.39 0.52 0.91 0.78 1.547 0.78c 0.429 0 0.637 -0.286 0.637 -0.845c 0 -0.507 -0.26 -1.456 -0.793 -2.847c -0.117 -0.299 -0.169 -0.546 -0.169 -0.715c 0 -0.637 0.481 -1.105 1.105 -1.105c 0.585 0 1.027 0.325 1.352 0.975c 0.26 0.52 0.39 0.871 0.39 1.04c 0 0.117 -0.065 0.182 -0.208 0.182c -0.091 -0.013 -0.182 -0.13 -0.247 -0.273c -0.286 -1.027 -0.702 -1.547 -1.261 -1.547c -0.169 0 -0.26 0.13 -0.26 0.377c 0 0.195 0.078 0.481 0.234 0.884c 0.533 1.391 0.793 2.34 0.793 2.834c 0 0.923 -0.611 1.417 -1.534 1.417Z "/></symbol><symbol id="g37D7AF847EB8D066970F2B84C26D7F75" overflow="visible"><path d="M 0 0m -0.897 7.787c 0.117 0.039 0.169 0.104 0.169 0.221c 0 0.117 -0.052 0.182 -0.169 0.221c -0.468 0.156 -0.806 0.442 -1.014 0.871c -0.039 0.091 -0.117 0.143 -0.208 0.143c -0.169 0 -0.247 -0.078 -0.247 -0.234c 0 -0.195 0.169 -0.455 0.507 -0.767h -4.03c -0.169 0 -0.247 -0.078 -0.247 -0.234c 0 -0.156 0.078 -0.234 0.247 -0.234h 4.03c -0.338 -0.312 -0.507 -0.572 -0.507 -0.767c 0 -0.156 0.078 -0.234 0.247 -0.234c 0.091 0 0.169 0.052 0.208 0.143c 0.208 0.429 0.546 0.715 1.014 0.871Z "/></symbol><symbol id="g13AFF74D87C474CFAF661EEAD0458F8B" overflow="visible"><path d="M 0 0m 9.074 4.771h -8.034c -0.208 0 -0.312 -0.104 -0.312 -0.299c 0 -0.195 0.104 -0.299 0.312 -0.299h 8.034c 0.208 0 0.312 0.104 0.312 0.299c 0 0.156 -0.143 0.299 -0.312 0.299Z m 0 -2.444h -8.034c -0.208 0 -0.312 -0.104 -0.312 -0.299c 0 -0.195 0.104 -0.299 0.312 -0.299h 8.034c 0.208 0 0.312 0.104 0.312 0.299c 0 0.169 -0.143 0.299 -0.312 0.299Z "/></symbol><symbol id="g35B4FBA1E2C6B292D79BD0F4F0E600B8" overflow="visible"><path d="M 0 0m 7.722 0.208c 0 -0.143 0.078 -0.208 0.247 -0.208l 1.599 0.039c 0.299 0.013 1.352 -0.039 1.599 -0.039c 0.195 0 0.299 0.104 0.299 0.312c 0 0.13 -0.13 0.195 -0.403 0.195c -0.533 0 -0.793 0.052 -0.793 0.169c 0 0.039 0.026 0.13 0.065 0.299l 1.716 6.851c 0.065 0.273 0.195 0.442 0.364 0.507c 0.078 0.026 0.312 0.039 0.689 0.039c 0.325 0 0.468 0.013 0.468 0.312c 0 0.13 -0.13 0.195 -0.403 0.195h -1.703c -0.377 0 -0.377 -0.026 -0.546 -0.273l -4.628 -7.202l -0.988 7.137c -0.052 0.325 -0.078 0.338 -0.455 0.338h -1.768c -0.286 0 -0.429 -0.013 -0.429 -0.299c 0 -0.143 0.143 -0.208 0.416 -0.208c 0.26 0 0.793 0.039 0.793 -0.169c 0 -0.026 -0.013 -0.104 -0.052 -0.234l -1.638 -6.539c -0.117 -0.494 -0.416 -0.793 -0.871 -0.884c -0.325 -0.039 -0.754 0.013 -0.754 -0.338c 0 -0.143 0.078 -0.208 0.234 -0.208c 0.234 0 1.053 0.039 1.287 0.039c 0.247 0 1.079 -0.039 1.326 -0.039c 0.195 0 0.286 0.104 0.286 0.312c 0 0.117 -0.091 0.182 -0.286 0.195c -0.546 0 -0.819 0.169 -0.819 0.507c 0 0.052 0.013 0.143 0.052 0.286l 1.69 6.773l 1.079 -7.735c 0.039 -0.221 0.117 -0.338 0.247 -0.338c 0.104 0 0.208 0.091 0.325 0.26l 5.057 7.891l -1.768 -7.085c -0.078 -0.286 -0.208 -0.455 -0.403 -0.52c -0.078 -0.026 -0.325 -0.039 -0.728 -0.039c -0.273 0 -0.403 -0.026 -0.403 -0.299Z "/></symbol><symbol id="g6A78CAAF56C04D0BAE1AD9D27244E736" overflow="visible"><path d="M 0 0m 0.234 7.8h 2.431v 0.468h -2.431c -0.156 0 -0.234 -0.104 -0.234 -0.234c 0 -0.13 0.078 -0.234 0.234 -0.234Z "/></symbol><symbol id="g6A658C14ECD274003A3345FA4D90D1A3" overflow="visible"><path d="M 0 0m 0 7.8h 1.781v 0.468h -1.781Z "/></symbol><symbol id="gD07B3A091BC0675D761F91A53E2AE192" overflow="visible"><path d="M 0 0m 2.509 7.813c 0.104 0.039 0.156 0.104 0.156 0.221c 0 0.117 -0.052 0.182 -0.156 0.221c -0.455 0.143 -0.793 0.442 -0.988 0.871c -0.039 0.091 -0.117 0.143 -0.221 0.143c -0.156 0 -0.234 -0.078 -0.234 -0.234c 0 -0.013 0.013 -0.052 0.026 -0.104c 0.104 -0.247 0.26 -0.468 0.481 -0.663h -1.573v -0.468h 1.573c -0.221 -0.195 -0.377 -0.416 -0.481 -0.663c -0.013 -0.052 -0.026 -0.091 -0.026 -0.104c 0 -0.156 0.078 -0.234 0.234 -0.234c 0.104 0 0.182 0.052 0.221 0.143c 0.195 0.429 0.533 0.728 0.988 0.871Z "/></symbol><symbol id="gEB9B079EF07FFCCA69ED7A9B1F1ABEB" overflow="visible"><path d="M 0 0m 4.862 -0.143l 1.989 0.143v 0.494c -0.468 0 -0.741 0.026 -0.845 0.104c -0.104 0.078 -0.156 0.273 -0.156 0.572v 7.852l -1.937 -0.143v -0.494c 0.455 0 0.741 -0.039 0.845 -0.117c 0.104 -0.078 0.143 -0.26 0.143 -0.559v -2.639c -0.416 0.481 -0.936 0.715 -1.56 0.715c -0.806 0 -1.495 -0.286 -2.054 -0.871c -0.559 -0.585 -0.845 -1.287 -0.845 -2.106c 0 -0.793 0.26 -1.482 0.793 -2.067c 0.533 -0.585 1.183 -0.884 1.976 -0.884c 0.663 0 1.222 0.247 1.651 0.754Z m -1.469 5.538c 0.559 0 1.014 -0.247 1.339 -0.741c 0.091 -0.143 0.13 -0.286 0.13 -0.455v -2.626c 0 -0.169 -0.039 -0.312 -0.13 -0.455c -0.364 -0.585 -0.858 -0.871 -1.469 -0.871c -0.533 0 -0.962 0.26 -1.3 0.793c -0.234 0.39 -0.351 0.975 -0.351 1.755c 0 1.417 0.481 2.6 1.781 2.6Z "/></symbol><symbol id="g53251C539233983FE9FC826CA7FBAC4A" overflow="visible"><path d="M 0 0m 8.723 8.84c -0.247 0 -1.027 0.039 -1.274 0.039c -0.195 0 -0.299 -0.104 -0.299 -0.299c 0 -0.13 0.091 -0.195 0.26 -0.208c 0.364 -0.013 0.546 -0.143 0.546 -0.364c 0 -0.117 -0.065 -0.273 -0.182 -0.468l -3.874 -6.149l -0.858 6.656c 0 0.221 0.273 0.325 0.832 0.325c 0.26 0 0.377 0.091 0.377 0.312c 0 0.13 -0.078 0.195 -0.234 0.195c -0.286 0 -1.3 -0.039 -1.586 -0.039c -0.26 0 -1.144 0.039 -1.404 0.039c -0.195 0 -0.299 -0.104 -0.299 -0.299c 0 -0.143 0.13 -0.208 0.377 -0.208c 0.221 0 0.377 -0.026 0.481 -0.052c 0.208 -0.065 0.195 -0.091 0.234 -0.338l 1.014 -7.93c 0.039 -0.221 0.143 -0.338 0.312 -0.338c 0.169 0 0.299 0.091 0.403 0.26l 4.628 7.358c 0.299 0.468 0.585 0.767 0.871 0.884c 0.195 0.091 0.442 0.143 0.728 0.156c 0.143 0.013 0.208 0.104 0.221 0.299c 0.013 0.143 -0.065 0.208 -0.221 0.208c -0.195 0 -0.858 -0.039 -1.053 -0.039Z "/></symbol><symbol id="g7AF10AFFE59D420B8F89A40B982EF05" overflow="visible"><path d="M 0 0m 12.051 3.029c 0.104 0.052 0.156 0.13 0.156 0.221c 0 0.091 -0.052 0.169 -0.156 0.221c -0.793 0.208 -1.599 0.663 -2.405 1.352c -0.585 0.507 -1.04 1.092 -1.378 1.768c -0.052 0.117 -0.143 0.169 -0.273 0.169c -0.208 0 -0.312 -0.104 -0.312 -0.312c 0 -0.026 0.013 -0.065 0.026 -0.13c 0.299 -0.572 0.663 -1.079 1.079 -1.521h -7.696c -0.208 0 -0.312 -0.104 -0.312 -0.299c 0 -0.208 0.104 -0.312 0.312 -0.312h 8.372c 0.481 -0.39 1.014 -0.702 1.573 -0.936c -0.559 -0.234 -1.092 -0.546 -1.573 -0.936h -8.372c -0.208 0 -0.312 -0.104 -0.312 -0.312c 0 -0.195 0.104 -0.299 0.312 -0.299h 7.696c -0.416 -0.442 -0.78 -0.949 -1.079 -1.521c -0.013 -0.065 -0.026 -0.104 -0.026 -0.13c 0 -0.208 0.104 -0.312 0.312 -0.312c 0.13 0 0.221 0.052 0.273 0.169c 0.338 0.676 0.793 1.261 1.378 1.768c 0.806 0.689 1.612 1.144 2.405 1.352Z "/></symbol></defs></svg>