<svg viewBox="0 0 435.796688889 47.879" width="435.796688889pt" height="47.879pt" xmlns="http://www.w3.org/2000/svg" xmlns:xlink="http://www.w3.org/1999/xlink" xmlns:h5="http://www.w3.org/1999/xhtml"><g transform="matrix(1 0 0 -1 6.5 27.794)"><use xlink:href="#gA01F6DC51669829F49C013CF8E967E44" x="0" y="0" fill="#e6edf3" fill-rule="nonzero"/></g><g transform="matrix(1 0 0 -1 20.217888889 27.794)"><use xlink:href="#g596E6AE655F7C550875F3D7A9A58D2C7" x="0" y="0" fill="#e6edf3" fill-rule="nonzero"/></g><g transform="matrix(1 0 0 -1 33.220777778 27.794)"><use xlink:href="#g35B4FBA1E2C6B292D79BD0F4F0E600B8" x="0" y="0" fill="#e6edf3" fill-rule="nonzero"/></g><g transform="matrix(1 0 0 -1 34.377777778 24.765)"><use xlink:href="#g6A78CAAF56C04D0BAE1AD9D27244E736" x="0" y="0" fill="#e6edf3" fill-rule="nonzero"/><use xlink:href="#g6A658C14ECD274003A3345FA4D90D1A3" x="2.386346999" y="0" fill="#e6edf3" fill-rule="nonzero"/><use xlink:href="#g6A658C14ECD274003A3345FA4D90D1A3" x="3.862808199" y="0" fill="#e6edf3" fill-rule="nonzero"/><use xlink:href="#g6A658C14ECD274003A3345FA4D90D1A3" x="5.3392694" y="0" fill="#e6edf3" fill-rule="nonzero"/><use xlink:href="#g6A658C14ECD274003A3345FA4D90D1A3" x="6.8157306" y="0" fill="#e6edf3" fill-rule="nonzero"/><use xlink:href="#g6A658C14ECD274003A3345FA4D90D1A3" x="8.292191801" y="0" fill="#e6edf3" fill-rule="nonzero"/><use xlink:href="#g6A658C14ECD274003A3345FA4D90D1A3" x="9.768653001" y="0" fill="#e6edf3" fill-rule="nonzero"/><use xlink:href="#gD07B3A091BC0675D761F91A53E2AE192" x="11.271" y="0" fill="#e6edf3" fill-rule="nonzero"/></g><g transform="matrix(1 0 0 -1 50.767888889 27.794)"><use xlink:href="#g13AFF74D87C474CFAF661EEAD0458F8B" x="0" y="0" fill="#e6edf3" fill-rule="nonzero"/></g><g transform="matrix(1 0 0 -1 64.493 27.794)"><use xlink:href="#gDEB51F3F5A253AD9569DE491554DF190" x="0" y="0" fill="#e6edf3" fill-rule="nonzero"/></g><g transform="matrix(1 0 0 -1 65.091 27.794)"><use xlink:href="#g5B90E9196699B0DF3EE96BEA297F231B" x="0" y="0" fill="#e6edf3" fill-rule="nonzero"/></g><g transform="matrix(1 0 0 -1 70.59 27.794)"><use xlink:href="#g594523384BCA97CC035210B36637FD16" x="0" y="0" fill="#e6edf3" fill-rule="nonzero"/></g><g transform="matrix(1 0 0 -1 83.265 18.993)"><use xlink:href="#g6B3DB0E0ADE6D994825CC39624067234" x="0" y="0" fill="#e6edf3" fill-rule="nonzero"/></g><g transform="matrix(1 0 0 -1 83.4665 36.712)"><use xlink:href="#gDEB51F3F5A253AD9569DE491554DF190" x="0" y="0" fill="#e6edf3" fill-rule="nonzero"/></g><path fill="none" stroke="#e6edf3" stroke-width="0.624" stroke-linecap="butt" stroke-linejoin="miter" stroke-miterlimit="4" transform="translate(83.265 24.544)" d="M 0 0h 6.5"/><g transform="matrix(1 0 0 -1 92.365 18.993)"><use xlink:href="#gECD202B73668A69AC8A33649F9D5BDE0" x="0" y="0" fill="#e6edf3" fill-rule="nonzero"/></g><g transform="matrix(1 0 0 -1 100.087 18.993)"><use xlink:href="#g35B4FBA1E2C6B292D79BD0F4F0E600B8" x="0" y="0" fill="#e6edf3" fill-rule="nonzero"/></g><g transform="matrix(1 0 0 -1 112.697 22.204)"><use xlink:href="#g8D2729A48B9ECD6712FB8A757305E9A2" x="0" y="0" fill="#e6edf3" fill-rule="nonzero"/></g><g transform="matrix(1 0 0 -1 97.28095 36.712)"><use xlink:href="#gECD202B73668A69AC8A33649F9D5BDE0" x="0" y="0" fill="#e6edf3" fill-rule="nonzero"/></g><g transform="matrix(1 0 0 -1 105.00295 36.712)"><use xlink:href="#gCD11787F63AFA6F24E21FEAF474C7C55" x="0" y="0" fill="#e6edf3" fill-rule="nonzero"/></g><path fill="none" stroke="#e6edf3" stroke-width="0.624" stroke-linecap="butt" stroke-linejoin="miter" stroke-miterlimit="4" transform="translate(92.365 24.544)" d="M 0 0h 26.0559"/><g transform="matrix(1 0 0 -1 122.609788889 27.794)"><use xlink:href="#g9B543B57F718853EF8F95EF155B6CF69" x="0" y="0" fill="#e6edf3" fill-rule="nonzero"/></g><g transform="matrix(1 0 0 -1 136.912677778 17.4954)"><use xlink:href="#gECD202B73668A69AC8A33649F9D5BDE0" x="0" y="0" fill="#e6edf3" fill-rule="nonzero"/></g><g transform="matrix(1 0 0 -1 144.634677778 17.4954)"><use xlink:href="#g35B4FBA1E2C6B292D79BD0F4F0E600B8" x="0" y="0" fill="#e6edf3" fill-rule="nonzero"/></g><g transform="matrix(1 0 0 -1 157.244677778 20.7064)"><use xlink:href="#g9B59F2DEC418395E687A7DA6A461FE45" x="0" y="0" fill="#e6edf3" fill-rule="nonzero"/></g><g transform="matrix(1 0 0 -1 143.781227778 36.712)"><use xlink:href="#gECD202B73668A69AC8A33649F9D5BDE0" x="0" y="0" fill="#e6edf3" fill-rule="nonzero"/></g><g transform="matrix(1 0 0 -1 151.503227778 36.712)"><use xlink:href="#gB7560AD8DFDE075CC650DFC2ACE08502" x="0" y="0" fill="#e6edf3" fill-rule="nonzero"/></g><path fill="none" stroke="#e6edf3" stroke-width="0.624" stroke-linecap="butt" stroke-linejoin="miter" stroke-miterlimit="4" transform="translate(136.912677778 24.544)" d="M 0 0h 27.8941"/><g transform="matrix(1 0 0 -1 166.106777778 27.794)"><use xlink:href="#g541875353FA5EEDAD7F236F2BC89466F" x="0" y="0" fill="#e6edf3" fill-rule="nonzero"/></g><g transform="matrix(1 0 0 -1 180.370666667 27.794)"><use xlink:href="#gEDF6611ACB83925E748178A176190AF2" x="0" y="0" fill="#e6edf3" fill-rule="nonzero"/></g><g transform="matrix(1 0 0 -1 193.373555556 27.794)"><use xlink:href="#gCD11787F63AFA6F24E21FEAF474C7C55" x="0" y="0" fill="#e6edf3" fill-rule="nonzero"/></g><g transform="matrix(1 0 0 -1 194.738555556 27.794)"><use xlink:href="#g5B90E9196699B0DF3EE96BEA297F231B" x="0" y="0" fill="#e6edf3" fill-rule="nonzero"/></g><g transform="matrix(1 0 0 -1 201.875555556 27.794)"><use xlink:href="#g60832423DC5A0A0EF6FFDE0FB4B0707B" x="0" y="0" fill="#e6edf3" fill-rule="nonzero"/></g><g transform="matrix(1 0 0 -1 212.743555556 18.993)"><use xlink:href="#gECD202B73668A69AC8A33649F9D5BDE0" x="0" y="0" fill="#e6edf3" fill-rule="nonzero"/></g><g transform="matrix(1 0 0 -1 220.465555556 18.993)"><use xlink:href="#g35B4FBA1E2C6B292D79BD0F4F0E600B8" x="0" y="0" fill="#e6edf3" fill-rule="nonzero"/></g><g transform="matrix(1 0 0 -1 233.075555556 22.204)"><use xlink:href="#gBBA4DF69B4336752C72E907B110611D2" x="0" y="0" fill="#e6edf3" fill-rule="nonzero"/></g><g transform="matrix(1 0 0 -1 218.647505556 36.712)"><use xlink:href="#gECD202B73668A69AC8A33649F9D5BDE0" x="0" y="0" fill="#e6edf3" fill-rule="nonzero"/></g><g transform="matrix(1 0 0 -1 226.369505556 36.712)"><use xlink:href="#gB7560AD8DFDE075CC650DFC2ACE08502" x="0" y="0" fill="#e6edf3" fill-rule="nonzero"/></g><path fill="none" stroke="#e6edf3" stroke-width="0.624" stroke-linecap="butt" stroke-linejoin="miter" stroke-miterlimit="4" transform="translate(212.743555556 24.544)" d="M 0 0h 25.9649"/><g transform="matrix(1 0 0 -1 242.897344444 27.794)"><use xlink:href="#g9B543B57F718853EF8F95EF155B6CF69" x="0" y="0" fill="#e6edf3" fill-rule="nonzero"/></g><g transform="matrix(1 0 0 -1 257.200233333 18.993)"><use xlink:href="#gECD202B73668A69AC8A33649F9D5BDE0" x="0" y="0" fill="#e6edf3" fill-rule="nonzero"/></g><g transform="matrix(1 0 0 -1 264.922233333 18.993)"><use xlink:href="#g35B4FBA1E2C6B292D79BD0F4F0E600B8" x="0" y="0" fill="#e6edf3" fill-rule="nonzero"/></g><g transform="matrix(1 0 0 -1 277.532233333 22.204)"><use xlink:href="#g8D2729A48B9ECD6712FB8A757305E9A2" x="0" y="0" fill="#e6edf3" fill-rule="nonzero"/></g><g transform="matrix(1 0 0 -1 263.318683333 36.712)"><use xlink:href="#gECD202B73668A69AC8A33649F9D5BDE0" x="0" y="0" fill="#e6edf3" fill-rule="nonzero"/></g><g transform="matrix(1 0 0 -1 271.040683333 36.712)"><use xlink:href="#gDEB51F3F5A253AD9569DE491554DF190" x="0" y="0" fill="#e6edf3" fill-rule="nonzero"/></g><path fill="none" stroke="#e6edf3" stroke-width="0.624" stroke-linecap="butt" stroke-linejoin="miter" stroke-miterlimit="4" transform="translate(257.200233333 24.544)" d="M 0 0h 26.0559"/><g transform="matrix(1 0 0 -1 284.556133333 27.794)"><use xlink:href="#gAA559AA643B86E5DAA15675B02A56BFE" x="0" y="0" fill="#e6edf3" fill-rule="nonzero"/></g><g transform="matrix(1 0 0 -1 297.013022222 27.794)"><use xlink:href="#gEDF6611ACB83925E748178A176190AF2" x="0" y="0" fill="#e6edf3" fill-rule="nonzero"/></g><g transform="matrix(1 0 0 -1 310.015911111 27.794)"><use xlink:href="#gB7560AD8DFDE075CC650DFC2ACE08502" x="0" y="0" fill="#e6edf3" fill-rule="nonzero"/></g><g transform="matrix(1 0 0 -1 311.133911111 27.794)"><use xlink:href="#g5B90E9196699B0DF3EE96BEA297F231B" x="0" y="0" fill="#e6edf3" fill-rule="nonzero"/></g><g transform="matrix(1 0 0 -1 317.750911111 18.993)"><use xlink:href="#g6B3DB0E0ADE6D994825CC39624067234" x="0" y="0" fill="#e6edf3" fill-rule="nonzero"/></g><g transform="matrix(1 0 0 -1 317.952411111 36.712)"><use xlink:href="#gDEB51F3F5A253AD9569DE491554DF190" x="0" y="0" fill="#e6edf3" fill-rule="nonzero"/></g><path fill="none" stroke="#e6edf3" stroke-width="0.624" stroke-linecap="butt" stroke-linejoin="miter" stroke-miterlimit="4" transform="translate(317.750911111 24.544)" d="M 0 0h 6.5"/><g transform="matrix(1 0 0 -1 326.850911111 16.536)"><use xlink:href="#gECD202B73668A69AC8A33649F9D5BDE0" x="0" y="0" fill="#e6edf3" fill-rule="nonzero"/></g><g transform="matrix(1 0 0 -1 334.572911111 16.536)"><use xlink:href="#gB84B4B524BFEEE6444EA3386B96F6612" x="0" y="0" fill="#e6edf3" fill-rule="nonzero"/></g><g transform="matrix(1 0 0 -1 341.371911111 16.536)"><use xlink:href="#gDEB51F3F5A253AD9569DE491554DF190" x="0" y="0" fill="#e6edf3" fill-rule="nonzero"/></g><g transform="matrix(1 0 0 -1 347.468911111 16.536)"><use xlink:href="#g35B4FBA1E2C6B292D79BD0F4F0E600B8" x="0" y="0" fill="#e6edf3" fill-rule="nonzero"/></g><g transform="matrix(1 0 0 -1 360.078911111 19.747)"><use xlink:href="#g9B59F2DEC418395E687A7DA6A461FE45" x="0" y="0" fill="#e6edf3" fill-rule="nonzero"/></g><g transform="matrix(1 0 0 -1 367.641011111 16.536)"><use xlink:href="#gB7EE54B2081D470F3808A2B249039CCF" x="0" y="0" fill="#e6edf3" fill-rule="nonzero"/></g><g transform="matrix(1 0 0 -1 343.735961111 36.712)"><use xlink:href="#gECD202B73668A69AC8A33649F9D5BDE0" x="0" y="0" fill="#e6edf3" fill-rule="nonzero"/></g><g transform="matrix(1 0 0 -1 351.457961111 36.712)"><use xlink:href="#gDEB51F3F5A253AD9569DE491554DF190" x="0" y="0" fill="#e6edf3" fill-rule="nonzero"/></g><path fill="none" stroke="#e6edf3" stroke-width="0.624" stroke-linecap="butt" stroke-linejoin="miter" stroke-miterlimit="4" transform="translate(326.850911111 24.544)" d="M 0 0h 47.5891"/><g transform="matrix(1 0 0 -1 378.6289 27.794)"><use xlink:href="#g9B543B57F718853EF8F95EF155B6CF69" x="0" y="0" fill="#e6edf3" fill-rule="nonzero"/></g><g transform="matrix(1 0 0 -1 392.931788889 18.993)"><use xlink:href="#g6B3DB0E0ADE6D994825CC39624067234" x="0" y="0" fill="#e6edf3" fill-rule="nonzero"/></g><g transform="matrix(1 0 0 -1 393.133288889 36.712)"><use xlink:href="#gDEB51F3F5A253AD9569DE491554DF190" x="0" y="0" fill="#e6edf3" fill-rule="nonzero"/></g><path fill="none" stroke="#e6edf3" stroke-width="0.624" stroke-linecap="butt" stroke-linejoin="miter" stroke-miterlimit="4" transform="translate(392.931788889 24.544)" d="M 0 0h 6.5"/><g transform="matrix(1 0 0 -1 402.031788889 18.993)"><use xlink:href="#gECD202B73668A69AC8A33649F9D5BDE0" x="0" y="0" fill="#e6edf3" fill-rule="nonzero"/></g><g transform="matrix(1 0 0 -1 409.753788889 18.993)"><use xlink:href="#g35B4FBA1E2C6B292D79BD0F4F0E600B8" x="0" y="0" fill="#e6edf3" fill-rule="nonzero"/></g><g transform="matrix(1 0 0 -1 422.363788889 22.204)"><use xlink:href="#gBBA4DF69B4336752C72E907B110611D2" x="0" y="0" fill="#e6edf3" fill-rule="nonzero"/></g><g transform="matrix(1 0 0 -1 406.902238889 36.712)"><use xlink:href="#gECD202B73668A69AC8A33649F9D5BDE0" x="0" y="0" fill="#e6edf3" fill-rule="nonzero"/></g><g transform="matrix(1 0 0 -1 414.624238889 36.712)"><use xlink:href="#gCD11787F63AFA6F24E21FEAF474C7C55" x="0" y="0" fill="#e6edf3" fill-rule="nonzero"/></g><path fill="none" stroke="#e6edf3" stroke-width="0.624" stroke-linecap="butt" stroke-linejoin="miter" stroke-miterlimit="4" transform="translate(402.031788889 24.544)" d="M 0 0h 25.9649"/><defs><symbol id="gA01F6DC51669829F49C013CF8E967E44" overflow="visible"><path d="M 0 0m 10.14 8.541c 0.039 0.091 0.065 0.156 0.065 0.182c 0 0.104 -0.117 0.156 -0.338 0.156h -8.918c -0.221 0 -0.338 -0.052 -0.338 -0.169l 4.42 -8.879c 0.091 -0.169 0.208 -0.26 0.377 -0.26c 0.169 0 0.286 0.091 0.377 0.26Z m -4.355 -7.605l -3.458 6.929h 6.903Z "/></symbol><symbol id="g596E6AE655F7C550875F3D7A9A58D2C7" overflow="visible"><path d="M 0 0m 8.19 0.416c 0 0.091 -0.026 0.156 -0.091 0.221l -2.613 2.613l 2.613 2.613c 0.065 0.065 0.091 0.13 0.091 0.221c 0 0.169 -0.13 0.299 -0.299 0.299c -0.091 0 -0.156 -0.026 -0.221 -0.091l -2.613 -2.613l -2.613 2.613c -0.065 0.065 -0.13 0.091 -0.221 0.091c -0.169 0 -0.299 -0.13 -0.299 -0.299c 0 -0.091 0.026 -0.156 0.091 -0.221l 2.613 -2.613l -2.613 -2.613c -0.065 -0.065 -0.091 -0.13 -0.091 -0.221c 0 -0.169 0.13 -0.299 0.299 -0.299c 0.091 0 0.156 0.026 0.221 0.091l 2.613 2.613l 2.613 -2.613c 0.065 -0.065 0.13 -0.091 0.221 -0.091c 0.169 0 0.299 0.13 0.299 0.299Z "/></symbol><symbol id="g35B4FBA1E2C6B292D79BD0F4F0E600B8" overflow="visible"><path d="M 0 0m 7.722 0.208c 0 -0.143 0.078 -0.208 0.247 -0.208l 1.599 0.039c 0.299 0.013 1.352 -0.039 1.599 -0.039c 0.195 0 0.299 0.104 0.299 0.312c 0 0.13 -0.13 0.195 -0.403 0.195c -0.533 0 -0.793 0.052 -0.793 0.169c 0 0.039 0.026 0.13 0.065 0.299l 1.716 6.851c 0.065 0.273 0.195 0.442 0.364 0.507c 0.078 0.026 0.312 0.039 0.689 0.039c 0.325 0 0.468 0.013 0.468 0.312c 0 0.13 -0.13 0.195 -0.403 0.195h -1.703c -0.377 0 -0.377 -0.026 -0.546 -0.273l -4.628 -7.202l -0.988 7.137c -0.052 0.325 -0.078 0.338 -0.455 0.338h -1.768c -0.286 0 -0.429 -0.013 -0.429 -0.299c 0 -0.143 0.143 -0.208 0.416 -0.208c 0.26 0 0.793 0.039 0.793 -0.169c 0 -0.026 -0.013 -0.104 -0.052 -0.234l -1.638 -6.539c -0.117 -0.494 -0.416 -0.793 -0.871 -0.884c -0.325 -0.039 -0.754 0.013 -0.754 -0.338c 0 -0.143 0.078 -0.208 0.234 -0.208c 0.234 0 1.053 0.039 1.287 0.039c 0.247 0 1.079 -0.039 1.326 -0.039c 0.195 0 0.286 0.104 0.286 0.312c 0 0.117 -0.091 0.182 -0.286 0.195c -0.546 0 -0.819 0.169 -0.819 0.507c 0 0.052 0.013 0.143 0.052 0.286l 1.69 6.773l 1.079 -7.735c 0.039 -0.221 0.117 -0.338 0.247 -0.338c 0.104 0 0.208 0.091 0.325 0.26l 5.057 7.891l -1.768 -7.085c -0.078 -0.286 -0.208 -0.455 -0.403 -0.52c -0.078 -0.026 -0.325 -0.039 -0.728 -0.039c -0.273 0 -0.403 -0.026 -0.403 -0.299Z "/></symbol><symbol id="g6A78CAAF56C04D0BAE1AD9D27244E736" overflow="visible"><path d="M 0 0m 0.234 7.8h 2.431v 0.468h -2.431c -0.156 0 -0.234 -0.104 -0.234 -0.234c 0 -0.13 0.078 -0.234 0.234 -0.234Z "/></symbol><symbol id="g6A658C14ECD274003A3345FA4D90D1A3" overflow="visible"><path d="M 0 0m 0 7.8h 1.781v 0.468h -1.781Z "/></symbol><symbol id="gD07B3A091BC0675D761F91A53E2AE192" overflow="visible"><path d="M 0 0m 2.509 7.813c 0.104 0.039 0.156 0.104 0.156 0.221c 0 0.117 -0.052 0.182 -0.156 0.221c -0.455 0.143 -0.793 0.442 -0.988 0.871c -0.039 0.091 -0.117 0.143 -0.221 0.143c -0.156 0 -0.234 -0.078 -0.234 -0.234c 0 -0.013 0.013 -0.052 0.026 -0.104c 0.104 -0.247 0.26 -0.468 0.481 -0.663h -1.573v -0.468h 1.573c -0.221 -0.195 -0.377 -0.416 -0.481 -0.663c -0.013 -0.052 -0.026 -0.091 -0.026 -0.104c 0 -0.156 0.078 -0.234 0.234 -0.234c 0.104 0 0.182 0.052 0.221 0.143c 0.195 0.429 0.533 0.728 0.988 0.871Z "/></symbol><symbol id="g13AFF74D87C474CFAF661EEAD0458F8B" overflow="visible"><path d="M 0 0m 9.074 4.771h -8.034c -0.208 0 -0.312 -0.104 -0.312 -0.299c 0 -0.195 0.104 -0.299 0.312 -0.299h 8.034c 0.208 0 0.312 0.104 0.312 0.299c 0 0.156 -0.143 0.299 -0.312 0.299Z m 0 -2.444h -8.034c -0.208 0 -0.312 -0.104 -0.312 -0.299c 0 -0.195 0.104 -0.299 0.312 -0.299h 8.034c 0.208 0 0.312 0.104 0.312 0.299c 0 0.169 -0.143 0.299 -0.312 0.299Z "/></symbol><symbol id="gDEB51F3F5A253AD9569DE491554DF190" overflow="visible"><path d="M 0 0m 5.46 4.602c 0 0.741 -0.754 1.144 -1.56 1.144c -0.819 0 -1.404 -0.247 -1.755 -0.741c -0.299 -0.429 -0.455 -0.819 -0.455 -1.17c 0 -0.689 0.455 -1.131 1.352 -1.326c 0.377 -0.065 0.663 -0.156 0.884 -0.26c 0.273 -0.117 0.403 -0.338 0.403 -0.65c 0 -0.234 -0.104 -0.494 -0.325 -0.793c -0.273 -0.377 -0.754 -0.572 -1.443 -0.572c -0.702 0 -1.157 0.195 -1.365 0.572c 0.416 -0.013 0.767 0.325 0.767 0.741c 0 0.325 -0.169 0.494 -0.52 0.494c -0.468 0 -0.767 -0.429 -0.767 -0.897c 0 -0.858 0.936 -1.287 1.872 -1.287c 0.975 0 1.677 0.286 2.093 0.871c 0.351 0.481 0.52 0.91 0.52 1.3c 0 0.559 -0.273 0.975 -0.806 1.248c -0.403 0.143 -0.715 0.234 -0.91 0.273c -0.455 0.117 -0.923 0.156 -0.923 0.715c 0 0.689 0.65 1.105 1.378 1.105c 0.546 0 0.897 -0.169 1.066 -0.494c -0.286 -0.052 -0.585 -0.299 -0.585 -0.624c 0 -0.273 0.143 -0.416 0.442 -0.416c 0.403 0 0.637 0.364 0.637 0.767Z "/></symbol><symbol id="g5B90E9196699B0DF3EE96BEA297F231B" overflow="visible"><path d="M 0 0m 5.018 6.695l 0.221 0.234l -1.989 2.093l -1.989 -2.093l 0.221 -0.234l 1.768 1.339Z "/></symbol><symbol id="g594523384BCA97CC035210B36637FD16" overflow="visible"><path d="M 0 0m 10.374 -16.185c 0.221 0 0.325 0.104 0.325 0.325c 0 0.104 -0.039 0.195 -0.13 0.26c -1.053 0.793 -2.002 2.041 -2.873 3.77c -1.547 3.081 -2.691 7.41 -2.691 11.843v 6.474c 0 2.015 0.234 4.043 0.689 6.084c 0.806 3.64 2.496 7.735 4.875 9.529c 0.091 0.065 0.13 0.156 0.13 0.26c 0 0.221 -0.104 0.325 -0.325 0.325c -0.065 0 -0.13 -0.026 -0.182 -0.065c -1.131 -0.871 -2.21 -2.158 -3.224 -3.887c -1.794 -3.068 -3.367 -7.683 -3.367 -12.246v -6.474c 0 -4.29 1.443 -8.684 3.055 -11.7c 1.066 -1.963 2.249 -3.445 3.536 -4.433c 0.052 -0.039 0.117 -0.065 0.182 -0.065Z "/></symbol><symbol id="g6B3DB0E0ADE6D994825CC39624067234" overflow="visible"><path d="M 0 0m 3.497 8.658c -0.533 -0.546 -1.313 -0.819 -2.34 -0.819v -0.507c 0.676 0 1.235 0.104 1.664 0.312v -6.578c 0 -0.234 -0.052 -0.39 -0.169 -0.455c -0.117 -0.065 -0.442 -0.104 -0.962 -0.104h -0.455v -0.507c 0.325 0.026 1.027 0.039 2.106 0.039c 1.079 0 1.781 -0.013 2.106 -0.039v 0.507h -0.455c -0.533 0 -0.858 0.039 -0.962 0.104c -0.104 0.065 -0.169 0.221 -0.169 0.455v 7.202c 0 0.312 -0.026 0.39 -0.364 0.39Z "/></symbol><symbol id="gECD202B73668A69AC8A33649F9D5BDE0" overflow="visible"><path d="M 0 0m 3.328 7.462c 0 0.299 -0.195 0.468 -0.572 0.494c 0.403 0.611 0.988 0.923 1.755 0.923c 1.196 0 1.781 -1.001 1.781 -2.275c 0 -0.533 -0.104 -1.183 -0.299 -1.976c -0.221 0.897 -0.78 1.352 -1.651 1.352c -1.001 0 -1.872 -0.416 -2.652 -1.222c -0.78 -0.806 -1.17 -1.703 -1.17 -2.704c 0 -0.481 0.169 -0.975 0.507 -1.469c 0.403 -0.585 1.027 -0.871 1.898 -0.871c 1.17 0 2.145 0.546 2.912 1.651c 0.728 1.066 1.521 2.912 1.521 4.563c 0 0.923 -0.234 1.703 -0.702 2.327c -0.507 0.702 -1.222 1.053 -2.119 1.053c -0.871 0 -1.521 -0.299 -1.963 -0.91c -0.351 -0.481 -0.533 -0.871 -0.533 -1.17c 0 -0.338 0.182 -0.507 0.546 -0.507c 0.39 0 0.741 0.351 0.741 0.741Z m 2.379 -3.523c 0 -0.819 -0.247 -1.625 -0.754 -2.418c -0.559 -0.897 -1.222 -1.339 -1.989 -1.339c -0.858 0 -1.352 0.559 -1.352 1.391c 0 0.364 0.091 0.871 0.273 1.521c 0.182 0.65 0.364 1.105 0.559 1.378c 0.52 0.741 1.157 1.118 1.898 1.118c 0.949 0 1.365 -0.702 1.365 -1.651Z "/></symbol><symbol id="g8D2729A48B9ECD6712FB8A757305E9A2" overflow="visible"><path d="M 0 0m 3.6582 3.0576c -0.2457 -0.2457 -0.6188 -0.5733 -1.1466 -0.9919c -0.5278 -0.4186 -0.91 -0.7462 -1.1466 -0.9828c -0.2002 -0.2002 -0.3458 -0.3549 -0.4459 -0.4732c -0.2457 -0.2821 -0.364 -0.4732 -0.364 -0.5551c 0 -0.1001 0.0637 -0.1456 0.1911 -0.1456c 0.0728 0 0.1365 0.0364 0.182 0.1092c 0.2457 0.3549 0.5096 0.5278 0.7917 0.5278c 0.1365 0 0.2821 -0.0728 0.4459 -0.2093c 0.2275 -0.2002 0.364 -0.3094 0.4004 -0.3367c 0.1092 -0.0637 0.2366 -0.091 0.3731 -0.091c 0.3003 0 0.5824 0.1001 0.8463 0.3003c 0.2821 0.2184 0.7462 0.7098 0.7462 1.1193c 0 0.1001 -0.0637 0.1547 -0.182 0.1547c -0.091 0 -0.1547 -0.0546 -0.2002 -0.1638c -0.1365 -0.3731 -0.5915 -0.637 -1.1011 -0.637c -0.2457 0 -1.0374 0.1911 -1.2922 0.182h -0.1183c 0.2821 0.273 0.637 0.5824 1.0829 0.9373c 0.6006 0.4823 0.9737 0.7917 1.1284 0.9464c 0.5915 0.5915 0.8918 0.9646 0.8918 1.1193c 0 0.1001 -0.0637 0.1456 -0.1911 0.1456c -0.0728 0 -0.1365 -0.0364 -0.182 -0.1092c -0.2275 -0.3549 -0.4459 -0.5278 -0.6461 -0.5278c -0.1274 0 -0.3094 0.1092 -0.5551 0.3185c -0.2457 0.2093 -0.4641 0.3185 -0.6643 0.3185c -0.2639 0 -0.5278 -0.1183 -0.8099 -0.3549c -0.2821 -0.2366 -0.4186 -0.4732 -0.4186 -0.728c 0 -0.1001 0.0637 -0.1456 0.182 -0.1456c 0.0728 0 0.1365 0.0364 0.182 0.1183c 0.1638 0.2639 0.3094 0.3367 0.7553 0.3367c 0.2457 0 1.0283 -0.1729 1.2649 -0.182Z "/></symbol><symbol id="gCD11787F63AFA6F24E21FEAF474C7C55" overflow="visible"><path d="M 0 0m 6.539 5.746c -0.221 0 -0.416 -0.039 -0.611 -0.104c -0.819 -0.273 -1.391 -1.079 -1.716 -1.82c -0.546 -1.209 -0.702 -1.703 -1.105 -3.068c -1.339 0.273 -2.015 0.884 -2.015 1.846c 0 0.871 0.611 2.132 1.04 2.626c 0.078 0.091 0.117 0.156 0.117 0.195c 0 0.117 -0.065 0.182 -0.208 0.182c -0.221 0 -0.507 -0.377 -0.858 -1.131c -0.351 -0.754 -0.533 -1.43 -0.533 -2.015c 0 -1.352 1.027 -2.21 2.21 -2.496l -0.663 -2.106c -0.052 -0.143 -0.078 -0.234 -0.078 -0.273c 0 -0.273 0.143 -0.416 0.429 -0.416c 0.247 0 0.416 0.13 0.52 0.377l 0.442 2.301c 0.143 -0.013 0.26 -0.013 0.377 -0.013c 1.066 0 2.015 0.416 2.873 1.248c 0.858 0.832 1.287 1.781 1.287 2.847c 0 1.014 -0.533 1.82 -1.508 1.82Z m 1.04 -2.106c 0 -0.819 -0.39 -1.534 -1.183 -2.145c -0.741 -0.546 -1.534 -0.819 -2.392 -0.819c -0.078 0 -0.156 0 -0.221 0.013c -0.078 0 -0.117 0 -0.117 -0.013c 0.195 1.027 0.312 1.638 0.364 1.82c 0.299 1.027 1.183 2.405 2.379 2.405c 0.728 0 1.17 -0.52 1.17 -1.261Z "/></symbol><symbol id="g9B543B57F718853EF8F95EF155B6CF69" overflow="visible"><path d="M 0 0m 9.074 3.51h -8.034c -0.208 0 -0.312 -0.091 -0.312 -0.26c 0 -0.169 0.104 -0.26 0.312 -0.26h 8.034c 0.208 0 0.312 0.091 0.312 0.26c 0 0.156 -0.156 0.26 -0.312 0.26Z "/></symbol><symbol id="g9B59F2DEC418395E687A7DA6A461FE45" overflow="visible"><path d="M 0 0m 5.1142 4.0131c -0.9646 0 -1.6926 -0.7644 -2.184 -2.2841l -0.364 -1.1011c -0.7553 0.1001 -1.5561 0.4641 -1.5561 1.2103l 0.0364 0.273c 0.0637 0.5278 0.4459 1.2012 0.7371 1.5288c 0.0546 0.0637 0.0819 0.1092 0.0819 0.1365c 0 0.1001 -0.0546 0.1456 -0.1729 0.1456c -0.1001 0 -0.2002 -0.0728 -0.3185 -0.2093c -0.3185 -0.3822 -0.7462 -1.3013 -0.7462 -1.9656c 0 -1.001 0.8281 -1.5652 1.729 -1.7745c -0.3276 -1.0192 -0.4914 -1.5561 -0.4914 -1.6107c 0 -0.2184 0.1183 -0.3276 0.3458 -0.3276c 0.1729 0 0.3003 0.0728 0.3822 0.2184c 0.0455 0.091 0.1547 0.637 0.3185 1.638h 0.273c 0.7826 0 1.4924 0.2639 2.1294 0.7826c 0.6734 0.5551 1.0101 1.2194 1.0101 1.9929c 0 0.7735 -0.455 1.3468 -1.2103 1.3468Z m 0.819 -1.5288c 0 -0.5733 -0.3094 -1.0465 -0.9373 -1.4196c -0.5369 -0.3276 -1.1011 -0.4914 -1.7108 -0.4914h -0.2457c 0.091 0.5096 0.1638 0.8554 0.2184 1.0374c 0.1001 0.3458 0.2548 0.6552 0.455 0.9373c 0.3913 0.5187 0.819 0.7826 1.3013 0.7826c 0.5278 0 0.9191 -0.3185 0.9191 -0.8463Z "/></symbol><symbol id="gB7560AD8DFDE075CC650DFC2ACE08502" overflow="visible"><path d="M 0 0m 2.106 1.196l -0.221 -0.026c 0.624 0.611 1.105 1.053 1.43 1.352l 1.248 1.157c 0.299 0.273 0.611 0.611 0.91 0.988c 0.403 0.494 0.598 0.793 0.598 0.897c 0 0.117 -0.065 0.182 -0.195 0.182c -0.091 0 -0.169 -0.052 -0.234 -0.169c -0.325 -0.533 -0.624 -0.793 -0.91 -0.793c -0.286 0 -0.494 0.234 -0.611 0.39c -0.312 0.377 -0.624 0.572 -0.923 0.572c -0.338 0 -0.689 -0.156 -1.053 -0.494c -0.364 -0.338 -0.546 -0.676 -0.546 -1.014c 0 -0.13 0.065 -0.195 0.208 -0.195c 0.091 0 0.169 0.065 0.221 0.182c 0.143 0.377 0.494 0.559 1.027 0.559c 0.182 0 0.442 -0.065 0.793 -0.182c 0.312 -0.117 0.611 -0.182 0.884 -0.195c -0.728 -0.715 -1.287 -1.235 -1.69 -1.586l -1.157 -1.079c -0.195 -0.195 -0.442 -0.455 -0.715 -0.78c -0.403 -0.507 -0.611 -0.806 -0.611 -0.923c 0 -0.117 0.065 -0.182 0.208 -0.182c 0.078 0 0.156 0.065 0.247 0.195c 0.325 0.507 0.676 0.767 1.04 0.767c 0.208 0 0.442 -0.156 0.702 -0.481c 0.26 -0.325 0.559 -0.481 0.858 -0.481c 0.442 0 0.884 0.234 1.352 0.689c 0.468 0.455 0.702 0.897 0.702 1.326c 0 0.117 -0.065 0.182 -0.208 0.182c -0.091 0 -0.169 -0.065 -0.234 -0.195c -0.195 -0.559 -0.754 -1.04 -1.482 -1.04c -0.312 0 -1.326 0.377 -1.638 0.377Z "/></symbol><symbol id="g541875353FA5EEDAD7F236F2BC89466F" overflow="visible"><path d="M 0 0m 7.774 0.013v 6.474c 0 4.29 -1.443 8.684 -3.055 11.7c -1.066 1.963 -2.249 3.445 -3.536 4.433c -0.052 0.039 -0.117 0.065 -0.182 0.065c -0.221 0 -0.325 -0.104 -0.325 -0.325c 0 -0.104 0.039 -0.195 0.13 -0.26c 1.053 -0.793 2.002 -2.041 2.873 -3.77c 1.547 -3.081 2.691 -7.41 2.691 -11.843v -6.474c 0 -2.015 -0.234 -4.043 -0.689 -6.084c -0.806 -3.64 -2.496 -7.735 -4.875 -9.529c -0.091 -0.065 -0.13 -0.156 -0.13 -0.26c 0 -0.221 0.104 -0.325 0.325 -0.325c 0.065 0 0.13 0.026 0.182 0.065c 1.131 0.871 2.21 2.158 3.224 3.887c 1.794 3.068 3.367 7.683 3.367 12.246Z "/></symbol><symbol id="gEDF6611ACB83925E748178A176190AF2" overflow="visible"><path d="M 0 0m 9.074 3.562h -3.705v 3.705c 0 0.208 -0.104 0.312 -0.312 0.312c -0.208 0 -0.312 -0.104 -0.312 -0.312v -3.705h -3.705c -0.208 0 -0.312 -0.104 -0.312 -0.312c 0 -0.208 0.104 -0.312 0.312 -0.312h 3.705v -3.705c 0 -0.208 0.104 -0.312 0.312 -0.312c 0.208 0 0.312 0.104 0.312 0.312v 3.705h 3.705c 0.208 0 0.312 0.104 0.312 0.312c 0 0.169 -0.143 0.312 -0.312 0.312Z "/></symbol><symbol id="g60832423DC5A0A0EF6FFDE0FB4B0707B" overflow="visible"><path d="M 0 0m 8.58 -12.298c 0.195 0 0.286 0.091 0.286 0.286c 0 0.091 -0.039 0.169 -0.104 0.221c -0.884 0.663 -1.677 1.69 -2.392 3.081c -1.261 2.47 -2.21 5.993 -2.21 9.555v 4.81c 0 1.625 0.195 3.263 0.572 4.914c 0.676 2.99 2.067 6.24 4.03 7.722c 0.065 0.052 0.104 0.13 0.104 0.221c 0 0.195 -0.091 0.286 -0.286 0.286c -0.052 0 -0.104 -0.026 -0.169 -0.065c -0.949 -0.715 -1.846 -1.781 -2.691 -3.198c -1.469 -2.47 -2.782 -6.201 -2.782 -9.88v -4.81c 0 -3.471 1.222 -7.046 2.548 -9.477c 0.884 -1.599 1.859 -2.808 2.925 -3.601c 0.065 -0.039 0.117 -0.065 0.169 -0.065Z "/></symbol><symbol id="gBBA4DF69B4336752C72E907B110611D2" overflow="visible"><path d="M 0 0m 4.277 3.2032c 0 0.5642 -0.5915 0.8099 -1.2194 0.8099c -0.6552 0 -1.1193 -0.1911 -1.3832 -0.5733c -0.2002 -0.2821 -0.3003 -0.5369 -0.3003 -0.7644c 0 -0.4277 0.2275 -0.7189 0.6825 -0.8736c 0.0819 -0.0273 0.3094 -0.0728 0.6734 -0.1365c 0.4823 -0.091 0.728 -0.273 0.728 -0.5551c 0 -0.1001 -0.0364 -0.2093 -0.1092 -0.3458c -0.1911 -0.3549 -0.6006 -0.5369 -1.2194 -0.5369c -0.5005 0 -0.8372 0.1092 -1.0101 0.3185c 0.2457 0.0455 0.4641 0.2548 0.4641 0.5369c 0 0.2457 -0.1274 0.364 -0.3822 0.364c -0.3458 0 -0.5551 -0.2912 -0.5551 -0.637c 0 -0.637 0.7553 -0.9009 1.4742 -0.9009c 0.6188 0 1.092 0.1456 1.4196 0.4277c 0.3731 0.3185 0.5551 0.6825 0.5551 1.0829c 0 0.5642 -0.4186 0.9282 -1.2558 1.0829c -0.1547 0.0364 -0.273 0.0637 -0.3549 0.0728c -0.3094 0.0546 -0.4641 0.1911 -0.4641 0.4095c 0 0.1001 0.0364 0.1911 0.1001 0.2912c 0.1729 0.2821 0.4823 0.4186 0.9282 0.4186c 0.3822 0 0.6461 -0.091 0.7826 -0.273c -0.2275 -0.0728 -0.3458 -0.2184 -0.3458 -0.4459c 0 -0.2093 0.1092 -0.3185 0.3276 -0.3185c 0.273 0 0.4641 0.2366 0.4641 0.546Z "/></symbol><symbol id="gAA559AA643B86E5DAA15675B02A56BFE" overflow="visible"><path d="M 0 0m 1.157 -12.233c 0.949 0.715 1.846 1.781 2.691 3.198c 1.469 2.457 2.782 6.201 2.782 9.88v 4.81c 0 3.471 -1.222 7.046 -2.548 9.477c -0.884 1.599 -1.859 2.808 -2.925 3.601c -0.065 0.039 -0.117 0.065 -0.169 0.065c -0.195 0 -0.286 -0.091 -0.286 -0.286c 0 -0.091 0.039 -0.169 0.104 -0.221c 0.884 -0.663 1.677 -1.69 2.392 -3.081c 1.261 -2.47 2.21 -5.993 2.21 -9.555v -4.81c 0 -1.625 -0.195 -3.263 -0.572 -4.914c -0.676 -2.99 -2.067 -6.24 -4.03 -7.722c -0.065 -0.052 -0.104 -0.13 -0.104 -0.221c 0 -0.195 0.091 -0.286 0.286 -0.286c 0.052 0 0.104 0.026 0.169 0.065Z "/></symbol><symbol id="gB84B4B524BFEEE6444EA3386B96F6612" overflow="visible"><path d="M 0 0m 5.772 -6.136c 0.143 0 0.221 0.078 0.221 0.221c 0 0.078 -0.026 0.13 -0.091 0.169c -0.936 0.715 -1.677 1.924 -2.236 3.614c -0.481 1.443 -0.728 2.873 -0.728 4.264v 2.236c 0 1.391 0.247 2.808 0.728 4.264c 0.559 1.677 1.3 2.886 2.236 3.614c 0.065 0.039 0.091 0.091 0.091 0.169c 0 0.143 -0.078 0.221 -0.221 0.221c -0.052 0 -0.091 -0.013 -0.13 -0.052c -1.053 -0.819 -1.937 -2.067 -2.626 -3.731c -0.663 -1.573 -0.988 -3.068 -0.988 -4.485v -2.236c 0 -1.417 0.325 -2.912 0.988 -4.485c 0.689 -1.677 1.573 -2.912 2.626 -3.731c 0.039 -0.039 0.078 -0.052 0.13 -0.052Z "/></symbol><symbol id="gB7EE54B2081D470F3808A2B249039CCF" overflow="visible"><path d="M 0 0m 1.157 -6.084c 1.053 0.819 1.937 2.054 2.626 3.731c 0.663 1.573 0.988 3.068 0.988 4.485v 2.236c 0 1.417 -0.325 2.912 -0.988 4.485c -0.689 1.677 -1.573 2.912 -2.626 3.731c -0.052 0.039 -0.091 0.052 -0.13 0.052c -0.143 0 -0.221 -0.078 -0.221 -0.221c 0 -0.065 0.026 -0.13 0.078 -0.169c 0.936 -0.715 1.69 -1.911 2.249 -3.614c 0.481 -1.456 0.728 -2.873 0.728 -4.264v -2.236c 0 -1.391 -0.247 -2.808 -0.728 -4.264c -0.559 -1.703 -1.313 -2.899 -2.249 -3.614c -0.052 -0.039 -0.078 -0.104 -0.078 -0.169c 0 -0.143 0.078 -0.221 0.221 -0.221c 0.039 0 0.091 0.013 0.13 0.052Z "/></symbol></defs></svg>