<svg viewBox="0 0 330.896222222 40.2311" width="330.896222222pt" height="40.2311pt" xmlns="http://www.w3.org/2000/svg" xmlns:xlink="http://www.w3.org/1999/xlink" xmlns:h5="http://www.w3.org/1999/xhtml"><g transform="matrix(1 0 0 -1 6.5 22.3561)"><use xlink:href="#g23CEEBFA764149797E7EA3D2360CE782" x="0" y="0" fill="#e6edf3" fill-rule="nonzero"/></g><g transform="matrix(1 0 0 -1 21.653666667 22.3561)"><use xlink:href="#gCC416E75927AD0A8099D8AB0ED7855DE" x="0" y="0" fill="#e6edf3" fill-rule="nonzero"/></g><g transform="matrix(1 0 0 -1 31.507666667 19.3271)"><use xlink:href="#g37D7AF847EB8D066970F2B84C26D7F75" x="0" y="0" fill="#e6edf3" fill-rule="nonzero"/></g><g transform="matrix(1 0 0 -1 34.734555556 22.3561)"><use xlink:href="#gB323F9E42E1C20C087FBF81136E27860" x="0" y="0" fill="#e6edf3" fill-rule="nonzero"/></g><g transform="matrix(1 0 0 -1 40.515222222 22.3561)"><use xlink:href="#gEB9B079EF07FFCCA69ED7A9B1F1ABEB" x="0" y="0" fill="#e6edf3" fill-rule="nonzero"/></g><g transform="matrix(1 0 0 -1 47.743222222 22.3561)"><use xlink:href="#g6F1473A4C93C0F65EF32B6DD19A2D771" x="0" y="0" fill="#e6edf3" fill-rule="nonzero"/></g><g transform="matrix(1 0 0 -1 53.827222222 19.1841)"><use xlink:href="#g37D7AF847EB8D066970F2B84C26D7F75" x="0" y="0" fill="#e6edf3" fill-rule="nonzero"/></g><g transform="matrix(1 0 0 -1 55.228333333 22.3561)"><use xlink:href="#g13AFF74D87C474CFAF661EEAD0458F8B" x="0" y="0" fill="#e6edf3" fill-rule="nonzero"/></g><g transform="matrix(1 0 0 -1 68.953444444 22.3561)"><use xlink:href="#gA32CAC846971E9468FADD933D647D41A" x="0" y="0" fill="#e6edf3" fill-rule="nonzero"/></g><g transform="matrix(1 0 0 -1 76.792444444 25.5671)"><use xlink:href="#g66C287F757172C4FBEE46C9B113A6E1F" x="0" y="0" fill="#e6edf3" fill-rule="nonzero"/></g><g transform="matrix(1 0 0 -1 82.698344444 22.3561)"><use xlink:href="#g115DED64194A3B9D1CA25A004CD4734D" x="0" y="0" fill="#e6edf3" fill-rule="nonzero"/></g><g transform="matrix(1 0 0 -1 87.768344444 25.5671)"><use xlink:href="#g6F1B2EC7690C574873AE01D06ED173C6" x="0" y="0" fill="#e6edf3" fill-rule="nonzero"/><use xlink:href="#g689CD2C8CC31657A53FE374FF94F6738" x="4.0404" y="0" fill="#e6edf3" fill-rule="nonzero"/><use xlink:href="#gC86B0FAB9444A46451EA9A07C4DA98BD" x="9.1" y="0" fill="#e6edf3" fill-rule="nonzero"/><use xlink:href="#g6E9683AC00B2005415A3143DA7915284" x="13.1404" y="0" fill="#e6edf3" fill-rule="nonzero"/><use xlink:href="#g4A3E5A4432A0C4729107706BA2BDD8BD" x="15.6702" y="0" fill="#e6edf3" fill-rule="nonzero"/><use xlink:href="#g1CEBE56BFF7571B8DB10F1A4DAC5A5D7" x="23.2505" y="0" fill="#e6edf3" fill-rule="nonzero"/><use xlink:href="#g44B522BD902AC660D87109134D3AB71C" x="27.8005" y="0" fill="#e6edf3" fill-rule="nonzero"/></g><g transform="matrix(1 0 0 -1 133.846844444 22.3561)"><use xlink:href="#g7AF10AFFE59D420B8F89A40B982EF05" x="0" y="0" fill="#e6edf3" fill-rule="nonzero"/></g><g transform="matrix(1 0 0 -1 159.846844444 22.3561)"><use xlink:href="#gCC416E75927AD0A8099D8AB0ED7855DE" x="0" y="0" fill="#e6edf3" fill-rule="nonzero"/></g><g transform="matrix(1 0 0 -1 172.927733333 22.3561)"><use xlink:href="#gB323F9E42E1C20C087FBF81136E27860" x="0" y="0" fill="#e6edf3" fill-rule="nonzero"/></g><g transform="matrix(1 0 0 -1 179.430622222 22.3561)"><use xlink:href="#g21E6026C55295689503B3E9C99FAF46D" x="0" y="0" fill="#e6edf3" fill-rule="nonzero"/></g><g transform="matrix(1 0 0 -1 185.930622222 22.3561)"><use xlink:href="#g3286A19CC752B68D2D94F2BC1EB495F" x="0" y="0" fill="#e6edf3" fill-rule="nonzero"/></g><g transform="matrix(1 0 0 -1 193.665622222 22.3561)"><use xlink:href="#gDEB51F3F5A253AD9569DE491554DF190" x="0" y="0" fill="#e6edf3" fill-rule="nonzero"/></g><g transform="matrix(1 0 0 -1 203.373733333 22.3561)"><use xlink:href="#g13AFF74D87C474CFAF661EEAD0458F8B" x="0" y="0" fill="#e6edf3" fill-rule="nonzero"/></g><g transform="matrix(1 0 0 -1 217.098844444 22.3561)"><use xlink:href="#gA32CAC846971E9468FADD933D647D41A" x="0" y="0" fill="#e6edf3" fill-rule="nonzero"/></g><g transform="matrix(1 0 0 -1 224.937844444 25.5671)"><use xlink:href="#g66C287F757172C4FBEE46C9B113A6E1F" x="0" y="0" fill="#e6edf3" fill-rule="nonzero"/></g><g transform="matrix(1 0 0 -1 233.010411111 22.3561)"><use xlink:href="#g84C597EFF9988624DBABE6CF17069247" x="0" y="0" fill="#e6edf3" fill-rule="nonzero"/></g><g transform="matrix(1 0 0 -1 245.997411111 7.9131)"><use xlink:href="#gBBA4DF69B4336752C72E907B110611D2" x="0" y="0" fill="#e6edf3" fill-rule="nonzero"/></g><g transform="matrix(1 0 0 -1 240.147411111 36.1491)"><use xlink:href="#g66C287F757172C4FBEE46C9B113A6E1F" x="0" y="0" fill="#e6edf3" fill-rule="nonzero"/></g><g transform="matrix(1 0 0 -1 253.796977778 22.3561)"><use xlink:href="#g189FA6B14367511FDCFA4F03054D17B0" x="0" y="0" fill="#e6edf3" fill-rule="nonzero"/></g><g transform="matrix(1 0 0 -1 260.361977778 25.5671)"><use xlink:href="#g101A15221A0EE003755D1DFBD155057" x="0" y="0" fill="#e6edf3" fill-rule="nonzero"/></g><g transform="matrix(1 0 0 -1 273.206266667 22.3561)"><use xlink:href="#gB323F9E42E1C20C087FBF81136E27860" x="0" y="0" fill="#e6edf3" fill-rule="nonzero"/></g><g transform="matrix(1 0 0 -1 279.709155556 22.3561)"><use xlink:href="#g21E6026C55295689503B3E9C99FAF46D" x="0" y="0" fill="#e6edf3" fill-rule="nonzero"/></g><g transform="matrix(1 0 0 -1 286.209155556 22.3561)"><use xlink:href="#g3286A19CC752B68D2D94F2BC1EB495F" x="0" y="0" fill="#e6edf3" fill-rule="nonzero"/></g><g transform="matrix(1 0 0 -1 293.944155556 22.3561)"><use xlink:href="#gDEB51F3F5A253AD9569DE491554DF190" x="0" y="0" fill="#e6edf3" fill-rule="nonzero"/></g><g transform="matrix(1 0 0 -1 300.041155556 17.6371)"><use xlink:href="#g962CFBE7F4B0D6E4A1CBDA86A03D94EA" x="0" y="0" fill="#e6edf3" fill-rule="nonzero"/></g><g transform="matrix(1 0 0 -1 306.639522222 22.3561)"><use xlink:href="#gEB9B079EF07FFCCA69ED7A9B1F1ABEB" x="0" y="0" fill="#e6edf3" fill-rule="nonzero"/></g><g transform="matrix(1 0 0 -1 313.867522222 22.3561)"><use xlink:href="#gDEB51F3F5A253AD9569DE491554DF190" x="0" y="0" fill="#e6edf3" fill-rule="nonzero"/></g><g transform="matrix(1 0 0 -1 319.964522222 17.6371)"><use xlink:href="#g962CFBE7F4B0D6E4A1CBDA86A03D94EA" x="0" y="0" fill="#e6edf3" fill-rule="nonzero"/></g><defs><symbol id="g23CEEBFA764149797E7EA3D2360CE782" overflow="visible"><path d="M 0 0m 10.803 17.693c -0.611 0 -1.157 -0.559 -1.651 -1.677c -0.234 -0.507 -0.507 -1.313 -0.806 -2.418c -0.429 -1.573 -0.936 -3.692 -1.521 -6.37h -0.052c -1.105 0 -2.028 -0.39 -2.795 -1.17c -0.767 -0.78 -1.157 -1.703 -1.157 -2.808c 0 -1.807 1.131 -3.159 2.496 -3.705l -0.182 -1.066c -0.507 -2.951 -0.884 -4.927 -1.131 -5.941c -0.533 -2.223 -1.144 -3.341 -1.82 -3.341c -0.247 0 -0.468 0.065 -0.663 0.208c 0.377 0.065 0.559 0.286 0.559 0.676c 0 0.377 -0.286 0.676 -0.663 0.676c -0.455 0 -0.689 -0.234 -0.689 -0.689c 0 -0.754 0.741 -1.261 1.482 -1.261c 0.949 0 1.729 0.754 2.34 2.249c 0.39 0.949 0.832 2.483 1.313 4.576l 0.845 3.64h 0.065c 1.092 0 2.028 0.39 2.795 1.17c 0.767 0.78 1.157 1.703 1.157 2.808c 0 1.794 -1.17 3.172 -2.522 3.705l 0.195 1.066c 0.429 2.47 0.741 4.16 0.936 5.083c 0.598 2.795 1.092 4.199 1.495 4.199c 0.26 0 0.481 -0.065 0.65 -0.208c -0.377 -0.065 -0.572 -0.286 -0.572 -0.676c 0 -0.377 0.286 -0.676 0.663 -0.676c 0.455 0 0.689 0.234 0.689 0.689c 0 0.715 -0.702 1.261 -1.456 1.261Z m -2.717 -11.44c 1.053 -0.468 1.95 -1.56 1.95 -3.003c 0 -0.897 -0.312 -1.651 -0.923 -2.288c -0.611 -0.637 -1.365 -0.962 -2.249 -0.988Z m -4.576 -3.003c 0 0.884 0.299 1.651 0.91 2.288c 0.611 0.637 1.365 0.962 2.249 0.988l -1.222 -6.279c -1.04 0.481 -1.937 1.56 -1.937 3.003Z "/></symbol><symbol id="gCC416E75927AD0A8099D8AB0ED7855DE" overflow="visible"><path d="M 0 0m 9.828 7.059c 0 1.183 -1.17 1.82 -2.444 1.82h -4.316c -0.299 0 -0.429 -0.013 -0.429 -0.312c 0 -0.208 0.26 -0.195 0.416 -0.195c 0.39 -0.013 0.624 -0.039 0.689 -0.052c 0.065 -0.013 0.091 -0.052 0.091 -0.117c 0 -0.026 -0.013 -0.104 -0.052 -0.234l -1.716 -6.903c -0.065 -0.286 -0.195 -0.455 -0.39 -0.52c -0.091 -0.026 -0.325 -0.039 -0.728 -0.039c -0.273 0 -0.403 -0.104 -0.403 -0.312c 0 -0.13 0.13 -0.195 0.403 -0.195h 4.589c 0.845 0 1.625 0.26 2.366 0.767c 0.819 0.559 1.235 1.248 1.235 2.054c 0 1.027 -0.845 1.651 -1.768 1.833c 1.144 0.273 2.457 1.144 2.457 2.405Z m -2.626 1.313c 0.897 0 1.352 -0.416 1.352 -1.261c 0 -0.663 -0.26 -1.209 -0.806 -1.651c -0.546 -0.442 -1.157 -0.65 -1.82 -0.65h -1.807l 0.78 3.12c 0.104 0.442 0.104 0.442 0.65 0.442Z m 0.364 -4.485c 0.182 -0.299 0.273 -0.598 0.273 -0.923c 0 -0.676 -0.26 -1.261 -0.793 -1.742c -0.533 -0.481 -1.131 -0.715 -1.82 -0.715h -1.755c -0.13 0 -0.221 0 -0.273 0.013c -0.078 0 -0.117 0.026 -0.117 0.065c 0 0.013 0 0.052 0.013 0.104c 0.403 1.651 0.715 2.899 0.923 3.731h 2.392c 0.559 0 0.936 -0.182 1.157 -0.533Z "/></symbol><symbol id="g37D7AF847EB8D066970F2B84C26D7F75" overflow="visible"><path d="M 0 0m -0.897 7.787c 0.117 0.039 0.169 0.104 0.169 0.221c 0 0.117 -0.052 0.182 -0.169 0.221c -0.468 0.156 -0.806 0.442 -1.014 0.871c -0.039 0.091 -0.117 0.143 -0.208 0.143c -0.169 0 -0.247 -0.078 -0.247 -0.234c 0 -0.195 0.169 -0.455 0.507 -0.767h -4.03c -0.169 0 -0.247 -0.078 -0.247 -0.234c 0 -0.156 0.078 -0.234 0.247 -0.234h 4.03c -0.338 -0.312 -0.507 -0.572 -0.507 -0.767c 0 -0.156 0.078 -0.234 0.247 -0.234c 0.091 0 0.169 0.052 0.208 0.143c 0.208 0.429 0.546 0.715 1.014 0.871Z "/></symbol><symbol id="gB323F9E42E1C20C087FBF81136E27860" overflow="visible"><path d="M 0 0m 2.496 3.25c 0 0.377 -0.312 0.689 -0.689 0.689c -0.377 0 -0.689 -0.312 -0.689 -0.689c 0 -0.377 0.312 -0.689 0.689 -0.689c 0.377 0 0.689 0.312 0.689 0.689Z "/></symbol><symbol id="gEB9B079EF07FFCCA69ED7A9B1F1ABEB" overflow="visible"><path d="M 0 0m 4.862 -0.143l 1.989 0.143v 0.494c -0.468 0 -0.741 0.026 -0.845 0.104c -0.104 0.078 -0.156 0.273 -0.156 0.572v 7.852l -1.937 -0.143v -0.494c 0.455 0 0.741 -0.039 0.845 -0.117c 0.104 -0.078 0.143 -0.26 0.143 -0.559v -2.639c -0.416 0.481 -0.936 0.715 -1.56 0.715c -0.806 0 -1.495 -0.286 -2.054 -0.871c -0.559 -0.585 -0.845 -1.287 -0.845 -2.106c 0 -0.793 0.26 -1.482 0.793 -2.067c 0.533 -0.585 1.183 -0.884 1.976 -0.884c 0.663 0 1.222 0.247 1.651 0.754Z m -1.469 5.538c 0.559 0 1.014 -0.247 1.339 -0.741c 0.091 -0.143 0.13 -0.286 0.13 -0.455v -2.626c 0 -0.169 -0.039 -0.312 -0.13 -0.455c -0.364 -0.585 -0.858 -0.871 -1.469 -0.871c -0.533 0 -0.962 0.26 -1.3 0.793c -0.234 0.39 -0.351 0.975 -0.351 1.755c 0 1.417 0.481 2.6 1.781 2.6Z "/></symbol><symbol id="g6F1473A4C93C0F65EF32B6DD19A2D771" overflow="visible"><path d="M 0 0m 2.249 8.216l -1.612 -6.669c -0.039 -0.182 -0.065 -0.338 -0.065 -0.455c 0 -0.689 0.507 -1.235 1.196 -1.235c 0.637 0 1.092 0.676 1.365 2.028c 0 0.117 -0.065 0.182 -0.208 0.182c -0.104 0 -0.182 -0.091 -0.221 -0.273c -0.26 -1.027 -0.559 -1.547 -0.91 -1.547c -0.221 0 -0.325 0.182 -0.325 0.533c 0 0.195 0.026 0.403 0.078 0.611l 1.807 7.436v 0.052c -0.039 0.091 -0.117 0.143 -0.208 0.143c -0.416 0 -1.378 -0.117 -1.534 -0.13c -0.195 -0.026 -0.286 -0.13 -0.286 -0.325c 0 -0.117 0.117 -0.182 0.364 -0.182c 0.221 0 0.559 0 0.559 -0.169Z "/></symbol><symbol id="g13AFF74D87C474CFAF661EEAD0458F8B" overflow="visible"><path d="M 0 0m 9.074 4.771h -8.034c -0.208 0 -0.312 -0.104 -0.312 -0.299c 0 -0.195 0.104 -0.299 0.312 -0.299h 8.034c 0.208 0 0.312 0.104 0.312 0.299c 0 0.156 -0.143 0.299 -0.312 0.299Z m 0 -2.444h -8.034c -0.208 0 -0.312 -0.104 -0.312 -0.299c 0 -0.195 0.104 -0.299 0.312 -0.299h 8.034c 0.208 0 0.312 0.104 0.312 0.299c 0 0.169 -0.143 0.299 -0.312 0.299Z "/></symbol><symbol id="gA32CAC846971E9468FADD933D647D41A" overflow="visible"><path d="M 0 0m 7.436 1.846c 0 0.117 -0.065 0.182 -0.208 0.182c -0.104 0 -0.182 -0.091 -0.221 -0.26c -0.26 -1.04 -0.572 -1.56 -0.923 -1.56c -0.221 0 -0.338 0.182 -0.338 0.546c 0 0.221 0.078 0.663 0.247 1.313l 0.364 1.391c 0.117 0.468 0.221 0.793 0.299 1.196l 0.078 0.364c 0.026 0.091 0.039 0.156 0.039 0.182c 0 0.273 -0.143 0.403 -0.429 0.403c -0.286 0 -0.468 -0.156 -0.546 -0.481l -0.936 -3.718c 0 -0.143 -0.208 -0.403 -0.624 -0.793c -0.286 -0.273 -0.611 -0.403 -0.988 -0.403c -0.598 0 -0.897 0.351 -0.897 1.066c 0 0.247 0.052 0.598 0.169 1.079l 0.546 2.158c 0.104 0.403 0.169 0.689 0.195 0.832c 0 0.273 -0.143 0.403 -0.429 0.403c -0.286 0 -0.468 -0.169 -0.559 -0.507l -1.846 -7.436c -0.026 -0.104 -0.039 -0.169 -0.039 -0.208c 0 -0.273 0.143 -0.403 0.416 -0.403c 0.195 0 0.351 0.104 0.494 0.299c 0.039 0.091 0.26 0.988 0.689 2.691c 0.312 -0.234 0.715 -0.351 1.209 -0.351c 0.767 0 1.274 0.403 1.677 0.871c 0.143 -0.481 0.572 -0.871 1.183 -0.871c 0.897 0 1.17 1.053 1.378 2.015Z "/></symbol><symbol id="g66C287F757172C4FBEE46C9B113A6E1F" overflow="visible"><path d="M 0 0m 4.6956 2.9029c 0 1.0283 -0.182 1.8109 -0.5369 2.3478c -0.2912 0.455 -0.8736 0.7917 -1.5743 0.7917c -0.2912 0 -0.5551 -0.0455 -0.7826 -0.1456c -1.001 -0.4186 -1.3286 -1.5834 -1.3286 -2.9939c 0 -0.3094 0.0182 -0.6006 0.0455 -0.8827c 0.1547 -1.1921 0.7098 -2.2022 2.0657 -2.2022c 0.2912 0 0.5551 0.0455 0.7826 0.1456c 1.001 0.4095 1.3286 1.547 1.3286 2.9393Z m -1.0374 2.0202c 0.1001 -0.3367 0.1547 -0.9646 0.1547 -1.9019c 0 -0.8918 -0.0364 -1.5197 -0.1183 -1.8928c -0.1092 -0.5369 -0.4914 -0.9828 -1.1102 -0.9828c -0.2275 0 -0.455 0.0728 -0.6643 0.2275c -0.2821 0.2093 -0.455 0.6188 -0.5278 1.2467c -0.0273 0.2093 -0.0364 0.6734 -0.0364 1.4014c 0 0.8827 0.0455 1.4924 0.1365 1.82c 0.1547 0.5824 0.5187 0.8736 1.092 0.8736c 0.546 0 0.9464 -0.3549 1.0738 -0.7917Z "/></symbol><symbol id="g115DED64194A3B9D1CA25A004CD4734D" overflow="visible"><path d="M 0 0m 6.461 8.671c 0 0.143 -0.078 0.208 -0.247 0.208l -1.677 -0.039l -1.703 0.039c -0.208 0.013 -0.312 -0.091 -0.312 -0.312c 0 -0.13 0.143 -0.195 0.416 -0.195c 0.559 0 0.832 -0.065 0.832 -0.182c 0 -0.065 -0.013 -0.13 -0.026 -0.195l -1.729 -6.929c -0.065 -0.286 -0.195 -0.455 -0.39 -0.52c -0.091 -0.026 -0.325 -0.039 -0.728 -0.039c -0.325 0 -0.455 -0.013 -0.455 -0.312c 0 -0.13 0.078 -0.195 0.247 -0.195l 1.664 0.039l 1.716 -0.039c 0.208 -0.013 0.312 0.091 0.312 0.299c 0 0.208 -0.156 0.208 -0.442 0.208c -0.507 0 -0.819 -0.026 -0.819 0.182c 0 0.065 0.013 0.156 0.052 0.286l 1.716 6.851c 0.065 0.273 0.195 0.442 0.39 0.507c 0.091 0.026 0.325 0.039 0.728 0.039c 0.312 0 0.455 0.013 0.455 0.299Z "/></symbol><symbol id="g6F1B2EC7690C574873AE01D06ED173C6" overflow="visible"><path d="M 0 0m 3.7765 2.2841c 0 1.0465 -0.6097 1.7927 -1.6289 1.7927c -0.546 0 -1.001 -0.2093 -1.3741 -0.637c -0.3458 -0.4004 -0.5187 -0.8827 -0.5187 -1.4378c 0 -0.5733 0.1911 -1.0556 0.5733 -1.4742c 0.3822 -0.4186 0.8554 -0.6279 1.4196 -0.6279c 0.5187 0 0.9191 0.182 1.1921 0.5369c 0.2275 0.3003 0.3367 0.5187 0.3367 0.6643c 0 0.091 -0.0546 0.1365 -0.1547 0.1365c -0.0728 0 -0.1183 -0.0455 -0.1456 -0.1456c -0.2002 -0.6006 -0.5915 -0.9009 -1.1739 -0.9009c -0.4095 0 -0.728 0.1911 -0.9737 0.5824c -0.1729 0.2821 -0.2548 0.7098 -0.2639 1.2922h 2.457c 0.2002 0 0.2548 0.0182 0.2548 0.2184Z m -0.8099 0.8918c 0.1001 -0.3003 0.1456 -0.5915 0.1456 -0.8554h -2.0384c 0.0273 0.6006 0.182 1.0101 0.455 1.2194c 0.2275 0.182 0.4277 0.273 0.6188 0.273c 0.4095 0 0.6825 -0.2093 0.819 -0.637Z "/></symbol><symbol id="g689CD2C8CC31657A53FE374FF94F6738" overflow="visible"><path d="M 0 0m 2.8574 3.7583c 0.4095 0 0.6188 -0.3185 0.6188 -0.9646v -2.0748c 0 -0.1729 -0.0273 -0.2821 -0.091 -0.3185c -0.0637 -0.0364 -0.2639 -0.0546 -0.6006 -0.0546v -0.3458l 1.0465 0.0273l 1.0374 -0.0273v 0.3458c -0.2912 0 -0.4823 0.0091 -0.5733 0.0364c -0.091 0.0273 -0.1274 0.091 -0.1274 0.2002v 1.7017c 0 0.4277 -0.0091 0.728 -0.0364 0.9009c -0.091 0.5551 -0.5005 0.8372 -1.2194 0.8372c -0.5733 0 -1.001 -0.273 -1.2831 -0.819v 0.819l -1.3377 -0.1001v -0.3458c 0.3276 0 0.5278 -0.0273 0.6006 -0.0819c 0.0728 -0.0546 0.1001 -0.1729 0.1001 -0.3822v -2.3933c 0 -0.1729 -0.0364 -0.2821 -0.1001 -0.3185c -0.0637 -0.0364 -0.2639 -0.0546 -0.6006 -0.0546v -0.3458l 1.0465 0.0273l 1.0374 -0.0273v 0.3458c -0.3367 0 -0.5278 0.0182 -0.5915 0.0546c -0.0637 0.0364 -0.1001 0.1456 -0.1001 0.3185v 1.638c 0 0.7371 0.4641 1.4014 1.1739 1.4014Z "/></symbol><symbol id="gC86B0FAB9444A46451EA9A07C4DA98BD" overflow="visible"><path d="M 0 0m 2.2841 3.7856c 0.3822 0 0.6734 -0.091 0.8736 -0.273c -0.2184 -0.0273 -0.3731 -0.2275 -0.3731 -0.4368c 0 -0.3003 0.1456 -0.4459 0.4459 -0.4459c 0.3003 0 0.4459 0.1547 0.4459 0.455c 0 0.6461 -0.7007 0.9919 -1.4014 0.9919c -0.5642 0 -1.0283 -0.2002 -1.4014 -0.6188c -0.3731 -0.4186 -0.5642 -0.9191 -0.5642 -1.4924c 0 -0.5551 0.1911 -1.0465 0.5642 -1.456c 0.3731 -0.4095 0.8281 -0.6097 1.3832 -0.6097c 0.455 0 0.8099 0.1274 1.0647 0.3913c 0.2093 0.2093 0.3458 0.4186 0.4186 0.637c 0.0273 0.0819 0.0364 0.1365 0.0364 0.1729c 0 0.0819 -0.0546 0.1183 -0.1547 0.1183c -0.0728 0 -0.1183 -0.0364 -0.1456 -0.1092c -0.1911 -0.6097 -0.5642 -0.9191 -1.1375 -0.9191c -0.2639 0 -0.5187 0.1183 -0.7735 0.364c -0.3003 0.2821 -0.4459 0.7553 -0.4459 1.4287c 0 0.91 0.3458 1.8018 1.1648 1.8018Z "/></symbol><symbol id="g6E9683AC00B2005415A3143DA7915284" overflow="visible"><path d="M 0 0m 1.2649 0.9646c -0.2912 0 -0.4823 -0.2184 -0.4823 -0.5096c 0 -0.273 0.2093 -0.5005 0.4823 -0.5005c 0.1274 0 0.2366 0.0364 0.3185 0.1183l 0.0091 -0.0728c 0 -0.5733 -0.1911 -1.0647 -0.5733 -1.456c -0.0637 -0.0728 -0.1001 -0.1274 -0.1001 -0.1638c 0 -0.091 0.0364 -0.1365 0.1183 -0.1365c 0.0819 0 0.1911 0.1092 0.3458 0.3185c 0.3094 0.4368 0.4641 0.9191 0.4641 1.4378c 0 0.4823 -0.1638 0.9646 -0.5824 0.9646Z "/></symbol><symbol id="g4A3E5A4432A0C4729107706BA2BDD8BD" overflow="visible"><path d="M 0 0m 2.8665 3.7583c 0.4186 0 0.6279 -0.3185 0.6279 -0.9646v -2.0748c 0 -0.1729 -0.0273 -0.2821 -0.091 -0.3185c -0.0637 -0.0364 -0.273 -0.0546 -0.6097 -0.0546v -0.3458l 1.0556 0.0273l 1.0465 -0.0273v 0.3458c -0.3367 0 -0.5369 0.0182 -0.6006 0.0546c -0.0637 0.0364 -0.1001 0.1456 -0.1001 0.3185v 1.638c 0 0.728 0.4732 1.4014 1.1739 1.4014c 0.4277 0 0.637 -0.3185 0.637 -0.9646v -2.0748c 0 -0.1729 -0.0364 -0.2821 -0.1001 -0.3185c -0.0637 -0.0364 -0.273 -0.0546 -0.6097 -0.0546v -0.3458l 1.0556 0.0273l 1.0465 -0.0273v 0.3458c -0.2912 0 -0.4823 0.0091 -0.5733 0.0364c -0.091 0.0273 -0.1274 0.091 -0.1274 0.2002v 1.7017c 0 0.4277 -0.0182 0.728 -0.0455 0.9009c -0.091 0.5551 -0.5005 0.8372 -1.2194 0.8372c -0.5733 0 -1.001 -0.2639 -1.2922 -0.8008c -0.1274 0.5369 -0.5278 0.8008 -1.2103 0.8008c -0.5733 0 -1.0101 -0.273 -1.3013 -0.819v 0.819l -1.3377 -0.1001v -0.3458c 0.3276 0 0.5278 -0.0273 0.6006 -0.0819c 0.0728 -0.0546 0.1001 -0.1729 0.1001 -0.3822v -2.3933c 0 -0.1729 -0.0364 -0.2821 -0.1001 -0.3185c -0.0637 -0.0364 -0.2639 -0.0546 -0.6006 -0.0546v -0.3458l 1.0556 0.0273l 1.0465 -0.0273v 0.3458c -0.3367 0 -0.546 0.0182 -0.6097 0.0546c -0.0637 0.0364 -0.1001 0.1456 -0.1001 0.3185v 1.638c 0 0.7371 0.4823 1.4014 1.183 1.4014Z "/></symbol><symbol id="g1CEBE56BFF7571B8DB10F1A4DAC5A5D7" overflow="visible"><path d="M 0 0m 4.3953 0.8281v 0.5369h -0.2912v -0.5369c 0 -0.3549 -0.1001 -0.5369 -0.2912 -0.5369c -0.182 0 -0.2912 0.2275 -0.2912 0.4095v 1.7927c 0 0.3185 -0.0364 0.5551 -0.1001 0.7189c -0.2184 0.5369 -0.8463 0.8645 -1.4833 0.8645c -0.7007 0 -1.3923 -0.3913 -1.3923 -1.0465c 0 -0.3003 0.1547 -0.455 0.455 -0.455c 0.3003 0 0.4459 0.1456 0.4459 0.4459c 0 0.2639 -0.1365 0.4186 -0.4186 0.4459c 0.2002 0.2275 0.5005 0.3458 0.8918 0.3458c 0.5642 0 0.91 -0.5187 0.91 -1.1102v -0.3003c -0.7098 -0.0455 -1.2467 -0.1547 -1.6198 -0.3276c -0.6097 -0.2821 -0.9191 -0.6734 -0.9191 -1.1921c 0 -0.2366 0.091 -0.4368 0.2639 -0.5915c 0.2912 -0.2639 0.6916 -0.3913 1.2012 -0.3913c 0.5369 0 0.9191 0.2275 1.1557 0.6916c 0.0637 -0.3458 0.3185 -0.6461 0.7098 -0.6461c 0.4823 0 0.7735 0.3822 0.7735 0.8827Z m -2.5753 -0.6643c -0.4186 0 -0.7644 0.3094 -0.7644 0.728c 0 0.8463 0.8827 1.2103 1.7745 1.2558v -0.8645c 0 -0.6097 -0.4004 -1.1193 -1.0101 -1.1193Z "/></symbol><symbol id="g44B522BD902AC660D87109134D3AB71C" overflow="visible"><path d="M 0 0m 3.9221 4.1223c -0.3458 0 -0.6643 -0.1365 -0.9555 -0.4095c -0.273 0.2093 -0.5824 0.3094 -0.9373 0.3094c -0.7826 0 -1.4924 -0.5824 -1.4924 -1.3468c 0 -0.3822 0.1365 -0.6916 0.4095 -0.9282c -0.1729 -0.2184 -0.2639 -0.4641 -0.2639 -0.7462c 0 -0.3458 0.1183 -0.6097 0.3458 -0.7826c -0.3822 -0.1274 -0.7735 -0.455 -0.7735 -0.9191c 0 -0.3913 0.2548 -0.7007 0.7553 -0.9191c 0.3822 -0.1729 0.8008 -0.2548 1.2558 -0.2548c 0.4641 0 0.8918 0.0819 1.274 0.2548c 0.5005 0.2184 0.7462 0.5278 0.7462 0.9373c 0 0.4823 -0.2002 0.8372 -0.6006 1.0647c -0.4186 0.2275 -0.8827 0.2548 -1.5561 0.2548c -0.4004 0 -0.6188 0 -0.6643 0.0091c -0.2548 0.0364 -0.4368 0.2821 -0.4368 0.5642c 0 0.1365 0.0364 0.2639 0.1183 0.3731c 0.2548 -0.1729 0.546 -0.2639 0.8827 -0.2639c 0.7826 0 1.4833 0.5824 1.4833 1.3468c 0 0.3549 -0.1183 0.6461 -0.3549 0.8736c 0.2275 0.2093 0.4732 0.3094 0.7371 0.3094c -0.0455 -0.0455 -0.0728 -0.1183 -0.0728 -0.2093c 0 -0.2002 0.1001 -0.3003 0.3003 -0.3003c 0.1911 0 0.2912 0.1001 0.2912 0.3094c 0 0.2821 -0.2184 0.4732 -0.4914 0.4732Z m -1.8928 -0.3822c 0.4914 0 0.7371 -0.3549 0.7371 -1.0647c 0 -0.7189 -0.2457 -1.0829 -0.7371 -1.0829c -0.5005 0 -0.7462 0.3549 -0.7462 1.0738c 0 0.7189 0.2457 1.0738 0.7462 1.0738Z m -0.5369 -3.7037h 0.5278c 0.4732 0 0.8554 -0.0273 1.1466 -0.091c 0.3913 -0.0819 0.5824 -0.3003 0.5824 -0.6461c 0 -0.2912 -0.182 -0.5187 -0.546 -0.6916c -0.2821 -0.1365 -0.5915 -0.2002 -0.9282 -0.2002c -0.3276 0 -0.637 0.0637 -0.9282 0.2002c -0.3731 0.1729 -0.5551 0.4004 -0.5551 0.6916c 0 0.3822 0.3276 0.7371 0.7007 0.7371Z "/></symbol><symbol id="g7AF10AFFE59D420B8F89A40B982EF05" overflow="visible"><path d="M 0 0m 12.051 3.029c 0.104 0.052 0.156 0.13 0.156 0.221c 0 0.091 -0.052 0.169 -0.156 0.221c -0.793 0.208 -1.599 0.663 -2.405 1.352c -0.585 0.507 -1.04 1.092 -1.378 1.768c -0.052 0.117 -0.143 0.169 -0.273 0.169c -0.208 0 -0.312 -0.104 -0.312 -0.312c 0 -0.026 0.013 -0.065 0.026 -0.13c 0.299 -0.572 0.663 -1.079 1.079 -1.521h -7.696c -0.208 0 -0.312 -0.104 -0.312 -0.299c 0 -0.208 0.104 -0.312 0.312 -0.312h 8.372c 0.481 -0.39 1.014 -0.702 1.573 -0.936c -0.559 -0.234 -1.092 -0.546 -1.573 -0.936h -8.372c -0.208 0 -0.312 -0.104 -0.312 -0.312c 0 -0.195 0.104 -0.299 0.312 -0.299h 7.696c -0.416 -0.442 -0.78 -0.949 -1.079 -1.521c -0.013 -0.065 -0.026 -0.104 -0.026 -0.13c 0 -0.208 0.104 -0.312 0.312 -0.312c 0.13 0 0.221 0.052 0.273 0.169c 0.338 0.676 0.793 1.261 1.378 1.768c 0.806 0.689 1.612 1.144 2.405 1.352Z "/></symbol><symbol id="g21E6026C55295689503B3E9C99FAF46D" overflow="visible"><path d="M 0 0m 3.081 8.658c -0.663 0 -1.222 -0.234 -1.703 -0.702c -0.481 -0.468 -0.728 -1.014 -0.728 -1.677c 0 -0.442 0.325 -0.767 0.728 -0.767c 0.39 0 0.715 0.338 0.715 0.728c 0 0.429 -0.312 0.728 -0.728 0.728c -0.039 0 -0.065 0 -0.091 -0.013c 0.247 0.637 0.819 1.196 1.638 1.196c 1.066 0 1.664 -0.923 1.664 -2.041c 0 -0.871 -0.442 -1.807 -1.326 -2.795l -2.444 -2.756c -0.169 -0.195 -0.156 -0.182 -0.156 -0.559h 4.823l 0.377 2.34h -0.429c -0.104 -0.663 -0.195 -1.04 -0.273 -1.157c -0.065 -0.065 -0.455 -0.091 -1.17 -0.091h -2.171l 1.261 1.235c 0.884 0.832 2.002 1.729 2.379 2.418c 0.26 0.455 0.39 0.91 0.39 1.365c 0 1.534 -1.196 2.548 -2.756 2.548Z "/></symbol><symbol id="g3286A19CC752B68D2D94F2BC1EB495F" overflow="visible"><path d="M 0 0m 6.812 5.603h -4.29c -0.533 0 -1.001 -0.208 -1.378 -0.611c -0.182 -0.195 -0.793 -1.027 -0.793 -1.196c 0.052 -0.091 0.052 -0.169 0.208 -0.169c 0.091 0 0.169 0.052 0.247 0.169c 0.416 0.637 0.949 0.962 1.586 0.962h 0.663c -0.299 -1.131 -0.845 -2.522 -1.625 -4.173c -0.065 -0.156 -0.104 -0.273 -0.104 -0.338c 0 -0.26 0.143 -0.39 0.416 -0.39c 0.247 0 0.429 0.143 0.546 0.416c 0.234 0.741 0.403 1.313 0.494 1.703l 0.715 2.782h 1.339c -0.351 -1.547 -0.533 -2.626 -0.533 -3.237c 0 -0.637 0.143 -1.664 0.624 -1.664c 0.273 0 0.572 0.26 0.572 0.533c 0 0.065 -0.026 0.169 -0.078 0.299c -0.247 0.611 -0.364 1.3 -0.364 2.093c 0 0.611 0.078 1.274 0.221 1.976h 1.417c 0.455 0 0.676 0.156 0.676 0.481c 0 0.299 -0.234 0.364 -0.559 0.364Z "/></symbol><symbol id="gDEB51F3F5A253AD9569DE491554DF190" overflow="visible"><path d="M 0 0m 5.46 4.602c 0 0.741 -0.754 1.144 -1.56 1.144c -0.819 0 -1.404 -0.247 -1.755 -0.741c -0.299 -0.429 -0.455 -0.819 -0.455 -1.17c 0 -0.689 0.455 -1.131 1.352 -1.326c 0.377 -0.065 0.663 -0.156 0.884 -0.26c 0.273 -0.117 0.403 -0.338 0.403 -0.65c 0 -0.234 -0.104 -0.494 -0.325 -0.793c -0.273 -0.377 -0.754 -0.572 -1.443 -0.572c -0.702 0 -1.157 0.195 -1.365 0.572c 0.416 -0.013 0.767 0.325 0.767 0.741c 0 0.325 -0.169 0.494 -0.52 0.494c -0.468 0 -0.767 -0.429 -0.767 -0.897c 0 -0.858 0.936 -1.287 1.872 -1.287c 0.975 0 1.677 0.286 2.093 0.871c 0.351 0.481 0.52 0.91 0.52 1.3c 0 0.559 -0.273 0.975 -0.806 1.248c -0.403 0.143 -0.715 0.234 -0.91 0.273c -0.455 0.117 -0.923 0.156 -0.923 0.715c 0 0.689 0.65 1.105 1.378 1.105c 0.546 0 0.897 -0.169 1.066 -0.494c -0.286 -0.052 -0.585 -0.299 -0.585 -0.624c 0 -0.273 0.143 -0.416 0.442 -0.416c 0.403 0 0.637 0.364 0.637 0.767Z "/></symbol><symbol id="g84C597EFF9988624DBABE6CF17069247" overflow="visible"><path d="M 0 0m 10.803 17.693c -0.611 0 -1.157 -0.559 -1.664 -1.677c -0.247 -0.533 -0.507 -1.339 -0.793 -2.418c -1.261 -4.654 -2.21 -9.191 -3.211 -15.119c -0.455 -2.743 -0.832 -4.732 -1.131 -5.941c -0.533 -2.223 -1.144 -3.341 -1.82 -3.341c -0.247 0 -0.468 0.065 -0.663 0.208c 0.377 0.065 0.559 0.286 0.559 0.676c 0 0.377 -0.286 0.676 -0.663 0.676c -0.455 0 -0.689 -0.234 -0.689 -0.689c 0 -0.754 0.741 -1.261 1.482 -1.261c 0.949 0 1.729 0.754 2.34 2.249c 0.325 0.793 0.767 2.327 1.313 4.576c 0.949 3.861 1.794 7.995 2.535 12.389c 0.52 3.081 0.988 5.421 1.391 7.02c 0.377 1.508 0.728 2.262 1.04 2.262c 0.26 0 0.481 -0.065 0.65 -0.208c -0.377 -0.065 -0.572 -0.286 -0.572 -0.676c 0 -0.377 0.286 -0.676 0.663 -0.676c 0.455 0 0.689 0.234 0.689 0.689c 0 0.715 -0.702 1.261 -1.456 1.261Z "/></symbol><symbol id="gBBA4DF69B4336752C72E907B110611D2" overflow="visible"><path d="M 0 0m 4.277 3.2032c 0 0.5642 -0.5915 0.8099 -1.2194 0.8099c -0.6552 0 -1.1193 -0.1911 -1.3832 -0.5733c -0.2002 -0.2821 -0.3003 -0.5369 -0.3003 -0.7644c 0 -0.4277 0.2275 -0.7189 0.6825 -0.8736c 0.0819 -0.0273 0.3094 -0.0728 0.6734 -0.1365c 0.4823 -0.091 0.728 -0.273 0.728 -0.5551c 0 -0.1001 -0.0364 -0.2093 -0.1092 -0.3458c -0.1911 -0.3549 -0.6006 -0.5369 -1.2194 -0.5369c -0.5005 0 -0.8372 0.1092 -1.0101 0.3185c 0.2457 0.0455 0.4641 0.2548 0.4641 0.5369c 0 0.2457 -0.1274 0.364 -0.3822 0.364c -0.3458 0 -0.5551 -0.2912 -0.5551 -0.637c 0 -0.637 0.7553 -0.9009 1.4742 -0.9009c 0.6188 0 1.092 0.1456 1.4196 0.4277c 0.3731 0.3185 0.5551 0.6825 0.5551 1.0829c 0 0.5642 -0.4186 0.9282 -1.2558 1.0829c -0.1547 0.0364 -0.273 0.0637 -0.3549 0.0728c -0.3094 0.0546 -0.4641 0.1911 -0.4641 0.4095c 0 0.1001 0.0364 0.1911 0.1001 0.2912c 0.1729 0.2821 0.4823 0.4186 0.9282 0.4186c 0.3822 0 0.6461 -0.091 0.7826 -0.273c -0.2275 -0.0728 -0.3458 -0.2184 -0.3458 -0.4459c 0 -0.2093 0.1092 -0.3185 0.3276 -0.3185c 0.273 0 0.4641 0.2366 0.4641 0.546Z "/></symbol><symbol id="g189FA6B14367511FDCFA4F03054D17B0" overflow="visible"><path d="M 0 0m 8.229 8.671c 0 0.143 -0.078 0.208 -0.234 0.208c -0.247 0 -1.17 -0.039 -1.417 -0.039l -1.885 0.039c -0.221 0 -0.325 -0.104 -0.325 -0.312c 0 -0.13 0.169 -0.195 0.494 -0.195c 0.585 0 0.936 -0.026 1.027 -0.091c 0.039 -0.026 0.052 -0.065 0.052 -0.13c 0 -0.039 -0.013 -0.13 -0.039 -0.26l -1.482 -5.902c -0.208 -0.832 -0.871 -1.885 -1.794 -1.885c -0.585 0 -0.962 0.221 -1.144 0.676h 0.078c 0.468 0 0.884 0.403 0.884 0.871c 0 0.403 -0.208 0.598 -0.611 0.598c -0.572 0 -0.91 -0.507 -0.91 -1.079c 0 -0.91 0.793 -1.456 1.742 -1.456c 0.65 0 1.248 0.208 1.807 0.624c 0.559 0.416 0.923 0.923 1.079 1.534l 1.495 6.006c 0.117 0.468 0.169 0.494 0.78 0.494c 0.273 0 0.403 0.026 0.403 0.299Z "/></symbol><symbol id="g101A15221A0EE003755D1DFBD155057" overflow="visible"><path d="M 0 0m 1.5015 4.0131c -0.3003 0 -0.5551 -0.1638 -0.7462 -0.5005c -0.1274 -0.2275 -0.2275 -0.4641 -0.2912 -0.728c -0.0273 -0.1001 -0.0364 -0.1547 -0.0364 -0.1729c 0 -0.1001 0.0637 -0.1547 0.1911 -0.1547c 0.1729 0 0.182 0.1001 0.2275 0.2912c 0.1547 0.6279 0.364 0.9464 0.6279 0.9464c 0.1729 0 0.2639 -0.1365 0.2639 -0.4095c 0 -0.1001 -0.0455 -0.3367 -0.1456 -0.728l -0.4914 -1.9474c -0.0637 -0.2457 -0.091 -0.3731 -0.091 -0.3822c 0 -0.2093 0.1183 -0.3185 0.3458 -0.3185c 0.1729 0 0.3003 0.0728 0.3822 0.2184c 0.0273 0.0546 0.0819 0.2457 0.1638 0.5642l 0.2002 0.8008c 0.1092 0.4277 0.1729 0.6643 0.1911 0.7189c 0.0728 0.2366 0.182 0.4641 0.3367 0.6734c 0.3822 0.5369 0.8281 0.8099 1.3286 0.8099c 0.3276 0 0.4914 -0.2002 0.4914 -0.5915c 0 -0.1547 -0.0546 -0.4277 -0.1547 -0.8372l -0.3731 -1.5015c -0.0819 -0.3367 -0.1274 -0.5096 -0.1274 -0.5369c 0 -0.2093 0.1092 -0.3185 0.3367 -0.3185c 0.1729 0 0.3094 0.0728 0.3913 0.2184c 0.0273 0.0546 0.0819 0.2457 0.1638 0.5642l 0.2002 0.8008c 0.1456 0.5642 0.1729 0.9009 0.4277 1.2649c 0.4095 0.6279 0.8736 0.9373 1.4105 0.9373c 0.3276 0 0.4914 -0.2002 0.4914 -0.5915c 0 -0.3549 -0.1729 -0.9828 -0.5278 -1.8928c -0.091 -0.2366 -0.1365 -0.4004 -0.1365 -0.5005c 0 -0.4914 0.4004 -0.8008 0.8918 -0.8008c 0.4368 0 0.7826 0.2184 1.0283 0.6552c 0.2093 0.3731 0.3094 0.6188 0.3094 0.7462c 0 0.1001 -0.0637 0.1547 -0.182 0.1547c -0.0637 -0.0091 -0.1547 -0.0819 -0.2093 -0.182c -0.2093 -0.7007 -0.5096 -1.0556 -0.9191 -1.0556c -0.1274 0 -0.1911 0.091 -0.1911 0.2821c 0 0.1274 0.0728 0.364 0.2093 0.7098c 0.3185 0.8099 0.4823 1.3923 0.4823 1.7381c 0 0.7007 -0.4004 1.0556 -1.2103 1.0556c -0.5915 0 -1.1102 -0.2821 -1.5743 -0.8463c -0.091 0.5642 -0.4914 0.8463 -1.1921 0.8463c -0.5915 0 -1.092 -0.2548 -1.5015 -0.7644c -0.0819 0.4459 -0.4732 0.7644 -0.9919 0.7644Z "/></symbol><symbol id="g962CFBE7F4B0D6E4A1CBDA86A03D94EA" overflow="visible"><path d="M 0 0m 2.5844 4.9959c -0.2275 0 -0.3822 -0.091 -0.4641 -0.2821l -1.5288 -3.8402h 0.4095l 2.0202 3.3397c 0.0455 0.0819 0.0728 0.1729 0.0728 0.273c 0 0.273 -0.2366 0.5096 -0.5096 0.5096Z "/></symbol></defs></svg>