<svg viewBox="0 0 190.1198 23.413" width="190.1198pt" height="23.413pt" xmlns="http://www.w3.org/2000/svg" xmlns:xlink="http://www.w3.org/1999/xlink" xmlns:h5="http://www.w3.org/1999/xhtml"><g transform="matrix(1 0 0 -1 6.5 16.211)"><use xlink:href="#g189FA6B14367511FDCFA4F03054D17B0" x="0" y="0" fill="#e6edf3" fill-rule="nonzero"/></g><g transform="matrix(1 0 0 -1 16.263 13.182)"><use xlink:href="#g37D7AF847EB8D066970F2B84C26D7F75" x="0" y="0" fill="#e6edf3" fill-rule="nonzero"/></g><g transform="matrix(1 0 0 -1 13.715 19.422)"><use xlink:href="#g101A15221A0EE003755D1DFBD155057" x="0" y="0" fill="#e6edf3" fill-rule="nonzero"/></g><g transform="matrix(1 0 0 -1 27.281511111 16.211)"><use xlink:href="#g13AFF74D87C474CFAF661EEAD0458F8B" x="0" y="0" fill="#e6edf3" fill-rule="nonzero"/></g><g transform="matrix(1 0 0 -1 41.006622222 16.211)"><use xlink:href="#gA01F6DC51669829F49C013CF8E967E44" x="0" y="0" fill="#e6edf3" fill-rule="nonzero"/></g><g transform="matrix(1 0 0 -1 54.724511111 16.211)"><use xlink:href="#g596E6AE655F7C550875F3D7A9A58D2C7" x="0" y="0" fill="#e6edf3" fill-rule="nonzero"/></g><g transform="matrix(1 0 0 -1 67.7274 16.211)"><use xlink:href="#g35B4FBA1E2C6B292D79BD0F4F0E600B8" x="0" y="0" fill="#e6edf3" fill-rule="nonzero"/></g><g transform="matrix(1 0 0 -1 68.8844 13.182)"><use xlink:href="#g6A78CAAF56C04D0BAE1AD9D27244E736" x="0" y="0" fill="#e6edf3" fill-rule="nonzero"/><use xlink:href="#g6A658C14ECD274003A3345FA4D90D1A3" x="2.386346999" y="0" fill="#e6edf3" fill-rule="nonzero"/><use xlink:href="#g6A658C14ECD274003A3345FA4D90D1A3" x="3.862808199" y="0" fill="#e6edf3" fill-rule="nonzero"/><use xlink:href="#g6A658C14ECD274003A3345FA4D90D1A3" x="5.3392694" y="0" fill="#e6edf3" fill-rule="nonzero"/><use xlink:href="#g6A658C14ECD274003A3345FA4D90D1A3" x="6.8157306" y="0" fill="#e6edf3" fill-rule="nonzero"/><use xlink:href="#g6A658C14ECD274003A3345FA4D90D1A3" x="8.292191801" y="0" fill="#e6edf3" fill-rule="nonzero"/><use xlink:href="#g6A658C14ECD274003A3345FA4D90D1A3" x="9.768653001" y="0" fill="#e6edf3" fill-rule="nonzero"/><use xlink:href="#gD07B3A091BC0675D761F91A53E2AE192" x="11.271" y="0" fill="#e6edf3" fill-rule="nonzero"/></g><g transform="matrix(1 0 0 -1 107.6634 16.211)"><use xlink:href="#g40250C3693DC0DFD75B60E230F9F53E2" x="0" y="0" fill="#e6edf3" fill-rule="nonzero"/></g><g transform="matrix(1 0 0 -1 110.4649 13.169)"><use xlink:href="#g57F18D900CF55D9A01A5ED40C5665877" x="0" y="0" fill="#e6edf3" fill-rule="nonzero"/></g><g transform="matrix(1 0 0 -1 118.7004 19.422)"><use xlink:href="#g101A15221A0EE003755D1DFBD155057" x="0" y="0" fill="#e6edf3" fill-rule="nonzero"/></g><g transform="matrix(1 0 0 -1 132.266911111 16.211)"><use xlink:href="#g13AFF74D87C474CFAF661EEAD0458F8B" x="0" y="0" fill="#e6edf3" fill-rule="nonzero"/></g><g transform="matrix(1 0 0 -1 145.992022222 16.211)"><use xlink:href="#g35B4FBA1E2C6B292D79BD0F4F0E600B8" x="0" y="0" fill="#e6edf3" fill-rule="nonzero"/></g><g transform="matrix(1 0 0 -1 147.149022222 13.182)"><use xlink:href="#g6A78CAAF56C04D0BAE1AD9D27244E736" x="0" y="0" fill="#e6edf3" fill-rule="nonzero"/><use xlink:href="#g6A658C14ECD274003A3345FA4D90D1A3" x="2.386346999" y="0" fill="#e6edf3" fill-rule="nonzero"/><use xlink:href="#g6A658C14ECD274003A3345FA4D90D1A3" x="3.862808199" y="0" fill="#e6edf3" fill-rule="nonzero"/><use xlink:href="#g6A658C14ECD274003A3345FA4D90D1A3" x="5.3392694" y="0" fill="#e6edf3" fill-rule="nonzero"/><use xlink:href="#g6A658C14ECD274003A3345FA4D90D1A3" x="6.8157306" y="0" fill="#e6edf3" fill-rule="nonzero"/><use xlink:href="#g6A658C14ECD274003A3345FA4D90D1A3" x="8.292191801" y="0" fill="#e6edf3" fill-rule="nonzero"/><use xlink:href="#g6A658C14ECD274003A3345FA4D90D1A3" x="9.768653001" y="0" fill="#e6edf3" fill-rule="nonzero"/><use xlink:href="#gD07B3A091BC0675D761F91A53E2AE192" x="11.271" y="0" fill="#e6edf3" fill-rule="nonzero"/></g><g transform="matrix(1 0 0 -1 162.816911111 16.211)"><use xlink:href="#g596E6AE655F7C550875F3D7A9A58D2C7" x="0" y="0" fill="#e6edf3" fill-rule="nonzero"/></g><g transform="matrix(1 0 0 -1 175.8198 16.211)"><use xlink:href="#g5AAD6B38658AAA3198C014B3B7995D3E" x="0" y="0" fill="#e6edf3" fill-rule="nonzero"/></g><g transform="matrix(1 0 0 -1 176.7948 16.211)"><use xlink:href="#g5B90E9196699B0DF3EE96BEA297F231B" x="0" y="0" fill="#e6edf3" fill-rule="nonzero"/></g><defs><symbol id="g189FA6B14367511FDCFA4F03054D17B0" overflow="visible"><path d="M 0 0m 8.229 8.671c 0 0.143 -0.078 0.208 -0.234 0.208c -0.247 0 -1.17 -0.039 -1.417 -0.039l -1.885 0.039c -0.221 0 -0.325 -0.104 -0.325 -0.312c 0 -0.13 0.169 -0.195 0.494 -0.195c 0.585 0 0.936 -0.026 1.027 -0.091c 0.039 -0.026 0.052 -0.065 0.052 -0.13c 0 -0.039 -0.013 -0.13 -0.039 -0.26l -1.482 -5.902c -0.208 -0.832 -0.871 -1.885 -1.794 -1.885c -0.585 0 -0.962 0.221 -1.144 0.676h 0.078c 0.468 0 0.884 0.403 0.884 0.871c 0 0.403 -0.208 0.598 -0.611 0.598c -0.572 0 -0.91 -0.507 -0.91 -1.079c 0 -0.91 0.793 -1.456 1.742 -1.456c 0.65 0 1.248 0.208 1.807 0.624c 0.559 0.416 0.923 0.923 1.079 1.534l 1.495 6.006c 0.117 0.468 0.169 0.494 0.78 0.494c 0.273 0 0.403 0.026 0.403 0.299Z "/></symbol><symbol id="g37D7AF847EB8D066970F2B84C26D7F75" overflow="visible"><path d="M 0 0m -0.897 7.787c 0.117 0.039 0.169 0.104 0.169 0.221c 0 0.117 -0.052 0.182 -0.169 0.221c -0.468 0.156 -0.806 0.442 -1.014 0.871c -0.039 0.091 -0.117 0.143 -0.208 0.143c -0.169 0 -0.247 -0.078 -0.247 -0.234c 0 -0.195 0.169 -0.455 0.507 -0.767h -4.03c -0.169 0 -0.247 -0.078 -0.247 -0.234c 0 -0.156 0.078 -0.234 0.247 -0.234h 4.03c -0.338 -0.312 -0.507 -0.572 -0.507 -0.767c 0 -0.156 0.078 -0.234 0.247 -0.234c 0.091 0 0.169 0.052 0.208 0.143c 0.208 0.429 0.546 0.715 1.014 0.871Z "/></symbol><symbol id="g101A15221A0EE003755D1DFBD155057" overflow="visible"><path d="M 0 0m 1.5015 4.0131c -0.3003 0 -0.5551 -0.1638 -0.7462 -0.5005c -0.1274 -0.2275 -0.2275 -0.4641 -0.2912 -0.728c -0.0273 -0.1001 -0.0364 -0.1547 -0.0364 -0.1729c 0 -0.1001 0.0637 -0.1547 0.1911 -0.1547c 0.1729 0 0.182 0.1001 0.2275 0.2912c 0.1547 0.6279 0.364 0.9464 0.6279 0.9464c 0.1729 0 0.2639 -0.1365 0.2639 -0.4095c 0 -0.1001 -0.0455 -0.3367 -0.1456 -0.728l -0.4914 -1.9474c -0.0637 -0.2457 -0.091 -0.3731 -0.091 -0.3822c 0 -0.2093 0.1183 -0.3185 0.3458 -0.3185c 0.1729 0 0.3003 0.0728 0.3822 0.2184c 0.0273 0.0546 0.0819 0.2457 0.1638 0.5642l 0.2002 0.8008c 0.1092 0.4277 0.1729 0.6643 0.1911 0.7189c 0.0728 0.2366 0.182 0.4641 0.3367 0.6734c 0.3822 0.5369 0.8281 0.8099 1.3286 0.8099c 0.3276 0 0.4914 -0.2002 0.4914 -0.5915c 0 -0.1547 -0.0546 -0.4277 -0.1547 -0.8372l -0.3731 -1.5015c -0.0819 -0.3367 -0.1274 -0.5096 -0.1274 -0.5369c 0 -0.2093 0.1092 -0.3185 0.3367 -0.3185c 0.1729 0 0.3094 0.0728 0.3913 0.2184c 0.0273 0.0546 0.0819 0.2457 0.1638 0.5642l 0.2002 0.8008c 0.1456 0.5642 0.1729 0.9009 0.4277 1.2649c 0.4095 0.6279 0.8736 0.9373 1.4105 0.9373c 0.3276 0 0.4914 -0.2002 0.4914 -0.5915c 0 -0.3549 -0.1729 -0.9828 -0.5278 -1.8928c -0.091 -0.2366 -0.1365 -0.4004 -0.1365 -0.5005c 0 -0.4914 0.4004 -0.8008 0.8918 -0.8008c 0.4368 0 0.7826 0.2184 1.0283 0.6552c 0.2093 0.3731 0.3094 0.6188 0.3094 0.7462c 0 0.1001 -0.0637 0.1547 -0.182 0.1547c -0.0637 -0.0091 -0.1547 -0.0819 -0.2093 -0.182c -0.2093 -0.7007 -0.5096 -1.0556 -0.9191 -1.0556c -0.1274 0 -0.1911 0.091 -0.1911 0.2821c 0 0.1274 0.0728 0.364 0.2093 0.7098c 0.3185 0.8099 0.4823 1.3923 0.4823 1.7381c 0 0.7007 -0.4004 1.0556 -1.2103 1.0556c -0.5915 0 -1.1102 -0.2821 -1.5743 -0.8463c -0.091 0.5642 -0.4914 0.8463 -1.1921 0.8463c -0.5915 0 -1.092 -0.2548 -1.5015 -0.7644c -0.0819 0.4459 -0.4732 0.7644 -0.9919 0.7644Z "/></symbol><symbol id="g13AFF74D87C474CFAF661EEAD0458F8B" overflow="visible"><path d="M 0 0m 9.074 4.771h -8.034c -0.208 0 -0.312 -0.104 -0.312 -0.299c 0 -0.195 0.104 -0.299 0.312 -0.299h 8.034c 0.208 0 0.312 0.104 0.312 0.299c 0 0.156 -0.143 0.299 -0.312 0.299Z m 0 -2.444h -8.034c -0.208 0 -0.312 -0.104 -0.312 -0.299c 0 -0.195 0.104 -0.299 0.312 -0.299h 8.034c 0.208 0 0.312 0.104 0.312 0.299c 0 0.169 -0.143 0.299 -0.312 0.299Z "/></symbol><symbol id="gA01F6DC51669829F49C013CF8E967E44" overflow="visible"><path d="M 0 0m 10.14 8.541c 0.039 0.091 0.065 0.156 0.065 0.182c 0 0.104 -0.117 0.156 -0.338 0.156h -8.918c -0.221 0 -0.338 -0.052 -0.338 -0.169l 4.42 -8.879c 0.091 -0.169 0.208 -0.26 0.377 -0.26c 0.169 0 0.286 0.091 0.377 0.26Z m -4.355 -7.605l -3.458 6.929h 6.903Z "/></symbol><symbol id="g596E6AE655F7C550875F3D7A9A58D2C7" overflow="visible"><path d="M 0 0m 8.19 0.416c 0 0.091 -0.026 0.156 -0.091 0.221l -2.613 2.613l 2.613 2.613c 0.065 0.065 0.091 0.13 0.091 0.221c 0 0.169 -0.13 0.299 -0.299 0.299c -0.091 0 -0.156 -0.026 -0.221 -0.091l -2.613 -2.613l -2.613 2.613c -0.065 0.065 -0.13 0.091 -0.221 0.091c -0.169 0 -0.299 -0.13 -0.299 -0.299c 0 -0.091 0.026 -0.156 0.091 -0.221l 2.613 -2.613l -2.613 -2.613c -0.065 -0.065 -0.091 -0.13 -0.091 -0.221c 0 -0.169 0.13 -0.299 0.299 -0.299c 0.091 0 0.156 0.026 0.221 0.091l 2.613 2.613l 2.613 -2.613c 0.065 -0.065 0.13 -0.091 0.221 -0.091c 0.169 0 0.299 0.13 0.299 0.299Z "/></symbol><symbol id="g35B4FBA1E2C6B292D79BD0F4F0E600B8" overflow="visible"><path d="M 0 0m 7.722 0.208c 0 -0.143 0.078 -0.208 0.247 -0.208l 1.599 0.039c 0.299 0.013 1.352 -0.039 1.599 -0.039c 0.195 0 0.299 0.104 0.299 0.312c 0 0.13 -0.13 0.195 -0.403 0.195c -0.533 0 -0.793 0.052 -0.793 0.169c 0 0.039 0.026 0.13 0.065 0.299l 1.716 6.851c 0.065 0.273 0.195 0.442 0.364 0.507c 0.078 0.026 0.312 0.039 0.689 0.039c 0.325 0 0.468 0.013 0.468 0.312c 0 0.13 -0.13 0.195 -0.403 0.195h -1.703c -0.377 0 -0.377 -0.026 -0.546 -0.273l -4.628 -7.202l -0.988 7.137c -0.052 0.325 -0.078 0.338 -0.455 0.338h -1.768c -0.286 0 -0.429 -0.013 -0.429 -0.299c 0 -0.143 0.143 -0.208 0.416 -0.208c 0.26 0 0.793 0.039 0.793 -0.169c 0 -0.026 -0.013 -0.104 -0.052 -0.234l -1.638 -6.539c -0.117 -0.494 -0.416 -0.793 -0.871 -0.884c -0.325 -0.039 -0.754 0.013 -0.754 -0.338c 0 -0.143 0.078 -0.208 0.234 -0.208c 0.234 0 1.053 0.039 1.287 0.039c 0.247 0 1.079 -0.039 1.326 -0.039c 0.195 0 0.286 0.104 0.286 0.312c 0 0.117 -0.091 0.182 -0.286 0.195c -0.546 0 -0.819 0.169 -0.819 0.507c 0 0.052 0.013 0.143 0.052 0.286l 1.69 6.773l 1.079 -7.735c 0.039 -0.221 0.117 -0.338 0.247 -0.338c 0.104 0 0.208 0.091 0.325 0.26l 5.057 7.891l -1.768 -7.085c -0.078 -0.286 -0.208 -0.455 -0.403 -0.52c -0.078 -0.026 -0.325 -0.039 -0.728 -0.039c -0.273 0 -0.403 -0.026 -0.403 -0.299Z "/></symbol><symbol id="g6A78CAAF56C04D0BAE1AD9D27244E736" overflow="visible"><path d="M 0 0m 0.234 7.8h 2.431v 0.468h -2.431c -0.156 0 -0.234 -0.104 -0.234 -0.234c 0 -0.13 0.078 -0.234 0.234 -0.234Z "/></symbol><symbol id="g6A658C14ECD274003A3345FA4D90D1A3" overflow="visible"><path d="M 0 0m 0 7.8h 1.781v 0.468h -1.781Z "/></symbol><symbol id="gD07B3A091BC0675D761F91A53E2AE192" overflow="visible"><path d="M 0 0m 2.509 7.813c 0.104 0.039 0.156 0.104 0.156 0.221c 0 0.117 -0.052 0.182 -0.156 0.221c -0.455 0.143 -0.793 0.442 -0.988 0.871c -0.039 0.091 -0.117 0.143 -0.221 0.143c -0.156 0 -0.234 -0.078 -0.234 -0.234c 0 -0.013 0.013 -0.052 0.026 -0.104c 0.104 -0.247 0.26 -0.468 0.481 -0.663h -1.573v -0.468h 1.573c -0.221 -0.195 -0.377 -0.416 -0.481 -0.663c -0.013 -0.052 -0.026 -0.091 -0.026 -0.104c 0 -0.156 0.078 -0.234 0.234 -0.234c 0.104 0 0.182 0.052 0.221 0.143c 0.195 0.429 0.533 0.728 0.988 0.871Z "/></symbol><symbol id="g40250C3693DC0DFD75B60E230F9F53E2" overflow="visible"><path d="M 0 0m 10.452 8.84c -0.273 0 -1.157 0.039 -1.43 0.039c -0.195 0 -0.299 -0.104 -0.299 -0.312c 0 -0.104 0.091 -0.169 0.273 -0.208c 0.182 -0.039 0.286 -0.104 0.286 -0.195c 0 -0.143 -0.143 -0.338 -0.442 -0.559l -4.914 -3.757l 1.001 3.978c 0.065 0.273 0.182 0.442 0.351 0.507c 0.078 0.026 0.299 0.039 0.676 0.039c 0.338 0 0.494 0 0.494 0.312c 0 0.13 -0.078 0.195 -0.234 0.195l -1.651 -0.039l -1.664 0.039c -0.208 0.013 -0.312 -0.091 -0.312 -0.299c 0 -0.143 0.143 -0.208 0.429 -0.208c 0.26 0 0.793 0.039 0.793 -0.169c 0 -0.026 -0.013 -0.104 -0.052 -0.234l -1.729 -6.903c -0.065 -0.286 -0.195 -0.455 -0.39 -0.52c -0.091 -0.026 -0.325 -0.039 -0.728 -0.039c -0.286 0 -0.416 -0.026 -0.416 -0.299c 0 -0.143 0.078 -0.208 0.247 -0.208l 1.638 0.039l 0.819 -0.013c 0.143 0 0.689 -0.026 0.832 -0.026c 0.208 0 0.312 0.104 0.312 0.312c 0 0.13 -0.13 0.195 -0.403 0.195c -0.533 0 -0.793 0.052 -0.793 0.169c 0 0.065 0.039 0.26 0.117 0.559l 0.507 2.002l 1.859 1.43l 1.469 -3.393c 0.091 -0.221 0.143 -0.364 0.143 -0.429c 0 -0.221 -0.208 -0.338 -0.611 -0.338c -0.234 0 -0.338 -0.052 -0.338 -0.312c 0 -0.13 0.078 -0.195 0.234 -0.195c 0.286 0 1.274 0.039 1.56 0.039c 0.247 0 1.027 -0.039 1.274 -0.039c 0.182 0 0.273 0.104 0.273 0.312c 0 0.117 -0.104 0.182 -0.299 0.195c -0.533 0 -0.663 0.143 -0.845 0.546l -1.833 4.199c -0.013 0.065 -0.039 0.117 -0.052 0.156l 2.6 2.002c 0.637 0.494 1.183 0.793 1.625 0.897c 0.312 0.052 0.728 0.039 0.728 0.377c 0 0.13 -0.065 0.195 -0.195 0.195c -0.182 0 -0.728 -0.039 -0.91 -0.039Z "/></symbol><symbol id="g57F18D900CF55D9A01A5ED40C5665877" overflow="visible"><path d="M 0 0m 7.67 7.813c 0.117 0.039 0.169 0.104 0.169 0.221c 0 0.117 -0.052 0.182 -0.169 0.221c -0.455 0.143 -0.793 0.442 -1.001 0.871c -0.039 0.091 -0.117 0.143 -0.221 0.143c -0.169 0 -0.247 -0.078 -0.247 -0.234c 0 -0.013 0.013 -0.052 0.026 -0.104c 0.117 -0.247 0.273 -0.468 0.494 -0.663h -5.746c -0.169 0 -0.247 -0.078 -0.247 -0.234c 0 -0.156 0.078 -0.234 0.247 -0.234h 5.746c -0.221 -0.195 -0.377 -0.416 -0.494 -0.663c -0.013 -0.052 -0.026 -0.091 -0.026 -0.104c 0 -0.156 0.078 -0.234 0.247 -0.234c 0.104 0 0.182 0.052 0.221 0.143c 0.208 0.429 0.546 0.728 1.001 0.871Z "/></symbol><symbol id="g5AAD6B38658AAA3198C014B3B7995D3E" overflow="visible"><path d="M 0 0m 6.981 1.781c -0.299 -1.027 -0.728 -1.547 -1.261 -1.547c -0.169 0 -0.26 0.13 -0.26 0.377c 0 0.182 0.078 0.481 0.234 0.884c 0.52 1.417 0.78 2.353 0.78 2.834c 0 0.91 -0.611 1.417 -1.521 1.417c -0.767 0 -1.43 -0.338 -1.963 -1.027c -0.104 0.572 -0.559 1.027 -1.222 1.027c -0.728 0 -1.014 -0.676 -1.196 -1.261c -0.13 -0.416 -0.195 -0.663 -0.195 -0.754c 0 -0.117 0.065 -0.182 0.208 -0.182c 0.065 0 0.104 0.013 0.143 0.039c 0.065 0.117 0.104 0.208 0.117 0.299c 0.234 0.988 0.533 1.482 0.884 1.482c 0.234 0 0.351 -0.182 0.351 -0.546c 0 -0.169 -0.065 -0.52 -0.208 -1.053l -0.741 -2.951c -0.039 -0.169 -0.117 -0.507 -0.117 -0.572c 0 -0.26 0.143 -0.39 0.429 -0.39c 0.247 0 0.429 0.13 0.52 0.39c 0.026 0.065 0.104 0.39 0.247 0.949l 0.273 1.157l 0.39 1.482c 0.143 0.299 0.364 0.598 0.637 0.91c 0.377 0.416 0.845 0.624 1.404 0.624c 0.429 0 0.637 -0.286 0.637 -0.845c 0 -0.494 -0.273 -1.482 -0.832 -2.964c -0.091 -0.234 -0.13 -0.429 -0.13 -0.598c 0 -0.637 0.481 -1.105 1.105 -1.105c 0.572 0 1.027 0.325 1.352 0.975c 0.247 0.52 0.377 0.871 0.377 1.04c 0 0.117 -0.065 0.182 -0.208 0.182c -0.039 0 -0.234 -0.117 -0.234 -0.273Z "/></symbol><symbol id="g5B90E9196699B0DF3EE96BEA297F231B" overflow="visible"><path d="M 0 0m 5.018 6.695l 0.221 0.234l -1.989 2.093l -1.989 -2.093l 0.221 -0.234l 1.768 1.339Z "/></symbol></defs></svg>