<svg viewBox="0 0 381.359766667 23.504" width="381.359766667pt" height="23.504pt" xmlns="http://www.w3.org/2000/svg" xmlns:xlink="http://www.w3.org/1999/xlink" xmlns:h5="http://www.w3.org/1999/xhtml"><g transform="matrix(1 0 0 -1 6.5 16.211)"><use xlink:href="#g40250C3693DC0DFD75B60E230F9F53E2" x="0" y="0" fill="#e6edf3" fill-rule="nonzero"/></g><g transform="matrix(1 0 0 -1 9.3015 13.169)"><use xlink:href="#g57F18D900CF55D9A01A5ED40C5665877" x="0" y="0" fill="#e6edf3" fill-rule="nonzero"/></g><g transform="matrix(1 0 0 -1 17.537 19.422)"><use xlink:href="#g101A15221A0EE003755D1DFBD155057" x="0" y="0" fill="#e6edf3" fill-rule="nonzero"/></g><g transform="matrix(1 0 0 -1 31.103511111 16.211)"><use xlink:href="#g13AFF74D87C474CFAF661EEAD0458F8B" x="0" y="0" fill="#e6edf3" fill-rule="nonzero"/></g><g transform="matrix(1 0 0 -1 44.828622222 16.211)"><use xlink:href="#g35B4FBA1E2C6B292D79BD0F4F0E600B8" x="0" y="0" fill="#e6edf3" fill-rule="nonzero"/></g><g transform="matrix(1 0 0 -1 45.985622222 13.182)"><use xlink:href="#g6A78CAAF56C04D0BAE1AD9D27244E736" x="0" y="0" fill="#e6edf3" fill-rule="nonzero"/><use xlink:href="#g6A658C14ECD274003A3345FA4D90D1A3" x="2.386346999" y="0" fill="#e6edf3" fill-rule="nonzero"/><use xlink:href="#g6A658C14ECD274003A3345FA4D90D1A3" x="3.862808199" y="0" fill="#e6edf3" fill-rule="nonzero"/><use xlink:href="#g6A658C14ECD274003A3345FA4D90D1A3" x="5.3392694" y="0" fill="#e6edf3" fill-rule="nonzero"/><use xlink:href="#g6A658C14ECD274003A3345FA4D90D1A3" x="6.8157306" y="0" fill="#e6edf3" fill-rule="nonzero"/><use xlink:href="#g6A658C14ECD274003A3345FA4D90D1A3" x="8.292191801" y="0" fill="#e6edf3" fill-rule="nonzero"/><use xlink:href="#g6A658C14ECD274003A3345FA4D90D1A3" x="9.768653001" y="0" fill="#e6edf3" fill-rule="nonzero"/><use xlink:href="#gD07B3A091BC0675D761F91A53E2AE192" x="11.271" y="0" fill="#e6edf3" fill-rule="nonzero"/></g><g transform="matrix(1 0 0 -1 61.653511111 16.211)"><use xlink:href="#g596E6AE655F7C550875F3D7A9A58D2C7" x="0" y="0" fill="#e6edf3" fill-rule="nonzero"/></g><g transform="matrix(1 0 0 -1 74.6564 16.211)"><use xlink:href="#gF894C2D74D7097E9F8A03474A816F1E2" x="0" y="0" fill="#e6edf3" fill-rule="nonzero"/></g><g transform="matrix(1 0 0 -1 76.0084 16.211)"><use xlink:href="#g5B90E9196699B0DF3EE96BEA297F231B" x="0" y="0" fill="#e6edf3" fill-rule="nonzero"/></g><g transform="matrix(1 0 0 -1 85.157511111 16.211)"><use xlink:href="#g13AFF74D87C474CFAF661EEAD0458F8B" x="0" y="0" fill="#e6edf3" fill-rule="nonzero"/></g><g transform="matrix(1 0 0 -1 98.882622222 16.211)"><use xlink:href="#g35B4FBA1E2C6B292D79BD0F4F0E600B8" x="0" y="0" fill="#e6edf3" fill-rule="nonzero"/></g><g transform="matrix(1 0 0 -1 111.492622222 19.422)"><use xlink:href="#g66C287F757172C4FBEE46C9B113A6E1F" x="0" y="0" fill="#e6edf3" fill-rule="nonzero"/></g><g transform="matrix(1 0 0 -1 117.398522222 16.211)"><use xlink:href="#gA6F2C1D597D3EC5A6DEDB5B511CF0779" x="0" y="0" fill="#e6edf3" fill-rule="nonzero"/></g><g transform="matrix(1 0 0 -1 118.425522222 16.211)"><use xlink:href="#g5B90E9196699B0DF3EE96BEA297F231B" x="0" y="0" fill="#e6edf3" fill-rule="nonzero"/></g><g transform="matrix(1 0 0 -1 127.723411111 16.211)"><use xlink:href="#g596E6AE655F7C550875F3D7A9A58D2C7" x="0" y="0" fill="#e6edf3" fill-rule="nonzero"/></g><g transform="matrix(1 0 0 -1 140.7263 16.211)"><use xlink:href="#gF894C2D74D7097E9F8A03474A816F1E2" x="0" y="0" fill="#e6edf3" fill-rule="nonzero"/></g><g transform="matrix(1 0 0 -1 142.0783 16.211)"><use xlink:href="#g5B90E9196699B0DF3EE96BEA297F231B" x="0" y="0" fill="#e6edf3" fill-rule="nonzero"/></g><g transform="matrix(1 0 0 -1 151.227411111 16.211)"><use xlink:href="#g13AFF74D87C474CFAF661EEAD0458F8B" x="0" y="0" fill="#e6edf3" fill-rule="nonzero"/></g><g transform="matrix(1 0 0 -1 164.952522222 16.211)"><use xlink:href="#g35B4FBA1E2C6B292D79BD0F4F0E600B8" x="0" y="0" fill="#e6edf3" fill-rule="nonzero"/></g><g transform="matrix(1 0 0 -1 177.562522222 19.422)"><use xlink:href="#g66C287F757172C4FBEE46C9B113A6E1F" x="0" y="0" fill="#e6edf3" fill-rule="nonzero"/></g><g transform="matrix(1 0 0 -1 183.468422222 16.211)"><use xlink:href="#g2D7122AD31FABF41BED931716B883F58" x="0" y="0" fill="#e6edf3" fill-rule="nonzero"/></g><g transform="matrix(1 0 0 -1 188.525422222 16.211)"><use xlink:href="#g8B273DA24598714A1DE03FD5302C001A" x="0" y="0" fill="#e6edf3" fill-rule="nonzero"/><use xlink:href="#g5D4DFCA3C00979A1E9076032CC813B65" x="5.772" y="0" fill="#e6edf3" fill-rule="nonzero"/><use xlink:href="#gFD7B4B4FA231C83EBA33EE1F285F6134" x="12.272" y="0" fill="#e6edf3" fill-rule="nonzero"/></g><g transform="matrix(1 0 0 -1 208.086088889 16.211)"><use xlink:href="#gCD11787F63AFA6F24E21FEAF474C7C55" x="0" y="0" fill="#e6edf3" fill-rule="nonzero"/></g><g transform="matrix(1 0 0 -1 216.588088889 16.211)"><use xlink:href="#gF894C2D74D7097E9F8A03474A816F1E2" x="0" y="0" fill="#e6edf3" fill-rule="nonzero"/></g><g transform="matrix(1 0 0 -1 217.940088889 16.211)"><use xlink:href="#g5B90E9196699B0DF3EE96BEA297F231B" x="0" y="0" fill="#e6edf3" fill-rule="nonzero"/></g><g transform="matrix(1 0 0 -1 226.366977778 16.211)"><use xlink:href="#g9B543B57F718853EF8F95EF155B6CF69" x="0" y="0" fill="#e6edf3" fill-rule="nonzero"/></g><g transform="matrix(1 0 0 -1 239.369866667 16.211)"><use xlink:href="#gFD7B4B4FA231C83EBA33EE1F285F6134" x="0" y="0" fill="#e6edf3" fill-rule="nonzero"/><use xlink:href="#g49CA9B429DF3D7281052206316ECCC8A" x="5.122" y="0" fill="#e6edf3" fill-rule="nonzero"/><use xlink:href="#gA2276AEFE9378953E87817A497BFC175" x="8.736" y="0" fill="#e6edf3" fill-rule="nonzero"/></g><g transform="matrix(1 0 0 -1 257.500533333 16.211)"><use xlink:href="#gCD11787F63AFA6F24E21FEAF474C7C55" x="0" y="0" fill="#e6edf3" fill-rule="nonzero"/></g><g transform="matrix(1 0 0 -1 266.002533333 16.211)"><use xlink:href="#gCD11787F63AFA6F24E21FEAF474C7C55" x="0" y="0" fill="#e6edf3" fill-rule="nonzero"/></g><g transform="matrix(1 0 0 -1 267.367533333 16.211)"><use xlink:href="#g5B90E9196699B0DF3EE96BEA297F231B" x="0" y="0" fill="#e6edf3" fill-rule="nonzero"/></g><g transform="matrix(1 0 0 -1 274.504533333 16.211)"><use xlink:href="#g2F93E6EEEE2061842AA37F49EEA2F1A2" x="0" y="0" fill="#e6edf3" fill-rule="nonzero"/></g><g transform="matrix(1 0 0 -1 282.450422222 16.211)"><use xlink:href="#g596E6AE655F7C550875F3D7A9A58D2C7" x="0" y="0" fill="#e6edf3" fill-rule="nonzero"/></g><g transform="matrix(1 0 0 -1 295.453311111 16.211)"><use xlink:href="#gF894C2D74D7097E9F8A03474A816F1E2" x="0" y="0" fill="#e6edf3" fill-rule="nonzero"/></g><g transform="matrix(1 0 0 -1 296.805311111 16.211)"><use xlink:href="#g5B90E9196699B0DF3EE96BEA297F231B" x="0" y="0" fill="#e6edf3" fill-rule="nonzero"/></g><g transform="matrix(1 0 0 -1 305.954422222 16.211)"><use xlink:href="#g13AFF74D87C474CFAF661EEAD0458F8B" x="0" y="0" fill="#e6edf3" fill-rule="nonzero"/></g><g transform="matrix(1 0 0 -1 319.679533333 16.211)"><use xlink:href="#g35B4FBA1E2C6B292D79BD0F4F0E600B8" x="0" y="0" fill="#e6edf3" fill-rule="nonzero"/></g><g transform="matrix(1 0 0 -1 332.289533333 19.422)"><use xlink:href="#g66C287F757172C4FBEE46C9B113A6E1F" x="0" y="0" fill="#e6edf3" fill-rule="nonzero"/></g><g transform="matrix(1 0 0 -1 340.3621 16.211)"><use xlink:href="#g8B273DA24598714A1DE03FD5302C001A" x="0" y="0" fill="#e6edf3" fill-rule="nonzero"/><use xlink:href="#g5D4DFCA3C00979A1E9076032CC813B65" x="5.772" y="0" fill="#e6edf3" fill-rule="nonzero"/><use xlink:href="#gFD7B4B4FA231C83EBA33EE1F285F6134" x="12.272" y="0" fill="#e6edf3" fill-rule="nonzero"/></g><g transform="matrix(1 0 0 -1 359.922766667 16.211)"><use xlink:href="#gCD11787F63AFA6F24E21FEAF474C7C55" x="0" y="0" fill="#e6edf3" fill-rule="nonzero"/></g><g transform="matrix(1 0 0 -1 368.424766667 16.211)"><use xlink:href="#gB7560AD8DFDE075CC650DFC2ACE08502" x="0" y="0" fill="#e6edf3" fill-rule="nonzero"/></g><g transform="matrix(1 0 0 -1 369.542766667 16.211)"><use xlink:href="#g5B90E9196699B0DF3EE96BEA297F231B" x="0" y="0" fill="#e6edf3" fill-rule="nonzero"/></g><defs><symbol id="g40250C3693DC0DFD75B60E230F9F53E2" overflow="visible"><path d="M 0 0m 10.452 8.84c -0.273 0 -1.157 0.039 -1.43 0.039c -0.195 0 -0.299 -0.104 -0.299 -0.312c 0 -0.104 0.091 -0.169 0.273 -0.208c 0.182 -0.039 0.286 -0.104 0.286 -0.195c 0 -0.143 -0.143 -0.338 -0.442 -0.559l -4.914 -3.757l 1.001 3.978c 0.065 0.273 0.182 0.442 0.351 0.507c 0.078 0.026 0.299 0.039 0.676 0.039c 0.338 0 0.494 0 0.494 0.312c 0 0.13 -0.078 0.195 -0.234 0.195l -1.651 -0.039l -1.664 0.039c -0.208 0.013 -0.312 -0.091 -0.312 -0.299c 0 -0.143 0.143 -0.208 0.429 -0.208c 0.26 0 0.793 0.039 0.793 -0.169c 0 -0.026 -0.013 -0.104 -0.052 -0.234l -1.729 -6.903c -0.065 -0.286 -0.195 -0.455 -0.39 -0.52c -0.091 -0.026 -0.325 -0.039 -0.728 -0.039c -0.286 0 -0.416 -0.026 -0.416 -0.299c 0 -0.143 0.078 -0.208 0.247 -0.208l 1.638 0.039l 0.819 -0.013c 0.143 0 0.689 -0.026 0.832 -0.026c 0.208 0 0.312 0.104 0.312 0.312c 0 0.13 -0.13 0.195 -0.403 0.195c -0.533 0 -0.793 0.052 -0.793 0.169c 0 0.065 0.039 0.26 0.117 0.559l 0.507 2.002l 1.859 1.43l 1.469 -3.393c 0.091 -0.221 0.143 -0.364 0.143 -0.429c 0 -0.221 -0.208 -0.338 -0.611 -0.338c -0.234 0 -0.338 -0.052 -0.338 -0.312c 0 -0.13 0.078 -0.195 0.234 -0.195c 0.286 0 1.274 0.039 1.56 0.039c 0.247 0 1.027 -0.039 1.274 -0.039c 0.182 0 0.273 0.104 0.273 0.312c 0 0.117 -0.104 0.182 -0.299 0.195c -0.533 0 -0.663 0.143 -0.845 0.546l -1.833 4.199c -0.013 0.065 -0.039 0.117 -0.052 0.156l 2.6 2.002c 0.637 0.494 1.183 0.793 1.625 0.897c 0.312 0.052 0.728 0.039 0.728 0.377c 0 0.13 -0.065 0.195 -0.195 0.195c -0.182 0 -0.728 -0.039 -0.91 -0.039Z "/></symbol><symbol id="g57F18D900CF55D9A01A5ED40C5665877" overflow="visible"><path d="M 0 0m 7.67 7.813c 0.117 0.039 0.169 0.104 0.169 0.221c 0 0.117 -0.052 0.182 -0.169 0.221c -0.455 0.143 -0.793 0.442 -1.001 0.871c -0.039 0.091 -0.117 0.143 -0.221 0.143c -0.169 0 -0.247 -0.078 -0.247 -0.234c 0 -0.013 0.013 -0.052 0.026 -0.104c 0.117 -0.247 0.273 -0.468 0.494 -0.663h -5.746c -0.169 0 -0.247 -0.078 -0.247 -0.234c 0 -0.156 0.078 -0.234 0.247 -0.234h 5.746c -0.221 -0.195 -0.377 -0.416 -0.494 -0.663c -0.013 -0.052 -0.026 -0.091 -0.026 -0.104c 0 -0.156 0.078 -0.234 0.247 -0.234c 0.104 0 0.182 0.052 0.221 0.143c 0.208 0.429 0.546 0.728 1.001 0.871Z "/></symbol><symbol id="g101A15221A0EE003755D1DFBD155057" overflow="visible"><path d="M 0 0m 1.5015 4.0131c -0.3003 0 -0.5551 -0.1638 -0.7462 -0.5005c -0.1274 -0.2275 -0.2275 -0.4641 -0.2912 -0.728c -0.0273 -0.1001 -0.0364 -0.1547 -0.0364 -0.1729c 0 -0.1001 0.0637 -0.1547 0.1911 -0.1547c 0.1729 0 0.182 0.1001 0.2275 0.2912c 0.1547 0.6279 0.364 0.9464 0.6279 0.9464c 0.1729 0 0.2639 -0.1365 0.2639 -0.4095c 0 -0.1001 -0.0455 -0.3367 -0.1456 -0.728l -0.4914 -1.9474c -0.0637 -0.2457 -0.091 -0.3731 -0.091 -0.3822c 0 -0.2093 0.1183 -0.3185 0.3458 -0.3185c 0.1729 0 0.3003 0.0728 0.3822 0.2184c 0.0273 0.0546 0.0819 0.2457 0.1638 0.5642l 0.2002 0.8008c 0.1092 0.4277 0.1729 0.6643 0.1911 0.7189c 0.0728 0.2366 0.182 0.4641 0.3367 0.6734c 0.3822 0.5369 0.8281 0.8099 1.3286 0.8099c 0.3276 0 0.4914 -0.2002 0.4914 -0.5915c 0 -0.1547 -0.0546 -0.4277 -0.1547 -0.8372l -0.3731 -1.5015c -0.0819 -0.3367 -0.1274 -0.5096 -0.1274 -0.5369c 0 -0.2093 0.1092 -0.3185 0.3367 -0.3185c 0.1729 0 0.3094 0.0728 0.3913 0.2184c 0.0273 0.0546 0.0819 0.2457 0.1638 0.5642l 0.2002 0.8008c 0.1456 0.5642 0.1729 0.9009 0.4277 1.2649c 0.4095 0.6279 0.8736 0.9373 1.4105 0.9373c 0.3276 0 0.4914 -0.2002 0.4914 -0.5915c 0 -0.3549 -0.1729 -0.9828 -0.5278 -1.8928c -0.091 -0.2366 -0.1365 -0.4004 -0.1365 -0.5005c 0 -0.4914 0.4004 -0.8008 0.8918 -0.8008c 0.4368 0 0.7826 0.2184 1.0283 0.6552c 0.2093 0.3731 0.3094 0.6188 0.3094 0.7462c 0 0.1001 -0.0637 0.1547 -0.182 0.1547c -0.0637 -0.0091 -0.1547 -0.0819 -0.2093 -0.182c -0.2093 -0.7007 -0.5096 -1.0556 -0.9191 -1.0556c -0.1274 0 -0.1911 0.091 -0.1911 0.2821c 0 0.1274 0.0728 0.364 0.2093 0.7098c 0.3185 0.8099 0.4823 1.3923 0.4823 1.7381c 0 0.7007 -0.4004 1.0556 -1.2103 1.0556c -0.5915 0 -1.1102 -0.2821 -1.5743 -0.8463c -0.091 0.5642 -0.4914 0.8463 -1.1921 0.8463c -0.5915 0 -1.092 -0.2548 -1.5015 -0.7644c -0.0819 0.4459 -0.4732 0.7644 -0.9919 0.7644Z "/></symbol><symbol id="g13AFF74D87C474CFAF661EEAD0458F8B" overflow="visible"><path d="M 0 0m 9.074 4.771h -8.034c -0.208 0 -0.312 -0.104 -0.312 -0.299c 0 -0.195 0.104 -0.299 0.312 -0.299h 8.034c 0.208 0 0.312 0.104 0.312 0.299c 0 0.156 -0.143 0.299 -0.312 0.299Z m 0 -2.444h -8.034c -0.208 0 -0.312 -0.104 -0.312 -0.299c 0 -0.195 0.104 -0.299 0.312 -0.299h 8.034c 0.208 0 0.312 0.104 0.312 0.299c 0 0.169 -0.143 0.299 -0.312 0.299Z "/></symbol><symbol id="g35B4FBA1E2C6B292D79BD0F4F0E600B8" overflow="visible"><path d="M 0 0m 7.722 0.208c 0 -0.143 0.078 -0.208 0.247 -0.208l 1.599 0.039c 0.299 0.013 1.352 -0.039 1.599 -0.039c 0.195 0 0.299 0.104 0.299 0.312c 0 0.13 -0.13 0.195 -0.403 0.195c -0.533 0 -0.793 0.052 -0.793 0.169c 0 0.039 0.026 0.13 0.065 0.299l 1.716 6.851c 0.065 0.273 0.195 0.442 0.364 0.507c 0.078 0.026 0.312 0.039 0.689 0.039c 0.325 0 0.468 0.013 0.468 0.312c 0 0.13 -0.13 0.195 -0.403 0.195h -1.703c -0.377 0 -0.377 -0.026 -0.546 -0.273l -4.628 -7.202l -0.988 7.137c -0.052 0.325 -0.078 0.338 -0.455 0.338h -1.768c -0.286 0 -0.429 -0.013 -0.429 -0.299c 0 -0.143 0.143 -0.208 0.416 -0.208c 0.26 0 0.793 0.039 0.793 -0.169c 0 -0.026 -0.013 -0.104 -0.052 -0.234l -1.638 -6.539c -0.117 -0.494 -0.416 -0.793 -0.871 -0.884c -0.325 -0.039 -0.754 0.013 -0.754 -0.338c 0 -0.143 0.078 -0.208 0.234 -0.208c 0.234 0 1.053 0.039 1.287 0.039c 0.247 0 1.079 -0.039 1.326 -0.039c 0.195 0 0.286 0.104 0.286 0.312c 0 0.117 -0.091 0.182 -0.286 0.195c -0.546 0 -0.819 0.169 -0.819 0.507c 0 0.052 0.013 0.143 0.052 0.286l 1.69 6.773l 1.079 -7.735c 0.039 -0.221 0.117 -0.338 0.247 -0.338c 0.104 0 0.208 0.091 0.325 0.26l 5.057 7.891l -1.768 -7.085c -0.078 -0.286 -0.208 -0.455 -0.403 -0.52c -0.078 -0.026 -0.325 -0.039 -0.728 -0.039c -0.273 0 -0.403 -0.026 -0.403 -0.299Z "/></symbol><symbol id="g6A78CAAF56C04D0BAE1AD9D27244E736" overflow="visible"><path d="M 0 0m 0.234 7.8h 2.431v 0.468h -2.431c -0.156 0 -0.234 -0.104 -0.234 -0.234c 0 -0.13 0.078 -0.234 0.234 -0.234Z "/></symbol><symbol id="g6A658C14ECD274003A3345FA4D90D1A3" overflow="visible"><path d="M 0 0m 0 7.8h 1.781v 0.468h -1.781Z "/></symbol><symbol id="gD07B3A091BC0675D761F91A53E2AE192" overflow="visible"><path d="M 0 0m 2.509 7.813c 0.104 0.039 0.156 0.104 0.156 0.221c 0 0.117 -0.052 0.182 -0.156 0.221c -0.455 0.143 -0.793 0.442 -0.988 0.871c -0.039 0.091 -0.117 0.143 -0.221 0.143c -0.156 0 -0.234 -0.078 -0.234 -0.234c 0 -0.013 0.013 -0.052 0.026 -0.104c 0.104 -0.247 0.26 -0.468 0.481 -0.663h -1.573v -0.468h 1.573c -0.221 -0.195 -0.377 -0.416 -0.481 -0.663c -0.013 -0.052 -0.026 -0.091 -0.026 -0.104c 0 -0.156 0.078 -0.234 0.234 -0.234c 0.104 0 0.182 0.052 0.221 0.143c 0.195 0.429 0.533 0.728 0.988 0.871Z "/></symbol><symbol id="g596E6AE655F7C550875F3D7A9A58D2C7" overflow="visible"><path d="M 0 0m 8.19 0.416c 0 0.091 -0.026 0.156 -0.091 0.221l -2.613 2.613l 2.613 2.613c 0.065 0.065 0.091 0.13 0.091 0.221c 0 0.169 -0.13 0.299 -0.299 0.299c -0.091 0 -0.156 -0.026 -0.221 -0.091l -2.613 -2.613l -2.613 2.613c -0.065 0.065 -0.13 0.091 -0.221 0.091c -0.169 0 -0.299 -0.13 -0.299 -0.299c 0 -0.091 0.026 -0.156 0.091 -0.221l 2.613 -2.613l -2.613 -2.613c -0.065 -0.065 -0.091 -0.13 -0.091 -0.221c 0 -0.169 0.13 -0.299 0.299 -0.299c 0.091 0 0.156 0.026 0.221 0.091l 2.613 2.613l 2.613 -2.613c 0.065 -0.065 0.13 -0.091 0.221 -0.091c 0.169 0 0.299 0.13 0.299 0.299Z "/></symbol><symbol id="gF894C2D74D7097E9F8A03474A816F1E2" overflow="visible"><path d="M 0 0m 4.693 5.746c -1.469 0 -2.691 -1.586 -3.016 -2.886l -1.248 -5.057c -0.026 -0.104 -0.039 -0.169 -0.039 -0.208c 0 -0.273 0.13 -0.403 0.403 -0.403c 0.195 0 0.364 0.104 0.494 0.299l 0.793 3.107c 0.299 -0.507 0.715 -0.767 1.248 -0.767c 0.858 0 1.612 0.416 2.275 1.261c 0.611 0.793 0.923 1.638 0.923 2.509c 0 1.183 -0.689 2.145 -1.833 2.145Z m -0.026 -0.39c 0.559 0 0.832 -0.403 0.832 -1.209c 0 -0.351 -0.078 -0.806 -0.221 -1.391c -0.286 -1.105 -0.689 -1.846 -1.196 -2.236c -0.273 -0.208 -0.52 -0.312 -0.767 -0.312c -0.247 0 -0.468 0.091 -0.637 0.26c -0.273 0.273 -0.403 0.559 -0.403 0.832c 0.013 0.091 0.039 0.247 0.091 0.468c 0.299 1.235 0.559 2.028 0.767 2.392c 0.455 0.793 0.962 1.196 1.534 1.196Z "/></symbol><symbol id="g5B90E9196699B0DF3EE96BEA297F231B" overflow="visible"><path d="M 0 0m 5.018 6.695l 0.221 0.234l -1.989 2.093l -1.989 -2.093l 0.221 -0.234l 1.768 1.339Z "/></symbol><symbol id="g66C287F757172C4FBEE46C9B113A6E1F" overflow="visible"><path d="M 0 0m 4.6956 2.9029c 0 1.0283 -0.182 1.8109 -0.5369 2.3478c -0.2912 0.455 -0.8736 0.7917 -1.5743 0.7917c -0.2912 0 -0.5551 -0.0455 -0.7826 -0.1456c -1.001 -0.4186 -1.3286 -1.5834 -1.3286 -2.9939c 0 -0.3094 0.0182 -0.6006 0.0455 -0.8827c 0.1547 -1.1921 0.7098 -2.2022 2.0657 -2.2022c 0.2912 0 0.5551 0.0455 0.7826 0.1456c 1.001 0.4095 1.3286 1.547 1.3286 2.9393Z m -1.0374 2.0202c 0.1001 -0.3367 0.1547 -0.9646 0.1547 -1.9019c 0 -0.8918 -0.0364 -1.5197 -0.1183 -1.8928c -0.1092 -0.5369 -0.4914 -0.9828 -1.1102 -0.9828c -0.2275 0 -0.455 0.0728 -0.6643 0.2275c -0.2821 0.2093 -0.455 0.6188 -0.5278 1.2467c -0.0273 0.2093 -0.0364 0.6734 -0.0364 1.4014c 0 0.8827 0.0455 1.4924 0.1365 1.82c 0.1547 0.5824 0.5187 0.8736 1.092 0.8736c 0.546 0 0.9464 -0.3549 1.0738 -0.7917Z "/></symbol><symbol id="gA6F2C1D597D3EC5A6DEDB5B511CF0779" overflow="visible"><path d="M 0 0m 6.851 4.849c 0 0.598 -0.585 0.897 -1.235 0.897c -0.559 0 -1.001 -0.299 -1.339 -0.897c -0.273 0.598 -0.728 0.897 -1.391 0.897c -0.637 0 -1.157 -0.299 -1.573 -0.884c -0.351 -0.507 -0.533 -0.884 -0.533 -1.131c 0 -0.117 0.065 -0.182 0.195 -0.182c 0.117 0 0.195 0.065 0.221 0.182c 0.247 0.754 0.793 1.638 1.664 1.638c 0.429 0 0.637 -0.273 0.637 -0.806c 0 -0.273 -0.234 -1.287 -0.689 -3.029c -0.221 -0.871 -0.611 -1.3 -1.17 -1.3c -0.182 0 -0.351 0.039 -0.494 0.104c 0.338 0.13 0.507 0.364 0.507 0.702c 0 0.338 -0.169 0.507 -0.52 0.507c -0.429 0 -0.754 -0.364 -0.754 -0.793c 0 -0.598 0.611 -0.897 1.248 -0.897c 0.546 0 0.988 0.299 1.339 0.897c 0.247 -0.598 0.715 -0.897 1.391 -0.897c 0.624 0 1.144 0.299 1.56 0.884c 0.351 0.507 0.533 0.884 0.533 1.131c 0 0.117 -0.065 0.182 -0.195 0.182c -0.117 0 -0.182 -0.065 -0.221 -0.182c -0.221 -0.741 -0.806 -1.638 -1.651 -1.638c -0.429 0 -0.65 0.26 -0.65 0.793c 0 0.169 0.065 0.533 0.208 1.118l 0.442 1.755c 0.247 0.975 0.65 1.469 1.222 1.469c 0.182 0 0.351 -0.039 0.494 -0.104c -0.351 -0.117 -0.52 -0.351 -0.52 -0.702c 0 -0.338 0.182 -0.507 0.533 -0.507c 0.416 0 0.741 0.377 0.741 0.793Z "/></symbol><symbol id="g2D7122AD31FABF41BED931716B883F58" overflow="visible"><path d="M 0 0m 4.134 -3.224c 0.117 0 0.182 0.065 0.182 0.182c 0 0.039 -0.026 0.091 -0.065 0.143c -0.676 0.52 -1.222 1.378 -1.625 2.561c -0.351 1.027 -0.533 2.041 -0.533 3.042v 1.092c 0 1.001 0.182 2.015 0.533 3.042c 0.403 1.183 0.949 2.041 1.625 2.561c 0.039 0.039 0.065 0.091 0.065 0.143c 0 0.117 -0.065 0.182 -0.182 0.182c -0.013 0 -0.052 -0.013 -0.091 -0.039c -0.78 -0.598 -1.43 -1.482 -1.963 -2.665c -0.507 -1.131 -0.767 -2.197 -0.767 -3.224v -1.092c 0 -1.027 0.26 -2.093 0.767 -3.224c 0.533 -1.183 1.183 -2.067 1.963 -2.665c 0.039 -0.026 0.078 -0.039 0.091 -0.039Z "/></symbol><symbol id="g8B273DA24598714A1DE03FD5302C001A" overflow="visible"><path d="M 0 0m 3.263 5.408c 0.546 0 0.962 -0.13 1.248 -0.39c -0.312 -0.039 -0.533 -0.325 -0.533 -0.624c 0 -0.429 0.208 -0.637 0.637 -0.637c 0.429 0 0.637 0.221 0.637 0.65c 0 0.923 -1.001 1.417 -2.002 1.417c -0.806 0 -1.469 -0.286 -2.002 -0.884c -0.533 -0.598 -0.806 -1.313 -0.806 -2.132c 0 -0.793 0.273 -1.495 0.806 -2.08c 0.533 -0.585 1.183 -0.871 1.976 -0.871c 0.65 0 1.157 0.182 1.521 0.559c 0.299 0.299 0.494 0.598 0.598 0.91c 0.039 0.117 0.052 0.195 0.052 0.247c 0 0.117 -0.078 0.169 -0.221 0.169c -0.104 0 -0.169 -0.052 -0.208 -0.156c -0.273 -0.871 -0.806 -1.313 -1.625 -1.313c -0.377 0 -0.741 0.169 -1.105 0.52c -0.429 0.403 -0.637 1.079 -0.637 2.041c 0 1.3 0.494 2.574 1.664 2.574Z "/></symbol><symbol id="g5D4DFCA3C00979A1E9076032CC813B65" overflow="visible"><path d="M 0 0m 3.237 -0.143c 0.806 0 1.482 0.286 2.041 0.858c 0.559 0.572 0.845 1.261 0.845 2.067c 0 0.819 -0.273 1.534 -0.819 2.132c -0.546 0.598 -1.235 0.91 -2.054 0.91c -0.819 0 -1.495 -0.312 -2.054 -0.91c -0.559 -0.598 -0.832 -1.313 -0.832 -2.132c 0 -0.806 0.273 -1.495 0.832 -2.067c 0.559 -0.572 1.248 -0.858 2.041 -0.858Z m 0.013 0.416c -0.624 0 -1.092 0.273 -1.417 0.832c -0.208 0.364 -0.312 0.962 -0.312 1.781c 0 0.793 0.104 1.365 0.299 1.729c 0.312 0.559 0.78 0.832 1.417 0.832c 0.611 0 1.079 -0.273 1.404 -0.806c 0.221 -0.364 0.325 -0.949 0.325 -1.755c 0 -1.508 -0.442 -2.613 -1.716 -2.613Z "/></symbol><symbol id="gFD7B4B4FA231C83EBA33EE1F285F6134" overflow="visible"><path d="M 0 0m 4.68 1.69c 0 0.988 -0.676 1.612 -2.015 1.872c -0.611 0.117 -1.001 0.26 -1.209 0.403c -0.208 0.143 -0.312 0.351 -0.312 0.598c 0 0.611 0.455 0.91 1.365 0.91c 0.884 0 1.365 -0.494 1.43 -1.495c 0.013 -0.104 0.078 -0.156 0.208 -0.156c 0.143 0 0.221 0.117 0.221 0.351v 1.287c 0 0.247 -0.065 0.364 -0.195 0.364c -0.143 0 -0.338 -0.234 -0.468 -0.338c -0.325 0.221 -0.728 0.338 -1.196 0.338c -1.157 0 -2.08 -0.52 -2.08 -1.625c 0 -0.442 0.182 -0.819 0.559 -1.118c 0.455 -0.377 0.884 -0.455 1.703 -0.598c 0.845 -0.169 1.274 -0.546 1.274 -1.131c 0 -0.741 -0.455 -1.118 -1.378 -1.118c -0.897 0 -1.469 0.598 -1.716 1.781c -0.039 0.169 -0.104 0.26 -0.221 0.26c -0.143 0 -0.221 -0.13 -0.221 -0.377v -1.677c 0 -0.247 0.065 -0.364 0.195 -0.364c 0.039 0 0.104 0.039 0.208 0.13c 0.234 0.208 0.13 0.169 0.364 0.403c 0.377 -0.351 0.845 -0.533 1.391 -0.533c 1.235 0 2.093 0.637 2.093 1.833Z "/></symbol><symbol id="gCD11787F63AFA6F24E21FEAF474C7C55" overflow="visible"><path d="M 0 0m 6.539 5.746c -0.221 0 -0.416 -0.039 -0.611 -0.104c -0.819 -0.273 -1.391 -1.079 -1.716 -1.82c -0.546 -1.209 -0.702 -1.703 -1.105 -3.068c -1.339 0.273 -2.015 0.884 -2.015 1.846c 0 0.871 0.611 2.132 1.04 2.626c 0.078 0.091 0.117 0.156 0.117 0.195c 0 0.117 -0.065 0.182 -0.208 0.182c -0.221 0 -0.507 -0.377 -0.858 -1.131c -0.351 -0.754 -0.533 -1.43 -0.533 -2.015c 0 -1.352 1.027 -2.21 2.21 -2.496l -0.663 -2.106c -0.052 -0.143 -0.078 -0.234 -0.078 -0.273c 0 -0.273 0.143 -0.416 0.429 -0.416c 0.247 0 0.416 0.13 0.52 0.377l 0.442 2.301c 0.143 -0.013 0.26 -0.013 0.377 -0.013c 1.066 0 2.015 0.416 2.873 1.248c 0.858 0.832 1.287 1.781 1.287 2.847c 0 1.014 -0.533 1.82 -1.508 1.82Z m 1.04 -2.106c 0 -0.819 -0.39 -1.534 -1.183 -2.145c -0.741 -0.546 -1.534 -0.819 -2.392 -0.819c -0.078 0 -0.156 0 -0.221 0.013c -0.078 0 -0.117 0 -0.117 -0.013c 0.195 1.027 0.312 1.638 0.364 1.82c 0.299 1.027 1.183 2.405 2.379 2.405c 0.728 0 1.17 -0.52 1.17 -1.261Z "/></symbol><symbol id="g9B543B57F718853EF8F95EF155B6CF69" overflow="visible"><path d="M 0 0m 9.074 3.51h -8.034c -0.208 0 -0.312 -0.091 -0.312 -0.26c 0 -0.169 0.104 -0.26 0.312 -0.26h 8.034c 0.208 0 0.312 0.091 0.312 0.26c 0 0.156 -0.156 0.26 -0.312 0.26Z "/></symbol><symbol id="g49CA9B429DF3D7281052206316ECCC8A" overflow="visible"><path d="M 0 0m 2.522 7.813c 0 0.39 -0.325 0.728 -0.715 0.728c -0.39 0 -0.728 -0.338 -0.728 -0.728c 0 -0.39 0.325 -0.741 0.715 -0.741c 0.403 0 0.728 0.338 0.728 0.741Z m -0.663 -7.774l 1.352 -0.039v 0.507c -0.429 0 -0.689 0.026 -0.767 0.078c -0.078 0.052 -0.104 0.195 -0.104 0.429v 4.771l -1.859 -0.156v -0.494c 0.429 0 0.702 -0.039 0.793 -0.104c 0.091 -0.065 0.13 -0.247 0.13 -0.546v -3.458c 0 -0.247 -0.039 -0.403 -0.13 -0.455c -0.091 -0.052 -0.377 -0.065 -0.845 -0.065v -0.507Z "/></symbol><symbol id="gA2276AEFE9378953E87817A497BFC175" overflow="visible"><path d="M 0 0m 4.082 5.369c 0.585 0 0.884 -0.455 0.884 -1.378v -2.964c 0 -0.247 -0.039 -0.403 -0.13 -0.455c -0.091 -0.052 -0.377 -0.078 -0.858 -0.078v -0.494l 1.495 0.039l 1.482 -0.039v 0.494c -0.416 0 -0.689 0.013 -0.819 0.052c -0.13 0.039 -0.182 0.13 -0.182 0.286v 2.431c 0 0.611 -0.013 1.04 -0.052 1.287c -0.13 0.793 -0.715 1.196 -1.742 1.196c -0.819 0 -1.43 -0.39 -1.833 -1.17v 1.17l -1.911 -0.143v -0.494c 0.468 0 0.754 -0.039 0.858 -0.117c 0.104 -0.078 0.143 -0.247 0.143 -0.546v -3.419c 0 -0.247 -0.052 -0.403 -0.143 -0.455c -0.091 -0.052 -0.377 -0.078 -0.858 -0.078v -0.494l 1.495 0.039l 1.482 -0.039v 0.494c -0.481 0 -0.754 0.026 -0.845 0.078c -0.091 0.052 -0.143 0.208 -0.143 0.455v 2.34c 0 1.053 0.663 2.002 1.677 2.002Z "/></symbol><symbol id="g2F93E6EEEE2061842AA37F49EEA2F1A2" overflow="visible"><path d="M 0 0m 1.014 -3.185c 0.78 0.598 1.43 1.482 1.963 2.665c 0.507 1.131 0.767 2.197 0.767 3.224v 1.092c 0 1.027 -0.26 2.093 -0.767 3.224c -0.533 1.183 -1.183 2.067 -1.963 2.665c -0.039 0.026 -0.078 0.039 -0.091 0.039c -0.117 0 -0.182 -0.065 -0.182 -0.182c 0 -0.052 0.026 -0.104 0.065 -0.143c 0.676 -0.52 1.222 -1.378 1.625 -2.561c 0.351 -1.027 0.533 -2.041 0.533 -3.042v -1.092c 0 -1.001 -0.182 -2.015 -0.533 -3.042c -0.403 -1.183 -0.949 -2.041 -1.625 -2.561c -0.039 -0.052 -0.065 -0.104 -0.065 -0.143c 0 -0.117 0.065 -0.182 0.182 -0.182c 0.013 0 0.052 0.013 0.091 0.039Z "/></symbol><symbol id="gB7560AD8DFDE075CC650DFC2ACE08502" overflow="visible"><path d="M 0 0m 2.106 1.196l -0.221 -0.026c 0.624 0.611 1.105 1.053 1.43 1.352l 1.248 1.157c 0.299 0.273 0.611 0.611 0.91 0.988c 0.403 0.494 0.598 0.793 0.598 0.897c 0 0.117 -0.065 0.182 -0.195 0.182c -0.091 0 -0.169 -0.052 -0.234 -0.169c -0.325 -0.533 -0.624 -0.793 -0.91 -0.793c -0.286 0 -0.494 0.234 -0.611 0.39c -0.312 0.377 -0.624 0.572 -0.923 0.572c -0.338 0 -0.689 -0.156 -1.053 -0.494c -0.364 -0.338 -0.546 -0.676 -0.546 -1.014c 0 -0.13 0.065 -0.195 0.208 -0.195c 0.091 0 0.169 0.065 0.221 0.182c 0.143 0.377 0.494 0.559 1.027 0.559c 0.182 0 0.442 -0.065 0.793 -0.182c 0.312 -0.117 0.611 -0.182 0.884 -0.195c -0.728 -0.715 -1.287 -1.235 -1.69 -1.586l -1.157 -1.079c -0.195 -0.195 -0.442 -0.455 -0.715 -0.78c -0.403 -0.507 -0.611 -0.806 -0.611 -0.923c 0 -0.117 0.065 -0.182 0.208 -0.182c 0.078 0 0.156 0.065 0.247 0.195c 0.325 0.507 0.676 0.767 1.04 0.767c 0.208 0 0.442 -0.156 0.702 -0.481c 0.26 -0.325 0.559 -0.481 0.858 -0.481c 0.442 0 0.884 0.234 1.352 0.689c 0.468 0.455 0.702 0.897 0.702 1.326c 0 0.117 -0.065 0.182 -0.208 0.182c -0.091 0 -0.169 -0.065 -0.234 -0.195c -0.195 -0.559 -0.754 -1.04 -1.482 -1.04c -0.312 0 -1.326 0.377 -1.638 0.377Z "/></symbol></defs></svg>