<svg viewBox="0 0 109.242322222 44.5705" width="109.242322222pt" height="44.5705pt" xmlns="http://www.w3.org/2000/svg" xmlns:xlink="http://www.w3.org/1999/xlink" xmlns:h5="http://www.w3.org/1999/xhtml"><g transform="matrix(1 0 0 -1 6.5 24.5583)"><use xlink:href="#gD83AEAE39B2D396ED26985CFF34A14A" x="0" y="0" fill="#e6edf3" fill-rule="nonzero"/></g><g transform="matrix(1 0 0 -1 24.099111111 24.5583)"><use xlink:href="#g13AFF74D87C474CFAF661EEAD0458F8B" x="0" y="0" fill="#e6edf3" fill-rule="nonzero"/></g><g transform="matrix(1 0 0 -1 37.824222222 24.5583)"><use xlink:href="#g9B543B57F718853EF8F95EF155B6CF69" x="0" y="0" fill="#e6edf3" fill-rule="nonzero"/></g><g transform="matrix(1 0 0 -1 50.104888889 24.5583)"><use xlink:href="#g84C597EFF9988624DBABE6CF17069247" x="0" y="0" fill="#e6edf3" fill-rule="nonzero"/></g><g transform="matrix(1 0 0 -1 63.091888889 10.1153)"><use xlink:href="#gB520C4FDFB2403295A40FD77402E9185" x="0" y="0" fill="#e6edf3" fill-rule="nonzero"/></g><g transform="matrix(1 0 0 -1 68.324388889 12.363)"><use xlink:href="#gC40F6BBE799648F1E6B2CF1543C3A89" x="0" y="0" fill="#e6edf3" fill-rule="nonzero"/></g><g transform="matrix(1 0 0 -1 57.241888889 38.3513)"><use xlink:href="#gB520C4FDFB2403295A40FD77402E9185" x="0" y="0" fill="#e6edf3" fill-rule="nonzero"/></g><g transform="matrix(1 0 0 -1 62.474388889 40.599)"><use xlink:href="#gC48B6A210272368C1F8FEAF9557822B5" x="0" y="0" fill="#e6edf3" fill-rule="nonzero"/></g><g transform="matrix(1 0 0 -1 76.408655556 24.5583)"><use xlink:href="#gAF39B06637020F254AB7B881282CA7F5" x="0" y="0" fill="#e6edf3" fill-rule="nonzero"/></g><g transform="matrix(1 0 0 -1 85.309322222 24.5583)"><use xlink:href="#g6BCCDCE0D843C0F823A4CE121D6D1649" x="0" y="0" fill="#e6edf3" fill-rule="nonzero"/></g><g transform="matrix(1 0 0 -1 92.381322222 24.5583)"><use xlink:href="#g53251C539233983FE9FC826CA7FBAC4A" x="0" y="0" fill="#e6edf3" fill-rule="nonzero"/></g><defs><symbol id="gD83AEAE39B2D396ED26985CFF34A14A" overflow="visible"><path d="M 0 0m 12.428 8.84c -0.247 0 -1.092 0.039 -1.339 0.039c -0.195 0 -0.299 -0.104 -0.299 -0.299c 0 -0.13 0.078 -0.195 0.234 -0.208c 0.481 -0.013 0.715 -0.156 0.715 -0.442c 0 -0.078 -0.052 -0.208 -0.156 -0.403l -3.406 -5.902l -0.455 6.201c -0.052 0.468 0.26 0.546 0.845 0.546c 0.273 0 0.403 0.104 0.403 0.312c 0 0.13 -0.078 0.195 -0.247 0.195c -0.286 0 -1.287 -0.039 -1.573 -0.039c -0.247 0 -1.105 0.039 -1.352 0.039c -0.195 0 -0.299 -0.104 -0.299 -0.312c 0 -0.13 0.117 -0.195 0.364 -0.195c 0.403 0 0.611 -0.091 0.624 -0.273l 0.078 -0.975l -3.172 -5.499l -0.468 6.344c -0.039 0.325 0.507 0.403 0.923 0.403c 0.221 0 0.325 0.104 0.325 0.312c 0 0.13 -0.078 0.195 -0.234 0.195c -0.286 0 -1.3 -0.039 -1.586 -0.039c -0.247 0 -1.105 0.039 -1.352 0.039c -0.195 0 -0.286 -0.104 -0.286 -0.299c 0 -0.143 0.13 -0.208 0.377 -0.208c 0.546 0 0.598 -0.026 0.624 -0.416l 0.585 -7.865c 0.013 -0.247 0.104 -0.377 0.26 -0.377c 0.169 0.026 0.234 0.065 0.338 0.26c 0.013 0.013 0.013 0.026 0.013 0.039l 3.705 6.409l 0.468 -6.331c 0.013 -0.247 0.104 -0.377 0.26 -0.377c 0.13 0 0.247 0.091 0.351 0.273l 4.238 7.319c 0.351 0.637 0.598 1.001 1.391 1.066c 0.234 0.026 0.299 0.091 0.299 0.312c 0 0.13 -0.065 0.195 -0.208 0.195c -0.182 0 -0.806 -0.039 -0.988 -0.039Z "/></symbol><symbol id="g13AFF74D87C474CFAF661EEAD0458F8B" overflow="visible"><path d="M 0 0m 9.074 4.771h -8.034c -0.208 0 -0.312 -0.104 -0.312 -0.299c 0 -0.195 0.104 -0.299 0.312 -0.299h 8.034c 0.208 0 0.312 0.104 0.312 0.299c 0 0.156 -0.143 0.299 -0.312 0.299Z m 0 -2.444h -8.034c -0.208 0 -0.312 -0.104 -0.312 -0.299c 0 -0.195 0.104 -0.299 0.312 -0.299h 8.034c 0.208 0 0.312 0.104 0.312 0.299c 0 0.169 -0.143 0.299 -0.312 0.299Z "/></symbol><symbol id="g9B543B57F718853EF8F95EF155B6CF69" overflow="visible"><path d="M 0 0m 9.074 3.51h -8.034c -0.208 0 -0.312 -0.091 -0.312 -0.26c 0 -0.169 0.104 -0.26 0.312 -0.26h 8.034c 0.208 0 0.312 0.091 0.312 0.26c 0 0.156 -0.156 0.26 -0.312 0.26Z "/></symbol><symbol id="g84C597EFF9988624DBABE6CF17069247" overflow="visible"><path d="M 0 0m 10.803 17.693c -0.611 0 -1.157 -0.559 -1.664 -1.677c -0.247 -0.533 -0.507 -1.339 -0.793 -2.418c -1.261 -4.654 -2.21 -9.191 -3.211 -15.119c -0.455 -2.743 -0.832 -4.732 -1.131 -5.941c -0.533 -2.223 -1.144 -3.341 -1.82 -3.341c -0.247 0 -0.468 0.065 -0.663 0.208c 0.377 0.065 0.559 0.286 0.559 0.676c 0 0.377 -0.286 0.676 -0.663 0.676c -0.455 0 -0.689 -0.234 -0.689 -0.689c 0 -0.754 0.741 -1.261 1.482 -1.261c 0.949 0 1.729 0.754 2.34 2.249c 0.325 0.793 0.767 2.327 1.313 4.576c 0.949 3.861 1.794 7.995 2.535 12.389c 0.52 3.081 0.988 5.421 1.391 7.02c 0.377 1.508 0.728 2.262 1.04 2.262c 0.26 0 0.481 -0.065 0.65 -0.208c -0.377 -0.065 -0.572 -0.286 -0.572 -0.676c 0 -0.377 0.286 -0.676 0.663 -0.676c 0.455 0 0.689 0.234 0.689 0.689c 0 0.715 -0.702 1.261 -1.456 1.261Z "/></symbol><symbol id="gB520C4FDFB2403295A40FD77402E9185" overflow="visible"><path d="M 0 0m 6.9524 6.1789c -0.1729 0 -0.7644 0.0364 -0.9373 0.0364c -0.1456 0 -0.2184 -0.0819 -0.2184 -0.2366c 0 -0.1001 0.0637 -0.1547 0.2002 -0.1638c 0.2275 -0.0091 0.3367 -0.0819 0.3367 -0.2184c 0 -0.0728 -0.0546 -0.1911 -0.1547 -0.3458l -2.912 -4.277l -0.8008 4.5136c -0.0091 0.0637 -0.0182 0.1001 -0.0182 0.1274c 0 0.1365 0.1729 0.2002 0.5278 0.2002c 0.1911 0 0.3094 0.0455 0.3094 0.2366v 0.0364c -0.0182 0.0819 -0.0819 0.1274 -0.1911 0.1274c -0.2093 0 -0.9464 -0.0364 -1.1557 -0.0364c -0.1911 0 -0.8099 0.0364 -1.001 0.0364c -0.1456 0 -0.2184 -0.0819 -0.2184 -0.2366c 0 -0.1092 0.091 -0.1638 0.2639 -0.1638c 0.3913 0 0.4732 0.0273 0.5187 -0.2548l 0.9828 -5.4691c 0.0273 -0.182 0.1183 -0.273 0.2548 -0.273c 0.1274 0 0.2366 0.0728 0.3367 0.2093l 3.4398 5.0596c 0.3094 0.455 0.6734 0.7007 1.0829 0.7371c 0.1638 0.0091 0.2366 0.0728 0.2366 0.2275c 0 0.1092 -0.0546 0.1638 -0.1638 0.1638c -0.1274 0 -0.5915 -0.0364 -0.7189 -0.0364Z "/></symbol><symbol id="gC40F6BBE799648F1E6B2CF1543C3A89" overflow="visible"><path d="M 0 0m 4.498 4.0625c 0 0.3575 -0.364 0.52 -0.754 0.52c -0.559 0 -0.91 -0.3575 -1.0595 -1.079l -0.1235 -0.689h -0.5655c -0.169 0 -0.247 -0.052 -0.247 -0.2015c 0 -0.117 0.0845 -0.1365 0.2275 -0.1365h 0.533l -0.234 -1.339c -0.1495 -0.8645 -0.26 -1.443 -0.3315 -1.7355c -0.0845 -0.3055 -0.221 -0.4615 -0.4225 -0.4615c -0.0845 0 -0.1625 0.013 -0.234 0.039c 0.1495 0.0845 0.221 0.208 0.221 0.3705c 0 0.1755 -0.1365 0.2925 -0.3055 0.2925c -0.234 0 -0.4225 -0.221 -0.4225 -0.455c 0 -0.351 0.3575 -0.52 0.7345 -0.52c 0.3055 0 0.5785 0.169 0.8255 0.507c 0.182 0.2535 0.338 0.8515 0.403 1.196l 0.364 2.106h 0.6955c 0.169 0 0.2535 0.0715 0.2535 0.208c 0 0.1105 -0.091 0.13 -0.234 0.13h -0.65c 0.1365 0.8515 0.2275 1.3 0.273 1.352c 0.091 0.0975 0.1885 0.143 0.2925 0.143c 0.091 0 0.1755 -0.013 0.2535 -0.0455c -0.1495 -0.078 -0.221 -0.2015 -0.221 -0.364c 0 -0.1755 0.1365 -0.2925 0.3055 -0.2925c 0.234 0 0.4225 0.221 0.4225 0.455Z "/></symbol><symbol id="gC48B6A210272368C1F8FEAF9557822B5" overflow="visible"><path d="M 0 0m 2.5805 4.0365c 0 0.1755 -0.1365 0.299 -0.3055 0.299c -0.208 0 -0.4095 -0.2015 -0.4095 -0.4095c 0 -0.169 0.1235 -0.3055 0.299 -0.3055c 0.208 0 0.416 0.208 0.416 0.416Z m -0.9425 -1.144c -0.3185 0 -0.5785 -0.1495 -0.78 -0.4485c -0.1755 -0.2535 -0.2665 -0.4485 -0.2665 -0.5785c 0 -0.0715 0.052 -0.1105 0.156 -0.1105c 0.0845 0 0.143 0.0455 0.1755 0.143c 0.091 0.312 0.3445 0.7215 0.689 0.7215c 0.1105 0 0.169 -0.0715 0.169 -0.2145c 0 -0.0715 -0.013 -0.1495 -0.039 -0.2275c -0.182 -0.455 -0.3705 -0.91 -0.559 -1.3585c -0.0455 -0.1365 -0.0715 -0.2405 -0.0715 -0.299c 0 -0.364 0.3445 -0.5915 0.7215 -0.5915c 0.3185 0 0.5785 0.1495 0.78 0.4485c 0.1755 0.26 0.2665 0.4485 0.2665 0.572c 0 0.078 -0.052 0.117 -0.156 0.117c -0.078 0 -0.13 -0.026 -0.1495 -0.078c -0.0195 -0.052 -0.026 -0.078 -0.0325 -0.091c -0.0975 -0.299 -0.351 -0.6955 -0.6825 -0.6955c -0.1105 0 -0.169 0.0715 -0.169 0.2145c 0 0.0715 0.026 0.182 0.0845 0.3185l 0.494 1.235c 0.0585 0.1495 0.091 0.26 0.091 0.3315c 0 0.3705 -0.351 0.5915 -0.7215 0.5915Z "/></symbol><symbol id="gAF39B06637020F254AB7B881282CA7F5" overflow="visible"><path d="M 0 0m 4.615 5.746c -0.572 0 -1.118 -0.299 -1.651 -0.897c -0.143 0.598 -0.546 0.897 -1.183 0.897c -0.533 0 -0.923 -0.429 -1.196 -1.274c -0.13 -0.429 -0.195 -0.676 -0.195 -0.754c 0 -0.117 0.065 -0.182 0.208 -0.182c 0.065 0 0.104 0.013 0.143 0.039c 0.065 0.117 0.104 0.208 0.117 0.299c 0.234 0.988 0.533 1.482 0.884 1.482c 0.234 0 0.351 -0.182 0.351 -0.533c 0 -0.195 -0.026 -0.416 -0.091 -0.65l -1.43 -5.707c -0.117 -0.429 -0.13 -0.481 -0.637 -0.481c -0.234 0 -0.351 -0.104 -0.351 -0.299c 0 -0.143 0.078 -0.208 0.221 -0.208c 0.195 0 0.871 0.039 1.066 0.039c 0.247 0 1.027 -0.039 1.274 -0.039c 0.195 0 0.286 0.104 0.286 0.312c 0 0.13 -0.117 0.195 -0.364 0.195c -0.234 0 -0.585 -0.013 -0.585 0.143c 0 0.169 0.533 2.21 0.585 2.431c 0.26 -0.481 0.65 -0.728 1.17 -0.728c 0.845 0 1.586 0.429 2.236 1.3c 0.598 0.793 0.897 1.638 0.897 2.509c 0 1.131 -0.676 2.106 -1.755 2.106Z m -0.039 -0.39c 0.507 0 0.767 -0.39 0.767 -1.157c 0 -0.351 -0.078 -0.819 -0.221 -1.404c -0.299 -1.131 -0.676 -1.872 -1.131 -2.249c -0.273 -0.221 -0.52 -0.338 -0.767 -0.338c -0.377 0 -0.637 0.169 -0.78 0.52c -0.117 0.273 -0.182 0.468 -0.182 0.572l 0.663 2.717c 0.065 0.286 0.299 0.585 0.663 0.884c 0.364 0.299 0.689 0.455 0.988 0.455Z "/></symbol><symbol id="g6BCCDCE0D843C0F823A4CE121D6D1649" overflow="visible"><path d="M 0 0m 5.577 8.216l -0.767 -3.159c -0.273 0.481 -0.65 0.728 -1.157 0.728c -0.845 0 -1.586 -0.429 -2.236 -1.3c -0.598 -0.806 -0.897 -1.651 -0.897 -2.522c 0 -1.144 0.663 -2.106 1.755 -2.106c 0.559 0 1.105 0.299 1.625 0.91c 0.143 -0.494 0.585 -0.91 1.196 -0.91c 0.897 0 1.183 1.066 1.378 2.028c 0 0.117 -0.065 0.182 -0.195 0.182c -0.117 0 -0.195 -0.091 -0.234 -0.273c -0.26 -1.027 -0.572 -1.547 -0.923 -1.547c -0.221 0 -0.338 0.182 -0.338 0.533c 0 0.195 0.026 0.403 0.078 0.611l 1.846 7.436v 0.052c -0.039 0.091 -0.117 0.143 -0.221 0.143c -0.299 0 -0.845 -0.052 -1.625 -0.143c -0.143 -0.013 -0.221 -0.117 -0.221 -0.299c 0 -0.13 0.117 -0.195 0.351 -0.195c 0.247 0 0.585 0.013 0.585 -0.169Z m -1.144 -3.328c 0.13 -0.273 0.195 -0.455 0.195 -0.572c -0.013 -0.052 -0.026 -0.117 -0.039 -0.208l -0.637 -2.522c -0.039 -0.143 -0.13 -0.299 -0.247 -0.455c -0.481 -0.585 -0.949 -0.884 -1.404 -0.884c -0.507 0 -0.767 0.39 -0.767 1.157c 0 0.312 0.078 0.78 0.234 1.404c 0.273 1.105 0.663 1.859 1.144 2.262c 0.26 0.221 0.507 0.325 0.754 0.325c 0.351 0 0.611 -0.169 0.767 -0.507Z "/></symbol><symbol id="g53251C539233983FE9FC826CA7FBAC4A" overflow="visible"><path d="M 0 0m 8.723 8.84c -0.247 0 -1.027 0.039 -1.274 0.039c -0.195 0 -0.299 -0.104 -0.299 -0.299c 0 -0.13 0.091 -0.195 0.26 -0.208c 0.364 -0.013 0.546 -0.143 0.546 -0.364c 0 -0.117 -0.065 -0.273 -0.182 -0.468l -3.874 -6.149l -0.858 6.656c 0 0.221 0.273 0.325 0.832 0.325c 0.26 0 0.377 0.091 0.377 0.312c 0 0.13 -0.078 0.195 -0.234 0.195c -0.286 0 -1.3 -0.039 -1.586 -0.039c -0.26 0 -1.144 0.039 -1.404 0.039c -0.195 0 -0.299 -0.104 -0.299 -0.299c 0 -0.143 0.13 -0.208 0.377 -0.208c 0.221 0 0.377 -0.026 0.481 -0.052c 0.208 -0.065 0.195 -0.091 0.234 -0.338l 1.014 -7.93c 0.039 -0.221 0.143 -0.338 0.312 -0.338c 0.169 0 0.299 0.091 0.403 0.26l 4.628 7.358c 0.299 0.468 0.585 0.767 0.871 0.884c 0.195 0.091 0.442 0.143 0.728 0.156c 0.143 0.013 0.208 0.104 0.221 0.299c 0.013 0.143 -0.065 0.208 -0.221 0.208c -0.195 0 -0.858 -0.039 -1.053 -0.039Z "/></symbol></defs></svg>