<svg viewBox="0 0 188.985766667 44.5705" width="188.985766667pt" height="44.5705pt" xmlns="http://www.w3.org/2000/svg" xmlns:xlink="http://www.w3.org/1999/xlink" xmlns:h5="http://www.w3.org/1999/xhtml"><g transform="matrix(1 0 0 -1 6.5 24.5583)"><use xlink:href="#g1EC01C5368D684131831F3BFC5D2F1C1" x="0" y="0" fill="#e6edf3" fill-rule="nonzero"/></g><g transform="matrix(1 0 0 -1 17.329 24.5583)"><use xlink:href="#gC8FE9299987BC399BCDE6DD4129703BD" x="0" y="0" fill="#e6edf3" fill-rule="nonzero"/></g><g transform="matrix(1 0 0 -1 31.184111111 24.5583)"><use xlink:href="#g13AFF74D87C474CFAF661EEAD0458F8B" x="0" y="0" fill="#e6edf3" fill-rule="nonzero"/></g><g transform="matrix(1 0 0 -1 44.909222222 24.5583)"><use xlink:href="#gFCB8EE904C83D15DBBDA0F3192DB537A" x="0" y="0" fill="#e6edf3" fill-rule="nonzero"/></g><g transform="matrix(1 0 0 -1 58.081111111 24.5583)"><use xlink:href="#gEDF6611ACB83925E748178A176190AF2" x="0" y="0" fill="#e6edf3" fill-rule="nonzero"/></g><g transform="matrix(1 0 0 -1 71.084 24.5583)"><use xlink:href="#gD83AEAE39B2D396ED26985CFF34A14A" x="0" y="0" fill="#e6edf3" fill-rule="nonzero"/></g><g transform="matrix(1 0 0 -1 88.683111111 24.5583)"><use xlink:href="#g13AFF74D87C474CFAF661EEAD0458F8B" x="0" y="0" fill="#e6edf3" fill-rule="nonzero"/></g><g transform="matrix(1 0 0 -1 102.408222222 24.5583)"><use xlink:href="#gFCB8EE904C83D15DBBDA0F3192DB537A" x="0" y="0" fill="#e6edf3" fill-rule="nonzero"/></g><g transform="matrix(1 0 0 -1 115.580111111 24.5583)"><use xlink:href="#g9B543B57F718853EF8F95EF155B6CF69" x="0" y="0" fill="#e6edf3" fill-rule="nonzero"/></g><g transform="matrix(1 0 0 -1 128.583 24.5583)"><use xlink:href="#g84C597EFF9988624DBABE6CF17069247" x="0" y="0" fill="#e6edf3" fill-rule="nonzero"/></g><g transform="matrix(1 0 0 -1 141.57 10.1153)"><use xlink:href="#gB520C4FDFB2403295A40FD77402E9185" x="0" y="0" fill="#e6edf3" fill-rule="nonzero"/></g><g transform="matrix(1 0 0 -1 146.8025 12.363)"><use xlink:href="#gC40F6BBE799648F1E6B2CF1543C3A89" x="0" y="0" fill="#e6edf3" fill-rule="nonzero"/></g><g transform="matrix(1 0 0 -1 135.72 38.3513)"><use xlink:href="#gB520C4FDFB2403295A40FD77402E9185" x="0" y="0" fill="#e6edf3" fill-rule="nonzero"/></g><g transform="matrix(1 0 0 -1 140.9525 40.599)"><use xlink:href="#gC48B6A210272368C1F8FEAF9557822B5" x="0" y="0" fill="#e6edf3" fill-rule="nonzero"/></g><g transform="matrix(1 0 0 -1 154.886766667 24.5583)"><use xlink:href="#gA7C36109E42D4F0EB4F28B48DBFDEDEE" x="0" y="0" fill="#e6edf3" fill-rule="nonzero"/></g><g transform="matrix(1 0 0 -1 165.052766667 24.5583)"><use xlink:href="#g6BCCDCE0D843C0F823A4CE121D6D1649" x="0" y="0" fill="#e6edf3" fill-rule="nonzero"/></g><g transform="matrix(1 0 0 -1 172.124766667 24.5583)"><use xlink:href="#g53251C539233983FE9FC826CA7FBAC4A" x="0" y="0" fill="#e6edf3" fill-rule="nonzero"/></g><defs><symbol id="g1EC01C5368D684131831F3BFC5D2F1C1" overflow="visible"><path d="M 0 0m 9.867 0c 0.221 0 0.338 0.052 0.338 0.169l -4.42 8.879c -0.091 0.169 -0.208 0.26 -0.377 0.26c -0.169 0 -0.286 -0.091 -0.377 -0.26l -4.355 -8.723c -0.039 -0.091 -0.065 -0.143 -0.065 -0.169c 0 -0.104 0.117 -0.156 0.338 -0.156Z m -4.875 7.852l 3.38 -6.773h -6.76Z "/></symbol><symbol id="gC8FE9299987BC399BCDE6DD4129703BD" overflow="visible"><path d="M 0 0m 8.346 8.84c -0.247 0 -1.079 0.039 -1.326 0.039c -0.195 0 -0.286 -0.104 -0.286 -0.312c 0 -0.117 0.091 -0.182 0.273 -0.195c 0.559 0 0.832 -0.169 0.832 -0.507c 0 -0.078 -0.013 -0.169 -0.039 -0.26l -1.157 -4.589c -0.195 -0.741 -0.572 -1.378 -1.131 -1.924c -0.611 -0.585 -1.287 -0.871 -2.015 -0.871c -0.962 0 -1.521 0.65 -1.521 1.612l 0.013 0.117c 0 0.247 0.039 0.533 0.13 0.871l 1.248 5.005c 0.065 0.273 0.182 0.442 0.351 0.507c 0.078 0.026 0.299 0.039 0.676 0.039c 0.338 0 0.481 0 0.481 0.312c 0 0.13 -0.078 0.195 -0.221 0.195l -1.651 -0.039l -1.651 0.039c -0.208 0 -0.299 -0.117 -0.299 -0.312c 0 -0.091 0.039 -0.156 0.104 -0.169c 0.13 -0.013 0.234 -0.026 0.299 -0.026c 0.403 -0.013 0.637 -0.039 0.702 -0.052c 0.065 -0.013 0.091 -0.052 0.091 -0.117c 0 -0.026 -0.013 -0.117 -0.052 -0.26l -1.235 -4.953c -0.065 -0.247 -0.091 -0.494 -0.091 -0.754c 0 -1.495 1.079 -2.522 2.574 -2.522c 0.845 0 1.625 0.325 2.34 0.988c 0.689 0.624 1.131 1.352 1.339 2.197l 1.144 4.563c 0.169 0.663 0.533 0.897 1.339 0.91c 0.182 0.013 0.273 0.117 0.273 0.312v 0.052c -0.039 0.091 -0.104 0.143 -0.221 0.143c -0.247 0 -1.066 -0.039 -1.313 -0.039Z "/></symbol><symbol id="g13AFF74D87C474CFAF661EEAD0458F8B" overflow="visible"><path d="M 0 0m 9.074 4.771h -8.034c -0.208 0 -0.312 -0.104 -0.312 -0.299c 0 -0.195 0.104 -0.299 0.312 -0.299h 8.034c 0.208 0 0.312 0.104 0.312 0.299c 0 0.156 -0.143 0.299 -0.312 0.299Z m 0 -2.444h -8.034c -0.208 0 -0.312 -0.104 -0.312 -0.299c 0 -0.195 0.104 -0.299 0.312 -0.299h 8.034c 0.208 0 0.312 0.104 0.312 0.299c 0 0.169 -0.143 0.299 -0.312 0.299Z "/></symbol><symbol id="gFCB8EE904C83D15DBBDA0F3192DB537A" overflow="visible"><path d="M 0 0m 3.978 -0.312c 0.377 0 0.78 0.065 1.209 0.182c -0.039 -0.494 -0.052 -0.806 -0.052 -0.923c 0 -0.975 0.377 -1.469 1.118 -1.469c 0.793 0 1.404 0.637 1.703 1.222c 0.325 0.676 0.494 1.118 0.494 1.326c 0 0.117 -0.065 0.182 -0.195 0.182c -0.091 0 -0.156 -0.052 -0.195 -0.169c -0.195 -0.598 -0.728 -1.209 -1.456 -1.209c -0.663 0 -0.754 0.533 -0.858 1.248c 1.092 0.429 2.015 1.17 2.756 2.236c 0.741 1.066 1.118 2.171 1.118 3.328c 0 1.027 -0.299 1.859 -0.91 2.522c -0.611 0.663 -1.417 1.001 -2.418 1.001c -0.689 0 -1.378 -0.169 -2.067 -0.52c -1.404 -0.689 -2.431 -1.781 -3.094 -3.25c -0.325 -0.741 -0.494 -1.469 -0.494 -2.21c 0 -2.041 1.326 -3.497 3.341 -3.497Z m 4.407 6.37c 0 -0.793 -0.195 -1.703 -0.585 -2.756c -0.455 -1.209 -1.157 -2.106 -2.132 -2.678c -0.052 0.286 -0.13 0.546 -0.234 0.78c -0.169 0.39 -0.481 0.585 -0.936 0.585c -0.715 0 -1.365 -0.65 -1.365 -1.365c 0 -0.117 0.013 -0.234 0.039 -0.325c -0.871 0.403 -1.3 1.222 -1.3 2.47c 0 0.546 0.104 1.209 0.325 1.989c 0.455 1.651 1.274 2.821 2.457 3.51c 0.559 0.312 1.079 0.468 1.56 0.468c 1.43 0 2.171 -1.183 2.171 -2.678Z m -3.887 -4.459c 0.481 0 0.728 -0.351 0.728 -1.04c 0 -0.117 -0.039 -0.182 -0.117 -0.208c -0.364 -0.156 -0.715 -0.234 -1.053 -0.234c -0.364 0 -0.546 0.169 -0.546 0.507c 0 0.494 0.494 0.975 0.988 0.975Z "/></symbol><symbol id="gEDF6611ACB83925E748178A176190AF2" overflow="visible"><path d="M 0 0m 9.074 3.562h -3.705v 3.705c 0 0.208 -0.104 0.312 -0.312 0.312c -0.208 0 -0.312 -0.104 -0.312 -0.312v -3.705h -3.705c -0.208 0 -0.312 -0.104 -0.312 -0.312c 0 -0.208 0.104 -0.312 0.312 -0.312h 3.705v -3.705c 0 -0.208 0.104 -0.312 0.312 -0.312c 0.208 0 0.312 0.104 0.312 0.312v 3.705h 3.705c 0.208 0 0.312 0.104 0.312 0.312c 0 0.169 -0.143 0.312 -0.312 0.312Z "/></symbol><symbol id="gD83AEAE39B2D396ED26985CFF34A14A" overflow="visible"><path d="M 0 0m 12.428 8.84c -0.247 0 -1.092 0.039 -1.339 0.039c -0.195 0 -0.299 -0.104 -0.299 -0.299c 0 -0.13 0.078 -0.195 0.234 -0.208c 0.481 -0.013 0.715 -0.156 0.715 -0.442c 0 -0.078 -0.052 -0.208 -0.156 -0.403l -3.406 -5.902l -0.455 6.201c -0.052 0.468 0.26 0.546 0.845 0.546c 0.273 0 0.403 0.104 0.403 0.312c 0 0.13 -0.078 0.195 -0.247 0.195c -0.286 0 -1.287 -0.039 -1.573 -0.039c -0.247 0 -1.105 0.039 -1.352 0.039c -0.195 0 -0.299 -0.104 -0.299 -0.312c 0 -0.13 0.117 -0.195 0.364 -0.195c 0.403 0 0.611 -0.091 0.624 -0.273l 0.078 -0.975l -3.172 -5.499l -0.468 6.344c -0.039 0.325 0.507 0.403 0.923 0.403c 0.221 0 0.325 0.104 0.325 0.312c 0 0.13 -0.078 0.195 -0.234 0.195c -0.286 0 -1.3 -0.039 -1.586 -0.039c -0.247 0 -1.105 0.039 -1.352 0.039c -0.195 0 -0.286 -0.104 -0.286 -0.299c 0 -0.143 0.13 -0.208 0.377 -0.208c 0.546 0 0.598 -0.026 0.624 -0.416l 0.585 -7.865c 0.013 -0.247 0.104 -0.377 0.26 -0.377c 0.169 0.026 0.234 0.065 0.338 0.26c 0.013 0.013 0.013 0.026 0.013 0.039l 3.705 6.409l 0.468 -6.331c 0.013 -0.247 0.104 -0.377 0.26 -0.377c 0.13 0 0.247 0.091 0.351 0.273l 4.238 7.319c 0.351 0.637 0.598 1.001 1.391 1.066c 0.234 0.026 0.299 0.091 0.299 0.312c 0 0.13 -0.065 0.195 -0.208 0.195c -0.182 0 -0.806 -0.039 -0.988 -0.039Z "/></symbol><symbol id="g9B543B57F718853EF8F95EF155B6CF69" overflow="visible"><path d="M 0 0m 9.074 3.51h -8.034c -0.208 0 -0.312 -0.091 -0.312 -0.26c 0 -0.169 0.104 -0.26 0.312 -0.26h 8.034c 0.208 0 0.312 0.091 0.312 0.26c 0 0.156 -0.156 0.26 -0.312 0.26Z "/></symbol><symbol id="g84C597EFF9988624DBABE6CF17069247" overflow="visible"><path d="M 0 0m 10.803 17.693c -0.611 0 -1.157 -0.559 -1.664 -1.677c -0.247 -0.533 -0.507 -1.339 -0.793 -2.418c -1.261 -4.654 -2.21 -9.191 -3.211 -15.119c -0.455 -2.743 -0.832 -4.732 -1.131 -5.941c -0.533 -2.223 -1.144 -3.341 -1.82 -3.341c -0.247 0 -0.468 0.065 -0.663 0.208c 0.377 0.065 0.559 0.286 0.559 0.676c 0 0.377 -0.286 0.676 -0.663 0.676c -0.455 0 -0.689 -0.234 -0.689 -0.689c 0 -0.754 0.741 -1.261 1.482 -1.261c 0.949 0 1.729 0.754 2.34 2.249c 0.325 0.793 0.767 2.327 1.313 4.576c 0.949 3.861 1.794 7.995 2.535 12.389c 0.52 3.081 0.988 5.421 1.391 7.02c 0.377 1.508 0.728 2.262 1.04 2.262c 0.26 0 0.481 -0.065 0.65 -0.208c -0.377 -0.065 -0.572 -0.286 -0.572 -0.676c 0 -0.377 0.286 -0.676 0.663 -0.676c 0.455 0 0.689 0.234 0.689 0.689c 0 0.715 -0.702 1.261 -1.456 1.261Z "/></symbol><symbol id="gB520C4FDFB2403295A40FD77402E9185" overflow="visible"><path d="M 0 0m 6.9524 6.1789c -0.1729 0 -0.7644 0.0364 -0.9373 0.0364c -0.1456 0 -0.2184 -0.0819 -0.2184 -0.2366c 0 -0.1001 0.0637 -0.1547 0.2002 -0.1638c 0.2275 -0.0091 0.3367 -0.0819 0.3367 -0.2184c 0 -0.0728 -0.0546 -0.1911 -0.1547 -0.3458l -2.912 -4.277l -0.8008 4.5136c -0.0091 0.0637 -0.0182 0.1001 -0.0182 0.1274c 0 0.1365 0.1729 0.2002 0.5278 0.2002c 0.1911 0 0.3094 0.0455 0.3094 0.2366v 0.0364c -0.0182 0.0819 -0.0819 0.1274 -0.1911 0.1274c -0.2093 0 -0.9464 -0.0364 -1.1557 -0.0364c -0.1911 0 -0.8099 0.0364 -1.001 0.0364c -0.1456 0 -0.2184 -0.0819 -0.2184 -0.2366c 0 -0.1092 0.091 -0.1638 0.2639 -0.1638c 0.3913 0 0.4732 0.0273 0.5187 -0.2548l 0.9828 -5.4691c 0.0273 -0.182 0.1183 -0.273 0.2548 -0.273c 0.1274 0 0.2366 0.0728 0.3367 0.2093l 3.4398 5.0596c 0.3094 0.455 0.6734 0.7007 1.0829 0.7371c 0.1638 0.0091 0.2366 0.0728 0.2366 0.2275c 0 0.1092 -0.0546 0.1638 -0.1638 0.1638c -0.1274 0 -0.5915 -0.0364 -0.7189 -0.0364Z "/></symbol><symbol id="gC40F6BBE799648F1E6B2CF1543C3A89" overflow="visible"><path d="M 0 0m 4.498 4.0625c 0 0.3575 -0.364 0.52 -0.754 0.52c -0.559 0 -0.91 -0.3575 -1.0595 -1.079l -0.1235 -0.689h -0.5655c -0.169 0 -0.247 -0.052 -0.247 -0.2015c 0 -0.117 0.0845 -0.1365 0.2275 -0.1365h 0.533l -0.234 -1.339c -0.1495 -0.8645 -0.26 -1.443 -0.3315 -1.7355c -0.0845 -0.3055 -0.221 -0.4615 -0.4225 -0.4615c -0.0845 0 -0.1625 0.013 -0.234 0.039c 0.1495 0.0845 0.221 0.208 0.221 0.3705c 0 0.1755 -0.1365 0.2925 -0.3055 0.2925c -0.234 0 -0.4225 -0.221 -0.4225 -0.455c 0 -0.351 0.3575 -0.52 0.7345 -0.52c 0.3055 0 0.5785 0.169 0.8255 0.507c 0.182 0.2535 0.338 0.8515 0.403 1.196l 0.364 2.106h 0.6955c 0.169 0 0.2535 0.0715 0.2535 0.208c 0 0.1105 -0.091 0.13 -0.234 0.13h -0.65c 0.1365 0.8515 0.2275 1.3 0.273 1.352c 0.091 0.0975 0.1885 0.143 0.2925 0.143c 0.091 0 0.1755 -0.013 0.2535 -0.0455c -0.1495 -0.078 -0.221 -0.2015 -0.221 -0.364c 0 -0.1755 0.1365 -0.2925 0.3055 -0.2925c 0.234 0 0.4225 0.221 0.4225 0.455Z "/></symbol><symbol id="gC48B6A210272368C1F8FEAF9557822B5" overflow="visible"><path d="M 0 0m 2.5805 4.0365c 0 0.1755 -0.1365 0.299 -0.3055 0.299c -0.208 0 -0.4095 -0.2015 -0.4095 -0.4095c 0 -0.169 0.1235 -0.3055 0.299 -0.3055c 0.208 0 0.416 0.208 0.416 0.416Z m -0.9425 -1.144c -0.3185 0 -0.5785 -0.1495 -0.78 -0.4485c -0.1755 -0.2535 -0.2665 -0.4485 -0.2665 -0.5785c 0 -0.0715 0.052 -0.1105 0.156 -0.1105c 0.0845 0 0.143 0.0455 0.1755 0.143c 0.091 0.312 0.3445 0.7215 0.689 0.7215c 0.1105 0 0.169 -0.0715 0.169 -0.2145c 0 -0.0715 -0.013 -0.1495 -0.039 -0.2275c -0.182 -0.455 -0.3705 -0.91 -0.559 -1.3585c -0.0455 -0.1365 -0.0715 -0.2405 -0.0715 -0.299c 0 -0.364 0.3445 -0.5915 0.7215 -0.5915c 0.3185 0 0.5785 0.1495 0.78 0.4485c 0.1755 0.26 0.2665 0.4485 0.2665 0.572c 0 0.078 -0.052 0.117 -0.156 0.117c -0.078 0 -0.13 -0.026 -0.1495 -0.078c -0.0195 -0.052 -0.026 -0.078 -0.0325 -0.091c -0.0975 -0.299 -0.351 -0.6955 -0.6825 -0.6955c -0.1105 0 -0.169 0.0715 -0.169 0.2145c 0 0.0715 0.026 0.182 0.0845 0.3185l 0.494 1.235c 0.0585 0.1495 0.091 0.26 0.091 0.3315c 0 0.3705 -0.351 0.5915 -0.7215 0.5915Z "/></symbol><symbol id="gA7C36109E42D4F0EB4F28B48DBFDEDEE" overflow="visible"><path d="M 0 0m 7.215 8.879h -4.16c -0.299 0 -0.442 -0.013 -0.442 -0.299c 0 -0.143 0.143 -0.208 0.429 -0.208c 0.26 0 0.78 0.039 0.78 -0.169c 0 -0.026 -0.013 -0.104 -0.052 -0.234l -1.716 -6.903c -0.078 -0.286 -0.208 -0.455 -0.39 -0.52c -0.091 -0.026 -0.325 -0.039 -0.728 -0.039c -0.286 0 -0.416 -0.026 -0.416 -0.299c 0 -0.143 0.078 -0.208 0.247 -0.208l 1.625 0.039l 0.832 -0.013c 0.143 0 0.663 -0.026 0.832 -0.026c 0.208 0 0.312 0.104 0.312 0.312c 0 0.13 -0.143 0.195 -0.416 0.195c -0.52 0 -0.78 0.052 -0.78 0.169c 0 0 0.013 0.039 0.039 0.208l 0.78 3.172h 2.145c 0.845 0 1.651 0.26 2.405 0.767c 0.845 0.559 1.261 1.248 1.261 2.067c 0 1.287 -1.222 1.989 -2.587 1.989Z m -0.403 -0.507c 1.131 0 1.69 -0.39 1.69 -1.17c 0 -0.728 -0.364 -1.703 -0.741 -2.041c -0.494 -0.442 -1.144 -0.663 -1.95 -0.663h -1.742l 0.858 3.432c 0.104 0.442 0.104 0.442 0.65 0.442Z "/></symbol><symbol id="g6BCCDCE0D843C0F823A4CE121D6D1649" overflow="visible"><path d="M 0 0m 5.577 8.216l -0.767 -3.159c -0.273 0.481 -0.65 0.728 -1.157 0.728c -0.845 0 -1.586 -0.429 -2.236 -1.3c -0.598 -0.806 -0.897 -1.651 -0.897 -2.522c 0 -1.144 0.663 -2.106 1.755 -2.106c 0.559 0 1.105 0.299 1.625 0.91c 0.143 -0.494 0.585 -0.91 1.196 -0.91c 0.897 0 1.183 1.066 1.378 2.028c 0 0.117 -0.065 0.182 -0.195 0.182c -0.117 0 -0.195 -0.091 -0.234 -0.273c -0.26 -1.027 -0.572 -1.547 -0.923 -1.547c -0.221 0 -0.338 0.182 -0.338 0.533c 0 0.195 0.026 0.403 0.078 0.611l 1.846 7.436v 0.052c -0.039 0.091 -0.117 0.143 -0.221 0.143c -0.299 0 -0.845 -0.052 -1.625 -0.143c -0.143 -0.013 -0.221 -0.117 -0.221 -0.299c 0 -0.13 0.117 -0.195 0.351 -0.195c 0.247 0 0.585 0.013 0.585 -0.169Z m -1.144 -3.328c 0.13 -0.273 0.195 -0.455 0.195 -0.572c -0.013 -0.052 -0.026 -0.117 -0.039 -0.208l -0.637 -2.522c -0.039 -0.143 -0.13 -0.299 -0.247 -0.455c -0.481 -0.585 -0.949 -0.884 -1.404 -0.884c -0.507 0 -0.767 0.39 -0.767 1.157c 0 0.312 0.078 0.78 0.234 1.404c 0.273 1.105 0.663 1.859 1.144 2.262c 0.26 0.221 0.507 0.325 0.754 0.325c 0.351 0 0.611 -0.169 0.767 -0.507Z "/></symbol><symbol id="g53251C539233983FE9FC826CA7FBAC4A" overflow="visible"><path d="M 0 0m 8.723 8.84c -0.247 0 -1.027 0.039 -1.274 0.039c -0.195 0 -0.299 -0.104 -0.299 -0.299c 0 -0.13 0.091 -0.195 0.26 -0.208c 0.364 -0.013 0.546 -0.143 0.546 -0.364c 0 -0.117 -0.065 -0.273 -0.182 -0.468l -3.874 -6.149l -0.858 6.656c 0 0.221 0.273 0.325 0.832 0.325c 0.26 0 0.377 0.091 0.377 0.312c 0 0.13 -0.078 0.195 -0.234 0.195c -0.286 0 -1.3 -0.039 -1.586 -0.039c -0.26 0 -1.144 0.039 -1.404 0.039c -0.195 0 -0.299 -0.104 -0.299 -0.299c 0 -0.143 0.13 -0.208 0.377 -0.208c 0.221 0 0.377 -0.026 0.481 -0.052c 0.208 -0.065 0.195 -0.091 0.234 -0.338l 1.014 -7.93c 0.039 -0.221 0.143 -0.338 0.312 -0.338c 0.169 0 0.299 0.091 0.403 0.26l 4.628 7.358c 0.299 0.468 0.585 0.767 0.871 0.884c 0.195 0.091 0.442 0.143 0.728 0.156c 0.143 0.013 0.208 0.104 0.221 0.299c 0.013 0.143 -0.065 0.208 -0.221 0.208c -0.195 0 -0.858 -0.039 -1.053 -0.039Z "/></symbol></defs></svg>