<svg viewBox="0 0 241.263822222 36.4234" width="241.263822222pt" height="36.4234pt" xmlns="http://www.w3.org/2000/svg" xmlns:xlink="http://www.w3.org/1999/xlink" xmlns:h5="http://www.w3.org/1999/xhtml"><g transform="matrix(1 0 0 -1 6.5 23.4624)"><use xlink:href="#gDA6300BE1A83285F3E02339F05C53FB2" x="0" y="0" fill="#e6edf3" fill-rule="nonzero"/></g><g transform="matrix(1 0 0 -1 12.74 18.7434)"><use xlink:href="#g962CFBE7F4B0D6E4A1CBDA86A03D94EA" x="0" y="0" fill="#e6edf3" fill-rule="nonzero"/></g><g transform="matrix(1 0 0 -1 20.782811111 23.4624)"><use xlink:href="#g13AFF74D87C474CFAF661EEAD0458F8B" x="0" y="0" fill="#e6edf3" fill-rule="nonzero"/></g><g transform="matrix(1 0 0 -1 34.507922222 23.4624)"><use xlink:href="#g9B543B57F718853EF8F95EF155B6CF69" x="0" y="0" fill="#e6edf3" fill-rule="nonzero"/></g><g transform="matrix(1 0 0 -1 45.921922222 14.6614)"><use xlink:href="#g64EED7C1DC5EF9C242224A119317485D" x="0" y="0" fill="#e6edf3" fill-rule="nonzero"/></g><g transform="matrix(1 0 0 -1 47.962922222 32.3804)"><use xlink:href="#gDEB51F3F5A253AD9569DE491554DF190" x="0" y="0" fill="#e6edf3" fill-rule="nonzero"/></g><path fill="none" stroke="#e6edf3" stroke-width="0.624" stroke-linecap="butt" stroke-linejoin="miter" stroke-miterlimit="4" transform="translate(45.921922222 20.2124)" d="M 0 0h 10.179"/><g transform="matrix(1 0 0 -1 57.400922222 23.4624)"><use xlink:href="#gDA6300BE1A83285F3E02339F05C53FB2" x="0" y="0" fill="#e6edf3" fill-rule="nonzero"/></g><g transform="matrix(1 0 0 -1 89.640922222 23.4624)"><use xlink:href="#g3BE14B656A783D87D3540BF1AAF22AA9" x="0" y="0" fill="#e6edf3" fill-rule="nonzero"/><use xlink:href="#gEB9B079EF07FFCCA69ED7A9B1F1ABEB" x="10.816" y="0" fill="#e6edf3" fill-rule="nonzero"/><use xlink:href="#g49CA9B429DF3D7281052206316ECCC8A" x="18.044" y="0" fill="#e6edf3" fill-rule="nonzero"/><use xlink:href="#gFD7B4B4FA231C83EBA33EE1F285F6134" x="21.658" y="0" fill="#e6edf3" fill-rule="nonzero"/><use xlink:href="#gAA15FA55B6D99ABF04E317BC87D5459D" x="26.78" y="0" fill="#e6edf3" fill-rule="nonzero"/><use xlink:href="#g3BE14B656A783D87D3540BF1AAF22AA9" x="31.837" y="0" fill="#e6edf3" fill-rule="nonzero"/><use xlink:href="#gA2276AEFE9378953E87817A497BFC175" x="38.337" y="0" fill="#e6edf3" fill-rule="nonzero"/><use xlink:href="#g8B273DA24598714A1DE03FD5302C001A" x="45.565" y="0" fill="#e6edf3" fill-rule="nonzero"/><use xlink:href="#g49CA9B429DF3D7281052206316ECCC8A" x="51.337" y="0" fill="#e6edf3" fill-rule="nonzero"/><use xlink:href="#g3BE14B656A783D87D3540BF1AAF22AA9" x="54.951" y="0" fill="#e6edf3" fill-rule="nonzero"/></g><g transform="matrix(1 0 0 -1 156.707922222 14.6614)"><use xlink:href="#g64EED7C1DC5EF9C242224A119317485D" x="0" y="0" fill="#e6edf3" fill-rule="nonzero"/></g><g transform="matrix(1 0 0 -1 166.886922222 9.9424)"><use xlink:href="#g8A6A9074F91D642F82CC8BE39AC39D3A" x="0" y="0" fill="#e6edf3" fill-rule="nonzero"/></g><g transform="matrix(1 0 0 -1 161.701872222 32.3804)"><use xlink:href="#gDEB51F3F5A253AD9569DE491554DF190" x="0" y="0" fill="#e6edf3" fill-rule="nonzero"/></g><path fill="none" stroke="#e6edf3" stroke-width="0.624" stroke-linecap="butt" stroke-linejoin="miter" stroke-miterlimit="4" transform="translate(156.707922222 20.2124)" d="M 0 0h 16.0849"/><g transform="matrix(1 0 0 -1 178.408822222 23.4624)"><use xlink:href="#gEB9B079EF07FFCCA69ED7A9B1F1ABEB" x="0" y="0" fill="#e6edf3" fill-rule="nonzero"/><use xlink:href="#g7413A85D70934E3816A3D1EE8499A939" x="7.228" y="0" fill="#e6edf3" fill-rule="nonzero"/><use xlink:href="#gBC3D9C1A249D0D4F874E09900DF515A4" x="13" y="0" fill="#e6edf3" fill-rule="nonzero"/><use xlink:href="#g8B273DA24598714A1DE03FD5302C001A" x="20.93" y="0" fill="#e6edf3" fill-rule="nonzero"/><use xlink:href="#g7413A85D70934E3816A3D1EE8499A939" x="26.702" y="0" fill="#e6edf3" fill-rule="nonzero"/><use xlink:href="#gA2276AEFE9378953E87817A497BFC175" x="32.474" y="0" fill="#e6edf3" fill-rule="nonzero"/><use xlink:href="#gAA15FA55B6D99ABF04E317BC87D5459D" x="39.702" y="0" fill="#e6edf3" fill-rule="nonzero"/><use xlink:href="#gCCDACA59E6D598A65CF16A9645890FC7" x="44.759" y="0" fill="#e6edf3" fill-rule="nonzero"/><use xlink:href="#g5D4DFCA3C00979A1E9076032CC813B65" x="49.855" y="0" fill="#e6edf3" fill-rule="nonzero"/></g><defs><symbol id="gDA6300BE1A83285F3E02339F05C53FB2" overflow="visible"><path d="M 0 0m 4.836 4.901c -0.26 0.559 -0.663 0.845 -1.196 0.845c -0.845 0 -1.586 -0.429 -2.223 -1.3c -0.598 -0.806 -0.897 -1.638 -0.897 -2.509c 0 -1.131 0.65 -2.106 1.729 -2.106c 0.468 0 0.936 0.221 1.417 0.663l -0.533 -2.132c -0.039 -0.195 -0.156 -0.312 -0.338 -0.351c -0.065 -0.013 -0.234 -0.026 -0.533 -0.026c -0.078 -0.013 -0.13 -0.013 -0.156 -0.013c -0.117 -0.013 -0.182 -0.117 -0.182 -0.299v -0.052c 0.039 -0.091 0.117 -0.143 0.221 -0.143c 0.247 0 1.027 0.039 1.274 0.039c 0.247 0 1.066 -0.039 1.313 -0.039c 0.182 0 0.273 0.104 0.273 0.312c 0 0.13 -0.13 0.195 -0.377 0.195c -0.234 0 -0.559 -0.013 -0.559 0.143c 0 0.052 0.013 0.143 0.052 0.273l 1.755 7.15c 0 0.117 -0.065 0.182 -0.182 0.182c -0.234 0 -0.728 -0.65 -0.858 -0.832Z m -0.416 -0.052c 0.117 -0.273 0.182 -0.455 0.182 -0.572c 0 -0.013 -0.013 -0.091 -0.039 -0.208l -0.312 -1.261c -0.247 -0.936 -0.364 -1.417 -0.377 -1.443c -0.247 -0.455 -0.962 -1.157 -1.586 -1.157c -0.507 0 -0.767 0.39 -0.767 1.157c 0 0.598 0.403 2.054 0.585 2.535c 0.247 0.611 0.819 1.456 1.534 1.456c 0.351 0 0.611 -0.169 0.78 -0.507Z "/></symbol><symbol id="g962CFBE7F4B0D6E4A1CBDA86A03D94EA" overflow="visible"><path d="M 0 0m 2.5844 4.9959c -0.2275 0 -0.3822 -0.091 -0.4641 -0.2821l -1.5288 -3.8402h 0.4095l 2.0202 3.3397c 0.0455 0.0819 0.0728 0.1729 0.0728 0.273c 0 0.273 -0.2366 0.5096 -0.5096 0.5096Z "/></symbol><symbol id="g13AFF74D87C474CFAF661EEAD0458F8B" overflow="visible"><path d="M 0 0m 9.074 4.771h -8.034c -0.208 0 -0.312 -0.104 -0.312 -0.299c 0 -0.195 0.104 -0.299 0.312 -0.299h 8.034c 0.208 0 0.312 0.104 0.312 0.299c 0 0.156 -0.143 0.299 -0.312 0.299Z m 0 -2.444h -8.034c -0.208 0 -0.312 -0.104 -0.312 -0.299c 0 -0.195 0.104 -0.299 0.312 -0.299h 8.034c 0.208 0 0.312 0.104 0.312 0.299c 0 0.169 -0.143 0.299 -0.312 0.299Z "/></symbol><symbol id="g9B543B57F718853EF8F95EF155B6CF69" overflow="visible"><path d="M 0 0m 9.074 3.51h -8.034c -0.208 0 -0.312 -0.091 -0.312 -0.26c 0 -0.169 0.104 -0.26 0.312 -0.26h 8.034c 0.208 0 0.312 0.091 0.312 0.26c 0 0.156 -0.156 0.26 -0.312 0.26Z "/></symbol><symbol id="g64EED7C1DC5EF9C242224A119317485D" overflow="visible"><path d="M 0 0m 9.607 6.903c 0 0.663 -0.338 1.17 -1.001 1.534c -0.533 0.299 -1.17 0.442 -1.885 0.442h -3.666c -0.299 0 -0.429 -0.013 -0.429 -0.312c 0 -0.091 0.039 -0.156 0.117 -0.169c 0.13 -0.013 0.234 -0.026 0.299 -0.026c 0.39 -0.013 0.611 -0.039 0.676 -0.052c 0.065 -0.013 0.104 -0.052 0.104 -0.117c 0 -0.026 -0.013 -0.104 -0.052 -0.234l -1.716 -6.903c -0.065 -0.286 -0.195 -0.468 -0.39 -0.533c -0.091 -0.026 -0.325 -0.039 -0.728 -0.039c -0.286 0 -0.403 -0.013 -0.403 -0.299c 0 -0.143 0.078 -0.208 0.234 -0.195l 1.612 0.039l 1.638 -0.039c 0.208 -0.013 0.312 0.104 0.312 0.299c 0 0.13 -0.143 0.195 -0.416 0.195c -0.52 0 -0.78 0.065 -0.78 0.182c 0 0 0.013 0.026 0.039 0.208l 0.832 3.367h 1.495c 0.897 0 1.352 -0.377 1.352 -1.118c 0 -0.117 -0.065 -0.403 -0.182 -0.871c -0.143 -0.546 -0.208 -0.91 -0.208 -1.105c 0 -0.988 0.767 -1.443 1.755 -1.443c 0.364 0 0.715 0.169 1.066 0.494c 0.351 0.325 0.533 0.676 0.533 1.04c 0 0.13 -0.065 0.195 -0.208 0.195c -0.091 0 -0.169 -0.065 -0.208 -0.208c -0.143 -0.403 -0.325 -0.702 -0.533 -0.871c -0.208 -0.169 -0.403 -0.26 -0.598 -0.26c -0.299 0 -0.455 0.247 -0.455 0.728c 0 0.312 0.039 0.793 0.13 1.456c 0.039 0.273 0.052 0.468 0.052 0.611c 0 0.689 -0.364 1.196 -1.092 1.508c 1.222 0.299 2.704 1.17 2.704 2.496Z m -1.69 1.105c 0.26 -0.169 0.39 -0.455 0.39 -0.858c 0 -0.26 -0.052 -0.559 -0.169 -0.91c -0.351 -1.066 -1.235 -1.599 -2.652 -1.599h -1.378l 0.819 3.289c 0.065 0.273 0.169 0.416 0.312 0.429c 0.065 0.013 0.325 0.013 0.78 0.013c 0.845 0 1.339 -0.026 1.898 -0.364Z "/></symbol><symbol id="gDEB51F3F5A253AD9569DE491554DF190" overflow="visible"><path d="M 0 0m 5.46 4.602c 0 0.741 -0.754 1.144 -1.56 1.144c -0.819 0 -1.404 -0.247 -1.755 -0.741c -0.299 -0.429 -0.455 -0.819 -0.455 -1.17c 0 -0.689 0.455 -1.131 1.352 -1.326c 0.377 -0.065 0.663 -0.156 0.884 -0.26c 0.273 -0.117 0.403 -0.338 0.403 -0.65c 0 -0.234 -0.104 -0.494 -0.325 -0.793c -0.273 -0.377 -0.754 -0.572 -1.443 -0.572c -0.702 0 -1.157 0.195 -1.365 0.572c 0.416 -0.013 0.767 0.325 0.767 0.741c 0 0.325 -0.169 0.494 -0.52 0.494c -0.468 0 -0.767 -0.429 -0.767 -0.897c 0 -0.858 0.936 -1.287 1.872 -1.287c 0.975 0 1.677 0.286 2.093 0.871c 0.351 0.481 0.52 0.91 0.52 1.3c 0 0.559 -0.273 0.975 -0.806 1.248c -0.403 0.143 -0.715 0.234 -0.91 0.273c -0.455 0.117 -0.923 0.156 -0.923 0.715c 0 0.689 0.65 1.105 1.378 1.105c 0.546 0 0.897 -0.169 1.066 -0.494c -0.286 -0.052 -0.585 -0.299 -0.585 -0.624c 0 -0.273 0.143 -0.416 0.442 -0.416c 0.403 0 0.637 0.364 0.637 0.767Z "/></symbol><symbol id="g3BE14B656A783D87D3540BF1AAF22AA9" overflow="visible"><path d="M 0 0m 6.279 1.183v 0.767h -0.416v -0.767c 0 -0.507 -0.143 -0.767 -0.416 -0.767c -0.26 0 -0.416 0.325 -0.416 0.585v 2.561c 0 0.455 -0.052 0.793 -0.143 1.027c -0.312 0.767 -1.209 1.235 -2.119 1.235c -1.001 0 -1.989 -0.559 -1.989 -1.495c 0 -0.429 0.221 -0.65 0.65 -0.65c 0.429 0 0.637 0.208 0.637 0.637c 0 0.377 -0.195 0.598 -0.598 0.637c 0.286 0.325 0.715 0.494 1.274 0.494c 0.806 0 1.3 -0.741 1.3 -1.586v -0.429c -1.014 -0.065 -1.781 -0.221 -2.314 -0.468c -0.871 -0.403 -1.313 -0.962 -1.313 -1.703c 0 -0.338 0.13 -0.624 0.377 -0.845c 0.416 -0.377 0.988 -0.559 1.716 -0.559c 0.767 0 1.313 0.325 1.651 0.988c 0.091 -0.494 0.455 -0.923 1.014 -0.923c 0.689 0 1.105 0.546 1.105 1.261Z m -3.679 -0.949c -0.598 0 -1.092 0.442 -1.092 1.04c 0 1.209 1.261 1.729 2.535 1.794v -1.235c 0 -0.871 -0.572 -1.599 -1.443 -1.599Z "/></symbol><symbol id="gEB9B079EF07FFCCA69ED7A9B1F1ABEB" overflow="visible"><path d="M 0 0m 4.862 -0.143l 1.989 0.143v 0.494c -0.468 0 -0.741 0.026 -0.845 0.104c -0.104 0.078 -0.156 0.273 -0.156 0.572v 7.852l -1.937 -0.143v -0.494c 0.455 0 0.741 -0.039 0.845 -0.117c 0.104 -0.078 0.143 -0.26 0.143 -0.559v -2.639c -0.416 0.481 -0.936 0.715 -1.56 0.715c -0.806 0 -1.495 -0.286 -2.054 -0.871c -0.559 -0.585 -0.845 -1.287 -0.845 -2.106c 0 -0.793 0.26 -1.482 0.793 -2.067c 0.533 -0.585 1.183 -0.884 1.976 -0.884c 0.663 0 1.222 0.247 1.651 0.754Z m -1.469 5.538c 0.559 0 1.014 -0.247 1.339 -0.741c 0.091 -0.143 0.13 -0.286 0.13 -0.455v -2.626c 0 -0.169 -0.039 -0.312 -0.13 -0.455c -0.364 -0.585 -0.858 -0.871 -1.469 -0.871c -0.533 0 -0.962 0.26 -1.3 0.793c -0.234 0.39 -0.351 0.975 -0.351 1.755c 0 1.417 0.481 2.6 1.781 2.6Z "/></symbol><symbol id="g49CA9B429DF3D7281052206316ECCC8A" overflow="visible"><path d="M 0 0m 2.522 7.813c 0 0.39 -0.325 0.728 -0.715 0.728c -0.39 0 -0.728 -0.338 -0.728 -0.728c 0 -0.39 0.325 -0.741 0.715 -0.741c 0.403 0 0.728 0.338 0.728 0.741Z m -0.663 -7.774l 1.352 -0.039v 0.507c -0.429 0 -0.689 0.026 -0.767 0.078c -0.078 0.052 -0.104 0.195 -0.104 0.429v 4.771l -1.859 -0.156v -0.494c 0.429 0 0.702 -0.039 0.793 -0.104c 0.091 -0.065 0.13 -0.247 0.13 -0.546v -3.458c 0 -0.247 -0.039 -0.403 -0.13 -0.455c -0.091 -0.052 -0.377 -0.065 -0.845 -0.065v -0.507Z "/></symbol><symbol id="gFD7B4B4FA231C83EBA33EE1F285F6134" overflow="visible"><path d="M 0 0m 4.68 1.69c 0 0.988 -0.676 1.612 -2.015 1.872c -0.611 0.117 -1.001 0.26 -1.209 0.403c -0.208 0.143 -0.312 0.351 -0.312 0.598c 0 0.611 0.455 0.91 1.365 0.91c 0.884 0 1.365 -0.494 1.43 -1.495c 0.013 -0.104 0.078 -0.156 0.208 -0.156c 0.143 0 0.221 0.117 0.221 0.351v 1.287c 0 0.247 -0.065 0.364 -0.195 0.364c -0.143 0 -0.338 -0.234 -0.468 -0.338c -0.325 0.221 -0.728 0.338 -1.196 0.338c -1.157 0 -2.08 -0.52 -2.08 -1.625c 0 -0.442 0.182 -0.819 0.559 -1.118c 0.455 -0.377 0.884 -0.455 1.703 -0.598c 0.845 -0.169 1.274 -0.546 1.274 -1.131c 0 -0.741 -0.455 -1.118 -1.378 -1.118c -0.897 0 -1.469 0.598 -1.716 1.781c -0.039 0.169 -0.104 0.26 -0.221 0.26c -0.143 0 -0.221 -0.13 -0.221 -0.377v -1.677c 0 -0.247 0.065 -0.364 0.195 -0.364c 0.039 0 0.104 0.039 0.208 0.13c 0.234 0.208 0.13 0.169 0.364 0.403c 0.377 -0.351 0.845 -0.533 1.391 -0.533c 1.235 0 2.093 0.637 2.093 1.833Z "/></symbol><symbol id="gAA15FA55B6D99ABF04E317BC87D5459D" overflow="visible"><path d="M 0 0m 4.316 1.638v 0.78h -0.416v -0.754c 0 -0.65 -0.234 -1.378 -0.806 -1.378c -0.533 0 -0.793 0.442 -0.793 1.326v 3.523h 1.807v 0.494h -1.807v 2.366h -0.416c -0.013 -0.429 -0.052 -0.806 -0.143 -1.144c -0.221 -0.858 -0.728 -1.3 -1.495 -1.339v -0.377h 1.079v -3.497c 0 -0.767 0.234 -1.261 0.689 -1.508c 0.351 -0.182 0.676 -0.273 1.001 -0.273c 0.858 0 1.3 0.858 1.3 1.781Z "/></symbol><symbol id="gA2276AEFE9378953E87817A497BFC175" overflow="visible"><path d="M 0 0m 4.082 5.369c 0.585 0 0.884 -0.455 0.884 -1.378v -2.964c 0 -0.247 -0.039 -0.403 -0.13 -0.455c -0.091 -0.052 -0.377 -0.078 -0.858 -0.078v -0.494l 1.495 0.039l 1.482 -0.039v 0.494c -0.416 0 -0.689 0.013 -0.819 0.052c -0.13 0.039 -0.182 0.13 -0.182 0.286v 2.431c 0 0.611 -0.013 1.04 -0.052 1.287c -0.13 0.793 -0.715 1.196 -1.742 1.196c -0.819 0 -1.43 -0.39 -1.833 -1.17v 1.17l -1.911 -0.143v -0.494c 0.468 0 0.754 -0.039 0.858 -0.117c 0.104 -0.078 0.143 -0.247 0.143 -0.546v -3.419c 0 -0.247 -0.052 -0.403 -0.143 -0.455c -0.091 -0.052 -0.377 -0.078 -0.858 -0.078v -0.494l 1.495 0.039l 1.482 -0.039v 0.494c -0.481 0 -0.754 0.026 -0.845 0.078c -0.091 0.052 -0.143 0.208 -0.143 0.455v 2.34c 0 1.053 0.663 2.002 1.677 2.002Z "/></symbol><symbol id="g8B273DA24598714A1DE03FD5302C001A" overflow="visible"><path d="M 0 0m 3.263 5.408c 0.546 0 0.962 -0.13 1.248 -0.39c -0.312 -0.039 -0.533 -0.325 -0.533 -0.624c 0 -0.429 0.208 -0.637 0.637 -0.637c 0.429 0 0.637 0.221 0.637 0.65c 0 0.923 -1.001 1.417 -2.002 1.417c -0.806 0 -1.469 -0.286 -2.002 -0.884c -0.533 -0.598 -0.806 -1.313 -0.806 -2.132c 0 -0.793 0.273 -1.495 0.806 -2.08c 0.533 -0.585 1.183 -0.871 1.976 -0.871c 0.65 0 1.157 0.182 1.521 0.559c 0.299 0.299 0.494 0.598 0.598 0.91c 0.039 0.117 0.052 0.195 0.052 0.247c 0 0.117 -0.078 0.169 -0.221 0.169c -0.104 0 -0.169 -0.052 -0.208 -0.156c -0.273 -0.871 -0.806 -1.313 -1.625 -1.313c -0.377 0 -0.741 0.169 -1.105 0.52c -0.429 0.403 -0.637 1.079 -0.637 2.041c 0 1.3 0.494 2.574 1.664 2.574Z "/></symbol><symbol id="g8A6A9074F91D642F82CC8BE39AC39D3A" overflow="visible"><path d="M 0 0m 1.0829 3.8584c 0.2912 0 0.5096 0.2184 0.5096 0.5096c 0 0.3276 -0.1729 0.5005 -0.5096 0.5096c 0.2002 0.4277 0.6552 0.7735 1.2467 0.7735c 0.8008 0 1.3286 -0.6006 1.3286 -1.4014c 0 -0.4368 -0.1547 -0.8554 -0.4732 -1.2649c -0.1547 -0.2093 -0.273 -0.3549 -0.3549 -0.4368l -2.1567 -2.1385c -0.1183 -0.1092 -0.1001 -0.1365 -0.1001 -0.4095h 3.7492l 0.2821 1.7108h -0.3822c -0.0637 -0.4823 -0.1365 -0.7644 -0.2184 -0.8281c -0.0455 -0.0273 -0.3276 -0.0455 -0.8645 -0.0455h -1.547c 0.6097 0.5369 1.1739 1.0192 1.7108 1.4469c 0.4095 0.3185 0.7007 0.6006 0.8827 0.8463c 0.273 0.3549 0.4095 0.728 0.4095 1.1193c 0 0.5642 -0.2184 1.0101 -0.6643 1.3377c -0.3913 0.3003 -0.8827 0.455 -1.4651 0.455c -0.5005 0 -0.9282 -0.1456 -1.3013 -0.4368c -0.3913 -0.3185 -0.5915 -0.7189 -0.5915 -1.2103c 0 -0.3094 0.2275 -0.5369 0.5096 -0.5369Z "/></symbol><symbol id="g7413A85D70934E3816A3D1EE8499A939" overflow="visible"><path d="M 0 0m 5.395 3.263c 0 1.495 -0.871 2.561 -2.327 2.561c -0.78 0 -1.43 -0.299 -1.963 -0.91c -0.494 -0.572 -0.741 -1.261 -0.741 -2.054c 0 -0.819 0.273 -1.508 0.819 -2.106c 0.546 -0.598 1.222 -0.897 2.028 -0.897c 0.741 0 1.313 0.26 1.703 0.767c 0.325 0.429 0.481 0.741 0.481 0.949c 0 0.13 -0.078 0.195 -0.221 0.195c -0.104 0 -0.169 -0.065 -0.208 -0.208c -0.286 -0.858 -0.845 -1.287 -1.677 -1.287c -0.585 0 -1.04 0.273 -1.391 0.832c -0.247 0.403 -0.364 1.014 -0.377 1.846h 3.51c 0.286 0 0.364 0.026 0.364 0.312Z m -1.157 1.274c 0.143 -0.429 0.208 -0.845 0.208 -1.222h -2.912c 0.039 0.858 0.26 1.443 0.65 1.742c 0.325 0.26 0.611 0.39 0.884 0.39c 0.585 0 0.975 -0.299 1.17 -0.91Z "/></symbol><symbol id="gBC3D9C1A249D0D4F874E09900DF515A4" overflow="visible"><path d="M 0 0m 1.872 0.039l 1.443 -0.039v 0.507c -0.468 0 -0.754 0.013 -0.845 0.065c -0.091 0.052 -0.13 0.208 -0.13 0.455v 7.995l -1.911 -0.143v -0.494c 0.455 0 0.741 -0.039 0.832 -0.117c 0.091 -0.078 0.143 -0.26 0.143 -0.559v -6.682c 0 -0.247 -0.039 -0.403 -0.13 -0.455c -0.091 -0.052 -0.377 -0.065 -0.845 -0.065v -0.507Z "/></symbol><symbol id="gCCDACA59E6D598A65CF16A9645890FC7" overflow="visible"><path d="M 0 0m 4.732 4.914c 0 0.507 -0.481 0.832 -0.988 0.832c -0.663 0 -1.17 -0.39 -1.508 -1.183v 1.183l -1.872 -0.143v -0.494c 0.455 0 0.728 -0.039 0.832 -0.117c 0.104 -0.078 0.156 -0.247 0.156 -0.546v -3.419c 0 -0.247 -0.039 -0.403 -0.13 -0.455c -0.091 -0.052 -0.377 -0.078 -0.858 -0.078v -0.494l 1.495 0.039c 0.546 0.013 1.105 0 1.664 -0.039v 0.494h -0.312c -0.429 0 -0.702 0.039 -0.793 0.104c -0.091 0.065 -0.13 0.221 -0.13 0.455v 1.963c 0 0.559 0.104 1.066 0.299 1.495c 0.26 0.559 0.637 0.845 1.144 0.858c -0.13 -0.13 -0.195 -0.286 -0.195 -0.468c 0 -0.403 0.195 -0.598 0.598 -0.598c 0.351 0 0.598 0.273 0.598 0.611Z "/></symbol><symbol id="g5D4DFCA3C00979A1E9076032CC813B65" overflow="visible"><path d="M 0 0m 3.237 -0.143c 0.806 0 1.482 0.286 2.041 0.858c 0.559 0.572 0.845 1.261 0.845 2.067c 0 0.819 -0.273 1.534 -0.819 2.132c -0.546 0.598 -1.235 0.91 -2.054 0.91c -0.819 0 -1.495 -0.312 -2.054 -0.91c -0.559 -0.598 -0.832 -1.313 -0.832 -2.132c 0 -0.806 0.273 -1.495 0.832 -2.067c 0.559 -0.572 1.248 -0.858 2.041 -0.858Z m 0.013 0.416c -0.624 0 -1.092 0.273 -1.417 0.832c -0.208 0.364 -0.312 0.962 -0.312 1.781c 0 0.793 0.104 1.365 0.299 1.729c 0.312 0.559 0.78 0.832 1.417 0.832c 0.611 0 1.079 -0.273 1.404 -0.806c 0.221 -0.364 0.325 -0.949 0.325 -1.755c 0 -1.508 -0.442 -2.613 -1.716 -2.613Z "/></symbol></defs></svg>