<svg class="typst-doc" viewBox="0 0 269.5739222222222 20.036900000000003" width="269.5739222222222pt" height="20.036900000000003pt" xmlns="http://www.w3.org/2000/svg" xmlns:xlink="http://www.w3.org/1999/xlink" xmlns:h5="http://www.w3.org/1999/xhtml">
    <g>
        <g class="typst-group">
            <g>
                <g class="typst-text" transform="matrix(1 0 0 -1 6.5 13.6149)">
                    <use xlink:href="#g4188B69C947E3AC4F60DE4B9B338F368" x="0" y="0" fill="#e6edf3" fill-rule="nonzero"/>
                </g>
                <g class="typst-text" transform="matrix(1 0 0 -1 12.74 8.895900000000001)">
                    <use xlink:href="#g7C797EB88BB28F181E56EDADD7AB9E3C" x="0" y="0" fill="#e6edf3" fill-rule="nonzero"/>
                </g>
                <g class="typst-text" transform="matrix(1 0 0 -1 20.78281111111111 13.6149)">
                    <use xlink:href="#g17B9629AC1C3FA19683E9944E21FFB4D" x="0" y="0" fill="#e6edf3" fill-rule="nonzero"/>
                </g>
                <g class="typst-text" transform="matrix(1 0 0 -1 34.50792222222222 13.6149)">
                    <use xlink:href="#gC28496685373E45DD49FD701EAB20365" x="0" y="0" fill="#e6edf3" fill-rule="nonzero"/>
                </g>
                <g class="typst-text" transform="matrix(1 0 0 -1 44.621922222222224 13.6149)">
                    <use xlink:href="#g4188B69C947E3AC4F60DE4B9B338F368" x="0" y="0" fill="#e6edf3" fill-rule="nonzero"/>
                </g>
                <g class="typst-text" transform="matrix(1 0 0 -1 63.86192222222222 13.6149)">
                    <use xlink:href="#gD92DB67A408E799D15410A5B6D878594" x="0" y="0" fill="#e6edf3" fill-rule="nonzero"/>
                    <use xlink:href="#gB089145F35A87DB159FBA372DFA6E27" x="10.816" y="0" fill="#e6edf3" fill-rule="nonzero"/>
                    <use xlink:href="#g2857AF76847B75D034D5FE2AA83D6F85" x="18.044" y="0" fill="#e6edf3" fill-rule="nonzero"/>
                    <use xlink:href="#g7A745BBF091503CDB6E5FA1E46BC098B" x="21.658" y="0" fill="#e6edf3" fill-rule="nonzero"/>
                    <use xlink:href="#g8199F55A8210667120A51E0B0215F144" x="26.78" y="0" fill="#e6edf3" fill-rule="nonzero"/>
                    <use xlink:href="#gD92DB67A408E799D15410A5B6D878594" x="31.837000000000003" y="0" fill="#e6edf3" fill-rule="nonzero"/>
                    <use xlink:href="#gADE7201287956874359C1BD5EE441F81" x="38.337" y="0" fill="#e6edf3" fill-rule="nonzero"/>
                    <use xlink:href="#gE629FA939499B278DF357B437BF3863F" x="45.565000000000005" y="0" fill="#e6edf3" fill-rule="nonzero"/>
                    <use xlink:href="#g2857AF76847B75D034D5FE2AA83D6F85" x="51.337" y="0" fill="#e6edf3" fill-rule="nonzero"/>
                    <use xlink:href="#gD92DB67A408E799D15410A5B6D878594" x="54.951" y="0" fill="#e6edf3" fill-rule="nonzero"/>
                </g>
                <g class="typst-text" transform="matrix(1 0 0 -1 129.6289222222222 13.6149)">
                    <use xlink:href="#g8E93B10FEF027B75408F889DB60282B9" x="0" y="0" fill="#e6edf3" fill-rule="nonzero"/>
                </g>
                <g class="typst-text" transform="matrix(1 0 0 -1 141.0169222222222 13.6149)">
                    <use xlink:href="#gD92DB67A408E799D15410A5B6D878594" x="0" y="0" fill="#e6edf3" fill-rule="nonzero"/>
                    <use xlink:href="#g3B96C5C602FE12D74D6BA87BE1205742" x="6.5" y="0" fill="#e6edf3" fill-rule="nonzero"/>
                    <use xlink:href="#g7E5FAB112947697098C6BCA8BD62643C" x="14.430000000000001" y="0" fill="#e6edf3" fill-rule="nonzero"/>
                    <use xlink:href="#g8199F55A8210667120A51E0B0215F144" x="20.93" y="0" fill="#e6edf3" fill-rule="nonzero"/>
                    <use xlink:href="#g7A539EE3AFC5D38C54077CD4BFEE93B4" x="25.987000000000002" y="0" fill="#e6edf3" fill-rule="nonzero"/>
                    <use xlink:href="#g7E5FAB112947697098C6BCA8BD62643C" x="31.083000000000002" y="0" fill="#e6edf3" fill-rule="nonzero"/>
                    <use xlink:href="#g3B96C5C602FE12D74D6BA87BE1205742" x="41.899" y="0" fill="#e6edf3" fill-rule="nonzero"/>
                    <use xlink:href="#gD92DB67A408E799D15410A5B6D878594" x="45.513" y="0" fill="#e6edf3" fill-rule="nonzero"/>
                    <use xlink:href="#gB089145F35A87DB159FBA372DFA6E27" x="52.013" y="0" fill="#e6edf3" fill-rule="nonzero"/>
                    <use xlink:href="#g7E5FAB112947697098C6BCA8BD62643C" x="59.241" y="0" fill="#e6edf3" fill-rule="nonzero"/>
                    <use xlink:href="#gB089145F35A87DB159FBA372DFA6E27" x="70.057" y="0" fill="#e6edf3" fill-rule="nonzero"/>
                    <use xlink:href="#gFB5E0D986925005F0D1198F34DBA6094" x="77.285" y="0" fill="#e6edf3" fill-rule="nonzero"/>
                    <use xlink:href="#g3B96C5C602FE12D74D6BA87BE1205742" x="83.057" y="0" fill="#e6edf3" fill-rule="nonzero"/>
                    <use xlink:href="#gEF241D555C704A018D926E3E29E8C13B" x="90.98700000000001" y="0" fill="#e6edf3" fill-rule="nonzero"/>
                    <use xlink:href="#g3B96C5C602FE12D74D6BA87BE1205742" x="98.215" y="0" fill="#e6edf3" fill-rule="nonzero"/>
                    <use xlink:href="#gD92DB67A408E799D15410A5B6D878594" x="101.82900000000001" y="0" fill="#e6edf3" fill-rule="nonzero"/>
                    <use xlink:href="#gADE7201287956874359C1BD5EE441F81" x="108.32900000000001" y="0" fill="#e6edf3" fill-rule="nonzero"/>
                    <use xlink:href="#g7E5FAB112947697098C6BCA8BD62643C" x="115.557" y="0" fill="#e6edf3" fill-rule="nonzero"/>
                </g>
            </g>
        </g>
    </g>
    <defs id="glyph">
        <symbol id="g4188B69C947E3AC4F60DE4B9B338F368" overflow="visible">
            <path d="M 0 0m 4.836 4.901 c -0.25999975 0.559 -0.6630001 0.84500027 -1.1959999 0.84500027 c -0.845 0 -1.586 -0.42900038 -2.223 -1.3000002 c -0.59800005 -0.806 -0.8970001 -1.638 -0.8970001 -2.509 c 0 -1.131 0.6500001 -2.106 1.7290001 -2.106 c 0.46799994 0 0.9360001 0.221 1.417 0.663 l -0.533 -2.132 c -0.039000034 -0.19500005 -0.15600014 -0.31200004 -0.33800006 -0.35100007 c -0.06500006 -0.013000011 -0.23399997 -0.026000023 -0.533 -0.026000023 c -0.07800007 -0.013000011 -0.13000011 -0.013000011 -0.15600014 -0.013000011 c -0.116999865 -0.013000011 -0.18199992 -0.116999865 -0.18199992 -0.29900002 v -0.051999807 c 0.039000034 -0.09100008 0.1170001 -0.14300013 0.22099996 -0.14300013 c 0.24699998 0 1.0270002 0.039000034 1.2740002 0.039000034 c 0.24699998 0 1.066 -0.039000034 1.3129997 -0.039000034 c 0.18200016 0 0.27300024 0.10400009 0.27300024 0.31200004 c 0 0.13000011 -0.13000011 0.19499993 -0.37699986 0.19499993 c -0.2340002 0 -0.559 -0.013000011 -0.559 0.14300013 c 0 0.051999927 0.013000011 0.14299989 0.052000046 0.273 l 1.7549996 7.15 c 0 0.1170001 -0.06499958 0.18200016 -0.18199968 0.18200016 c -0.2340002 0 -0.72800016 -0.6500001 -0.8580003 -0.83200026 Z m -0.4159999 -0.052000046 c 0.1170001 -0.27299976 0.18200016 -0.45499992 0.18200016 -0.572 c 0 -0.013000011 -0.013000011 -0.09100008 -0.039000034 -0.2079997 l -0.31200027 -1.2610002 c -0.24699974 -0.9360001 -0.36399984 -1.417 -0.37699986 -1.4430001 c -0.24699998 -0.45499998 -0.9619999 -1.1570001 -1.586 -1.1570001 c -0.5070001 0 -0.7670001 0.39 -0.7670001 1.1570001 c 0 0.59800005 0.403 2.0540001 0.5849999 2.535 c 0.24700022 0.61100006 0.819 1.4559999 1.5340002 1.4559999 c 0.35100007 0 0.6109998 -0.16899967 0.78 -0.50699997 Z "/>
        </symbol>
        <symbol id="g7C797EB88BB28F181E56EDADD7AB9E3C" overflow="visible">
            <path d="M 0 0m 2.5844002 4.9959 c -0.22749996 0 -0.3822 -0.09100008 -0.46410012 -0.28209972 l -1.5288 -3.8402004 h 0.4095 l 2.0202003 3.3397002 c 0.04550004 0.08190012 0.07279992 0.17289972 0.07279992 0.27299976 c 0 0.27300024 -0.23659992 0.50960016 -0.5095999 0.50960016 Z "/>
        </symbol>
        <symbol id="g17B9629AC1C3FA19683E9944E21FFB4D" overflow="visible">
            <path d="M 0 0m 9.074 4.771 h -8.034 c -0.20799994 0 -0.31199992 -0.103999615 -0.31199992 -0.2989998 c 0 -0.19500017 0.10399997 -0.29900026 0.31199992 -0.29900026 h 8.034 c 0.20800018 0 0.31200027 0.10400009 0.31200027 0.29900026 c 0 0.15600014 -0.1430006 0.2989998 -0.31200027 0.2989998 Z m 0 -2.4439998 h -8.034 c -0.20799994 0 -0.31199992 -0.10400009 -0.31199992 -0.29900002 c 0 -0.19500005 0.10399997 -0.29900002 0.31199992 -0.29900002 h 8.034 c 0.20800018 0 0.31200027 0.10399997 0.31200027 0.29900002 c 0 0.16899991 -0.1430006 0.29900002 -0.31200027 0.29900002 Z "/>
        </symbol>
        <symbol id="gC28496685373E45DD49FD701EAB20365" overflow="visible">
            <path d="M 0 0m 9.074 3.51 h -8.034 c -0.20799994 0 -0.31199992 -0.09099984 -0.31199992 -0.26 c 0 -0.16899991 0.10399997 -0.26 0.31199992 -0.26 h 8.034 c 0.20800018 0 0.31200027 0.09100008 0.31200027 0.26 c 0 0.15600014 -0.15600014 0.26 -0.31200027 0.26 Z "/>
        </symbol>
        <symbol id="gD92DB67A408E799D15410A5B6D878594" overflow="visible">
            <path d="M 0 0m 6.2790003 1.183 v 0.7670001 h -0.41600037 v -0.7670001 c 0 -0.50699997 -0.14299965 -0.76699996 -0.4159999 -0.76699996 c -0.25999975 0 -0.4159999 0.325 -0.4159999 0.58500004 v 2.5609999 c 0 0.45500016 -0.052000046 0.793 -0.14300013 1.0270002 c -0.3119998 0.7669997 -1.2089999 1.2350001 -2.119 1.2350001 c -1.001 0 -1.9890001 -0.559 -1.9890001 -1.4950004 c 0 -0.4289999 0.22100002 -0.64999986 0.65000004 -0.64999986 c 0.42900002 0 0.6370001 0.20799994 0.6370001 0.63699985 c 0 0.37700033 -0.19500017 0.59800005 -0.59800017 0.6370001 c 0.286 0.3249998 0.71500003 0.49399996 1.274 0.49399996 c 0.806 0 1.3000002 -0.7409997 1.3000002 -1.586 v -0.4289999 c -1.0140002 -0.06500006 -1.7810001 -0.2210002 -2.3140001 -0.46800017 c -0.87100005 -0.40299988 -1.3130001 -0.9619999 -1.3130001 -1.703 c 0 -0.338 0.13 -0.624 0.37700003 -0.845 c 0.41599995 -0.377 0.988 -0.559 1.7160001 -0.559 c 0.76699996 0 1.313 0.32500002 1.6509998 0.98800004 c 0.09100008 -0.49400002 0.4550004 -0.92300004 1.0140004 -0.92300004 c 0.68899965 0 1.105 0.546 1.105 1.2609999 Z m -3.6790001 -0.949 c -0.59800005 0 -1.0920001 0.442 -1.0920001 1.0400001 c 0 1.209 1.261 1.729 2.5350003 1.794 v -1.235 c 0 -0.87100005 -0.57200027 -1.5990001 -1.4430001 -1.5990001 Z "/>
        </symbol>
        <symbol id="gB089145F35A87DB159FBA372DFA6E27" overflow="visible">
            <path d="M 0 0m 4.862 -0.143 l 1.9890003 0.143 v 0.49400002 c -0.4680004 0 -0.7410002 0.025999963 -0.84500027 0.10399997 c -0.10400009 0.07800001 -0.15600014 0.273 -0.15600014 0.5720001 v 7.852 l -1.9369998 -0.1430006 v -0.49399948 c 0.45499992 0 0.7410002 -0.03900051 0.8449998 -0.116999626 c 0.10400009 -0.07800007 0.14300013 -0.26000023 0.14300013 -0.5590005 v -2.639 c -0.4159999 0.48099995 -0.9359999 0.71500015 -1.56 0.71500015 c -0.806 0 -1.495 -0.28600025 -2.054 -0.8710003 c -0.559 -0.58500004 -0.845 -1.287 -0.845 -2.106 c 0 -0.793 0.26000002 -1.4820001 0.793 -2.0670002 c 0.533 -0.585 1.183 -0.884 1.976 -0.884 c 0.6630001 0 1.2220001 0.24700001 1.651 0.754 Z m -1.4689999 5.538 c 0.559 0 1.0139999 -0.24699974 1.3389997 -0.7409997 c 0.09100008 -0.14300013 0.13000011 -0.28600025 0.13000011 -0.4550004 v -2.626 c 0 -0.16900003 -0.039000034 -0.31200004 -0.13000011 -0.45500004 c -0.36399984 -0.58500004 -0.8579998 -0.87100005 -1.4689999 -0.87100005 c -0.533 0 -0.9619999 0.26000002 -1.3 0.793 c -0.23399997 0.3900001 -0.35100007 0.97500014 -0.35100007 1.7550001 c 0 1.4169998 0.48099995 2.6 1.7810001 2.6 Z "/>
        </symbol>
        <symbol id="g2857AF76847B75D034D5FE2AA83D6F85" overflow="visible">
            <path d="M 0 0m 2.522 7.813 c 0 0.38999987 -0.32500005 0.72800016 -0.71500003 0.72800016 c -0.39 0 -0.72800004 -0.3380003 -0.72800004 -0.72800016 c 0 -0.38999987 0.32500005 -0.7410002 0.71500003 -0.7410002 c 0.403 0 0.72800004 0.3380003 0.72800004 0.7410002 Z m -0.663 -7.774 l 1.3519999 -0.039 v 0.507 c -0.4289999 0 -0.6889999 0.025999963 -0.76699996 0.07800001 c -0.07800007 0.051999986 -0.10399985 0.195 -0.10399985 0.42900002 v 4.7710004 l -1.8590002 -0.15600014 v -0.49399996 c 0.42900002 0 0.70199996 -0.039000034 0.79300004 -0.10400009 c 0.09099996 -0.06500006 0.13 -0.24700022 0.13 -0.546 v -3.4580002 c 0 -0.24700004 -0.039000034 -0.40300006 -0.13 -0.45500004 c -0.09100008 -0.052000046 -0.37700003 -0.065 -0.845 -0.065 v -0.507 Z "/>
        </symbol>
        <symbol id="g7A745BBF091503CDB6E5FA1E46BC098B" overflow="visible">
            <path d="M 0 0m 4.6800003 1.69 c 0 0.9879999 -0.6760001 1.612 -2.0150003 1.872 c -0.6109998 0.1170001 -1.0009999 0.26 -1.2089999 0.40300012 c -0.20800006 0.14300013 -0.31200004 0.35099983 -0.31200004 0.59800005 c 0 0.61100006 0.45499992 0.90999985 1.365 0.90999985 c 0.88400006 0 1.365 -0.49399996 1.4300001 -1.4949999 c 0.013000011 -0.10400009 0.07800007 -0.15600014 0.20800018 -0.15600014 c 0.14299965 0 0.22099972 0.1170001 0.22099972 0.35099983 v 1.2870002 c 0 0.24700022 -0.06500006 0.36400032 -0.19500017 0.36400032 c -0.14299965 0 -0.33799982 -0.2340002 -0.4679997 -0.3380003 c -0.32500005 0.2210002 -0.72800016 0.3380003 -1.1960001 0.3380003 c -1.1570001 0 -2.08 -0.52000046 -2.08 -1.6250005 c 0 -0.4419999 0.18199998 -0.81899977 0.559 -1.1179998 c 0.45500004 -0.3770001 0.88399994 -0.45499992 1.703 -0.59800005 c 0.845 -0.16899991 1.2740002 -0.546 1.2740002 -1.131 c 0 -0.741 -0.45500016 -1.118 -1.378 -1.118 c -0.8970001 0 -1.4690001 0.59800005 -1.7160001 1.7810001 c -0.038999975 0.16899991 -0.10399997 0.26 -0.22099996 0.26 c -0.143 0 -0.22100002 -0.13000011 -0.22100002 -0.3770001 v -1.677 c 0 -0.24700001 0.065 -0.36400002 0.195 -0.36400002 c 0.038999975 0 0.10400003 0.039000005 0.208 0.13000001 c 0.23399997 0.208 0.13 0.169 0.36399996 0.40300003 c 0.3770001 -0.351 0.84500015 -0.533 1.3910002 -0.533 c 1.2349999 0 2.0930002 0.637 2.0930002 1.8330001 Z "/>
        </symbol>
        <symbol id="g8199F55A8210667120A51E0B0215F144" overflow="visible">
            <path d="M 0 0m 4.316 1.638 v 0.78 h -0.4159999 v -0.75399995 c 0 -0.65 -0.23399997 -1.378 -0.806 -1.378 c -0.533 0 -0.793 0.44200003 -0.793 1.326 v 3.5230002 h 1.8070002 v 0.49399996 h -1.8070002 v 2.3660002 h -0.41600013 c -0.013000011 -0.42900038 -0.051999927 -0.80600023 -0.143 -1.144 c -0.22099996 -0.8580003 -0.7279999 -1.3000002 -1.495 -1.3390002 v -0.37699986 h 1.079 v -3.4970002 c 0 -0.767 0.23400009 -1.261 0.6890001 -1.508 c 0.35099983 -0.182 0.6759999 -0.273 1.0009999 -0.273 c 0.85800004 0 1.3 0.85800004 1.3 1.781 Z "/>
        </symbol>
        <symbol id="gADE7201287956874359C1BD5EE441F81" overflow="visible">
            <path d="M 0 0m 4.0820003 5.369 c 0.58500004 0 0.8839998 -0.45499992 0.8839998 -1.3779998 v -2.9640002 c 0 -0.24700004 -0.039000034 -0.40300006 -0.13000011 -0.45500004 c -0.09100008 -0.052000046 -0.37699986 -0.07800001 -0.8579998 -0.07800001 v -0.49400002 l 1.4949999 0.039 l 1.4819999 -0.039 v 0.49400002 c -0.4159999 0 -0.68899965 0.013000011 -0.81899977 0.051999986 c -0.13000011 0.039000034 -0.18200016 0.13 -0.18200016 0.286 v 2.431 c 0 0.61100006 -0.013000011 1.04 -0.052000046 1.2870002 c -0.12999964 0.79299974 -0.7149997 1.1960001 -1.7420001 1.1960001 c -0.81899977 0 -1.4299998 -0.39000034 -1.8329997 -1.1700001 v 1.1700001 l -1.9110001 -0.14300013 v -0.49399996 c 0.468 0 0.75400007 -0.039000034 0.85800004 -0.1170001 c 0.10399997 -0.07800007 0.143 -0.24700022 0.143 -0.546 v -3.4190001 c 0 -0.24700004 -0.052000046 -0.40300006 -0.143 -0.45500004 c -0.09100008 -0.052000046 -0.37700003 -0.07800001 -0.85800004 -0.07800001 v -0.49400002 l 1.495 0.039 l 1.4820001 -0.039 v 0.49400002 c -0.48099995 0 -0.7540002 0.025999963 -0.845 0.07800001 c -0.09100008 0.051999986 -0.14300013 0.208 -0.14300013 0.45500004 v 2.3400002 c 0 1.053 0.6630001 2.0019999 1.6770003 2.0019999 Z "/>
        </symbol>
        <symbol id="gE629FA939499B278DF357B437BF3863F" overflow="visible">
            <path d="M 0 0m 3.263 5.408 c 0.546 0 0.9619999 -0.13000011 1.2480001 -0.38999987 c -0.31200027 -0.039000034 -0.533 -0.3249998 -0.533 -0.6240001 c 0 -0.4289999 0.2079997 -0.6370001 0.6370001 -0.6370001 c 0.4289999 0 0.6370001 0.2210002 0.6370001 0.6500001 c 0 0.92299986 -1.0010004 1.4170003 -2.0020003 1.4170003 c -0.806 0 -1.469 -0.28600025 -2.0019999 -0.8840003 c -0.533 -0.59800005 -0.806 -1.313 -0.806 -2.132 c 0 -0.793 0.27300003 -1.495 0.806 -2.08 c 0.533 -0.58500004 1.183 -0.87100005 1.976 -0.87100005 c 0.6500001 0 1.1570001 0.18200001 1.5209999 0.559 c 0.29900026 0.29900002 0.49400043 0.59800005 0.59800005 0.90999997 c 0.039000034 0.1170001 0.052000046 0.19500005 0.052000046 0.2470001 c 0 0.116999984 -0.07800007 0.16899991 -0.22099972 0.16899991 c -0.10400009 0 -0.16900015 -0.051999927 -0.20800018 -0.1559999 c -0.27299976 -0.87100005 -0.80600023 -1.3130001 -1.625 -1.3130001 c -0.3770001 0 -0.74099994 0.169 -1.105 0.52000004 c -0.42900002 0.40299994 -0.6370001 1.079 -0.6370001 2.0410001 c 0 1.3000002 0.49399996 2.574 1.664 2.574 Z "/>
        </symbol>
        <symbol id="g8E93B10FEF027B75408F889DB60282B9" overflow="visible">
            <path d="M 0 0m 5.577 8.216001 l -0.7670002 -3.1590004 c -0.27299976 0.48099995 -0.6500001 0.72800016 -1.1569998 0.72800016 c -0.845 0 -1.586 -0.42900038 -2.236 -1.3000002 c -0.59800005 -0.806 -0.8970001 -1.651 -0.8970001 -2.522 c 0 -1.144 0.663 -2.106 1.7550001 -2.106 c 0.559 0 1.105 0.29900002 1.625 0.91 c 0.14300013 -0.49400002 0.58500004 -0.91 1.1960001 -0.91 c 0.89699984 0 1.1830001 1.066 1.3779998 2.0279999 c 0 0.1170001 -0.06500006 0.18200016 -0.1949997 0.18200016 c -0.1170001 0 -0.19500017 -0.09100008 -0.2340002 -0.27300012 c -0.25999975 -1.027 -0.572 -1.547 -0.92299986 -1.547 c -0.2210002 0 -0.3380003 0.18200001 -0.3380003 0.533 c 0 0.195 0.026000023 0.40299994 0.07800007 0.611 l 1.8460002 7.436001 v 0.051999092 c -0.039000034 0.09100056 -0.1170001 0.1430006 -0.2210002 0.1430006 c -0.2989998 0 -0.8449998 -0.052000046 -1.625 -0.1430006 c -0.14300013 -0.012999535 -0.22099972 -0.116999626 -0.22099972 -0.2989998 c 0 -0.13000011 0.116999626 -0.1949997 0.35099983 -0.1949997 c 0.24700022 0 0.58500004 0.012999535 0.58500004 -0.16899967 Z m -1.144 -3.3280005 c 0.13000011 -0.27299976 0.19500017 -0.45499992 0.19500017 -0.572 c -0.013000011 -0.052000046 -0.026000023 -0.1170001 -0.039000034 -0.2079997 l -0.6370001 -2.5220003 c -0.039000034 -0.143 -0.13000011 -0.29900002 -0.24699998 -0.45500004 c -0.48100019 -0.58500004 -0.9490001 -0.88400006 -1.404 -0.88400006 c -0.5070001 0 -0.7670001 0.39000002 -0.7670001 1.1570001 c 0 0.31200004 0.07799995 0.78 0.23399997 1.404 c 0.27300012 1.105 0.663 1.8590002 1.1440002 2.262 c 0.26 0.22099972 0.50699997 0.3249998 0.75399995 0.3249998 c 0.35100007 0 0.6109998 -0.16899967 0.76699996 -0.50699997 Z "/>
        </symbol>
        <symbol id="g3B96C5C602FE12D74D6BA87BE1205742" overflow="visible">
            <path d="M 0 0m 1.872 0.039 l 1.4430001 -0.039 v 0.507 c -0.46799994 0 -0.75399995 0.012999952 -0.845 0.065 c -0.09100008 0.051999986 -0.12999988 0.208 -0.12999988 0.45500004 v 7.9950004 l -1.9110001 -0.1430006 v -0.49399948 c 0.45499998 0 0.74100006 -0.03900051 0.832 -0.116999626 c 0.09099996 -0.07800007 0.143 -0.26000023 0.143 -0.5590005 v -6.682 c 0 -0.24700004 -0.039000034 -0.40300006 -0.13 -0.45500004 c -0.09100008 -0.052000046 -0.37700003 -0.065 -0.845 -0.065 v -0.507 Z "/>
        </symbol>
        <symbol id="g7E5FAB112947697098C6BCA8BD62643C" overflow="visible">
            <path d="M 0 0m 3.237 -0.143 c 0.80600023 0 1.4819999 0.286 2.041 0.85800004 c 0.559 0.572 0.84500027 1.261 0.84500027 2.067 c 0 0.819 -0.27300024 1.5339999 -0.81900024 2.132 c -0.546 0.59800005 -1.2349997 0.9100003 -2.054 0.9100003 c -0.819 0 -1.495 -0.31200027 -2.054 -0.9100003 c -0.55899996 -0.59800005 -0.83199996 -1.313 -0.83199996 -2.132 c 0 -0.806 0.273 -1.495 0.83199996 -2.067 c 0.559 -0.572 1.248 -0.85800004 2.041 -0.85800004 Z m 0.013000011 0.416 c -0.62399983 0 -1.092 0.273 -1.4169999 0.832 c -0.20800006 0.36399996 -0.31200004 0.96200013 -0.31200004 1.7810001 c 0 0.793 0.10399997 1.3649998 0.29900002 1.7290001 c 0.31199992 0.559 0.7800001 0.8319998 1.4169999 0.8319998 c 0.61100006 0 1.079 -0.27299976 1.4040003 -0.80599976 c 0.22099972 -0.36400032 0.3249998 -0.9490001 0.3249998 -1.7550001 c 0 -1.5080001 -0.4419999 -2.6130002 -1.7160001 -2.6130002 Z "/>
        </symbol>
        <symbol id="g7A539EE3AFC5D38C54077CD4BFEE93B4" overflow="visible">
            <path d="M 0 0m 4.732 4.914 c 0 0.50699997 -0.48099995 0.83200026 -0.9879999 0.83200026 c -0.66299987 0 -1.1699998 -0.39000034 -1.5079999 -1.1830001 v 1.1830001 l -1.872 -0.14300013 v -0.49399996 c 0.45499998 0 0.728 -0.039000034 0.83199996 -0.1170001 c 0.10400009 -0.07800007 0.15600002 -0.24700022 0.15600002 -0.546 v -3.4190001 c 0 -0.24700004 -0.038999915 -0.40300006 -0.13 -0.45500004 c -0.09099996 -0.052000046 -0.37699997 -0.07800001 -0.858 -0.07800001 v -0.49400002 l 1.4950001 0.039 c 0.5459999 0.013 1.1049999 0 1.6639999 -0.039 v 0.49400002 h -0.31200004 c -0.4289999 0 -0.7019999 0.038999975 -0.793 0.10399997 c -0.09099984 0.065 -0.12999988 0.22100002 -0.12999988 0.45499998 v 1.963 c 0 0.559 0.10399985 1.0660002 0.29900002 1.4950001 c 0.26 0.559 0.63699985 0.8449998 1.144 0.8579998 c -0.13000011 -0.12999964 -0.19500017 -0.28599977 -0.19500017 -0.46799994 c 0 -0.40299988 0.19500017 -0.59800005 0.5980003 -0.59800005 c 0.35099983 0 0.5979996 0.27300024 0.5979996 0.61100006 Z "/>
        </symbol>
        <symbol id="gFB5E0D986925005F0D1198F34DBA6094" overflow="visible">
            <path d="M 0 0m 5.395 3.263 c 0 1.4949999 -0.8709998 2.5610003 -2.327 2.5610003 c -0.78 0 -1.4300001 -0.29900026 -1.963 -0.9100003 c -0.49400002 -0.572 -0.741 -1.2609999 -0.741 -2.054 c 0 -0.819 0.273 -1.5080001 0.81899995 -2.1060002 c 0.5460001 -0.598 1.222 -0.897 2.0279999 -0.897 c 0.7410002 0 1.3130002 0.26 1.7030001 0.767 c 0.3250003 0.42899996 0.48099995 0.741 0.48099995 0.94900006 c 0 0.13 -0.07800007 0.19499993 -0.22099972 0.19499993 c -0.10400009 0 -0.16900015 -0.06499994 -0.20800018 -0.20799994 c -0.28599977 -0.85800004 -0.8449998 -1.2870001 -1.677 -1.2870001 c -0.58500004 0 -1.04 0.273 -1.391 0.832 c -0.24699998 0.403 -0.36399996 1.0139999 -0.37699997 1.846 h 3.5100002 c 0.28599977 0 0.36399984 0.026000023 0.36399984 0.31200004 Z m -1.1570001 1.2740002 c 0.14300013 -0.4289999 0.20800018 -0.845 0.20800018 -1.2220001 h -2.9120002 c 0.039000034 0.8579998 0.26 1.4429998 0.65 1.7420001 c 0.32500005 0.25999975 0.61100006 0.38999987 0.88400006 0.38999987 c 0.58500004 0 0.97500014 -0.2989998 1.1699998 -0.90999985 Z "/>
        </symbol>
        <symbol id="gEF241D555C704A018D926E3E29E8C13B" overflow="visible">
            <path d="M 0 0m 3.874 -0.169 c 0.80600023 0 1.4949999 0.286 2.054 0.87100005 c 0.559 0.58500004 0.84500027 1.274 0.84500027 2.093 c 0 0.793 -0.26000023 1.4689999 -0.7670002 2.041 c -0.533 0.61100006 -1.1830001 0.9100003 -1.9629998 0.9100003 c -0.6630001 0 -1.2350001 -0.26000023 -1.7290001 -0.7670002 v 0.7670002 l -1.95 -0.14300013 v -0.49399996 c 0.481 0 0.767 -0.026000023 0.858 -0.09100008 c 0.09100008 -0.06500006 0.143 -0.2340002 0.143 -0.50699997 v -6.006 c 0 -0.24699998 -0.051999927 -0.403 -0.143 -0.45500004 c -0.09099996 -0.052000046 -0.37699997 -0.06500006 -0.858 -0.06500006 v -0.50699997 l 1.4820001 0.039000034 l 1.495 -0.039000034 v 0.50699997 c -0.48099995 0 -0.75399995 0.013000011 -0.845 0.06500006 c -0.09100008 0.052000046 -0.14299989 0.20800006 -0.14299989 0.45500004 v 2.067 c 0.28599977 -0.40300003 0.8449998 -0.74100006 1.5209999 -0.74100006 Z m 0.07800007 5.486 c 0.533 0 0.9489999 -0.2989998 1.2740002 -0.89699984 c 0.24699974 -0.50699997 0.37699986 -1.04 0.37699986 -1.625 c 0 -0.61100006 -0.14300013 -1.1700001 -0.4289999 -1.677 c -0.3380003 -0.611 -0.7930002 -0.91 -1.3520002 -0.91 c -0.546 0 -0.9749999 0.26 -1.3 0.767 c -0.1170001 0.16900003 -0.16899991 0.33800006 -0.16899991 0.50699997 v 2.8470001 c 0.37699986 0.6630001 0.90999985 0.9879999 1.599 0.9879999 Z "/>
        </symbol>
    </defs>
</svg>
