<svg viewBox="0 0 334.875666667 37.349" width="334.875666667pt" height="37.349pt" xmlns="http://www.w3.org/2000/svg" xmlns:xlink="http://www.w3.org/1999/xlink" xmlns:h5="http://www.w3.org/1999/xhtml"><g transform="matrix(1 0 0 -1 6.5 22.009)"><use xlink:href="#gAF39B06637020F254AB7B881282CA7F5" x="0" y="0" fill="#e6edf3" fill-rule="nonzero"/></g><g transform="matrix(1 0 0 -1 13.234 22.009)"><use xlink:href="#g53251C539233983FE9FC826CA7FBAC4A" x="0" y="0" fill="#e6edf3" fill-rule="nonzero"/></g><g transform="matrix(1 0 0 -1 27.206111111 22.009)"><use xlink:href="#g13AFF74D87C474CFAF661EEAD0458F8B" x="0" y="0" fill="#e6edf3" fill-rule="nonzero"/></g><g transform="matrix(1 0 0 -1 40.931222222 22.009)"><use xlink:href="#gCD18A55F4CC2CA429D96672C565B9565" x="0" y="0" fill="#e6edf3" fill-rule="nonzero"/></g><g transform="matrix(1 0 0 -1 47.704222222 25.22)"><use xlink:href="#gC7B20184179011BBC954B5E7CD84FB69" x="0" y="0" fill="#e6edf3" fill-rule="nonzero"/></g><g transform="matrix(1 0 0 -1 56.285522222 22.009)"><use xlink:href="#g2D1FD5FA7721AD843D67732819992226" x="0" y="0" fill="#e6edf3" fill-rule="nonzero"/></g><g transform="matrix(1 0 0 -1 67.968188889 22.009)"><use xlink:href="#gBC3D9C1A249D0D4F874E09900DF515A4" x="0" y="0" fill="#e6edf3" fill-rule="nonzero"/><use xlink:href="#gA2276AEFE9378953E87817A497BFC175" x="3.614" y="0" fill="#e6edf3" fill-rule="nonzero"/></g><g transform="matrix(1 0 0 -1 80.976855556 22.009)"><use xlink:href="#g1CE04A25735CA0B16D3552FAC569C2C6" x="0" y="0" fill="#e6edf3" fill-rule="nonzero"/></g><g transform="matrix(1 0 0 -1 115.647855556 22.009)"><use xlink:href="#g2F389E882241F7D883BD9BE49B9B556F" x="0" y="0" fill="#e6edf3" fill-rule="nonzero"/></g><g transform="matrix(1 0 0 -1 120.704855556 22.009)"><use xlink:href="#gACA2FE1DD062579B79E6E19150F5B03F" x="0" y="0" fill="#e6edf3" fill-rule="nonzero"/></g><g transform="matrix(1 0 0 -1 132.521855556 22.009)"><use xlink:href="#g77D2A3BE49641BC9FE86B31DAB4932B4" x="0" y="0" fill="#e6edf3" fill-rule="nonzero"/></g><g transform="matrix(1 0 0 -1 141.189966667 22.009)"><use xlink:href="#g13AFF74D87C474CFAF661EEAD0458F8B" x="0" y="0" fill="#e6edf3" fill-rule="nonzero"/></g><g transform="matrix(1 0 0 -1 154.915077778 22.009)"><use xlink:href="#gB7560AD8DFDE075CC650DFC2ACE08502" x="0" y="0" fill="#e6edf3" fill-rule="nonzero"/></g><g transform="matrix(1 0 0 -1 162.650077778 13.208)"><use xlink:href="#gECD202B73668A69AC8A33649F9D5BDE0" x="0" y="0" fill="#e6edf3" fill-rule="nonzero"/></g><g transform="matrix(1 0 0 -1 172.538744444 13.208)"><use xlink:href="#gBC3D9C1A249D0D4F874E09900DF515A4" x="0" y="0" fill="#e6edf3" fill-rule="nonzero"/><use xlink:href="#gA2276AEFE9378953E87817A497BFC175" x="3.614" y="0" fill="#e6edf3" fill-rule="nonzero"/></g><g transform="matrix(1 0 0 -1 185.547411111 13.208)"><use xlink:href="#g1CE04A25735CA0B16D3552FAC569C2C6" x="0" y="0" fill="#e6edf3" fill-rule="nonzero"/></g><g transform="matrix(1 0 0 -1 171.355744444 30.927)"><use xlink:href="#gECD202B73668A69AC8A33649F9D5BDE0" x="0" y="0" fill="#e6edf3" fill-rule="nonzero"/></g><g transform="matrix(1 0 0 -1 179.077744444 30.927)"><use xlink:href="#gB7560AD8DFDE075CC650DFC2ACE08502" x="0" y="0" fill="#e6edf3" fill-rule="nonzero"/></g><path fill="none" stroke="#e6edf3" stroke-width="0.624" stroke-linecap="butt" stroke-linejoin="miter" stroke-miterlimit="4" transform="translate(162.650077778 18.759)" d="M 0 0h 31.568333333"/><g transform="matrix(1 0 0 -1 221.518411111 22.009)"><use xlink:href="#g2F389E882241F7D883BD9BE49B9B556F" x="0" y="0" fill="#e6edf3" fill-rule="nonzero"/></g><g transform="matrix(1 0 0 -1 226.575411111 22.009)"><use xlink:href="#gF4455947FC057089CFA62E76F26386FD" x="0" y="0" fill="#e6edf3" fill-rule="nonzero"/></g><g transform="matrix(1 0 0 -1 236.871411111 22.009)"><use xlink:href="#g77D2A3BE49641BC9FE86B31DAB4932B4" x="0" y="0" fill="#e6edf3" fill-rule="nonzero"/></g><g transform="matrix(1 0 0 -1 245.539522222 22.009)"><use xlink:href="#g13AFF74D87C474CFAF661EEAD0458F8B" x="0" y="0" fill="#e6edf3" fill-rule="nonzero"/></g><g transform="matrix(1 0 0 -1 259.264633333 22.009)"><use xlink:href="#g9B543B57F718853EF8F95EF155B6CF69" x="0" y="0" fill="#e6edf3" fill-rule="nonzero"/></g><g transform="matrix(1 0 0 -1 270.678633333 13.208)"><use xlink:href="#gECD202B73668A69AC8A33649F9D5BDE0" x="0" y="0" fill="#e6edf3" fill-rule="nonzero"/></g><g transform="matrix(1 0 0 -1 280.5673 13.208)"><use xlink:href="#gBC3D9C1A249D0D4F874E09900DF515A4" x="0" y="0" fill="#e6edf3" fill-rule="nonzero"/><use xlink:href="#gA2276AEFE9378953E87817A497BFC175" x="3.614" y="0" fill="#e6edf3" fill-rule="nonzero"/></g><g transform="matrix(1 0 0 -1 293.575966667 13.208)"><use xlink:href="#g1CE04A25735CA0B16D3552FAC569C2C6" x="0" y="0" fill="#e6edf3" fill-rule="nonzero"/></g><g transform="matrix(1 0 0 -1 278.6888 30.927)"><use xlink:href="#gECD202B73668A69AC8A33649F9D5BDE0" x="0" y="0" fill="#e6edf3" fill-rule="nonzero"/></g><g transform="matrix(1 0 0 -1 286.4108 30.927)"><use xlink:href="#g9CDF097AB5923513691DBE4A30B628B5" x="0" y="0" fill="#e6edf3" fill-rule="nonzero"/></g><path fill="none" stroke="#e6edf3" stroke-width="0.624" stroke-linecap="butt" stroke-linejoin="miter" stroke-miterlimit="4" transform="translate(270.678633333 18.759)" d="M 0 0h 31.568333333"/><g transform="matrix(1 0 0 -1 307.862966667 22.009)"><use xlink:href="#gC12CEF1D304BDB4626B024B5BF4A4B8E" x="0" y="0" fill="#e6edf3" fill-rule="nonzero"/></g><g transform="matrix(1 0 0 -1 311.476966667 25.22)"><use xlink:href="#g8D2729A48B9ECD6712FB8A757305E9A2" x="0" y="0" fill="#e6edf3" fill-rule="nonzero"/></g><g transform="matrix(1 0 0 -1 316.472866667 25.22)"><use xlink:href="#gBEEE2912D783E659636489D0C0BC01CB" x="0" y="0" fill="#e6edf3" fill-rule="nonzero"/></g><g transform="matrix(1 0 0 -1 319.557766667 25.22)"><use xlink:href="#gB520C4FDFB2403295A40FD77402E9185" x="0" y="0" fill="#e6edf3" fill-rule="nonzero"/></g><defs><symbol id="gAF39B06637020F254AB7B881282CA7F5" overflow="visible"><path d="M 0 0m 4.615 5.746c -0.572 0 -1.118 -0.299 -1.651 -0.897c -0.143 0.598 -0.546 0.897 -1.183 0.897c -0.533 0 -0.923 -0.429 -1.196 -1.274c -0.13 -0.429 -0.195 -0.676 -0.195 -0.754c 0 -0.117 0.065 -0.182 0.208 -0.182c 0.065 0 0.104 0.013 0.143 0.039c 0.065 0.117 0.104 0.208 0.117 0.299c 0.234 0.988 0.533 1.482 0.884 1.482c 0.234 0 0.351 -0.182 0.351 -0.533c 0 -0.195 -0.026 -0.416 -0.091 -0.65l -1.43 -5.707c -0.117 -0.429 -0.13 -0.481 -0.637 -0.481c -0.234 0 -0.351 -0.104 -0.351 -0.299c 0 -0.143 0.078 -0.208 0.221 -0.208c 0.195 0 0.871 0.039 1.066 0.039c 0.247 0 1.027 -0.039 1.274 -0.039c 0.195 0 0.286 0.104 0.286 0.312c 0 0.13 -0.117 0.195 -0.364 0.195c -0.234 0 -0.585 -0.013 -0.585 0.143c 0 0.169 0.533 2.21 0.585 2.431c 0.26 -0.481 0.65 -0.728 1.17 -0.728c 0.845 0 1.586 0.429 2.236 1.3c 0.598 0.793 0.897 1.638 0.897 2.509c 0 1.131 -0.676 2.106 -1.755 2.106Z m -0.039 -0.39c 0.507 0 0.767 -0.39 0.767 -1.157c 0 -0.351 -0.078 -0.819 -0.221 -1.404c -0.299 -1.131 -0.676 -1.872 -1.131 -2.249c -0.273 -0.221 -0.52 -0.338 -0.767 -0.338c -0.377 0 -0.637 0.169 -0.78 0.52c -0.117 0.273 -0.182 0.468 -0.182 0.572l 0.663 2.717c 0.065 0.286 0.299 0.585 0.663 0.884c 0.364 0.299 0.689 0.455 0.988 0.455Z "/></symbol><symbol id="g53251C539233983FE9FC826CA7FBAC4A" overflow="visible"><path d="M 0 0m 8.723 8.84c -0.247 0 -1.027 0.039 -1.274 0.039c -0.195 0 -0.299 -0.104 -0.299 -0.299c 0 -0.13 0.091 -0.195 0.26 -0.208c 0.364 -0.013 0.546 -0.143 0.546 -0.364c 0 -0.117 -0.065 -0.273 -0.182 -0.468l -3.874 -6.149l -0.858 6.656c 0 0.221 0.273 0.325 0.832 0.325c 0.26 0 0.377 0.091 0.377 0.312c 0 0.13 -0.078 0.195 -0.234 0.195c -0.286 0 -1.3 -0.039 -1.586 -0.039c -0.26 0 -1.144 0.039 -1.404 0.039c -0.195 0 -0.299 -0.104 -0.299 -0.299c 0 -0.143 0.13 -0.208 0.377 -0.208c 0.221 0 0.377 -0.026 0.481 -0.052c 0.208 -0.065 0.195 -0.091 0.234 -0.338l 1.014 -7.93c 0.039 -0.221 0.143 -0.338 0.312 -0.338c 0.169 0 0.299 0.091 0.403 0.26l 4.628 7.358c 0.299 0.468 0.585 0.767 0.871 0.884c 0.195 0.091 0.442 0.143 0.728 0.156c 0.143 0.013 0.208 0.104 0.221 0.299c 0.013 0.143 -0.065 0.208 -0.221 0.208c -0.195 0 -0.858 -0.039 -1.053 -0.039Z "/></symbol><symbol id="g13AFF74D87C474CFAF661EEAD0458F8B" overflow="visible"><path d="M 0 0m 9.074 4.771h -8.034c -0.208 0 -0.312 -0.104 -0.312 -0.299c 0 -0.195 0.104 -0.299 0.312 -0.299h 8.034c 0.208 0 0.312 0.104 0.312 0.299c 0 0.156 -0.143 0.299 -0.312 0.299Z m 0 -2.444h -8.034c -0.208 0 -0.312 -0.104 -0.312 -0.299c 0 -0.195 0.104 -0.299 0.312 -0.299h 8.034c 0.208 0 0.312 0.104 0.312 0.299c 0 0.169 -0.143 0.299 -0.312 0.299Z "/></symbol><symbol id="gCD18A55F4CC2CA429D96672C565B9565" overflow="visible"><path d="M 0 0m 5.317 4.589c 0 -0.338 0.182 -0.507 0.533 -0.507c 0.455 0 0.754 0.403 0.754 0.845c 0 0.507 -0.416 0.858 -0.923 0.858c -0.585 0 -1.209 -0.39 -1.898 -1.157c -0.533 -0.585 -0.962 -0.962 -1.313 -1.131l 1.313 5.33c -0.026 0.117 -0.052 0.195 -0.221 0.195c -0.416 0 -1.404 -0.117 -1.56 -0.13c -0.195 -0.026 -0.286 -0.117 -0.286 -0.312c 0 -0.13 0.117 -0.195 0.351 -0.195c 0.247 0 0.585 0.013 0.585 -0.169l -1.885 -7.657c -0.039 -0.143 -0.052 -0.234 -0.052 -0.286c 0 -0.273 0.143 -0.416 0.416 -0.416c 0.221 0 0.39 0.104 0.481 0.299c 0.065 0.117 0.299 1.04 0.715 2.782c 0.676 -0.065 1.391 -0.39 1.391 -1.04c 0 -0.195 -0.091 -0.585 -0.091 -0.715c 0 -0.741 0.481 -1.326 1.222 -1.326c 0.754 0 1.261 0.676 1.521 2.028c 0 0.117 -0.065 0.182 -0.195 0.182c -0.117 0 -0.195 -0.091 -0.234 -0.273c -0.286 -1.027 -0.637 -1.547 -1.066 -1.547c -0.234 0 -0.351 0.182 -0.351 0.546c 0 0.208 0.156 0.91 0.156 1.118c 0 0.741 -0.598 1.196 -1.807 1.378c 0.299 0.208 0.637 0.507 1.001 0.897c 0.364 0.39 0.624 0.637 0.793 0.78c 0.351 0.286 0.689 0.429 0.988 0.429c 0.13 0 0.234 -0.026 0.312 -0.078c -0.351 -0.065 -0.65 -0.39 -0.65 -0.728Z "/></symbol><symbol id="gC7B20184179011BBC954B5E7CD84FB69" overflow="visible"><path d="M 0 0m 7.6167 4.9049c 0 0.4368 -0.2184 0.7735 -0.6552 1.0101c -0.3549 0.2002 -0.7735 0.3003 -1.2467 0.3003h -3.276c -0.2093 0 -0.3276 -0.0273 -0.3276 -0.2366c 0 -0.1001 0.0637 -0.1456 0.1911 -0.1547l 0.4732 -0.0182c 0.1183 -0.0091 0.1729 0 0.1729 -0.091l -1.2285 -4.9686c -0.0455 -0.182 -0.1365 -0.2912 -0.273 -0.3367c -0.0455 -0.0091 -0.2002 -0.0182 -0.4823 -0.0182h -0.1547c -0.1001 -0.0091 -0.1547 -0.0819 -0.1547 -0.2184c 0 -0.1547 0.1183 -0.1729 0.3094 -0.1729h 3.4853c 0.6097 0 1.1921 0.1729 1.7472 0.5096c 0.6461 0.3913 0.9646 0.8736 0.9646 1.4469c 0 0.728 -0.6916 1.1739 -1.3741 1.3013c 0.8099 0.182 1.8291 0.7826 1.8291 1.6471Z m -0.9555 0.0091c 0 -0.455 -0.2275 -0.8281 -0.6734 -1.1284c -0.4004 -0.2639 -0.8372 -0.3913 -1.3195 -0.3913h -1.4287l 0.5369 2.1476c 0.0728 0.273 0.0728 0.2821 0.4277 0.2821h 1.365c 0.6279 0 1.092 -0.3185 1.092 -0.91Z m -0.4823 -2.8938c 0 -0.4732 -0.2184 -0.8736 -0.6461 -1.1921c -0.3913 -0.2912 -0.8281 -0.4368 -1.3195 -0.4368h -1.4469c -0.1729 0 -0.2548 -0.0182 -0.2548 0.0546l 0.6461 2.6208h 1.8837c 0.6643 0 1.1375 -0.3822 1.1375 -1.0465Z "/></symbol><symbol id="g2D1FD5FA7721AD843D67732819992226" overflow="visible"><path d="M 0 0m 4.472 8.203c 0 -0.039 -0.013 -0.13 -0.052 -0.26l -1.716 -6.864c -0.052 -0.195 -0.104 -0.312 -0.143 -0.364c -0.117 -0.143 -0.559 -0.208 -1.339 -0.208c -0.403 0 -0.585 0.039 -0.585 -0.299c 0 -0.143 0.091 -0.208 0.26 -0.208c 0.663 0 1.599 0.052 2.158 0.039l 1.066 -0.013c 0.182 0 0.897 -0.026 1.118 -0.026c 0.221 0 0.325 0.104 0.325 0.312c 0 0.13 -0.156 0.195 -0.481 0.195c -0.676 0 -1.066 0.026 -1.183 0.091c -0.039 0.026 -0.065 0.078 -0.065 0.156l 1.755 7.085c 0.039 0.182 0.078 0.299 0.117 0.338c 0.052 0.078 0.364 0.117 0.936 0.117c 0.715 0 1.209 -0.052 1.456 -0.169c 0.247 -0.117 0.377 -0.39 0.377 -0.832c 0 -0.234 -0.039 -0.572 -0.104 -1.014c -0.026 -0.104 -0.039 -0.182 -0.039 -0.247c 0 -0.143 0.065 -0.221 0.208 -0.221c 0.117 0 0.195 0.117 0.234 0.338l 0.351 2.236c 0.013 0.065 0.026 0.143 0.026 0.221c 0 0.13 -0.13 0.195 -0.403 0.195h -7.124c -0.338 0 -0.364 -0.039 -0.468 -0.286l -0.767 -2.262c -0.039 -0.117 -0.065 -0.195 -0.078 -0.247c 0 -0.13 0.065 -0.195 0.208 -0.195c 0.104 0 0.195 0.104 0.26 0.299c 0.325 0.949 0.65 1.534 0.949 1.781c 0.338 0.273 0.988 0.403 1.937 0.403h 0.507c 0.143 0 0.299 0.013 0.299 -0.091Z "/></symbol><symbol id="gBC3D9C1A249D0D4F874E09900DF515A4" overflow="visible"><path d="M 0 0m 1.872 0.039l 1.443 -0.039v 0.507c -0.468 0 -0.754 0.013 -0.845 0.065c -0.091 0.052 -0.13 0.208 -0.13 0.455v 7.995l -1.911 -0.143v -0.494c 0.455 0 0.741 -0.039 0.832 -0.117c 0.091 -0.078 0.143 -0.26 0.143 -0.559v -6.682c 0 -0.247 -0.039 -0.403 -0.13 -0.455c -0.091 -0.052 -0.377 -0.065 -0.845 -0.065v -0.507Z "/></symbol><symbol id="gA2276AEFE9378953E87817A497BFC175" overflow="visible"><path d="M 0 0m 4.082 5.369c 0.585 0 0.884 -0.455 0.884 -1.378v -2.964c 0 -0.247 -0.039 -0.403 -0.13 -0.455c -0.091 -0.052 -0.377 -0.078 -0.858 -0.078v -0.494l 1.495 0.039l 1.482 -0.039v 0.494c -0.416 0 -0.689 0.013 -0.819 0.052c -0.13 0.039 -0.182 0.13 -0.182 0.286v 2.431c 0 0.611 -0.013 1.04 -0.052 1.287c -0.13 0.793 -0.715 1.196 -1.742 1.196c -0.819 0 -1.43 -0.39 -1.833 -1.17v 1.17l -1.911 -0.143v -0.494c 0.468 0 0.754 -0.039 0.858 -0.117c 0.104 -0.078 0.143 -0.247 0.143 -0.546v -3.419c 0 -0.247 -0.052 -0.403 -0.143 -0.455c -0.091 -0.052 -0.377 -0.078 -0.858 -0.078v -0.494l 1.495 0.039l 1.482 -0.039v 0.494c -0.481 0 -0.754 0.026 -0.845 0.078c -0.091 0.052 -0.143 0.208 -0.143 0.455v 2.34c 0 1.053 0.663 2.002 1.677 2.002Z "/></symbol><symbol id="g1CE04A25735CA0B16D3552FAC569C2C6" overflow="visible"><path d="M 0 0m 7.631 6.695h 0.416l -0.104 2.106h -7.228l -0.104 -2.106h 0.416c 0.026 0.585 0.078 0.923 0.156 1.027c 0.039 0.052 0.338 0.078 0.923 0.078h 4.446c 0.585 0 0.884 -0.026 0.923 -0.078c 0.078 -0.104 0.13 -0.442 0.156 -1.027Z m -1.183 -3.276h 0.416v 2.314h -0.416v -0.663h -4.238v 0.663h -0.416v -2.314h 0.416v 0.65h 4.238Z m 1.56 -3.419l 0.104 2.249h -0.416c -0.039 -0.65 -0.091 -1.014 -0.143 -1.105c -0.052 -0.091 -0.377 -0.143 -0.988 -0.143h -4.472c -0.611 0 -0.936 0.039 -0.975 0.104c -0.078 0.117 -0.13 0.494 -0.156 1.144h -0.416l 0.104 -2.249Z "/></symbol><symbol id="g2F389E882241F7D883BD9BE49B9B556F" overflow="visible"><path d="M 0 0m 4.069 -3.25c 0.195 0 0.299 0.104 0.299 0.312c 0 0.039 0 0.078 -0.013 0.104l -2.301 6.084l 2.301 6.071c 0.013 0.026 0.013 0.065 0.013 0.117c 0 0.208 -0.104 0.312 -0.299 0.312c -0.143 0 -0.234 -0.065 -0.286 -0.195l -2.34 -6.188c -0.013 -0.026 -0.013 -0.065 -0.013 -0.117c 0 -0.039 0 -0.078 0.013 -0.104l 2.34 -6.201c 0.052 -0.13 0.143 -0.195 0.286 -0.195Z "/></symbol><symbol id="gACA2FE1DD062579B79E6E19150F5B03F" overflow="visible"><path d="M 0 0m 11.232 8.879c -0.247 0 -1.053 -0.039 -1.3 -0.039c -0.247 0 -1.066 0.039 -1.313 0.039c -0.195 0 -0.286 -0.104 -0.286 -0.312c 0 -0.117 0.091 -0.182 0.286 -0.195c 0.546 0 0.819 -0.169 0.819 -0.507c 0 -0.078 -0.013 -0.169 -0.026 -0.26l -1.404 -5.564l -2.795 6.565c -0.104 0.247 -0.13 0.273 -0.455 0.273h -1.729c -0.312 0 -0.429 -0.026 -0.429 -0.312c 0 -0.13 0.143 -0.195 0.416 -0.195c 0.546 0 0.819 -0.013 0.832 -0.052l -1.729 -6.89c -0.117 -0.507 -0.416 -0.793 -0.884 -0.884c -0.338 -0.039 -0.728 0.013 -0.728 -0.351c 0 -0.13 0.078 -0.195 0.221 -0.195c 0.234 0 1.04 0.039 1.287 0.039c 0.247 0 1.079 -0.039 1.326 -0.039c 0.195 0 0.286 0.104 0.286 0.312c 0 0.117 -0.104 0.182 -0.312 0.195c -0.533 0.013 -0.793 0.182 -0.793 0.507c 0 0.065 0.013 0.156 0.039 0.286l 1.677 6.643l 3.25 -7.67c 0.078 -0.182 0.182 -0.273 0.299 -0.273c 0.117 0 0.195 0.104 0.247 0.312l 1.807 7.15c 0.169 0.663 0.533 0.897 1.339 0.91c 0.182 0.013 0.273 0.117 0.273 0.325c -0.039 0.117 -0.052 0.182 -0.221 0.182Z "/></symbol><symbol id="g77D2A3BE49641BC9FE86B31DAB4932B4" overflow="visible"><path d="M 0 0m 3.614 3.146c 0.013 0.026 0.013 0.065 0.013 0.104c 0 0.039 0 0.078 -0.013 0.104l -2.34 6.201c -0.052 0.13 -0.143 0.195 -0.286 0.195c -0.195 0 -0.299 -0.104 -0.299 -0.312c 0 -0.039 0 -0.078 0.013 -0.104l 2.301 -6.084l -2.301 -6.071c -0.013 -0.026 -0.013 -0.065 -0.013 -0.117c 0 -0.208 0.104 -0.312 0.299 -0.312c 0.143 0 0.234 0.065 0.286 0.195Z "/></symbol><symbol id="gB7560AD8DFDE075CC650DFC2ACE08502" overflow="visible"><path d="M 0 0m 2.106 1.196l -0.221 -0.026c 0.624 0.611 1.105 1.053 1.43 1.352l 1.248 1.157c 0.299 0.273 0.611 0.611 0.91 0.988c 0.403 0.494 0.598 0.793 0.598 0.897c 0 0.117 -0.065 0.182 -0.195 0.182c -0.091 0 -0.169 -0.052 -0.234 -0.169c -0.325 -0.533 -0.624 -0.793 -0.91 -0.793c -0.286 0 -0.494 0.234 -0.611 0.39c -0.312 0.377 -0.624 0.572 -0.923 0.572c -0.338 0 -0.689 -0.156 -1.053 -0.494c -0.364 -0.338 -0.546 -0.676 -0.546 -1.014c 0 -0.13 0.065 -0.195 0.208 -0.195c 0.091 0 0.169 0.065 0.221 0.182c 0.143 0.377 0.494 0.559 1.027 0.559c 0.182 0 0.442 -0.065 0.793 -0.182c 0.312 -0.117 0.611 -0.182 0.884 -0.195c -0.728 -0.715 -1.287 -1.235 -1.69 -1.586l -1.157 -1.079c -0.195 -0.195 -0.442 -0.455 -0.715 -0.78c -0.403 -0.507 -0.611 -0.806 -0.611 -0.923c 0 -0.117 0.065 -0.182 0.208 -0.182c 0.078 0 0.156 0.065 0.247 0.195c 0.325 0.507 0.676 0.767 1.04 0.767c 0.208 0 0.442 -0.156 0.702 -0.481c 0.26 -0.325 0.559 -0.481 0.858 -0.481c 0.442 0 0.884 0.234 1.352 0.689c 0.468 0.455 0.702 0.897 0.702 1.326c 0 0.117 -0.065 0.182 -0.208 0.182c -0.091 0 -0.169 -0.065 -0.234 -0.195c -0.195 -0.559 -0.754 -1.04 -1.482 -1.04c -0.312 0 -1.326 0.377 -1.638 0.377Z "/></symbol><symbol id="gECD202B73668A69AC8A33649F9D5BDE0" overflow="visible"><path d="M 0 0m 3.328 7.462c 0 0.299 -0.195 0.468 -0.572 0.494c 0.403 0.611 0.988 0.923 1.755 0.923c 1.196 0 1.781 -1.001 1.781 -2.275c 0 -0.533 -0.104 -1.183 -0.299 -1.976c -0.221 0.897 -0.78 1.352 -1.651 1.352c -1.001 0 -1.872 -0.416 -2.652 -1.222c -0.78 -0.806 -1.17 -1.703 -1.17 -2.704c 0 -0.481 0.169 -0.975 0.507 -1.469c 0.403 -0.585 1.027 -0.871 1.898 -0.871c 1.17 0 2.145 0.546 2.912 1.651c 0.728 1.066 1.521 2.912 1.521 4.563c 0 0.923 -0.234 1.703 -0.702 2.327c -0.507 0.702 -1.222 1.053 -2.119 1.053c -0.871 0 -1.521 -0.299 -1.963 -0.91c -0.351 -0.481 -0.533 -0.871 -0.533 -1.17c 0 -0.338 0.182 -0.507 0.546 -0.507c 0.39 0 0.741 0.351 0.741 0.741Z m 2.379 -3.523c 0 -0.819 -0.247 -1.625 -0.754 -2.418c -0.559 -0.897 -1.222 -1.339 -1.989 -1.339c -0.858 0 -1.352 0.559 -1.352 1.391c 0 0.364 0.091 0.871 0.273 1.521c 0.182 0.65 0.364 1.105 0.559 1.378c 0.52 0.741 1.157 1.118 1.898 1.118c 0.949 0 1.365 -0.702 1.365 -1.651Z "/></symbol><symbol id="gF4455947FC057089CFA62E76F26386FD" overflow="visible"><path d="M 0 0m 2.587 8.528c 0 -0.13 0.143 -0.195 0.416 -0.195c 0.52 0 0.78 -0.052 0.78 -0.169c 0 -0.039 -0.026 -0.13 -0.065 -0.299l -1.69 -6.799c -0.065 -0.286 -0.195 -0.455 -0.39 -0.52c -0.091 -0.026 -0.325 -0.039 -0.728 -0.039c -0.286 0 -0.416 -0.026 -0.416 -0.299c 0 -0.143 0.143 -0.208 0.416 -0.208h 6.669c 0.312 0 0.338 0.026 0.442 0.247l 0.52 1.17c 0.351 0.806 0.598 1.404 0.741 1.807c -0.026 0.117 -0.065 0.195 -0.208 0.195c -0.091 0 -0.169 -0.065 -0.221 -0.182c -0.325 -0.767 -0.637 -1.352 -0.949 -1.768c -0.52 -0.702 -1.287 -0.962 -2.509 -0.962h -1.885c -0.13 0 -0.221 0 -0.273 0.013c -0.078 0 -0.117 0.026 -0.117 0.065c 0 0.026 0.026 0.117 0.065 0.286l 0.858 3.471h 1.235c 0.611 0 0.936 -0.078 1.001 -0.247c 0.026 -0.065 0.039 -0.156 0.039 -0.286c 0 -0.169 -0.026 -0.377 -0.091 -0.624c -0.026 -0.065 -0.039 -0.117 -0.039 -0.156c 0 -0.13 0.078 -0.195 0.221 -0.195c 0.117 0 0.195 0.104 0.247 0.299l 0.728 3.016c 0 0.13 -0.065 0.195 -0.208 0.195c -0.104 0 -0.182 -0.091 -0.221 -0.273c -0.13 -0.507 -0.299 -0.832 -0.52 -0.988c -0.221 -0.156 -0.585 -0.234 -1.118 -0.234h -1.144l 0.754 3.029c 0.104 0.442 0.104 0.455 0.65 0.455h 1.807c 0.663 0 1.118 -0.065 1.365 -0.195c 0.364 -0.195 0.546 -0.585 0.546 -1.17c 0 -0.221 -0.013 -0.455 -0.052 -0.676c 0 -0.026 0 -0.065 -0.013 -0.117v -0.117c 0 -0.143 0.065 -0.208 0.195 -0.208c 0.13 0 0.208 0.117 0.234 0.364l 0.26 2.223c 0.039 0.364 -0.052 0.403 -0.403 0.403h -6.487c -0.299 0 -0.442 -0.013 -0.442 -0.312Z "/></symbol><symbol id="g9B543B57F718853EF8F95EF155B6CF69" overflow="visible"><path d="M 0 0m 9.074 3.51h -8.034c -0.208 0 -0.312 -0.091 -0.312 -0.26c 0 -0.169 0.104 -0.26 0.312 -0.26h 8.034c 0.208 0 0.312 0.091 0.312 0.26c 0 0.156 -0.156 0.26 -0.312 0.26Z "/></symbol><symbol id="g9CDF097AB5923513691DBE4A30B628B5" overflow="visible"><path d="M 0 0m 5.551 9.178c -1.677 0 -2.795 -1.989 -3.185 -3.562l -1.976 -7.93c 0 -0.143 0.065 -0.208 0.182 -0.208h 0.065c 0.091 0 0.156 0.039 0.169 0.13l 0.832 3.354c 0.286 -0.754 0.845 -1.131 1.677 -1.131c 0.806 0 1.547 0.247 2.21 0.754c 0.923 0.689 1.391 1.586 1.391 2.665c 0 0.871 -0.299 1.521 -0.897 1.95c 0.741 0.455 1.209 1.04 1.378 1.742c 0.039 0.169 0.065 0.338 0.065 0.481c 0 1.079 -0.871 1.755 -1.911 1.755Z m -1.573 -3.991c 0.065 0.039 0.299 0.052 0.676 0.052c 0.091 0 0.169 -0.013 0.26 -0.026c -0.13 -0.026 -0.247 -0.039 -0.364 -0.039h -0.234c -0.143 0 -0.26 0 -0.338 0.013Z m -2.054 -3.393c 0 0.208 0.026 0.416 0.078 0.624l 0.767 3.12c 0.351 1.404 1.287 3.237 2.769 3.237c 0.741 0 1.105 -0.377 1.105 -1.118c 0 -0.182 -0.026 -0.39 -0.091 -0.637c -0.182 -0.728 -0.52 -1.248 -1.027 -1.547c -0.286 0.104 -0.572 0.156 -0.858 0.156c -0.572 0 -1.157 -0.013 -1.157 -0.481c 0 -0.091 0.039 -0.169 0.104 -0.221c 0.117 -0.091 0.416 -0.143 0.923 -0.143c 0.325 0 0.65 0.052 0.949 0.156c 0.351 -0.286 0.533 -0.728 0.533 -1.326c 0 -0.325 -0.052 -0.702 -0.156 -1.105c -0.299 -1.17 -1.183 -2.288 -2.535 -2.288c -0.884 0 -1.404 0.663 -1.404 1.573Z "/></symbol><symbol id="gC12CEF1D304BDB4626B024B5BF4A4B8E" overflow="visible"><path d="M 0 0m 1.807 -3.25c 0.169 0 0.26 0.104 0.26 0.312v 12.376c 0 0.208 -0.091 0.312 -0.26 0.312c -0.169 0 -0.26 -0.104 -0.26 -0.312v -12.376c 0 -0.208 0.091 -0.312 0.26 -0.312Z "/></symbol><symbol id="g8D2729A48B9ECD6712FB8A757305E9A2" overflow="visible"><path d="M 0 0m 3.6582 3.0576c -0.2457 -0.2457 -0.6188 -0.5733 -1.1466 -0.9919c -0.5278 -0.4186 -0.91 -0.7462 -1.1466 -0.9828c -0.2002 -0.2002 -0.3458 -0.3549 -0.4459 -0.4732c -0.2457 -0.2821 -0.364 -0.4732 -0.364 -0.5551c 0 -0.1001 0.0637 -0.1456 0.1911 -0.1456c 0.0728 0 0.1365 0.0364 0.182 0.1092c 0.2457 0.3549 0.5096 0.5278 0.7917 0.5278c 0.1365 0 0.2821 -0.0728 0.4459 -0.2093c 0.2275 -0.2002 0.364 -0.3094 0.4004 -0.3367c 0.1092 -0.0637 0.2366 -0.091 0.3731 -0.091c 0.3003 0 0.5824 0.1001 0.8463 0.3003c 0.2821 0.2184 0.7462 0.7098 0.7462 1.1193c 0 0.1001 -0.0637 0.1547 -0.182 0.1547c -0.091 0 -0.1547 -0.0546 -0.2002 -0.1638c -0.1365 -0.3731 -0.5915 -0.637 -1.1011 -0.637c -0.2457 0 -1.0374 0.1911 -1.2922 0.182h -0.1183c 0.2821 0.273 0.637 0.5824 1.0829 0.9373c 0.6006 0.4823 0.9737 0.7917 1.1284 0.9464c 0.5915 0.5915 0.8918 0.9646 0.8918 1.1193c 0 0.1001 -0.0637 0.1456 -0.1911 0.1456c -0.0728 0 -0.1365 -0.0364 -0.182 -0.1092c -0.2275 -0.3549 -0.4459 -0.5278 -0.6461 -0.5278c -0.1274 0 -0.3094 0.1092 -0.5551 0.3185c -0.2457 0.2093 -0.4641 0.3185 -0.6643 0.3185c -0.2639 0 -0.5278 -0.1183 -0.8099 -0.3549c -0.2821 -0.2366 -0.4186 -0.4732 -0.4186 -0.728c 0 -0.1001 0.0637 -0.1456 0.182 -0.1456c 0.0728 0 0.1365 0.0364 0.182 0.1183c 0.1638 0.2639 0.3094 0.3367 0.7553 0.3367c 0.2457 0 1.0283 -0.1729 1.2649 -0.182Z "/></symbol><symbol id="gBEEE2912D783E659636489D0C0BC01CB" overflow="visible"><path d="M 0 0m 1.5379 1.0465c -0.2912 0 -0.5187 -0.2366 -0.5187 -0.5369c 0 -0.3185 0.2184 -0.5551 0.5278 -0.5551c 0.1183 0 0.2275 0.0364 0.3185 0.1001c -0.0182 -0.6006 -0.2366 -1.1102 -0.6552 -1.5197c -0.0455 -0.0455 -0.0728 -0.0819 -0.0728 -0.1274c 0 -0.1092 0.0546 -0.1638 0.1547 -0.1638c 0.0637 0 0.1547 0.0728 0.2912 0.2184c 0.3003 0.3276 0.5915 0.9919 0.5915 1.5834c 0 0.5005 -0.182 1.001 -0.637 1.001Z "/></symbol><symbol id="gB520C4FDFB2403295A40FD77402E9185" overflow="visible"><path d="M 0 0m 6.9524 6.1789c -0.1729 0 -0.7644 0.0364 -0.9373 0.0364c -0.1456 0 -0.2184 -0.0819 -0.2184 -0.2366c 0 -0.1001 0.0637 -0.1547 0.2002 -0.1638c 0.2275 -0.0091 0.3367 -0.0819 0.3367 -0.2184c 0 -0.0728 -0.0546 -0.1911 -0.1547 -0.3458l -2.912 -4.277l -0.8008 4.5136c -0.0091 0.0637 -0.0182 0.1001 -0.0182 0.1274c 0 0.1365 0.1729 0.2002 0.5278 0.2002c 0.1911 0 0.3094 0.0455 0.3094 0.2366v 0.0364c -0.0182 0.0819 -0.0819 0.1274 -0.1911 0.1274c -0.2093 0 -0.9464 -0.0364 -1.1557 -0.0364c -0.1911 0 -0.8099 0.0364 -1.001 0.0364c -0.1456 0 -0.2184 -0.0819 -0.2184 -0.2366c 0 -0.1092 0.091 -0.1638 0.2639 -0.1638c 0.3913 0 0.4732 0.0273 0.5187 -0.2548l 0.9828 -5.4691c 0.0273 -0.182 0.1183 -0.273 0.2548 -0.273c 0.1274 0 0.2366 0.0728 0.3367 0.2093l 3.4398 5.0596c 0.3094 0.455 0.6734 0.7007 1.0829 0.7371c 0.1638 0.0091 0.2366 0.0728 0.2366 0.2275c 0 0.1092 -0.0546 0.1638 -0.1638 0.1638c -0.1274 0 -0.5915 -0.0364 -0.7189 -0.0364Z "/></symbol></defs></svg>