<svg viewBox="0 0 274.320077778 41.2724" width="274.320077778pt" height="41.2724pt" xmlns="http://www.w3.org/2000/svg" xmlns:xlink="http://www.w3.org/1999/xlink" xmlns:h5="http://www.w3.org/1999/xhtml"><g transform="matrix(1 0 0 -1 6.5 22.9541)"><use xlink:href="#g1CE04A25735CA0B16D3552FAC569C2C6" x="0" y="0" fill="#e6edf3" fill-rule="nonzero"/></g><g transform="matrix(1 0 0 -1 15.171 22.9541)"><use xlink:href="#g2D7122AD31FABF41BED931716B883F58" x="0" y="0" fill="#e6edf3" fill-rule="nonzero"/></g><g transform="matrix(1 0 0 -1 20.228 22.9541)"><use xlink:href="#g2D1FD5FA7721AD843D67732819992226" x="0" y="0" fill="#e6edf3" fill-rule="nonzero"/></g><g transform="matrix(1 0 0 -1 29.744 22.9541)"><use xlink:href="#gEFA988DEC565252013B2D05DB9DFDA82" x="0" y="0" fill="#e6edf3" fill-rule="nonzero"/></g><g transform="matrix(1 0 0 -1 35.524666667 22.9541)"><use xlink:href="#g53251C539233983FE9FC826CA7FBAC4A" x="0" y="0" fill="#e6edf3" fill-rule="nonzero"/></g><g transform="matrix(1 0 0 -1 45.885666667 22.9541)"><use xlink:href="#gEFA988DEC565252013B2D05DB9DFDA82" x="0" y="0" fill="#e6edf3" fill-rule="nonzero"/></g><g transform="matrix(1 0 0 -1 51.666333333 22.9541)"><use xlink:href="#gA32CAC846971E9468FADD933D647D41A" x="0" y="0" fill="#e6edf3" fill-rule="nonzero"/></g><g transform="matrix(1 0 0 -1 59.505333333 22.9541)"><use xlink:href="#g2F93E6EEEE2061842AA37F49EEA2F1A2" x="0" y="0" fill="#e6edf3" fill-rule="nonzero"/></g><g transform="matrix(1 0 0 -1 68.173444444 22.9541)"><use xlink:href="#g13AFF74D87C474CFAF661EEAD0458F8B" x="0" y="0" fill="#e6edf3" fill-rule="nonzero"/></g><g transform="matrix(1 0 0 -1 83.136805556 22.9541)"><use xlink:href="#g4511C92E9BF59263ADBD37DA8A7526D7" x="0" y="0" fill="#e6edf3" fill-rule="nonzero"/></g><g transform="matrix(1 0 0 -1 87.340355556 7.9131)"><use xlink:href="#g3B4C6AF33A28CFAA491B1A8234F63F01" x="0" y="0" fill="#e6edf3" fill-rule="nonzero"/></g><g transform="matrix(1 0 0 -1 81.898555556 37.1904)"><use xlink:href="#g528A59098A0D3781770F15CFBE29D3CD" x="0" y="0" fill="#e6edf3" fill-rule="nonzero"/></g><g transform="matrix(1 0 0 -1 90.889355556 37.1904)"><use xlink:href="#g276AB947A95682ED2304820C504B95E1" x="0" y="0" fill="#e6edf3" fill-rule="nonzero"/></g><g transform="matrix(1 0 0 -1 97.969155556 37.1904)"><use xlink:href="#g66C287F757172C4FBEE46C9B113A6E1F" x="0" y="0" fill="#e6edf3" fill-rule="nonzero"/></g><g transform="matrix(1 0 0 -1 105.313722222 22.9541)"><use xlink:href="#g4511C92E9BF59263ADBD37DA8A7526D7" x="0" y="0" fill="#e6edf3" fill-rule="nonzero"/></g><g transform="matrix(1 0 0 -1 112.242722222 36.6041)"><use xlink:href="#gC8D3C41E96247D923393A2468BB66E86" x="0" y="0" fill="#e6edf3" fill-rule="nonzero"/></g><g transform="matrix(1 0 0 -1 126.252388889 22.9541)"><use xlink:href="#gC717BE5B93447205292D108A434A4EF5" x="0" y="0" fill="#e6edf3" fill-rule="nonzero"/></g><g transform="matrix(1 0 0 -1 132.310388889 18.0414)"><use xlink:href="#g767379DCBC383F5CD189EBAED801A2E4" x="0" y="0" fill="#e6edf3" fill-rule="nonzero"/></g><g transform="matrix(1 0 0 -1 138.316388889 18.0414)"><use xlink:href="#g6953488AB21BD16129FD974785889E2E" x="0" y="0" fill="#e6edf3" fill-rule="nonzero"/></g><g transform="matrix(1 0 0 -1 142.484188889 18.0414)"><use xlink:href="#gFF16A71406285492465AAA8A0C1F3936" x="0" y="0" fill="#e6edf3" fill-rule="nonzero"/></g><g transform="matrix(1 0 0 -1 148.808688889 18.0414)"><use xlink:href="#g528A59098A0D3781770F15CFBE29D3CD" x="0" y="0" fill="#e6edf3" fill-rule="nonzero"/></g><g transform="matrix(1 0 0 -1 157.799488889 18.0414)"><use xlink:href="#g9948C0FDABF29E771DA30338E5C0072D" x="0" y="0" fill="#e6edf3" fill-rule="nonzero"/></g><g transform="matrix(1 0 0 -1 164.879288889 18.0414)"><use xlink:href="#gE1855B9080E381DBF30A60576B27B8A2" x="0" y="0" fill="#e6edf3" fill-rule="nonzero"/></g><g transform="matrix(1 0 0 -1 172.514188889 20.2891)"><use xlink:href="#gBD2733CF530357DB80C015E78E379A0E" x="0" y="0" fill="#e6edf3" fill-rule="nonzero"/></g><g transform="matrix(1 0 0 -1 179.774688889 20.2891)"><use xlink:href="#g5C89472BC14AE76B705B13A2E0A290F8" x="0" y="0" fill="#e6edf3" fill-rule="nonzero"/></g><g transform="matrix(1 0 0 -1 182.751688889 20.2891)"><use xlink:href="#g6F3446AD88EE3F15480C0DC16F5A411" x="0" y="0" fill="#e6edf3" fill-rule="nonzero"/></g><g transform="matrix(1 0 0 -1 187.681288889 18.0414)"><use xlink:href="#g544C60567B472131EEFBAE9FCA855438" x="0" y="0" fill="#e6edf3" fill-rule="nonzero"/></g><g transform="matrix(1 0 0 -1 196.1882 22.9541)"><use xlink:href="#g13AFF74D87C474CFAF661EEAD0458F8B" x="0" y="0" fill="#e6edf3" fill-rule="nonzero"/></g><g transform="matrix(1 0 0 -1 211.151561111 22.9541)"><use xlink:href="#g4511C92E9BF59263ADBD37DA8A7526D7" x="0" y="0" fill="#e6edf3" fill-rule="nonzero"/></g><g transform="matrix(1 0 0 -1 215.355111111 7.9131)"><use xlink:href="#g3B4C6AF33A28CFAA491B1A8234F63F01" x="0" y="0" fill="#e6edf3" fill-rule="nonzero"/></g><g transform="matrix(1 0 0 -1 209.913311111 37.1904)"><use xlink:href="#g528A59098A0D3781770F15CFBE29D3CD" x="0" y="0" fill="#e6edf3" fill-rule="nonzero"/></g><g transform="matrix(1 0 0 -1 218.904111111 37.1904)"><use xlink:href="#g276AB947A95682ED2304820C504B95E1" x="0" y="0" fill="#e6edf3" fill-rule="nonzero"/></g><g transform="matrix(1 0 0 -1 225.983911111 37.1904)"><use xlink:href="#g66C287F757172C4FBEE46C9B113A6E1F" x="0" y="0" fill="#e6edf3" fill-rule="nonzero"/></g><g transform="matrix(1 0 0 -1 233.328477778 22.9541)"><use xlink:href="#gB7560AD8DFDE075CC650DFC2ACE08502" x="0" y="0" fill="#e6edf3" fill-rule="nonzero"/></g><g transform="matrix(1 0 0 -1 239.763477778 18.2351)"><use xlink:href="#g528A59098A0D3781770F15CFBE29D3CD" x="0" y="0" fill="#e6edf3" fill-rule="nonzero"/></g><g transform="matrix(1 0 0 -1 249.482277778 22.9541)"><use xlink:href="#g4F4A543C48CF8402D9EEEC7880A7C7C3" x="0" y="0" fill="#e6edf3" fill-rule="nonzero"/></g><g transform="matrix(1 0 0 -1 258.101277778 26.1651)"><use xlink:href="#g528A59098A0D3781770F15CFBE29D3CD" x="0" y="0" fill="#e6edf3" fill-rule="nonzero"/></g><defs><symbol id="g1CE04A25735CA0B16D3552FAC569C2C6" overflow="visible"><path d="M 0 0m 7.631 6.695h 0.416l -0.104 2.106h -7.228l -0.104 -2.106h 0.416c 0.026 0.585 0.078 0.923 0.156 1.027c 0.039 0.052 0.338 0.078 0.923 0.078h 4.446c 0.585 0 0.884 -0.026 0.923 -0.078c 0.078 -0.104 0.13 -0.442 0.156 -1.027Z m -1.183 -3.276h 0.416v 2.314h -0.416v -0.663h -4.238v 0.663h -0.416v -2.314h 0.416v 0.65h 4.238Z m 1.56 -3.419l 0.104 2.249h -0.416c -0.039 -0.65 -0.091 -1.014 -0.143 -1.105c -0.052 -0.091 -0.377 -0.143 -0.988 -0.143h -4.472c -0.611 0 -0.936 0.039 -0.975 0.104c -0.078 0.117 -0.13 0.494 -0.156 1.144h -0.416l 0.104 -2.249Z "/></symbol><symbol id="g2D7122AD31FABF41BED931716B883F58" overflow="visible"><path d="M 0 0m 4.134 -3.224c 0.117 0 0.182 0.065 0.182 0.182c 0 0.039 -0.026 0.091 -0.065 0.143c -0.676 0.52 -1.222 1.378 -1.625 2.561c -0.351 1.027 -0.533 2.041 -0.533 3.042v 1.092c 0 1.001 0.182 2.015 0.533 3.042c 0.403 1.183 0.949 2.041 1.625 2.561c 0.039 0.039 0.065 0.091 0.065 0.143c 0 0.117 -0.065 0.182 -0.182 0.182c -0.013 0 -0.052 -0.013 -0.091 -0.039c -0.78 -0.598 -1.43 -1.482 -1.963 -2.665c -0.507 -1.131 -0.767 -2.197 -0.767 -3.224v -1.092c 0 -1.027 0.26 -2.093 0.767 -3.224c 0.533 -1.183 1.183 -2.067 1.963 -2.665c 0.039 -0.026 0.078 -0.039 0.091 -0.039Z "/></symbol><symbol id="g2D1FD5FA7721AD843D67732819992226" overflow="visible"><path d="M 0 0m 4.472 8.203c 0 -0.039 -0.013 -0.13 -0.052 -0.26l -1.716 -6.864c -0.052 -0.195 -0.104 -0.312 -0.143 -0.364c -0.117 -0.143 -0.559 -0.208 -1.339 -0.208c -0.403 0 -0.585 0.039 -0.585 -0.299c 0 -0.143 0.091 -0.208 0.26 -0.208c 0.663 0 1.599 0.052 2.158 0.039l 1.066 -0.013c 0.182 0 0.897 -0.026 1.118 -0.026c 0.221 0 0.325 0.104 0.325 0.312c 0 0.13 -0.156 0.195 -0.481 0.195c -0.676 0 -1.066 0.026 -1.183 0.091c -0.039 0.026 -0.065 0.078 -0.065 0.156l 1.755 7.085c 0.039 0.182 0.078 0.299 0.117 0.338c 0.052 0.078 0.364 0.117 0.936 0.117c 0.715 0 1.209 -0.052 1.456 -0.169c 0.247 -0.117 0.377 -0.39 0.377 -0.832c 0 -0.234 -0.039 -0.572 -0.104 -1.014c -0.026 -0.104 -0.039 -0.182 -0.039 -0.247c 0 -0.143 0.065 -0.221 0.208 -0.221c 0.117 0 0.195 0.117 0.234 0.338l 0.351 2.236c 0.013 0.065 0.026 0.143 0.026 0.221c 0 0.13 -0.13 0.195 -0.403 0.195h -7.124c -0.338 0 -0.364 -0.039 -0.468 -0.286l -0.767 -2.262c -0.039 -0.117 -0.065 -0.195 -0.078 -0.247c 0 -0.13 0.065 -0.195 0.208 -0.195c 0.104 0 0.195 0.104 0.26 0.299c 0.325 0.949 0.65 1.534 0.949 1.781c 0.338 0.273 0.988 0.403 1.937 0.403h 0.507c 0.143 0 0.299 0.013 0.299 -0.091Z "/></symbol><symbol id="gEFA988DEC565252013B2D05DB9DFDA82" overflow="visible"><path d="M 0 0m 1.807 1.378c -0.416 0 -0.689 -0.312 -0.689 -0.728c 0 -0.39 0.299 -0.715 0.689 -0.715c 0.182 0 0.338 0.052 0.455 0.169l 0.013 -0.104c 0 -0.819 -0.273 -1.521 -0.819 -2.08c -0.091 -0.104 -0.143 -0.182 -0.143 -0.234c 0 -0.13 0.052 -0.195 0.169 -0.195c 0.117 0 0.273 0.156 0.494 0.455c 0.442 0.624 0.663 1.313 0.663 2.054c 0 0.689 -0.234 1.378 -0.832 1.378Z "/></symbol><symbol id="g53251C539233983FE9FC826CA7FBAC4A" overflow="visible"><path d="M 0 0m 8.723 8.84c -0.247 0 -1.027 0.039 -1.274 0.039c -0.195 0 -0.299 -0.104 -0.299 -0.299c 0 -0.13 0.091 -0.195 0.26 -0.208c 0.364 -0.013 0.546 -0.143 0.546 -0.364c 0 -0.117 -0.065 -0.273 -0.182 -0.468l -3.874 -6.149l -0.858 6.656c 0 0.221 0.273 0.325 0.832 0.325c 0.26 0 0.377 0.091 0.377 0.312c 0 0.13 -0.078 0.195 -0.234 0.195c -0.286 0 -1.3 -0.039 -1.586 -0.039c -0.26 0 -1.144 0.039 -1.404 0.039c -0.195 0 -0.299 -0.104 -0.299 -0.299c 0 -0.143 0.13 -0.208 0.377 -0.208c 0.221 0 0.377 -0.026 0.481 -0.052c 0.208 -0.065 0.195 -0.091 0.234 -0.338l 1.014 -7.93c 0.039 -0.221 0.143 -0.338 0.312 -0.338c 0.169 0 0.299 0.091 0.403 0.26l 4.628 7.358c 0.299 0.468 0.585 0.767 0.871 0.884c 0.195 0.091 0.442 0.143 0.728 0.156c 0.143 0.013 0.208 0.104 0.221 0.299c 0.013 0.143 -0.065 0.208 -0.221 0.208c -0.195 0 -0.858 -0.039 -1.053 -0.039Z "/></symbol><symbol id="gA32CAC846971E9468FADD933D647D41A" overflow="visible"><path d="M 0 0m 7.436 1.846c 0 0.117 -0.065 0.182 -0.208 0.182c -0.104 0 -0.182 -0.091 -0.221 -0.26c -0.26 -1.04 -0.572 -1.56 -0.923 -1.56c -0.221 0 -0.338 0.182 -0.338 0.546c 0 0.221 0.078 0.663 0.247 1.313l 0.364 1.391c 0.117 0.468 0.221 0.793 0.299 1.196l 0.078 0.364c 0.026 0.091 0.039 0.156 0.039 0.182c 0 0.273 -0.143 0.403 -0.429 0.403c -0.286 0 -0.468 -0.156 -0.546 -0.481l -0.936 -3.718c 0 -0.143 -0.208 -0.403 -0.624 -0.793c -0.286 -0.273 -0.611 -0.403 -0.988 -0.403c -0.598 0 -0.897 0.351 -0.897 1.066c 0 0.247 0.052 0.598 0.169 1.079l 0.546 2.158c 0.104 0.403 0.169 0.689 0.195 0.832c 0 0.273 -0.143 0.403 -0.429 0.403c -0.286 0 -0.468 -0.169 -0.559 -0.507l -1.846 -7.436c -0.026 -0.104 -0.039 -0.169 -0.039 -0.208c 0 -0.273 0.143 -0.403 0.416 -0.403c 0.195 0 0.351 0.104 0.494 0.299c 0.039 0.091 0.26 0.988 0.689 2.691c 0.312 -0.234 0.715 -0.351 1.209 -0.351c 0.767 0 1.274 0.403 1.677 0.871c 0.143 -0.481 0.572 -0.871 1.183 -0.871c 0.897 0 1.17 1.053 1.378 2.015Z "/></symbol><symbol id="g2F93E6EEEE2061842AA37F49EEA2F1A2" overflow="visible"><path d="M 0 0m 1.014 -3.185c 0.78 0.598 1.43 1.482 1.963 2.665c 0.507 1.131 0.767 2.197 0.767 3.224v 1.092c 0 1.027 -0.26 2.093 -0.767 3.224c -0.533 1.183 -1.183 2.067 -1.963 2.665c -0.039 0.026 -0.078 0.039 -0.091 0.039c -0.117 0 -0.182 -0.065 -0.182 -0.182c 0 -0.052 0.026 -0.104 0.065 -0.143c 0.676 -0.52 1.222 -1.378 1.625 -2.561c 0.351 -1.027 0.533 -2.041 0.533 -3.042v -1.092c 0 -1.001 -0.182 -2.015 -0.533 -3.042c -0.403 -1.183 -0.949 -2.041 -1.625 -2.561c -0.039 -0.052 -0.065 -0.104 -0.065 -0.143c 0 -0.117 0.065 -0.182 0.182 -0.182c 0.013 0 0.052 0.013 0.091 0.039Z "/></symbol><symbol id="g13AFF74D87C474CFAF661EEAD0458F8B" overflow="visible"><path d="M 0 0m 9.074 4.771h -8.034c -0.208 0 -0.312 -0.104 -0.312 -0.299c 0 -0.195 0.104 -0.299 0.312 -0.299h 8.034c 0.208 0 0.312 0.104 0.312 0.299c 0 0.156 -0.143 0.299 -0.312 0.299Z m 0 -2.444h -8.034c -0.208 0 -0.312 -0.104 -0.312 -0.299c 0 -0.195 0.104 -0.299 0.312 -0.299h 8.034c 0.208 0 0.312 0.104 0.312 0.299c 0 0.169 -0.143 0.299 -0.312 0.299Z "/></symbol><symbol id="g4511C92E9BF59263ADBD37DA8A7526D7" overflow="visible"><path d="M 0 0m 16.445 -5.85l 1.612 4.238h -0.442c -0.247 -0.65 -0.663 -1.196 -1.261 -1.638c -1.469 -1.092 -3.354 -1.378 -6.071 -1.378h -7.683l 6.5 7.644c 0.091 0.091 0.13 0.182 0.13 0.247l -6.058 8.359h 6.981c 2.457 0 4.498 -0.312 5.837 -1.17c 0.78 -0.494 1.326 -1.105 1.638 -1.833h 0.429l -1.612 3.731h -15.301c -0.234 0 -0.364 -0.039 -0.403 -0.117c -0.013 -0.039 -0.013 -0.195 -0.013 -0.468l 6.825 -9.334l -6.669 -7.826c -0.091 -0.104 -0.143 -0.195 -0.143 -0.26c 0 -0.13 0.13 -0.195 0.403 -0.195Z "/></symbol><symbol id="g3B4C6AF33A28CFAA491B1A8234F63F01" overflow="visible"><path d="M 0 0m 7.6804 -0.091c 0.5551 0 1.0283 0.2002 1.4014 0.6006c 0.3731 0.4004 0.5642 0.8918 0.5642 1.456c 0 0.5551 -0.182 1.0374 -0.546 1.4378c -0.364 0.4004 -0.8281 0.6097 -1.3832 0.6097c -0.6279 0 -1.1648 -0.2002 -1.6198 -0.5915c -0.3276 -0.2821 -0.6097 -0.5824 -0.8463 -0.8827c -0.2821 0.3458 -0.5915 0.6461 -0.91 0.91c -0.4732 0.3731 -1.0283 0.5642 -1.6653 0.5642c -0.5642 0 -1.0283 -0.2093 -1.4014 -0.6097c -0.3731 -0.4004 -0.5642 -0.8827 -0.5642 -1.4469c 0 -0.5551 0.182 -1.0465 0.546 -1.4469c 0.364 -0.4004 0.8281 -0.6006 1.3832 -0.6006c 0.6279 0 1.1648 0.2002 1.6198 0.5915c 0.3276 0.2821 0.6097 0.5824 0.8463 0.8827c 0.2821 -0.3458 0.5915 -0.6461 0.91 -0.91c 0.4732 -0.3731 1.0283 -0.5642 1.6653 -0.5642Z m 0.1547 0.5642c -0.4004 0 -0.7826 0.1638 -1.1375 0.4914c -0.2912 0.2639 -0.6552 0.6643 -1.1011 1.1921c 0.6188 0.9646 1.3468 1.4469 2.1931 1.4469c 0.4368 0 0.8008 -0.1638 1.092 -0.4914c 0.2912 -0.3276 0.4368 -0.7007 0.4368 -1.1466c 0 -0.819 -0.6643 -1.4924 -1.4833 -1.4924Z m -5.3144 2.9757c 0.4004 0 0.7826 -0.1638 1.1375 -0.4914c 0.2912 -0.2639 0.6552 -0.6643 1.1011 -1.1921c -0.6188 -0.9646 -1.3468 -1.4469 -2.1931 -1.4469c -0.4368 0 -0.8008 0.1547 -1.092 0.4823c -0.2912 0.3276 -0.4368 0.7098 -0.4368 1.1557c 0 0.819 0.6643 1.4924 1.4833 1.4924Z "/></symbol><symbol id="g528A59098A0D3781770F15CFBE29D3CD" overflow="visible"><path d="M 0 0m 7.6258 6.1789c -0.182 0 -0.7735 0.0364 -0.9555 0.0364c -0.1456 0 -0.2184 -0.0819 -0.2184 -0.2366c 0 -0.1001 0.0819 -0.1547 0.2366 -0.1547c 0.3549 -0.0091 0.5369 -0.1183 0.5369 -0.3367c 0 -0.0455 -0.0091 -0.1092 -0.0273 -0.2093l -0.9646 -3.822l -2.2477 4.5864c -0.0728 0.1547 -0.1183 0.1729 -0.3367 0.1729h -1.2376c -0.2093 0 -0.3185 -0.0273 -0.3185 -0.2366c 0 -0.1001 0.1092 -0.1547 0.3276 -0.1547c 0.2184 0 0.3913 -0.0182 0.5369 -0.0455l -1.2012 -4.7684c -0.1183 -0.455 -0.3549 -0.5915 -0.9009 -0.6188c -0.1547 0 -0.2275 -0.0728 -0.2275 -0.2184c 0 -0.1183 0.0546 -0.1729 0.1729 -0.1729c 0.1729 0 0.7644 0.0364 0.9373 0.0364c 0.182 0 0.7735 -0.0364 0.9555 -0.0364c 0.1456 0 0.2184 0.0728 0.2184 0.2275c 0 0.1092 -0.0819 0.1638 -0.2457 0.1638c -0.3549 0.0091 -0.5278 0.0637 -0.5278 0.3458c 0 0.0455 0.0091 0.1183 0.0273 0.2184l 1.1375 4.5045l 2.5844 -5.2871c 0.0637 -0.1183 0.1365 -0.1729 0.2366 -0.1729c 0.1183 0 0.2184 0.0728 0.2184 0.2184l 1.2558 4.9686c 0.1183 0.4641 0.3458 0.6279 0.9191 0.637c 0.1456 0 0.2184 0.0728 0.2184 0.2275c 0 0.1092 -0.0546 0.1638 -0.1729 0.1638c -0.1729 0 -0.7644 -0.0364 -0.9373 -0.0364Z "/></symbol><symbol id="g276AB947A95682ED2304820C504B95E1" overflow="visible"><path d="M 0 0m 6.3518 3.3397h -5.6238c -0.1456 0 -0.2184 -0.0728 -0.2184 -0.2093c 0 -0.1365 0.0728 -0.2093 0.2184 -0.2093h 5.6238c 0.1456 0 0.2184 0.0728 0.2184 0.2093c 0 0.1092 -0.1001 0.2093 -0.2184 0.2093Z m 0 -1.7108h -5.6238c -0.1456 0 -0.2184 -0.0728 -0.2184 -0.2093c 0 -0.1365 0.0728 -0.2093 0.2184 -0.2093h 5.6238c 0.1456 0 0.2184 0.0728 0.2184 0.2093c 0 0.1183 -0.1001 0.2093 -0.2184 0.2093Z "/></symbol><symbol id="g66C287F757172C4FBEE46C9B113A6E1F" overflow="visible"><path d="M 0 0m 4.6956 2.9029c 0 1.0283 -0.182 1.8109 -0.5369 2.3478c -0.2912 0.455 -0.8736 0.7917 -1.5743 0.7917c -0.2912 0 -0.5551 -0.0455 -0.7826 -0.1456c -1.001 -0.4186 -1.3286 -1.5834 -1.3286 -2.9939c 0 -0.3094 0.0182 -0.6006 0.0455 -0.8827c 0.1547 -1.1921 0.7098 -2.2022 2.0657 -2.2022c 0.2912 0 0.5551 0.0455 0.7826 0.1456c 1.001 0.4095 1.3286 1.547 1.3286 2.9393Z m -1.0374 2.0202c 0.1001 -0.3367 0.1547 -0.9646 0.1547 -1.9019c 0 -0.8918 -0.0364 -1.5197 -0.1183 -1.8928c -0.1092 -0.5369 -0.4914 -0.9828 -1.1102 -0.9828c -0.2275 0 -0.455 0.0728 -0.6643 0.2275c -0.2821 0.2093 -0.455 0.6188 -0.5278 1.2467c -0.0273 0.2093 -0.0364 0.6734 -0.0364 1.4014c 0 0.8827 0.0455 1.4924 0.1365 1.82c 0.1547 0.5824 0.5187 0.8736 1.092 0.8736c 0.546 0 0.9464 -0.3549 1.0738 -0.7917Z "/></symbol><symbol id="gC8D3C41E96247D923393A2468BB66E86" overflow="visible"><path d="M 0 0m 4.6592 3.3215c 0 0.4732 -0.4823 0.6916 -0.9828 0.6916c -0.4641 0 -0.8827 -0.2002 -1.2467 -0.6006c -0.0546 0.1456 -0.1365 0.2639 -0.2548 0.364c -0.2093 0.1547 -0.4368 0.2366 -0.6825 0.2366c -0.3094 0 -0.5551 -0.1547 -0.728 -0.4732c -0.2275 -0.3913 -0.3367 -0.7007 -0.3367 -0.9282c 0 -0.1001 0.0637 -0.1547 0.1911 -0.1547c 0.182 0 0.1729 0.1001 0.2275 0.2912c 0.1547 0.6279 0.364 0.9464 0.6188 0.9464c 0.1729 0 0.2639 -0.1365 0.2639 -0.4095c 0 -0.1001 -0.0455 -0.3367 -0.1456 -0.728l -0.4823 -1.9474c -0.0637 -0.2457 -0.091 -0.3731 -0.091 -0.3822c 0 -0.2093 0.1092 -0.3185 0.3367 -0.3185c 0.3185 0 0.4095 0.2002 0.4823 0.5005c 0.2002 0.8281 0.3549 1.4469 0.4641 1.8746c 0.0819 0.2912 0.1183 0.4459 0.1183 0.455c 0.0091 0.0455 0.0728 0.1547 0.1911 0.3185c 0.3003 0.4277 0.6552 0.637 1.0647 0.637c 0.1547 0 0.2912 -0.0273 0.4004 -0.0819c -0.2275 -0.1001 -0.3367 -0.2639 -0.3367 -0.5005c 0 -0.2184 0.1729 -0.3731 0.3913 -0.3731c 0.3094 0 0.5369 0.273 0.5369 0.5824Z "/></symbol><symbol id="gC717BE5B93447205292D108A434A4EF5" overflow="visible"><path d="M 0 0m 1.612 1.677c 0 0.312 0.065 0.741 0.195 1.274h 0.637c 0.845 0 1.495 0.104 1.963 0.299c 0.429 0.182 0.715 0.442 0.858 0.767c 0.091 0.221 0.13 0.429 0.13 0.598c 0 0.715 -0.676 1.131 -1.404 1.131c -0.507 0 -1.014 -0.13 -1.521 -0.39c -1.001 -0.52 -1.872 -1.703 -1.872 -3.133c 0 -1.326 0.767 -2.366 2.054 -2.366c 0.689 0 1.3 0.169 1.833 0.494c 0.442 0.273 0.767 0.546 0.975 0.819c 0.091 0.117 0.13 0.208 0.13 0.247c 0 0.143 -0.065 0.221 -0.208 0.221c -0.065 0 -0.13 -0.052 -0.208 -0.156c -0.429 -0.572 -0.962 -0.936 -1.573 -1.092c -0.403 -0.104 -0.702 -0.156 -0.923 -0.156c -0.741 0 -1.066 0.702 -1.066 1.443Z m 3.263 2.938c 0 -0.858 -0.832 -1.287 -2.509 -1.287h -0.455c 0.247 0.858 0.611 1.43 1.105 1.703c 0.39 0.221 0.715 0.338 0.975 0.338c 0.468 0 0.884 -0.286 0.884 -0.754Z "/></symbol><symbol id="g767379DCBC383F5CD189EBAED801A2E4" overflow="visible"><path d="M 0 0m 4.2406 6.4064c -1.2376 0 -2.1294 -1.3559 -2.4115 -2.4752l -1.3741 -5.5237c -0.0182 -0.1183 0.0273 -0.1729 0.1365 -0.1729h 0.091c 0.0728 0 0.1183 0.0364 0.1365 0.1092l 0.5733 2.2932c 0.2639 -0.5005 0.7007 -0.7462 1.3104 -0.7462c 0.6097 0 1.1739 0.1729 1.6744 0.5278c 0.6916 0.4641 1.0374 1.0647 1.0374 1.8018c 0 0.6097 -0.2275 1.0738 -0.6734 1.3832c 0.5187 0.2639 0.8463 0.7007 0.9646 1.2012c 0.0273 0.1183 0.0455 0.2275 0.0455 0.3185c 0 0.8099 -0.6916 1.2831 -1.5106 1.2831Z m -1.1375 -2.8119c 0.0455 0.0182 0.2184 0.0273 0.5187 0.0273c 0.0546 0 0.1092 -0.0091 0.1729 -0.0182c -0.0819 -0.0091 -0.1638 -0.0182 -0.2548 -0.0182h -0.1638c -0.0819 0 -0.1729 0 -0.273 0.0091Z m 1.9838 1.7017c 0 -0.1183 -0.0182 -0.2548 -0.0637 -0.4277c -0.091 -0.3913 -0.2639 -0.6916 -0.5278 -0.9191c -0.0364 -0.0273 -0.091 -0.0728 -0.1638 -0.1274c -0.2275 0.0819 -0.455 0.1183 -0.7007 0.1183c -0.4277 0 -0.7007 -0.0364 -0.8099 -0.1183c -0.0819 -0.0728 -0.1274 -0.1638 -0.1274 -0.2639c 0 -0.0728 0.0273 -0.1274 0.0728 -0.1729c 0.0819 -0.0819 0.3367 -0.1274 0.7644 -0.1274c 0.2639 0 0.5187 0.0455 0.7735 0.1274c 0.2639 -0.1911 0.3913 -0.4914 0.3913 -0.91c 0 -0.182 -0.0364 -0.4186 -0.1092 -0.7098c -0.2093 -0.8372 -0.8827 -1.547 -1.8746 -1.547c -0.6552 0 -1.1102 0.4459 -1.1102 1.1011c 0 0.1092 0.0182 0.2366 0.0546 0.3822l 0.5369 2.1749c 0.2457 0.9737 0.9828 2.2113 2.0384 2.2113c 0.5096 0 0.8554 -0.2821 0.8554 -0.7917Z "/></symbol><symbol id="g6953488AB21BD16129FD974785889E2E" overflow="visible"><path d="M 0 0m 3.458 -3.1577c 0.091 0 0.1365 0.0455 0.1365 0.1365c 0 0.0455 -0.0182 0.0819 -0.0455 0.1092c -0.5551 0.4277 -1.001 1.1284 -1.3377 2.1112c -0.2912 0.8463 -0.4368 1.6835 -0.4368 2.4934v 1.1648c 0 0.8099 0.1456 1.6471 0.4368 2.4934c 0.3367 0.9828 0.7826 1.6835 1.3377 2.1112c 0.0273 0.0273 0.0455 0.0637 0.0455 0.1092c 0 0.091 -0.0455 0.1365 -0.1365 0.1365c -0.0182 0 -0.0455 -0.0091 -0.0728 -0.0273c -0.637 -0.4823 -1.1648 -1.2103 -1.5834 -2.184c -0.4095 -0.9191 -0.6097 -1.8018 -0.6097 -2.639v -1.1648c 0 -0.8372 0.2002 -1.7199 0.6097 -2.639c 0.4186 -0.9737 0.9464 -1.7017 1.5834 -2.184c 0.0273 -0.0182 0.0546 -0.0273 0.0728 -0.0273Z "/></symbol><symbol id="gFF16A71406285492465AAA8A0C1F3936" overflow="visible"><path d="M 0 0m 4.9413 3.9221c -0.1729 0 -0.3094 -0.0819 -0.4004 -0.2366c -0.0091 -0.0273 -0.0637 -0.2002 -0.1456 -0.5278l -0.4641 -1.8655c -0.0364 -0.1547 -0.0819 -0.273 -0.1365 -0.3549c -0.3367 -0.4823 -0.728 -0.728 -1.1557 -0.728c -0.4641 0 -0.7007 0.2548 -0.7007 0.7644c 0 0.1365 0.0455 0.4186 0.1456 0.8281l 0.4641 1.8837c 0 0.2184 -0.1183 0.3276 -0.3458 0.3276c -0.2275 0 -0.3822 -0.1456 -0.4641 -0.4459l -1.2467 -4.9959c -0.0273 -0.1001 -0.0364 -0.1638 -0.0364 -0.1911c 0 -0.2184 0.1092 -0.3276 0.3367 -0.3276c 0.2366 0 0.3913 0.1547 0.4732 0.4732l 0.4004 1.6016c 0.2548 -0.1547 0.5642 -0.2366 0.9373 -0.2366c 0.3549 0 0.6916 0.1183 1.0101 0.364c 0.0455 0.0364 0.1274 0.1183 0.2639 0.2457c 0.1456 -0.4095 0.4641 -0.6097 0.9464 -0.6097c 0.3003 0 0.546 0.1638 0.7371 0.4914c 0.0728 0.1274 0.3185 0.7462 0.3185 0.9191c 0 0.1001 -0.0637 0.1456 -0.182 0.1456c -0.0455 0 -0.0819 -0.0091 -0.1092 -0.0273c -0.0637 -0.1092 -0.1092 -0.2002 -0.1183 -0.273c -0.1547 -0.6279 -0.364 -0.9373 -0.6188 -0.9373c -0.1729 0 -0.2639 0.1365 -0.2639 0.4095c 0 0.1001 0.0455 0.3367 0.1365 0.7007l 0.1911 0.8099l 0.2093 0.7917c 0.1001 0.4004 0.1547 0.6279 0.1547 0.6825c 0 0.182 -0.1547 0.3185 -0.3367 0.3185Z "/></symbol><symbol id="g9948C0FDABF29E771DA30338E5C0072D" overflow="visible"><path d="M 0 0m 6.3336 2.4843h -5.5874c -0.182 0 -0.2366 -0.091 -0.2366 -0.2093c 0 -0.1183 0.0546 -0.2093 0.2366 -0.2093h 5.5874c 0.182 0 0.2366 0.091 0.2366 0.2093c 0 0.1092 -0.0546 0.2093 -0.2366 0.2093Z "/></symbol><symbol id="gE1855B9080E381DBF30A60576B27B8A2" overflow="visible"><path d="M 0 0m 7.3528 6.1789h -4.9504c -0.2093 0 -0.3276 -0.0273 -0.3276 -0.2366c 0 -0.1001 0.1092 -0.1547 0.3367 -0.1547c 0.2821 0 0.4459 -0.0182 0.4914 -0.0455c 0.0091 -0.0091 0.0091 -0.0364 0.0091 -0.0637c 0 -0.0455 -0.0091 -0.1092 -0.0273 -0.1911l -1.183 -4.7047c -0.0455 -0.1729 -0.1001 -0.2821 -0.1729 -0.3276c -0.0728 -0.0455 -0.2639 -0.0637 -0.5915 -0.0637c -0.2002 0 -0.3094 -0.0273 -0.3094 -0.2275c 0 -0.1092 0.1001 -0.1638 0.3094 -0.1638h 5.0869c 0.2275 0 0.2639 0.0182 0.3367 0.182l 0.8463 1.9201c 0.0364 0.0819 0.0546 0.1456 0.0546 0.1729c 0 0.1092 -0.0637 0.1638 -0.1911 0.1638l -0.1092 -0.0455c -0.0273 -0.0273 -0.0819 -0.1183 -0.1547 -0.273c -0.3003 -0.6643 -0.6006 -1.1102 -0.9191 -1.3377c -0.3458 -0.2639 -0.8645 -0.3913 -1.5561 -0.3913h -1.5288c -0.1729 0 -0.2548 -0.0182 -0.2548 0.0546l 0.6279 2.5662h 0.9828c 0.4732 0 0.7826 0 0.7826 -0.3731c 0 -0.091 -0.0182 -0.2275 -0.0637 -0.4004c -0.0182 -0.0546 -0.0273 -0.091 -0.0273 -0.1183v -0.0364c 0.0273 -0.0819 0.091 -0.1274 0.1911 -0.1274c 0.1001 0 0.1638 0.0728 0.2093 0.2275l 0.4914 1.9747c 0.0182 0.0728 0.0273 0.1183 0.0273 0.1365c 0 0.1092 -0.0637 0.1638 -0.1911 0.1638h -0.0728c -0.0455 -0.0091 -0.0819 -0.0546 -0.1001 -0.1365c -0.1183 -0.4186 -0.2639 -0.6825 -0.4186 -0.7735c -0.1547 -0.091 -0.4186 -0.1365 -0.8099 -0.1365h -0.9009l 0.5278 2.093c 0.0728 0.2821 0.0637 0.2821 0.4277 0.2821h 1.4651c 0.5005 0 0.8463 -0.0455 1.0283 -0.1456c 0.2821 -0.1365 0.4186 -0.4277 0.4186 -0.8645c 0 -0.1274 -0.0364 -0.3822 -0.0364 -0.546c 0 -0.1274 0.0637 -0.1911 0.182 -0.1911c 0.0546 0 0.1001 0.0091 0.1274 0.0364c 0.0455 0.1001 0.0728 0.1729 0.0728 0.2275l 0.1638 1.5652v 0.1456c 0 0.1547 -0.1092 0.1638 -0.3003 0.1638Z "/></symbol><symbol id="gBD2733CF530357DB80C015E78E379A0E" overflow="visible"><path d="M 0 0m 6.214 4.4135c -0.0455 0 -0.104 0 -0.1885 0.0065h -0.1885c -0.0715 0 -0.299 0.0195 -0.3705 0.0195c -0.1235 0 -0.182 -0.0715 -0.182 -0.208c 0 -0.0845 0.065 -0.13 0.1885 -0.13c 0.2795 0 0.4225 -0.078 0.4225 -0.2275c 0 -0.0195 -0.013 -0.091 -0.013 -0.1105l -0.6825 -2.6975l -1.9045 3.25c -0.065 0.117 -0.0845 0.1235 -0.2535 0.1235h -1.001c -0.182 0 -0.247 -0.052 -0.247 -0.208c 0 -0.0845 0.091 -0.13 0.26 -0.13c 0.169 0 0.3055 -0.0065 0.4095 -0.026l -0.8385 -3.3215c -0.078 -0.3055 -0.2405 -0.4095 -0.676 -0.416c -0.1235 0 -0.1885 -0.065 -0.1885 -0.2015c 0 -0.091 0.0455 -0.1365 0.1365 -0.1365c 0.1365 0 0.598 0.026 0.7345 0.026c 0.0455 0 0.104 0 0.1885 -0.0065h 0.1885c 0.0715 0 0.299 -0.0195 0.3705 -0.0195c 0.1235 0 0.182 0.0715 0.182 0.208c 0 0.0845 -0.065 0.13 -0.195 0.13c -0.2795 0.0065 -0.4225 0.078 -0.4225 0.221c 0 0.026 0.0065 0.0715 0.026 0.143l 0.793 3.1655l 2.184 -3.7375c 0.052 -0.0845 0.117 -0.13 0.195 -0.13c 0.0585 0 0.104 0.0065 0.13 0.026c 0.0325 0.065 0.0585 0.117 0.065 0.1625l 0.8775 3.484c 0.078 0.3055 0.2275 0.4225 0.6695 0.429c 0.13 0 0.195 0.065 0.195 0.2015c 0 0.091 -0.0455 0.1365 -0.1365 0.1365c -0.1365 0 -0.5915 -0.026 -0.728 -0.026Z "/></symbol><symbol id="g5C89472BC14AE76B705B13A2E0A290F8" overflow="visible"><path d="M 0 0m 1.4885 0.793c -0.221 0 -0.3965 -0.1885 -0.3965 -0.4095c 0 -0.2275 0.169 -0.416 0.3965 -0.416c 0.091 0 0.169 0.0195 0.2275 0.065c -0.013 -0.429 -0.169 -0.7735 -0.4745 -1.027c -0.0585 -0.0455 -0.0845 -0.091 -0.0845 -0.13c 0 -0.0585 0.078 -0.1365 0.1365 -0.1365c 0.0585 0 0.156 0.078 0.286 0.234c 0.2665 0.3185 0.3965 0.676 0.3965 1.079c 0 0.364 -0.1495 0.741 -0.4875 0.741Z "/></symbol><symbol id="g6F3446AD88EE3F15480C0DC16F5A411" overflow="visible"><path d="M 0 0m 4.238 2.3205c 0 0.234 -0.13 0.39 -0.3965 0.468c -0.1885 0.0585 -0.39 0.0845 -0.6175 0.0845c -0.3835 0 -0.7215 -0.156 -1.014 -0.468c -0.078 0.273 -0.416 0.468 -0.7735 0.468c -0.3185 0 -0.559 -0.2145 -0.728 -0.637c -0.078 -0.1885 -0.117 -0.312 -0.117 -0.3705c 0 -0.0845 0.052 -0.1235 0.1625 -0.1235c 0.1365 0 0.143 0.065 0.182 0.2015c 0.117 0.442 0.273 0.663 0.468 0.663c 0.1625 0 0.2405 -0.104 0.2405 -0.312c 0 -0.052 -0.0325 -0.2145 -0.104 -0.494c -0.091 -0.3835 -0.1885 -0.767 -0.286 -1.144c -0.0715 -0.2795 -0.1105 -0.442 -0.1105 -0.481c 0 -0.1625 0.0845 -0.247 0.26 -0.247c 0.1365 0 0.2405 0.0585 0.3055 0.182c 0.0455 0.1495 0.0845 0.273 0.1105 0.3835l 0.1495 0.572c 0.0975 0.39 0.1755 0.78 0.3315 1.001c 0.2405 0.3575 0.546 0.5395 0.91 0.5395c 0.2275 0 0.403 -0.026 0.5265 -0.0845c -0.117 -0.0585 -0.234 -0.221 -0.234 -0.3705c 0 -0.1755 0.143 -0.286 0.312 -0.286c 0.2405 0 0.4225 0.2145 0.4225 0.455Z "/></symbol><symbol id="g544C60567B472131EEFBAE9FCA855438" overflow="visible"><path d="M 0 0m 0.7826 -3.1304c 0.637 0.4823 1.1648 1.2103 1.5834 2.184c 0.4095 0.9191 0.6097 1.8018 0.6097 2.639v 1.1648c 0 0.8372 -0.2002 1.7199 -0.6097 2.639c -0.4186 0.9737 -0.9464 1.7017 -1.5834 2.184c -0.0273 0.0182 -0.0546 0.0273 -0.0728 0.0273c -0.091 0 -0.1365 -0.0455 -0.1365 -0.1365c 0 -0.0455 0.0182 -0.0819 0.0455 -0.1092c 0.5551 -0.4277 1.001 -1.1284 1.3377 -2.1112c 0.2912 -0.8463 0.4368 -1.6835 0.4368 -2.4934v -1.1648c 0 -0.8099 -0.1456 -1.6471 -0.4368 -2.4934c -0.3367 -0.9828 -0.7826 -1.6835 -1.3377 -2.1112c -0.0273 -0.0273 -0.0455 -0.0637 -0.0455 -0.1092c 0 -0.091 0.0455 -0.1365 0.1365 -0.1365c 0.0182 0 0.0455 0.0091 0.0728 0.0273Z "/></symbol><symbol id="gB7560AD8DFDE075CC650DFC2ACE08502" overflow="visible"><path d="M 0 0m 2.106 1.196l -0.221 -0.026c 0.624 0.611 1.105 1.053 1.43 1.352l 1.248 1.157c 0.299 0.273 0.611 0.611 0.91 0.988c 0.403 0.494 0.598 0.793 0.598 0.897c 0 0.117 -0.065 0.182 -0.195 0.182c -0.091 0 -0.169 -0.052 -0.234 -0.169c -0.325 -0.533 -0.624 -0.793 -0.91 -0.793c -0.286 0 -0.494 0.234 -0.611 0.39c -0.312 0.377 -0.624 0.572 -0.923 0.572c -0.338 0 -0.689 -0.156 -1.053 -0.494c -0.364 -0.338 -0.546 -0.676 -0.546 -1.014c 0 -0.13 0.065 -0.195 0.208 -0.195c 0.091 0 0.169 0.065 0.221 0.182c 0.143 0.377 0.494 0.559 1.027 0.559c 0.182 0 0.442 -0.065 0.793 -0.182c 0.312 -0.117 0.611 -0.182 0.884 -0.195c -0.728 -0.715 -1.287 -1.235 -1.69 -1.586l -1.157 -1.079c -0.195 -0.195 -0.442 -0.455 -0.715 -0.78c -0.403 -0.507 -0.611 -0.806 -0.611 -0.923c 0 -0.117 0.065 -0.182 0.208 -0.182c 0.078 0 0.156 0.065 0.247 0.195c 0.325 0.507 0.676 0.767 1.04 0.767c 0.208 0 0.442 -0.156 0.702 -0.481c 0.26 -0.325 0.559 -0.481 0.858 -0.481c 0.442 0 0.884 0.234 1.352 0.689c 0.468 0.455 0.702 0.897 0.702 1.326c 0 0.117 -0.065 0.182 -0.208 0.182c -0.091 0 -0.169 -0.065 -0.234 -0.195c -0.195 -0.559 -0.754 -1.04 -1.482 -1.04c -0.312 0 -1.326 0.377 -1.638 0.377Z "/></symbol><symbol id="g4F4A543C48CF8402D9EEEC7880A7C7C3" overflow="visible"><path d="M 0 0m 9.36 8.489c 0.026 0.117 0.039 0.195 0.039 0.221c 0 0.117 -0.065 0.169 -0.208 0.169h -5.59c -0.325 0 -0.364 -0.039 -0.442 -0.299l -0.702 -2.301c -0.026 -0.065 -0.039 -0.143 -0.052 -0.208c 0.039 -0.104 0.065 -0.182 0.208 -0.182c 0.065 0 0.143 0.052 0.221 0.156c 0.273 0.845 0.637 1.456 1.092 1.807c 0.455 0.351 1.131 0.52 2.015 0.52h 1.976l -7.111 -7.943l -0.052 -0.26c 0 -0.117 0.078 -0.169 0.221 -0.169h 5.733c 0.338 0 0.377 0.026 0.455 0.299l 0.91 2.847c 0.013 0.052 0.052 0.143 0.052 0.195c 0 0.13 -0.078 0.195 -0.221 0.195c -0.091 0 -0.182 -0.117 -0.26 -0.364c -0.286 -0.884 -0.637 -1.534 -1.066 -1.95c -0.455 -0.455 -1.209 -0.676 -2.249 -0.676h -2.08Z "/></symbol></defs></svg>