<svg viewBox="0 0 274.9708 35.5238" width="274.9708pt" height="35.5238pt" xmlns="http://www.w3.org/2000/svg" xmlns:xlink="http://www.w3.org/1999/xlink" xmlns:h5="http://www.w3.org/1999/xhtml"><g transform="matrix(1 0 0 -1 6.5 21.359)"><use xlink:href="#g5AAD6B38658AAA3198C014B3B7995D3E" x="0" y="0" fill="#e6edf3" fill-rule="nonzero"/></g><path fill="none" stroke="#e6edf3" stroke-width="0.624" stroke-linecap="butt" stroke-linejoin="miter" stroke-miterlimit="4" transform="translate(6.5 13.741)" d="M 0 0h 7.8"/><g transform="matrix(1 0 0 -1 14.3 24.57)"><use xlink:href="#g8CF8528DAE02816E4DFA12B684C6703D" x="0" y="0" fill="#e6edf3" fill-rule="nonzero"/><use xlink:href="#g12A277A1F32FE31CE8B77358BEAB0050" x="5.9423" y="0" fill="#e6edf3" fill-rule="nonzero"/></g><g transform="matrix(1 0 0 -1 27.9227 21.359)"><use xlink:href="#g2D7122AD31FABF41BED931716B883F58" x="0" y="0" fill="#e6edf3" fill-rule="nonzero"/></g><g transform="matrix(1 0 0 -1 32.9797 21.359)"><use xlink:href="#g894190FA0EEFA6A5DCF83D53FA4E4038" x="0" y="0" fill="#e6edf3" fill-rule="nonzero"/></g><g transform="matrix(1 0 0 -1 39.0377 21.359)"><use xlink:href="#g2F93E6EEEE2061842AA37F49EEA2F1A2" x="0" y="0" fill="#e6edf3" fill-rule="nonzero"/></g><g transform="matrix(1 0 0 -1 47.705811111 21.359)"><use xlink:href="#g13AFF74D87C474CFAF661EEAD0458F8B" x="0" y="0" fill="#e6edf3" fill-rule="nonzero"/></g><g transform="matrix(1 0 0 -1 89.771861111 12.558)"><use xlink:href="#g6B3DB0E0ADE6D994825CC39624067234" x="0" y="0" fill="#e6edf3" fill-rule="nonzero"/></g><g transform="matrix(1 0 0 -1 62.730922222 30.5448)"><use xlink:href="#gC717BE5B93447205292D108A434A4EF5" x="0" y="0" fill="#e6edf3" fill-rule="nonzero"/></g><g transform="matrix(1 0 0 -1 68.788922222 26.7878)"><use xlink:href="#g767379DCBC383F5CD189EBAED801A2E4" x="0" y="0" fill="#e6edf3" fill-rule="nonzero"/></g><g transform="matrix(1 0 0 -1 74.794922222 26.7878)"><use xlink:href="#g113F13A4D17198A1C07EDFC5CF3E0BE9" x="0" y="0" fill="#e6edf3" fill-rule="nonzero"/></g><g transform="matrix(1 0 0 -1 78.334822222 26.7878)"><use xlink:href="#gCD1AF5EE8D7D50E1D98BCD850B6389BB" x="0" y="0" fill="#e6edf3" fill-rule="nonzero"/></g><g transform="matrix(1 0 0 -1 83.248822222 26.7878)"><use xlink:href="#g9948C0FDABF29E771DA30338E5C0072D" x="0" y="0" fill="#e6edf3" fill-rule="nonzero"/></g><g transform="matrix(1 0 0 -1 90.328622222 26.7878)"><use xlink:href="#gFF16A71406285492465AAA8A0C1F3936" x="0" y="0" fill="#e6edf3" fill-rule="nonzero"/></g><g transform="matrix(1 0 0 -1 96.653122222 26.7878)"><use xlink:href="#g46583585F9F2E82789E32589C97B74E" x="0" y="0" fill="#e6edf3" fill-rule="nonzero"/></g><g transform="matrix(1 0 0 -1 103.809911111 30.5448)"><use xlink:href="#gEDF6611ACB83925E748178A176190AF2" x="0" y="0" fill="#e6edf3" fill-rule="nonzero"/></g><g transform="matrix(1 0 0 -1 116.8128 30.5448)"><use xlink:href="#g6B3DB0E0ADE6D994825CC39624067234" x="0" y="0" fill="#e6edf3" fill-rule="nonzero"/></g><path fill="none" stroke="#e6edf3" stroke-width="0.624" stroke-linecap="butt" stroke-linejoin="miter" stroke-miterlimit="4" transform="translate(62.730922222 18.109)" d="M 0 0h 60.581877778"/><g transform="matrix(1 0 0 -1 150.6128 21.359)"><use xlink:href="#g5AAD6B38658AAA3198C014B3B7995D3E" x="0" y="0" fill="#e6edf3" fill-rule="nonzero"/></g><path fill="none" stroke="#e6edf3" stroke-width="0.624" stroke-linecap="butt" stroke-linejoin="miter" stroke-miterlimit="4" transform="translate(150.6128 13.741)" d="M 0 0h 7.8"/><g transform="matrix(1 0 0 -1 158.4128 24.57)"><use xlink:href="#g355FFC1F8FD089FB81F0C4B991D8C07D" x="0" y="0" fill="#e6edf3" fill-rule="nonzero"/><use xlink:href="#gAC6012DEC55F9E54F4CBDA2A0C8550D7" x="6.4428" y="0" fill="#e6edf3" fill-rule="nonzero"/></g><g transform="matrix(1 0 0 -1 171.7807 21.359)"><use xlink:href="#g2D7122AD31FABF41BED931716B883F58" x="0" y="0" fill="#e6edf3" fill-rule="nonzero"/></g><g transform="matrix(1 0 0 -1 176.8377 21.359)"><use xlink:href="#g894190FA0EEFA6A5DCF83D53FA4E4038" x="0" y="0" fill="#e6edf3" fill-rule="nonzero"/></g><g transform="matrix(1 0 0 -1 182.8957 21.359)"><use xlink:href="#g2F93E6EEEE2061842AA37F49EEA2F1A2" x="0" y="0" fill="#e6edf3" fill-rule="nonzero"/></g><g transform="matrix(1 0 0 -1 191.563811111 21.359)"><use xlink:href="#g13AFF74D87C474CFAF661EEAD0458F8B" x="0" y="0" fill="#e6edf3" fill-rule="nonzero"/></g><g transform="matrix(1 0 0 -1 233.629861111 12.558)"><use xlink:href="#g6B3DB0E0ADE6D994825CC39624067234" x="0" y="0" fill="#e6edf3" fill-rule="nonzero"/></g><g transform="matrix(1 0 0 -1 206.588922222 30.5448)"><use xlink:href="#gC717BE5B93447205292D108A434A4EF5" x="0" y="0" fill="#e6edf3" fill-rule="nonzero"/></g><g transform="matrix(1 0 0 -1 212.646922222 26.7878)"><use xlink:href="#g767379DCBC383F5CD189EBAED801A2E4" x="0" y="0" fill="#e6edf3" fill-rule="nonzero"/></g><g transform="matrix(1 0 0 -1 218.652922222 26.7878)"><use xlink:href="#g113F13A4D17198A1C07EDFC5CF3E0BE9" x="0" y="0" fill="#e6edf3" fill-rule="nonzero"/></g><g transform="matrix(1 0 0 -1 222.192822222 26.7878)"><use xlink:href="#gCD1AF5EE8D7D50E1D98BCD850B6389BB" x="0" y="0" fill="#e6edf3" fill-rule="nonzero"/></g><g transform="matrix(1 0 0 -1 227.106822222 26.7878)"><use xlink:href="#g9948C0FDABF29E771DA30338E5C0072D" x="0" y="0" fill="#e6edf3" fill-rule="nonzero"/></g><g transform="matrix(1 0 0 -1 234.186622222 26.7878)"><use xlink:href="#gFF16A71406285492465AAA8A0C1F3936" x="0" y="0" fill="#e6edf3" fill-rule="nonzero"/></g><g transform="matrix(1 0 0 -1 240.511122222 26.7878)"><use xlink:href="#g46583585F9F2E82789E32589C97B74E" x="0" y="0" fill="#e6edf3" fill-rule="nonzero"/></g><g transform="matrix(1 0 0 -1 247.667911111 30.5448)"><use xlink:href="#g9B543B57F718853EF8F95EF155B6CF69" x="0" y="0" fill="#e6edf3" fill-rule="nonzero"/></g><g transform="matrix(1 0 0 -1 260.6708 30.5448)"><use xlink:href="#g6B3DB0E0ADE6D994825CC39624067234" x="0" y="0" fill="#e6edf3" fill-rule="nonzero"/></g><path fill="none" stroke="#e6edf3" stroke-width="0.624" stroke-linecap="butt" stroke-linejoin="miter" stroke-miterlimit="4" transform="translate(206.588922222 18.109)" d="M 0 0h 60.581877778"/><defs><symbol id="g5AAD6B38658AAA3198C014B3B7995D3E" overflow="visible"><path d="M 0 0m 6.981 1.781c -0.299 -1.027 -0.728 -1.547 -1.261 -1.547c -0.169 0 -0.26 0.13 -0.26 0.377c 0 0.182 0.078 0.481 0.234 0.884c 0.52 1.417 0.78 2.353 0.78 2.834c 0 0.91 -0.611 1.417 -1.521 1.417c -0.767 0 -1.43 -0.338 -1.963 -1.027c -0.104 0.572 -0.559 1.027 -1.222 1.027c -0.728 0 -1.014 -0.676 -1.196 -1.261c -0.13 -0.416 -0.195 -0.663 -0.195 -0.754c 0 -0.117 0.065 -0.182 0.208 -0.182c 0.065 0 0.104 0.013 0.143 0.039c 0.065 0.117 0.104 0.208 0.117 0.299c 0.234 0.988 0.533 1.482 0.884 1.482c 0.234 0 0.351 -0.182 0.351 -0.546c 0 -0.169 -0.065 -0.52 -0.208 -1.053l -0.741 -2.951c -0.039 -0.169 -0.117 -0.507 -0.117 -0.572c 0 -0.26 0.143 -0.39 0.429 -0.39c 0.247 0 0.429 0.13 0.52 0.39c 0.026 0.065 0.104 0.39 0.247 0.949l 0.273 1.157l 0.39 1.482c 0.143 0.299 0.364 0.598 0.637 0.91c 0.377 0.416 0.845 0.624 1.404 0.624c 0.429 0 0.637 -0.286 0.637 -0.845c 0 -0.494 -0.273 -1.482 -0.832 -2.964c -0.091 -0.234 -0.13 -0.429 -0.13 -0.598c 0 -0.637 0.481 -1.105 1.105 -1.105c 0.572 0 1.027 0.325 1.352 0.975c 0.247 0.52 0.377 0.871 0.377 1.04c 0 0.117 -0.065 0.182 -0.208 0.182c -0.039 0 -0.234 -0.117 -0.234 -0.273Z "/></symbol><symbol id="g8CF8528DAE02816E4DFA12B684C6703D" overflow="visible"><path d="M 0 0m 2.5025 5.8331h 1.0738c 0.6461 0 1.0647 -0.1365 1.274 -0.4004c 0.2912 -0.3549 0.3276 -0.6916 0.4095 -1.3377h 0.3003l -0.2639 2.093h -4.9959v -0.3549h 0.2548c 0.3185 0 0.5096 -0.0182 0.5733 -0.0637c 0.0637 -0.0455 0.1001 -0.1547 0.1001 -0.3185v -4.7138c 0 -0.1638 -0.0364 -0.273 -0.1001 -0.3185c -0.0637 -0.0455 -0.2548 -0.0637 -0.5733 -0.0637h -0.2548v -0.3549c 0.2366 0.0182 0.7007 0.0273 1.4014 0.0273c 0.7917 0 1.3013 -0.0091 1.547 -0.0273v 0.3549h -0.3367c -0.4823 0 -0.7462 0.0455 -0.7917 0.1456c -0.0182 0.0455 -0.0273 0.1274 -0.0273 0.2457v 2.1749h 0.7371c 0.3913 0 0.6461 -0.0728 0.7553 -0.2093c 0.1092 -0.1365 0.1638 -0.4095 0.1638 -0.8372h 0.2912v 2.4479h -0.2912c 0 -0.4186 -0.0546 -0.7007 -0.1638 -0.8372c -0.1092 -0.1365 -0.364 -0.2093 -0.7553 -0.2093h -0.7371v 2.2386c 0 0.3276 0.0546 0.3185 0.4095 0.3185Z "/></symbol><symbol id="g12A277A1F32FE31CE8B77358BEAB0050" overflow="visible"><path d="M 0 0m 3.6491 0c 0.8099 0 1.4742 0.3094 2.0111 0.9373c 0.5187 0.5915 0.7735 1.3013 0.7735 2.1203c 0 0.8372 -0.2548 1.5652 -0.7553 2.1749c -0.5369 0.6552 -1.2194 0.9828 -2.0293 0.9828h -3.3306v -0.3549h 0.2548c 0.3185 0 0.5096 -0.0273 0.5733 -0.0728c 0.0637 -0.0455 0.1001 -0.1456 0.1001 -0.3094v -4.7411c 0 -0.1638 -0.0364 -0.273 -0.1001 -0.3185c -0.0637 -0.0455 -0.2548 -0.0637 -0.5733 -0.0637h -0.2548v -0.3549Z m -0.2457 0.3549h -0.91c -0.3549 0 -0.4004 -0.0091 -0.4004 0.3185v 4.8685c 0 0.3276 0.0455 0.3185 0.4004 0.3185h 0.9009c 0.6734 0 1.2103 -0.273 1.6107 -0.819c 0.3003 -0.4277 0.455 -1.0829 0.455 -1.9838c 0 -1.5925 -0.6006 -2.7027 -2.0566 -2.7027Z "/></symbol><symbol id="g2D7122AD31FABF41BED931716B883F58" overflow="visible"><path d="M 0 0m 4.134 -3.224c 0.117 0 0.182 0.065 0.182 0.182c 0 0.039 -0.026 0.091 -0.065 0.143c -0.676 0.52 -1.222 1.378 -1.625 2.561c -0.351 1.027 -0.533 2.041 -0.533 3.042v 1.092c 0 1.001 0.182 2.015 0.533 3.042c 0.403 1.183 0.949 2.041 1.625 2.561c 0.039 0.039 0.065 0.091 0.065 0.143c 0 0.117 -0.065 0.182 -0.182 0.182c -0.013 0 -0.052 -0.013 -0.091 -0.039c -0.78 -0.598 -1.43 -1.482 -1.963 -2.665c -0.507 -1.131 -0.767 -2.197 -0.767 -3.224v -1.092c 0 -1.027 0.26 -2.093 0.767 -3.224c 0.533 -1.183 1.183 -2.067 1.963 -2.665c 0.039 -0.026 0.078 -0.039 0.091 -0.039Z "/></symbol><symbol id="g894190FA0EEFA6A5DCF83D53FA4E4038" overflow="visible"><path d="M 0 0m 5.577 5.109c 0 0.156 -0.169 0.325 -0.533 0.507c -0.364 0.182 -0.754 0.273 -1.157 0.273c -0.637 0 -1.261 -0.156 -1.846 -0.455c -0.702 -0.364 -1.053 -0.845 -1.053 -1.43c 0 -0.338 0.156 -0.637 0.468 -0.897c -0.533 -0.325 -1.118 -0.962 -1.118 -1.729c 0 -1.066 1.014 -1.664 2.132 -1.664c 0.637 0 1.17 0.143 1.599 0.416c 0.559 0.351 0.845 0.676 0.845 0.949c 0 0.117 -0.065 0.182 -0.195 0.182c -0.065 0 -0.117 -0.039 -0.169 -0.117c -0.325 -0.572 -0.832 -0.741 -1.963 -0.741c -0.299 0 -0.585 0.026 -0.845 0.078c -0.481 0.091 -0.975 0.442 -0.975 0.975c 0 0.637 0.598 1.196 1.092 1.43c 0.286 -0.117 0.65 -0.169 1.092 -0.169c 0.715 0 1.079 0.156 1.079 0.455c 0 0.26 -0.325 0.39 -0.975 0.39c -0.442 0 -0.832 -0.078 -1.183 -0.234c -0.312 0.169 -0.468 0.39 -0.468 0.676c 0 0.403 0.312 0.728 0.923 0.949c 0.455 0.169 0.936 0.247 1.43 0.247c 0.429 0 0.819 -0.117 1.144 -0.351c 0.13 -0.091 0.221 -0.13 0.286 -0.13c 0.195 0 0.39 0.195 0.39 0.39Z m -2.522 -1.924c 0.143 0 0.273 -0.013 0.403 -0.039c -0.13 -0.026 -0.299 -0.039 -0.507 -0.039c -0.169 0 -0.325 0 -0.442 0.013c 0.169 0.039 0.351 0.065 0.546 0.065Z "/></symbol><symbol id="g2F93E6EEEE2061842AA37F49EEA2F1A2" overflow="visible"><path d="M 0 0m 1.014 -3.185c 0.78 0.598 1.43 1.482 1.963 2.665c 0.507 1.131 0.767 2.197 0.767 3.224v 1.092c 0 1.027 -0.26 2.093 -0.767 3.224c -0.533 1.183 -1.183 2.067 -1.963 2.665c -0.039 0.026 -0.078 0.039 -0.091 0.039c -0.117 0 -0.182 -0.065 -0.182 -0.182c 0 -0.052 0.026 -0.104 0.065 -0.143c 0.676 -0.52 1.222 -1.378 1.625 -2.561c 0.351 -1.027 0.533 -2.041 0.533 -3.042v -1.092c 0 -1.001 -0.182 -2.015 -0.533 -3.042c -0.403 -1.183 -0.949 -2.041 -1.625 -2.561c -0.039 -0.052 -0.065 -0.104 -0.065 -0.143c 0 -0.117 0.065 -0.182 0.182 -0.182c 0.013 0 0.052 0.013 0.091 0.039Z "/></symbol><symbol id="g13AFF74D87C474CFAF661EEAD0458F8B" overflow="visible"><path d="M 0 0m 9.074 4.771h -8.034c -0.208 0 -0.312 -0.104 -0.312 -0.299c 0 -0.195 0.104 -0.299 0.312 -0.299h 8.034c 0.208 0 0.312 0.104 0.312 0.299c 0 0.156 -0.143 0.299 -0.312 0.299Z m 0 -2.444h -8.034c -0.208 0 -0.312 -0.104 -0.312 -0.299c 0 -0.195 0.104 -0.299 0.312 -0.299h 8.034c 0.208 0 0.312 0.104 0.312 0.299c 0 0.169 -0.143 0.299 -0.312 0.299Z "/></symbol><symbol id="g6B3DB0E0ADE6D994825CC39624067234" overflow="visible"><path d="M 0 0m 3.497 8.658c -0.533 -0.546 -1.313 -0.819 -2.34 -0.819v -0.507c 0.676 0 1.235 0.104 1.664 0.312v -6.578c 0 -0.234 -0.052 -0.39 -0.169 -0.455c -0.117 -0.065 -0.442 -0.104 -0.962 -0.104h -0.455v -0.507c 0.325 0.026 1.027 0.039 2.106 0.039c 1.079 0 1.781 -0.013 2.106 -0.039v 0.507h -0.455c -0.533 0 -0.858 0.039 -0.962 0.104c -0.104 0.065 -0.169 0.221 -0.169 0.455v 7.202c 0 0.312 -0.026 0.39 -0.364 0.39Z "/></symbol><symbol id="gC717BE5B93447205292D108A434A4EF5" overflow="visible"><path d="M 0 0m 1.612 1.677c 0 0.312 0.065 0.741 0.195 1.274h 0.637c 0.845 0 1.495 0.104 1.963 0.299c 0.429 0.182 0.715 0.442 0.858 0.767c 0.091 0.221 0.13 0.429 0.13 0.598c 0 0.715 -0.676 1.131 -1.404 1.131c -0.507 0 -1.014 -0.13 -1.521 -0.39c -1.001 -0.52 -1.872 -1.703 -1.872 -3.133c 0 -1.326 0.767 -2.366 2.054 -2.366c 0.689 0 1.3 0.169 1.833 0.494c 0.442 0.273 0.767 0.546 0.975 0.819c 0.091 0.117 0.13 0.208 0.13 0.247c 0 0.143 -0.065 0.221 -0.208 0.221c -0.065 0 -0.13 -0.052 -0.208 -0.156c -0.429 -0.572 -0.962 -0.936 -1.573 -1.092c -0.403 -0.104 -0.702 -0.156 -0.923 -0.156c -0.741 0 -1.066 0.702 -1.066 1.443Z m 3.263 2.938c 0 -0.858 -0.832 -1.287 -2.509 -1.287h -0.455c 0.247 0.858 0.611 1.43 1.105 1.703c 0.39 0.221 0.715 0.338 0.975 0.338c 0.468 0 0.884 -0.286 0.884 -0.754Z "/></symbol><symbol id="g767379DCBC383F5CD189EBAED801A2E4" overflow="visible"><path d="M 0 0m 4.2406 6.4064c -1.2376 0 -2.1294 -1.3559 -2.4115 -2.4752l -1.3741 -5.5237c -0.0182 -0.1183 0.0273 -0.1729 0.1365 -0.1729h 0.091c 0.0728 0 0.1183 0.0364 0.1365 0.1092l 0.5733 2.2932c 0.2639 -0.5005 0.7007 -0.7462 1.3104 -0.7462c 0.6097 0 1.1739 0.1729 1.6744 0.5278c 0.6916 0.4641 1.0374 1.0647 1.0374 1.8018c 0 0.6097 -0.2275 1.0738 -0.6734 1.3832c 0.5187 0.2639 0.8463 0.7007 0.9646 1.2012c 0.0273 0.1183 0.0455 0.2275 0.0455 0.3185c 0 0.8099 -0.6916 1.2831 -1.5106 1.2831Z m -1.1375 -2.8119c 0.0455 0.0182 0.2184 0.0273 0.5187 0.0273c 0.0546 0 0.1092 -0.0091 0.1729 -0.0182c -0.0819 -0.0091 -0.1638 -0.0182 -0.2548 -0.0182h -0.1638c -0.0819 0 -0.1729 0 -0.273 0.0091Z m 1.9838 1.7017c 0 -0.1183 -0.0182 -0.2548 -0.0637 -0.4277c -0.091 -0.3913 -0.2639 -0.6916 -0.5278 -0.9191c -0.0364 -0.0273 -0.091 -0.0728 -0.1638 -0.1274c -0.2275 0.0819 -0.455 0.1183 -0.7007 0.1183c -0.4277 0 -0.7007 -0.0364 -0.8099 -0.1183c -0.0819 -0.0728 -0.1274 -0.1638 -0.1274 -0.2639c 0 -0.0728 0.0273 -0.1274 0.0728 -0.1729c 0.0819 -0.0819 0.3367 -0.1274 0.7644 -0.1274c 0.2639 0 0.5187 0.0455 0.7735 0.1274c 0.2639 -0.1911 0.3913 -0.4914 0.3913 -0.91c 0 -0.182 -0.0364 -0.4186 -0.1092 -0.7098c -0.2093 -0.8372 -0.8827 -1.547 -1.8746 -1.547c -0.6552 0 -1.1102 0.4459 -1.1102 1.1011c 0 0.1092 0.0182 0.2366 0.0546 0.3822l 0.5369 2.1749c 0.2457 0.9737 0.9828 2.2113 2.0384 2.2113c 0.5096 0 0.8554 -0.2821 0.8554 -0.7917Z "/></symbol><symbol id="g113F13A4D17198A1C07EDFC5CF3E0BE9" overflow="visible"><path d="M 0 0m 2.8938 -2.2568c 0.0819 0 0.1274 0.0455 0.1274 0.1274c 0 0.0273 -0.0182 0.0637 -0.0455 0.1001c -0.4732 0.364 -0.8554 0.9646 -1.1375 1.7927c -0.2457 0.7189 -0.3731 1.4287 -0.3731 2.1294v 0.7644c 0 0.7007 0.1274 1.4105 0.3731 2.1294c 0.2821 0.8281 0.6643 1.4287 1.1375 1.7927c 0.0273 0.0273 0.0455 0.0637 0.0455 0.1001c 0 0.0819 -0.0455 0.1274 -0.1274 0.1274c -0.0091 0 -0.0364 -0.0091 -0.0637 -0.0273c -0.546 -0.4186 -1.001 -1.0374 -1.3741 -1.8655c -0.3549 -0.7917 -0.5369 -1.5379 -0.5369 -2.2568v -0.7644c 0 -0.7189 0.182 -1.4651 0.5369 -2.2568c 0.3731 -0.8281 0.8281 -1.4469 1.3741 -1.8655c 0.0273 -0.0182 0.0546 -0.0273 0.0637 -0.0273Z "/></symbol><symbol id="gCD1AF5EE8D7D50E1D98BCD850B6389BB" overflow="visible"><path d="M 0 0m 4.3953 3.5308c 0 0.1729 -0.182 0.3185 -0.5551 0.4368c -0.3003 0.091 -0.5551 0.1365 -0.7735 0.1365c -0.4823 0 -0.9373 -0.1001 -1.3832 -0.3094c -0.5551 -0.2548 -0.8281 -0.5915 -0.8281 -1.0192c 0 -0.2366 0.1092 -0.4368 0.3185 -0.6006c -0.5005 -0.3185 -0.7462 -0.7007 -0.7462 -1.1557c 0 -0.7917 0.819 -1.2012 1.6744 -1.2012c 0.6825 0 1.2194 0.1911 1.6016 0.5642c 0.182 0.1729 0.273 0.3094 0.273 0.4186c 0 0.1001 -0.0546 0.1547 -0.1638 0.1547c -0.0455 0 -0.091 -0.0273 -0.1365 -0.091c -0.2912 -0.4186 -0.6643 -0.4823 -1.4378 -0.4823c -0.7098 0 -1.4378 0.1365 -1.4378 0.6916c 0 0.3549 0.2457 0.6643 0.728 0.9191c 0.2275 -0.091 0.5187 -0.1365 0.8645 -0.1365c 0.5642 0 0.8463 0.1274 0.8463 0.3731c 0 0.2093 -0.2548 0.3094 -0.7553 0.3094c -0.3367 0 -0.6552 -0.0546 -0.9464 -0.1729c -0.2093 0.1001 -0.3094 0.2366 -0.3094 0.4186c 0 0.2639 0.2366 0.4732 0.7098 0.6097c 0.3367 0.1001 0.6734 0.1456 1.0283 0.1456c 0.3549 0 0.6552 -0.0819 0.91 -0.2457c 0.091 -0.0546 0.1547 -0.0819 0.2002 -0.0819c 0.1547 0 0.3185 0.1638 0.3185 0.3185Z m -1.9292 -1.3104c 0.0819 0 0.1638 -0.0091 0.2457 -0.0182c -0.091 -0.0091 -0.2002 -0.0182 -0.3185 -0.0182c -0.1001 0 -0.1911 0 -0.2639 0.0091c 0.1092 0.0182 0.2184 0.0273 0.3367 0.0273Z "/></symbol><symbol id="g9948C0FDABF29E771DA30338E5C0072D" overflow="visible"><path d="M 0 0m 6.3336 2.4843h -5.5874c -0.182 0 -0.2366 -0.091 -0.2366 -0.2093c 0 -0.1183 0.0546 -0.2093 0.2366 -0.2093h 5.5874c 0.182 0 0.2366 0.091 0.2366 0.2093c 0 0.1092 -0.0546 0.2093 -0.2366 0.2093Z "/></symbol><symbol id="gFF16A71406285492465AAA8A0C1F3936" overflow="visible"><path d="M 0 0m 4.9413 3.9221c -0.1729 0 -0.3094 -0.0819 -0.4004 -0.2366c -0.0091 -0.0273 -0.0637 -0.2002 -0.1456 -0.5278l -0.4641 -1.8655c -0.0364 -0.1547 -0.0819 -0.273 -0.1365 -0.3549c -0.3367 -0.4823 -0.728 -0.728 -1.1557 -0.728c -0.4641 0 -0.7007 0.2548 -0.7007 0.7644c 0 0.1365 0.0455 0.4186 0.1456 0.8281l 0.4641 1.8837c 0 0.2184 -0.1183 0.3276 -0.3458 0.3276c -0.2275 0 -0.3822 -0.1456 -0.4641 -0.4459l -1.2467 -4.9959c -0.0273 -0.1001 -0.0364 -0.1638 -0.0364 -0.1911c 0 -0.2184 0.1092 -0.3276 0.3367 -0.3276c 0.2366 0 0.3913 0.1547 0.4732 0.4732l 0.4004 1.6016c 0.2548 -0.1547 0.5642 -0.2366 0.9373 -0.2366c 0.3549 0 0.6916 0.1183 1.0101 0.364c 0.0455 0.0364 0.1274 0.1183 0.2639 0.2457c 0.1456 -0.4095 0.4641 -0.6097 0.9464 -0.6097c 0.3003 0 0.546 0.1638 0.7371 0.4914c 0.0728 0.1274 0.3185 0.7462 0.3185 0.9191c 0 0.1001 -0.0637 0.1456 -0.182 0.1456c -0.0455 0 -0.0819 -0.0091 -0.1092 -0.0273c -0.0637 -0.1092 -0.1092 -0.2002 -0.1183 -0.273c -0.1547 -0.6279 -0.364 -0.9373 -0.6188 -0.9373c -0.1729 0 -0.2639 0.1365 -0.2639 0.4095c 0 0.1001 0.0455 0.3367 0.1365 0.7007l 0.1911 0.8099l 0.2093 0.7917c 0.1001 0.4004 0.1547 0.6279 0.1547 0.6825c 0 0.182 -0.1547 0.3185 -0.3367 0.3185Z "/></symbol><symbol id="g46583585F9F2E82789E32589C97B74E" overflow="visible"><path d="M 0 0m 0.7098 -2.2295c 0.546 0.4186 1.001 1.0374 1.3741 1.8655c 0.3549 0.7917 0.5369 1.5379 0.5369 2.2568v 0.7644c 0 0.7189 -0.182 1.4651 -0.5369 2.2568c -0.3731 0.8281 -0.8281 1.4469 -1.3741 1.8655c -0.0273 0.0182 -0.0546 0.0273 -0.0637 0.0273c -0.0819 0 -0.1274 -0.0455 -0.1274 -0.1274c 0 -0.0364 0.0182 -0.0728 0.0455 -0.1001c 0.4732 -0.364 0.8554 -0.9646 1.1375 -1.7927c 0.2457 -0.7189 0.3731 -1.4287 0.3731 -2.1294v -0.7644c 0 -0.7007 -0.1274 -1.4105 -0.3731 -2.1294c -0.2821 -0.8281 -0.6643 -1.4287 -1.1375 -1.7927c -0.0273 -0.0364 -0.0455 -0.0728 -0.0455 -0.1001c 0 -0.0819 0.0455 -0.1274 0.1274 -0.1274c 0.0091 0 0.0364 0.0091 0.0637 0.0273Z "/></symbol><symbol id="gEDF6611ACB83925E748178A176190AF2" overflow="visible"><path d="M 0 0m 9.074 3.562h -3.705v 3.705c 0 0.208 -0.104 0.312 -0.312 0.312c -0.208 0 -0.312 -0.104 -0.312 -0.312v -3.705h -3.705c -0.208 0 -0.312 -0.104 -0.312 -0.312c 0 -0.208 0.104 -0.312 0.312 -0.312h 3.705v -3.705c 0 -0.208 0.104 -0.312 0.312 -0.312c 0.208 0 0.312 0.104 0.312 0.312v 3.705h 3.705c 0.208 0 0.312 0.104 0.312 0.312c 0 0.169 -0.143 0.312 -0.312 0.312Z "/></symbol><symbol id="g355FFC1F8FD089FB81F0C4B991D8C07D" overflow="visible"><path d="M 0 0m 4.3498 3.2578c 0.637 0.1638 1.3286 0.6734 1.3286 1.4014c 0 0.4823 -0.2275 0.8645 -0.6825 1.1648c -0.3913 0.2639 -0.8463 0.3913 -1.3468 0.3913h -3.3215v -0.3549h 0.2548c 0.3185 0 0.5096 -0.0273 0.5733 -0.0728c 0.0637 -0.0455 0.1001 -0.1456 0.1001 -0.3094v -4.7411c 0 -0.1638 -0.0364 -0.273 -0.1001 -0.3185c -0.0637 -0.0455 -0.2548 -0.0637 -0.5733 -0.0637h -0.2548v -0.3549h 3.5581c 0.5187 0 0.9828 0.1456 1.3832 0.4368c 0.4368 0.3185 0.6552 0.7371 0.6552 1.2467c 0 0.8463 -0.8008 1.4287 -1.5743 1.5743Z m 0.3913 1.4014c 0 -0.7644 -0.637 -1.2922 -1.4014 -1.2922h -1.2649v 2.1749c 0 0.3276 0.0455 0.3185 0.4004 0.3185h 1.1102c 0.6734 0 1.1557 -0.5278 1.1557 -1.2012Z m 0.2093 -2.9666v -0.2366c -0.0182 -0.2093 -0.1365 -0.4459 -0.364 -0.6916c -0.2366 -0.273 -0.5642 -0.4095 -0.9919 -0.4095h -1.1193c -0.3549 0 -0.4004 -0.0091 -0.4004 0.3185v 2.4206h 1.6471c 0.7371 0 1.2285 -0.637 1.2285 -1.4014Z "/></symbol><symbol id="gAC6012DEC55F9E54F4CBDA2A0C8550D7" overflow="visible"><path d="M 0 0m 2.093 0.6734v 2.366h 0.7735c 0.4095 0 0.6643 -0.0728 0.7735 -0.2093c 0.1092 -0.1365 0.1638 -0.4186 0.1638 -0.8463h 0.3003v 2.457h -0.3003c 0 -0.4277 -0.0546 -0.7007 -0.1638 -0.8372c -0.1092 -0.1365 -0.364 -0.2093 -0.7735 -0.2093h -0.7735v 2.1203c 0 0.3276 0.0546 0.3185 0.4095 0.3185h 1.1557c 0.6552 0 1.092 -0.1274 1.3195 -0.3913c 0.2912 -0.3549 0.3276 -0.6825 0.4095 -1.3468h 0.3003l -0.2639 2.093h -5.1233v -0.3549h 0.2548c 0.3185 0 0.5096 -0.0182 0.5733 -0.0637c 0.0637 -0.0455 0.1001 -0.1547 0.1001 -0.3185v -4.7138c 0 -0.1638 -0.0364 -0.273 -0.1001 -0.3185c -0.0637 -0.0455 -0.2548 -0.0637 -0.5733 -0.0637h -0.2548v -0.3549h 5.2507l 0.3913 2.3933h -0.3003c -0.0819 -0.5005 -0.1638 -0.8827 -0.2639 -1.1557c -0.1001 -0.273 -0.2821 -0.4914 -0.5551 -0.6643c -0.2275 -0.1456 -0.6006 -0.2184 -1.1284 -0.2184h -1.1921c -0.3549 0 -0.4095 -0.0091 -0.4095 0.3185Z "/></symbol><symbol id="g9B543B57F718853EF8F95EF155B6CF69" overflow="visible"><path d="M 0 0m 9.074 3.51h -8.034c -0.208 0 -0.312 -0.091 -0.312 -0.26c 0 -0.169 0.104 -0.26 0.312 -0.26h 8.034c 0.208 0 0.312 0.091 0.312 0.26c 0 0.156 -0.156 0.26 -0.312 0.26Z "/></symbol></defs></svg>