<svg viewBox="0 0 162.071433333 28.444" width="162.071433333pt" height="28.444pt" xmlns="http://www.w3.org/2000/svg" xmlns:xlink="http://www.w3.org/1999/xlink" xmlns:h5="http://www.w3.org/1999/xhtml"><g transform="matrix(1 0 0 -1 6.5 21.32)"><use xlink:href="#gA32CAC846971E9468FADD933D647D41A" x="0" y="0" fill="#e6edf3" fill-rule="nonzero"/></g><g transform="matrix(1 0 0 -1 14.339 21.32)"><use xlink:href="#g2D7122AD31FABF41BED931716B883F58" x="0" y="0" fill="#e6edf3" fill-rule="nonzero"/></g><g transform="matrix(1 0 0 -1 19.396 21.32)"><use xlink:href="#g2D1FD5FA7721AD843D67732819992226" x="0" y="0" fill="#e6edf3" fill-rule="nonzero"/></g><g transform="matrix(1 0 0 -1 28.912 21.32)"><use xlink:href="#gEFA988DEC565252013B2D05DB9DFDA82" x="0" y="0" fill="#e6edf3" fill-rule="nonzero"/></g><g transform="matrix(1 0 0 -1 34.692666667 21.32)"><use xlink:href="#g53251C539233983FE9FC826CA7FBAC4A" x="0" y="0" fill="#e6edf3" fill-rule="nonzero"/></g><g transform="matrix(1 0 0 -1 45.053666667 21.32)"><use xlink:href="#g2F93E6EEEE2061842AA37F49EEA2F1A2" x="0" y="0" fill="#e6edf3" fill-rule="nonzero"/></g><g transform="matrix(1 0 0 -1 71.623716667 21.32)"><use xlink:href="#g43776F0EA130CB0EC6D88FD1D39ED823" x="0" y="0" fill="#e6edf3" fill-rule="nonzero"/></g><g transform="matrix(1 0 0 -1 63.110666667 10.2154)"><use xlink:href="#gC0ABA531695025EEEBCE35B3C23FE9A6" x="0" y="0" fill="#e6edf3" fill-rule="nonzero"/><use xlink:href="#g6F1B2EC7690C574873AE01D06ED173C6" x="5.6875" y="0" fill="#e6edf3" fill-rule="nonzero"/><use xlink:href="#g44B522BD902AC660D87109134D3AB71C" x="9.7279" y="0" fill="#e6edf3" fill-rule="nonzero"/><use xlink:href="#g6F1B2EC7690C574873AE01D06ED173C6" x="14.2779" y="0" fill="#e6edf3" fill-rule="nonzero"/><use xlink:href="#g689CD2C8CC31657A53FE374FF94F6738" x="18.3183" y="0" fill="#e6edf3" fill-rule="nonzero"/><use xlink:href="#g9BBD495599649835EB769190150DF525" x="23.3779" y="0" fill="#e6edf3" fill-rule="nonzero"/><use xlink:href="#g23F189AE588E1A359BE6574F29945FEE" x="28.4375" y="0" fill="#e6edf3" fill-rule="nonzero"/><use xlink:href="#g6F1B2EC7690C574873AE01D06ED173C6" x="32.0047" y="0" fill="#e6edf3" fill-rule="nonzero"/></g><g transform="matrix(1 0 0 -1 112.155766667 21.32)"><use xlink:href="#gA32CAC846971E9468FADD933D647D41A" x="0" y="0" fill="#e6edf3" fill-rule="nonzero"/></g><g transform="matrix(1 0 0 -1 119.994766667 21.32)"><use xlink:href="#g2D7122AD31FABF41BED931716B883F58" x="0" y="0" fill="#e6edf3" fill-rule="nonzero"/></g><g transform="matrix(1 0 0 -1 125.051766667 21.32)"><use xlink:href="#g2D1FD5FA7721AD843D67732819992226" x="0" y="0" fill="#e6edf3" fill-rule="nonzero"/></g><g transform="matrix(1 0 0 -1 134.567766667 21.32)"><use xlink:href="#gEFA988DEC565252013B2D05DB9DFDA82" x="0" y="0" fill="#e6edf3" fill-rule="nonzero"/></g><g transform="matrix(1 0 0 -1 140.348433333 21.32)"><use xlink:href="#gA7C36109E42D4F0EB4F28B48DBFDEDEE" x="0" y="0" fill="#e6edf3" fill-rule="nonzero"/></g><g transform="matrix(1 0 0 -1 150.514433333 21.32)"><use xlink:href="#g2F93E6EEEE2061842AA37F49EEA2F1A2" x="0" y="0" fill="#e6edf3" fill-rule="nonzero"/></g><defs><symbol id="gA32CAC846971E9468FADD933D647D41A" overflow="visible"><path d="M 0 0m 7.436 1.846c 0 0.117 -0.065 0.182 -0.208 0.182c -0.104 0 -0.182 -0.091 -0.221 -0.26c -0.26 -1.04 -0.572 -1.56 -0.923 -1.56c -0.221 0 -0.338 0.182 -0.338 0.546c 0 0.221 0.078 0.663 0.247 1.313l 0.364 1.391c 0.117 0.468 0.221 0.793 0.299 1.196l 0.078 0.364c 0.026 0.091 0.039 0.156 0.039 0.182c 0 0.273 -0.143 0.403 -0.429 0.403c -0.286 0 -0.468 -0.156 -0.546 -0.481l -0.936 -3.718c 0 -0.143 -0.208 -0.403 -0.624 -0.793c -0.286 -0.273 -0.611 -0.403 -0.988 -0.403c -0.598 0 -0.897 0.351 -0.897 1.066c 0 0.247 0.052 0.598 0.169 1.079l 0.546 2.158c 0.104 0.403 0.169 0.689 0.195 0.832c 0 0.273 -0.143 0.403 -0.429 0.403c -0.286 0 -0.468 -0.169 -0.559 -0.507l -1.846 -7.436c -0.026 -0.104 -0.039 -0.169 -0.039 -0.208c 0 -0.273 0.143 -0.403 0.416 -0.403c 0.195 0 0.351 0.104 0.494 0.299c 0.039 0.091 0.26 0.988 0.689 2.691c 0.312 -0.234 0.715 -0.351 1.209 -0.351c 0.767 0 1.274 0.403 1.677 0.871c 0.143 -0.481 0.572 -0.871 1.183 -0.871c 0.897 0 1.17 1.053 1.378 2.015Z "/></symbol><symbol id="g2D7122AD31FABF41BED931716B883F58" overflow="visible"><path d="M 0 0m 4.134 -3.224c 0.117 0 0.182 0.065 0.182 0.182c 0 0.039 -0.026 0.091 -0.065 0.143c -0.676 0.52 -1.222 1.378 -1.625 2.561c -0.351 1.027 -0.533 2.041 -0.533 3.042v 1.092c 0 1.001 0.182 2.015 0.533 3.042c 0.403 1.183 0.949 2.041 1.625 2.561c 0.039 0.039 0.065 0.091 0.065 0.143c 0 0.117 -0.065 0.182 -0.182 0.182c -0.013 0 -0.052 -0.013 -0.091 -0.039c -0.78 -0.598 -1.43 -1.482 -1.963 -2.665c -0.507 -1.131 -0.767 -2.197 -0.767 -3.224v -1.092c 0 -1.027 0.26 -2.093 0.767 -3.224c 0.533 -1.183 1.183 -2.067 1.963 -2.665c 0.039 -0.026 0.078 -0.039 0.091 -0.039Z "/></symbol><symbol id="g2D1FD5FA7721AD843D67732819992226" overflow="visible"><path d="M 0 0m 4.472 8.203c 0 -0.039 -0.013 -0.13 -0.052 -0.26l -1.716 -6.864c -0.052 -0.195 -0.104 -0.312 -0.143 -0.364c -0.117 -0.143 -0.559 -0.208 -1.339 -0.208c -0.403 0 -0.585 0.039 -0.585 -0.299c 0 -0.143 0.091 -0.208 0.26 -0.208c 0.663 0 1.599 0.052 2.158 0.039l 1.066 -0.013c 0.182 0 0.897 -0.026 1.118 -0.026c 0.221 0 0.325 0.104 0.325 0.312c 0 0.13 -0.156 0.195 -0.481 0.195c -0.676 0 -1.066 0.026 -1.183 0.091c -0.039 0.026 -0.065 0.078 -0.065 0.156l 1.755 7.085c 0.039 0.182 0.078 0.299 0.117 0.338c 0.052 0.078 0.364 0.117 0.936 0.117c 0.715 0 1.209 -0.052 1.456 -0.169c 0.247 -0.117 0.377 -0.39 0.377 -0.832c 0 -0.234 -0.039 -0.572 -0.104 -1.014c -0.026 -0.104 -0.039 -0.182 -0.039 -0.247c 0 -0.143 0.065 -0.221 0.208 -0.221c 0.117 0 0.195 0.117 0.234 0.338l 0.351 2.236c 0.013 0.065 0.026 0.143 0.026 0.221c 0 0.13 -0.13 0.195 -0.403 0.195h -7.124c -0.338 0 -0.364 -0.039 -0.468 -0.286l -0.767 -2.262c -0.039 -0.117 -0.065 -0.195 -0.078 -0.247c 0 -0.13 0.065 -0.195 0.208 -0.195c 0.104 0 0.195 0.104 0.26 0.299c 0.325 0.949 0.65 1.534 0.949 1.781c 0.338 0.273 0.988 0.403 1.937 0.403h 0.507c 0.143 0 0.299 0.013 0.299 -0.091Z "/></symbol><symbol id="gEFA988DEC565252013B2D05DB9DFDA82" overflow="visible"><path d="M 0 0m 1.807 1.378c -0.416 0 -0.689 -0.312 -0.689 -0.728c 0 -0.39 0.299 -0.715 0.689 -0.715c 0.182 0 0.338 0.052 0.455 0.169l 0.013 -0.104c 0 -0.819 -0.273 -1.521 -0.819 -2.08c -0.091 -0.104 -0.143 -0.182 -0.143 -0.234c 0 -0.13 0.052 -0.195 0.169 -0.195c 0.117 0 0.273 0.156 0.494 0.455c 0.442 0.624 0.663 1.313 0.663 2.054c 0 0.689 -0.234 1.378 -0.832 1.378Z "/></symbol><symbol id="g53251C539233983FE9FC826CA7FBAC4A" overflow="visible"><path d="M 0 0m 8.723 8.84c -0.247 0 -1.027 0.039 -1.274 0.039c -0.195 0 -0.299 -0.104 -0.299 -0.299c 0 -0.13 0.091 -0.195 0.26 -0.208c 0.364 -0.013 0.546 -0.143 0.546 -0.364c 0 -0.117 -0.065 -0.273 -0.182 -0.468l -3.874 -6.149l -0.858 6.656c 0 0.221 0.273 0.325 0.832 0.325c 0.26 0 0.377 0.091 0.377 0.312c 0 0.13 -0.078 0.195 -0.234 0.195c -0.286 0 -1.3 -0.039 -1.586 -0.039c -0.26 0 -1.144 0.039 -1.404 0.039c -0.195 0 -0.299 -0.104 -0.299 -0.299c 0 -0.143 0.13 -0.208 0.377 -0.208c 0.221 0 0.377 -0.026 0.481 -0.052c 0.208 -0.065 0.195 -0.091 0.234 -0.338l 1.014 -7.93c 0.039 -0.221 0.143 -0.338 0.312 -0.338c 0.169 0 0.299 0.091 0.403 0.26l 4.628 7.358c 0.299 0.468 0.585 0.767 0.871 0.884c 0.195 0.091 0.442 0.143 0.728 0.156c 0.143 0.013 0.208 0.104 0.221 0.299c 0.013 0.143 -0.065 0.208 -0.221 0.208c -0.195 0 -0.858 -0.039 -1.053 -0.039Z "/></symbol><symbol id="g2F93E6EEEE2061842AA37F49EEA2F1A2" overflow="visible"><path d="M 0 0m 1.014 -3.185c 0.78 0.598 1.43 1.482 1.963 2.665c 0.507 1.131 0.767 2.197 0.767 3.224v 1.092c 0 1.027 -0.26 2.093 -0.767 3.224c -0.533 1.183 -1.183 2.067 -1.963 2.665c -0.039 0.026 -0.078 0.039 -0.091 0.039c -0.117 0 -0.182 -0.065 -0.182 -0.182c 0 -0.052 0.026 -0.104 0.065 -0.143c 0.676 -0.52 1.222 -1.378 1.625 -2.561c 0.351 -1.027 0.533 -2.041 0.533 -3.042v -1.092c 0 -1.001 -0.182 -2.015 -0.533 -3.042c -0.403 -1.183 -0.949 -2.041 -1.625 -2.561c -0.039 -0.052 -0.065 -0.104 -0.065 -0.143c 0 -0.117 0.065 -0.182 0.182 -0.182c 0.013 0 0.052 0.013 0.091 0.039Z "/></symbol><symbol id="g43776F0EA130CB0EC6D88FD1D39ED823" overflow="visible"><path d="M 0 0m 18.148 3.042c 0.091 0.039 0.143 0.117 0.143 0.208c 0 0.091 -0.052 0.169 -0.143 0.208c -0.637 0.208 -1.222 0.65 -1.755 1.326c -0.377 0.455 -0.624 0.988 -0.741 1.599c -0.039 0.169 -0.143 0.247 -0.312 0.247c -0.208 0 -0.312 -0.104 -0.312 -0.325l 0.013 -0.026v -0.013c 0.221 -1.131 0.806 -2.028 1.755 -2.704h -15.756c -0.208 0 -0.312 -0.104 -0.312 -0.312c 0 -0.208 0.104 -0.312 0.312 -0.312h 15.756c -0.949 -0.676 -1.534 -1.573 -1.755 -2.704v -0.013l -0.013 -0.026c 0 -0.221 0.104 -0.325 0.312 -0.325c 0.169 0 0.273 0.078 0.312 0.247c 0.117 0.611 0.364 1.144 0.741 1.599c 0.533 0.676 1.118 1.118 1.755 1.326Z "/></symbol><symbol id="gC0ABA531695025EEEBCE35B3C23FE9A6" overflow="visible"><path d="M 0 0m 2.093 0.6734v 4.7957c 0 0.1183 0.0091 0.1911 0.0273 0.2366c 0.0455 0.1001 0.3094 0.1547 0.7917 0.1547h 0.3276v 0.3549c -0.2366 -0.0182 -0.7462 -0.0273 -1.5379 -0.0273c -0.7007 0 -1.1648 0.0091 -1.4014 0.0273v -0.3549h 0.2548c 0.3185 0 0.5096 -0.0273 0.5733 -0.0728c 0.0637 -0.0455 0.1001 -0.1456 0.1001 -0.3094v -4.7411c 0 -0.1638 -0.0364 -0.273 -0.1001 -0.3185c -0.0637 -0.0455 -0.2548 -0.0637 -0.5733 -0.0637h -0.2548v -0.3549h 4.7411l 0.2548 2.3933h -0.2912c -0.0455 -0.4641 -0.1274 -0.8372 -0.2275 -1.1284c -0.2002 -0.5733 -0.7371 -0.91 -1.547 -0.91h -0.7371c -0.3458 0 -0.4004 0 -0.4004 0.3185Z "/></symbol><symbol id="g6F1B2EC7690C574873AE01D06ED173C6" overflow="visible"><path d="M 0 0m 3.7765 2.2841c 0 1.0465 -0.6097 1.7927 -1.6289 1.7927c -0.546 0 -1.001 -0.2093 -1.3741 -0.637c -0.3458 -0.4004 -0.5187 -0.8827 -0.5187 -1.4378c 0 -0.5733 0.1911 -1.0556 0.5733 -1.4742c 0.3822 -0.4186 0.8554 -0.6279 1.4196 -0.6279c 0.5187 0 0.9191 0.182 1.1921 0.5369c 0.2275 0.3003 0.3367 0.5187 0.3367 0.6643c 0 0.091 -0.0546 0.1365 -0.1547 0.1365c -0.0728 0 -0.1183 -0.0455 -0.1456 -0.1456c -0.2002 -0.6006 -0.5915 -0.9009 -1.1739 -0.9009c -0.4095 0 -0.728 0.1911 -0.9737 0.5824c -0.1729 0.2821 -0.2548 0.7098 -0.2639 1.2922h 2.457c 0.2002 0 0.2548 0.0182 0.2548 0.2184Z m -0.8099 0.8918c 0.1001 -0.3003 0.1456 -0.5915 0.1456 -0.8554h -2.0384c 0.0273 0.6006 0.182 1.0101 0.455 1.2194c 0.2275 0.182 0.4277 0.273 0.6188 0.273c 0.4095 0 0.6825 -0.2093 0.819 -0.637Z "/></symbol><symbol id="g44B522BD902AC660D87109134D3AB71C" overflow="visible"><path d="M 0 0m 3.9221 4.1223c -0.3458 0 -0.6643 -0.1365 -0.9555 -0.4095c -0.273 0.2093 -0.5824 0.3094 -0.9373 0.3094c -0.7826 0 -1.4924 -0.5824 -1.4924 -1.3468c 0 -0.3822 0.1365 -0.6916 0.4095 -0.9282c -0.1729 -0.2184 -0.2639 -0.4641 -0.2639 -0.7462c 0 -0.3458 0.1183 -0.6097 0.3458 -0.7826c -0.3822 -0.1274 -0.7735 -0.455 -0.7735 -0.9191c 0 -0.3913 0.2548 -0.7007 0.7553 -0.9191c 0.3822 -0.1729 0.8008 -0.2548 1.2558 -0.2548c 0.4641 0 0.8918 0.0819 1.274 0.2548c 0.5005 0.2184 0.7462 0.5278 0.7462 0.9373c 0 0.4823 -0.2002 0.8372 -0.6006 1.0647c -0.4186 0.2275 -0.8827 0.2548 -1.5561 0.2548c -0.4004 0 -0.6188 0 -0.6643 0.0091c -0.2548 0.0364 -0.4368 0.2821 -0.4368 0.5642c 0 0.1365 0.0364 0.2639 0.1183 0.3731c 0.2548 -0.1729 0.546 -0.2639 0.8827 -0.2639c 0.7826 0 1.4833 0.5824 1.4833 1.3468c 0 0.3549 -0.1183 0.6461 -0.3549 0.8736c 0.2275 0.2093 0.4732 0.3094 0.7371 0.3094c -0.0455 -0.0455 -0.0728 -0.1183 -0.0728 -0.2093c 0 -0.2002 0.1001 -0.3003 0.3003 -0.3003c 0.1911 0 0.2912 0.1001 0.2912 0.3094c 0 0.2821 -0.2184 0.4732 -0.4914 0.4732Z m -1.8928 -0.3822c 0.4914 0 0.7371 -0.3549 0.7371 -1.0647c 0 -0.7189 -0.2457 -1.0829 -0.7371 -1.0829c -0.5005 0 -0.7462 0.3549 -0.7462 1.0738c 0 0.7189 0.2457 1.0738 0.7462 1.0738Z m -0.5369 -3.7037h 0.5278c 0.4732 0 0.8554 -0.0273 1.1466 -0.091c 0.3913 -0.0819 0.5824 -0.3003 0.5824 -0.6461c 0 -0.2912 -0.182 -0.5187 -0.546 -0.6916c -0.2821 -0.1365 -0.5915 -0.2002 -0.9282 -0.2002c -0.3276 0 -0.637 0.0637 -0.9282 0.2002c -0.3731 0.1729 -0.5551 0.4004 -0.5551 0.6916c 0 0.3822 0.3276 0.7371 0.7007 0.7371Z "/></symbol><symbol id="g689CD2C8CC31657A53FE374FF94F6738" overflow="visible"><path d="M 0 0m 2.8574 3.7583c 0.4095 0 0.6188 -0.3185 0.6188 -0.9646v -2.0748c 0 -0.1729 -0.0273 -0.2821 -0.091 -0.3185c -0.0637 -0.0364 -0.2639 -0.0546 -0.6006 -0.0546v -0.3458l 1.0465 0.0273l 1.0374 -0.0273v 0.3458c -0.2912 0 -0.4823 0.0091 -0.5733 0.0364c -0.091 0.0273 -0.1274 0.091 -0.1274 0.2002v 1.7017c 0 0.4277 -0.0091 0.728 -0.0364 0.9009c -0.091 0.5551 -0.5005 0.8372 -1.2194 0.8372c -0.5733 0 -1.001 -0.273 -1.2831 -0.819v 0.819l -1.3377 -0.1001v -0.3458c 0.3276 0 0.5278 -0.0273 0.6006 -0.0819c 0.0728 -0.0546 0.1001 -0.1729 0.1001 -0.3822v -2.3933c 0 -0.1729 -0.0364 -0.2821 -0.1001 -0.3185c -0.0637 -0.0364 -0.2639 -0.0546 -0.6006 -0.0546v -0.3458l 1.0465 0.0273l 1.0374 -0.0273v 0.3458c -0.3367 0 -0.5278 0.0182 -0.5915 0.0546c -0.0637 0.0364 -0.1001 0.1456 -0.1001 0.3185v 1.638c 0 0.7371 0.4641 1.4014 1.1739 1.4014Z "/></symbol><symbol id="g9BBD495599649835EB769190150DF525" overflow="visible"><path d="M 0 0m 3.4034 -0.1001l 1.3923 0.1001v 0.3458c -0.3276 0 -0.5187 0.0182 -0.5915 0.0728c -0.0728 0.0546 -0.1092 0.1911 -0.1092 0.4004v 5.4964l -1.3559 -0.1001v -0.3458c 0.3185 0 0.5187 -0.0273 0.5915 -0.0819c 0.0728 -0.0546 0.1001 -0.182 0.1001 -0.3913v -1.8473c -0.2912 0.3367 -0.6552 0.5005 -1.092 0.5005c -0.5642 0 -1.0465 -0.2002 -1.4378 -0.6097c -0.3913 -0.4095 -0.5915 -0.9009 -0.5915 -1.4742c 0 -0.5551 0.182 -1.0374 0.5551 -1.4469c 0.3731 -0.4095 0.8281 -0.6188 1.3832 -0.6188c 0.4641 0 0.8554 0.1729 1.1557 0.5278Z m -1.0283 3.8766c 0.3913 0 0.7098 -0.1729 0.9373 -0.5187c 0.0637 -0.1001 0.091 -0.2002 0.091 -0.3185v -1.8382c 0 -0.1183 -0.0273 -0.2184 -0.091 -0.3185c -0.2548 -0.4095 -0.6006 -0.6097 -1.0283 -0.6097c -0.3731 0 -0.6734 0.182 -0.91 0.5551c -0.1638 0.273 -0.2457 0.6825 -0.2457 1.2285c 0 0.9919 0.3367 1.82 1.2467 1.82Z "/></symbol><symbol id="g23F189AE588E1A359BE6574F29945FEE" overflow="visible"><path d="M 0 0m 3.3124 3.4398c 0 0.3549 -0.3367 0.5824 -0.6916 0.5824c -0.4641 0 -0.819 -0.273 -1.0556 -0.8281v 0.8281l -1.3104 -0.1001v -0.3458c 0.3185 0 0.5096 -0.0273 0.5824 -0.0819c 0.0728 -0.0546 0.1092 -0.1729 0.1092 -0.3822v -2.3933c 0 -0.1729 -0.0273 -0.2821 -0.091 -0.3185c -0.0637 -0.0364 -0.2639 -0.0546 -0.6006 -0.0546v -0.3458l 1.0465 0.0273c 0.3822 0.0091 0.7735 0 1.1648 -0.0273v 0.3458h -0.2184c -0.3003 0 -0.4914 0.0273 -0.5551 0.0728c -0.0637 0.0455 -0.091 0.1547 -0.091 0.3185v 1.3741c 0 0.3913 0.0728 0.7462 0.2093 1.0465c 0.182 0.3913 0.4459 0.5915 0.8008 0.6006c -0.091 -0.091 -0.1365 -0.2002 -0.1365 -0.3276c 0 -0.2821 0.1365 -0.4186 0.4186 -0.4186c 0.2457 0 0.4186 0.1911 0.4186 0.4277Z "/></symbol><symbol id="gA7C36109E42D4F0EB4F28B48DBFDEDEE" overflow="visible"><path d="M 0 0m 7.215 8.879h -4.16c -0.299 0 -0.442 -0.013 -0.442 -0.299c 0 -0.143 0.143 -0.208 0.429 -0.208c 0.26 0 0.78 0.039 0.78 -0.169c 0 -0.026 -0.013 -0.104 -0.052 -0.234l -1.716 -6.903c -0.078 -0.286 -0.208 -0.455 -0.39 -0.52c -0.091 -0.026 -0.325 -0.039 -0.728 -0.039c -0.286 0 -0.416 -0.026 -0.416 -0.299c 0 -0.143 0.078 -0.208 0.247 -0.208l 1.625 0.039l 0.832 -0.013c 0.143 0 0.663 -0.026 0.832 -0.026c 0.208 0 0.312 0.104 0.312 0.312c 0 0.13 -0.143 0.195 -0.416 0.195c -0.52 0 -0.78 0.052 -0.78 0.169c 0 0 0.013 0.039 0.039 0.208l 0.78 3.172h 2.145c 0.845 0 1.651 0.26 2.405 0.767c 0.845 0.559 1.261 1.248 1.261 2.067c 0 1.287 -1.222 1.989 -2.587 1.989Z m -0.403 -0.507c 1.131 0 1.69 -0.39 1.69 -1.17c 0 -0.728 -0.364 -1.703 -0.741 -2.041c -0.494 -0.442 -1.144 -0.663 -1.95 -0.663h -1.742l 0.858 3.432c 0.104 0.442 0.104 0.442 0.65 0.442Z "/></symbol></defs></svg>