<svg viewBox="0 0 196.618066667 19.89" width="196.618066667pt" height="19.89pt" xmlns="http://www.w3.org/2000/svg" xmlns:xlink="http://www.w3.org/1999/xlink" xmlns:h5="http://www.w3.org/1999/xhtml"><g transform="matrix(1 0 0 -1 6.5 12.779)"><use xlink:href="#g2D1FD5FA7721AD843D67732819992226" x="0" y="0" fill="#e6edf3" fill-rule="nonzero"/></g><g transform="matrix(1 0 0 -1 13.702 15.99)"><use xlink:href="#g5A380D51C1693CF037954AEF50086985" x="0" y="0" fill="#e6edf3" fill-rule="nonzero"/></g><g transform="matrix(1 0 0 -1 23.219011111 12.779)"><use xlink:href="#g13AFF74D87C474CFAF661EEAD0458F8B" x="0" y="0" fill="#e6edf3" fill-rule="nonzero"/></g><g transform="matrix(1 0 0 -1 36.944122222 12.779)"><use xlink:href="#g2D1FD5FA7721AD843D67732819992226" x="0" y="0" fill="#e6edf3" fill-rule="nonzero"/></g><g transform="matrix(1 0 0 -1 44.146122222 15.99)"><use xlink:href="#g8A6A9074F91D642F82CC8BE39AC39D3A" x="0" y="0" fill="#e6edf3" fill-rule="nonzero"/></g><g transform="matrix(1 0 0 -1 76.052022222 12.779)"><use xlink:href="#gA7C36109E42D4F0EB4F28B48DBFDEDEE" x="0" y="0" fill="#e6edf3" fill-rule="nonzero"/></g><g transform="matrix(1 0 0 -1 83.098022222 15.99)"><use xlink:href="#g5A380D51C1693CF037954AEF50086985" x="0" y="0" fill="#e6edf3" fill-rule="nonzero"/></g><g transform="matrix(1 0 0 -1 92.615033333 12.779)"><use xlink:href="#g13AFF74D87C474CFAF661EEAD0458F8B" x="0" y="0" fill="#e6edf3" fill-rule="nonzero"/></g><g transform="matrix(1 0 0 -1 106.340144444 12.779)"><use xlink:href="#gA7C36109E42D4F0EB4F28B48DBFDEDEE" x="0" y="0" fill="#e6edf3" fill-rule="nonzero"/></g><g transform="matrix(1 0 0 -1 113.386144444 15.99)"><use xlink:href="#g8A6A9074F91D642F82CC8BE39AC39D3A" x="0" y="0" fill="#e6edf3" fill-rule="nonzero"/></g><g transform="matrix(1 0 0 -1 145.292044444 12.779)"><use xlink:href="#gA32CAC846971E9468FADD933D647D41A" x="0" y="0" fill="#e6edf3" fill-rule="nonzero"/></g><g transform="matrix(1 0 0 -1 153.131044444 15.99)"><use xlink:href="#g5A380D51C1693CF037954AEF50086985" x="0" y="0" fill="#e6edf3" fill-rule="nonzero"/></g><g transform="matrix(1 0 0 -1 162.648055556 12.779)"><use xlink:href="#g13AFF74D87C474CFAF661EEAD0458F8B" x="0" y="0" fill="#e6edf3" fill-rule="nonzero"/></g><g transform="matrix(1 0 0 -1 176.373166667 12.779)"><use xlink:href="#gA32CAC846971E9468FADD933D647D41A" x="0" y="0" fill="#e6edf3" fill-rule="nonzero"/></g><g transform="matrix(1 0 0 -1 184.212166667 15.99)"><use xlink:href="#g8A6A9074F91D642F82CC8BE39AC39D3A" x="0" y="0" fill="#e6edf3" fill-rule="nonzero"/></g><defs><symbol id="g2D1FD5FA7721AD843D67732819992226" overflow="visible"><path d="M 0 0m 4.472 8.203c 0 -0.039 -0.013 -0.13 -0.052 -0.26l -1.716 -6.864c -0.052 -0.195 -0.104 -0.312 -0.143 -0.364c -0.117 -0.143 -0.559 -0.208 -1.339 -0.208c -0.403 0 -0.585 0.039 -0.585 -0.299c 0 -0.143 0.091 -0.208 0.26 -0.208c 0.663 0 1.599 0.052 2.158 0.039l 1.066 -0.013c 0.182 0 0.897 -0.026 1.118 -0.026c 0.221 0 0.325 0.104 0.325 0.312c 0 0.13 -0.156 0.195 -0.481 0.195c -0.676 0 -1.066 0.026 -1.183 0.091c -0.039 0.026 -0.065 0.078 -0.065 0.156l 1.755 7.085c 0.039 0.182 0.078 0.299 0.117 0.338c 0.052 0.078 0.364 0.117 0.936 0.117c 0.715 0 1.209 -0.052 1.456 -0.169c 0.247 -0.117 0.377 -0.39 0.377 -0.832c 0 -0.234 -0.039 -0.572 -0.104 -1.014c -0.026 -0.104 -0.039 -0.182 -0.039 -0.247c 0 -0.143 0.065 -0.221 0.208 -0.221c 0.117 0 0.195 0.117 0.234 0.338l 0.351 2.236c 0.013 0.065 0.026 0.143 0.026 0.221c 0 0.13 -0.13 0.195 -0.403 0.195h -7.124c -0.338 0 -0.364 -0.039 -0.468 -0.286l -0.767 -2.262c -0.039 -0.117 -0.065 -0.195 -0.078 -0.247c 0 -0.13 0.065 -0.195 0.208 -0.195c 0.104 0 0.195 0.104 0.26 0.299c 0.325 0.949 0.65 1.534 0.949 1.781c 0.338 0.273 0.988 0.403 1.937 0.403h 0.507c 0.143 0 0.299 0.013 0.299 -0.091Z "/></symbol><symbol id="g5A380D51C1693CF037954AEF50086985" overflow="visible"><path d="M 0 0m 2.7573 6.0424c -0.3913 -0.3822 -0.9737 -0.5733 -1.7654 -0.5733v -0.4004c 0.5369 0 0.9646 0.0819 1.2922 0.2366v -4.5318c 0 -0.1183 -0.0091 -0.1911 -0.0364 -0.2275c -0.0455 -0.1001 -0.3185 -0.1547 -0.819 -0.1547h -0.3731v -0.3913l 1.6198 0.0364l 1.6289 -0.0364v 0.3913h -0.3731c -0.5005 0 -0.7735 0.0546 -0.8281 0.1547c -0.0182 0.0364 -0.0273 0.1092 -0.0273 0.2275v 4.9777c 0 0.2457 -0.0364 0.2912 -0.3185 0.2912Z "/></symbol><symbol id="g13AFF74D87C474CFAF661EEAD0458F8B" overflow="visible"><path d="M 0 0m 9.074 4.771h -8.034c -0.208 0 -0.312 -0.104 -0.312 -0.299c 0 -0.195 0.104 -0.299 0.312 -0.299h 8.034c 0.208 0 0.312 0.104 0.312 0.299c 0 0.156 -0.143 0.299 -0.312 0.299Z m 0 -2.444h -8.034c -0.208 0 -0.312 -0.104 -0.312 -0.299c 0 -0.195 0.104 -0.299 0.312 -0.299h 8.034c 0.208 0 0.312 0.104 0.312 0.299c 0 0.169 -0.143 0.299 -0.312 0.299Z "/></symbol><symbol id="g8A6A9074F91D642F82CC8BE39AC39D3A" overflow="visible"><path d="M 0 0m 1.0829 3.8584c 0.2912 0 0.5096 0.2184 0.5096 0.5096c 0 0.3276 -0.1729 0.5005 -0.5096 0.5096c 0.2002 0.4277 0.6552 0.7735 1.2467 0.7735c 0.8008 0 1.3286 -0.6006 1.3286 -1.4014c 0 -0.4368 -0.1547 -0.8554 -0.4732 -1.2649c -0.1547 -0.2093 -0.273 -0.3549 -0.3549 -0.4368l -2.1567 -2.1385c -0.1183 -0.1092 -0.1001 -0.1365 -0.1001 -0.4095h 3.7492l 0.2821 1.7108h -0.3822c -0.0637 -0.4823 -0.1365 -0.7644 -0.2184 -0.8281c -0.0455 -0.0273 -0.3276 -0.0455 -0.8645 -0.0455h -1.547c 0.6097 0.5369 1.1739 1.0192 1.7108 1.4469c 0.4095 0.3185 0.7007 0.6006 0.8827 0.8463c 0.273 0.3549 0.4095 0.728 0.4095 1.1193c 0 0.5642 -0.2184 1.0101 -0.6643 1.3377c -0.3913 0.3003 -0.8827 0.455 -1.4651 0.455c -0.5005 0 -0.9282 -0.1456 -1.3013 -0.4368c -0.3913 -0.3185 -0.5915 -0.7189 -0.5915 -1.2103c 0 -0.3094 0.2275 -0.5369 0.5096 -0.5369Z "/></symbol><symbol id="gA7C36109E42D4F0EB4F28B48DBFDEDEE" overflow="visible"><path d="M 0 0m 7.215 8.879h -4.16c -0.299 0 -0.442 -0.013 -0.442 -0.299c 0 -0.143 0.143 -0.208 0.429 -0.208c 0.26 0 0.78 0.039 0.78 -0.169c 0 -0.026 -0.013 -0.104 -0.052 -0.234l -1.716 -6.903c -0.078 -0.286 -0.208 -0.455 -0.39 -0.52c -0.091 -0.026 -0.325 -0.039 -0.728 -0.039c -0.286 0 -0.416 -0.026 -0.416 -0.299c 0 -0.143 0.078 -0.208 0.247 -0.208l 1.625 0.039l 0.832 -0.013c 0.143 0 0.663 -0.026 0.832 -0.026c 0.208 0 0.312 0.104 0.312 0.312c 0 0.13 -0.143 0.195 -0.416 0.195c -0.52 0 -0.78 0.052 -0.78 0.169c 0 0 0.013 0.039 0.039 0.208l 0.78 3.172h 2.145c 0.845 0 1.651 0.26 2.405 0.767c 0.845 0.559 1.261 1.248 1.261 2.067c 0 1.287 -1.222 1.989 -2.587 1.989Z m -0.403 -0.507c 1.131 0 1.69 -0.39 1.69 -1.17c 0 -0.728 -0.364 -1.703 -0.741 -2.041c -0.494 -0.442 -1.144 -0.663 -1.95 -0.663h -1.742l 0.858 3.432c 0.104 0.442 0.104 0.442 0.65 0.442Z "/></symbol><symbol id="gA32CAC846971E9468FADD933D647D41A" overflow="visible"><path d="M 0 0m 7.436 1.846c 0 0.117 -0.065 0.182 -0.208 0.182c -0.104 0 -0.182 -0.091 -0.221 -0.26c -0.26 -1.04 -0.572 -1.56 -0.923 -1.56c -0.221 0 -0.338 0.182 -0.338 0.546c 0 0.221 0.078 0.663 0.247 1.313l 0.364 1.391c 0.117 0.468 0.221 0.793 0.299 1.196l 0.078 0.364c 0.026 0.091 0.039 0.156 0.039 0.182c 0 0.273 -0.143 0.403 -0.429 0.403c -0.286 0 -0.468 -0.156 -0.546 -0.481l -0.936 -3.718c 0 -0.143 -0.208 -0.403 -0.624 -0.793c -0.286 -0.273 -0.611 -0.403 -0.988 -0.403c -0.598 0 -0.897 0.351 -0.897 1.066c 0 0.247 0.052 0.598 0.169 1.079l 0.546 2.158c 0.104 0.403 0.169 0.689 0.195 0.832c 0 0.273 -0.143 0.403 -0.429 0.403c -0.286 0 -0.468 -0.169 -0.559 -0.507l -1.846 -7.436c -0.026 -0.104 -0.039 -0.169 -0.039 -0.208c 0 -0.273 0.143 -0.403 0.416 -0.403c 0.195 0 0.351 0.104 0.494 0.299c 0.039 0.091 0.26 0.988 0.689 2.691c 0.312 -0.234 0.715 -0.351 1.209 -0.351c 0.767 0 1.274 0.403 1.677 0.871c 0.143 -0.481 0.572 -0.871 1.183 -0.871c 0.897 0 1.17 1.053 1.378 2.015Z "/></symbol></defs></svg>