<svg viewBox="0 0 322.550222222 20.8" width="322.550222222pt" height="20.8pt" xmlns="http://www.w3.org/2000/svg" xmlns:xlink="http://www.w3.org/1999/xlink" xmlns:h5="http://www.w3.org/1999/xhtml"><g transform="matrix(1 0 0 -1 6.5 13.65)"><use xlink:href="#g6403D552219AF1321C17844ED0BE18E1" x="0" y="0" fill="#e6edf3" fill-rule="nonzero"/></g><g transform="matrix(1 0 0 -1 13.026 13.65)"><use xlink:href="#g2D7122AD31FABF41BED931716B883F58" x="0" y="0" fill="#e6edf3" fill-rule="nonzero"/></g><g transform="matrix(1 0 0 -1 18.083 13.65)"><use xlink:href="#gAF39B06637020F254AB7B881282CA7F5" x="0" y="0" fill="#e6edf3" fill-rule="nonzero"/></g><g transform="matrix(1 0 0 -1 24.817 13.65)"><use xlink:href="#g2F93E6EEEE2061842AA37F49EEA2F1A2" x="0" y="0" fill="#e6edf3" fill-rule="nonzero"/></g><g transform="matrix(1 0 0 -1 33.485111111 13.65)"><use xlink:href="#g13AFF74D87C474CFAF661EEAD0458F8B" x="0" y="0" fill="#e6edf3" fill-rule="nonzero"/></g><g transform="matrix(1 0 0 -1 47.210222222 13.65)"><use xlink:href="#gD4E6477E4F7B402D83BEF565D2756B73" x="0" y="0" fill="#e6edf3" fill-rule="nonzero"/></g><g transform="matrix(1 0 0 -1 54.750222222 13.65)"><use xlink:href="#g2D7122AD31FABF41BED931716B883F58" x="0" y="0" fill="#e6edf3" fill-rule="nonzero"/></g><g transform="matrix(1 0 0 -1 59.807222222 13.65)"><use xlink:href="#gA6F2C1D597D3EC5A6DEDB5B511CF0779" x="0" y="0" fill="#e6edf3" fill-rule="nonzero"/></g><g transform="matrix(1 0 0 -1 67.243222222 13.65)"><use xlink:href="#g2F93E6EEEE2061842AA37F49EEA2F1A2" x="0" y="0" fill="#e6edf3" fill-rule="nonzero"/></g><g transform="matrix(1 0 0 -1 75.189111111 13.65)"><use xlink:href="#g9B543B57F718853EF8F95EF155B6CF69" x="0" y="0" fill="#e6edf3" fill-rule="nonzero"/></g><g transform="matrix(1 0 0 -1 88.192 13.65)"><use xlink:href="#gAF39B06637020F254AB7B881282CA7F5" x="0" y="0" fill="#e6edf3" fill-rule="nonzero"/></g><g transform="matrix(1 0 0 -1 97.814888889 13.65)"><use xlink:href="#gB323F9E42E1C20C087FBF81136E27860" x="0" y="0" fill="#e6edf3" fill-rule="nonzero"/></g><g transform="matrix(1 0 0 -1 104.317777778 13.65)"><use xlink:href="#gA6F2C1D597D3EC5A6DEDB5B511CF0779" x="0" y="0" fill="#e6edf3" fill-rule="nonzero"/></g><g transform="matrix(1 0 0 -1 137.753777778 13.65)"><use xlink:href="#g8B273DA24598714A1DE03FD5302C001A" x="0" y="0" fill="#e6edf3" fill-rule="nonzero"/><use xlink:href="#g5D4DFCA3C00979A1E9076032CC813B65" x="5.772" y="0" fill="#e6edf3" fill-rule="nonzero"/><use xlink:href="#gA2276AEFE9378953E87817A497BFC175" x="12.272" y="0" fill="#e6edf3" fill-rule="nonzero"/></g><g transform="matrix(1 0 0 -1 161.569777778 13.65)"><use xlink:href="#gAF39B06637020F254AB7B881282CA7F5" x="0" y="0" fill="#e6edf3" fill-rule="nonzero"/></g><g transform="matrix(1 0 0 -1 171.914888889 13.65)"><use xlink:href="#g13AFF74D87C474CFAF661EEAD0458F8B" x="0" y="0" fill="#e6edf3" fill-rule="nonzero"/></g><g transform="matrix(1 0 0 -1 185.64 13.65)"><use xlink:href="#g6BCCDCE0D843C0F823A4CE121D6D1649" x="0" y="0" fill="#e6edf3" fill-rule="nonzero"/></g><g transform="matrix(1 0 0 -1 192.712 13.65)"><use xlink:href="#gD4E6477E4F7B402D83BEF565D2756B73" x="0" y="0" fill="#e6edf3" fill-rule="nonzero"/></g><g transform="matrix(1 0 0 -1 200.252 13.65)"><use xlink:href="#gBD71DD9E9466376912EA1F5384258320" x="0" y="0" fill="#e6edf3" fill-rule="nonzero"/></g><g transform="matrix(1 0 0 -1 206.752 13.65)"><use xlink:href="#g6BCCDCE0D843C0F823A4CE121D6D1649" x="0" y="0" fill="#e6edf3" fill-rule="nonzero"/></g><g transform="matrix(1 0 0 -1 213.824 13.65)"><use xlink:href="#gA6F2C1D597D3EC5A6DEDB5B511CF0779" x="0" y="0" fill="#e6edf3" fill-rule="nonzero"/></g><g transform="matrix(1 0 0 -1 247.26 13.65)"><use xlink:href="#gA6F2C1D597D3EC5A6DEDB5B511CF0779" x="0" y="0" fill="#e6edf3" fill-rule="nonzero"/></g><g transform="matrix(1 0 0 -1 258.307111111 13.65)"><use xlink:href="#g13AFF74D87C474CFAF661EEAD0458F8B" x="0" y="0" fill="#e6edf3" fill-rule="nonzero"/></g><g transform="matrix(1 0 0 -1 272.032222222 13.65)"><use xlink:href="#g9B543B57F718853EF8F95EF155B6CF69" x="0" y="0" fill="#e6edf3" fill-rule="nonzero"/></g><g transform="matrix(1 0 0 -1 282.146222222 13.65)"><use xlink:href="#g6BCCDCE0D843C0F823A4CE121D6D1649" x="0" y="0" fill="#e6edf3" fill-rule="nonzero"/></g><g transform="matrix(1 0 0 -1 289.218222222 13.65)"><use xlink:href="#g6403D552219AF1321C17844ED0BE18E1" x="0" y="0" fill="#e6edf3" fill-rule="nonzero"/></g><g transform="matrix(1 0 0 -1 295.744222222 13.65)"><use xlink:href="#gBD71DD9E9466376912EA1F5384258320" x="0" y="0" fill="#e6edf3" fill-rule="nonzero"/></g><g transform="matrix(1 0 0 -1 302.244222222 13.65)"><use xlink:href="#g6BCCDCE0D843C0F823A4CE121D6D1649" x="0" y="0" fill="#e6edf3" fill-rule="nonzero"/></g><g transform="matrix(1 0 0 -1 309.316222222 13.65)"><use xlink:href="#gAF39B06637020F254AB7B881282CA7F5" x="0" y="0" fill="#e6edf3" fill-rule="nonzero"/></g><defs><symbol id="g6403D552219AF1321C17844ED0BE18E1" overflow="visible"><path d="M 0 0m 0.195 -1.833c 0 -0.559 0.585 -0.832 1.755 -0.832c 0.611 0 1.183 0.156 1.69 0.455c 0.572 0.338 0.923 0.793 1.066 1.352l 1.417 5.707c 0.026 0.13 0.039 0.208 0.039 0.247c 0 0.26 -0.143 0.39 -0.416 0.39c -0.286 0 -0.468 -0.156 -0.559 -0.455c -0.286 0.481 -0.676 0.715 -1.157 0.715c -0.832 0 -1.573 -0.416 -2.21 -1.248c -0.585 -0.78 -0.884 -1.599 -0.884 -2.444c 0 -1.131 0.663 -2.093 1.755 -2.093c 0.507 0 0.975 0.221 1.404 0.65l -0.39 -1.534c -0.377 -0.897 -0.962 -1.352 -1.781 -1.352c -0.338 0 -0.624 0.026 -0.858 0.078c 0.273 0.143 0.403 0.364 0.403 0.663c 0 0.325 -0.182 0.494 -0.533 0.494c -0.416 0 -0.741 -0.377 -0.741 -0.793Z m 4.433 6.929c 0.26 -0.273 0.39 -0.533 0.39 -0.793c 0 -0.013 -0.013 -0.078 -0.039 -0.169l -0.611 -2.457c -0.078 -0.299 -0.299 -0.611 -0.65 -0.897c -0.351 -0.286 -0.689 -0.429 -0.988 -0.429c -0.52 0 -0.78 0.377 -0.78 1.131c 0 0.715 0.442 2.301 0.702 2.769c 0.403 0.741 0.858 1.105 1.391 1.105c 0.234 0 0.429 -0.091 0.585 -0.26Z "/></symbol><symbol id="g2D7122AD31FABF41BED931716B883F58" overflow="visible"><path d="M 0 0m 4.134 -3.224c 0.117 0 0.182 0.065 0.182 0.182c 0 0.039 -0.026 0.091 -0.065 0.143c -0.676 0.52 -1.222 1.378 -1.625 2.561c -0.351 1.027 -0.533 2.041 -0.533 3.042v 1.092c 0 1.001 0.182 2.015 0.533 3.042c 0.403 1.183 0.949 2.041 1.625 2.561c 0.039 0.039 0.065 0.091 0.065 0.143c 0 0.117 -0.065 0.182 -0.182 0.182c -0.013 0 -0.052 -0.013 -0.091 -0.039c -0.78 -0.598 -1.43 -1.482 -1.963 -2.665c -0.507 -1.131 -0.767 -2.197 -0.767 -3.224v -1.092c 0 -1.027 0.26 -2.093 0.767 -3.224c 0.533 -1.183 1.183 -2.067 1.963 -2.665c 0.039 -0.026 0.078 -0.039 0.091 -0.039Z "/></symbol><symbol id="gAF39B06637020F254AB7B881282CA7F5" overflow="visible"><path d="M 0 0m 4.615 5.746c -0.572 0 -1.118 -0.299 -1.651 -0.897c -0.143 0.598 -0.546 0.897 -1.183 0.897c -0.533 0 -0.923 -0.429 -1.196 -1.274c -0.13 -0.429 -0.195 -0.676 -0.195 -0.754c 0 -0.117 0.065 -0.182 0.208 -0.182c 0.065 0 0.104 0.013 0.143 0.039c 0.065 0.117 0.104 0.208 0.117 0.299c 0.234 0.988 0.533 1.482 0.884 1.482c 0.234 0 0.351 -0.182 0.351 -0.533c 0 -0.195 -0.026 -0.416 -0.091 -0.65l -1.43 -5.707c -0.117 -0.429 -0.13 -0.481 -0.637 -0.481c -0.234 0 -0.351 -0.104 -0.351 -0.299c 0 -0.143 0.078 -0.208 0.221 -0.208c 0.195 0 0.871 0.039 1.066 0.039c 0.247 0 1.027 -0.039 1.274 -0.039c 0.195 0 0.286 0.104 0.286 0.312c 0 0.13 -0.117 0.195 -0.364 0.195c -0.234 0 -0.585 -0.013 -0.585 0.143c 0 0.169 0.533 2.21 0.585 2.431c 0.26 -0.481 0.65 -0.728 1.17 -0.728c 0.845 0 1.586 0.429 2.236 1.3c 0.598 0.793 0.897 1.638 0.897 2.509c 0 1.131 -0.676 2.106 -1.755 2.106Z m -0.039 -0.39c 0.507 0 0.767 -0.39 0.767 -1.157c 0 -0.351 -0.078 -0.819 -0.221 -1.404c -0.299 -1.131 -0.676 -1.872 -1.131 -2.249c -0.273 -0.221 -0.52 -0.338 -0.767 -0.338c -0.377 0 -0.637 0.169 -0.78 0.52c -0.117 0.273 -0.182 0.468 -0.182 0.572l 0.663 2.717c 0.065 0.286 0.299 0.585 0.663 0.884c 0.364 0.299 0.689 0.455 0.988 0.455Z "/></symbol><symbol id="g2F93E6EEEE2061842AA37F49EEA2F1A2" overflow="visible"><path d="M 0 0m 1.014 -3.185c 0.78 0.598 1.43 1.482 1.963 2.665c 0.507 1.131 0.767 2.197 0.767 3.224v 1.092c 0 1.027 -0.26 2.093 -0.767 3.224c -0.533 1.183 -1.183 2.067 -1.963 2.665c -0.039 0.026 -0.078 0.039 -0.091 0.039c -0.117 0 -0.182 -0.065 -0.182 -0.182c 0 -0.052 0.026 -0.104 0.065 -0.143c 0.676 -0.52 1.222 -1.378 1.625 -2.561c 0.351 -1.027 0.533 -2.041 0.533 -3.042v -1.092c 0 -1.001 -0.182 -2.015 -0.533 -3.042c -0.403 -1.183 -0.949 -2.041 -1.625 -2.561c -0.039 -0.052 -0.065 -0.104 -0.065 -0.143c 0 -0.117 0.065 -0.182 0.182 -0.182c 0.013 0 0.052 0.013 0.091 0.039Z "/></symbol><symbol id="g13AFF74D87C474CFAF661EEAD0458F8B" overflow="visible"><path d="M 0 0m 9.074 4.771h -8.034c -0.208 0 -0.312 -0.104 -0.312 -0.299c 0 -0.195 0.104 -0.299 0.312 -0.299h 8.034c 0.208 0 0.312 0.104 0.312 0.299c 0 0.156 -0.143 0.299 -0.312 0.299Z m 0 -2.444h -8.034c -0.208 0 -0.312 -0.104 -0.312 -0.299c 0 -0.195 0.104 -0.299 0.312 -0.299h 8.034c 0.208 0 0.312 0.104 0.312 0.299c 0 0.169 -0.143 0.299 -0.312 0.299Z "/></symbol><symbol id="gD4E6477E4F7B402D83BEF565D2756B73" overflow="visible"><path d="M 0 0m 7.176 8.229c 0 0.572 -0.559 0.936 -1.17 0.936c -0.806 0 -1.365 -0.52 -1.664 -1.547c -0.065 -0.234 -0.208 -0.897 -0.416 -1.989h -0.845c -0.286 0 -0.429 -0.013 -0.429 -0.286c 0 -0.143 0.13 -0.208 0.403 -0.208h 0.78l -0.949 -5.031c -0.143 -0.741 -0.273 -1.287 -0.39 -1.651c -0.156 -0.481 -0.377 -0.728 -0.663 -0.728c -0.195 0 -0.351 0.052 -0.494 0.143c 0.416 0.065 0.624 0.312 0.624 0.728c 0 0.338 -0.169 0.507 -0.52 0.507c -0.442 0 -0.754 -0.39 -0.754 -0.832c 0 -0.572 0.533 -0.936 1.144 -0.936c 0.325 0 0.624 0.13 0.871 0.403c 0.416 0.429 0.741 1.04 0.975 1.859c 0.143 0.507 0.273 1.001 0.364 1.495l 0.754 4.043h 1.066c 0.299 0 0.429 0.013 0.429 0.312c 0 0.117 -0.13 0.182 -0.39 0.182h -1.001c 0.078 0.533 0.442 2.496 0.559 2.743c 0.13 0.273 0.312 0.403 0.546 0.403c 0.195 0 0.364 -0.052 0.507 -0.143c -0.403 -0.091 -0.611 -0.325 -0.611 -0.728c 0 -0.338 0.169 -0.507 0.52 -0.507c 0.442 0 0.754 0.39 0.754 0.832Z "/></symbol><symbol id="gA6F2C1D597D3EC5A6DEDB5B511CF0779" overflow="visible"><path d="M 0 0m 6.851 4.849c 0 0.598 -0.585 0.897 -1.235 0.897c -0.559 0 -1.001 -0.299 -1.339 -0.897c -0.273 0.598 -0.728 0.897 -1.391 0.897c -0.637 0 -1.157 -0.299 -1.573 -0.884c -0.351 -0.507 -0.533 -0.884 -0.533 -1.131c 0 -0.117 0.065 -0.182 0.195 -0.182c 0.117 0 0.195 0.065 0.221 0.182c 0.247 0.754 0.793 1.638 1.664 1.638c 0.429 0 0.637 -0.273 0.637 -0.806c 0 -0.273 -0.234 -1.287 -0.689 -3.029c -0.221 -0.871 -0.611 -1.3 -1.17 -1.3c -0.182 0 -0.351 0.039 -0.494 0.104c 0.338 0.13 0.507 0.364 0.507 0.702c 0 0.338 -0.169 0.507 -0.52 0.507c -0.429 0 -0.754 -0.364 -0.754 -0.793c 0 -0.598 0.611 -0.897 1.248 -0.897c 0.546 0 0.988 0.299 1.339 0.897c 0.247 -0.598 0.715 -0.897 1.391 -0.897c 0.624 0 1.144 0.299 1.56 0.884c 0.351 0.507 0.533 0.884 0.533 1.131c 0 0.117 -0.065 0.182 -0.195 0.182c -0.117 0 -0.182 -0.065 -0.221 -0.182c -0.221 -0.741 -0.806 -1.638 -1.651 -1.638c -0.429 0 -0.65 0.26 -0.65 0.793c 0 0.169 0.065 0.533 0.208 1.118l 0.442 1.755c 0.247 0.975 0.65 1.469 1.222 1.469c 0.182 0 0.351 -0.039 0.494 -0.104c -0.351 -0.117 -0.52 -0.351 -0.52 -0.702c 0 -0.338 0.182 -0.507 0.533 -0.507c 0.416 0 0.741 0.377 0.741 0.793Z "/></symbol><symbol id="g9B543B57F718853EF8F95EF155B6CF69" overflow="visible"><path d="M 0 0m 9.074 3.51h -8.034c -0.208 0 -0.312 -0.091 -0.312 -0.26c 0 -0.169 0.104 -0.26 0.312 -0.26h 8.034c 0.208 0 0.312 0.091 0.312 0.26c 0 0.156 -0.156 0.26 -0.312 0.26Z "/></symbol><symbol id="gB323F9E42E1C20C087FBF81136E27860" overflow="visible"><path d="M 0 0m 2.496 3.25c 0 0.377 -0.312 0.689 -0.689 0.689c -0.377 0 -0.689 -0.312 -0.689 -0.689c 0 -0.377 0.312 -0.689 0.689 -0.689c 0.377 0 0.689 0.312 0.689 0.689Z "/></symbol><symbol id="g8B273DA24598714A1DE03FD5302C001A" overflow="visible"><path d="M 0 0m 3.263 5.408c 0.546 0 0.962 -0.13 1.248 -0.39c -0.312 -0.039 -0.533 -0.325 -0.533 -0.624c 0 -0.429 0.208 -0.637 0.637 -0.637c 0.429 0 0.637 0.221 0.637 0.65c 0 0.923 -1.001 1.417 -2.002 1.417c -0.806 0 -1.469 -0.286 -2.002 -0.884c -0.533 -0.598 -0.806 -1.313 -0.806 -2.132c 0 -0.793 0.273 -1.495 0.806 -2.08c 0.533 -0.585 1.183 -0.871 1.976 -0.871c 0.65 0 1.157 0.182 1.521 0.559c 0.299 0.299 0.494 0.598 0.598 0.91c 0.039 0.117 0.052 0.195 0.052 0.247c 0 0.117 -0.078 0.169 -0.221 0.169c -0.104 0 -0.169 -0.052 -0.208 -0.156c -0.273 -0.871 -0.806 -1.313 -1.625 -1.313c -0.377 0 -0.741 0.169 -1.105 0.52c -0.429 0.403 -0.637 1.079 -0.637 2.041c 0 1.3 0.494 2.574 1.664 2.574Z "/></symbol><symbol id="g5D4DFCA3C00979A1E9076032CC813B65" overflow="visible"><path d="M 0 0m 3.237 -0.143c 0.806 0 1.482 0.286 2.041 0.858c 0.559 0.572 0.845 1.261 0.845 2.067c 0 0.819 -0.273 1.534 -0.819 2.132c -0.546 0.598 -1.235 0.91 -2.054 0.91c -0.819 0 -1.495 -0.312 -2.054 -0.91c -0.559 -0.598 -0.832 -1.313 -0.832 -2.132c 0 -0.806 0.273 -1.495 0.832 -2.067c 0.559 -0.572 1.248 -0.858 2.041 -0.858Z m 0.013 0.416c -0.624 0 -1.092 0.273 -1.417 0.832c -0.208 0.364 -0.312 0.962 -0.312 1.781c 0 0.793 0.104 1.365 0.299 1.729c 0.312 0.559 0.78 0.832 1.417 0.832c 0.611 0 1.079 -0.273 1.404 -0.806c 0.221 -0.364 0.325 -0.949 0.325 -1.755c 0 -1.508 -0.442 -2.613 -1.716 -2.613Z "/></symbol><symbol id="gA2276AEFE9378953E87817A497BFC175" overflow="visible"><path d="M 0 0m 4.082 5.369c 0.585 0 0.884 -0.455 0.884 -1.378v -2.964c 0 -0.247 -0.039 -0.403 -0.13 -0.455c -0.091 -0.052 -0.377 -0.078 -0.858 -0.078v -0.494l 1.495 0.039l 1.482 -0.039v 0.494c -0.416 0 -0.689 0.013 -0.819 0.052c -0.13 0.039 -0.182 0.13 -0.182 0.286v 2.431c 0 0.611 -0.013 1.04 -0.052 1.287c -0.13 0.793 -0.715 1.196 -1.742 1.196c -0.819 0 -1.43 -0.39 -1.833 -1.17v 1.17l -1.911 -0.143v -0.494c 0.468 0 0.754 -0.039 0.858 -0.117c 0.104 -0.078 0.143 -0.247 0.143 -0.546v -3.419c 0 -0.247 -0.052 -0.403 -0.143 -0.455c -0.091 -0.052 -0.377 -0.078 -0.858 -0.078v -0.494l 1.495 0.039l 1.482 -0.039v 0.494c -0.481 0 -0.754 0.026 -0.845 0.078c -0.091 0.052 -0.143 0.208 -0.143 0.455v 2.34c 0 1.053 0.663 2.002 1.677 2.002Z "/></symbol><symbol id="g6BCCDCE0D843C0F823A4CE121D6D1649" overflow="visible"><path d="M 0 0m 5.577 8.216l -0.767 -3.159c -0.273 0.481 -0.65 0.728 -1.157 0.728c -0.845 0 -1.586 -0.429 -2.236 -1.3c -0.598 -0.806 -0.897 -1.651 -0.897 -2.522c 0 -1.144 0.663 -2.106 1.755 -2.106c 0.559 0 1.105 0.299 1.625 0.91c 0.143 -0.494 0.585 -0.91 1.196 -0.91c 0.897 0 1.183 1.066 1.378 2.028c 0 0.117 -0.065 0.182 -0.195 0.182c -0.117 0 -0.195 -0.091 -0.234 -0.273c -0.26 -1.027 -0.572 -1.547 -0.923 -1.547c -0.221 0 -0.338 0.182 -0.338 0.533c 0 0.195 0.026 0.403 0.078 0.611l 1.846 7.436v 0.052c -0.039 0.091 -0.117 0.143 -0.221 0.143c -0.299 0 -0.845 -0.052 -1.625 -0.143c -0.143 -0.013 -0.221 -0.117 -0.221 -0.299c 0 -0.13 0.117 -0.195 0.351 -0.195c 0.247 0 0.585 0.013 0.585 -0.169Z m -1.144 -3.328c 0.13 -0.273 0.195 -0.455 0.195 -0.572c -0.013 -0.052 -0.026 -0.117 -0.039 -0.208l -0.637 -2.522c -0.039 -0.143 -0.13 -0.299 -0.247 -0.455c -0.481 -0.585 -0.949 -0.884 -1.404 -0.884c -0.507 0 -0.767 0.39 -0.767 1.157c 0 0.312 0.078 0.78 0.234 1.404c 0.273 1.105 0.663 1.859 1.144 2.262c 0.26 0.221 0.507 0.325 0.754 0.325c 0.351 0 0.611 -0.169 0.767 -0.507Z "/></symbol><symbol id="gBD71DD9E9466376912EA1F5384258320" overflow="visible"><path d="M 0 0m 5.772 9.334c 0.013 0.026 0.013 0.065 0.013 0.104c 0 0.208 -0.104 0.312 -0.312 0.312c -0.143 0 -0.234 -0.065 -0.286 -0.208l -4.446 -12.376c -0.013 -0.026 -0.013 -0.065 -0.013 -0.104c 0 -0.208 0.104 -0.312 0.312 -0.312c 0.143 0 0.234 0.065 0.286 0.208Z "/></symbol></defs></svg>