<svg viewBox="0 0 125.229 17.108" width="125.229pt" height="17.108pt" xmlns="http://www.w3.org/2000/svg" xmlns:xlink="http://www.w3.org/1999/xlink" xmlns:h5="http://www.w3.org/1999/xhtml"><g transform="matrix(1 0 0 -1 6.5 13.208)"><use xlink:href="#gBC3D9C1A249D0D4F874E09900DF515A4" x="0" y="0" fill="#e6edf3" fill-rule="nonzero"/><use xlink:href="#gA2276AEFE9378953E87817A497BFC175" x="3.614" y="0" fill="#e6edf3" fill-rule="nonzero"/></g><g transform="matrix(1 0 0 -1 19.508666667 13.208)"><use xlink:href="#gACA2FE1DD062579B79E6E19150F5B03F" x="0" y="0" fill="#e6edf3" fill-rule="nonzero"/></g><g transform="matrix(1 0 0 -1 31.325666667 13.208)"><use xlink:href="#g1117949E8E84A5DADCB5D2CC13D48D24" x="0" y="0" fill="#e6edf3" fill-rule="nonzero"/></g><g transform="matrix(1 0 0 -1 38.550777778 13.208)"><use xlink:href="#gE5387A95DFA144CB42A4496E72038BC9" x="0" y="0" fill="#e6edf3" fill-rule="nonzero"/></g><g transform="matrix(1 0 0 -1 52.210888889 13.208)"><use xlink:href="#gACA2FE1DD062579B79E6E19150F5B03F" x="0" y="0" fill="#e6edf3" fill-rule="nonzero"/></g><g transform="matrix(1 0 0 -1 66.194555556 13.208)"><use xlink:href="#gBC3D9C1A249D0D4F874E09900DF515A4" x="0" y="0" fill="#e6edf3" fill-rule="nonzero"/><use xlink:href="#gA2276AEFE9378953E87817A497BFC175" x="3.614" y="0" fill="#e6edf3" fill-rule="nonzero"/></g><g transform="matrix(1 0 0 -1 79.203222222 13.208)"><use xlink:href="#gACA2FE1DD062579B79E6E19150F5B03F" x="0" y="0" fill="#e6edf3" fill-rule="nonzero"/></g><g transform="matrix(1 0 0 -1 93.909111111 13.208)"><use xlink:href="#g9B543B57F718853EF8F95EF155B6CF69" x="0" y="0" fill="#e6edf3" fill-rule="nonzero"/></g><g transform="matrix(1 0 0 -1 106.912 13.208)"><use xlink:href="#gACA2FE1DD062579B79E6E19150F5B03F" x="0" y="0" fill="#e6edf3" fill-rule="nonzero"/></g><defs><symbol id="gBC3D9C1A249D0D4F874E09900DF515A4" overflow="visible"><path d="M 0 0m 1.872 0.039l 1.443 -0.039v 0.507c -0.468 0 -0.754 0.013 -0.845 0.065c -0.091 0.052 -0.13 0.208 -0.13 0.455v 7.995l -1.911 -0.143v -0.494c 0.455 0 0.741 -0.039 0.832 -0.117c 0.091 -0.078 0.143 -0.26 0.143 -0.559v -6.682c 0 -0.247 -0.039 -0.403 -0.13 -0.455c -0.091 -0.052 -0.377 -0.065 -0.845 -0.065v -0.507Z "/></symbol><symbol id="gA2276AEFE9378953E87817A497BFC175" overflow="visible"><path d="M 0 0m 4.082 5.369c 0.585 0 0.884 -0.455 0.884 -1.378v -2.964c 0 -0.247 -0.039 -0.403 -0.13 -0.455c -0.091 -0.052 -0.377 -0.078 -0.858 -0.078v -0.494l 1.495 0.039l 1.482 -0.039v 0.494c -0.416 0 -0.689 0.013 -0.819 0.052c -0.13 0.039 -0.182 0.13 -0.182 0.286v 2.431c 0 0.611 -0.013 1.04 -0.052 1.287c -0.13 0.793 -0.715 1.196 -1.742 1.196c -0.819 0 -1.43 -0.39 -1.833 -1.17v 1.17l -1.911 -0.143v -0.494c 0.468 0 0.754 -0.039 0.858 -0.117c 0.104 -0.078 0.143 -0.247 0.143 -0.546v -3.419c 0 -0.247 -0.052 -0.403 -0.143 -0.455c -0.091 -0.052 -0.377 -0.078 -0.858 -0.078v -0.494l 1.495 0.039l 1.482 -0.039v 0.494c -0.481 0 -0.754 0.026 -0.845 0.078c -0.091 0.052 -0.143 0.208 -0.143 0.455v 2.34c 0 1.053 0.663 2.002 1.677 2.002Z "/></symbol><symbol id="gACA2FE1DD062579B79E6E19150F5B03F" overflow="visible"><path d="M 0 0m 11.232 8.879c -0.247 0 -1.053 -0.039 -1.3 -0.039c -0.247 0 -1.066 0.039 -1.313 0.039c -0.195 0 -0.286 -0.104 -0.286 -0.312c 0 -0.117 0.091 -0.182 0.286 -0.195c 0.546 0 0.819 -0.169 0.819 -0.507c 0 -0.078 -0.013 -0.169 -0.026 -0.26l -1.404 -5.564l -2.795 6.565c -0.104 0.247 -0.13 0.273 -0.455 0.273h -1.729c -0.312 0 -0.429 -0.026 -0.429 -0.312c 0 -0.13 0.143 -0.195 0.416 -0.195c 0.546 0 0.819 -0.013 0.832 -0.052l -1.729 -6.89c -0.117 -0.507 -0.416 -0.793 -0.884 -0.884c -0.338 -0.039 -0.728 0.013 -0.728 -0.351c 0 -0.13 0.078 -0.195 0.221 -0.195c 0.234 0 1.04 0.039 1.287 0.039c 0.247 0 1.079 -0.039 1.326 -0.039c 0.195 0 0.286 0.104 0.286 0.312c 0 0.117 -0.104 0.182 -0.312 0.195c -0.533 0.013 -0.793 0.182 -0.793 0.507c 0 0.065 0.013 0.156 0.039 0.286l 1.677 6.643l 3.25 -7.67c 0.078 -0.182 0.182 -0.273 0.299 -0.273c 0.117 0 0.195 0.104 0.247 0.312l 1.807 7.15c 0.169 0.663 0.533 0.897 1.339 0.91c 0.182 0.013 0.273 0.117 0.273 0.325c -0.039 0.117 -0.052 0.182 -0.221 0.182Z "/></symbol><symbol id="g1117949E8E84A5DADCB5D2CC13D48D24" overflow="visible"><path d="M 0 0m 1.807 9.308c -0.377 0 -0.728 -0.325 -0.689 -0.715l 0.468 -5.85c 0.013 -0.221 0.091 -0.338 0.221 -0.338c 0.13 0 0.208 0.104 0.221 0.325l 0.468 5.863c 0.039 0.39 -0.312 0.715 -0.689 0.715Z m 0.689 -8.58c 0 0.403 -0.299 0.741 -0.689 0.741c -0.39 0 -0.689 -0.338 -0.689 -0.741c 0 -0.39 0.299 -0.728 0.689 -0.728c 0.39 0 0.689 0.338 0.689 0.728Z "/></symbol><symbol id="gE5387A95DFA144CB42A4496E72038BC9" overflow="visible"><path d="M 0 0m 9.321 5.616v 0.026c 0 0.143 -0.065 0.208 -0.208 0.208c -0.091 0 -0.156 -0.052 -0.195 -0.143c -0.091 -0.455 -0.273 -0.806 -0.533 -1.027c -0.429 -0.377 -0.884 -0.559 -1.378 -0.559c -0.377 0 -0.767 0.143 -1.17 0.416c -0.741 0.533 -1.183 0.832 -1.326 0.923c -0.559 0.325 -1.053 0.481 -1.495 0.481c -1.391 0 -2.015 -0.975 -2.288 -2.249v -0.039c 0 -0.13 0.065 -0.195 0.208 -0.195c 0.117 0 0.182 0.052 0.208 0.156c 0.091 0.455 0.26 0.793 0.52 1.014c 0.429 0.377 0.884 0.559 1.391 0.559c 0.377 0 0.754 -0.143 1.157 -0.429c 0.741 -0.52 1.183 -0.819 1.326 -0.91c 0.559 -0.325 1.053 -0.481 1.495 -0.481c 1.391 0 2.015 0.975 2.288 2.249Z m 0 -2.808v 0.039c 0 0.13 -0.065 0.195 -0.208 0.195c -0.091 0 -0.156 -0.052 -0.195 -0.143c -0.091 -0.455 -0.273 -0.793 -0.533 -1.027c -0.429 -0.377 -0.884 -0.559 -1.378 -0.559c -0.377 0 -0.767 0.143 -1.17 0.429c -0.741 0.52 -1.183 0.819 -1.326 0.91c -0.559 0.325 -1.053 0.481 -1.495 0.481c -1.391 0 -2.015 -0.975 -2.288 -2.249v -0.026c 0 -0.143 0.065 -0.208 0.208 -0.208c 0.117 0 0.182 0.052 0.208 0.156c 0.091 0.455 0.26 0.793 0.52 1.014c 0.429 0.377 0.884 0.559 1.391 0.559c 0.377 0 0.754 -0.143 1.157 -0.416c 0.741 -0.533 1.183 -0.832 1.326 -0.923c 0.559 -0.325 1.053 -0.481 1.495 -0.481c 1.391 0 2.015 0.975 2.288 2.249Z "/></symbol><symbol id="g9B543B57F718853EF8F95EF155B6CF69" overflow="visible"><path d="M 0 0m 9.074 3.51h -8.034c -0.208 0 -0.312 -0.091 -0.312 -0.26c 0 -0.169 0.104 -0.26 0.312 -0.26h 8.034c 0.208 0 0.312 0.091 0.312 0.26c 0 0.156 -0.156 0.26 -0.312 0.26Z "/></symbol></defs></svg>