<svg class="typst-doc" viewBox="0 0 78.33222222222221 19.63" width="78.33222222222221pt" height="19.63pt" xmlns="http://www.w3.org/2000/svg" xmlns:xlink="http://www.w3.org/1999/xlink" xmlns:h5="http://www.w3.org/1999/xhtml">
    <g>
        <g class="typst-group">
            <g>
                <g class="typst-text" transform="matrix(1 0 0 -1 6.5 13.208)">
                    <use xlink:href="#g7191F3993706E03FC2F665B1BE3CB94E" x="0" y="0" fill="#e6edf3" fill-rule="nonzero"/>
                </g>
                <g class="typst-text" transform="matrix(1 0 0 -1 20.394111111111112 13.208)">
                    <use xlink:href="#g17B9629AC1C3FA19683E9944E21FFB4D" x="0" y="0" fill="#e6edf3" fill-rule="nonzero"/>
                </g>
                <g class="typst-text" transform="matrix(1 0 0 -1 34.11922222222223 13.208)">
                    <use xlink:href="#gD770E66DB4B045EF6893EE108D2127F3" x="0" y="0" fill="#e6edf3" fill-rule="nonzero"/>
                </g>
                <g class="typst-text" transform="matrix(1 0 0 -1 45.53322222222222 13.208)">
                    <use xlink:href="#gEE6C498C27498AAE85DAED482E9013E6" x="0" y="0" fill="#e6edf3" fill-rule="nonzero"/>
                </g>
                <g class="typst-text" transform="matrix(1 0 0 -1 51.48722222222222 13.208)">
                    <use xlink:href="#g30489593A929F3A4C086ED77D26118E5" x="0" y="0" fill="#e6edf3" fill-rule="nonzero"/>
                </g>
                <g class="typst-text" transform="matrix(1 0 0 -1 62.31622222222223 13.208)">
                    <use xlink:href="#g355E7FBA261B7DE69A4F4B2F788C11AC" x="0" y="0" fill="#e6edf3" fill-rule="nonzero"/>
                </g>
            </g>
        </g>
    </g>
    <defs id="glyph">
        <symbol id="g7191F3993706E03FC2F665B1BE3CB94E" overflow="visible">
            <path d="M 0 0m 3.9780002 -0.312 c 0.37699986 0 0.77999973 0.065 1.2090001 0.18200001 c -0.039000034 -0.49400002 -0.052000046 -0.806 -0.052000046 -0.923 c 0 -0.97500014 0.37699986 -1.4690001 1.118 -1.4690001 c 0.79299974 0 1.4039998 0.6370001 1.7030001 1.222 c 0.3249998 0.67600006 0.49399948 1.118 0.49399948 1.3260001 c 0 0.117000006 -0.06499958 0.18200001 -0.1949997 0.18200001 c -0.0909996 0 -0.15600014 -0.052 -0.1949997 -0.169 c -0.19500017 -0.598 -0.72800016 -1.2090001 -1.4560003 -1.2090001 c -0.6630001 0 -0.7540002 0.53300005 -0.8579998 1.248 c 1.092 0.42900002 2.0149999 1.1700001 2.7559996 2.236 c 0.7410002 1.066 1.118 2.171 1.118 3.328 c 0 1.027 -0.2989998 1.8589997 -0.90999985 2.5220003 c -0.61100006 0.6630001 -1.4169998 1.0009995 -2.4179997 1.0009995 c -0.6890001 0 -1.3780003 -0.16899967 -2.0670004 -0.5199995 c -1.4039998 -0.6890001 -2.4309998 -1.7810001 -3.0939999 -3.2500005 c -0.32500005 -0.7409997 -0.49400002 -1.4689999 -0.49400002 -2.2099998 c 0 -2.0410001 1.326 -3.4970002 3.341 -3.4970002 Z m 4.407 6.37 c 0 -0.79299974 -0.1949997 -1.7030001 -0.58500004 -2.756 c -0.45499992 -1.2090001 -1.1570001 -2.106 -2.132 -2.678 c -0.052000046 0.286 -0.13000011 0.54600006 -0.2340002 0.78000003 c -0.16899967 0.39 -0.48099995 0.58500004 -0.9359999 0.58500004 c -0.71500015 0 -1.365 -0.6500001 -1.365 -1.365 c 0 -0.116999984 0.013000011 -0.234 0.039000034 -0.32500002 c -0.87100005 0.40300003 -1.3000002 1.222 -1.3000002 2.47 c 0 0.546 0.10400009 1.2090001 0.32500005 1.9889998 c 0.45499992 1.651 1.2739999 2.821 2.4570003 3.5100007 c 0.559 0.31199932 1.079 0.46799946 1.56 0.46799946 c 1.4299998 0 2.171 -1.1830001 2.171 -2.678 Z m -3.887 -4.459 c 0.48099995 0 0.72800016 -0.35099995 0.72800016 -1.04 c 0 -0.11700001 -0.039000034 -0.18200001 -0.1170001 -0.208 c -0.36400032 -0.156 -0.71500015 -0.23400001 -1.053 -0.23400001 c -0.36400008 0 -0.54600024 0.16900001 -0.54600024 0.507 c 0 0.49400002 0.4940002 0.97499996 0.98800015 0.97499996 Z "/>
        </symbol>
        <symbol id="g17B9629AC1C3FA19683E9944E21FFB4D" overflow="visible">
            <path d="M 0 0m 9.074 4.771 h -8.034 c -0.20799994 0 -0.31199992 -0.103999615 -0.31199992 -0.2989998 c 0 -0.19500017 0.10399997 -0.29900026 0.31199992 -0.29900026 h 8.034 c 0.20800018 0 0.31200027 0.10400009 0.31200027 0.29900026 c 0 0.15600014 -0.1430006 0.2989998 -0.31200027 0.2989998 Z m 0 -2.4439998 h -8.034 c -0.20799994 0 -0.31199992 -0.10400009 -0.31199992 -0.29900002 c 0 -0.19500005 0.10399997 -0.29900002 0.31199992 -0.29900002 h 8.034 c 0.20800018 0 0.31200027 0.10399997 0.31200027 0.29900002 c 0 0.16899991 -0.1430006 0.29900002 -0.31200027 0.29900002 Z "/>
        </symbol>
        <symbol id="gD770E66DB4B045EF6893EE108D2127F3" overflow="visible">
            <path d="M 0 0m 8.541 5.7460003 c -0.7930002 0 -1.4820004 -0.39000034 -2.0670004 -1.1570001 c -0.116999626 0.7669997 -0.61100006 1.1570001 -1.4949999 1.1570001 c -0.7670002 0 -1.4300001 -0.3380003 -1.9760001 -1.0270004 c -0.10399985 0.572 -0.559 1.0270004 -1.222 1.0270004 c -0.533 0 -0.923 -0.42900038 -1.196 -1.2740002 c -0.14300004 -0.4159999 -0.20800003 -0.6630001 -0.20800003 -0.74099994 c 0 -0.1170001 0.065 -0.18200016 0.20800003 -0.18200016 c 0.065 0 0.10399997 0.013000011 0.143 0.039000034 c 0.065 0.1170001 0.10399997 0.20799994 0.13 0.29900002 c 0.23399997 0.9879999 0.533 1.4819999 0.88399994 1.4819999 c 0.23400009 0 0.35099995 -0.18199968 0.35099995 -0.546 c 0 -0.16899967 -0.06499982 -0.52 -0.20799994 -1.053 l -0.74099994 -2.951 c -0.052000046 -0.15600002 -0.116999984 -0.494 -0.116999984 -0.572 c 0 -0.26000002 0.143 -0.39000002 0.416 -0.39000002 c 0.26 0 0.4419999 0.13000001 0.533 0.39000002 c 0.013000011 0.065 0.10399985 0.39000002 0.24699998 0.949 l 0.273 1.1570002 l 0.3900001 1.4819999 c 0.14299989 0.29900026 0.36399984 0.59800005 0.64999986 0.90999985 c 0.3770001 0.41600037 0.845 0.6240001 1.404 0.6240001 c 0.4289999 0 0.6370001 -0.28599977 0.6370001 -0.8449998 c 0 -0.16900015 -0.06500006 -0.52 -0.19500017 -1.0530002 l -0.35099983 -1.4819999 c -0.09100008 -0.3770001 -0.29900026 -1.1570001 -0.40299988 -1.5730001 c -0.013000011 -0.09099999 -0.026000023 -0.143 -0.026000023 -0.169 c 0 -0.26000002 0.14299965 -0.39000002 0.4289999 -0.39000002 c 0.14300013 0 0.24699974 0.039000005 0.33799982 0.13000001 c 0.19500017 0.19500001 0.20800018 0.286 0.28600025 0.637 l 0.7669997 3.081 c 0.039000034 0.16899991 0.2210002 0.4679997 0.533 0.88400006 c 0.39000034 0.52 0.9100003 0.77999973 1.5469999 0.77999973 c 0.4289999 0 0.6370001 -0.28599977 0.6370001 -0.8449998 c 0 -0.50699997 -0.26000023 -1.4560001 -0.7930002 -2.8470001 c -0.116999626 -0.29900002 -0.16899967 -0.546 -0.16899967 -0.71500003 c 0 -0.63699996 0.48099995 -1.105 1.1050005 -1.105 c 0.58500004 0 1.0269995 0.32500002 1.3519993 0.975 c 0.26000023 0.52 0.39000034 0.87100005 0.39000034 1.04 c 0 0.1170001 -0.06499958 0.18200016 -0.20800018 0.18200016 c -0.0909996 -0.013000011 -0.18200016 -0.13000011 -0.24699974 -0.27300012 c -0.28600025 -1.027 -0.70199966 -1.547 -1.2609997 -1.547 c -0.16900063 0 -0.26000023 0.13000003 -0.26000023 0.377 c 0 0.195 0.07800007 0.481 0.2340002 0.884 c 0.533 1.3910002 0.79299927 2.3400002 0.79299927 2.834 c 0 0.92300034 -0.61100006 1.4170003 -1.5339994 1.4170003 Z "/>
        </symbol>
        <symbol id="gEE6C498C27498AAE85DAED482E9013E6" overflow="visible">
            <path d="M 0 0m 4.264 4.225 c 0 -0.3249998 0.16900015 -0.49399972 0.52 -0.49399972 c 0.4680004 0 0.7670002 0.40300012 0.7670002 0.87100005 c 0 0.7279997 -0.7670002 1.144 -1.5469999 1.144 c -0.8970001 0 -1.7160001 -0.39000034 -2.4180002 -1.1570001 c -0.7020001 -0.7670002 -1.0530001 -1.6120002 -1.0530001 -2.522 c 0 -1.2740002 0.845 -2.21 2.119 -2.21 c 0.6890001 0 1.3000002 0.169 1.8330002 0.49400002 c 0.4419999 0.273 0.7670002 0.546 0.9749999 0.81900007 c 0.09100008 0.116999984 0.13000011 0.20799994 0.13000011 0.24699998 c 0 0.143 -0.06500006 0.22099996 -0.20800018 0.22099996 c -0.06500006 0 -0.12999964 -0.051999927 -0.2079997 -0.15600002 c -0.42900038 -0.57199997 -0.96200037 -0.936 -1.5730002 -1.092 c -0.40300012 -0.104 -0.7019999 -0.15600002 -0.9230001 -0.15600002 c -0.74099994 0 -1.1049999 0.455 -1.1049999 1.3520001 c 0 0.8059999 0.37699997 1.976 0.689 2.5350003 c 0.31200004 0.572 0.9749999 1.2479997 1.7420001 1.2479997 c 0.49399996 0 0.8319998 -0.14299965 1.0139999 -0.4159999 c -0.40299988 -0.039000034 -0.7540002 -0.2989998 -0.7540002 -0.72800016 Z "/>
        </symbol>
        <symbol id="g30489593A929F3A4C086ED77D26118E5" overflow="visible">
            <path d="M 0 0m 9.867001 0 c 0.22099972 0 0.33799934 0.052 0.33799934 0.169 l -4.4199996 8.879001 c -0.09100008 0.16899967 -0.20800018 0.26000023 -0.37700033 0.26000023 c -0.16899967 0 -0.28599977 -0.09100056 -0.37699986 -0.26000023 l -4.355 -8.723001 c -0.038999975 -0.09100002 -0.065 -0.143 -0.065 -0.16900001 c 0 -0.104 0.11700004 -0.156 0.338 -0.156 Z m -4.8750005 7.852 l 3.3799996 -6.7730002 h -6.7599998 Z "/>
        </symbol>
        <symbol id="g355E7FBA261B7DE69A4F4B2F788C11AC" overflow="visible">
            <path d="M 0 0m 4.472 8.203 c 0 -0.038999557 -0.013000011 -0.13000011 -0.052000046 -0.25999975 l -1.7160001 -6.8640003 c -0.052000046 -0.195 -0.10399985 -0.31199998 -0.14299989 -0.36399996 c -0.1170001 -0.143 -0.559 -0.208 -1.3390001 -0.208 c -0.403 0 -0.585 0.038999975 -0.585 -0.29900002 c 0 -0.143 0.09100002 -0.208 0.26 -0.208 c 0.66300005 0 1.599 0.052 2.158 0.039 l 1.0660002 -0.013 c 0.18199968 0 0.89699984 -0.026 1.118 -0.026 c 0.22099972 0 0.3249998 0.104 0.3249998 0.312 c 0 0.13 -0.15600014 0.19500002 -0.48099995 0.19500002 c -0.6760001 0 -1.066 0.025999963 -1.1830001 0.09099996 c -0.039000034 0.026000023 -0.06500006 0.07800001 -0.06500006 0.15600002 l 1.7550001 7.085 c 0.039000034 0.18199968 0.07800007 0.29900026 0.1170001 0.33799982 c 0.052000046 0.07800007 0.36399984 0.11700058 0.9359999 0.11700058 c 0.71500015 0 1.2090001 -0.052000046 1.4559999 -0.16900063 c 0.24699974 -0.116999626 0.37699986 -0.38999987 0.37699986 -0.8319998 c 0 -0.2340002 -0.038999557 -0.572 -0.10400009 -1.0139999 c -0.026000023 -0.10400009 -0.038999557 -0.18200016 -0.038999557 -0.24700022 c 0 -0.14300013 0.06499958 -0.22099972 0.20800018 -0.22099972 c 0.116999626 0 0.1949997 0.116999626 0.2340002 0.33799982 l 0.35099983 2.236 c 0.012999535 0.06499958 0.026000023 0.14299965 0.026000023 0.22099972 c 0 0.13000011 -0.13000011 0.19500065 -0.40299988 0.19500065 h -7.1240005 c -0.33799994 0 -0.36399996 -0.03900051 -0.46799994 -0.28600025 l -0.7670001 -2.262 c -0.039000005 -0.1170001 -0.065 -0.19500017 -0.07800001 -0.24700022 c 0 -0.13000011 0.065 -0.1949997 0.20799997 -0.1949997 c 0.10400003 0 0.19500005 0.103999615 0.26000005 0.2989998 c 0.325 0.9489999 0.65000004 1.5339999 0.94900006 1.7810001 c 0.33800006 0.27300024 0.9879999 0.40300035 1.937 0.40300035 h 0.50699973 c 0.14300013 0 0.29900026 0.012999535 0.29900026 -0.09100056 Z "/>
        </symbol>
    </defs>
</svg>
