<svg viewBox="0 0 303.715966667 37.01945" width="303.715966667pt" height="37.01945pt" xmlns="http://www.w3.org/2000/svg" xmlns:xlink="http://www.w3.org/1999/xlink" xmlns:h5="http://www.w3.org/1999/xhtml"><g transform="matrix(1 0 0 -1 6.5 23.73605)"><use xlink:href="#gB24A0226C4D0F4163B274EF0E882A9CE" x="0" y="0" fill="#e6edf3" fill-rule="nonzero"/></g><g transform="matrix(1 0 0 -1 13.936 23.73605)"><use xlink:href="#g2D7122AD31FABF41BED931716B883F58" x="0" y="0" fill="#e6edf3" fill-rule="nonzero"/></g><g transform="matrix(1 0 0 -1 18.993 23.73605)"><use xlink:href="#g2B2AC19B865E98D20D71E15E51A1C9C9" x="0" y="0" fill="#e6edf3" fill-rule="nonzero"/></g><g transform="matrix(1 0 0 -1 27.209 23.73605)"><use xlink:href="#gEFA988DEC565252013B2D05DB9DFDA82" x="0" y="0" fill="#e6edf3" fill-rule="nonzero"/></g><g transform="matrix(1 0 0 -1 32.989666667 23.73605)"><use xlink:href="#g2D1FD5FA7721AD843D67732819992226" x="0" y="0" fill="#e6edf3" fill-rule="nonzero"/></g><g transform="matrix(1 0 0 -1 42.505666667 23.73605)"><use xlink:href="#g2F93E6EEEE2061842AA37F49EEA2F1A2" x="0" y="0" fill="#e6edf3" fill-rule="nonzero"/></g><g transform="matrix(1 0 0 -1 51.173777778 23.73605)"><use xlink:href="#g13AFF74D87C474CFAF661EEAD0458F8B" x="0" y="0" fill="#e6edf3" fill-rule="nonzero"/></g><g transform="matrix(1 0 0 -1 68.144338889 14.93505)"><use xlink:href="#gE71E99D3855A1096F244BD7EF11D7CEC" x="0" y="0" fill="#e6edf3" fill-rule="nonzero"/></g><g transform="matrix(1 0 0 -1 75.632338889 14.93505)"><use xlink:href="#g2B2AC19B865E98D20D71E15E51A1C9C9" x="0" y="0" fill="#e6edf3" fill-rule="nonzero"/></g><g transform="matrix(1 0 0 -1 83.848338889 10.21605)"><use xlink:href="#g5EE8C4A84F8A12CB3DE79793924C3207" x="0" y="0" fill="#e6edf3" fill-rule="nonzero"/></g><g transform="matrix(1 0 0 -1 66.198888889 32.65405)"><use xlink:href="#g3286A19CC752B68D2D94F2BC1EB495F" x="0" y="0" fill="#e6edf3" fill-rule="nonzero"/></g><g transform="matrix(1 0 0 -1 73.933888889 28.89705)"><use xlink:href="#g8A6A9074F91D642F82CC8BE39AC39D3A" x="0" y="0" fill="#e6edf3" fill-rule="nonzero"/></g><g transform="matrix(1 0 0 -1 79.839788889 32.65405)"><use xlink:href="#g30A27293C28FC13B0B4AB44CDE5ADD2A" x="0" y="0" fill="#e6edf3" fill-rule="nonzero"/></g><g transform="matrix(1 0 0 -1 85.793788889 28.89705)"><use xlink:href="#g5EE8C4A84F8A12CB3DE79793924C3207" x="0" y="0" fill="#e6edf3" fill-rule="nonzero"/></g><path fill="none" stroke="#e6edf3" stroke-width="0.624" stroke-linecap="butt" stroke-linejoin="miter" stroke-miterlimit="4" transform="translate(66.198888889 20.48605)" d="M 0 0h 25.5008"/><g transform="matrix(1 0 0 -1 95.888577778 23.73605)"><use xlink:href="#gB323F9E42E1C20C087FBF81136E27860" x="0" y="0" fill="#e6edf3" fill-rule="nonzero"/></g><g transform="matrix(1 0 0 -1 133.310955556 14.93505)"><use xlink:href="#g6B3DB0E0ADE6D994825CC39624067234" x="0" y="0" fill="#e6edf3" fill-rule="nonzero"/></g><g transform="matrix(1 0 0 -1 103.691466667 32.97645)"><use xlink:href="#gC717BE5B93447205292D108A434A4EF5" x="0" y="0" fill="#e6edf3" fill-rule="nonzero"/></g><g transform="matrix(1 0 0 -1 109.749466667 29.21945)"><use xlink:href="#g7C7E2FFF87EF59D78BEADBF565FB22B2" x="0" y="0" fill="#e6edf3" fill-rule="nonzero"/></g><g transform="matrix(1 0 0 -1 114.991066667 29.21945)"><use xlink:href="#gE832265601E1A76A2B4650283FDFA47B" x="0" y="0" fill="#e6edf3" fill-rule="nonzero"/></g><g transform="matrix(1 0 0 -1 121.543066667 29.21945)"><use xlink:href="#g1496F20E01A9F81D8E91FA120B618555" x="0" y="0" fill="#e6edf3" fill-rule="nonzero"/></g><g transform="matrix(1 0 0 -1 126.093066667 29.21945)"><use xlink:href="#g65687811D8F633ACD21B0AF632B28F04" x="0" y="0" fill="#e6edf3" fill-rule="nonzero"/></g><g transform="matrix(1 0 0 -1 131.616766667 31.46715)"><use xlink:href="#g761689E490812CEA84940060572FBDB5" x="0" y="0" fill="#e6edf3" fill-rule="nonzero"/></g><g transform="matrix(1 0 0 -1 138.866866667 29.21945)"><use xlink:href="#g93B96925AF20254D7D82B92F2475B654" x="0" y="0" fill="#e6edf3" fill-rule="nonzero"/></g><g transform="matrix(1 0 0 -1 149.927555556 32.97645)"><use xlink:href="#g9B543B57F718853EF8F95EF155B6CF69" x="0" y="0" fill="#e6edf3" fill-rule="nonzero"/></g><g transform="matrix(1 0 0 -1 162.930444444 32.97645)"><use xlink:href="#g6B3DB0E0ADE6D994825CC39624067234" x="0" y="0" fill="#e6edf3" fill-rule="nonzero"/></g><path fill="none" stroke="#e6edf3" stroke-width="0.624" stroke-linecap="butt" stroke-linejoin="miter" stroke-miterlimit="4" transform="translate(103.691466667 20.48605)" d="M 0 0h 65.738977778"/><g transform="matrix(1 0 0 -1 196.730444444 23.73605)"><use xlink:href="#gB24A0226C4D0F4163B274EF0E882A9CE" x="0" y="0" fill="#e6edf3" fill-rule="nonzero"/></g><g transform="matrix(1 0 0 -1 204.166444444 26.94705)"><use xlink:href="#g929C9F5835BF20B9E99EAF8B7595E15F" x="0" y="0" fill="#e6edf3" fill-rule="nonzero"/><use xlink:href="#g733BC00FCAC4D4817C0648C06C143A7E" x="3.5399" y="0" fill="#e6edf3" fill-rule="nonzero"/><use xlink:href="#g929C9F5835BF20B9E99EAF8B7595E15F" x="8.0899" y="0" fill="#e6edf3" fill-rule="nonzero"/><use xlink:href="#g1CEBE56BFF7571B8DB10F1A4DAC5A5D7" x="11.6298" y="0" fill="#e6edf3" fill-rule="nonzero"/><use xlink:href="#g48B3ED1BE8E5B4ABFD539FA8F671E63F" x="16.1798" y="0" fill="#e6edf3" fill-rule="nonzero"/></g><g transform="matrix(1 0 0 -1 227.215155556 23.73605)"><use xlink:href="#g13AFF74D87C474CFAF661EEAD0458F8B" x="0" y="0" fill="#e6edf3" fill-rule="nonzero"/></g><g transform="matrix(1 0 0 -1 246.869566667 14.93505)"><use xlink:href="#g3286A19CC752B68D2D94F2BC1EB495F" x="0" y="0" fill="#e6edf3" fill-rule="nonzero"/></g><g transform="matrix(1 0 0 -1 254.604566667 10.21605)"><use xlink:href="#g8A6A9074F91D642F82CC8BE39AC39D3A" x="0" y="0" fill="#e6edf3" fill-rule="nonzero"/></g><g transform="matrix(1 0 0 -1 260.510466667 14.93505)"><use xlink:href="#gCD18A55F4CC2CA429D96672C565B9565" x="0" y="0" fill="#e6edf3" fill-rule="nonzero"/></g><g transform="matrix(1 0 0 -1 267.478466667 10.0334)"><use xlink:href="#gA606C0CE8C60E36688427617C8536C21" x="0" y="0" fill="#e6edf3" fill-rule="nonzero"/></g><g transform="matrix(1 0 0 -1 267.283466667 18.3287)"><use xlink:href="#gC7B20184179011BBC954B5E7CD84FB69" x="0" y="0" fill="#e6edf3" fill-rule="nonzero"/></g><g transform="matrix(1 0 0 -1 242.240266667 32.65405)"><use xlink:href="#g6B3DB0E0ADE6D994825CC39624067234" x="0" y="0" fill="#e6edf3" fill-rule="nonzero"/></g><g transform="matrix(1 0 0 -1 248.740266667 32.65405)"><use xlink:href="#gBA62791EE2AC6A9C151740043DEFED9" x="0" y="0" fill="#e6edf3" fill-rule="nonzero"/></g><g transform="matrix(1 0 0 -1 255.240266667 32.65405)"><use xlink:href="#gE71E99D3855A1096F244BD7EF11D7CEC" x="0" y="0" fill="#e6edf3" fill-rule="nonzero"/></g><g transform="matrix(1 0 0 -1 262.728266667 28.89705)"><use xlink:href="#g5EE8C4A84F8A12CB3DE79793924C3207" x="0" y="0" fill="#e6edf3" fill-rule="nonzero"/></g><g transform="matrix(1 0 0 -1 268.634166667 32.65405)"><use xlink:href="#g30A27293C28FC13B0B4AB44CDE5ADD2A" x="0" y="0" fill="#e6edf3" fill-rule="nonzero"/></g><g transform="matrix(1 0 0 -1 274.588166667 28.89705)"><use xlink:href="#g5EE8C4A84F8A12CB3DE79793924C3207" x="0" y="0" fill="#e6edf3" fill-rule="nonzero"/></g><path fill="none" stroke="#e6edf3" stroke-width="0.624" stroke-linecap="butt" stroke-linejoin="miter" stroke-miterlimit="4" transform="translate(242.240266667 20.48605)" d="M 0 0h 38.2538"/><g transform="matrix(1 0 0 -1 281.794066667 23.73605)"><use xlink:href="#g2D1FD5FA7721AD843D67732819992226" x="0" y="0" fill="#e6edf3" fill-rule="nonzero"/></g><g transform="matrix(1 0 0 -1 291.310066667 19.01705)"><use xlink:href="#gA606C0CE8C60E36688427617C8536C21" x="0" y="0" fill="#e6edf3" fill-rule="nonzero"/></g><defs><symbol id="gB24A0226C4D0F4163B274EF0E882A9CE" overflow="visible"><path d="M 0 0m 7.059 1.872c 0 0.117 -0.065 0.182 -0.208 0.182c -0.117 0 -0.182 -0.091 -0.221 -0.273c -0.065 -0.247 -0.13 -0.494 -0.221 -0.741c -0.169 -0.533 -0.403 -0.806 -0.689 -0.806c -0.234 0 -0.351 0.182 -0.351 0.546c 0 0.221 0.091 0.663 0.26 1.313l 0.351 1.378c 0.117 0.468 0.221 0.793 0.299 1.196l 0.078 0.351c 0.026 0.091 0.039 0.156 0.039 0.195c 0 0.26 -0.143 0.39 -0.429 0.39c -0.286 0 -0.468 -0.156 -0.546 -0.481l -0.962 -3.848c -0.013 -0.039 -0.065 -0.13 -0.169 -0.286c -0.208 -0.338 -0.715 -0.754 -1.235 -0.754c -0.494 0 -0.741 0.338 -0.741 1.001c 0 0.533 0.234 1.391 0.689 2.587c 0.143 0.39 0.221 0.663 0.221 0.819c 0 0.65 -0.455 1.105 -1.105 1.105c -0.585 0 -1.04 -0.325 -1.365 -0.975c -0.247 -0.507 -0.377 -0.858 -0.377 -1.04c 0 -0.117 0.065 -0.182 0.208 -0.182c 0.169 0 0.195 0.078 0.247 0.26c 0.299 1.04 0.715 1.56 1.248 1.56c 0.182 0 0.273 -0.13 0.273 -0.377c 0 -0.195 -0.078 -0.468 -0.221 -0.845c -0.494 -1.313 -0.741 -2.223 -0.741 -2.704c 0 -1.001 0.624 -1.586 1.625 -1.586c 0.559 0 1.066 0.26 1.495 0.793c 0.182 -0.533 0.572 -0.793 1.17 -0.793c 0.897 0 1.17 1.053 1.378 2.015Z "/></symbol><symbol id="g2D7122AD31FABF41BED931716B883F58" overflow="visible"><path d="M 0 0m 4.134 -3.224c 0.117 0 0.182 0.065 0.182 0.182c 0 0.039 -0.026 0.091 -0.065 0.143c -0.676 0.52 -1.222 1.378 -1.625 2.561c -0.351 1.027 -0.533 2.041 -0.533 3.042v 1.092c 0 1.001 0.182 2.015 0.533 3.042c 0.403 1.183 0.949 2.041 1.625 2.561c 0.039 0.039 0.065 0.091 0.065 0.143c 0 0.117 -0.065 0.182 -0.182 0.182c -0.013 0 -0.052 -0.013 -0.091 -0.039c -0.78 -0.598 -1.43 -1.482 -1.963 -2.665c -0.507 -1.131 -0.767 -2.197 -0.767 -3.224v -1.092c 0 -1.027 0.26 -2.093 0.767 -3.224c 0.533 -1.183 1.183 -2.067 1.963 -2.665c 0.039 -0.026 0.078 -0.039 0.091 -0.039Z "/></symbol><symbol id="g2B2AC19B865E98D20D71E15E51A1C9C9" overflow="visible"><path d="M 0 0m 6.565 5.083c 0 -0.143 0.052 -0.273 0.156 -0.364c 0.325 -0.273 0.481 -0.637 0.481 -1.079c 0 -0.169 -0.013 -0.325 -0.052 -0.468c -0.26 -0.988 -0.949 -2.288 -2.002 -2.288c -0.676 0 -1.079 0.364 -1.209 1.092c 0.169 0.351 0.299 0.715 0.39 1.118c 0.039 0.143 0.052 0.26 0.052 0.338c 0 0.26 -0.104 0.39 -0.299 0.39c -0.494 0 -0.624 -1.248 -0.65 -1.794c -0.481 -0.767 -1.04 -1.144 -1.703 -1.144c -0.715 0 -1.066 0.468 -1.066 1.391c 0 0.26 0.039 0.533 0.104 0.819c 0.143 0.572 0.52 1.287 1.131 2.132c 0.052 0.065 0.078 0.13 0.078 0.195c 0 0.169 -0.091 0.26 -0.286 0.26c -0.091 0 -0.182 -0.039 -0.26 -0.13c -0.637 -0.871 -1.261 -2.405 -1.261 -3.822c 0 -1.248 0.468 -1.872 1.404 -1.872c 0.741 0 1.378 0.429 1.937 1.274c 0.182 -0.845 0.676 -1.274 1.469 -1.274c 0.429 0 0.832 0.169 1.196 0.507c 0.611 0.572 1.066 1.482 1.378 2.73c 0.195 0.793 0.299 1.352 0.299 1.703c 0 0.377 -0.091 0.65 -0.273 0.819c -0.091 0.091 -0.208 0.13 -0.325 0.13c -0.338 0 -0.689 -0.325 -0.689 -0.663Z "/></symbol><symbol id="gEFA988DEC565252013B2D05DB9DFDA82" overflow="visible"><path d="M 0 0m 1.807 1.378c -0.416 0 -0.689 -0.312 -0.689 -0.728c 0 -0.39 0.299 -0.715 0.689 -0.715c 0.182 0 0.338 0.052 0.455 0.169l 0.013 -0.104c 0 -0.819 -0.273 -1.521 -0.819 -2.08c -0.091 -0.104 -0.143 -0.182 -0.143 -0.234c 0 -0.13 0.052 -0.195 0.169 -0.195c 0.117 0 0.273 0.156 0.494 0.455c 0.442 0.624 0.663 1.313 0.663 2.054c 0 0.689 -0.234 1.378 -0.832 1.378Z "/></symbol><symbol id="g2D1FD5FA7721AD843D67732819992226" overflow="visible"><path d="M 0 0m 4.472 8.203c 0 -0.039 -0.013 -0.13 -0.052 -0.26l -1.716 -6.864c -0.052 -0.195 -0.104 -0.312 -0.143 -0.364c -0.117 -0.143 -0.559 -0.208 -1.339 -0.208c -0.403 0 -0.585 0.039 -0.585 -0.299c 0 -0.143 0.091 -0.208 0.26 -0.208c 0.663 0 1.599 0.052 2.158 0.039l 1.066 -0.013c 0.182 0 0.897 -0.026 1.118 -0.026c 0.221 0 0.325 0.104 0.325 0.312c 0 0.13 -0.156 0.195 -0.481 0.195c -0.676 0 -1.066 0.026 -1.183 0.091c -0.039 0.026 -0.065 0.078 -0.065 0.156l 1.755 7.085c 0.039 0.182 0.078 0.299 0.117 0.338c 0.052 0.078 0.364 0.117 0.936 0.117c 0.715 0 1.209 -0.052 1.456 -0.169c 0.247 -0.117 0.377 -0.39 0.377 -0.832c 0 -0.234 -0.039 -0.572 -0.104 -1.014c -0.026 -0.104 -0.039 -0.182 -0.039 -0.247c 0 -0.143 0.065 -0.221 0.208 -0.221c 0.117 0 0.195 0.117 0.234 0.338l 0.351 2.236c 0.013 0.065 0.026 0.143 0.026 0.221c 0 0.13 -0.13 0.195 -0.403 0.195h -7.124c -0.338 0 -0.364 -0.039 -0.468 -0.286l -0.767 -2.262c -0.039 -0.117 -0.065 -0.195 -0.078 -0.247c 0 -0.13 0.065 -0.195 0.208 -0.195c 0.104 0 0.195 0.104 0.26 0.299c 0.325 0.949 0.65 1.534 0.949 1.781c 0.338 0.273 0.988 0.403 1.937 0.403h 0.507c 0.143 0 0.299 0.013 0.299 -0.091Z "/></symbol><symbol id="g2F93E6EEEE2061842AA37F49EEA2F1A2" overflow="visible"><path d="M 0 0m 1.014 -3.185c 0.78 0.598 1.43 1.482 1.963 2.665c 0.507 1.131 0.767 2.197 0.767 3.224v 1.092c 0 1.027 -0.26 2.093 -0.767 3.224c -0.533 1.183 -1.183 2.067 -1.963 2.665c -0.039 0.026 -0.078 0.039 -0.091 0.039c -0.117 0 -0.182 -0.065 -0.182 -0.182c 0 -0.052 0.026 -0.104 0.065 -0.143c 0.676 -0.52 1.222 -1.378 1.625 -2.561c 0.351 -1.027 0.533 -2.041 0.533 -3.042v -1.092c 0 -1.001 -0.182 -2.015 -0.533 -3.042c -0.403 -1.183 -0.949 -2.041 -1.625 -2.561c -0.039 -0.052 -0.065 -0.104 -0.065 -0.143c 0 -0.117 0.065 -0.182 0.182 -0.182c 0.013 0 0.052 0.013 0.091 0.039Z "/></symbol><symbol id="g13AFF74D87C474CFAF661EEAD0458F8B" overflow="visible"><path d="M 0 0m 9.074 4.771h -8.034c -0.208 0 -0.312 -0.104 -0.312 -0.299c 0 -0.195 0.104 -0.299 0.312 -0.299h 8.034c 0.208 0 0.312 0.104 0.312 0.299c 0 0.156 -0.143 0.299 -0.312 0.299Z m 0 -2.444h -8.034c -0.208 0 -0.312 -0.104 -0.312 -0.299c 0 -0.195 0.104 -0.299 0.312 -0.299h 8.034c 0.208 0 0.312 0.104 0.312 0.299c 0 0.169 -0.143 0.299 -0.312 0.299Z "/></symbol><symbol id="gE71E99D3855A1096F244BD7EF11D7CEC" overflow="visible"><path d="M 0 0m 6.656 1.794c -0.299 -1.027 -0.715 -1.547 -1.261 -1.547c -0.169 0 -0.26 0.117 -0.26 0.364c 0 0.195 0.078 0.494 0.234 0.897c 0.52 1.391 0.78 2.34 0.78 2.847c 0 0.923 -0.598 1.43 -1.521 1.43c -0.689 0 -1.287 -0.286 -1.794 -0.845l 0.351 1.456l 2.158 1.326c 0.065 0.039 0.104 0.104 0.104 0.169c 0 0.143 -0.065 0.208 -0.208 0.208c -0.039 0 -0.078 -0.013 -0.104 -0.039l -1.807 -1.105l 0.455 1.872c -0.026 0.117 -0.052 0.195 -0.221 0.195c -0.429 0 -1.378 -0.117 -1.547 -0.13c -0.195 -0.026 -0.299 -0.117 -0.299 -0.312c 0 -0.13 0.117 -0.195 0.351 -0.195c 0.273 0 0.572 0.013 0.598 -0.169l -0.039 -0.247l -0.429 -1.703l -1.248 -0.78c -0.065 -0.039 -0.104 -0.091 -0.104 -0.169c 0 -0.143 0.065 -0.208 0.208 -0.208c 0.026 0 0.065 0.013 0.104 0.039l 0.897 0.546l -1.287 -5.135c -0.039 -0.143 -0.052 -0.234 -0.052 -0.286c 0 -0.273 0.143 -0.416 0.416 -0.416c 0.26 0 0.442 0.13 0.533 0.377l 0.52 2.132c 0.156 0.637 0.273 1.118 0.364 1.443c 0.039 0.091 0.143 0.273 0.312 0.533c 0.468 0.702 1.04 1.053 1.729 1.053c 0.429 0 0.637 -0.286 0.637 -0.845c 0 -0.533 -0.26 -1.482 -0.78 -2.86c -0.117 -0.299 -0.169 -0.533 -0.169 -0.728c 0 -0.624 0.468 -1.105 1.092 -1.105c 0.572 0 1.027 0.325 1.352 0.988c 0.247 0.52 0.377 0.871 0.377 1.04c 0 0.117 -0.065 0.182 -0.208 0.182c -0.039 0 -0.234 -0.117 -0.234 -0.273Z "/></symbol><symbol id="g5EE8C4A84F8A12CB3DE79793924C3207" overflow="visible"><path d="M 0 0m 3.2123 3.2123c 0.6097 0.2457 1.1921 0.7826 1.1921 1.5561c 0 0.4095 -0.2184 0.7371 -0.6461 0.9737c -0.3549 0.2002 -0.7553 0.3003 -1.2012 0.3003c -0.4459 0 -0.8372 -0.091 -1.1739 -0.2821c -0.4095 -0.2275 -0.6188 -0.546 -0.6188 -0.9555c 0 -0.3458 0.1729 -0.5187 0.5096 -0.5187c 0.2821 0 0.4914 0.2184 0.4914 0.5005c 0 0.2821 -0.1456 0.4459 -0.4277 0.4914c 0.2639 0.2821 0.6552 0.4277 1.1921 0.4277c 0.5915 0 0.9282 -0.3549 0.9282 -0.9373c 0 -0.4277 -0.1183 -0.7735 -0.3458 -1.0465c -0.2548 -0.3003 -0.4368 -0.3458 -0.9646 -0.3822c -0.2457 -0.0182 -0.4095 0.0091 -0.4095 -0.1729c 0 -0.1092 0.091 -0.1638 0.2639 -0.1638h 0.4823c 0.7826 0 1.1648 -0.5915 1.1648 -1.4105c 0 -0.8008 -0.364 -1.4105 -1.1284 -1.4105c -0.6643 0 -1.1466 0.182 -1.4469 0.5551c 0.3185 0.0364 0.4823 0.2184 0.4823 0.5369c 0 0.3003 -0.2275 0.5278 -0.5278 0.5278c -0.3549 0 -0.5369 -0.182 -0.5369 -0.5551c 0 -0.4641 0.2366 -0.8372 0.7007 -1.1011c 0.3913 -0.2184 0.8372 -0.3276 1.3468 -0.3276c 0.5551 0 1.0374 0.1547 1.456 0.4641c 0.455 0.3367 0.6825 0.7735 0.6825 1.3104c 0 0.8463 -0.7371 1.4287 -1.4651 1.6198Z "/></symbol><symbol id="g3286A19CC752B68D2D94F2BC1EB495F" overflow="visible"><path d="M 0 0m 6.812 5.603h -4.29c -0.533 0 -1.001 -0.208 -1.378 -0.611c -0.182 -0.195 -0.793 -1.027 -0.793 -1.196c 0.052 -0.091 0.052 -0.169 0.208 -0.169c 0.091 0 0.169 0.052 0.247 0.169c 0.416 0.637 0.949 0.962 1.586 0.962h 0.663c -0.299 -1.131 -0.845 -2.522 -1.625 -4.173c -0.065 -0.156 -0.104 -0.273 -0.104 -0.338c 0 -0.26 0.143 -0.39 0.416 -0.39c 0.247 0 0.429 0.143 0.546 0.416c 0.234 0.741 0.403 1.313 0.494 1.703l 0.715 2.782h 1.339c -0.351 -1.547 -0.533 -2.626 -0.533 -3.237c 0 -0.637 0.143 -1.664 0.624 -1.664c 0.273 0 0.572 0.26 0.572 0.533c 0 0.065 -0.026 0.169 -0.078 0.299c -0.247 0.611 -0.364 1.3 -0.364 2.093c 0 0.611 0.078 1.274 0.221 1.976h 1.417c 0.455 0 0.676 0.156 0.676 0.481c 0 0.299 -0.234 0.364 -0.559 0.364Z "/></symbol><symbol id="g8A6A9074F91D642F82CC8BE39AC39D3A" overflow="visible"><path d="M 0 0m 1.0829 3.8584c 0.2912 0 0.5096 0.2184 0.5096 0.5096c 0 0.3276 -0.1729 0.5005 -0.5096 0.5096c 0.2002 0.4277 0.6552 0.7735 1.2467 0.7735c 0.8008 0 1.3286 -0.6006 1.3286 -1.4014c 0 -0.4368 -0.1547 -0.8554 -0.4732 -1.2649c -0.1547 -0.2093 -0.273 -0.3549 -0.3549 -0.4368l -2.1567 -2.1385c -0.1183 -0.1092 -0.1001 -0.1365 -0.1001 -0.4095h 3.7492l 0.2821 1.7108h -0.3822c -0.0637 -0.4823 -0.1365 -0.7644 -0.2184 -0.8281c -0.0455 -0.0273 -0.3276 -0.0455 -0.8645 -0.0455h -1.547c 0.6097 0.5369 1.1739 1.0192 1.7108 1.4469c 0.4095 0.3185 0.7007 0.6006 0.8827 0.8463c 0.273 0.3549 0.4095 0.728 0.4095 1.1193c 0 0.5642 -0.2184 1.0101 -0.6643 1.3377c -0.3913 0.3003 -0.8827 0.455 -1.4651 0.455c -0.5005 0 -0.9282 -0.1456 -1.3013 -0.4368c -0.3913 -0.3185 -0.5915 -0.7189 -0.5915 -1.2103c 0 -0.3094 0.2275 -0.5369 0.5096 -0.5369Z "/></symbol><symbol id="g30A27293C28FC13B0B4AB44CDE5ADD2A" overflow="visible"><path d="M 0 0m 4.264 4.225c 0 -0.325 0.169 -0.494 0.52 -0.494c 0.468 0 0.767 0.403 0.767 0.871c 0 0.728 -0.767 1.144 -1.547 1.144c -0.897 0 -1.716 -0.39 -2.418 -1.157c -0.702 -0.767 -1.053 -1.612 -1.053 -2.522c 0 -1.274 0.845 -2.21 2.119 -2.21c 0.689 0 1.3 0.169 1.833 0.494c 0.442 0.273 0.767 0.546 0.975 0.819c 0.091 0.117 0.13 0.208 0.13 0.247c 0 0.143 -0.065 0.221 -0.208 0.221c -0.065 0 -0.13 -0.052 -0.208 -0.156c -0.429 -0.572 -0.962 -0.936 -1.573 -1.092c -0.403 -0.104 -0.702 -0.156 -0.923 -0.156c -0.741 0 -1.105 0.455 -1.105 1.352c 0 0.806 0.377 1.976 0.689 2.535c 0.312 0.572 0.975 1.248 1.742 1.248c 0.494 0 0.832 -0.143 1.014 -0.416c -0.403 -0.039 -0.754 -0.299 -0.754 -0.728Z "/></symbol><symbol id="gB323F9E42E1C20C087FBF81136E27860" overflow="visible"><path d="M 0 0m 2.496 3.25c 0 0.377 -0.312 0.689 -0.689 0.689c -0.377 0 -0.689 -0.312 -0.689 -0.689c 0 -0.377 0.312 -0.689 0.689 -0.689c 0.377 0 0.689 0.312 0.689 0.689Z "/></symbol><symbol id="g6B3DB0E0ADE6D994825CC39624067234" overflow="visible"><path d="M 0 0m 3.497 8.658c -0.533 -0.546 -1.313 -0.819 -2.34 -0.819v -0.507c 0.676 0 1.235 0.104 1.664 0.312v -6.578c 0 -0.234 -0.052 -0.39 -0.169 -0.455c -0.117 -0.065 -0.442 -0.104 -0.962 -0.104h -0.455v -0.507c 0.325 0.026 1.027 0.039 2.106 0.039c 1.079 0 1.781 -0.013 2.106 -0.039v 0.507h -0.455c -0.533 0 -0.858 0.039 -0.962 0.104c -0.104 0.065 -0.169 0.221 -0.169 0.455v 7.202c 0 0.312 -0.026 0.39 -0.364 0.39Z "/></symbol><symbol id="gC717BE5B93447205292D108A434A4EF5" overflow="visible"><path d="M 0 0m 1.612 1.677c 0 0.312 0.065 0.741 0.195 1.274h 0.637c 0.845 0 1.495 0.104 1.963 0.299c 0.429 0.182 0.715 0.442 0.858 0.767c 0.091 0.221 0.13 0.429 0.13 0.598c 0 0.715 -0.676 1.131 -1.404 1.131c -0.507 0 -1.014 -0.13 -1.521 -0.39c -1.001 -0.52 -1.872 -1.703 -1.872 -3.133c 0 -1.326 0.767 -2.366 2.054 -2.366c 0.689 0 1.3 0.169 1.833 0.494c 0.442 0.273 0.767 0.546 0.975 0.819c 0.091 0.117 0.13 0.208 0.13 0.247c 0 0.143 -0.065 0.221 -0.208 0.221c -0.065 0 -0.13 -0.052 -0.208 -0.156c -0.429 -0.572 -0.962 -0.936 -1.573 -1.092c -0.403 -0.104 -0.702 -0.156 -0.923 -0.156c -0.741 0 -1.066 0.702 -1.066 1.443Z m 3.263 2.938c 0 -0.858 -0.832 -1.287 -2.509 -1.287h -0.455c 0.247 0.858 0.611 1.43 1.105 1.703c 0.39 0.221 0.715 0.338 0.975 0.338c 0.468 0 0.884 -0.286 0.884 -0.754Z "/></symbol><symbol id="g7C7E2FFF87EF59D78BEADBF565FB22B2" overflow="visible"><path d="M 0 0m 4.6592 1.2558c -0.2093 -0.7189 -0.5005 -1.0829 -0.8827 -1.0829c -0.1183 0 -0.182 0.0819 -0.182 0.2548c 0 0.1365 0.0546 0.3458 0.1638 0.6279c 0.364 0.9737 0.546 1.638 0.546 1.9929c 0 0.6461 -0.4186 1.001 -1.0647 1.001c -0.4823 0 -0.9009 -0.2002 -1.2558 -0.5915l 0.2457 1.0192l 1.5106 0.9282c 0.0455 0.0273 0.0728 0.0728 0.0728 0.1183c 0 0.1001 -0.0455 0.1456 -0.1456 0.1456c -0.0273 0 -0.0546 -0.0091 -0.0728 -0.0273l -1.2649 -0.7735l 0.3185 1.3104c -0.0182 0.0819 -0.0364 0.1365 -0.1547 0.1365c -0.3003 0 -0.9646 -0.0819 -1.0829 -0.091c -0.1365 -0.0182 -0.2093 -0.0819 -0.2093 -0.2184c 0 -0.091 0.0819 -0.1365 0.2457 -0.1365c 0.1911 0 0.4004 0.0091 0.4186 -0.1183l -0.0273 -0.1729l -0.3003 -1.1921l -0.8736 -0.546c -0.0455 -0.0273 -0.0728 -0.0637 -0.0728 -0.1183c 0 -0.1001 0.0455 -0.1456 0.1456 -0.1456c 0.0182 0 0.0455 0.0091 0.0728 0.0273l 0.6279 0.3822l -0.9009 -3.5945c -0.0273 -0.1001 -0.0364 -0.1638 -0.0364 -0.2002c 0 -0.1911 0.1001 -0.2912 0.2912 -0.2912c 0.182 0 0.3094 0.091 0.3731 0.2639l 0.364 1.4924c 0.1092 0.4459 0.1911 0.7826 0.2548 1.0101c 0.0273 0.0637 0.1001 0.1911 0.2184 0.3731c 0.3276 0.4914 0.728 0.7371 1.2103 0.7371c 0.3003 0 0.4459 -0.2002 0.4459 -0.5915c 0 -0.3731 -0.182 -1.0374 -0.546 -2.002c -0.0819 -0.2093 -0.1183 -0.3731 -0.1183 -0.5096c 0 -0.4368 0.3276 -0.7735 0.7644 -0.7735c 0.4004 0 0.7189 0.2275 0.9464 0.6916c 0.1729 0.364 0.2639 0.6097 0.2639 0.728c 0 0.0819 -0.0455 0.1274 -0.1456 0.1274c -0.0273 0 -0.1638 -0.0819 -0.1638 -0.1911Z "/></symbol><symbol id="gE832265601E1A76A2B4650283FDFA47B" overflow="visible"><path d="M 0 0m 5.187 3.5035c 0 -0.1183 0.0455 -0.2184 0.1365 -0.2912c 0.2275 -0.182 0.3458 -0.4186 0.3458 -0.7098c 0 -0.0455 -0.0091 -0.1001 -0.0182 -0.1456c -0.0546 -0.3913 -0.2184 -0.7553 -0.4823 -1.092c -0.3094 -0.3913 -0.6461 -0.5824 -1.0101 -0.5824c -0.4641 0 -0.7735 0.2184 -0.91 0.6643c 0.1183 0.2457 0.2184 0.5187 0.2912 0.819c 0.0273 0.0637 0.0364 0.1274 0.0364 0.182c 0 0.2275 -0.091 0.3458 -0.273 0.3458c -0.2093 0 -0.3549 -0.1547 -0.4277 -0.4641c -0.0637 -0.273 -0.1001 -0.5278 -0.1001 -0.7735v -0.0637c -0.3549 -0.4732 -0.7553 -0.7098 -1.2103 -0.7098c -0.5369 0 -0.8372 0.455 -0.8372 1.0192c 0 0.546 0.2912 1.1739 0.8645 1.8928c 0.0455 0.0546 0.0637 0.1092 0.0637 0.1547c 0 0.1274 -0.0819 0.2184 -0.2275 0.2184c -0.0819 0 -0.1547 -0.0364 -0.2002 -0.1001c -0.3822 -0.4914 -0.6461 -1.0374 -0.8008 -1.638c -0.0819 -0.3094 -0.1183 -0.6006 -0.1183 -0.8645c 0 -0.819 0.364 -1.456 1.1375 -1.456c 0.5278 0 1.0101 0.2821 1.4378 0.8463c 0.1911 -0.5642 0.5733 -0.8463 1.1466 -0.8463c 1.0647 0 1.7108 1.2558 1.9656 2.2568c 0.1274 0.5005 0.1911 0.8736 0.1911 1.1102c 0 0.3003 -0.0819 0.5187 -0.2457 0.6552c -0.0637 0.0455 -0.1365 0.0728 -0.2366 0.0728c -0.273 0 -0.5187 -0.2275 -0.5187 -0.5005Z "/></symbol><symbol id="g1496F20E01A9F81D8E91FA120B618555" overflow="visible"><path d="M 0 0m 3.5945 6.6612l -3.0849 -8.5995c -0.0728 -0.2002 0.0273 -0.2912 0.1365 -0.3276c 0.1092 -0.0364 0.2457 -0.0364 0.3185 0.1638l 3.0849 8.5904c 0.0728 0.2002 -0.0273 0.2912 -0.1365 0.3276c -0.1001 0.0364 -0.2457 0.0455 -0.3185 -0.1547Z "/></symbol><symbol id="g65687811D8F633ACD21B0AF632B28F04" overflow="visible"><path d="M 0 0m 5.1597 3.3761c 0 0.4004 -0.3276 0.6643 -0.728 0.6643c -0.4095 0 -0.8918 -0.2639 -1.456 -0.8008c -0.4095 -0.3913 -0.7371 -0.6461 -0.9646 -0.7553l 0.8736 3.5126c 0.0091 0.0182 0.0182 0.0728 0.0364 0.1547c 0 0.1092 -0.0637 0.1638 -0.182 0.1638l -1.1466 -0.091c -0.1547 -0.0091 -0.2275 -0.091 -0.2275 -0.2457c 0 -0.1001 0.091 -0.1547 0.2639 -0.1547c 0.1547 0 0.4004 0 0.4004 -0.1001c 0 -0.0364 -0.0091 -0.1001 -0.0364 -0.1911c -0.4368 -1.7381 -0.8554 -3.4944 -1.3013 -5.2234c -0.0091 -0.0364 -0.0091 -0.0637 -0.0091 -0.0728c 0 -0.2184 0.1092 -0.3276 0.3367 -0.3276c 0.2275 0 0.3731 0.1365 0.4459 0.4004c 0.1456 0.5551 0.3549 1.3832 0.4368 1.7199c 0.7189 -0.0819 1.0829 -0.3094 1.0829 -0.7007c 0 -0.0819 -0.0546 -0.3731 -0.0546 -0.455c 0 -0.5642 0.4277 -0.9646 0.9828 -0.9646c 0.3276 0 0.6006 0.1638 0.8099 0.4914c 0.1911 0.3003 0.3094 0.6006 0.364 0.9191c 0 0.1001 -0.0637 0.1547 -0.182 0.1547c -0.0546 0 -0.091 -0.0091 -0.1183 -0.0273c -0.0455 -0.0819 -0.0819 -0.1547 -0.091 -0.2184c -0.182 -0.6643 -0.4368 -0.9919 -0.7553 -0.9919c -0.182 0 -0.273 0.1456 -0.273 0.4277c 0 0.1092 0.0182 0.2366 0.0455 0.3913c 0.0273 0.1001 0.0455 0.1911 0.0455 0.2912c 0 0.3913 -0.2002 0.6643 -0.6097 0.8008c -0.2548 0.091 -0.5096 0.1547 -0.7644 0.182c 0.1729 0.1183 0.3913 0.3003 0.6552 0.5369c 0.4277 0.3822 0.8281 0.8463 1.3832 0.8463c 0.1001 0 0.1729 -0.0182 0.2275 -0.0546c -0.2821 -0.0728 -0.4277 -0.2457 -0.4277 -0.5278c 0 -0.2184 0.1729 -0.3731 0.3913 -0.3731c 0.3276 0 0.546 0.2912 0.546 0.6188Z "/></symbol><symbol id="g761689E490812CEA84940060572FBDB5" overflow="visible"><path d="M 0 0m 1.8135 4.2315c 0 -0.0845 0.0845 -0.13 0.26 -0.13c 0.1755 0 0.3055 -0.013 0.39 -0.0325c 0 -0.0455 -0.0065 -0.091 -0.013 -0.1365l -0.845 -3.367c -0.0195 -0.0715 -0.039 -0.117 -0.0585 -0.143c -0.039 -0.0585 -0.195 -0.0845 -0.4615 -0.0845c -0.195 0 -0.299 -0.013 -0.299 -0.2015c 0 -0.091 0.078 -0.1365 0.2405 -0.1365h 2.8015c 0.455 0 0.9035 0.117 1.339 0.3445c 0.52 0.2795 0.78 0.624 0.78 1.04c 0 0.546 -0.572 0.845 -1.105 0.9425c 0.1755 0.0325 0.351 0.091 0.5265 0.1625c 0.39 0.1625 0.8775 0.52 0.8775 0.988c 0 0.325 -0.182 0.5785 -0.5525 0.754c -0.2925 0.1365 -0.6175 0.208 -0.988 0.208h -2.639c -0.182 0 -0.2535 -0.052 -0.2535 -0.208Z m 3.692 -0.7735c 0 -0.3185 -0.1885 -0.5785 -0.572 -0.7735c -0.3185 -0.1625 -0.65 -0.2405 -1.001 -0.2405h -1.183l 0.364 1.4625c 0.052 0.195 0.0455 0.195 0.299 0.195h 1.1765c 0.468 0 0.9165 -0.2145 0.9165 -0.6435Z m -0.312 -2.0475c 0 -0.3315 -0.182 -0.598 -0.546 -0.806c -0.3055 -0.1755 -0.637 -0.2665 -0.9945 -0.2665h -1.2415c -0.078 0 -0.1365 0.0065 -0.182 0.013c 0.0065 0.026 0.013 0.052 0.0195 0.0845l 0.429 1.7355h 1.5535c 0.5265 0 0.962 -0.26 0.962 -0.7605Z "/></symbol><symbol id="g93B96925AF20254D7D82B92F2475B654" overflow="visible"><path d="M 0 0m 3.5763 5.7057l -1.2194 -4.914c -0.0364 -0.1365 -0.0728 -0.2184 -0.1001 -0.2548c -0.0819 -0.1001 -0.3913 -0.1456 -0.9191 -0.1456c -0.3003 0 -0.4459 0.0182 -0.4459 -0.2275c 0 -0.1092 0.0637 -0.1638 0.1911 -0.1638c 0.4914 0 1.0374 0.0455 1.547 0.0364l 0.8099 -0.0091c 0.2366 0 0.5915 -0.0091 0.7644 -0.0273c 0.1547 0 0.2366 0.0819 0.2366 0.2366c 0 0.0819 -0.0455 0.1365 -0.1456 0.1547h -0.2548c -0.4459 0 -0.7098 0.0182 -0.7735 0.0637c -0.0273 0.0182 -0.0364 0.0455 -0.0364 0.091c 0 0.0455 0.0091 0.1092 0.0273 0.2002l 1.1921 4.7229c 0.0637 0.2093 0.0455 0.2639 0.2457 0.2821c 0.0273 0.0091 0.2002 0.0091 0.5369 0.0091c 0.5187 0 0.8554 -0.0273 1.001 -0.0728c 0.2912 -0.1001 0.4004 -0.2366 0.4004 -0.6825c 0 -0.2457 -0.0273 -0.5187 -0.0819 -0.819c 0 -0.1183 0.0637 -0.1729 0.1911 -0.1729c 0.0455 0 0.091 0.0091 0.1183 0.0364c 0.0455 0.091 0.0728 0.1638 0.0819 0.2184l 0.2457 1.7199c 0 0.1092 -0.1001 0.1638 -0.3094 0.1638h -5.5328c -0.2548 0 -0.273 -0.0182 -0.3367 -0.2093l -0.5733 -1.5925c -0.0091 -0.0455 -0.0455 -0.1456 -0.0455 -0.1729c 0 -0.1092 0.0637 -0.1638 0.1911 -0.1638c 0.091 0 0.1638 0.0819 0.2184 0.2366c 0.3094 0.8463 0.5096 1.3832 1.4469 1.4924c 0.1001 0.0091 0.3367 0.0182 0.7098 0.0182h 0.3822c 0.1638 0 0.2366 0.0182 0.2366 -0.0546Z "/></symbol><symbol id="g9B543B57F718853EF8F95EF155B6CF69" overflow="visible"><path d="M 0 0m 9.074 3.51h -8.034c -0.208 0 -0.312 -0.091 -0.312 -0.26c 0 -0.169 0.104 -0.26 0.312 -0.26h 8.034c 0.208 0 0.312 0.091 0.312 0.26c 0 0.156 -0.156 0.26 -0.312 0.26Z "/></symbol><symbol id="g929C9F5835BF20B9E99EAF8B7595E15F" overflow="visible"><path d="M 0 0m 3.0212 1.1466v 0.546h -0.2912v -0.5278c 0 -0.455 -0.1638 -0.9646 -0.5642 -0.9646c -0.3731 0 -0.5551 0.3094 -0.5551 0.9282v 2.4661h 1.2649v 0.3458h -1.2649v 1.6562h -0.2912c -0.0091 -0.3003 -0.0364 -0.5642 -0.1001 -0.8008c -0.1547 -0.6006 -0.5096 -0.91 -1.0465 -0.9373v -0.2639h 0.7553v -2.4479c 0 -0.5369 0.1638 -0.8827 0.4823 -1.0556c 0.2457 -0.1274 0.4732 -0.1911 0.7007 -0.1911c 0.6006 0 0.91 0.6006 0.91 1.2467Z "/></symbol><symbol id="g733BC00FCAC4D4817C0648C06C143A7E" overflow="visible"><path d="M 0 0m 2.2659 -0.1001c 0.5642 0 1.0374 0.2002 1.4287 0.6006c 0.3913 0.4004 0.5915 0.8827 0.5915 1.4469c 0 0.5733 -0.1911 1.0738 -0.5733 1.4924c -0.3822 0.4186 -0.8645 0.637 -1.4378 0.637c -0.5733 0 -1.0465 -0.2184 -1.4378 -0.637c -0.3913 -0.4186 -0.5824 -0.9191 -0.5824 -1.4924c 0 -0.5642 0.1911 -1.0465 0.5824 -1.4469c 0.3913 -0.4004 0.8736 -0.6006 1.4287 -0.6006Z m 0.0091 0.2912c -0.4368 0 -0.7644 0.1911 -0.9919 0.5824c -0.1456 0.2548 -0.2184 0.6734 -0.2184 1.2467c 0 0.5551 0.0728 0.9555 0.2093 1.2103c 0.2184 0.3913 0.546 0.5824 0.9919 0.5824c 0.4277 0 0.7553 -0.1911 0.9828 -0.5642c 0.1547 -0.2548 0.2275 -0.6643 0.2275 -1.2285c 0 -1.0556 -0.3094 -1.8291 -1.2012 -1.8291Z "/></symbol><symbol id="g1CEBE56BFF7571B8DB10F1A4DAC5A5D7" overflow="visible"><path d="M 0 0m 4.3953 0.8281v 0.5369h -0.2912v -0.5369c 0 -0.3549 -0.1001 -0.5369 -0.2912 -0.5369c -0.182 0 -0.2912 0.2275 -0.2912 0.4095v 1.7927c 0 0.3185 -0.0364 0.5551 -0.1001 0.7189c -0.2184 0.5369 -0.8463 0.8645 -1.4833 0.8645c -0.7007 0 -1.3923 -0.3913 -1.3923 -1.0465c 0 -0.3003 0.1547 -0.455 0.455 -0.455c 0.3003 0 0.4459 0.1456 0.4459 0.4459c 0 0.2639 -0.1365 0.4186 -0.4186 0.4459c 0.2002 0.2275 0.5005 0.3458 0.8918 0.3458c 0.5642 0 0.91 -0.5187 0.91 -1.1102v -0.3003c -0.7098 -0.0455 -1.2467 -0.1547 -1.6198 -0.3276c -0.6097 -0.2821 -0.9191 -0.6734 -0.9191 -1.1921c 0 -0.2366 0.091 -0.4368 0.2639 -0.5915c 0.2912 -0.2639 0.6916 -0.3913 1.2012 -0.3913c 0.5369 0 0.9191 0.2275 1.1557 0.6916c 0.0637 -0.3458 0.3185 -0.6461 0.7098 -0.6461c 0.4823 0 0.7735 0.3822 0.7735 0.8827Z m -2.5753 -0.6643c -0.4186 0 -0.7644 0.3094 -0.7644 0.728c 0 0.8463 0.8827 1.2103 1.7745 1.2558v -0.8645c 0 -0.6097 -0.4004 -1.1193 -1.0101 -1.1193Z "/></symbol><symbol id="g48B3ED1BE8E5B4ABFD539FA8F671E63F" overflow="visible"><path d="M 0 0m 1.3104 0.0273l 1.0101 -0.0273v 0.3549c -0.3276 0 -0.5278 0.0091 -0.5915 0.0455c -0.0637 0.0364 -0.091 0.1456 -0.091 0.3185v 5.5965l -1.3377 -0.1001v -0.3458c 0.3185 0 0.5187 -0.0273 0.5824 -0.0819c 0.0637 -0.0546 0.1001 -0.182 0.1001 -0.3913v -4.6774c 0 -0.1729 -0.0273 -0.2821 -0.091 -0.3185c -0.0637 -0.0364 -0.2639 -0.0455 -0.5915 -0.0455v -0.3549Z "/></symbol><symbol id="gCD18A55F4CC2CA429D96672C565B9565" overflow="visible"><path d="M 0 0m 5.317 4.589c 0 -0.338 0.182 -0.507 0.533 -0.507c 0.455 0 0.754 0.403 0.754 0.845c 0 0.507 -0.416 0.858 -0.923 0.858c -0.585 0 -1.209 -0.39 -1.898 -1.157c -0.533 -0.585 -0.962 -0.962 -1.313 -1.131l 1.313 5.33c -0.026 0.117 -0.052 0.195 -0.221 0.195c -0.416 0 -1.404 -0.117 -1.56 -0.13c -0.195 -0.026 -0.286 -0.117 -0.286 -0.312c 0 -0.13 0.117 -0.195 0.351 -0.195c 0.247 0 0.585 0.013 0.585 -0.169l -1.885 -7.657c -0.039 -0.143 -0.052 -0.234 -0.052 -0.286c 0 -0.273 0.143 -0.416 0.416 -0.416c 0.221 0 0.39 0.104 0.481 0.299c 0.065 0.117 0.299 1.04 0.715 2.782c 0.676 -0.065 1.391 -0.39 1.391 -1.04c 0 -0.195 -0.091 -0.585 -0.091 -0.715c 0 -0.741 0.481 -1.326 1.222 -1.326c 0.754 0 1.261 0.676 1.521 2.028c 0 0.117 -0.065 0.182 -0.195 0.182c -0.117 0 -0.195 -0.091 -0.234 -0.273c -0.286 -1.027 -0.637 -1.547 -1.066 -1.547c -0.234 0 -0.351 0.182 -0.351 0.546c 0 0.208 0.156 0.91 0.156 1.118c 0 0.741 -0.598 1.196 -1.807 1.378c 0.299 0.208 0.637 0.507 1.001 0.897c 0.364 0.39 0.624 0.637 0.793 0.78c 0.351 0.286 0.689 0.429 0.988 0.429c 0.13 0 0.234 -0.026 0.312 -0.078c -0.351 -0.065 -0.65 -0.39 -0.65 -0.728Z "/></symbol><symbol id="gA606C0CE8C60E36688427617C8536C21" overflow="visible"><path d="M 0 0m 3.5854 6.1334c -0.1001 0 -0.1911 -0.0455 -0.2639 -0.1365l -2.9666 -4.1496v -0.3731h 2.6299v -0.7007c 0 -0.1547 -0.0273 -0.2639 -0.091 -0.3094c -0.0637 -0.0455 -0.2639 -0.0728 -0.5915 -0.0728h -0.2821v -0.3913l 1.3741 0.0364l 1.3923 -0.0364v 0.3913h -0.273c -0.3367 0 -0.5369 0.0273 -0.6006 0.0728c -0.0637 0.0455 -0.091 0.1547 -0.091 0.3094v 0.7007h 0.9919v 0.4004h -0.9919v 3.9676c 0 0.2184 -0.0273 0.2912 -0.2366 0.2912Z m -0.5369 -1.1193v -3.1395h -2.2568Z "/></symbol><symbol id="gC7B20184179011BBC954B5E7CD84FB69" overflow="visible"><path d="M 0 0m 7.6167 4.9049c 0 0.4368 -0.2184 0.7735 -0.6552 1.0101c -0.3549 0.2002 -0.7735 0.3003 -1.2467 0.3003h -3.276c -0.2093 0 -0.3276 -0.0273 -0.3276 -0.2366c 0 -0.1001 0.0637 -0.1456 0.1911 -0.1547l 0.4732 -0.0182c 0.1183 -0.0091 0.1729 0 0.1729 -0.091l -1.2285 -4.9686c -0.0455 -0.182 -0.1365 -0.2912 -0.273 -0.3367c -0.0455 -0.0091 -0.2002 -0.0182 -0.4823 -0.0182h -0.1547c -0.1001 -0.0091 -0.1547 -0.0819 -0.1547 -0.2184c 0 -0.1547 0.1183 -0.1729 0.3094 -0.1729h 3.4853c 0.6097 0 1.1921 0.1729 1.7472 0.5096c 0.6461 0.3913 0.9646 0.8736 0.9646 1.4469c 0 0.728 -0.6916 1.1739 -1.3741 1.3013c 0.8099 0.182 1.8291 0.7826 1.8291 1.6471Z m -0.9555 0.0091c 0 -0.455 -0.2275 -0.8281 -0.6734 -1.1284c -0.4004 -0.2639 -0.8372 -0.3913 -1.3195 -0.3913h -1.4287l 0.5369 2.1476c 0.0728 0.273 0.0728 0.2821 0.4277 0.2821h 1.365c 0.6279 0 1.092 -0.3185 1.092 -0.91Z m -0.4823 -2.8938c 0 -0.4732 -0.2184 -0.8736 -0.6461 -1.1921c -0.3913 -0.2912 -0.8281 -0.4368 -1.3195 -0.4368h -1.4469c -0.1729 0 -0.2548 -0.0182 -0.2548 0.0546l 0.6461 2.6208h 1.8837c 0.6643 0 1.1375 -0.3822 1.1375 -1.0465Z "/></symbol><symbol id="gBA62791EE2AC6A9C151740043DEFED9" overflow="visible"><path d="M 0 0m 1.534 4.095c 0.065 0 0.143 0.052 0.208 0.143c 0.39 0.585 0.923 0.871 1.599 0.871c 0.455 0 0.806 -0.26 1.04 -0.793c 0.143 -0.351 0.221 -0.884 0.221 -1.599c 0 -0.819 -0.104 -1.391 -0.299 -1.729c -0.325 -0.533 -0.767 -0.806 -1.326 -0.806c -0.871 0 -1.56 0.624 -1.794 1.3c 0.039 -0.013 0.065 0 0.117 0c 0.39 0 0.715 0.299 0.715 0.689c 0 0.403 -0.325 0.676 -0.715 0.676c -0.455 0 -0.65 -0.247 -0.65 -0.728c 0 -1.3 1.053 -2.405 2.353 -2.405c 0.793 0 1.469 0.286 2.015 0.858c 0.546 0.572 0.819 1.261 0.819 2.054c 0 0.754 -0.221 1.404 -0.663 1.963c -0.481 0.611 -1.079 0.91 -1.807 0.91c -0.611 0 -1.144 -0.195 -1.573 -0.585v 2.314c 0.351 -0.104 0.689 -0.156 1.04 -0.156c 0.598 0 1.118 0.143 1.56 0.442c 0.403 0.247 0.676 0.494 0.832 0.728c 0.078 0.104 0.117 0.182 0.117 0.221c 0 0.13 -0.065 0.195 -0.195 0.195c -0.715 -0.273 -1.326 -0.416 -1.82 -0.416c -0.585 0 -1.144 0.117 -1.677 0.364c -0.065 0.026 -0.117 0.039 -0.169 0.039c -0.117 0 -0.182 -0.117 -0.182 -0.364v -3.796c 0 -0.273 0 -0.39 0.234 -0.39Z "/></symbol></defs></svg>