<svg viewBox="0 0 185.767111111 47.3044" width="185.767111111pt" height="47.3044pt" xmlns="http://www.w3.org/2000/svg" xmlns:xlink="http://www.w3.org/1999/xlink" xmlns:h5="http://www.w3.org/1999/xhtml"><g transform="matrix(1 0 0 -1 6.5 27.4937)"><use xlink:href="#gAF39B06637020F254AB7B881282CA7F5" x="0" y="0" fill="#e6edf3" fill-rule="nonzero"/></g><g transform="matrix(1 0 0 -1 13.039 30.7047)"><use xlink:href="#g4CE686876A17D681BBB59265FB1A41AE" x="0" y="0" fill="#e6edf3" fill-rule="nonzero"/></g><g transform="matrix(1 0 0 -1 21.054511111 27.4937)"><use xlink:href="#g13AFF74D87C474CFAF661EEAD0458F8B" x="0" y="0" fill="#e6edf3" fill-rule="nonzero"/></g><g transform="matrix(1 0 0 -1 36.079622222 18.6927)"><use xlink:href="#gC717BE5B93447205292D108A434A4EF5" x="0" y="0" fill="#e6edf3" fill-rule="nonzero"/></g><g transform="matrix(1 0 0 -1 42.137622222 11.9457)"><use xlink:href="#g9948C0FDABF29E771DA30338E5C0072D" x="0" y="0" fill="#e6edf3" fill-rule="nonzero"/></g><g transform="matrix(1 0 0 -1 55.135672222 6.8445)"><use xlink:href="#g9F7E38EFE0B6945546629A9F5CF513AD" x="0" y="0" fill="#e6edf3" fill-rule="nonzero"/></g><g transform="matrix(1 0 0 -1 59.523172222 8.944)"><use xlink:href="#gC48B6A210272368C1F8FEAF9557822B5" x="0" y="0" fill="#e6edf3" fill-rule="nonzero"/></g><g transform="matrix(1 0 0 -1 50.127422222 15.0852)"><use xlink:href="#gF85D27CF4EECF5B745E4EFB2B35C30AF" x="0" y="0" fill="#e6edf3" fill-rule="nonzero"/></g><g transform="matrix(1 0 0 -1 55.054422222 17.2887)"><use xlink:href="#g761689E490812CEA84940060572FBDB5" x="0" y="0" fill="#e6edf3" fill-rule="nonzero"/></g><g transform="matrix(1 0 0 -1 62.158922222 15.0852)"><use xlink:href="#g6A6209D8BB3E9FEC75EAB6C5E85CC609" x="0" y="0" fill="#e6edf3" fill-rule="nonzero"/></g><path fill="none" stroke="#e6edf3" stroke-width="0.4368" stroke-linecap="butt" stroke-linejoin="miter" stroke-miterlimit="4" transform="translate(50.127422222 9.6707)" d="M 0 0h 18.239"/><g transform="matrix(1 0 0 -1 48.160522222 36.4117)"><use xlink:href="#g4F4A543C48CF8402D9EEEC7880A7C7C3" x="0" y="0" fill="#e6edf3" fill-rule="nonzero"/></g><path fill="none" stroke="#e6edf3" stroke-width="0.624" stroke-linecap="butt" stroke-linejoin="miter" stroke-miterlimit="4" transform="translate(36.079622222 24.2437)" d="M 0 0h 33.9248"/><g transform="matrix(1 0 0 -1 97.304422222 27.4937)"><use xlink:href="#g4F4A543C48CF8402D9EEEC7880A7C7C3" x="0" y="0" fill="#e6edf3" fill-rule="nonzero"/></g><g transform="matrix(1 0 0 -1 110.678533333 27.4937)"><use xlink:href="#g13AFF74D87C474CFAF661EEAD0458F8B" x="0" y="0" fill="#e6edf3" fill-rule="nonzero"/></g><g transform="matrix(1 0 0 -1 124.403644444 27.4937)"><use xlink:href="#g4511C92E9BF59263ADBD37DA8A7526D7" x="0" y="0" fill="#e6edf3" fill-rule="nonzero"/></g><g transform="matrix(1 0 0 -1 131.637494444 41.548)"><use xlink:href="#g98601464C894CB168BCFB296435320FA" x="0" y="0" fill="#e6edf3" fill-rule="nonzero"/></g><g transform="matrix(1 0 0 -1 145.342311111 27.4937)"><use xlink:href="#gC717BE5B93447205292D108A434A4EF5" x="0" y="0" fill="#e6edf3" fill-rule="nonzero"/></g><g transform="matrix(1 0 0 -1 151.400311111 20.7467)"><use xlink:href="#g9948C0FDABF29E771DA30338E5C0072D" x="0" y="0" fill="#e6edf3" fill-rule="nonzero"/></g><g transform="matrix(1 0 0 -1 164.222861111 14.3845)"><use xlink:href="#g9F7E38EFE0B6945546629A9F5CF513AD" x="0" y="0" fill="#e6edf3" fill-rule="nonzero"/></g><g transform="matrix(1 0 0 -1 168.610361111 16.484)"><use xlink:href="#g8A9CF37D43F77C8B689949BB7A24BE1F" x="0" y="0" fill="#e6edf3" fill-rule="nonzero"/></g><g transform="matrix(1 0 0 -1 159.390111111 23.8862)"><use xlink:href="#gF85D27CF4EECF5B745E4EFB2B35C30AF" x="0" y="0" fill="#e6edf3" fill-rule="nonzero"/></g><g transform="matrix(1 0 0 -1 164.317111111 26.0897)"><use xlink:href="#g761689E490812CEA84940060572FBDB5" x="0" y="0" fill="#e6edf3" fill-rule="nonzero"/></g><g transform="matrix(1 0 0 -1 171.421611111 23.8862)"><use xlink:href="#g6A6209D8BB3E9FEC75EAB6C5E85CC609" x="0" y="0" fill="#e6edf3" fill-rule="nonzero"/></g><path fill="none" stroke="#e6edf3" stroke-width="0.4368" stroke-linecap="butt" stroke-linejoin="miter" stroke-miterlimit="4" transform="translate(159.390111111 18.4717)" d="M 0 0h 18.239"/><defs><symbol id="gAF39B06637020F254AB7B881282CA7F5" overflow="visible"><path d="M 0 0m 4.615 5.746c -0.572 0 -1.118 -0.299 -1.651 -0.897c -0.143 0.598 -0.546 0.897 -1.183 0.897c -0.533 0 -0.923 -0.429 -1.196 -1.274c -0.13 -0.429 -0.195 -0.676 -0.195 -0.754c 0 -0.117 0.065 -0.182 0.208 -0.182c 0.065 0 0.104 0.013 0.143 0.039c 0.065 0.117 0.104 0.208 0.117 0.299c 0.234 0.988 0.533 1.482 0.884 1.482c 0.234 0 0.351 -0.182 0.351 -0.533c 0 -0.195 -0.026 -0.416 -0.091 -0.65l -1.43 -5.707c -0.117 -0.429 -0.13 -0.481 -0.637 -0.481c -0.234 0 -0.351 -0.104 -0.351 -0.299c 0 -0.143 0.078 -0.208 0.221 -0.208c 0.195 0 0.871 0.039 1.066 0.039c 0.247 0 1.027 -0.039 1.274 -0.039c 0.195 0 0.286 0.104 0.286 0.312c 0 0.13 -0.117 0.195 -0.364 0.195c -0.234 0 -0.585 -0.013 -0.585 0.143c 0 0.169 0.533 2.21 0.585 2.431c 0.26 -0.481 0.65 -0.728 1.17 -0.728c 0.845 0 1.586 0.429 2.236 1.3c 0.598 0.793 0.897 1.638 0.897 2.509c 0 1.131 -0.676 2.106 -1.755 2.106Z m -0.039 -0.39c 0.507 0 0.767 -0.39 0.767 -1.157c 0 -0.351 -0.078 -0.819 -0.221 -1.404c -0.299 -1.131 -0.676 -1.872 -1.131 -2.249c -0.273 -0.221 -0.52 -0.338 -0.767 -0.338c -0.377 0 -0.637 0.169 -0.78 0.52c -0.117 0.273 -0.182 0.468 -0.182 0.572l 0.663 2.717c 0.065 0.286 0.299 0.585 0.663 0.884c 0.364 0.299 0.689 0.455 0.988 0.455Z "/></symbol><symbol id="g4CE686876A17D681BBB59265FB1A41AE" overflow="visible"><path d="M 0 0m 2.9575 5.6511c 0 0.2184 -0.1729 0.3822 -0.3913 0.3822c -0.273 0 -0.5369 -0.2548 -0.5369 -0.5278c 0 -0.2184 0.1729 -0.3822 0.3913 -0.3822c 0.273 0 0.5369 0.2548 0.5369 0.5278Z m -1.2103 -1.6107c -0.4277 0 -0.7644 -0.2184 -1.0101 -0.6552c -0.2093 -0.364 -0.3094 -0.6188 -0.3094 -0.7644c 0 -0.1001 0.0637 -0.1456 0.182 -0.1456c 0.1001 0 0.1638 0.0546 0.2002 0.1638c 0.2093 0.7189 0.5096 1.0738 0.91 1.0738c 0.1274 0 0.1911 -0.091 0.1911 -0.2821c 0 -0.1183 -0.091 -0.4095 -0.273 -0.8827l -0.5642 -1.4469c -0.0546 -0.1456 -0.0819 -0.273 -0.0819 -0.3913c 0 -0.4732 0.4095 -0.8008 0.8827 -0.8008c 0.4277 0 0.7553 0.2184 1.001 0.6643c 0.2093 0.364 0.3094 0.6097 0.3094 0.7462c 0 0.1001 -0.0637 0.1547 -0.182 0.1547c -0.0546 -0.0091 -0.1183 -0.0546 -0.182 -0.1456c -0.0091 -0.0091 -0.0182 -0.0273 -0.0182 -0.0364c -0.2093 -0.7007 -0.5096 -1.0556 -0.9009 -1.0556c -0.1274 0 -0.1911 0.091 -0.1911 0.273c 0 0.1365 0.0455 0.3276 0.1456 0.5642l 0.7189 1.8655c 0.0364 0.1001 0.0546 0.2002 0.0546 0.3003c 0 0.4732 -0.4095 0.8008 -0.8827 0.8008Z "/></symbol><symbol id="g13AFF74D87C474CFAF661EEAD0458F8B" overflow="visible"><path d="M 0 0m 9.074 4.771h -8.034c -0.208 0 -0.312 -0.104 -0.312 -0.299c 0 -0.195 0.104 -0.299 0.312 -0.299h 8.034c 0.208 0 0.312 0.104 0.312 0.299c 0 0.156 -0.143 0.299 -0.312 0.299Z m 0 -2.444h -8.034c -0.208 0 -0.312 -0.104 -0.312 -0.299c 0 -0.195 0.104 -0.299 0.312 -0.299h 8.034c 0.208 0 0.312 0.104 0.312 0.299c 0 0.169 -0.143 0.299 -0.312 0.299Z "/></symbol><symbol id="gC717BE5B93447205292D108A434A4EF5" overflow="visible"><path d="M 0 0m 1.612 1.677c 0 0.312 0.065 0.741 0.195 1.274h 0.637c 0.845 0 1.495 0.104 1.963 0.299c 0.429 0.182 0.715 0.442 0.858 0.767c 0.091 0.221 0.13 0.429 0.13 0.598c 0 0.715 -0.676 1.131 -1.404 1.131c -0.507 0 -1.014 -0.13 -1.521 -0.39c -1.001 -0.52 -1.872 -1.703 -1.872 -3.133c 0 -1.326 0.767 -2.366 2.054 -2.366c 0.689 0 1.3 0.169 1.833 0.494c 0.442 0.273 0.767 0.546 0.975 0.819c 0.091 0.117 0.13 0.208 0.13 0.247c 0 0.143 -0.065 0.221 -0.208 0.221c -0.065 0 -0.13 -0.052 -0.208 -0.156c -0.429 -0.572 -0.962 -0.936 -1.573 -1.092c -0.403 -0.104 -0.702 -0.156 -0.923 -0.156c -0.741 0 -1.066 0.702 -1.066 1.443Z m 3.263 2.938c 0 -0.858 -0.832 -1.287 -2.509 -1.287h -0.455c 0.247 0.858 0.611 1.43 1.105 1.703c 0.39 0.221 0.715 0.338 0.975 0.338c 0.468 0 0.884 -0.286 0.884 -0.754Z "/></symbol><symbol id="g9948C0FDABF29E771DA30338E5C0072D" overflow="visible"><path d="M 0 0m 6.3336 2.4843h -5.5874c -0.182 0 -0.2366 -0.091 -0.2366 -0.2093c 0 -0.1183 0.0546 -0.2093 0.2366 -0.2093h 5.5874c 0.182 0 0.2366 0.091 0.2366 0.2093c 0 0.1092 -0.0546 0.2093 -0.2366 0.2093Z "/></symbol><symbol id="g9F7E38EFE0B6945546629A9F5CF513AD" overflow="visible"><path d="M 0 0m 3.731 2.5155c 0 0.078 -0.052 0.143 -0.1495 0.195c -0.286 0.156 -0.5915 0.234 -0.923 0.234c -0.3705 0 -0.728 -0.0715 -1.079 -0.2145c -0.455 -0.182 -0.6825 -0.429 -0.6825 -0.7475c 0 -0.1755 0.0845 -0.312 0.247 -0.4225c -0.3705 -0.2275 -0.5525 -0.494 -0.5525 -0.806c 0 -0.3055 0.1625 -0.5395 0.4875 -0.702c 0.26 -0.13 0.559 -0.195 0.8905 -0.195c 0.3835 0 0.702 0.0585 0.9555 0.182c 0.169 0.078 0.5395 0.351 0.5395 0.5395c 0 0.091 -0.0455 0.1365 -0.13 0.1365c -0.039 0 -0.078 -0.0325 -0.1235 -0.0975c -0.1885 -0.286 -0.585 -0.312 -1.1375 -0.312c -0.7735 0 -1.157 0.1625 -1.157 0.481c 0 0.2405 0.1755 0.4485 0.5265 0.6175c 0.195 -0.0715 0.429 -0.104 0.702 -0.104c 0.143 0 0.286 0.013 0.4225 0.0325c 0.1755 0.0325 0.2665 0.117 0.2665 0.26c 0 0.1625 -0.2015 0.247 -0.611 0.247c -0.2535 0 -0.5005 -0.039 -0.728 -0.117c -0.0195 -0.0065 -0.0325 -0.013 -0.0455 -0.013c -0.1105 0.0455 -0.234 0.143 -0.234 0.2795c 0 0.39 0.884 0.507 1.3585 0.507c 0.286 0 0.533 -0.0585 0.7475 -0.1755c 0.065 -0.0325 0.117 -0.052 0.1625 -0.052c 0.13 0 0.247 0.117 0.247 0.247Z "/></symbol><symbol id="gC48B6A210272368C1F8FEAF9557822B5" overflow="visible"><path d="M 0 0m 2.5805 4.0365c 0 0.1755 -0.1365 0.299 -0.3055 0.299c -0.208 0 -0.4095 -0.2015 -0.4095 -0.4095c 0 -0.169 0.1235 -0.3055 0.299 -0.3055c 0.208 0 0.416 0.208 0.416 0.416Z m -0.9425 -1.144c -0.3185 0 -0.5785 -0.1495 -0.78 -0.4485c -0.1755 -0.2535 -0.2665 -0.4485 -0.2665 -0.5785c 0 -0.0715 0.052 -0.1105 0.156 -0.1105c 0.0845 0 0.143 0.0455 0.1755 0.143c 0.091 0.312 0.3445 0.7215 0.689 0.7215c 0.1105 0 0.169 -0.0715 0.169 -0.2145c 0 -0.0715 -0.013 -0.1495 -0.039 -0.2275c -0.182 -0.455 -0.3705 -0.91 -0.559 -1.3585c -0.0455 -0.1365 -0.0715 -0.2405 -0.0715 -0.299c 0 -0.364 0.3445 -0.5915 0.7215 -0.5915c 0.3185 0 0.5785 0.1495 0.78 0.4485c 0.1755 0.26 0.2665 0.4485 0.2665 0.572c 0 0.078 -0.052 0.117 -0.156 0.117c -0.078 0 -0.13 -0.026 -0.1495 -0.078c -0.0195 -0.052 -0.026 -0.078 -0.0325 -0.091c -0.0975 -0.299 -0.351 -0.6955 -0.6825 -0.6955c -0.1105 0 -0.169 0.0715 -0.169 0.2145c 0 0.0715 0.026 0.182 0.0845 0.3185l 0.494 1.235c 0.0585 0.1495 0.091 0.26 0.091 0.3315c 0 0.3705 -0.351 0.5915 -0.7215 0.5915Z "/></symbol><symbol id="gF85D27CF4EECF5B745E4EFB2B35C30AF" overflow="visible"><path d="M 0 0m 3.8935 1.8785c 0.2535 0 0.4225 0.2275 0.4225 0.481c 0 0.325 -0.2535 0.533 -0.5785 0.533c -0.1365 0 -0.286 -0.0325 -0.442 -0.104c -0.3445 -0.1625 -0.5005 -0.2925 -0.845 -0.5785c -0.2535 -0.2015 -0.4615 -0.3445 -0.637 -0.416l 0.6045 2.4375c 0.0195 0.0715 0.026 0.1235 0.026 0.143c 0 0.0975 -0.0715 0.143 -0.221 0.13l -0.793 -0.0585c -0.1625 -0.0065 -0.221 -0.065 -0.221 -0.2145c 0 -0.078 0.0715 -0.1235 0.2145 -0.13c 0.2015 -0.013 0.325 0 0.325 -0.0715c 0 -0.013 -0.013 -0.0585 -0.0325 -0.143l -0.884 -3.549c -0.0195 -0.0715 -0.026 -0.117 -0.026 -0.1495c 0 -0.1755 0.091 -0.26 0.2665 -0.26c 0.2145 0 0.312 0.13 0.3575 0.3445l 0.286 1.1635c 0.1495 -0.0065 0.325 -0.0325 0.5135 -0.078c 0.273 -0.065 0.4095 -0.2015 0.4095 -0.403c 0 -0.065 -0.039 -0.247 -0.039 -0.312c 0 -0.429 0.364 -0.715 0.806 -0.715c 0.312 0 0.5525 0.1625 0.728 0.4875c 0.1365 0.2665 0.208 0.4485 0.208 0.533c 0 0.078 -0.052 0.117 -0.1625 0.117c -0.0845 0 -0.143 -0.0585 -0.1755 -0.169c -0.026 -0.0975 -0.0585 -0.1885 -0.104 -0.286c -0.1235 -0.273 -0.2795 -0.4095 -0.468 -0.4095c -0.1625 0 -0.2405 0.117 -0.2405 0.351l 0.0195 0.2015c 0.0195 0.0845 0.0325 0.1625 0.0325 0.221c 0 0.4095 -0.3575 0.6435 -1.066 0.715c 0.1105 0.0715 0.273 0.195 0.481 0.3705c 0.325 0.2535 0.6825 0.559 1.066 0.559c 0.0715 0 0.13 -0.013 0.1755 -0.039c -0.2145 -0.0845 -0.3185 -0.221 -0.3185 -0.416c 0 -0.1755 0.143 -0.286 0.312 -0.286Z "/></symbol><symbol id="g761689E490812CEA84940060572FBDB5" overflow="visible"><path d="M 0 0m 1.8135 4.2315c 0 -0.0845 0.0845 -0.13 0.26 -0.13c 0.1755 0 0.3055 -0.013 0.39 -0.0325c 0 -0.0455 -0.0065 -0.091 -0.013 -0.1365l -0.845 -3.367c -0.0195 -0.0715 -0.039 -0.117 -0.0585 -0.143c -0.039 -0.0585 -0.195 -0.0845 -0.4615 -0.0845c -0.195 0 -0.299 -0.013 -0.299 -0.2015c 0 -0.091 0.078 -0.1365 0.2405 -0.1365h 2.8015c 0.455 0 0.9035 0.117 1.339 0.3445c 0.52 0.2795 0.78 0.624 0.78 1.04c 0 0.546 -0.572 0.845 -1.105 0.9425c 0.1755 0.0325 0.351 0.091 0.5265 0.1625c 0.39 0.1625 0.8775 0.52 0.8775 0.988c 0 0.325 -0.182 0.5785 -0.5525 0.754c -0.2925 0.1365 -0.6175 0.208 -0.988 0.208h -2.639c -0.182 0 -0.2535 -0.052 -0.2535 -0.208Z m 3.692 -0.7735c 0 -0.3185 -0.1885 -0.5785 -0.572 -0.7735c -0.3185 -0.1625 -0.65 -0.2405 -1.001 -0.2405h -1.183l 0.364 1.4625c 0.052 0.195 0.0455 0.195 0.299 0.195h 1.1765c 0.468 0 0.9165 -0.2145 0.9165 -0.6435Z m -0.312 -2.0475c 0 -0.3315 -0.182 -0.598 -0.546 -0.806c -0.3055 -0.1755 -0.637 -0.2665 -0.9945 -0.2665h -1.2415c -0.078 0 -0.1365 0.0065 -0.182 0.013c 0.0065 0.026 0.013 0.052 0.0195 0.0845l 0.429 1.7355h 1.5535c 0.5265 0 0.962 -0.26 0.962 -0.7605Z "/></symbol><symbol id="g6A6209D8BB3E9FEC75EAB6C5E85CC609" overflow="visible"><path d="M 0 0m 1.131 0.1365c 0 -0.091 0.052 -0.1365 0.156 -0.1365c 0.377 0 0.7865 0.0325 1.1895 0.026l 0.624 -0.0065c 0.0975 0 0.4745 -0.0195 0.5915 -0.0195c 0.13 0 0.195 0.0715 0.195 0.208c 0 0.1105 -0.091 0.13 -0.234 0.13h -0.1365c -0.2145 0 -0.3835 0.013 -0.507 0.0325c -0.0455 0.0065 -0.065 0.026 -0.065 0.0585c 0 0.0195 0.0065 0.065 0.0195 0.13l 0.832 3.2955c 0.052 0.2015 0.039 0.195 0.299 0.195h 0.689c 0.546 0 0.7865 -0.0715 0.7865 -0.572c 0 -0.026 -0.026 -0.3055 -0.052 -0.533c 0 -0.0975 0.052 -0.143 0.1625 -0.143c 0.0975 0 0.1495 0.0455 0.1625 0.1365l 0.169 1.209c 0.0065 0.0585 0.013 0.0975 0.013 0.104c 0 0.091 -0.078 0.1365 -0.2405 0.1365h -4.511c -0.1885 0 -0.195 -0.0065 -0.247 -0.1495l -0.429 -1.183l -0.039 -0.117c 0 -0.091 0.052 -0.1365 0.1625 -0.1365c 0.0455 0 0.078 0.0065 0.104 0.0195c 0.039 0.065 0.065 0.1235 0.0845 0.169c 0.1495 0.39 0.299 0.6565 0.4485 0.806c 0.169 0.169 0.4615 0.2535 0.884 0.2535h 0.6955c 0.078 0 0.1365 -0.0065 0.1755 -0.013l -0.858 -3.445c -0.0195 -0.078 -0.0455 -0.13 -0.065 -0.156c -0.0585 -0.065 -0.273 -0.0975 -0.6565 -0.0975h -0.143c -0.182 0 -0.26 -0.052 -0.26 -0.2015Z "/></symbol><symbol id="g4F4A543C48CF8402D9EEEC7880A7C7C3" overflow="visible"><path d="M 0 0m 9.36 8.489c 0.026 0.117 0.039 0.195 0.039 0.221c 0 0.117 -0.065 0.169 -0.208 0.169h -5.59c -0.325 0 -0.364 -0.039 -0.442 -0.299l -0.702 -2.301c -0.026 -0.065 -0.039 -0.143 -0.052 -0.208c 0.039 -0.104 0.065 -0.182 0.208 -0.182c 0.065 0 0.143 0.052 0.221 0.156c 0.273 0.845 0.637 1.456 1.092 1.807c 0.455 0.351 1.131 0.52 2.015 0.52h 1.976l -7.111 -7.943l -0.052 -0.26c 0 -0.117 0.078 -0.169 0.221 -0.169h 5.733c 0.338 0 0.377 0.026 0.455 0.299l 0.91 2.847c 0.013 0.052 0.052 0.143 0.052 0.195c 0 0.13 -0.078 0.195 -0.221 0.195c -0.091 0 -0.182 -0.117 -0.26 -0.364c -0.286 -0.884 -0.637 -1.534 -1.066 -1.95c -0.455 -0.455 -1.209 -0.676 -2.249 -0.676h -2.08Z "/></symbol><symbol id="g4511C92E9BF59263ADBD37DA8A7526D7" overflow="visible"><path d="M 0 0m 16.445 -5.85l 1.612 4.238h -0.442c -0.247 -0.65 -0.663 -1.196 -1.261 -1.638c -1.469 -1.092 -3.354 -1.378 -6.071 -1.378h -7.683l 6.5 7.644c 0.091 0.091 0.13 0.182 0.13 0.247l -6.058 8.359h 6.981c 2.457 0 4.498 -0.312 5.837 -1.17c 0.78 -0.494 1.326 -1.105 1.638 -1.833h 0.429l -1.612 3.731h -15.301c -0.234 0 -0.364 -0.039 -0.403 -0.117c -0.013 -0.039 -0.013 -0.195 -0.013 -0.468l 6.825 -9.334l -6.669 -7.826c -0.091 -0.104 -0.143 -0.195 -0.143 -0.26c 0 -0.13 0.13 -0.195 0.403 -0.195Z "/></symbol><symbol id="g98601464C894CB168BCFB296435320FA" overflow="visible"><path d="M 0 0m 3.9949 5.6511c 0 0.2184 -0.1729 0.3822 -0.3913 0.3822c -0.2639 0 -0.5369 -0.2639 -0.5369 -0.5278c 0 -0.2184 0.1729 -0.3822 0.3913 -0.3822c 0.273 0 0.5369 0.2548 0.5369 0.5278Z m -1.3195 -1.6198c -0.5096 0 -0.9555 -0.3367 -1.1921 -0.6552c -0.273 -0.3913 -0.4095 -0.6461 -0.4095 -0.7644c 0 -0.1001 0.0637 -0.1456 0.182 -0.1456c 0.091 0 0.1638 0.0637 0.2184 0.182c 0.1001 0.2184 0.2184 0.4095 0.3549 0.5824c 0.2639 0.3185 0.5369 0.4732 0.819 0.4732c 0.1729 0 0.2639 -0.1365 0.2639 -0.4004c 0 -0.1092 -0.0091 -0.2002 -0.0273 -0.2639l -0.8554 -3.4489c -0.1274 -0.5187 -0.5369 -1.1193 -1.1193 -1.1193c -0.0819 0 -0.1547 0.0091 -0.2275 0.0273c 0.1638 0.1001 0.2457 0.2548 0.2457 0.4459c 0 0.2457 -0.1274 0.3731 -0.3822 0.3731c -0.3094 0 -0.546 -0.2639 -0.546 -0.5733c 0 -0.4186 0.455 -0.6006 0.9191 -0.6006c 0.2093 0 0.4368 0.0364 0.6734 0.1183c 0.5642 0.1911 1.0738 0.728 1.2194 1.3377l 0.8099 3.2214c 0.0273 0.1183 0.0455 0.2275 0.0455 0.3276c 0 0.5278 -0.4641 0.8827 -0.9919 0.8827Z "/></symbol><symbol id="g8A9CF37D43F77C8B689949BB7A24BE1F" overflow="visible"><path d="M 0 0m 3.315 4.03c 0 0.1755 -0.13 0.3055 -0.3055 0.3055c -0.208 0 -0.4225 -0.2015 -0.4225 -0.4095c 0 -0.169 0.1365 -0.3055 0.3055 -0.3055c 0.2145 0 0.4225 0.195 0.4225 0.4095Z m -1.04 -1.144c -0.3705 0 -0.6825 -0.156 -0.936 -0.4615c -0.2275 -0.2665 -0.338 -0.455 -0.338 -0.5655c 0 -0.0715 0.052 -0.1105 0.1625 -0.1105c 0.0715 0 0.13 0.0325 0.1625 0.104c 0.2405 0.507 0.5525 0.7605 0.923 0.7605c 0.1625 0 0.2405 -0.104 0.2405 -0.312c 0 -0.0585 -0.0065 -0.117 -0.0195 -0.1625l -0.598 -2.4115c -0.104 -0.3835 -0.4355 -0.7865 -0.8905 -0.7865c -0.052 0 -0.104 0.0065 -0.1625 0.013c 0.104 0.0845 0.156 0.195 0.156 0.3315c 0 0.1755 -0.143 0.2925 -0.312 0.2925c -0.2275 0 -0.4225 -0.2145 -0.4225 -0.442c 0 -0.325 0.3705 -0.468 0.7475 -0.468c 0.1755 0 0.351 0.026 0.5395 0.0845c 0.442 0.13 0.8385 0.5135 0.949 0.962l 0.5785 2.301c 0.0195 0.0845 0.0325 0.1625 0.0325 0.221c 0 0.3965 -0.39 0.65 -0.8125 0.65Z "/></symbol></defs></svg>