<svg viewBox="0 0 184.087077778 38.038" width="184.087077778pt" height="38.038pt" xmlns="http://www.w3.org/2000/svg" xmlns:xlink="http://www.w3.org/1999/xlink" xmlns:h5="http://www.w3.org/1999/xhtml"><g transform="matrix(1 0 0 -1 6.5 22.009)"><use xlink:href="#gC8FE9299987BC399BCDE6DD4129703BD" x="0" y="0" fill="#e6edf3" fill-rule="nonzero"/></g><g transform="matrix(1 0 0 -1 20.355111111 22.009)"><use xlink:href="#g13AFF74D87C474CFAF661EEAD0458F8B" x="0" y="0" fill="#e6edf3" fill-rule="nonzero"/></g><g transform="matrix(1 0 0 -1 34.080222222 22.009)"><use xlink:href="#g9B543B57F718853EF8F95EF155B6CF69" x="0" y="0" fill="#e6edf3" fill-rule="nonzero"/></g><g transform="matrix(1 0 0 -1 45.494222222 13.208)"><use xlink:href="#gECD202B73668A69AC8A33649F9D5BDE0" x="0" y="0" fill="#e6edf3" fill-rule="nonzero"/></g><g transform="matrix(1 0 0 -1 55.382888889 13.208)"><use xlink:href="#gBC3D9C1A249D0D4F874E09900DF515A4" x="0" y="0" fill="#e6edf3" fill-rule="nonzero"/><use xlink:href="#gA2276AEFE9378953E87817A497BFC175" x="3.614" y="0" fill="#e6edf3" fill-rule="nonzero"/></g><g transform="matrix(1 0 0 -1 68.391555556 13.208)"><use xlink:href="#g4F4A543C48CF8402D9EEEC7880A7C7C3" x="0" y="0" fill="#e6edf3" fill-rule="nonzero"/></g><g transform="matrix(1 0 0 -1 54.050388889 30.927)"><use xlink:href="#gECD202B73668A69AC8A33649F9D5BDE0" x="0" y="0" fill="#e6edf3" fill-rule="nonzero"/></g><g transform="matrix(1 0 0 -1 61.772388889 30.927)"><use xlink:href="#g9CDF097AB5923513691DBE4A30B628B5" x="0" y="0" fill="#e6edf3" fill-rule="nonzero"/></g><path fill="none" stroke="#e6edf3" stroke-width="0.624" stroke-linecap="butt" stroke-linejoin="miter" stroke-miterlimit="4" transform="translate(45.494222222 18.759)" d="M 0 0h 32.660333333"/><g transform="matrix(1 0 0 -1 92.454555556 22.009)"><use xlink:href="#g8B273DA24598714A1DE03FD5302C001A" x="0" y="0" fill="#e6edf3" fill-rule="nonzero"/><use xlink:href="#g5D4DFCA3C00979A1E9076032CC813B65" x="5.772" y="0" fill="#e6edf3" fill-rule="nonzero"/><use xlink:href="#gA2276AEFE9378953E87817A497BFC175" x="12.272" y="0" fill="#e6edf3" fill-rule="nonzero"/></g><g transform="matrix(1 0 0 -1 124.954555556 22.009)"><use xlink:href="#g9CDF097AB5923513691DBE4A30B628B5" x="0" y="0" fill="#e6edf3" fill-rule="nonzero"/></g><g transform="matrix(1 0 0 -1 136.391666667 22.009)"><use xlink:href="#g13AFF74D87C474CFAF661EEAD0458F8B" x="0" y="0" fill="#e6edf3" fill-rule="nonzero"/></g><g transform="matrix(1 0 0 -1 160.601927778 13.208)"><use xlink:href="#g6B3DB0E0ADE6D994825CC39624067234" x="0" y="0" fill="#e6edf3" fill-rule="nonzero"/></g><g transform="matrix(1 0 0 -1 151.416777778 30.927)"><use xlink:href="#gCD18A55F4CC2CA429D96672C565B9565" x="0" y="0" fill="#e6edf3" fill-rule="nonzero"/></g><g transform="matrix(1 0 0 -1 158.189777778 34.138)"><use xlink:href="#gC7B20184179011BBC954B5E7CD84FB69" x="0" y="0" fill="#e6edf3" fill-rule="nonzero"/></g><g transform="matrix(1 0 0 -1 166.771077778 30.927)"><use xlink:href="#g2D1FD5FA7721AD843D67732819992226" x="0" y="0" fill="#e6edf3" fill-rule="nonzero"/></g><path fill="none" stroke="#e6edf3" stroke-width="0.624" stroke-linecap="butt" stroke-linejoin="miter" stroke-miterlimit="4" transform="translate(151.416777778 18.759)" d="M 0 0h 24.8703"/><defs><symbol id="gC8FE9299987BC399BCDE6DD4129703BD" overflow="visible"><path d="M 0 0m 8.346 8.84c -0.247 0 -1.079 0.039 -1.326 0.039c -0.195 0 -0.286 -0.104 -0.286 -0.312c 0 -0.117 0.091 -0.182 0.273 -0.195c 0.559 0 0.832 -0.169 0.832 -0.507c 0 -0.078 -0.013 -0.169 -0.039 -0.26l -1.157 -4.589c -0.195 -0.741 -0.572 -1.378 -1.131 -1.924c -0.611 -0.585 -1.287 -0.871 -2.015 -0.871c -0.962 0 -1.521 0.65 -1.521 1.612l 0.013 0.117c 0 0.247 0.039 0.533 0.13 0.871l 1.248 5.005c 0.065 0.273 0.182 0.442 0.351 0.507c 0.078 0.026 0.299 0.039 0.676 0.039c 0.338 0 0.481 0 0.481 0.312c 0 0.13 -0.078 0.195 -0.221 0.195l -1.651 -0.039l -1.651 0.039c -0.208 0 -0.299 -0.117 -0.299 -0.312c 0 -0.091 0.039 -0.156 0.104 -0.169c 0.13 -0.013 0.234 -0.026 0.299 -0.026c 0.403 -0.013 0.637 -0.039 0.702 -0.052c 0.065 -0.013 0.091 -0.052 0.091 -0.117c 0 -0.026 -0.013 -0.117 -0.052 -0.26l -1.235 -4.953c -0.065 -0.247 -0.091 -0.494 -0.091 -0.754c 0 -1.495 1.079 -2.522 2.574 -2.522c 0.845 0 1.625 0.325 2.34 0.988c 0.689 0.624 1.131 1.352 1.339 2.197l 1.144 4.563c 0.169 0.663 0.533 0.897 1.339 0.91c 0.182 0.013 0.273 0.117 0.273 0.312v 0.052c -0.039 0.091 -0.104 0.143 -0.221 0.143c -0.247 0 -1.066 -0.039 -1.313 -0.039Z "/></symbol><symbol id="g13AFF74D87C474CFAF661EEAD0458F8B" overflow="visible"><path d="M 0 0m 9.074 4.771h -8.034c -0.208 0 -0.312 -0.104 -0.312 -0.299c 0 -0.195 0.104 -0.299 0.312 -0.299h 8.034c 0.208 0 0.312 0.104 0.312 0.299c 0 0.156 -0.143 0.299 -0.312 0.299Z m 0 -2.444h -8.034c -0.208 0 -0.312 -0.104 -0.312 -0.299c 0 -0.195 0.104 -0.299 0.312 -0.299h 8.034c 0.208 0 0.312 0.104 0.312 0.299c 0 0.169 -0.143 0.299 -0.312 0.299Z "/></symbol><symbol id="g9B543B57F718853EF8F95EF155B6CF69" overflow="visible"><path d="M 0 0m 9.074 3.51h -8.034c -0.208 0 -0.312 -0.091 -0.312 -0.26c 0 -0.169 0.104 -0.26 0.312 -0.26h 8.034c 0.208 0 0.312 0.091 0.312 0.26c 0 0.156 -0.156 0.26 -0.312 0.26Z "/></symbol><symbol id="gECD202B73668A69AC8A33649F9D5BDE0" overflow="visible"><path d="M 0 0m 3.328 7.462c 0 0.299 -0.195 0.468 -0.572 0.494c 0.403 0.611 0.988 0.923 1.755 0.923c 1.196 0 1.781 -1.001 1.781 -2.275c 0 -0.533 -0.104 -1.183 -0.299 -1.976c -0.221 0.897 -0.78 1.352 -1.651 1.352c -1.001 0 -1.872 -0.416 -2.652 -1.222c -0.78 -0.806 -1.17 -1.703 -1.17 -2.704c 0 -0.481 0.169 -0.975 0.507 -1.469c 0.403 -0.585 1.027 -0.871 1.898 -0.871c 1.17 0 2.145 0.546 2.912 1.651c 0.728 1.066 1.521 2.912 1.521 4.563c 0 0.923 -0.234 1.703 -0.702 2.327c -0.507 0.702 -1.222 1.053 -2.119 1.053c -0.871 0 -1.521 -0.299 -1.963 -0.91c -0.351 -0.481 -0.533 -0.871 -0.533 -1.17c 0 -0.338 0.182 -0.507 0.546 -0.507c 0.39 0 0.741 0.351 0.741 0.741Z m 2.379 -3.523c 0 -0.819 -0.247 -1.625 -0.754 -2.418c -0.559 -0.897 -1.222 -1.339 -1.989 -1.339c -0.858 0 -1.352 0.559 -1.352 1.391c 0 0.364 0.091 0.871 0.273 1.521c 0.182 0.65 0.364 1.105 0.559 1.378c 0.52 0.741 1.157 1.118 1.898 1.118c 0.949 0 1.365 -0.702 1.365 -1.651Z "/></symbol><symbol id="gBC3D9C1A249D0D4F874E09900DF515A4" overflow="visible"><path d="M 0 0m 1.872 0.039l 1.443 -0.039v 0.507c -0.468 0 -0.754 0.013 -0.845 0.065c -0.091 0.052 -0.13 0.208 -0.13 0.455v 7.995l -1.911 -0.143v -0.494c 0.455 0 0.741 -0.039 0.832 -0.117c 0.091 -0.078 0.143 -0.26 0.143 -0.559v -6.682c 0 -0.247 -0.039 -0.403 -0.13 -0.455c -0.091 -0.052 -0.377 -0.065 -0.845 -0.065v -0.507Z "/></symbol><symbol id="gA2276AEFE9378953E87817A497BFC175" overflow="visible"><path d="M 0 0m 4.082 5.369c 0.585 0 0.884 -0.455 0.884 -1.378v -2.964c 0 -0.247 -0.039 -0.403 -0.13 -0.455c -0.091 -0.052 -0.377 -0.078 -0.858 -0.078v -0.494l 1.495 0.039l 1.482 -0.039v 0.494c -0.416 0 -0.689 0.013 -0.819 0.052c -0.13 0.039 -0.182 0.13 -0.182 0.286v 2.431c 0 0.611 -0.013 1.04 -0.052 1.287c -0.13 0.793 -0.715 1.196 -1.742 1.196c -0.819 0 -1.43 -0.39 -1.833 -1.17v 1.17l -1.911 -0.143v -0.494c 0.468 0 0.754 -0.039 0.858 -0.117c 0.104 -0.078 0.143 -0.247 0.143 -0.546v -3.419c 0 -0.247 -0.052 -0.403 -0.143 -0.455c -0.091 -0.052 -0.377 -0.078 -0.858 -0.078v -0.494l 1.495 0.039l 1.482 -0.039v 0.494c -0.481 0 -0.754 0.026 -0.845 0.078c -0.091 0.052 -0.143 0.208 -0.143 0.455v 2.34c 0 1.053 0.663 2.002 1.677 2.002Z "/></symbol><symbol id="g4F4A543C48CF8402D9EEEC7880A7C7C3" overflow="visible"><path d="M 0 0m 9.36 8.489c 0.026 0.117 0.039 0.195 0.039 0.221c 0 0.117 -0.065 0.169 -0.208 0.169h -5.59c -0.325 0 -0.364 -0.039 -0.442 -0.299l -0.702 -2.301c -0.026 -0.065 -0.039 -0.143 -0.052 -0.208c 0.039 -0.104 0.065 -0.182 0.208 -0.182c 0.065 0 0.143 0.052 0.221 0.156c 0.273 0.845 0.637 1.456 1.092 1.807c 0.455 0.351 1.131 0.52 2.015 0.52h 1.976l -7.111 -7.943l -0.052 -0.26c 0 -0.117 0.078 -0.169 0.221 -0.169h 5.733c 0.338 0 0.377 0.026 0.455 0.299l 0.91 2.847c 0.013 0.052 0.052 0.143 0.052 0.195c 0 0.13 -0.078 0.195 -0.221 0.195c -0.091 0 -0.182 -0.117 -0.26 -0.364c -0.286 -0.884 -0.637 -1.534 -1.066 -1.95c -0.455 -0.455 -1.209 -0.676 -2.249 -0.676h -2.08Z "/></symbol><symbol id="g9CDF097AB5923513691DBE4A30B628B5" overflow="visible"><path d="M 0 0m 5.551 9.178c -1.677 0 -2.795 -1.989 -3.185 -3.562l -1.976 -7.93c 0 -0.143 0.065 -0.208 0.182 -0.208h 0.065c 0.091 0 0.156 0.039 0.169 0.13l 0.832 3.354c 0.286 -0.754 0.845 -1.131 1.677 -1.131c 0.806 0 1.547 0.247 2.21 0.754c 0.923 0.689 1.391 1.586 1.391 2.665c 0 0.871 -0.299 1.521 -0.897 1.95c 0.741 0.455 1.209 1.04 1.378 1.742c 0.039 0.169 0.065 0.338 0.065 0.481c 0 1.079 -0.871 1.755 -1.911 1.755Z m -1.573 -3.991c 0.065 0.039 0.299 0.052 0.676 0.052c 0.091 0 0.169 -0.013 0.26 -0.026c -0.13 -0.026 -0.247 -0.039 -0.364 -0.039h -0.234c -0.143 0 -0.26 0 -0.338 0.013Z m -2.054 -3.393c 0 0.208 0.026 0.416 0.078 0.624l 0.767 3.12c 0.351 1.404 1.287 3.237 2.769 3.237c 0.741 0 1.105 -0.377 1.105 -1.118c 0 -0.182 -0.026 -0.39 -0.091 -0.637c -0.182 -0.728 -0.52 -1.248 -1.027 -1.547c -0.286 0.104 -0.572 0.156 -0.858 0.156c -0.572 0 -1.157 -0.013 -1.157 -0.481c 0 -0.091 0.039 -0.169 0.104 -0.221c 0.117 -0.091 0.416 -0.143 0.923 -0.143c 0.325 0 0.65 0.052 0.949 0.156c 0.351 -0.286 0.533 -0.728 0.533 -1.326c 0 -0.325 -0.052 -0.702 -0.156 -1.105c -0.299 -1.17 -1.183 -2.288 -2.535 -2.288c -0.884 0 -1.404 0.663 -1.404 1.573Z "/></symbol><symbol id="g8B273DA24598714A1DE03FD5302C001A" overflow="visible"><path d="M 0 0m 3.263 5.408c 0.546 0 0.962 -0.13 1.248 -0.39c -0.312 -0.039 -0.533 -0.325 -0.533 -0.624c 0 -0.429 0.208 -0.637 0.637 -0.637c 0.429 0 0.637 0.221 0.637 0.65c 0 0.923 -1.001 1.417 -2.002 1.417c -0.806 0 -1.469 -0.286 -2.002 -0.884c -0.533 -0.598 -0.806 -1.313 -0.806 -2.132c 0 -0.793 0.273 -1.495 0.806 -2.08c 0.533 -0.585 1.183 -0.871 1.976 -0.871c 0.65 0 1.157 0.182 1.521 0.559c 0.299 0.299 0.494 0.598 0.598 0.91c 0.039 0.117 0.052 0.195 0.052 0.247c 0 0.117 -0.078 0.169 -0.221 0.169c -0.104 0 -0.169 -0.052 -0.208 -0.156c -0.273 -0.871 -0.806 -1.313 -1.625 -1.313c -0.377 0 -0.741 0.169 -1.105 0.52c -0.429 0.403 -0.637 1.079 -0.637 2.041c 0 1.3 0.494 2.574 1.664 2.574Z "/></symbol><symbol id="g5D4DFCA3C00979A1E9076032CC813B65" overflow="visible"><path d="M 0 0m 3.237 -0.143c 0.806 0 1.482 0.286 2.041 0.858c 0.559 0.572 0.845 1.261 0.845 2.067c 0 0.819 -0.273 1.534 -0.819 2.132c -0.546 0.598 -1.235 0.91 -2.054 0.91c -0.819 0 -1.495 -0.312 -2.054 -0.91c -0.559 -0.598 -0.832 -1.313 -0.832 -2.132c 0 -0.806 0.273 -1.495 0.832 -2.067c 0.559 -0.572 1.248 -0.858 2.041 -0.858Z m 0.013 0.416c -0.624 0 -1.092 0.273 -1.417 0.832c -0.208 0.364 -0.312 0.962 -0.312 1.781c 0 0.793 0.104 1.365 0.299 1.729c 0.312 0.559 0.78 0.832 1.417 0.832c 0.611 0 1.079 -0.273 1.404 -0.806c 0.221 -0.364 0.325 -0.949 0.325 -1.755c 0 -1.508 -0.442 -2.613 -1.716 -2.613Z "/></symbol><symbol id="g6B3DB0E0ADE6D994825CC39624067234" overflow="visible"><path d="M 0 0m 3.497 8.658c -0.533 -0.546 -1.313 -0.819 -2.34 -0.819v -0.507c 0.676 0 1.235 0.104 1.664 0.312v -6.578c 0 -0.234 -0.052 -0.39 -0.169 -0.455c -0.117 -0.065 -0.442 -0.104 -0.962 -0.104h -0.455v -0.507c 0.325 0.026 1.027 0.039 2.106 0.039c 1.079 0 1.781 -0.013 2.106 -0.039v 0.507h -0.455c -0.533 0 -0.858 0.039 -0.962 0.104c -0.104 0.065 -0.169 0.221 -0.169 0.455v 7.202c 0 0.312 -0.026 0.39 -0.364 0.39Z "/></symbol><symbol id="gCD18A55F4CC2CA429D96672C565B9565" overflow="visible"><path d="M 0 0m 5.317 4.589c 0 -0.338 0.182 -0.507 0.533 -0.507c 0.455 0 0.754 0.403 0.754 0.845c 0 0.507 -0.416 0.858 -0.923 0.858c -0.585 0 -1.209 -0.39 -1.898 -1.157c -0.533 -0.585 -0.962 -0.962 -1.313 -1.131l 1.313 5.33c -0.026 0.117 -0.052 0.195 -0.221 0.195c -0.416 0 -1.404 -0.117 -1.56 -0.13c -0.195 -0.026 -0.286 -0.117 -0.286 -0.312c 0 -0.13 0.117 -0.195 0.351 -0.195c 0.247 0 0.585 0.013 0.585 -0.169l -1.885 -7.657c -0.039 -0.143 -0.052 -0.234 -0.052 -0.286c 0 -0.273 0.143 -0.416 0.416 -0.416c 0.221 0 0.39 0.104 0.481 0.299c 0.065 0.117 0.299 1.04 0.715 2.782c 0.676 -0.065 1.391 -0.39 1.391 -1.04c 0 -0.195 -0.091 -0.585 -0.091 -0.715c 0 -0.741 0.481 -1.326 1.222 -1.326c 0.754 0 1.261 0.676 1.521 2.028c 0 0.117 -0.065 0.182 -0.195 0.182c -0.117 0 -0.195 -0.091 -0.234 -0.273c -0.286 -1.027 -0.637 -1.547 -1.066 -1.547c -0.234 0 -0.351 0.182 -0.351 0.546c 0 0.208 0.156 0.91 0.156 1.118c 0 0.741 -0.598 1.196 -1.807 1.378c 0.299 0.208 0.637 0.507 1.001 0.897c 0.364 0.39 0.624 0.637 0.793 0.78c 0.351 0.286 0.689 0.429 0.988 0.429c 0.13 0 0.234 -0.026 0.312 -0.078c -0.351 -0.065 -0.65 -0.39 -0.65 -0.728Z "/></symbol><symbol id="gC7B20184179011BBC954B5E7CD84FB69" overflow="visible"><path d="M 0 0m 7.6167 4.9049c 0 0.4368 -0.2184 0.7735 -0.6552 1.0101c -0.3549 0.2002 -0.7735 0.3003 -1.2467 0.3003h -3.276c -0.2093 0 -0.3276 -0.0273 -0.3276 -0.2366c 0 -0.1001 0.0637 -0.1456 0.1911 -0.1547l 0.4732 -0.0182c 0.1183 -0.0091 0.1729 0 0.1729 -0.091l -1.2285 -4.9686c -0.0455 -0.182 -0.1365 -0.2912 -0.273 -0.3367c -0.0455 -0.0091 -0.2002 -0.0182 -0.4823 -0.0182h -0.1547c -0.1001 -0.0091 -0.1547 -0.0819 -0.1547 -0.2184c 0 -0.1547 0.1183 -0.1729 0.3094 -0.1729h 3.4853c 0.6097 0 1.1921 0.1729 1.7472 0.5096c 0.6461 0.3913 0.9646 0.8736 0.9646 1.4469c 0 0.728 -0.6916 1.1739 -1.3741 1.3013c 0.8099 0.182 1.8291 0.7826 1.8291 1.6471Z m -0.9555 0.0091c 0 -0.455 -0.2275 -0.8281 -0.6734 -1.1284c -0.4004 -0.2639 -0.8372 -0.3913 -1.3195 -0.3913h -1.4287l 0.5369 2.1476c 0.0728 0.273 0.0728 0.2821 0.4277 0.2821h 1.365c 0.6279 0 1.092 -0.3185 1.092 -0.91Z m -0.4823 -2.8938c 0 -0.4732 -0.2184 -0.8736 -0.6461 -1.1921c -0.3913 -0.2912 -0.8281 -0.4368 -1.3195 -0.4368h -1.4469c -0.1729 0 -0.2548 -0.0182 -0.2548 0.0546l 0.6461 2.6208h 1.8837c 0.6643 0 1.1375 -0.3822 1.1375 -1.0465Z "/></symbol><symbol id="g2D1FD5FA7721AD843D67732819992226" overflow="visible"><path d="M 0 0m 4.472 8.203c 0 -0.039 -0.013 -0.13 -0.052 -0.26l -1.716 -6.864c -0.052 -0.195 -0.104 -0.312 -0.143 -0.364c -0.117 -0.143 -0.559 -0.208 -1.339 -0.208c -0.403 0 -0.585 0.039 -0.585 -0.299c 0 -0.143 0.091 -0.208 0.26 -0.208c 0.663 0 1.599 0.052 2.158 0.039l 1.066 -0.013c 0.182 0 0.897 -0.026 1.118 -0.026c 0.221 0 0.325 0.104 0.325 0.312c 0 0.13 -0.156 0.195 -0.481 0.195c -0.676 0 -1.066 0.026 -1.183 0.091c -0.039 0.026 -0.065 0.078 -0.065 0.156l 1.755 7.085c 0.039 0.182 0.078 0.299 0.117 0.338c 0.052 0.078 0.364 0.117 0.936 0.117c 0.715 0 1.209 -0.052 1.456 -0.169c 0.247 -0.117 0.377 -0.39 0.377 -0.832c 0 -0.234 -0.039 -0.572 -0.104 -1.014c -0.026 -0.104 -0.039 -0.182 -0.039 -0.247c 0 -0.143 0.065 -0.221 0.208 -0.221c 0.117 0 0.195 0.117 0.234 0.338l 0.351 2.236c 0.013 0.065 0.026 0.143 0.026 0.221c 0 0.13 -0.13 0.195 -0.403 0.195h -7.124c -0.338 0 -0.364 -0.039 -0.468 -0.286l -0.767 -2.262c -0.039 -0.117 -0.065 -0.195 -0.078 -0.247c 0 -0.13 0.065 -0.195 0.208 -0.195c 0.104 0 0.195 0.104 0.26 0.299c 0.325 0.949 0.65 1.534 0.949 1.781c 0.338 0.273 0.988 0.403 1.937 0.403h 0.507c 0.143 0 0.299 0.013 0.299 -0.091Z "/></symbol></defs></svg>