<svg viewBox="0 0 278.074333333 16.679" width="278.074333333pt" height="16.679pt" xmlns="http://www.w3.org/2000/svg" xmlns:xlink="http://www.w3.org/1999/xlink" xmlns:h5="http://www.w3.org/1999/xhtml"><g transform="matrix(1 0 0 -1 6.5 12.779)"><use xlink:href="#g1BB2B5D3B118FC32761E8AAB6F68EABA" x="0" y="0" fill="#e6edf3" fill-rule="nonzero"/></g><g transform="matrix(1 0 0 -1 16.484 9.789)"><use xlink:href="#g37D7AF847EB8D066970F2B84C26D7F75" x="0" y="0" fill="#e6edf3" fill-rule="nonzero"/></g><g transform="matrix(1 0 0 -1 20.212111111 12.779)"><use xlink:href="#g13AFF74D87C474CFAF661EEAD0458F8B" x="0" y="0" fill="#e6edf3" fill-rule="nonzero"/></g><g transform="matrix(1 0 0 -1 33.937222222 12.7725)"><use xlink:href="#g76DBD581143076F3713CF567FD1C6AB1" x="0" y="0" fill="#e6edf3" fill-rule="nonzero"/></g><g transform="matrix(1 0 0 -1 44.748888889 12.779)"><use xlink:href="#g115DED64194A3B9D1CA25A004CD4734D" x="0" y="0" fill="#e6edf3" fill-rule="nonzero"/></g><g transform="matrix(1 0 0 -1 51.573888889 12.779)"><use xlink:href="#g6BCCDCE0D843C0F823A4CE121D6D1649" x="0" y="0" fill="#e6edf3" fill-rule="nonzero"/></g><g transform="matrix(1 0 0 -1 58.645888889 12.779)"><use xlink:href="#gC5BCEC683611E6E5671ABF17CB821529" x="0" y="0" fill="#e6edf3" fill-rule="nonzero"/></g><g transform="matrix(1 0 0 -1 66.107888889 9.464)"><use xlink:href="#g37D7AF847EB8D066970F2B84C26D7F75" x="0" y="0" fill="#e6edf3" fill-rule="nonzero"/></g><g transform="matrix(1 0 0 -1 67.072777778 12.779)"><use xlink:href="#g596E6AE655F7C550875F3D7A9A58D2C7" x="0" y="0" fill="#e6edf3" fill-rule="nonzero"/></g><g transform="matrix(1 0 0 -1 80.075666667 12.779)"><use xlink:href="#gCC416E75927AD0A8099D8AB0ED7855DE" x="0" y="0" fill="#e6edf3" fill-rule="nonzero"/></g><g transform="matrix(1 0 0 -1 89.929666667 9.75)"><use xlink:href="#g37D7AF847EB8D066970F2B84C26D7F75" x="0" y="0" fill="#e6edf3" fill-rule="nonzero"/></g><g transform="matrix(1 0 0 -1 93.878777778 12.779)"><use xlink:href="#g13AFF74D87C474CFAF661EEAD0458F8B" x="0" y="0" fill="#e6edf3" fill-rule="nonzero"/></g><g transform="matrix(1 0 0 -1 107.603888889 12.7725)"><use xlink:href="#gBBFCE71D0E27F5D17C3692836540D297" x="0" y="0" fill="#e6edf3" fill-rule="nonzero"/></g><g transform="matrix(1 0 0 -1 123.225555556 12.779)"><use xlink:href="#g40250C3693DC0DFD75B60E230F9F53E2" x="0" y="0" fill="#e6edf3" fill-rule="nonzero"/></g><g transform="matrix(1 0 0 -1 126.027055556 9.737)"><use xlink:href="#g57F18D900CF55D9A01A5ED40C5665877" x="0" y="0" fill="#e6edf3" fill-rule="nonzero"/></g><g transform="matrix(1 0 0 -1 138.035444444 12.779)"><use xlink:href="#g596E6AE655F7C550875F3D7A9A58D2C7" x="0" y="0" fill="#e6edf3" fill-rule="nonzero"/></g><g transform="matrix(1 0 0 -1 151.038333333 12.779)"><use xlink:href="#gCC416E75927AD0A8099D8AB0ED7855DE" x="0" y="0" fill="#e6edf3" fill-rule="nonzero"/></g><g transform="matrix(1 0 0 -1 160.892333333 9.75)"><use xlink:href="#g37D7AF847EB8D066970F2B84C26D7F75" x="0" y="0" fill="#e6edf3" fill-rule="nonzero"/></g><g transform="matrix(1 0 0 -1 163.397 12.779)"><use xlink:href="#gEB9B079EF07FFCCA69ED7A9B1F1ABEB" x="0" y="0" fill="#e6edf3" fill-rule="nonzero"/></g><g transform="matrix(1 0 0 -1 170.625 12.779)"><use xlink:href="#g7FCD119A4094BE7F1574F3E8F3A7E7BD" x="0" y="0" fill="#e6edf3" fill-rule="nonzero"/></g><g transform="matrix(1 0 0 -1 182.985111111 12.779)"><use xlink:href="#g13AFF74D87C474CFAF661EEAD0458F8B" x="0" y="0" fill="#e6edf3" fill-rule="nonzero"/></g><g transform="matrix(1 0 0 -1 196.710222222 12.7725)"><use xlink:href="#gC6A8D9DAD1B870490CB8C05EF7C79E9C" x="0" y="0" fill="#e6edf3" fill-rule="nonzero"/></g><g transform="matrix(1 0 0 -1 217.141888889 12.779)"><use xlink:href="#g189FA6B14367511FDCFA4F03054D17B0" x="0" y="0" fill="#e6edf3" fill-rule="nonzero"/></g><g transform="matrix(1 0 0 -1 226.904888889 9.75)"><use xlink:href="#g37D7AF847EB8D066970F2B84C26D7F75" x="0" y="0" fill="#e6edf3" fill-rule="nonzero"/></g><g transform="matrix(1 0 0 -1 228.623777778 12.779)"><use xlink:href="#g596E6AE655F7C550875F3D7A9A58D2C7" x="0" y="0" fill="#e6edf3" fill-rule="nonzero"/></g><g transform="matrix(1 0 0 -1 241.626666667 12.779)"><use xlink:href="#gCC416E75927AD0A8099D8AB0ED7855DE" x="0" y="0" fill="#e6edf3" fill-rule="nonzero"/></g><g transform="matrix(1 0 0 -1 251.480666667 9.75)"><use xlink:href="#g37D7AF847EB8D066970F2B84C26D7F75" x="0" y="0" fill="#e6edf3" fill-rule="nonzero"/></g><g transform="matrix(1 0 0 -1 253.985333333 12.779)"><use xlink:href="#gEB9B079EF07FFCCA69ED7A9B1F1ABEB" x="0" y="0" fill="#e6edf3" fill-rule="nonzero"/></g><g transform="matrix(1 0 0 -1 261.213333333 12.779)"><use xlink:href="#g53251C539233983FE9FC826CA7FBAC4A" x="0" y="0" fill="#e6edf3" fill-rule="nonzero"/></g><defs><symbol id="g1BB2B5D3B118FC32761E8AAB6F68EABA" overflow="visible"><path d="M 0 0m 2.587 8.528c 0 -0.13 0.143 -0.195 0.416 -0.195c 0.52 0 0.78 -0.052 0.78 -0.169c 0 -0.039 -0.026 -0.13 -0.065 -0.299l -1.69 -6.799c -0.078 -0.286 -0.208 -0.455 -0.39 -0.52c -0.091 -0.026 -0.325 -0.039 -0.728 -0.039c -0.286 0 -0.416 -0.026 -0.416 -0.299c 0 -0.143 0.078 -0.208 0.247 -0.208l 1.69 0.039l 1.924 -0.039c 0.208 0 0.312 0.104 0.312 0.299c 0 0.221 -0.143 0.208 -0.481 0.208c -0.572 0 -0.897 0.026 -0.975 0.091c -0.039 0.013 -0.052 0.065 -0.052 0.13l 0.832 3.445h 1.209c 0.598 0 1.014 -0.026 1.014 -0.52c 0 -0.169 -0.026 -0.377 -0.091 -0.624c -0.013 -0.039 -0.026 -0.091 -0.039 -0.143c 0 -0.143 0.065 -0.208 0.208 -0.208c 0.065 0.013 0.156 0.104 0.247 0.299l 0.702 2.795c 0.026 0.104 0.039 0.182 0.039 0.221c -0.039 0.117 -0.117 0.182 -0.208 0.182c -0.104 0 -0.182 -0.104 -0.234 -0.299c -0.13 -0.494 -0.312 -0.806 -0.52 -0.962c -0.208 -0.156 -0.572 -0.234 -1.092 -0.234h -1.105l 0.806 3.198c 0.104 0.442 0.104 0.455 0.65 0.455h 1.69c 1.261 0 1.833 -0.195 1.833 -1.352c 0 -0.26 -0.013 -0.494 -0.039 -0.689c -0.013 -0.143 -0.026 -0.221 -0.026 -0.234c 0 -0.143 0.065 -0.208 0.195 -0.208c 0.13 0 0.208 0.117 0.234 0.364l 0.26 2.223c 0.039 0.364 -0.052 0.403 -0.403 0.403h -6.292c -0.299 0 -0.442 -0.013 -0.442 -0.312Z "/></symbol><symbol id="g37D7AF847EB8D066970F2B84C26D7F75" overflow="visible"><path d="M 0 0m -0.897 7.787c 0.117 0.039 0.169 0.104 0.169 0.221c 0 0.117 -0.052 0.182 -0.169 0.221c -0.468 0.156 -0.806 0.442 -1.014 0.871c -0.039 0.091 -0.117 0.143 -0.208 0.143c -0.169 0 -0.247 -0.078 -0.247 -0.234c 0 -0.195 0.169 -0.455 0.507 -0.767h -4.03c -0.169 0 -0.247 -0.078 -0.247 -0.234c 0 -0.156 0.078 -0.234 0.247 -0.234h 4.03c -0.338 -0.312 -0.507 -0.572 -0.507 -0.767c 0 -0.156 0.078 -0.234 0.247 -0.234c 0.091 0 0.169 0.052 0.208 0.143c 0.208 0.429 0.546 0.715 1.014 0.871Z "/></symbol><symbol id="g13AFF74D87C474CFAF661EEAD0458F8B" overflow="visible"><path d="M 0 0m 9.074 4.771h -8.034c -0.208 0 -0.312 -0.104 -0.312 -0.299c 0 -0.195 0.104 -0.299 0.312 -0.299h 8.034c 0.208 0 0.312 0.104 0.312 0.299c 0 0.156 -0.143 0.299 -0.312 0.299Z m 0 -2.444h -8.034c -0.208 0 -0.312 -0.104 -0.312 -0.299c 0 -0.195 0.104 -0.299 0.312 -0.299h 8.034c 0.208 0 0.312 0.104 0.312 0.299c 0 0.169 -0.143 0.299 -0.312 0.299Z "/></symbol><symbol id="g76DBD581143076F3713CF567FD1C6AB1" overflow="visible"><path d="M 0 0m 6.461 10.465c -0.988 0 -1.651 -0.754 -1.989 -2.275c -0.052 -0.221 -0.117 -0.676 -0.208 -1.352l -0.169 -1.313c -0.182 -1.456 -0.299 -2.535 -0.351 -3.25l -0.247 -3.211c -0.091 -1.261 -0.299 -2.652 -1.313 -2.652c -0.273 0 -0.507 0.065 -0.702 0.195c 0.273 0.078 0.416 0.26 0.416 0.546c 0 0.351 -0.234 0.598 -0.585 0.598c -0.39 0 -0.585 -0.208 -0.585 -0.611c 0 -0.689 0.715 -1.118 1.456 -1.118c 1.053 0 1.781 0.78 2.171 2.327c 0.273 1.092 0.52 3.042 0.728 5.863l 0.247 3.211c 0.052 0.741 0.143 1.326 0.26 1.742c 0.169 0.546 0.286 0.91 0.884 0.91c 0.273 0 0.507 -0.065 0.689 -0.195c -0.273 -0.078 -0.416 -0.26 -0.416 -0.546c 0 -0.351 0.234 -0.598 0.585 -0.598c 0.39 0 0.585 0.208 0.585 0.611c 0 0.689 -0.715 1.118 -1.456 1.118Z "/></symbol><symbol id="g115DED64194A3B9D1CA25A004CD4734D" overflow="visible"><path d="M 0 0m 6.461 8.671c 0 0.143 -0.078 0.208 -0.247 0.208l -1.677 -0.039l -1.703 0.039c -0.208 0.013 -0.312 -0.091 -0.312 -0.312c 0 -0.13 0.143 -0.195 0.416 -0.195c 0.559 0 0.832 -0.065 0.832 -0.182c 0 -0.065 -0.013 -0.13 -0.026 -0.195l -1.729 -6.929c -0.065 -0.286 -0.195 -0.455 -0.39 -0.52c -0.091 -0.026 -0.325 -0.039 -0.728 -0.039c -0.325 0 -0.455 -0.013 -0.455 -0.312c 0 -0.13 0.078 -0.195 0.247 -0.195l 1.664 0.039l 1.716 -0.039c 0.208 -0.013 0.312 0.091 0.312 0.299c 0 0.208 -0.156 0.208 -0.442 0.208c -0.507 0 -0.819 -0.026 -0.819 0.182c 0 0.065 0.013 0.156 0.052 0.286l 1.716 6.851c 0.065 0.273 0.195 0.442 0.39 0.507c 0.091 0.026 0.325 0.039 0.728 0.039c 0.312 0 0.455 0.013 0.455 0.299Z "/></symbol><symbol id="g6BCCDCE0D843C0F823A4CE121D6D1649" overflow="visible"><path d="M 0 0m 5.577 8.216l -0.767 -3.159c -0.273 0.481 -0.65 0.728 -1.157 0.728c -0.845 0 -1.586 -0.429 -2.236 -1.3c -0.598 -0.806 -0.897 -1.651 -0.897 -2.522c 0 -1.144 0.663 -2.106 1.755 -2.106c 0.559 0 1.105 0.299 1.625 0.91c 0.143 -0.494 0.585 -0.91 1.196 -0.91c 0.897 0 1.183 1.066 1.378 2.028c 0 0.117 -0.065 0.182 -0.195 0.182c -0.117 0 -0.195 -0.091 -0.234 -0.273c -0.26 -1.027 -0.572 -1.547 -0.923 -1.547c -0.221 0 -0.338 0.182 -0.338 0.533c 0 0.195 0.026 0.403 0.078 0.611l 1.846 7.436v 0.052c -0.039 0.091 -0.117 0.143 -0.221 0.143c -0.299 0 -0.845 -0.052 -1.625 -0.143c -0.143 -0.013 -0.221 -0.117 -0.221 -0.299c 0 -0.13 0.117 -0.195 0.351 -0.195c 0.247 0 0.585 0.013 0.585 -0.169Z m -1.144 -3.328c 0.13 -0.273 0.195 -0.455 0.195 -0.572c -0.013 -0.052 -0.026 -0.117 -0.039 -0.208l -0.637 -2.522c -0.039 -0.143 -0.13 -0.299 -0.247 -0.455c -0.481 -0.585 -0.949 -0.884 -1.404 -0.884c -0.507 0 -0.767 0.39 -0.767 1.157c 0 0.312 0.078 0.78 0.234 1.404c 0.273 1.105 0.663 1.859 1.144 2.262c 0.26 0.221 0.507 0.325 0.754 0.325c 0.351 0 0.611 -0.169 0.767 -0.507Z "/></symbol><symbol id="gC5BCEC683611E6E5671ABF17CB821529" overflow="visible"><path d="M 0 0m 4.121 5.096c 0.702 1.053 1.053 2.067 1.053 3.016c 0 0.702 -0.273 1.053 -0.806 1.053c -0.507 0 -0.988 -0.377 -1.469 -1.144c -0.299 -0.481 -0.533 -0.91 -0.702 -1.3c -0.676 -1.547 -1.014 -3.029 -1.014 -4.433l -0.962 -0.936c -0.052 -0.065 -0.078 -0.117 -0.078 -0.156c 0 -0.143 0.065 -0.221 0.208 -0.221c 0.052 0 0.338 0.26 0.871 0.78c 0.182 -1.274 0.676 -1.911 1.469 -1.911c 0.481 0 1.066 0.299 1.742 0.91c 0.208 0.182 0.312 0.312 0.312 0.39c 0 0.143 -0.065 0.208 -0.208 0.208c -0.039 0 -0.104 -0.039 -0.195 -0.13c -0.676 -0.663 -1.222 -0.988 -1.625 -0.988c -0.481 0 -0.728 0.533 -0.728 1.612c 0 0.78 -0.013 0.689 0.325 1.027c 0.637 0.637 1.248 1.378 1.807 2.223Z m 0.26 3.679c 0.26 0 0.39 -0.208 0.39 -0.611c 0 -1.391 -0.871 -3.016 -2.626 -4.888c 0.182 1.027 0.832 3.419 1.261 4.329c 0.377 0.78 0.702 1.17 0.975 1.17Z "/></symbol><symbol id="g596E6AE655F7C550875F3D7A9A58D2C7" overflow="visible"><path d="M 0 0m 8.19 0.416c 0 0.091 -0.026 0.156 -0.091 0.221l -2.613 2.613l 2.613 2.613c 0.065 0.065 0.091 0.13 0.091 0.221c 0 0.169 -0.13 0.299 -0.299 0.299c -0.091 0 -0.156 -0.026 -0.221 -0.091l -2.613 -2.613l -2.613 2.613c -0.065 0.065 -0.13 0.091 -0.221 0.091c -0.169 0 -0.299 -0.13 -0.299 -0.299c 0 -0.091 0.026 -0.156 0.091 -0.221l 2.613 -2.613l -2.613 -2.613c -0.065 -0.065 -0.091 -0.13 -0.091 -0.221c 0 -0.169 0.13 -0.299 0.299 -0.299c 0.091 0 0.156 0.026 0.221 0.091l 2.613 2.613l 2.613 -2.613c 0.065 -0.065 0.13 -0.091 0.221 -0.091c 0.169 0 0.299 0.13 0.299 0.299Z "/></symbol><symbol id="gCC416E75927AD0A8099D8AB0ED7855DE" overflow="visible"><path d="M 0 0m 9.828 7.059c 0 1.183 -1.17 1.82 -2.444 1.82h -4.316c -0.299 0 -0.429 -0.013 -0.429 -0.312c 0 -0.208 0.26 -0.195 0.416 -0.195c 0.39 -0.013 0.624 -0.039 0.689 -0.052c 0.065 -0.013 0.091 -0.052 0.091 -0.117c 0 -0.026 -0.013 -0.104 -0.052 -0.234l -1.716 -6.903c -0.065 -0.286 -0.195 -0.455 -0.39 -0.52c -0.091 -0.026 -0.325 -0.039 -0.728 -0.039c -0.273 0 -0.403 -0.104 -0.403 -0.312c 0 -0.13 0.13 -0.195 0.403 -0.195h 4.589c 0.845 0 1.625 0.26 2.366 0.767c 0.819 0.559 1.235 1.248 1.235 2.054c 0 1.027 -0.845 1.651 -1.768 1.833c 1.144 0.273 2.457 1.144 2.457 2.405Z m -2.626 1.313c 0.897 0 1.352 -0.416 1.352 -1.261c 0 -0.663 -0.26 -1.209 -0.806 -1.651c -0.546 -0.442 -1.157 -0.65 -1.82 -0.65h -1.807l 0.78 3.12c 0.104 0.442 0.104 0.442 0.65 0.442Z m 0.364 -4.485c 0.182 -0.299 0.273 -0.598 0.273 -0.923c 0 -0.676 -0.26 -1.261 -0.793 -1.742c -0.533 -0.481 -1.131 -0.715 -1.82 -0.715h -1.755c -0.13 0 -0.221 0 -0.273 0.013c -0.078 0 -0.117 0.026 -0.117 0.065c 0 0.013 0 0.052 0.013 0.104c 0.403 1.651 0.715 2.899 0.923 3.731h 2.392c 0.559 0 0.936 -0.182 1.157 -0.533Z "/></symbol><symbol id="gBBFCE71D0E27F5D17C3692836540D297" overflow="visible"><path d="M 0 0m 11.258 10.465c -1.001 0 -1.664 -0.754 -2.002 -2.275c -0.052 -0.234 -0.13 -0.715 -0.221 -1.43l -0.156 -1.235c -0.182 -1.456 -0.299 -2.535 -0.351 -3.25l -0.247 -3.211c -0.091 -1.261 -0.299 -2.652 -1.313 -2.652c -0.286 0 -0.52 0.065 -0.715 0.195c 0.273 0.078 0.416 0.26 0.416 0.546c 0 0.351 -0.234 0.598 -0.585 0.598c -0.39 0 -0.585 -0.208 -0.585 -0.611c 0 -0.702 0.728 -1.118 1.469 -1.118c 1.053 0 1.781 0.78 2.171 2.327c 0.273 1.092 0.52 3.042 0.741 5.863l 0.247 3.211c 0.052 0.741 0.143 1.326 0.26 1.742c 0.169 0.559 0.286 0.91 0.884 0.91c 0.273 0 0.507 -0.065 0.689 -0.195c -0.273 -0.078 -0.403 -0.26 -0.403 -0.546c 0 -0.338 0.234 -0.598 0.572 -0.598c 0.403 0 0.598 0.208 0.598 0.611c 0 0.702 -0.728 1.118 -1.469 1.118Z m -4.771 0c -1.001 0 -1.664 -0.754 -1.989 -2.275c -0.052 -0.234 -0.13 -0.715 -0.221 -1.43l -0.169 -1.235c -0.182 -1.456 -0.299 -2.535 -0.351 -3.25l -0.247 -3.211c -0.091 -1.261 -0.299 -2.652 -1.313 -2.652c -0.273 0 -0.507 0.065 -0.702 0.195c 0.273 0.078 0.403 0.26 0.403 0.546c 0 0.338 -0.234 0.598 -0.572 0.598c -0.403 0 -0.598 -0.208 -0.598 -0.611c 0 -0.702 0.728 -1.118 1.469 -1.118c 1.053 0 1.781 0.78 2.171 2.327c 0.273 1.092 0.52 3.042 0.741 5.863l 0.247 3.211c 0.052 0.741 0.143 1.326 0.273 1.742c 0.143 0.546 0.286 0.91 0.871 0.91c 0.273 0 0.507 -0.065 0.702 -0.195c -0.273 -0.078 -0.416 -0.26 -0.416 -0.546c 0 -0.351 0.234 -0.598 0.585 -0.598c 0.39 0 0.585 0.208 0.585 0.611c 0 0.702 -0.728 1.118 -1.469 1.118Z "/></symbol><symbol id="g40250C3693DC0DFD75B60E230F9F53E2" overflow="visible"><path d="M 0 0m 10.452 8.84c -0.273 0 -1.157 0.039 -1.43 0.039c -0.195 0 -0.299 -0.104 -0.299 -0.312c 0 -0.104 0.091 -0.169 0.273 -0.208c 0.182 -0.039 0.286 -0.104 0.286 -0.195c 0 -0.143 -0.143 -0.338 -0.442 -0.559l -4.914 -3.757l 1.001 3.978c 0.065 0.273 0.182 0.442 0.351 0.507c 0.078 0.026 0.299 0.039 0.676 0.039c 0.338 0 0.494 0 0.494 0.312c 0 0.13 -0.078 0.195 -0.234 0.195l -1.651 -0.039l -1.664 0.039c -0.208 0.013 -0.312 -0.091 -0.312 -0.299c 0 -0.143 0.143 -0.208 0.429 -0.208c 0.26 0 0.793 0.039 0.793 -0.169c 0 -0.026 -0.013 -0.104 -0.052 -0.234l -1.729 -6.903c -0.065 -0.286 -0.195 -0.455 -0.39 -0.52c -0.091 -0.026 -0.325 -0.039 -0.728 -0.039c -0.286 0 -0.416 -0.026 -0.416 -0.299c 0 -0.143 0.078 -0.208 0.247 -0.208l 1.638 0.039l 0.819 -0.013c 0.143 0 0.689 -0.026 0.832 -0.026c 0.208 0 0.312 0.104 0.312 0.312c 0 0.13 -0.13 0.195 -0.403 0.195c -0.533 0 -0.793 0.052 -0.793 0.169c 0 0.065 0.039 0.26 0.117 0.559l 0.507 2.002l 1.859 1.43l 1.469 -3.393c 0.091 -0.221 0.143 -0.364 0.143 -0.429c 0 -0.221 -0.208 -0.338 -0.611 -0.338c -0.234 0 -0.338 -0.052 -0.338 -0.312c 0 -0.13 0.078 -0.195 0.234 -0.195c 0.286 0 1.274 0.039 1.56 0.039c 0.247 0 1.027 -0.039 1.274 -0.039c 0.182 0 0.273 0.104 0.273 0.312c 0 0.117 -0.104 0.182 -0.299 0.195c -0.533 0 -0.663 0.143 -0.845 0.546l -1.833 4.199c -0.013 0.065 -0.039 0.117 -0.052 0.156l 2.6 2.002c 0.637 0.494 1.183 0.793 1.625 0.897c 0.312 0.052 0.728 0.039 0.728 0.377c 0 0.13 -0.065 0.195 -0.195 0.195c -0.182 0 -0.728 -0.039 -0.91 -0.039Z "/></symbol><symbol id="g57F18D900CF55D9A01A5ED40C5665877" overflow="visible"><path d="M 0 0m 7.67 7.813c 0.117 0.039 0.169 0.104 0.169 0.221c 0 0.117 -0.052 0.182 -0.169 0.221c -0.455 0.143 -0.793 0.442 -1.001 0.871c -0.039 0.091 -0.117 0.143 -0.221 0.143c -0.169 0 -0.247 -0.078 -0.247 -0.234c 0 -0.013 0.013 -0.052 0.026 -0.104c 0.117 -0.247 0.273 -0.468 0.494 -0.663h -5.746c -0.169 0 -0.247 -0.078 -0.247 -0.234c 0 -0.156 0.078 -0.234 0.247 -0.234h 5.746c -0.221 -0.195 -0.377 -0.416 -0.494 -0.663c -0.013 -0.052 -0.026 -0.091 -0.026 -0.104c 0 -0.156 0.078 -0.234 0.247 -0.234c 0.104 0 0.182 0.052 0.221 0.143c 0.208 0.429 0.546 0.728 1.001 0.871Z "/></symbol><symbol id="gEB9B079EF07FFCCA69ED7A9B1F1ABEB" overflow="visible"><path d="M 0 0m 4.862 -0.143l 1.989 0.143v 0.494c -0.468 0 -0.741 0.026 -0.845 0.104c -0.104 0.078 -0.156 0.273 -0.156 0.572v 7.852l -1.937 -0.143v -0.494c 0.455 0 0.741 -0.039 0.845 -0.117c 0.104 -0.078 0.143 -0.26 0.143 -0.559v -2.639c -0.416 0.481 -0.936 0.715 -1.56 0.715c -0.806 0 -1.495 -0.286 -2.054 -0.871c -0.559 -0.585 -0.845 -1.287 -0.845 -2.106c 0 -0.793 0.26 -1.482 0.793 -2.067c 0.533 -0.585 1.183 -0.884 1.976 -0.884c 0.663 0 1.222 0.247 1.651 0.754Z m -1.469 5.538c 0.559 0 1.014 -0.247 1.339 -0.741c 0.091 -0.143 0.13 -0.286 0.13 -0.455v -2.626c 0 -0.169 -0.039 -0.312 -0.13 -0.455c -0.364 -0.585 -0.858 -0.871 -1.469 -0.871c -0.533 0 -0.962 0.26 -1.3 0.793c -0.234 0.39 -0.351 0.975 -0.351 1.755c 0 1.417 0.481 2.6 1.781 2.6Z "/></symbol><symbol id="g7FCD119A4094BE7F1574F3E8F3A7E7BD" overflow="visible"><path d="M 0 0m 1.729 2.041c 0 0.312 0.039 0.572 0.104 0.78c 0 0.13 -0.065 0.195 -0.208 0.195c -0.065 0 -0.117 -0.026 -0.143 -0.052c -0.065 -0.065 -0.806 -2.86 -0.806 -3.068c 0 -0.117 0.065 -0.182 0.195 -0.182c 0.065 0 0.156 0.065 0.273 0.208l 0.585 0.689c 0.455 -0.598 1.183 -0.897 2.171 -0.897c 0.858 0 1.612 0.351 2.288 1.04c 0.676 0.689 1.014 1.456 1.014 2.314c 0 0.611 -0.208 1.131 -0.637 1.547c -0.195 0.169 -0.455 0.312 -0.78 0.429c -0.299 0.065 -0.585 0.143 -0.871 0.221l -0.858 0.234c -0.429 0.117 -0.754 0.598 -0.754 1.118c 0 0.559 0.221 1.04 0.676 1.456c 0.455 0.416 0.962 0.624 1.521 0.624c 1.196 0 1.794 -0.65 1.794 -1.937c 0 -0.234 -0.052 -0.494 -0.052 -0.715v -0.039c 0.039 -0.091 0.104 -0.143 0.208 -0.143c 0.117 0 0.195 0.104 0.247 0.299l 0.689 2.821c 0 0.117 -0.065 0.182 -0.195 0.182c -0.065 0 -0.156 -0.065 -0.273 -0.208l -0.559 -0.676c -0.364 0.585 -0.975 0.884 -1.846 0.884c -0.819 0 -1.56 -0.312 -2.21 -0.923c -0.676 -0.624 -1.014 -1.339 -1.014 -2.158c 0 -0.936 0.611 -1.677 1.378 -1.885l 1.365 -0.351c 0.702 -0.195 1.144 -0.442 1.144 -1.313c 0 -0.598 -0.234 -1.131 -0.689 -1.599c -0.455 -0.468 -0.975 -0.715 -1.56 -0.715c -1.274 0 -2.197 0.559 -2.197 1.82Z "/></symbol><symbol id="gC6A8D9DAD1B870490CB8C05EF7C79E9C" overflow="visible"><path d="M 0 0m 16.068 10.465c -1.001 0 -1.664 -0.754 -2.002 -2.275c -0.052 -0.234 -0.13 -0.715 -0.234 -1.443l -0.156 -1.222c -0.182 -1.456 -0.299 -2.535 -0.351 -3.25l -0.247 -3.211c -0.091 -1.261 -0.299 -2.652 -1.313 -2.652c -0.286 0 -0.52 0.065 -0.715 0.195c 0.273 0.078 0.416 0.26 0.416 0.546c 0 0.351 -0.234 0.598 -0.585 0.598c -0.403 0 -0.598 -0.208 -0.598 -0.611c 0 -0.702 0.741 -1.118 1.482 -1.118c 1.053 0 1.781 0.78 2.184 2.327c 0.273 1.092 0.52 3.042 0.728 5.863l 0.247 3.211c 0.065 0.741 0.156 1.326 0.273 1.742c 0.169 0.559 0.286 0.91 0.884 0.91c 0.273 0 0.507 -0.065 0.689 -0.195c -0.273 -0.078 -0.403 -0.26 -0.403 -0.546c 0 -0.338 0.234 -0.598 0.572 -0.598c 0.403 0 0.598 0.208 0.598 0.611c 0 0.689 -0.728 1.118 -1.469 1.118Z m -4.784 0c -1.001 0 -1.664 -0.754 -2.002 -2.275c -0.052 -0.234 -0.13 -0.715 -0.221 -1.443l -0.156 -1.222c -0.182 -1.456 -0.299 -2.535 -0.364 -3.25l -0.247 -3.211c -0.091 -1.261 -0.299 -2.652 -1.313 -2.652c -0.286 0 -0.52 0.065 -0.715 0.195c 0.273 0.078 0.416 0.26 0.416 0.546c 0 0.351 -0.234 0.598 -0.585 0.598c -0.39 0 -0.585 -0.208 -0.585 -0.611c 0 -0.702 0.728 -1.118 1.469 -1.118c 1.066 0 1.794 0.78 2.184 2.327c 0.273 1.092 0.52 3.042 0.741 5.863l 0.247 3.211c 0.052 0.741 0.143 1.326 0.26 1.742c 0.169 0.559 0.286 0.91 0.884 0.91c 0.273 0 0.507 -0.065 0.702 -0.195c -0.273 -0.078 -0.416 -0.26 -0.416 -0.546c 0 -0.351 0.234 -0.598 0.585 -0.598c 0.39 0 0.585 0.208 0.585 0.611c 0 0.702 -0.728 1.118 -1.469 1.118Z m -4.784 0c -1.001 0 -1.664 -0.754 -2.002 -2.275c -0.052 -0.234 -0.13 -0.715 -0.221 -1.443l -0.156 -1.222c -0.182 -1.456 -0.299 -2.535 -0.351 -3.25l -0.247 -3.211c -0.104 -1.248 -0.299 -2.652 -1.326 -2.652c -0.273 0 -0.507 0.065 -0.702 0.195c 0.273 0.078 0.403 0.26 0.403 0.546c 0 0.338 -0.234 0.598 -0.572 0.598c -0.403 0 -0.598 -0.208 -0.598 -0.611c 0 -0.689 0.728 -1.118 1.469 -1.118c 1.066 0 1.794 0.78 2.184 2.327c 0.273 1.092 0.52 3.042 0.741 5.863l 0.247 3.211c 0.052 0.741 0.143 1.326 0.273 1.742c 0.143 0.546 0.286 0.91 0.871 0.91c 0.273 0 0.507 -0.065 0.702 -0.195c -0.273 -0.078 -0.416 -0.26 -0.416 -0.546c 0 -0.351 0.234 -0.598 0.585 -0.598c 0.403 0 0.598 0.208 0.598 0.611c 0 0.702 -0.741 1.118 -1.482 1.118Z "/></symbol><symbol id="g189FA6B14367511FDCFA4F03054D17B0" overflow="visible"><path d="M 0 0m 8.229 8.671c 0 0.143 -0.078 0.208 -0.234 0.208c -0.247 0 -1.17 -0.039 -1.417 -0.039l -1.885 0.039c -0.221 0 -0.325 -0.104 -0.325 -0.312c 0 -0.13 0.169 -0.195 0.494 -0.195c 0.585 0 0.936 -0.026 1.027 -0.091c 0.039 -0.026 0.052 -0.065 0.052 -0.13c 0 -0.039 -0.013 -0.13 -0.039 -0.26l -1.482 -5.902c -0.208 -0.832 -0.871 -1.885 -1.794 -1.885c -0.585 0 -0.962 0.221 -1.144 0.676h 0.078c 0.468 0 0.884 0.403 0.884 0.871c 0 0.403 -0.208 0.598 -0.611 0.598c -0.572 0 -0.91 -0.507 -0.91 -1.079c 0 -0.91 0.793 -1.456 1.742 -1.456c 0.65 0 1.248 0.208 1.807 0.624c 0.559 0.416 0.923 0.923 1.079 1.534l 1.495 6.006c 0.117 0.468 0.169 0.494 0.78 0.494c 0.273 0 0.403 0.026 0.403 0.299Z "/></symbol><symbol id="g53251C539233983FE9FC826CA7FBAC4A" overflow="visible"><path d="M 0 0m 8.723 8.84c -0.247 0 -1.027 0.039 -1.274 0.039c -0.195 0 -0.299 -0.104 -0.299 -0.299c 0 -0.13 0.091 -0.195 0.26 -0.208c 0.364 -0.013 0.546 -0.143 0.546 -0.364c 0 -0.117 -0.065 -0.273 -0.182 -0.468l -3.874 -6.149l -0.858 6.656c 0 0.221 0.273 0.325 0.832 0.325c 0.26 0 0.377 0.091 0.377 0.312c 0 0.13 -0.078 0.195 -0.234 0.195c -0.286 0 -1.3 -0.039 -1.586 -0.039c -0.26 0 -1.144 0.039 -1.404 0.039c -0.195 0 -0.299 -0.104 -0.299 -0.299c 0 -0.143 0.13 -0.208 0.377 -0.208c 0.221 0 0.377 -0.026 0.481 -0.052c 0.208 -0.065 0.195 -0.091 0.234 -0.338l 1.014 -7.93c 0.039 -0.221 0.143 -0.338 0.312 -0.338c 0.169 0 0.299 0.091 0.403 0.26l 4.628 7.358c 0.299 0.468 0.585 0.767 0.871 0.884c 0.195 0.091 0.442 0.143 0.728 0.156c 0.143 0.013 0.208 0.104 0.221 0.299c 0.013 0.143 -0.065 0.208 -0.221 0.208c -0.195 0 -0.858 -0.039 -1.053 -0.039Z "/></symbol></defs></svg>