<svg viewBox="0 0 62.695822222 17.6397" width="62.695822222pt" height="17.6397pt" xmlns="http://www.w3.org/2000/svg" xmlns:xlink="http://www.w3.org/1999/xlink" xmlns:h5="http://www.w3.org/1999/xhtml"><g transform="matrix(1 0 0 -1 6.5 12.779)"><use xlink:href="#gF291FCC7BBD497BC1B54131876EE661E" x="0" y="0" fill="#e6edf3" fill-rule="nonzero"/></g><g transform="matrix(1 0 0 -1 12.805 15.99)"><use xlink:href="#g56CA2213A637A1EBD48C3733E7CBD1B8" x="0" y="0" fill="#e6edf3" fill-rule="nonzero"/><use xlink:href="#g6F1B2EC7690C574873AE01D06ED173C6" x="3.5854" y="0" fill="#e6edf3" fill-rule="nonzero"/><use xlink:href="#g48B3ED1BE8E5B4ABFD539FA8F671E63F" x="7.6258" y="0" fill="#e6edf3" fill-rule="nonzero"/></g><g transform="matrix(1 0 0 -1 27.299711111 12.779)"><use xlink:href="#g13AFF74D87C474CFAF661EEAD0458F8B" x="0" y="0" fill="#e6edf3" fill-rule="nonzero"/></g><g transform="matrix(1 0 0 -1 42.324822222 6.2023)"><use xlink:href="#gE1855B9080E381DBF30A60576B27B8A2" x="0" y="0" fill="#e6edf3" fill-rule="nonzero"/></g><g transform="matrix(1 0 0 -1 49.959722222 8.45)"><use xlink:href="#gFA9C496F3B51D521A73CFA99F8A9D69F" x="0" y="0" fill="#e6edf3" fill-rule="nonzero"/></g><g transform="matrix(1 0 0 -1 42.443122222 17.264)"><use xlink:href="#gC7B20184179011BBC954B5E7CD84FB69" x="0" y="0" fill="#e6edf3" fill-rule="nonzero"/></g><g transform="matrix(1 0 0 -1 49.841422222 19.5117)"><use xlink:href="#gFA9C496F3B51D521A73CFA99F8A9D69F" x="0" y="0" fill="#e6edf3" fill-rule="nonzero"/></g><path fill="none" stroke="#e6edf3" stroke-width="0.624" stroke-linecap="butt" stroke-linejoin="miter" stroke-miterlimit="4" transform="translate(42.324822222 9.529)" d="M 0 0h 12.571"/><defs><symbol id="gF291FCC7BBD497BC1B54131876EE661E" overflow="visible"><path d="M 0 0m 4.797 5.083c 0 -0.104 0.117 -0.273 0.325 -0.533c 0.208 -0.26 0.312 -0.559 0.312 -0.897c 0 -0.377 -0.182 -1.014 -0.559 -1.911c -0.273 -0.624 -0.897 -1.508 -1.664 -1.508c -0.598 0 -0.897 0.351 -0.897 1.066c 0 0.507 0.247 1.404 0.741 2.691c 0.104 0.273 0.156 0.494 0.156 0.65c 0 0.65 -0.442 1.105 -1.092 1.105c -0.572 0 -1.027 -0.325 -1.352 -0.975c -0.26 -0.533 -0.39 -0.871 -0.39 -1.04c 0 -0.117 0.065 -0.182 0.208 -0.182c 0.169 0 0.195 0.078 0.247 0.26c 0.299 1.04 0.715 1.56 1.248 1.56c 0.169 0 0.26 -0.117 0.26 -0.364c 0 -0.208 -0.065 -0.494 -0.208 -0.871c -0.481 -1.287 -0.728 -2.158 -0.728 -2.639c 0 -0.663 0.221 -1.118 0.663 -1.365c 0.351 -0.182 0.715 -0.273 1.092 -0.273c 1.157 0 1.963 1.248 2.301 2.249c 0.416 1.222 0.624 2.119 0.624 2.691c 0 0.637 -0.208 0.949 -0.611 0.949c -0.325 0 -0.676 -0.338 -0.676 -0.663Z "/></symbol><symbol id="g56CA2213A637A1EBD48C3733E7CBD1B8" overflow="visible"><path d="M 0 0m 3.276 1.183c 0 0.6916 -0.4732 1.1284 -1.4105 1.3104c -0.4277 0.0819 -0.7007 0.182 -0.8463 0.2821c -0.1456 0.1001 -0.2184 0.2457 -0.2184 0.4186c 0 0.4277 0.3185 0.637 0.9555 0.637c 0.6188 0 0.9555 -0.3458 1.001 -1.0465c 0.0091 -0.0728 0.0546 -0.1092 0.1456 -0.1092c 0.1001 0 0.1547 0.0819 0.1547 0.2457v 0.9009c 0 0.1729 -0.0455 0.2548 -0.1365 0.2548c -0.1001 0 -0.2366 -0.1638 -0.3276 -0.2366c -0.2275 0.1547 -0.5096 0.2366 -0.8372 0.2366c -0.8099 0 -1.456 -0.364 -1.456 -1.1375c 0 -0.3094 0.1274 -0.5733 0.3913 -0.7826c 0.3185 -0.2639 0.6188 -0.3185 1.1921 -0.4186c 0.5915 -0.1183 0.8918 -0.3822 0.8918 -0.7917c 0 -0.5187 -0.3185 -0.7826 -0.9646 -0.7826c -0.6279 0 -1.0283 0.4186 -1.2012 1.2467c -0.0273 0.1183 -0.0728 0.182 -0.1547 0.182c -0.1001 0 -0.1547 -0.091 -0.1547 -0.2639v -1.1739c 0 -0.1729 0.0455 -0.2548 0.1365 -0.2548c 0.0273 0 0.0728 0.0273 0.1456 0.091c 0.1638 0.1456 0.091 0.1183 0.2548 0.2821c 0.2639 -0.2457 0.5915 -0.3731 0.9737 -0.3731c 0.8645 0 1.4651 0.4459 1.4651 1.2831Z "/></symbol><symbol id="g6F1B2EC7690C574873AE01D06ED173C6" overflow="visible"><path d="M 0 0m 3.7765 2.2841c 0 1.0465 -0.6097 1.7927 -1.6289 1.7927c -0.546 0 -1.001 -0.2093 -1.3741 -0.637c -0.3458 -0.4004 -0.5187 -0.8827 -0.5187 -1.4378c 0 -0.5733 0.1911 -1.0556 0.5733 -1.4742c 0.3822 -0.4186 0.8554 -0.6279 1.4196 -0.6279c 0.5187 0 0.9191 0.182 1.1921 0.5369c 0.2275 0.3003 0.3367 0.5187 0.3367 0.6643c 0 0.091 -0.0546 0.1365 -0.1547 0.1365c -0.0728 0 -0.1183 -0.0455 -0.1456 -0.1456c -0.2002 -0.6006 -0.5915 -0.9009 -1.1739 -0.9009c -0.4095 0 -0.728 0.1911 -0.9737 0.5824c -0.1729 0.2821 -0.2548 0.7098 -0.2639 1.2922h 2.457c 0.2002 0 0.2548 0.0182 0.2548 0.2184Z m -0.8099 0.8918c 0.1001 -0.3003 0.1456 -0.5915 0.1456 -0.8554h -2.0384c 0.0273 0.6006 0.182 1.0101 0.455 1.2194c 0.2275 0.182 0.4277 0.273 0.6188 0.273c 0.4095 0 0.6825 -0.2093 0.819 -0.637Z "/></symbol><symbol id="g48B3ED1BE8E5B4ABFD539FA8F671E63F" overflow="visible"><path d="M 0 0m 1.3104 0.0273l 1.0101 -0.0273v 0.3549c -0.3276 0 -0.5278 0.0091 -0.5915 0.0455c -0.0637 0.0364 -0.091 0.1456 -0.091 0.3185v 5.5965l -1.3377 -0.1001v -0.3458c 0.3185 0 0.5187 -0.0273 0.5824 -0.0819c 0.0637 -0.0546 0.1001 -0.182 0.1001 -0.3913v -4.6774c 0 -0.1729 -0.0273 -0.2821 -0.091 -0.3185c -0.0637 -0.0364 -0.2639 -0.0455 -0.5915 -0.0455v -0.3549Z "/></symbol><symbol id="g13AFF74D87C474CFAF661EEAD0458F8B" overflow="visible"><path d="M 0 0m 9.074 4.771h -8.034c -0.208 0 -0.312 -0.104 -0.312 -0.299c 0 -0.195 0.104 -0.299 0.312 -0.299h 8.034c 0.208 0 0.312 0.104 0.312 0.299c 0 0.156 -0.143 0.299 -0.312 0.299Z m 0 -2.444h -8.034c -0.208 0 -0.312 -0.104 -0.312 -0.299c 0 -0.195 0.104 -0.299 0.312 -0.299h 8.034c 0.208 0 0.312 0.104 0.312 0.299c 0 0.169 -0.143 0.299 -0.312 0.299Z "/></symbol><symbol id="gE1855B9080E381DBF30A60576B27B8A2" overflow="visible"><path d="M 0 0m 7.3528 6.1789h -4.9504c -0.2093 0 -0.3276 -0.0273 -0.3276 -0.2366c 0 -0.1001 0.1092 -0.1547 0.3367 -0.1547c 0.2821 0 0.4459 -0.0182 0.4914 -0.0455c 0.0091 -0.0091 0.0091 -0.0364 0.0091 -0.0637c 0 -0.0455 -0.0091 -0.1092 -0.0273 -0.1911l -1.183 -4.7047c -0.0455 -0.1729 -0.1001 -0.2821 -0.1729 -0.3276c -0.0728 -0.0455 -0.2639 -0.0637 -0.5915 -0.0637c -0.2002 0 -0.3094 -0.0273 -0.3094 -0.2275c 0 -0.1092 0.1001 -0.1638 0.3094 -0.1638h 5.0869c 0.2275 0 0.2639 0.0182 0.3367 0.182l 0.8463 1.9201c 0.0364 0.0819 0.0546 0.1456 0.0546 0.1729c 0 0.1092 -0.0637 0.1638 -0.1911 0.1638l -0.1092 -0.0455c -0.0273 -0.0273 -0.0819 -0.1183 -0.1547 -0.273c -0.3003 -0.6643 -0.6006 -1.1102 -0.9191 -1.3377c -0.3458 -0.2639 -0.8645 -0.3913 -1.5561 -0.3913h -1.5288c -0.1729 0 -0.2548 -0.0182 -0.2548 0.0546l 0.6279 2.5662h 0.9828c 0.4732 0 0.7826 0 0.7826 -0.3731c 0 -0.091 -0.0182 -0.2275 -0.0637 -0.4004c -0.0182 -0.0546 -0.0273 -0.091 -0.0273 -0.1183v -0.0364c 0.0273 -0.0819 0.091 -0.1274 0.1911 -0.1274c 0.1001 0 0.1638 0.0728 0.2093 0.2275l 0.4914 1.9747c 0.0182 0.0728 0.0273 0.1183 0.0273 0.1365c 0 0.1092 -0.0637 0.1638 -0.1911 0.1638h -0.0728c -0.0455 -0.0091 -0.0819 -0.0546 -0.1001 -0.1365c -0.1183 -0.4186 -0.2639 -0.6825 -0.4186 -0.7735c -0.1547 -0.091 -0.4186 -0.1365 -0.8099 -0.1365h -0.9009l 0.5278 2.093c 0.0728 0.2821 0.0637 0.2821 0.4277 0.2821h 1.4651c 0.5005 0 0.8463 -0.0455 1.0283 -0.1456c 0.2821 -0.1365 0.4186 -0.4277 0.4186 -0.8645c 0 -0.1274 -0.0364 -0.3822 -0.0364 -0.546c 0 -0.1274 0.0637 -0.1911 0.182 -0.1911c 0.0546 0 0.1001 0.0091 0.1274 0.0364c 0.0455 0.1001 0.0728 0.1729 0.0728 0.2275l 0.1638 1.5652v 0.1456c 0 0.1547 -0.1092 0.1638 -0.3003 0.1638Z "/></symbol><symbol id="gFA9C496F3B51D521A73CFA99F8A9D69F" overflow="visible"><path d="M 0 0m 3.9065 2.08c 0 0.286 0 0.338 -0.039 0.637c -0.117 0.9165 -0.6045 1.612 -1.6575 1.612c -0.6825 0 -1.1505 -0.3055 -1.3845 -0.7475c -0.2275 -0.429 -0.312 -0.8775 -0.312 -1.5015c 0 -0.2275 0.013 -0.4355 0.039 -0.637c 0.117 -0.9035 0.611 -1.586 1.6575 -1.586c 0.676 0 1.1505 0.3055 1.3845 0.7345c 0.234 0.429 0.312 0.871 0.312 1.4885Z m -0.78 1.313c 0.0585 -0.2145 0.091 -0.624 0.091 -1.235c 0 -0.6435 -0.0325 -1.0855 -0.0975 -1.339c -0.1105 -0.429 -0.4225 -0.6955 -0.91 -0.6955c -0.1495 0 -0.312 0.039 -0.481 0.1105c -0.208 0.0975 -0.351 0.2925 -0.429 0.598c -0.065 0.247 -0.0975 0.689 -0.0975 1.326c 0 0.6175 0.0325 1.0465 0.104 1.274c 0.1235 0.4225 0.4225 0.6305 0.9035 0.6305c 0.4875 0 0.793 -0.221 0.9165 -0.6695Z "/></symbol><symbol id="gC7B20184179011BBC954B5E7CD84FB69" overflow="visible"><path d="M 0 0m 7.6167 4.9049c 0 0.4368 -0.2184 0.7735 -0.6552 1.0101c -0.3549 0.2002 -0.7735 0.3003 -1.2467 0.3003h -3.276c -0.2093 0 -0.3276 -0.0273 -0.3276 -0.2366c 0 -0.1001 0.0637 -0.1456 0.1911 -0.1547l 0.4732 -0.0182c 0.1183 -0.0091 0.1729 0 0.1729 -0.091l -1.2285 -4.9686c -0.0455 -0.182 -0.1365 -0.2912 -0.273 -0.3367c -0.0455 -0.0091 -0.2002 -0.0182 -0.4823 -0.0182h -0.1547c -0.1001 -0.0091 -0.1547 -0.0819 -0.1547 -0.2184c 0 -0.1547 0.1183 -0.1729 0.3094 -0.1729h 3.4853c 0.6097 0 1.1921 0.1729 1.7472 0.5096c 0.6461 0.3913 0.9646 0.8736 0.9646 1.4469c 0 0.728 -0.6916 1.1739 -1.3741 1.3013c 0.8099 0.182 1.8291 0.7826 1.8291 1.6471Z m -0.9555 0.0091c 0 -0.455 -0.2275 -0.8281 -0.6734 -1.1284c -0.4004 -0.2639 -0.8372 -0.3913 -1.3195 -0.3913h -1.4287l 0.5369 2.1476c 0.0728 0.273 0.0728 0.2821 0.4277 0.2821h 1.365c 0.6279 0 1.092 -0.3185 1.092 -0.91Z m -0.4823 -2.8938c 0 -0.4732 -0.2184 -0.8736 -0.6461 -1.1921c -0.3913 -0.2912 -0.8281 -0.4368 -1.3195 -0.4368h -1.4469c -0.1729 0 -0.2548 -0.0182 -0.2548 0.0546l 0.6461 2.6208h 1.8837c 0.6643 0 1.1375 -0.3822 1.1375 -1.0465Z "/></symbol></defs></svg>