<svg viewBox="0 0 140.155744444 17.55" width="140.155744444pt" height="17.55pt" xmlns="http://www.w3.org/2000/svg" xmlns:xlink="http://www.w3.org/1999/xlink" xmlns:h5="http://www.w3.org/1999/xhtml"><g transform="matrix(1 0 0 -1 6.5 12.779)"><use xlink:href="#gF5FB9F3934311C9D089606536CC9B01A" x="0" y="0" fill="#e6edf3" fill-rule="nonzero"/></g><g transform="matrix(1 0 0 -1 16.143111111 12.779)"><use xlink:href="#g13AFF74D87C474CFAF661EEAD0458F8B" x="0" y="0" fill="#e6edf3" fill-rule="nonzero"/></g><g transform="matrix(1 0 0 -1 31.592672222 6.3453)"><use xlink:href="#g101A15221A0EE003755D1DFBD155057" x="0" y="0" fill="#e6edf3" fill-rule="nonzero"/></g><g transform="matrix(1 0 0 -1 40.820072222 6.3453)"><use xlink:href="#g9AF0AC614D088CB0FE6B1371528BF3EE" x="0" y="0" fill="#e6edf3" fill-rule="nonzero"/></g><g transform="matrix(1 0 0 -1 46.016172222 8.593)"><use xlink:href="#g83B9439A80C1C564251CA955F18D3064" x="0" y="0" fill="#e6edf3" fill-rule="nonzero"/></g><g transform="matrix(1 0 0 -1 31.168222222 17.29)"><use xlink:href="#gC1B4F27AD5CD415CA12FBD0887049A94" x="0" y="0" fill="#e6edf3" fill-rule="nonzero"/></g><g transform="matrix(1 0 0 -1 33.698022222 17.29)"><use xlink:href="#g6D4C772C062D444291852D31AF870411" x="0" y="0" fill="#e6edf3" fill-rule="nonzero"/></g><g transform="matrix(1 0 0 -1 38.602922222 17.29)"><use xlink:href="#gC1B4F27AD5CD415CA12FBD0887049A94" x="0" y="0" fill="#e6edf3" fill-rule="nonzero"/></g><g transform="matrix(1 0 0 -1 44.153922222 17.29)"><use xlink:href="#gC7B20184179011BBC954B5E7CD84FB69" x="0" y="0" fill="#e6edf3" fill-rule="nonzero"/></g><path fill="none" stroke="#e6edf3" stroke-width="0.624" stroke-linecap="butt" stroke-linejoin="miter" stroke-miterlimit="4" transform="translate(31.168222222 9.529)" d="M 0 0h 20.839"/><g transform="matrix(1 0 0 -1 79.307222222 12.779)"><use xlink:href="#g2B2AC19B865E98D20D71E15E51A1C9C9" x="0" y="0" fill="#e6edf3" fill-rule="nonzero"/></g><g transform="matrix(1 0 0 -1 87.393222222 15.99)"><use xlink:href="#g92EDD795C1990AE86A5F909996C892B5" x="0" y="0" fill="#e6edf3" fill-rule="nonzero"/></g><g transform="matrix(1 0 0 -1 96.491633333 12.779)"><use xlink:href="#g13AFF74D87C474CFAF661EEAD0458F8B" x="0" y="0" fill="#e6edf3" fill-rule="nonzero"/></g><g transform="matrix(1 0 0 -1 111.516744444 6.318)"><use xlink:href="#gC1B4F27AD5CD415CA12FBD0887049A94" x="0" y="0" fill="#e6edf3" fill-rule="nonzero"/></g><g transform="matrix(1 0 0 -1 114.046544444 6.318)"><use xlink:href="#g6D4C772C062D444291852D31AF870411" x="0" y="0" fill="#e6edf3" fill-rule="nonzero"/></g><g transform="matrix(1 0 0 -1 118.951444444 6.318)"><use xlink:href="#gC1B4F27AD5CD415CA12FBD0887049A94" x="0" y="0" fill="#e6edf3" fill-rule="nonzero"/></g><g transform="matrix(1 0 0 -1 124.502444444 6.318)"><use xlink:href="#gC7B20184179011BBC954B5E7CD84FB69" x="0" y="0" fill="#e6edf3" fill-rule="nonzero"/></g><g transform="matrix(1 0 0 -1 117.322544444 17.264)"><use xlink:href="#g101A15221A0EE003755D1DFBD155057" x="0" y="0" fill="#e6edf3" fill-rule="nonzero"/></g><path fill="none" stroke="#e6edf3" stroke-width="0.624" stroke-linecap="butt" stroke-linejoin="miter" stroke-miterlimit="4" transform="translate(111.516744444 9.529)" d="M 0 0h 20.839"/><defs><symbol id="gF5FB9F3934311C9D089606536CC9B01A" overflow="visible"><path d="M 0 0m 5.668 4.862c 0 0.546 -0.533 0.884 -1.105 0.884c -0.637 0 -1.17 -0.299 -1.612 -0.91c -0.13 0.507 -0.572 0.91 -1.183 0.91c -0.533 0 -0.923 -0.416 -1.196 -1.261c -0.13 -0.429 -0.195 -0.676 -0.195 -0.754c 0 -0.117 0.065 -0.182 0.208 -0.182c 0.065 0 0.104 0.013 0.143 0.039c 0.065 0.117 0.104 0.208 0.117 0.299c 0.234 0.988 0.533 1.482 0.884 1.482c 0.221 0 0.338 -0.182 0.338 -0.546c 0 -0.169 -0.065 -0.52 -0.195 -1.053l -0.741 -2.951c -0.039 -0.169 -0.117 -0.507 -0.117 -0.572c 0 -0.26 0.143 -0.39 0.416 -0.39c 0.26 0 0.429 0.13 0.52 0.39l 0.247 0.936c 0.143 0.559 0.234 0.923 0.273 1.092l 0.403 1.664c 0.026 0.104 0.13 0.273 0.299 0.52c 0.351 0.494 0.754 0.91 1.391 0.91c 0.156 0 0.286 -0.026 0.403 -0.091c -0.39 -0.117 -0.585 -0.364 -0.585 -0.715c 0 -0.338 0.182 -0.507 0.533 -0.507c 0.429 0 0.754 0.377 0.754 0.806Z "/></symbol><symbol id="g13AFF74D87C474CFAF661EEAD0458F8B" overflow="visible"><path d="M 0 0m 9.074 4.771h -8.034c -0.208 0 -0.312 -0.104 -0.312 -0.299c 0 -0.195 0.104 -0.299 0.312 -0.299h 8.034c 0.208 0 0.312 0.104 0.312 0.299c 0 0.156 -0.143 0.299 -0.312 0.299Z m 0 -2.444h -8.034c -0.208 0 -0.312 -0.104 -0.312 -0.299c 0 -0.195 0.104 -0.299 0.312 -0.299h 8.034c 0.208 0 0.312 0.104 0.312 0.299c 0 0.169 -0.143 0.299 -0.312 0.299Z "/></symbol><symbol id="g101A15221A0EE003755D1DFBD155057" overflow="visible"><path d="M 0 0m 1.5015 4.0131c -0.3003 0 -0.5551 -0.1638 -0.7462 -0.5005c -0.1274 -0.2275 -0.2275 -0.4641 -0.2912 -0.728c -0.0273 -0.1001 -0.0364 -0.1547 -0.0364 -0.1729c 0 -0.1001 0.0637 -0.1547 0.1911 -0.1547c 0.1729 0 0.182 0.1001 0.2275 0.2912c 0.1547 0.6279 0.364 0.9464 0.6279 0.9464c 0.1729 0 0.2639 -0.1365 0.2639 -0.4095c 0 -0.1001 -0.0455 -0.3367 -0.1456 -0.728l -0.4914 -1.9474c -0.0637 -0.2457 -0.091 -0.3731 -0.091 -0.3822c 0 -0.2093 0.1183 -0.3185 0.3458 -0.3185c 0.1729 0 0.3003 0.0728 0.3822 0.2184c 0.0273 0.0546 0.0819 0.2457 0.1638 0.5642l 0.2002 0.8008c 0.1092 0.4277 0.1729 0.6643 0.1911 0.7189c 0.0728 0.2366 0.182 0.4641 0.3367 0.6734c 0.3822 0.5369 0.8281 0.8099 1.3286 0.8099c 0.3276 0 0.4914 -0.2002 0.4914 -0.5915c 0 -0.1547 -0.0546 -0.4277 -0.1547 -0.8372l -0.3731 -1.5015c -0.0819 -0.3367 -0.1274 -0.5096 -0.1274 -0.5369c 0 -0.2093 0.1092 -0.3185 0.3367 -0.3185c 0.1729 0 0.3094 0.0728 0.3913 0.2184c 0.0273 0.0546 0.0819 0.2457 0.1638 0.5642l 0.2002 0.8008c 0.1456 0.5642 0.1729 0.9009 0.4277 1.2649c 0.4095 0.6279 0.8736 0.9373 1.4105 0.9373c 0.3276 0 0.4914 -0.2002 0.4914 -0.5915c 0 -0.3549 -0.1729 -0.9828 -0.5278 -1.8928c -0.091 -0.2366 -0.1365 -0.4004 -0.1365 -0.5005c 0 -0.4914 0.4004 -0.8008 0.8918 -0.8008c 0.4368 0 0.7826 0.2184 1.0283 0.6552c 0.2093 0.3731 0.3094 0.6188 0.3094 0.7462c 0 0.1001 -0.0637 0.1547 -0.182 0.1547c -0.0637 -0.0091 -0.1547 -0.0819 -0.2093 -0.182c -0.2093 -0.7007 -0.5096 -1.0556 -0.9191 -1.0556c -0.1274 0 -0.1911 0.091 -0.1911 0.2821c 0 0.1274 0.0728 0.364 0.2093 0.7098c 0.3185 0.8099 0.4823 1.3923 0.4823 1.7381c 0 0.7007 -0.4004 1.0556 -1.2103 1.0556c -0.5915 0 -1.1102 -0.2821 -1.5743 -0.8463c -0.091 0.5642 -0.4914 0.8463 -1.1921 0.8463c -0.5915 0 -1.092 -0.2548 -1.5015 -0.7644c -0.0819 0.4459 -0.4732 0.7644 -0.9919 0.7644Z "/></symbol><symbol id="g9AF0AC614D088CB0FE6B1371528BF3EE" overflow="visible"><path d="M 0 0m 4.3771 4.0222c -0.2548 0 -0.5187 -0.2548 -0.5187 -0.5096c 0 -0.0819 0.0728 -0.2093 0.2366 -0.3822c 0.1638 -0.1729 0.2457 -0.3731 0.2457 -0.6097c 0 -0.2912 -0.1365 -0.7189 -0.4186 -1.2922c -0.2093 -0.4277 -0.6643 -1.001 -1.2012 -1.001c -0.4641 0 -0.6916 0.2548 -0.6916 0.7644c 0 0.3276 0.1638 0.9009 0.4914 1.729c 0.0819 0.2184 0.1274 0.3822 0.1274 0.4914c 0 0.4732 -0.4095 0.8008 -0.8827 0.8008c -0.4277 0 -0.7644 -0.2184 -1.0283 -0.6552c -0.2093 -0.3549 -0.3094 -0.6006 -0.3094 -0.7462c 0 -0.1001 0.0637 -0.1547 0.1911 -0.1547c 0.1001 0 0.1638 0.0546 0.1911 0.1729c 0.1365 0.4459 0.4459 1.0647 0.9282 1.0647c 0.1183 0 0.182 -0.091 0.182 -0.2821c 0 -0.1274 -0.0546 -0.3185 -0.1547 -0.5824c -0.3276 -0.8099 -0.4914 -1.3832 -0.4914 -1.7108c 0 -0.8099 0.5824 -1.2103 1.4196 -1.2103c 0.819 0 1.3923 0.7553 1.6653 1.4196c 0.3367 0.8099 0.5005 1.4651 0.5005 1.9474c 0 0.3822 -0.1456 0.7462 -0.4823 0.7462Z "/></symbol><symbol id="g83B9439A80C1C564251CA955F18D3064" overflow="visible"><path d="M 0 0m 4.498 0.3835h -1.7745v 3.8675c 0 0.117 -0.091 0.195 -0.195 0.195c -0.104 0 -0.195 -0.078 -0.195 -0.195v -3.8675h -1.7745c -0.1235 0 -0.195 -0.091 -0.195 -0.1885c 0 -0.104 0.0715 -0.195 0.195 -0.195h 3.939c 0.143 0 0.195 0.091 0.195 0.195c 0 0.078 -0.0715 0.1885 -0.195 0.1885Z "/></symbol><symbol id="gC1B4F27AD5CD415CA12FBD0887049A94" overflow="visible"><path d="M 0 0m 1.2649 -2.275c 0.1183 0 0.182 0.0728 0.182 0.2184v 8.6632c 0 0.1456 -0.0637 0.2184 -0.182 0.2184c -0.1183 0 -0.182 -0.0728 -0.182 -0.2184v -8.6632c 0 -0.1456 0.0637 -0.2184 0.182 -0.2184Z "/></symbol><symbol id="g6D4C772C062D444291852D31AF870411" overflow="visible"><path d="M 0 0m 3.8584 3.4489c -0.2275 0.3731 -0.546 0.5642 -0.9646 0.5642c -0.6188 0 -1.1648 -0.2821 -1.6471 -0.8463c -0.4641 -0.5369 -0.6916 -1.1193 -0.6916 -1.7472c 0 -0.8281 0.5551 -1.5288 1.3832 -1.5288c 0.3549 0 0.7098 0.1456 1.0647 0.4277l -0.2912 -1.2012c -0.0546 -0.2366 -0.1092 -0.3731 -0.1638 -0.4186c -0.0546 -0.0455 -0.2275 -0.0637 -0.4914 -0.0728c -0.1911 0 -0.2639 -0.0637 -0.2639 -0.2275c 0 -0.1092 0.0546 -0.1638 0.1638 -0.1638c 0.1729 0 0.7553 0.0364 0.9282 0.0364c 0.182 0 0.7826 -0.0364 0.9646 -0.0364c 0.1365 0 0.2093 0.0819 0.2093 0.2366c 0 0.1001 -0.091 0.1547 -0.2639 0.1547c -0.273 0 -0.4095 0.0273 -0.4095 0.0728c 0.0091 0.0091 0.0091 0.0364 0.0182 0.0637l 1.2285 4.9413c 0.0091 0.0546 0.0182 0.1001 0.0182 0.1456c 0 0.1092 -0.0546 0.1638 -0.1547 0.1638c -0.1547 0 -0.5551 -0.4368 -0.637 -0.5642Z m -0.5096 0.0637c 0.2093 -0.1911 0.3094 -0.3822 0.3094 -0.5733c 0 -0.0091 -0.0091 -0.0546 -0.0273 -0.1183l -0.4186 -1.6653c -0.0273 -0.1092 -0.0819 -0.2093 -0.1547 -0.3003c -0.3549 -0.4277 -0.7189 -0.6461 -1.092 -0.6461c -0.4095 0 -0.6188 0.2821 -0.6188 0.8372c 0 0.2275 0.0455 0.5369 0.1456 0.9373c 0.1001 0.4004 0.2093 0.6825 0.3185 0.8736c 0.3185 0.5551 0.6825 0.8281 1.0829 0.8281c 0.1729 0 0.3276 -0.0546 0.455 -0.1729Z "/></symbol><symbol id="gC7B20184179011BBC954B5E7CD84FB69" overflow="visible"><path d="M 0 0m 7.6167 4.9049c 0 0.4368 -0.2184 0.7735 -0.6552 1.0101c -0.3549 0.2002 -0.7735 0.3003 -1.2467 0.3003h -3.276c -0.2093 0 -0.3276 -0.0273 -0.3276 -0.2366c 0 -0.1001 0.0637 -0.1456 0.1911 -0.1547l 0.4732 -0.0182c 0.1183 -0.0091 0.1729 0 0.1729 -0.091l -1.2285 -4.9686c -0.0455 -0.182 -0.1365 -0.2912 -0.273 -0.3367c -0.0455 -0.0091 -0.2002 -0.0182 -0.4823 -0.0182h -0.1547c -0.1001 -0.0091 -0.1547 -0.0819 -0.1547 -0.2184c 0 -0.1547 0.1183 -0.1729 0.3094 -0.1729h 3.4853c 0.6097 0 1.1921 0.1729 1.7472 0.5096c 0.6461 0.3913 0.9646 0.8736 0.9646 1.4469c 0 0.728 -0.6916 1.1739 -1.3741 1.3013c 0.8099 0.182 1.8291 0.7826 1.8291 1.6471Z m -0.9555 0.0091c 0 -0.455 -0.2275 -0.8281 -0.6734 -1.1284c -0.4004 -0.2639 -0.8372 -0.3913 -1.3195 -0.3913h -1.4287l 0.5369 2.1476c 0.0728 0.273 0.0728 0.2821 0.4277 0.2821h 1.365c 0.6279 0 1.092 -0.3185 1.092 -0.91Z m -0.4823 -2.8938c 0 -0.4732 -0.2184 -0.8736 -0.6461 -1.1921c -0.3913 -0.2912 -0.8281 -0.4368 -1.3195 -0.4368h -1.4469c -0.1729 0 -0.2548 -0.0182 -0.2548 0.0546l 0.6461 2.6208h 1.8837c 0.6643 0 1.1375 -0.3822 1.1375 -1.0465Z "/></symbol><symbol id="g2B2AC19B865E98D20D71E15E51A1C9C9" overflow="visible"><path d="M 0 0m 6.565 5.083c 0 -0.143 0.052 -0.273 0.156 -0.364c 0.325 -0.273 0.481 -0.637 0.481 -1.079c 0 -0.169 -0.013 -0.325 -0.052 -0.468c -0.26 -0.988 -0.949 -2.288 -2.002 -2.288c -0.676 0 -1.079 0.364 -1.209 1.092c 0.169 0.351 0.299 0.715 0.39 1.118c 0.039 0.143 0.052 0.26 0.052 0.338c 0 0.26 -0.104 0.39 -0.299 0.39c -0.494 0 -0.624 -1.248 -0.65 -1.794c -0.481 -0.767 -1.04 -1.144 -1.703 -1.144c -0.715 0 -1.066 0.468 -1.066 1.391c 0 0.26 0.039 0.533 0.104 0.819c 0.143 0.572 0.52 1.287 1.131 2.132c 0.052 0.065 0.078 0.13 0.078 0.195c 0 0.169 -0.091 0.26 -0.286 0.26c -0.091 0 -0.182 -0.039 -0.26 -0.13c -0.637 -0.871 -1.261 -2.405 -1.261 -3.822c 0 -1.248 0.468 -1.872 1.404 -1.872c 0.741 0 1.378 0.429 1.937 1.274c 0.182 -0.845 0.676 -1.274 1.469 -1.274c 0.429 0 0.832 0.169 1.196 0.507c 0.611 0.572 1.066 1.482 1.378 2.73c 0.195 0.793 0.299 1.352 0.299 1.703c 0 0.377 -0.091 0.65 -0.273 0.819c -0.091 0.091 -0.208 0.13 -0.325 0.13c -0.338 0 -0.689 -0.325 -0.689 -0.663Z "/></symbol><symbol id="g92EDD795C1990AE86A5F909996C892B5" overflow="visible"><path d="M 0 0m 4.3134 1.1466c -0.0546 0 -0.1092 -0.0364 -0.1638 -0.1092c -0.4641 -0.5369 -1.092 -0.8099 -1.8746 -0.8099c -0.6006 0 -0.9009 0.3185 -0.9009 0.9646c 0 0.6188 0.3003 1.456 0.5824 1.82c 0.3458 0.455 0.7553 0.6825 1.2285 0.6825c 0.3185 0 0.546 -0.0728 0.7007 -0.2184c -0.2821 -0.0637 -0.4186 -0.2366 -0.4186 -0.5187c 0 -0.2457 0.1274 -0.364 0.3822 -0.364c 0.3367 0 0.546 0.273 0.546 0.6097c 0 0.5733 -0.5824 0.8099 -1.2103 0.8099c -0.6643 0 -1.274 -0.2457 -1.8109 -0.7553c -0.5369 -0.5096 -0.8099 -1.092 -0.8099 -1.7563c 0 -0.9555 0.7371 -1.5925 1.6926 -1.5925c 0.5642 0 1.0465 0.1092 1.4469 0.3276c 0.2093 0.1183 0.8008 0.5005 0.8008 0.7189c 0 0.0819 -0.1092 0.1911 -0.1911 0.1911Z "/></symbol></defs></svg>