<svg viewBox="0 0 91.284122222 34.463" width="91.284122222pt" height="34.463pt" xmlns="http://www.w3.org/2000/svg" xmlns:xlink="http://www.w3.org/1999/xlink" xmlns:h5="http://www.w3.org/1999/xhtml"><g transform="matrix(1 0 0 -1 6.5 21.359)"><use xlink:href="#gA7C36109E42D4F0EB4F28B48DBFDEDEE" x="0" y="0" fill="#e6edf3" fill-rule="nonzero"/></g><g transform="matrix(1 0 0 -1 20.277111111 21.359)"><use xlink:href="#g13AFF74D87C474CFAF661EEAD0458F8B" x="0" y="0" fill="#e6edf3" fill-rule="nonzero"/></g><g transform="matrix(1 0 0 -1 35.302222222 12.558)"><use xlink:href="#g6B3DB0E0ADE6D994825CC39624067234" x="0" y="0" fill="#e6edf3" fill-rule="nonzero"/></g><g transform="matrix(1 0 0 -1 35.302222222 30.277)"><use xlink:href="#gD5105E1CC4CD5829824BEAD95693D8C5" x="0" y="0" fill="#e6edf3" fill-rule="nonzero"/></g><path fill="none" stroke="#e6edf3" stroke-width="0.624" stroke-linecap="butt" stroke-linejoin="miter" stroke-miterlimit="4" transform="translate(35.302222222 18.109)" d="M 0 0h 6.5"/><g transform="matrix(1 0 0 -1 43.102222222 21.359)"><use xlink:href="#g5AAD6B38658AAA3198C014B3B7995D3E" x="0" y="0" fill="#e6edf3" fill-rule="nonzero"/></g><g transform="matrix(1 0 0 -1 50.902222222 21.359)"><use xlink:href="#g6F6DC66390EDB4031842963E7A41B7D9" x="0" y="0" fill="#e6edf3" fill-rule="nonzero"/></g><g transform="matrix(1 0 0 -1 62.316222222 21.359)"><use xlink:href="#g2F389E882241F7D883BD9BE49B9B556F" x="0" y="0" fill="#e6edf3" fill-rule="nonzero"/></g><g transform="matrix(1 0 0 -1 67.373222222 21.359)"><use xlink:href="#gF291FCC7BBD497BC1B54131876EE661E" x="0" y="0" fill="#e6edf3" fill-rule="nonzero"/></g><g transform="matrix(1 0 0 -1 73.821222222 16.64)"><use xlink:href="#g8A6A9074F91D642F82CC8BE39AC39D3A" x="0" y="0" fill="#e6edf3" fill-rule="nonzero"/></g><g transform="matrix(1 0 0 -1 79.727122222 21.359)"><use xlink:href="#g77D2A3BE49641BC9FE86B31DAB4932B4" x="0" y="0" fill="#e6edf3" fill-rule="nonzero"/></g><defs><symbol id="gA7C36109E42D4F0EB4F28B48DBFDEDEE" overflow="visible"><path d="M 0 0m 7.215 8.879h -4.16c -0.299 0 -0.442 -0.013 -0.442 -0.299c 0 -0.143 0.143 -0.208 0.429 -0.208c 0.26 0 0.78 0.039 0.78 -0.169c 0 -0.026 -0.013 -0.104 -0.052 -0.234l -1.716 -6.903c -0.078 -0.286 -0.208 -0.455 -0.39 -0.52c -0.091 -0.026 -0.325 -0.039 -0.728 -0.039c -0.286 0 -0.416 -0.026 -0.416 -0.299c 0 -0.143 0.078 -0.208 0.247 -0.208l 1.625 0.039l 0.832 -0.013c 0.143 0 0.663 -0.026 0.832 -0.026c 0.208 0 0.312 0.104 0.312 0.312c 0 0.13 -0.143 0.195 -0.416 0.195c -0.52 0 -0.78 0.052 -0.78 0.169c 0 0 0.013 0.039 0.039 0.208l 0.78 3.172h 2.145c 0.845 0 1.651 0.26 2.405 0.767c 0.845 0.559 1.261 1.248 1.261 2.067c 0 1.287 -1.222 1.989 -2.587 1.989Z m -0.403 -0.507c 1.131 0 1.69 -0.39 1.69 -1.17c 0 -0.728 -0.364 -1.703 -0.741 -2.041c -0.494 -0.442 -1.144 -0.663 -1.95 -0.663h -1.742l 0.858 3.432c 0.104 0.442 0.104 0.442 0.65 0.442Z "/></symbol><symbol id="g13AFF74D87C474CFAF661EEAD0458F8B" overflow="visible"><path d="M 0 0m 9.074 4.771h -8.034c -0.208 0 -0.312 -0.104 -0.312 -0.299c 0 -0.195 0.104 -0.299 0.312 -0.299h 8.034c 0.208 0 0.312 0.104 0.312 0.299c 0 0.156 -0.143 0.299 -0.312 0.299Z m 0 -2.444h -8.034c -0.208 0 -0.312 -0.104 -0.312 -0.299c 0 -0.195 0.104 -0.299 0.312 -0.299h 8.034c 0.208 0 0.312 0.104 0.312 0.299c 0 0.169 -0.143 0.299 -0.312 0.299Z "/></symbol><symbol id="g6B3DB0E0ADE6D994825CC39624067234" overflow="visible"><path d="M 0 0m 3.497 8.658c -0.533 -0.546 -1.313 -0.819 -2.34 -0.819v -0.507c 0.676 0 1.235 0.104 1.664 0.312v -6.578c 0 -0.234 -0.052 -0.39 -0.169 -0.455c -0.117 -0.065 -0.442 -0.104 -0.962 -0.104h -0.455v -0.507c 0.325 0.026 1.027 0.039 2.106 0.039c 1.079 0 1.781 -0.013 2.106 -0.039v 0.507h -0.455c -0.533 0 -0.858 0.039 -0.962 0.104c -0.104 0.065 -0.169 0.221 -0.169 0.455v 7.202c 0 0.312 -0.026 0.39 -0.364 0.39Z "/></symbol><symbol id="gD5105E1CC4CD5829824BEAD95693D8C5" overflow="visible"><path d="M 0 0m 3.939 4.589c 0.858 0.325 1.664 1.144 1.664 2.249c 0 0.559 -0.273 1.014 -0.806 1.365c -0.468 0.299 -1.001 0.455 -1.599 0.455c -0.585 0 -1.092 -0.156 -1.547 -0.455c -0.507 -0.338 -0.767 -0.78 -0.767 -1.339c 0 -0.429 0.286 -0.728 0.702 -0.728c 0.416 0 0.702 0.299 0.702 0.715c 0 0.429 -0.247 0.663 -0.741 0.689c 0.338 0.455 0.871 0.689 1.599 0.689c 0.78 0 1.17 -0.455 1.17 -1.378c 0 -0.546 -0.104 -1.001 -0.299 -1.378c -0.351 -0.624 -0.832 -0.741 -1.638 -0.741c -0.156 -0.026 -0.234 -0.091 -0.234 -0.208c 0 -0.195 0.091 -0.195 0.351 -0.195h 0.559c 0.975 0 1.469 -0.689 1.469 -2.08c 0 -1.105 -0.403 -2.067 -1.391 -2.067c -0.845 0 -1.469 0.286 -1.846 0.858c 0.455 -0.013 0.793 0.325 0.793 0.767c 0 0.442 -0.325 0.767 -0.767 0.767c -0.507 0 -0.767 -0.26 -0.767 -0.793c 0 -0.637 0.286 -1.144 0.858 -1.547c 0.507 -0.351 1.105 -0.52 1.768 -0.52c 0.741 0 1.378 0.247 1.937 0.728c 0.559 0.481 0.832 1.079 0.832 1.807c 0 1.222 -0.962 2.067 -2.002 2.34Z "/></symbol><symbol id="g5AAD6B38658AAA3198C014B3B7995D3E" overflow="visible"><path d="M 0 0m 6.981 1.781c -0.299 -1.027 -0.728 -1.547 -1.261 -1.547c -0.169 0 -0.26 0.13 -0.26 0.377c 0 0.182 0.078 0.481 0.234 0.884c 0.52 1.417 0.78 2.353 0.78 2.834c 0 0.91 -0.611 1.417 -1.521 1.417c -0.767 0 -1.43 -0.338 -1.963 -1.027c -0.104 0.572 -0.559 1.027 -1.222 1.027c -0.728 0 -1.014 -0.676 -1.196 -1.261c -0.13 -0.416 -0.195 -0.663 -0.195 -0.754c 0 -0.117 0.065 -0.182 0.208 -0.182c 0.065 0 0.104 0.013 0.143 0.039c 0.065 0.117 0.104 0.208 0.117 0.299c 0.234 0.988 0.533 1.482 0.884 1.482c 0.234 0 0.351 -0.182 0.351 -0.546c 0 -0.169 -0.065 -0.52 -0.208 -1.053l -0.741 -2.951c -0.039 -0.169 -0.117 -0.507 -0.117 -0.572c 0 -0.26 0.143 -0.39 0.429 -0.39c 0.247 0 0.429 0.13 0.52 0.39c 0.026 0.065 0.104 0.39 0.247 0.949l 0.273 1.157l 0.39 1.482c 0.143 0.299 0.364 0.598 0.637 0.91c 0.377 0.416 0.845 0.624 1.404 0.624c 0.429 0 0.637 -0.286 0.637 -0.845c 0 -0.494 -0.273 -1.482 -0.832 -2.964c -0.091 -0.234 -0.13 -0.429 -0.13 -0.598c 0 -0.637 0.481 -1.105 1.105 -1.105c 0.572 0 1.027 0.325 1.352 0.975c 0.247 0.52 0.377 0.871 0.377 1.04c 0 0.117 -0.065 0.182 -0.208 0.182c -0.039 0 -0.234 -0.117 -0.234 -0.273Z "/></symbol><symbol id="g6F6DC66390EDB4031842963E7A41B7D9" overflow="visible"><path d="M 0 0m 8.541 5.746c -0.793 0 -1.482 -0.39 -2.067 -1.157c -0.117 0.767 -0.611 1.157 -1.495 1.157c -0.767 0 -1.43 -0.338 -1.976 -1.027c -0.104 0.572 -0.559 1.027 -1.222 1.027c -0.533 0 -0.923 -0.429 -1.196 -1.274c -0.143 -0.416 -0.208 -0.663 -0.208 -0.741c 0 -0.117 0.065 -0.182 0.208 -0.182c 0.065 0 0.104 0.013 0.143 0.039c 0.065 0.117 0.104 0.208 0.13 0.299c 0.234 0.988 0.533 1.482 0.884 1.482c 0.234 0 0.351 -0.182 0.351 -0.546c 0 -0.169 -0.065 -0.52 -0.208 -1.053l -0.741 -2.951c -0.052 -0.156 -0.117 -0.494 -0.117 -0.572c 0 -0.26 0.143 -0.39 0.416 -0.39c 0.26 0 0.442 0.13 0.533 0.39c 0.013 0.065 0.104 0.39 0.247 0.949l 0.273 1.157l 0.39 1.482c 0.143 0.299 0.364 0.598 0.65 0.91c 0.377 0.416 0.845 0.624 1.404 0.624c 0.429 0 0.637 -0.286 0.637 -0.845c 0 -0.169 -0.065 -0.52 -0.195 -1.053l -0.351 -1.482c -0.091 -0.377 -0.299 -1.157 -0.403 -1.573c -0.013 -0.091 -0.026 -0.143 -0.026 -0.169c 0 -0.26 0.143 -0.39 0.429 -0.39c 0.143 0 0.247 0.039 0.338 0.13c 0.195 0.195 0.208 0.286 0.286 0.637l 0.767 3.081c 0.039 0.169 0.221 0.468 0.533 0.884c 0.39 0.52 0.91 0.78 1.547 0.78c 0.429 0 0.637 -0.286 0.637 -0.845c 0 -0.507 -0.26 -1.456 -0.793 -2.847c -0.117 -0.299 -0.169 -0.546 -0.169 -0.715c 0 -0.637 0.481 -1.105 1.105 -1.105c 0.585 0 1.027 0.325 1.352 0.975c 0.26 0.52 0.39 0.871 0.39 1.04c 0 0.117 -0.065 0.182 -0.208 0.182c -0.091 -0.013 -0.182 -0.13 -0.247 -0.273c -0.286 -1.027 -0.702 -1.547 -1.261 -1.547c -0.169 0 -0.26 0.13 -0.26 0.377c 0 0.195 0.078 0.481 0.234 0.884c 0.533 1.391 0.793 2.34 0.793 2.834c 0 0.923 -0.611 1.417 -1.534 1.417Z "/></symbol><symbol id="g2F389E882241F7D883BD9BE49B9B556F" overflow="visible"><path d="M 0 0m 4.069 -3.25c 0.195 0 0.299 0.104 0.299 0.312c 0 0.039 0 0.078 -0.013 0.104l -2.301 6.084l 2.301 6.071c 0.013 0.026 0.013 0.065 0.013 0.117c 0 0.208 -0.104 0.312 -0.299 0.312c -0.143 0 -0.234 -0.065 -0.286 -0.195l -2.34 -6.188c -0.013 -0.026 -0.013 -0.065 -0.013 -0.117c 0 -0.039 0 -0.078 0.013 -0.104l 2.34 -6.201c 0.052 -0.13 0.143 -0.195 0.286 -0.195Z "/></symbol><symbol id="gF291FCC7BBD497BC1B54131876EE661E" overflow="visible"><path d="M 0 0m 4.797 5.083c 0 -0.104 0.117 -0.273 0.325 -0.533c 0.208 -0.26 0.312 -0.559 0.312 -0.897c 0 -0.377 -0.182 -1.014 -0.559 -1.911c -0.273 -0.624 -0.897 -1.508 -1.664 -1.508c -0.598 0 -0.897 0.351 -0.897 1.066c 0 0.507 0.247 1.404 0.741 2.691c 0.104 0.273 0.156 0.494 0.156 0.65c 0 0.65 -0.442 1.105 -1.092 1.105c -0.572 0 -1.027 -0.325 -1.352 -0.975c -0.26 -0.533 -0.39 -0.871 -0.39 -1.04c 0 -0.117 0.065 -0.182 0.208 -0.182c 0.169 0 0.195 0.078 0.247 0.26c 0.299 1.04 0.715 1.56 1.248 1.56c 0.169 0 0.26 -0.117 0.26 -0.364c 0 -0.208 -0.065 -0.494 -0.208 -0.871c -0.481 -1.287 -0.728 -2.158 -0.728 -2.639c 0 -0.663 0.221 -1.118 0.663 -1.365c 0.351 -0.182 0.715 -0.273 1.092 -0.273c 1.157 0 1.963 1.248 2.301 2.249c 0.416 1.222 0.624 2.119 0.624 2.691c 0 0.637 -0.208 0.949 -0.611 0.949c -0.325 0 -0.676 -0.338 -0.676 -0.663Z "/></symbol><symbol id="g8A6A9074F91D642F82CC8BE39AC39D3A" overflow="visible"><path d="M 0 0m 1.0829 3.8584c 0.2912 0 0.5096 0.2184 0.5096 0.5096c 0 0.3276 -0.1729 0.5005 -0.5096 0.5096c 0.2002 0.4277 0.6552 0.7735 1.2467 0.7735c 0.8008 0 1.3286 -0.6006 1.3286 -1.4014c 0 -0.4368 -0.1547 -0.8554 -0.4732 -1.2649c -0.1547 -0.2093 -0.273 -0.3549 -0.3549 -0.4368l -2.1567 -2.1385c -0.1183 -0.1092 -0.1001 -0.1365 -0.1001 -0.4095h 3.7492l 0.2821 1.7108h -0.3822c -0.0637 -0.4823 -0.1365 -0.7644 -0.2184 -0.8281c -0.0455 -0.0273 -0.3276 -0.0455 -0.8645 -0.0455h -1.547c 0.6097 0.5369 1.1739 1.0192 1.7108 1.4469c 0.4095 0.3185 0.7007 0.6006 0.8827 0.8463c 0.273 0.3549 0.4095 0.728 0.4095 1.1193c 0 0.5642 -0.2184 1.0101 -0.6643 1.3377c -0.3913 0.3003 -0.8827 0.455 -1.4651 0.455c -0.5005 0 -0.9282 -0.1456 -1.3013 -0.4368c -0.3913 -0.3185 -0.5915 -0.7189 -0.5915 -1.2103c 0 -0.3094 0.2275 -0.5369 0.5096 -0.5369Z "/></symbol><symbol id="g77D2A3BE49641BC9FE86B31DAB4932B4" overflow="visible"><path d="M 0 0m 3.614 3.146c 0.013 0.026 0.013 0.065 0.013 0.104c 0 0.039 0 0.078 -0.013 0.104l -2.34 6.201c -0.052 0.13 -0.143 0.195 -0.286 0.195c -0.195 0 -0.299 -0.104 -0.299 -0.312c 0 -0.039 0 -0.078 0.013 -0.104l 2.301 -6.084l -2.301 -6.071c -0.013 -0.026 -0.013 -0.065 -0.013 -0.117c 0 -0.208 0.104 -0.312 0.299 -0.312c 0.143 0 0.234 0.065 0.286 0.195Z "/></symbol></defs></svg>