<svg viewBox="0 0 285.591655556 44.5705" width="285.591655556pt" height="44.5705pt" xmlns="http://www.w3.org/2000/svg" xmlns:xlink="http://www.w3.org/1999/xlink" xmlns:h5="http://www.w3.org/1999/xhtml"><g transform="matrix(1 0 0 -1 6.5 24.5583)"><use xlink:href="#gD83AEAE39B2D396ED26985CFF34A14A" x="0" y="0" fill="#e6edf3" fill-rule="nonzero"/></g><g transform="matrix(1 0 0 -1 24.099111111 24.5583)"><use xlink:href="#g13AFF74D87C474CFAF661EEAD0458F8B" x="0" y="0" fill="#e6edf3" fill-rule="nonzero"/></g><g transform="matrix(1 0 0 -1 37.824222222 24.5583)"><use xlink:href="#g9B543B57F718853EF8F95EF155B6CF69" x="0" y="0" fill="#e6edf3" fill-rule="nonzero"/></g><g transform="matrix(1 0 0 -1 50.104888889 24.5583)"><use xlink:href="#g84C597EFF9988624DBABE6CF17069247" x="0" y="0" fill="#e6edf3" fill-rule="nonzero"/></g><g transform="matrix(1 0 0 -1 63.091888889 10.1153)"><use xlink:href="#gB520C4FDFB2403295A40FD77402E9185" x="0" y="0" fill="#e6edf3" fill-rule="nonzero"/></g><g transform="matrix(1 0 0 -1 68.324388889 12.363)"><use xlink:href="#gC40F6BBE799648F1E6B2CF1543C3A89" x="0" y="0" fill="#e6edf3" fill-rule="nonzero"/></g><g transform="matrix(1 0 0 -1 57.241888889 38.3513)"><use xlink:href="#gB520C4FDFB2403295A40FD77402E9185" x="0" y="0" fill="#e6edf3" fill-rule="nonzero"/></g><g transform="matrix(1 0 0 -1 62.474388889 40.599)"><use xlink:href="#gC48B6A210272368C1F8FEAF9557822B5" x="0" y="0" fill="#e6edf3" fill-rule="nonzero"/></g><g transform="matrix(1 0 0 -1 76.408655556 24.5583)"><use xlink:href="#gA7C36109E42D4F0EB4F28B48DBFDEDEE" x="0" y="0" fill="#e6edf3" fill-rule="nonzero"/></g><g transform="matrix(1 0 0 -1 86.574655556 24.5583)"><use xlink:href="#g6BCCDCE0D843C0F823A4CE121D6D1649" x="0" y="0" fill="#e6edf3" fill-rule="nonzero"/></g><g transform="matrix(1 0 0 -1 93.646655556 24.5583)"><use xlink:href="#g53251C539233983FE9FC826CA7FBAC4A" x="0" y="0" fill="#e6edf3" fill-rule="nonzero"/></g><g transform="matrix(1 0 0 -1 117.007655556 24.5583)"><use xlink:href="#gBF7AF9171FEC76BFAFA300BAE31F06CE" x="0" y="0" fill="#e6edf3" fill-rule="nonzero"/></g><g transform="matrix(1 0 0 -1 143.007655556 24.5583)"><use xlink:href="#g31D50A2841E51515DAE8D9B3E07A3F01" x="0" y="0" fill="#e6edf3" fill-rule="nonzero"/><use xlink:href="#gCCDACA59E6D598A65CF16A9645890FC7" x="6.5" y="0" fill="#e6edf3" fill-rule="nonzero"/><use xlink:href="#g7413A85D70934E3816A3D1EE8499A939" x="11.596" y="0" fill="#e6edf3" fill-rule="nonzero"/><use xlink:href="#g3BE14B656A783D87D3540BF1AAF22AA9" x="17.368" y="0" fill="#e6edf3" fill-rule="nonzero"/><use xlink:href="#gCE586EA61C97F3F66F171E25641C2FB8" x="28.184" y="0" fill="#e6edf3" fill-rule="nonzero"/><use xlink:href="#g3BE14B656A783D87D3540BF1AAF22AA9" x="35.412" y="0" fill="#e6edf3" fill-rule="nonzero"/><use xlink:href="#gAB7FC4F5A91F57B1AD63D36BAB8B863F" x="41.912" y="0" fill="#e6edf3" fill-rule="nonzero"/><use xlink:href="#g5D4DFCA3C00979A1E9076032CC813B65" x="45.89" y="0" fill="#e6edf3" fill-rule="nonzero"/><use xlink:href="#gBC3D9C1A249D0D4F874E09900DF515A4" x="56.706" y="0" fill="#e6edf3" fill-rule="nonzero"/><use xlink:href="#g3BE14B656A783D87D3540BF1AAF22AA9" x="60.32" y="0" fill="#e6edf3" fill-rule="nonzero"/><use xlink:href="#g8B273DA24598714A1DE03FD5302C001A" x="71.136" y="0" fill="#e6edf3" fill-rule="nonzero"/><use xlink:href="#g639DFB7C802EA1E209EC54229B0444AB" x="76.908" y="0" fill="#e6edf3" fill-rule="nonzero"/><use xlink:href="#gCCDACA59E6D598A65CF16A9645890FC7" x="84.136" y="0" fill="#e6edf3" fill-rule="nonzero"/><use xlink:href="#gC58C3D6655D393441864428999E172F2" x="89.232" y="0" fill="#e6edf3" fill-rule="nonzero"/><use xlink:href="#g3BE14B656A783D87D3540BF1AAF22AA9" x="96.096" y="0" fill="#e6edf3" fill-rule="nonzero"/></g><g transform="matrix(1 0 0 -1 249.919655556 24.5583)"><use xlink:href="#gA7C36109E42D4F0EB4F28B48DBFDEDEE" x="0" y="0" fill="#e6edf3" fill-rule="nonzero"/></g><g transform="matrix(1 0 0 -1 260.085655556 24.5583)"><use xlink:href="#gAD96C2EEE7EE2AE3951947EAB253D6C8" x="0" y="0" fill="#e6edf3" fill-rule="nonzero"/></g><g transform="matrix(1 0 0 -1 268.730655556 24.5583)"><use xlink:href="#g53251C539233983FE9FC826CA7FBAC4A" x="0" y="0" fill="#e6edf3" fill-rule="nonzero"/></g><defs><symbol id="gD83AEAE39B2D396ED26985CFF34A14A" overflow="visible"><path d="M 0 0m 12.428 8.84c -0.247 0 -1.092 0.039 -1.339 0.039c -0.195 0 -0.299 -0.104 -0.299 -0.299c 0 -0.13 0.078 -0.195 0.234 -0.208c 0.481 -0.013 0.715 -0.156 0.715 -0.442c 0 -0.078 -0.052 -0.208 -0.156 -0.403l -3.406 -5.902l -0.455 6.201c -0.052 0.468 0.26 0.546 0.845 0.546c 0.273 0 0.403 0.104 0.403 0.312c 0 0.13 -0.078 0.195 -0.247 0.195c -0.286 0 -1.287 -0.039 -1.573 -0.039c -0.247 0 -1.105 0.039 -1.352 0.039c -0.195 0 -0.299 -0.104 -0.299 -0.312c 0 -0.13 0.117 -0.195 0.364 -0.195c 0.403 0 0.611 -0.091 0.624 -0.273l 0.078 -0.975l -3.172 -5.499l -0.468 6.344c -0.039 0.325 0.507 0.403 0.923 0.403c 0.221 0 0.325 0.104 0.325 0.312c 0 0.13 -0.078 0.195 -0.234 0.195c -0.286 0 -1.3 -0.039 -1.586 -0.039c -0.247 0 -1.105 0.039 -1.352 0.039c -0.195 0 -0.286 -0.104 -0.286 -0.299c 0 -0.143 0.13 -0.208 0.377 -0.208c 0.546 0 0.598 -0.026 0.624 -0.416l 0.585 -7.865c 0.013 -0.247 0.104 -0.377 0.26 -0.377c 0.169 0.026 0.234 0.065 0.338 0.26c 0.013 0.013 0.013 0.026 0.013 0.039l 3.705 6.409l 0.468 -6.331c 0.013 -0.247 0.104 -0.377 0.26 -0.377c 0.13 0 0.247 0.091 0.351 0.273l 4.238 7.319c 0.351 0.637 0.598 1.001 1.391 1.066c 0.234 0.026 0.299 0.091 0.299 0.312c 0 0.13 -0.065 0.195 -0.208 0.195c -0.182 0 -0.806 -0.039 -0.988 -0.039Z "/></symbol><symbol id="g13AFF74D87C474CFAF661EEAD0458F8B" overflow="visible"><path d="M 0 0m 9.074 4.771h -8.034c -0.208 0 -0.312 -0.104 -0.312 -0.299c 0 -0.195 0.104 -0.299 0.312 -0.299h 8.034c 0.208 0 0.312 0.104 0.312 0.299c 0 0.156 -0.143 0.299 -0.312 0.299Z m 0 -2.444h -8.034c -0.208 0 -0.312 -0.104 -0.312 -0.299c 0 -0.195 0.104 -0.299 0.312 -0.299h 8.034c 0.208 0 0.312 0.104 0.312 0.299c 0 0.169 -0.143 0.299 -0.312 0.299Z "/></symbol><symbol id="g9B543B57F718853EF8F95EF155B6CF69" overflow="visible"><path d="M 0 0m 9.074 3.51h -8.034c -0.208 0 -0.312 -0.091 -0.312 -0.26c 0 -0.169 0.104 -0.26 0.312 -0.26h 8.034c 0.208 0 0.312 0.091 0.312 0.26c 0 0.156 -0.156 0.26 -0.312 0.26Z "/></symbol><symbol id="g84C597EFF9988624DBABE6CF17069247" overflow="visible"><path d="M 0 0m 10.803 17.693c -0.611 0 -1.157 -0.559 -1.664 -1.677c -0.247 -0.533 -0.507 -1.339 -0.793 -2.418c -1.261 -4.654 -2.21 -9.191 -3.211 -15.119c -0.455 -2.743 -0.832 -4.732 -1.131 -5.941c -0.533 -2.223 -1.144 -3.341 -1.82 -3.341c -0.247 0 -0.468 0.065 -0.663 0.208c 0.377 0.065 0.559 0.286 0.559 0.676c 0 0.377 -0.286 0.676 -0.663 0.676c -0.455 0 -0.689 -0.234 -0.689 -0.689c 0 -0.754 0.741 -1.261 1.482 -1.261c 0.949 0 1.729 0.754 2.34 2.249c 0.325 0.793 0.767 2.327 1.313 4.576c 0.949 3.861 1.794 7.995 2.535 12.389c 0.52 3.081 0.988 5.421 1.391 7.02c 0.377 1.508 0.728 2.262 1.04 2.262c 0.26 0 0.481 -0.065 0.65 -0.208c -0.377 -0.065 -0.572 -0.286 -0.572 -0.676c 0 -0.377 0.286 -0.676 0.663 -0.676c 0.455 0 0.689 0.234 0.689 0.689c 0 0.715 -0.702 1.261 -1.456 1.261Z "/></symbol><symbol id="gB520C4FDFB2403295A40FD77402E9185" overflow="visible"><path d="M 0 0m 6.9524 6.1789c -0.1729 0 -0.7644 0.0364 -0.9373 0.0364c -0.1456 0 -0.2184 -0.0819 -0.2184 -0.2366c 0 -0.1001 0.0637 -0.1547 0.2002 -0.1638c 0.2275 -0.0091 0.3367 -0.0819 0.3367 -0.2184c 0 -0.0728 -0.0546 -0.1911 -0.1547 -0.3458l -2.912 -4.277l -0.8008 4.5136c -0.0091 0.0637 -0.0182 0.1001 -0.0182 0.1274c 0 0.1365 0.1729 0.2002 0.5278 0.2002c 0.1911 0 0.3094 0.0455 0.3094 0.2366v 0.0364c -0.0182 0.0819 -0.0819 0.1274 -0.1911 0.1274c -0.2093 0 -0.9464 -0.0364 -1.1557 -0.0364c -0.1911 0 -0.8099 0.0364 -1.001 0.0364c -0.1456 0 -0.2184 -0.0819 -0.2184 -0.2366c 0 -0.1092 0.091 -0.1638 0.2639 -0.1638c 0.3913 0 0.4732 0.0273 0.5187 -0.2548l 0.9828 -5.4691c 0.0273 -0.182 0.1183 -0.273 0.2548 -0.273c 0.1274 0 0.2366 0.0728 0.3367 0.2093l 3.4398 5.0596c 0.3094 0.455 0.6734 0.7007 1.0829 0.7371c 0.1638 0.0091 0.2366 0.0728 0.2366 0.2275c 0 0.1092 -0.0546 0.1638 -0.1638 0.1638c -0.1274 0 -0.5915 -0.0364 -0.7189 -0.0364Z "/></symbol><symbol id="gC40F6BBE799648F1E6B2CF1543C3A89" overflow="visible"><path d="M 0 0m 4.498 4.0625c 0 0.3575 -0.364 0.52 -0.754 0.52c -0.559 0 -0.91 -0.3575 -1.0595 -1.079l -0.1235 -0.689h -0.5655c -0.169 0 -0.247 -0.052 -0.247 -0.2015c 0 -0.117 0.0845 -0.1365 0.2275 -0.1365h 0.533l -0.234 -1.339c -0.1495 -0.8645 -0.26 -1.443 -0.3315 -1.7355c -0.0845 -0.3055 -0.221 -0.4615 -0.4225 -0.4615c -0.0845 0 -0.1625 0.013 -0.234 0.039c 0.1495 0.0845 0.221 0.208 0.221 0.3705c 0 0.1755 -0.1365 0.2925 -0.3055 0.2925c -0.234 0 -0.4225 -0.221 -0.4225 -0.455c 0 -0.351 0.3575 -0.52 0.7345 -0.52c 0.3055 0 0.5785 0.169 0.8255 0.507c 0.182 0.2535 0.338 0.8515 0.403 1.196l 0.364 2.106h 0.6955c 0.169 0 0.2535 0.0715 0.2535 0.208c 0 0.1105 -0.091 0.13 -0.234 0.13h -0.65c 0.1365 0.8515 0.2275 1.3 0.273 1.352c 0.091 0.0975 0.1885 0.143 0.2925 0.143c 0.091 0 0.1755 -0.013 0.2535 -0.0455c -0.1495 -0.078 -0.221 -0.2015 -0.221 -0.364c 0 -0.1755 0.1365 -0.2925 0.3055 -0.2925c 0.234 0 0.4225 0.221 0.4225 0.455Z "/></symbol><symbol id="gC48B6A210272368C1F8FEAF9557822B5" overflow="visible"><path d="M 0 0m 2.5805 4.0365c 0 0.1755 -0.1365 0.299 -0.3055 0.299c -0.208 0 -0.4095 -0.2015 -0.4095 -0.4095c 0 -0.169 0.1235 -0.3055 0.299 -0.3055c 0.208 0 0.416 0.208 0.416 0.416Z m -0.9425 -1.144c -0.3185 0 -0.5785 -0.1495 -0.78 -0.4485c -0.1755 -0.2535 -0.2665 -0.4485 -0.2665 -0.5785c 0 -0.0715 0.052 -0.1105 0.156 -0.1105c 0.0845 0 0.143 0.0455 0.1755 0.143c 0.091 0.312 0.3445 0.7215 0.689 0.7215c 0.1105 0 0.169 -0.0715 0.169 -0.2145c 0 -0.0715 -0.013 -0.1495 -0.039 -0.2275c -0.182 -0.455 -0.3705 -0.91 -0.559 -1.3585c -0.0455 -0.1365 -0.0715 -0.2405 -0.0715 -0.299c 0 -0.364 0.3445 -0.5915 0.7215 -0.5915c 0.3185 0 0.5785 0.1495 0.78 0.4485c 0.1755 0.26 0.2665 0.4485 0.2665 0.572c 0 0.078 -0.052 0.117 -0.156 0.117c -0.078 0 -0.13 -0.026 -0.1495 -0.078c -0.0195 -0.052 -0.026 -0.078 -0.0325 -0.091c -0.0975 -0.299 -0.351 -0.6955 -0.6825 -0.6955c -0.1105 0 -0.169 0.0715 -0.169 0.2145c 0 0.0715 0.026 0.182 0.0845 0.3185l 0.494 1.235c 0.0585 0.1495 0.091 0.26 0.091 0.3315c 0 0.3705 -0.351 0.5915 -0.7215 0.5915Z "/></symbol><symbol id="gA7C36109E42D4F0EB4F28B48DBFDEDEE" overflow="visible"><path d="M 0 0m 7.215 8.879h -4.16c -0.299 0 -0.442 -0.013 -0.442 -0.299c 0 -0.143 0.143 -0.208 0.429 -0.208c 0.26 0 0.78 0.039 0.78 -0.169c 0 -0.026 -0.013 -0.104 -0.052 -0.234l -1.716 -6.903c -0.078 -0.286 -0.208 -0.455 -0.39 -0.52c -0.091 -0.026 -0.325 -0.039 -0.728 -0.039c -0.286 0 -0.416 -0.026 -0.416 -0.299c 0 -0.143 0.078 -0.208 0.247 -0.208l 1.625 0.039l 0.832 -0.013c 0.143 0 0.663 -0.026 0.832 -0.026c 0.208 0 0.312 0.104 0.312 0.312c 0 0.13 -0.143 0.195 -0.416 0.195c -0.52 0 -0.78 0.052 -0.78 0.169c 0 0 0.013 0.039 0.039 0.208l 0.78 3.172h 2.145c 0.845 0 1.651 0.26 2.405 0.767c 0.845 0.559 1.261 1.248 1.261 2.067c 0 1.287 -1.222 1.989 -2.587 1.989Z m -0.403 -0.507c 1.131 0 1.69 -0.39 1.69 -1.17c 0 -0.728 -0.364 -1.703 -0.741 -2.041c -0.494 -0.442 -1.144 -0.663 -1.95 -0.663h -1.742l 0.858 3.432c 0.104 0.442 0.104 0.442 0.65 0.442Z "/></symbol><symbol id="g6BCCDCE0D843C0F823A4CE121D6D1649" overflow="visible"><path d="M 0 0m 5.577 8.216l -0.767 -3.159c -0.273 0.481 -0.65 0.728 -1.157 0.728c -0.845 0 -1.586 -0.429 -2.236 -1.3c -0.598 -0.806 -0.897 -1.651 -0.897 -2.522c 0 -1.144 0.663 -2.106 1.755 -2.106c 0.559 0 1.105 0.299 1.625 0.91c 0.143 -0.494 0.585 -0.91 1.196 -0.91c 0.897 0 1.183 1.066 1.378 2.028c 0 0.117 -0.065 0.182 -0.195 0.182c -0.117 0 -0.195 -0.091 -0.234 -0.273c -0.26 -1.027 -0.572 -1.547 -0.923 -1.547c -0.221 0 -0.338 0.182 -0.338 0.533c 0 0.195 0.026 0.403 0.078 0.611l 1.846 7.436v 0.052c -0.039 0.091 -0.117 0.143 -0.221 0.143c -0.299 0 -0.845 -0.052 -1.625 -0.143c -0.143 -0.013 -0.221 -0.117 -0.221 -0.299c 0 -0.13 0.117 -0.195 0.351 -0.195c 0.247 0 0.585 0.013 0.585 -0.169Z m -1.144 -3.328c 0.13 -0.273 0.195 -0.455 0.195 -0.572c -0.013 -0.052 -0.026 -0.117 -0.039 -0.208l -0.637 -2.522c -0.039 -0.143 -0.13 -0.299 -0.247 -0.455c -0.481 -0.585 -0.949 -0.884 -1.404 -0.884c -0.507 0 -0.767 0.39 -0.767 1.157c 0 0.312 0.078 0.78 0.234 1.404c 0.273 1.105 0.663 1.859 1.144 2.262c 0.26 0.221 0.507 0.325 0.754 0.325c 0.351 0 0.611 -0.169 0.767 -0.507Z "/></symbol><symbol id="g53251C539233983FE9FC826CA7FBAC4A" overflow="visible"><path d="M 0 0m 8.723 8.84c -0.247 0 -1.027 0.039 -1.274 0.039c -0.195 0 -0.299 -0.104 -0.299 -0.299c 0 -0.13 0.091 -0.195 0.26 -0.208c 0.364 -0.013 0.546 -0.143 0.546 -0.364c 0 -0.117 -0.065 -0.273 -0.182 -0.468l -3.874 -6.149l -0.858 6.656c 0 0.221 0.273 0.325 0.832 0.325c 0.26 0 0.377 0.091 0.377 0.312c 0 0.13 -0.078 0.195 -0.234 0.195c -0.286 0 -1.3 -0.039 -1.586 -0.039c -0.26 0 -1.144 0.039 -1.404 0.039c -0.195 0 -0.299 -0.104 -0.299 -0.299c 0 -0.143 0.13 -0.208 0.377 -0.208c 0.221 0 0.377 -0.026 0.481 -0.052c 0.208 -0.065 0.195 -0.091 0.234 -0.338l 1.014 -7.93c 0.039 -0.221 0.143 -0.338 0.312 -0.338c 0.169 0 0.299 0.091 0.403 0.26l 4.628 7.358c 0.299 0.468 0.585 0.767 0.871 0.884c 0.195 0.091 0.442 0.143 0.728 0.156c 0.143 0.013 0.208 0.104 0.221 0.299c 0.013 0.143 -0.065 0.208 -0.221 0.208c -0.195 0 -0.858 -0.039 -1.053 -0.039Z "/></symbol><symbol id="gBF7AF9171FEC76BFAFA300BAE31F06CE" overflow="visible"><path d="M 0 0m 12.545 3.029c 0.117 0.039 0.169 0.104 0.169 0.221c 0 0.117 -0.052 0.182 -0.169 0.221c -0.793 0.221 -1.599 0.663 -2.392 1.352c -0.572 0.507 -1.027 1.092 -1.378 1.768c -0.065 0.117 -0.156 0.169 -0.273 0.169c -0.208 0 -0.312 -0.104 -0.312 -0.312c 0 -0.026 0.013 -0.065 0.026 -0.13c 0.299 -0.572 0.663 -1.079 1.079 -1.521h -5.59c 0.416 0.442 0.78 0.949 1.079 1.521c 0.013 0.065 0.026 0.104 0.026 0.13c 0 0.208 -0.104 0.312 -0.312 0.312c -0.117 0 -0.208 -0.052 -0.273 -0.169c -0.351 -0.676 -0.806 -1.261 -1.378 -1.768c -0.793 -0.689 -1.599 -1.131 -2.392 -1.352c -0.117 -0.039 -0.169 -0.104 -0.169 -0.221c 0 -0.117 0.052 -0.182 0.169 -0.221c 0.793 -0.221 1.599 -0.663 2.392 -1.352c 0.572 -0.507 1.027 -1.092 1.378 -1.768c 0.065 -0.117 0.156 -0.169 0.273 -0.169c 0.208 0 0.312 0.104 0.312 0.312c 0 0.026 -0.013 0.065 -0.026 0.13c -0.299 0.572 -0.663 1.079 -1.079 1.521h 5.59c -0.416 -0.442 -0.78 -0.949 -1.079 -1.521c -0.013 -0.065 -0.026 -0.104 -0.026 -0.13c 0 -0.208 0.104 -0.312 0.312 -0.312c 0.117 0 0.208 0.052 0.273 0.169c 0.351 0.676 0.806 1.261 1.378 1.768c 0.793 0.689 1.599 1.131 2.392 1.352Z m -2.587 1.157c 0.468 -0.377 0.988 -0.689 1.573 -0.936c -0.585 -0.247 -1.105 -0.559 -1.573 -0.936h -6.916c -0.468 0.377 -0.988 0.689 -1.573 0.936c 0.585 0.247 1.105 0.559 1.573 0.936Z "/></symbol><symbol id="g31D50A2841E51515DAE8D9B3E07A3F01" overflow="visible"><path d="M 0 0m 4.381 9.074c -0.169 0 -0.312 -0.078 -0.429 -0.234l -1.56 -2.002l 0.286 -0.299l 1.976 1.599c 0.156 0.117 0.234 0.26 0.234 0.416c 0 0.273 -0.247 0.52 -0.507 0.52Z m 1.898 -7.878v 0.767h -0.416v -0.767c 0 -0.507 -0.143 -0.767 -0.416 -0.767c -0.26 0 -0.416 0.325 -0.416 0.585v 2.574c 0 0.455 -0.052 0.793 -0.143 1.027c -0.299 0.78 -1.222 1.248 -2.119 1.248c -1.001 0 -1.989 -0.572 -1.989 -1.508c 0 -0.429 0.221 -0.65 0.65 -0.65c 0.429 0 0.637 0.208 0.637 0.637c 0 0.377 -0.195 0.598 -0.598 0.637c 0.286 0.325 0.715 0.494 1.274 0.494c 0.806 0 1.3 -0.741 1.3 -1.586v -0.429c -1.014 -0.065 -1.781 -0.221 -2.314 -0.468c -0.871 -0.403 -1.313 -0.975 -1.313 -1.716c 0 -0.351 0.13 -0.624 0.377 -0.845c 0.416 -0.377 0.988 -0.572 1.716 -0.572c 0.767 0 1.313 0.325 1.651 0.988c 0.091 -0.481 0.455 -0.923 1.014 -0.923c 0.689 0 1.105 0.559 1.105 1.274Z m -3.679 -0.949c -0.598 0 -1.092 0.442 -1.092 1.04c 0 1.209 1.248 1.742 2.535 1.794v -1.235c 0 -0.884 -0.585 -1.599 -1.443 -1.599Z "/></symbol><symbol id="gCCDACA59E6D598A65CF16A9645890FC7" overflow="visible"><path d="M 0 0m 4.732 4.914c 0 0.507 -0.481 0.832 -0.988 0.832c -0.663 0 -1.17 -0.39 -1.508 -1.183v 1.183l -1.872 -0.143v -0.494c 0.455 0 0.728 -0.039 0.832 -0.117c 0.104 -0.078 0.156 -0.247 0.156 -0.546v -3.419c 0 -0.247 -0.039 -0.403 -0.13 -0.455c -0.091 -0.052 -0.377 -0.078 -0.858 -0.078v -0.494l 1.495 0.039c 0.546 0.013 1.105 0 1.664 -0.039v 0.494h -0.312c -0.429 0 -0.702 0.039 -0.793 0.104c -0.091 0.065 -0.13 0.221 -0.13 0.455v 1.963c 0 0.559 0.104 1.066 0.299 1.495c 0.26 0.559 0.637 0.845 1.144 0.858c -0.13 -0.13 -0.195 -0.286 -0.195 -0.468c 0 -0.403 0.195 -0.598 0.598 -0.598c 0.351 0 0.598 0.273 0.598 0.611Z "/></symbol><symbol id="g7413A85D70934E3816A3D1EE8499A939" overflow="visible"><path d="M 0 0m 5.395 3.263c 0 1.495 -0.871 2.561 -2.327 2.561c -0.78 0 -1.43 -0.299 -1.963 -0.91c -0.494 -0.572 -0.741 -1.261 -0.741 -2.054c 0 -0.819 0.273 -1.508 0.819 -2.106c 0.546 -0.598 1.222 -0.897 2.028 -0.897c 0.741 0 1.313 0.26 1.703 0.767c 0.325 0.429 0.481 0.741 0.481 0.949c 0 0.13 -0.078 0.195 -0.221 0.195c -0.104 0 -0.169 -0.065 -0.208 -0.208c -0.286 -0.858 -0.845 -1.287 -1.677 -1.287c -0.585 0 -1.04 0.273 -1.391 0.832c -0.247 0.403 -0.364 1.014 -0.377 1.846h 3.51c 0.286 0 0.364 0.026 0.364 0.312Z m -1.157 1.274c 0.143 -0.429 0.208 -0.845 0.208 -1.222h -2.912c 0.039 0.858 0.26 1.443 0.65 1.742c 0.325 0.26 0.611 0.39 0.884 0.39c 0.585 0 0.975 -0.299 1.17 -0.91Z "/></symbol><symbol id="g3BE14B656A783D87D3540BF1AAF22AA9" overflow="visible"><path d="M 0 0m 6.279 1.183v 0.767h -0.416v -0.767c 0 -0.507 -0.143 -0.767 -0.416 -0.767c -0.26 0 -0.416 0.325 -0.416 0.585v 2.561c 0 0.455 -0.052 0.793 -0.143 1.027c -0.312 0.767 -1.209 1.235 -2.119 1.235c -1.001 0 -1.989 -0.559 -1.989 -1.495c 0 -0.429 0.221 -0.65 0.65 -0.65c 0.429 0 0.637 0.208 0.637 0.637c 0 0.377 -0.195 0.598 -0.598 0.637c 0.286 0.325 0.715 0.494 1.274 0.494c 0.806 0 1.3 -0.741 1.3 -1.586v -0.429c -1.014 -0.065 -1.781 -0.221 -2.314 -0.468c -0.871 -0.403 -1.313 -0.962 -1.313 -1.703c 0 -0.338 0.13 -0.624 0.377 -0.845c 0.416 -0.377 0.988 -0.559 1.716 -0.559c 0.767 0 1.313 0.325 1.651 0.988c 0.091 -0.494 0.455 -0.923 1.014 -0.923c 0.689 0 1.105 0.546 1.105 1.261Z m -3.679 -0.949c -0.598 0 -1.092 0.442 -1.092 1.04c 0 1.209 1.261 1.729 2.535 1.794v -1.235c 0 -0.871 -0.572 -1.599 -1.443 -1.599Z "/></symbol><symbol id="gCE586EA61C97F3F66F171E25641C2FB8" overflow="visible"><path d="M 0 0m 3.874 -0.143c 0.806 0 1.495 0.286 2.054 0.871c 0.559 0.585 0.845 1.274 0.845 2.093c 0 0.793 -0.26 1.495 -0.793 2.08c -0.533 0.585 -1.183 0.884 -1.976 0.884c -0.637 0 -1.209 -0.247 -1.69 -0.754v 3.991l -1.95 -0.143v -0.494c 0.468 0 0.754 -0.039 0.858 -0.117c 0.104 -0.078 0.143 -0.26 0.143 -0.559v -7.709h 0.403l 0.429 0.754c 0.416 -0.598 0.975 -0.897 1.677 -0.897Z m -0.052 0.39c -0.533 0 -0.975 0.247 -1.3 0.754c -0.117 0.169 -0.169 0.351 -0.169 0.52v 2.639c 0 0.169 0.039 0.312 0.13 0.442c 0.377 0.533 0.858 0.793 1.469 0.793c 0.533 0 0.962 -0.26 1.3 -0.793c 0.234 -0.39 0.351 -0.975 0.351 -1.768c 0 -1.404 -0.494 -2.587 -1.781 -2.587Z "/></symbol><symbol id="gAB7FC4F5A91F57B1AD63D36BAB8B863F" overflow="visible"><path d="M 0 0m 2.73 7.813c 0 0.39 -0.325 0.728 -0.715 0.728c -0.403 0 -0.728 -0.325 -0.728 -0.728c 0 -0.403 0.312 -0.741 0.715 -0.741c 0.403 0 0.728 0.338 0.728 0.741Z m 0 -8.424v 6.383l -2.015 -0.143v -0.507c 0.507 0 0.819 -0.026 0.923 -0.104c 0.104 -0.078 0.156 -0.26 0.156 -0.559v -5.096c 0 -0.364 -0.052 -0.715 -0.143 -1.04c -0.117 -0.403 -0.364 -0.598 -0.728 -0.598c -0.182 0 -0.364 0.039 -0.546 0.104c 0.247 0.117 0.364 0.312 0.364 0.585c 0 0.429 -0.208 0.65 -0.637 0.65c -0.416 0 -0.624 -0.221 -0.624 -0.65c 0 -0.702 0.715 -1.079 1.469 -1.079c 1.066 0 1.781 0.949 1.781 2.054Z "/></symbol><symbol id="g5D4DFCA3C00979A1E9076032CC813B65" overflow="visible"><path d="M 0 0m 3.237 -0.143c 0.806 0 1.482 0.286 2.041 0.858c 0.559 0.572 0.845 1.261 0.845 2.067c 0 0.819 -0.273 1.534 -0.819 2.132c -0.546 0.598 -1.235 0.91 -2.054 0.91c -0.819 0 -1.495 -0.312 -2.054 -0.91c -0.559 -0.598 -0.832 -1.313 -0.832 -2.132c 0 -0.806 0.273 -1.495 0.832 -2.067c 0.559 -0.572 1.248 -0.858 2.041 -0.858Z m 0.013 0.416c -0.624 0 -1.092 0.273 -1.417 0.832c -0.208 0.364 -0.312 0.962 -0.312 1.781c 0 0.793 0.104 1.365 0.299 1.729c 0.312 0.559 0.78 0.832 1.417 0.832c 0.611 0 1.079 -0.273 1.404 -0.806c 0.221 -0.364 0.325 -0.949 0.325 -1.755c 0 -1.508 -0.442 -2.613 -1.716 -2.613Z "/></symbol><symbol id="gBC3D9C1A249D0D4F874E09900DF515A4" overflow="visible"><path d="M 0 0m 1.872 0.039l 1.443 -0.039v 0.507c -0.468 0 -0.754 0.013 -0.845 0.065c -0.091 0.052 -0.13 0.208 -0.13 0.455v 7.995l -1.911 -0.143v -0.494c 0.455 0 0.741 -0.039 0.832 -0.117c 0.091 -0.078 0.143 -0.26 0.143 -0.559v -6.682c 0 -0.247 -0.039 -0.403 -0.13 -0.455c -0.091 -0.052 -0.377 -0.065 -0.845 -0.065v -0.507Z "/></symbol><symbol id="g8B273DA24598714A1DE03FD5302C001A" overflow="visible"><path d="M 0 0m 3.263 5.408c 0.546 0 0.962 -0.13 1.248 -0.39c -0.312 -0.039 -0.533 -0.325 -0.533 -0.624c 0 -0.429 0.208 -0.637 0.637 -0.637c 0.429 0 0.637 0.221 0.637 0.65c 0 0.923 -1.001 1.417 -2.002 1.417c -0.806 0 -1.469 -0.286 -2.002 -0.884c -0.533 -0.598 -0.806 -1.313 -0.806 -2.132c 0 -0.793 0.273 -1.495 0.806 -2.08c 0.533 -0.585 1.183 -0.871 1.976 -0.871c 0.65 0 1.157 0.182 1.521 0.559c 0.299 0.299 0.494 0.598 0.598 0.91c 0.039 0.117 0.052 0.195 0.052 0.247c 0 0.117 -0.078 0.169 -0.221 0.169c -0.104 0 -0.169 -0.052 -0.208 -0.156c -0.273 -0.871 -0.806 -1.313 -1.625 -1.313c -0.377 0 -0.741 0.169 -1.105 0.52c -0.429 0.403 -0.637 1.079 -0.637 2.041c 0 1.3 0.494 2.574 1.664 2.574Z "/></symbol><symbol id="g639DFB7C802EA1E209EC54229B0444AB" overflow="visible"><path d="M 0 0m 3.471 0.234c -0.897 0 -1.066 0.377 -1.066 1.222v 4.29l -1.989 -0.143v -0.494c 0.507 0 0.806 -0.052 0.884 -0.143c 0.078 -0.091 0.117 -0.416 0.117 -0.988v -1.911c 0 -0.507 0.039 -0.897 0.13 -1.196c 0.195 -0.676 0.91 -1.014 1.859 -1.014c 0.702 0 1.235 0.325 1.599 0.988v -0.988l 1.95 0.143v 0.494c -0.468 0 -0.741 0.026 -0.845 0.104c -0.104 0.078 -0.156 0.26 -0.156 0.559v 4.589l -1.976 -0.143v -0.494c 0.455 0 0.728 -0.039 0.832 -0.117c 0.104 -0.078 0.156 -0.247 0.156 -0.546v -2.275c 0 -1.027 -0.546 -1.937 -1.495 -1.937Z "/></symbol><symbol id="gC58C3D6655D393441864428999E172F2" overflow="visible"><path d="M 0 0m 5.044 4.602c 0 -0.065 -0.026 -0.156 -0.078 -0.286l -1.248 -3.133l -1.391 3.445c -0.052 0.117 -0.078 0.182 -0.078 0.195c 0 0.195 0.247 0.286 0.741 0.286v 0.494l -1.456 -0.039c -0.312 -0.013 -0.741 0 -1.287 0.039v -0.494c 0.728 0 0.845 0.026 1.027 -0.442l 1.846 -4.537c 0.065 -0.182 0.169 -0.273 0.312 -0.273c 0.143 0 0.247 0.091 0.312 0.273l 1.677 4.147c 0.052 0.143 0.104 0.26 0.169 0.364c 0.182 0.312 0.52 0.468 1.014 0.468v 0.494c -0.429 -0.039 -0.767 -0.052 -1.014 -0.039l -1.157 0.039v -0.494c 0.377 -0.013 0.611 -0.169 0.611 -0.507Z "/></symbol><symbol id="gAD96C2EEE7EE2AE3951947EAB253D6C8" overflow="visible"><path d="M 0 0m 0.143 2.431h 3.445v 0.754h -3.445Z "/></symbol></defs></svg>