<svg viewBox="0 0 181.230111111 19.63" width="181.230111111pt" height="19.63pt" xmlns="http://www.w3.org/2000/svg" xmlns:xlink="http://www.w3.org/1999/xlink" xmlns:h5="http://www.w3.org/1999/xhtml"><g transform="matrix(1 0 0 -1 6.5 13.208)"><use xlink:href="#g6BCCDCE0D843C0F823A4CE121D6D1649" x="0" y="0" fill="#e6edf3" fill-rule="nonzero"/></g><g transform="matrix(1 0 0 -1 13.572 13.208)"><use xlink:href="#g53251C539233983FE9FC826CA7FBAC4A" x="0" y="0" fill="#e6edf3" fill-rule="nonzero"/></g><g transform="matrix(1 0 0 -1 27.544111111 13.208)"><use xlink:href="#g13AFF74D87C474CFAF661EEAD0458F8B" x="0" y="0" fill="#e6edf3" fill-rule="nonzero"/></g><g transform="matrix(1 0 0 -1 41.269222222 13.208)"><use xlink:href="#gC189A0A36A47FB1CBF46D2ED82C939AF" x="0" y="0" fill="#e6edf3" fill-rule="nonzero"/></g><g transform="matrix(1 0 0 -1 51.380333333 13.208)"><use xlink:href="#g7AF10AFFE59D420B8F89A40B982EF05" x="0" y="0" fill="#e6edf3" fill-rule="nonzero"/></g><g transform="matrix(1 0 0 -1 67.991444444 13.208)"><use xlink:href="#gD83AEAE39B2D396ED26985CFF34A14A" x="0" y="0" fill="#e6edf3" fill-rule="nonzero"/></g><g transform="matrix(1 0 0 -1 85.590555556 13.208)"><use xlink:href="#g13AFF74D87C474CFAF661EEAD0458F8B" x="0" y="0" fill="#e6edf3" fill-rule="nonzero"/></g><g transform="matrix(1 0 0 -1 99.315666667 13.208)"><use xlink:href="#gC189A0A36A47FB1CBF46D2ED82C939AF" x="0" y="0" fill="#e6edf3" fill-rule="nonzero"/></g><g transform="matrix(1 0 0 -1 109.426777778 13.208)"><use xlink:href="#g7AF10AFFE59D420B8F89A40B982EF05" x="0" y="0" fill="#e6edf3" fill-rule="nonzero"/></g><g transform="matrix(1 0 0 -1 126.037888889 13.208)"><use xlink:href="#g1EC01C5368D684131831F3BFC5D2F1C1" x="0" y="0" fill="#e6edf3" fill-rule="nonzero"/></g><g transform="matrix(1 0 0 -1 136.866888889 13.208)"><use xlink:href="#gC8FE9299987BC399BCDE6DD4129703BD" x="0" y="0" fill="#e6edf3" fill-rule="nonzero"/></g><g transform="matrix(1 0 0 -1 150.722 13.208)"><use xlink:href="#g13AFF74D87C474CFAF661EEAD0458F8B" x="0" y="0" fill="#e6edf3" fill-rule="nonzero"/></g><g transform="matrix(1 0 0 -1 164.447111111 13.208)"><use xlink:href="#gFCB8EE904C83D15DBBDA0F3192DB537A" x="0" y="0" fill="#e6edf3" fill-rule="nonzero"/></g><defs><symbol id="g6BCCDCE0D843C0F823A4CE121D6D1649" overflow="visible"><path d="M 0 0m 5.577 8.216l -0.767 -3.159c -0.273 0.481 -0.65 0.728 -1.157 0.728c -0.845 0 -1.586 -0.429 -2.236 -1.3c -0.598 -0.806 -0.897 -1.651 -0.897 -2.522c 0 -1.144 0.663 -2.106 1.755 -2.106c 0.559 0 1.105 0.299 1.625 0.91c 0.143 -0.494 0.585 -0.91 1.196 -0.91c 0.897 0 1.183 1.066 1.378 2.028c 0 0.117 -0.065 0.182 -0.195 0.182c -0.117 0 -0.195 -0.091 -0.234 -0.273c -0.26 -1.027 -0.572 -1.547 -0.923 -1.547c -0.221 0 -0.338 0.182 -0.338 0.533c 0 0.195 0.026 0.403 0.078 0.611l 1.846 7.436v 0.052c -0.039 0.091 -0.117 0.143 -0.221 0.143c -0.299 0 -0.845 -0.052 -1.625 -0.143c -0.143 -0.013 -0.221 -0.117 -0.221 -0.299c 0 -0.13 0.117 -0.195 0.351 -0.195c 0.247 0 0.585 0.013 0.585 -0.169Z m -1.144 -3.328c 0.13 -0.273 0.195 -0.455 0.195 -0.572c -0.013 -0.052 -0.026 -0.117 -0.039 -0.208l -0.637 -2.522c -0.039 -0.143 -0.13 -0.299 -0.247 -0.455c -0.481 -0.585 -0.949 -0.884 -1.404 -0.884c -0.507 0 -0.767 0.39 -0.767 1.157c 0 0.312 0.078 0.78 0.234 1.404c 0.273 1.105 0.663 1.859 1.144 2.262c 0.26 0.221 0.507 0.325 0.754 0.325c 0.351 0 0.611 -0.169 0.767 -0.507Z "/></symbol><symbol id="g53251C539233983FE9FC826CA7FBAC4A" overflow="visible"><path d="M 0 0m 8.723 8.84c -0.247 0 -1.027 0.039 -1.274 0.039c -0.195 0 -0.299 -0.104 -0.299 -0.299c 0 -0.13 0.091 -0.195 0.26 -0.208c 0.364 -0.013 0.546 -0.143 0.546 -0.364c 0 -0.117 -0.065 -0.273 -0.182 -0.468l -3.874 -6.149l -0.858 6.656c 0 0.221 0.273 0.325 0.832 0.325c 0.26 0 0.377 0.091 0.377 0.312c 0 0.13 -0.078 0.195 -0.234 0.195c -0.286 0 -1.3 -0.039 -1.586 -0.039c -0.26 0 -1.144 0.039 -1.404 0.039c -0.195 0 -0.299 -0.104 -0.299 -0.299c 0 -0.143 0.13 -0.208 0.377 -0.208c 0.221 0 0.377 -0.026 0.481 -0.052c 0.208 -0.065 0.195 -0.091 0.234 -0.338l 1.014 -7.93c 0.039 -0.221 0.143 -0.338 0.312 -0.338c 0.169 0 0.299 0.091 0.403 0.26l 4.628 7.358c 0.299 0.468 0.585 0.767 0.871 0.884c 0.195 0.091 0.442 0.143 0.728 0.156c 0.143 0.013 0.208 0.104 0.221 0.299c 0.013 0.143 -0.065 0.208 -0.221 0.208c -0.195 0 -0.858 -0.039 -1.053 -0.039Z "/></symbol><symbol id="g13AFF74D87C474CFAF661EEAD0458F8B" overflow="visible"><path d="M 0 0m 9.074 4.771h -8.034c -0.208 0 -0.312 -0.104 -0.312 -0.299c 0 -0.195 0.104 -0.299 0.312 -0.299h 8.034c 0.208 0 0.312 0.104 0.312 0.299c 0 0.156 -0.143 0.299 -0.312 0.299Z m 0 -2.444h -8.034c -0.208 0 -0.312 -0.104 -0.312 -0.299c 0 -0.195 0.104 -0.299 0.312 -0.299h 8.034c 0.208 0 0.312 0.104 0.312 0.299c 0 0.169 -0.143 0.299 -0.312 0.299Z "/></symbol><symbol id="gC189A0A36A47FB1CBF46D2ED82C939AF" overflow="visible"><path d="M 0 0m 3.237 -0.286c 1.833 0 2.743 1.482 2.743 4.446c 0 1.989 -0.416 3.315 -1.235 3.965c -0.455 0.351 -0.962 0.533 -1.495 0.533c -1.833 0 -2.743 -1.495 -2.743 -4.498c 0 -2.392 0.637 -4.446 2.73 -4.446Z m 1.456 7.098c 0.091 -0.455 0.13 -1.287 0.13 -2.496c 0 -1.196 -0.052 -2.08 -0.143 -2.652c -0.169 -1.04 -0.65 -1.56 -1.443 -1.56c -0.299 0 -0.598 0.117 -0.871 0.338c -0.351 0.299 -0.559 0.91 -0.65 1.846c -0.039 0.325 -0.052 1.001 -0.052 2.028c 0 1.131 0.039 1.924 0.104 2.353c 0.117 0.715 0.351 1.17 0.715 1.365c 0.286 0.156 0.533 0.234 0.754 0.234c 0.845 0 1.313 -0.689 1.456 -1.456Z "/></symbol><symbol id="g7AF10AFFE59D420B8F89A40B982EF05" overflow="visible"><path d="M 0 0m 12.051 3.029c 0.104 0.052 0.156 0.13 0.156 0.221c 0 0.091 -0.052 0.169 -0.156 0.221c -0.793 0.208 -1.599 0.663 -2.405 1.352c -0.585 0.507 -1.04 1.092 -1.378 1.768c -0.052 0.117 -0.143 0.169 -0.273 0.169c -0.208 0 -0.312 -0.104 -0.312 -0.312c 0 -0.026 0.013 -0.065 0.026 -0.13c 0.299 -0.572 0.663 -1.079 1.079 -1.521h -7.696c -0.208 0 -0.312 -0.104 -0.312 -0.299c 0 -0.208 0.104 -0.312 0.312 -0.312h 8.372c 0.481 -0.39 1.014 -0.702 1.573 -0.936c -0.559 -0.234 -1.092 -0.546 -1.573 -0.936h -8.372c -0.208 0 -0.312 -0.104 -0.312 -0.312c 0 -0.195 0.104 -0.299 0.312 -0.299h 7.696c -0.416 -0.442 -0.78 -0.949 -1.079 -1.521c -0.013 -0.065 -0.026 -0.104 -0.026 -0.13c 0 -0.208 0.104 -0.312 0.312 -0.312c 0.13 0 0.221 0.052 0.273 0.169c 0.338 0.676 0.793 1.261 1.378 1.768c 0.806 0.689 1.612 1.144 2.405 1.352Z "/></symbol><symbol id="gD83AEAE39B2D396ED26985CFF34A14A" overflow="visible"><path d="M 0 0m 12.428 8.84c -0.247 0 -1.092 0.039 -1.339 0.039c -0.195 0 -0.299 -0.104 -0.299 -0.299c 0 -0.13 0.078 -0.195 0.234 -0.208c 0.481 -0.013 0.715 -0.156 0.715 -0.442c 0 -0.078 -0.052 -0.208 -0.156 -0.403l -3.406 -5.902l -0.455 6.201c -0.052 0.468 0.26 0.546 0.845 0.546c 0.273 0 0.403 0.104 0.403 0.312c 0 0.13 -0.078 0.195 -0.247 0.195c -0.286 0 -1.287 -0.039 -1.573 -0.039c -0.247 0 -1.105 0.039 -1.352 0.039c -0.195 0 -0.299 -0.104 -0.299 -0.312c 0 -0.13 0.117 -0.195 0.364 -0.195c 0.403 0 0.611 -0.091 0.624 -0.273l 0.078 -0.975l -3.172 -5.499l -0.468 6.344c -0.039 0.325 0.507 0.403 0.923 0.403c 0.221 0 0.325 0.104 0.325 0.312c 0 0.13 -0.078 0.195 -0.234 0.195c -0.286 0 -1.3 -0.039 -1.586 -0.039c -0.247 0 -1.105 0.039 -1.352 0.039c -0.195 0 -0.286 -0.104 -0.286 -0.299c 0 -0.143 0.13 -0.208 0.377 -0.208c 0.546 0 0.598 -0.026 0.624 -0.416l 0.585 -7.865c 0.013 -0.247 0.104 -0.377 0.26 -0.377c 0.169 0.026 0.234 0.065 0.338 0.26c 0.013 0.013 0.013 0.026 0.013 0.039l 3.705 6.409l 0.468 -6.331c 0.013 -0.247 0.104 -0.377 0.26 -0.377c 0.13 0 0.247 0.091 0.351 0.273l 4.238 7.319c 0.351 0.637 0.598 1.001 1.391 1.066c 0.234 0.026 0.299 0.091 0.299 0.312c 0 0.13 -0.065 0.195 -0.208 0.195c -0.182 0 -0.806 -0.039 -0.988 -0.039Z "/></symbol><symbol id="g1EC01C5368D684131831F3BFC5D2F1C1" overflow="visible"><path d="M 0 0m 9.867 0c 0.221 0 0.338 0.052 0.338 0.169l -4.42 8.879c -0.091 0.169 -0.208 0.26 -0.377 0.26c -0.169 0 -0.286 -0.091 -0.377 -0.26l -4.355 -8.723c -0.039 -0.091 -0.065 -0.143 -0.065 -0.169c 0 -0.104 0.117 -0.156 0.338 -0.156Z m -4.875 7.852l 3.38 -6.773h -6.76Z "/></symbol><symbol id="gC8FE9299987BC399BCDE6DD4129703BD" overflow="visible"><path d="M 0 0m 8.346 8.84c -0.247 0 -1.079 0.039 -1.326 0.039c -0.195 0 -0.286 -0.104 -0.286 -0.312c 0 -0.117 0.091 -0.182 0.273 -0.195c 0.559 0 0.832 -0.169 0.832 -0.507c 0 -0.078 -0.013 -0.169 -0.039 -0.26l -1.157 -4.589c -0.195 -0.741 -0.572 -1.378 -1.131 -1.924c -0.611 -0.585 -1.287 -0.871 -2.015 -0.871c -0.962 0 -1.521 0.65 -1.521 1.612l 0.013 0.117c 0 0.247 0.039 0.533 0.13 0.871l 1.248 5.005c 0.065 0.273 0.182 0.442 0.351 0.507c 0.078 0.026 0.299 0.039 0.676 0.039c 0.338 0 0.481 0 0.481 0.312c 0 0.13 -0.078 0.195 -0.221 0.195l -1.651 -0.039l -1.651 0.039c -0.208 0 -0.299 -0.117 -0.299 -0.312c 0 -0.091 0.039 -0.156 0.104 -0.169c 0.13 -0.013 0.234 -0.026 0.299 -0.026c 0.403 -0.013 0.637 -0.039 0.702 -0.052c 0.065 -0.013 0.091 -0.052 0.091 -0.117c 0 -0.026 -0.013 -0.117 -0.052 -0.26l -1.235 -4.953c -0.065 -0.247 -0.091 -0.494 -0.091 -0.754c 0 -1.495 1.079 -2.522 2.574 -2.522c 0.845 0 1.625 0.325 2.34 0.988c 0.689 0.624 1.131 1.352 1.339 2.197l 1.144 4.563c 0.169 0.663 0.533 0.897 1.339 0.91c 0.182 0.013 0.273 0.117 0.273 0.312v 0.052c -0.039 0.091 -0.104 0.143 -0.221 0.143c -0.247 0 -1.066 -0.039 -1.313 -0.039Z "/></symbol><symbol id="gFCB8EE904C83D15DBBDA0F3192DB537A" overflow="visible"><path d="M 0 0m 3.978 -0.312c 0.377 0 0.78 0.065 1.209 0.182c -0.039 -0.494 -0.052 -0.806 -0.052 -0.923c 0 -0.975 0.377 -1.469 1.118 -1.469c 0.793 0 1.404 0.637 1.703 1.222c 0.325 0.676 0.494 1.118 0.494 1.326c 0 0.117 -0.065 0.182 -0.195 0.182c -0.091 0 -0.156 -0.052 -0.195 -0.169c -0.195 -0.598 -0.728 -1.209 -1.456 -1.209c -0.663 0 -0.754 0.533 -0.858 1.248c 1.092 0.429 2.015 1.17 2.756 2.236c 0.741 1.066 1.118 2.171 1.118 3.328c 0 1.027 -0.299 1.859 -0.91 2.522c -0.611 0.663 -1.417 1.001 -2.418 1.001c -0.689 0 -1.378 -0.169 -2.067 -0.52c -1.404 -0.689 -2.431 -1.781 -3.094 -3.25c -0.325 -0.741 -0.494 -1.469 -0.494 -2.21c 0 -2.041 1.326 -3.497 3.341 -3.497Z m 4.407 6.37c 0 -0.793 -0.195 -1.703 -0.585 -2.756c -0.455 -1.209 -1.157 -2.106 -2.132 -2.678c -0.052 0.286 -0.13 0.546 -0.234 0.78c -0.169 0.39 -0.481 0.585 -0.936 0.585c -0.715 0 -1.365 -0.65 -1.365 -1.365c 0 -0.117 0.013 -0.234 0.039 -0.325c -0.871 0.403 -1.3 1.222 -1.3 2.47c 0 0.546 0.104 1.209 0.325 1.989c 0.455 1.651 1.274 2.821 2.457 3.51c 0.559 0.312 1.079 0.468 1.56 0.468c 1.43 0 2.171 -1.183 2.171 -2.678Z m -3.887 -4.459c 0.481 0 0.728 -0.351 0.728 -1.04c 0 -0.117 -0.039 -0.182 -0.117 -0.208c -0.364 -0.156 -0.715 -0.234 -1.053 -0.234c -0.364 0 -0.546 0.169 -0.546 0.507c 0 0.494 0.494 0.975 0.988 0.975Z "/></symbol></defs></svg>