<svg viewBox="0 0 91.6539 20.111" width="91.6539pt" height="20.111pt" xmlns="http://www.w3.org/2000/svg" xmlns:xlink="http://www.w3.org/1999/xlink" xmlns:h5="http://www.w3.org/1999/xhtml"><g transform="matrix(1 0 0 -1 6.5 12.818)"><use xlink:href="#gA01F6DC51669829F49C013CF8E967E44" x="0" y="0" fill="#e6edf3" fill-rule="nonzero"/></g><g transform="matrix(1 0 0 -1 20.217888889 12.818)"><use xlink:href="#g596E6AE655F7C550875F3D7A9A58D2C7" x="0" y="0" fill="#e6edf3" fill-rule="nonzero"/></g><g transform="matrix(1 0 0 -1 33.220777778 12.818)"><use xlink:href="#g9A821B85A19606F12AFA84257EC05DE9" x="0" y="0" fill="#e6edf3" fill-rule="nonzero"/></g><g transform="matrix(1 0 0 -1 48.297888889 12.818)"><use xlink:href="#g13AFF74D87C474CFAF661EEAD0458F8B" x="0" y="0" fill="#e6edf3" fill-rule="nonzero"/></g><g transform="matrix(1 0 0 -1 62.023 12.818)"><use xlink:href="#gA32CAC846971E9468FADD933D647D41A" x="0" y="0" fill="#e6edf3" fill-rule="nonzero"/></g><g transform="matrix(1 0 0 -1 69.862 16.029)"><use xlink:href="#g66C287F757172C4FBEE46C9B113A6E1F" x="0" y="0" fill="#e6edf3" fill-rule="nonzero"/></g><g transform="matrix(1 0 0 -1 75.7679 12.818)"><use xlink:href="#g6697F866823FE95C3132B77B4272D97A" x="0" y="0" fill="#e6edf3" fill-rule="nonzero"/></g><defs><symbol id="gA01F6DC51669829F49C013CF8E967E44" overflow="visible"><path d="M 0 0m 10.14 8.541c 0.039 0.091 0.065 0.156 0.065 0.182c 0 0.104 -0.117 0.156 -0.338 0.156h -8.918c -0.221 0 -0.338 -0.052 -0.338 -0.169l 4.42 -8.879c 0.091 -0.169 0.208 -0.26 0.377 -0.26c 0.169 0 0.286 0.091 0.377 0.26Z m -4.355 -7.605l -3.458 6.929h 6.903Z "/></symbol><symbol id="g596E6AE655F7C550875F3D7A9A58D2C7" overflow="visible"><path d="M 0 0m 8.19 0.416c 0 0.091 -0.026 0.156 -0.091 0.221l -2.613 2.613l 2.613 2.613c 0.065 0.065 0.091 0.13 0.091 0.221c 0 0.169 -0.13 0.299 -0.299 0.299c -0.091 0 -0.156 -0.026 -0.221 -0.091l -2.613 -2.613l -2.613 2.613c -0.065 0.065 -0.13 0.091 -0.221 0.091c -0.169 0 -0.299 -0.13 -0.299 -0.299c 0 -0.091 0.026 -0.156 0.091 -0.221l 2.613 -2.613l -2.613 -2.613c -0.065 -0.065 -0.091 -0.13 -0.091 -0.221c 0 -0.169 0.13 -0.299 0.299 -0.299c 0.091 0 0.156 0.026 0.221 0.091l 2.613 2.613l 2.613 -2.613c 0.065 -0.065 0.13 -0.091 0.221 -0.091c 0.169 0 0.299 0.13 0.299 0.299Z "/></symbol><symbol id="g9A821B85A19606F12AFA84257EC05DE9" overflow="visible"><path d="M 0 0m 11.102 7.111c 0 1.066 -0.936 1.807 -2.769 1.807h -5.213c -0.26 0 -0.481 0 -0.481 -0.377c 0 -0.234 0.169 -0.234 0.546 -0.234c 0.273 0 0.52 -0.013 0.793 -0.026l -1.859 -7.41c -0.052 -0.208 -0.065 -0.221 -0.299 -0.247c -0.221 -0.013 -0.481 -0.013 -0.689 -0.013c -0.338 0 -0.364 0 -0.416 -0.026c -0.156 -0.091 -0.156 -0.299 -0.156 -0.351c 0 -0.234 0.234 -0.234 0.442 -0.234h 5.512c 2.717 0 3.939 1.716 3.939 2.873c 0 1.118 -0.975 1.677 -2.171 1.781c 2.08 0.377 2.821 1.586 2.821 2.457Z m -1.755 0.065c 0 -0.91 -0.728 -2.301 -2.496 -2.301h -2.054l 0.806 3.198c 0.052 0.195 0.065 0.208 0.143 0.221c 0.117 0.013 0.208 0.013 0.351 0.013h 1.937c 0.26 0 1.313 0 1.313 -1.131Z m -0.702 -4.095c 0 -1.001 -0.663 -2.47 -2.509 -2.47h -2.08c -0.195 0 -0.221 0 -0.312 0.013l 0.936 3.783h 2.535c 0.338 0 1.43 0 1.43 -1.326Z "/></symbol><symbol id="g13AFF74D87C474CFAF661EEAD0458F8B" overflow="visible"><path d="M 0 0m 9.074 4.771h -8.034c -0.208 0 -0.312 -0.104 -0.312 -0.299c 0 -0.195 0.104 -0.299 0.312 -0.299h 8.034c 0.208 0 0.312 0.104 0.312 0.299c 0 0.156 -0.143 0.299 -0.312 0.299Z m 0 -2.444h -8.034c -0.208 0 -0.312 -0.104 -0.312 -0.299c 0 -0.195 0.104 -0.299 0.312 -0.299h 8.034c 0.208 0 0.312 0.104 0.312 0.299c 0 0.169 -0.143 0.299 -0.312 0.299Z "/></symbol><symbol id="gA32CAC846971E9468FADD933D647D41A" overflow="visible"><path d="M 0 0m 7.436 1.846c 0 0.117 -0.065 0.182 -0.208 0.182c -0.104 0 -0.182 -0.091 -0.221 -0.26c -0.26 -1.04 -0.572 -1.56 -0.923 -1.56c -0.221 0 -0.338 0.182 -0.338 0.546c 0 0.221 0.078 0.663 0.247 1.313l 0.364 1.391c 0.117 0.468 0.221 0.793 0.299 1.196l 0.078 0.364c 0.026 0.091 0.039 0.156 0.039 0.182c 0 0.273 -0.143 0.403 -0.429 0.403c -0.286 0 -0.468 -0.156 -0.546 -0.481l -0.936 -3.718c 0 -0.143 -0.208 -0.403 -0.624 -0.793c -0.286 -0.273 -0.611 -0.403 -0.988 -0.403c -0.598 0 -0.897 0.351 -0.897 1.066c 0 0.247 0.052 0.598 0.169 1.079l 0.546 2.158c 0.104 0.403 0.169 0.689 0.195 0.832c 0 0.273 -0.143 0.403 -0.429 0.403c -0.286 0 -0.468 -0.169 -0.559 -0.507l -1.846 -7.436c -0.026 -0.104 -0.039 -0.169 -0.039 -0.208c 0 -0.273 0.143 -0.403 0.416 -0.403c 0.195 0 0.351 0.104 0.494 0.299c 0.039 0.091 0.26 0.988 0.689 2.691c 0.312 -0.234 0.715 -0.351 1.209 -0.351c 0.767 0 1.274 0.403 1.677 0.871c 0.143 -0.481 0.572 -0.871 1.183 -0.871c 0.897 0 1.17 1.053 1.378 2.015Z "/></symbol><symbol id="g66C287F757172C4FBEE46C9B113A6E1F" overflow="visible"><path d="M 0 0m 4.6956 2.9029c 0 1.0283 -0.182 1.8109 -0.5369 2.3478c -0.2912 0.455 -0.8736 0.7917 -1.5743 0.7917c -0.2912 0 -0.5551 -0.0455 -0.7826 -0.1456c -1.001 -0.4186 -1.3286 -1.5834 -1.3286 -2.9939c 0 -0.3094 0.0182 -0.6006 0.0455 -0.8827c 0.1547 -1.1921 0.7098 -2.2022 2.0657 -2.2022c 0.2912 0 0.5551 0.0455 0.7826 0.1456c 1.001 0.4095 1.3286 1.547 1.3286 2.9393Z m -1.0374 2.0202c 0.1001 -0.3367 0.1547 -0.9646 0.1547 -1.9019c 0 -0.8918 -0.0364 -1.5197 -0.1183 -1.8928c -0.1092 -0.5369 -0.4914 -0.9828 -1.1102 -0.9828c -0.2275 0 -0.455 0.0728 -0.6643 0.2275c -0.2821 0.2093 -0.455 0.6188 -0.5278 1.2467c -0.0273 0.2093 -0.0364 0.6734 -0.0364 1.4014c 0 0.8827 0.0455 1.4924 0.1365 1.82c 0.1547 0.5824 0.5187 0.8736 1.092 0.8736c 0.546 0 0.9464 -0.3549 1.0738 -0.7917Z "/></symbol><symbol id="g6697F866823FE95C3132B77B4272D97A" overflow="visible"><path d="M 0 0m 9.022 8.684c 0 0 -0.013 0.234 -0.273 0.234c -0.26 0 -0.546 -0.026 -0.819 -0.026l -0.897 -0.013l -2.262 0.039c -0.156 0 -0.39 0 -0.39 -0.377c 0 -0.234 0.208 -0.234 0.442 -0.234h 0.455c 0.507 0 0.533 0 0.845 -0.039l -1.573 -6.305c -0.325 -1.326 -1.144 -1.716 -1.742 -1.716c -0.117 0 -0.676 0.013 -1.066 0.312c 0.702 0.169 0.936 0.78 0.936 1.131c 0 0.429 -0.351 0.741 -0.793 0.741c -0.52 0 -1.157 -0.416 -1.157 -1.235c 0 -0.897 0.897 -1.417 2.145 -1.417c 1.456 0 3.029 0.598 3.406 2.119l 1.547 6.162c 0.052 0.195 0.065 0.208 0.156 0.221c 0.156 0.026 0.338 0.026 0.494 0.026c 0.338 0 0.546 0 0.546 0.377Z "/></symbol></defs></svg>