<svg viewBox="0 0 222.418588889 36.686" width="222.418588889pt" height="36.686pt" xmlns="http://www.w3.org/2000/svg" xmlns:xlink="http://www.w3.org/1999/xlink" xmlns:h5="http://www.w3.org/1999/xhtml"><g transform="matrix(1 0 0 -1 6.5 21.593)"><use xlink:href="#g23CEEBFA764149797E7EA3D2360CE782" x="0" y="0" fill="#e6edf3" fill-rule="nonzero"/></g><g transform="matrix(1 0 0 -1 21.653666667 21.593)"><use xlink:href="#g9A821B85A19606F12AFA84257EC05DE9" x="0" y="0" fill="#e6edf3" fill-rule="nonzero"/></g><g transform="matrix(1 0 0 -1 36.008555556 21.593)"><use xlink:href="#gB323F9E42E1C20C087FBF81136E27860" x="0" y="0" fill="#e6edf3" fill-rule="nonzero"/></g><g transform="matrix(1 0 0 -1 41.789222222 21.593)"><use xlink:href="#gEB9B079EF07FFCCA69ED7A9B1F1ABEB" x="0" y="0" fill="#e6edf3" fill-rule="nonzero"/></g><g transform="matrix(1 0 0 -1 49.017222222 21.593)"><use xlink:href="#gE70A8B7A223969D4EC58FC2FFC91A371" x="0" y="0" fill="#e6edf3" fill-rule="nonzero"/></g><g transform="matrix(1 0 0 -1 57.152333333 21.593)"><use xlink:href="#g13AFF74D87C474CFAF661EEAD0458F8B" x="0" y="0" fill="#e6edf3" fill-rule="nonzero"/></g><g transform="matrix(1 0 0 -1 70.877444444 21.593)"><use xlink:href="#gA32CAC846971E9468FADD933D647D41A" x="0" y="0" fill="#e6edf3" fill-rule="nonzero"/></g><g transform="matrix(1 0 0 -1 78.716444444 24.804)"><use xlink:href="#g66C287F757172C4FBEE46C9B113A6E1F" x="0" y="0" fill="#e6edf3" fill-rule="nonzero"/></g><g transform="matrix(1 0 0 -1 84.622344444 21.593)"><use xlink:href="#g115DED64194A3B9D1CA25A004CD4734D" x="0" y="0" fill="#e6edf3" fill-rule="nonzero"/></g><g transform="matrix(1 0 0 -1 89.692344444 24.804)"><use xlink:href="#g6F1B2EC7690C574873AE01D06ED173C6" x="0" y="0" fill="#e6edf3" fill-rule="nonzero"/><use xlink:href="#g689CD2C8CC31657A53FE374FF94F6738" x="4.0404" y="0" fill="#e6edf3" fill-rule="nonzero"/><use xlink:href="#gC86B0FAB9444A46451EA9A07C4DA98BD" x="9.1" y="0" fill="#e6edf3" fill-rule="nonzero"/></g><g transform="matrix(1 0 0 -1 129.560744444 21.593)"><use xlink:href="#g115DED64194A3B9D1CA25A004CD4734D" x="0" y="0" fill="#e6edf3" fill-rule="nonzero"/></g><g transform="matrix(1 0 0 -1 134.630744444 24.804)"><use xlink:href="#g6F1B2EC7690C574873AE01D06ED173C6" x="0" y="0" fill="#e6edf3" fill-rule="nonzero"/><use xlink:href="#g689CD2C8CC31657A53FE374FF94F6738" x="4.0404" y="0" fill="#e6edf3" fill-rule="nonzero"/><use xlink:href="#gC86B0FAB9444A46451EA9A07C4DA98BD" x="9.1" y="0" fill="#e6edf3" fill-rule="nonzero"/></g><g transform="matrix(1 0 0 -1 152.110255556 21.593)"><use xlink:href="#g13AFF74D87C474CFAF661EEAD0458F8B" x="0" y="0" fill="#e6edf3" fill-rule="nonzero"/></g><g transform="matrix(1 0 0 -1 165.835366667 21.593)"><use xlink:href="#g84C597EFF9988624DBABE6CF17069247" x="0" y="0" fill="#e6edf3" fill-rule="nonzero"/></g><g transform="matrix(1 0 0 -1 180.989033333 21.593)"><use xlink:href="#g6697F866823FE95C3132B77B4272D97A" x="0" y="0" fill="#e6edf3" fill-rule="nonzero"/></g><g transform="matrix(1 0 0 -1 193.263922222 21.593)"><use xlink:href="#gB323F9E42E1C20C087FBF81136E27860" x="0" y="0" fill="#e6edf3" fill-rule="nonzero"/></g><g transform="matrix(1 0 0 -1 199.044588889 21.593)"><use xlink:href="#gEB9B079EF07FFCCA69ED7A9B1F1ABEB" x="0" y="0" fill="#e6edf3" fill-rule="nonzero"/></g><g transform="matrix(1 0 0 -1 206.272588889 21.593)"><use xlink:href="#gBD2F635BE1AA233FD824DB5B16D5C07E" x="0" y="0" fill="#e6edf3" fill-rule="nonzero"/></g><defs><symbol id="g23CEEBFA764149797E7EA3D2360CE782" overflow="visible"><path d="M 0 0m 10.803 17.693c -0.611 0 -1.157 -0.559 -1.651 -1.677c -0.234 -0.507 -0.507 -1.313 -0.806 -2.418c -0.429 -1.573 -0.936 -3.692 -1.521 -6.37h -0.052c -1.105 0 -2.028 -0.39 -2.795 -1.17c -0.767 -0.78 -1.157 -1.703 -1.157 -2.808c 0 -1.807 1.131 -3.159 2.496 -3.705l -0.182 -1.066c -0.507 -2.951 -0.884 -4.927 -1.131 -5.941c -0.533 -2.223 -1.144 -3.341 -1.82 -3.341c -0.247 0 -0.468 0.065 -0.663 0.208c 0.377 0.065 0.559 0.286 0.559 0.676c 0 0.377 -0.286 0.676 -0.663 0.676c -0.455 0 -0.689 -0.234 -0.689 -0.689c 0 -0.754 0.741 -1.261 1.482 -1.261c 0.949 0 1.729 0.754 2.34 2.249c 0.39 0.949 0.832 2.483 1.313 4.576l 0.845 3.64h 0.065c 1.092 0 2.028 0.39 2.795 1.17c 0.767 0.78 1.157 1.703 1.157 2.808c 0 1.794 -1.17 3.172 -2.522 3.705l 0.195 1.066c 0.429 2.47 0.741 4.16 0.936 5.083c 0.598 2.795 1.092 4.199 1.495 4.199c 0.26 0 0.481 -0.065 0.65 -0.208c -0.377 -0.065 -0.572 -0.286 -0.572 -0.676c 0 -0.377 0.286 -0.676 0.663 -0.676c 0.455 0 0.689 0.234 0.689 0.689c 0 0.715 -0.702 1.261 -1.456 1.261Z m -2.717 -11.44c 1.053 -0.468 1.95 -1.56 1.95 -3.003c 0 -0.897 -0.312 -1.651 -0.923 -2.288c -0.611 -0.637 -1.365 -0.962 -2.249 -0.988Z m -4.576 -3.003c 0 0.884 0.299 1.651 0.91 2.288c 0.611 0.637 1.365 0.962 2.249 0.988l -1.222 -6.279c -1.04 0.481 -1.937 1.56 -1.937 3.003Z "/></symbol><symbol id="g9A821B85A19606F12AFA84257EC05DE9" overflow="visible"><path d="M 0 0m 11.102 7.111c 0 1.066 -0.936 1.807 -2.769 1.807h -5.213c -0.26 0 -0.481 0 -0.481 -0.377c 0 -0.234 0.169 -0.234 0.546 -0.234c 0.273 0 0.52 -0.013 0.793 -0.026l -1.859 -7.41c -0.052 -0.208 -0.065 -0.221 -0.299 -0.247c -0.221 -0.013 -0.481 -0.013 -0.689 -0.013c -0.338 0 -0.364 0 -0.416 -0.026c -0.156 -0.091 -0.156 -0.299 -0.156 -0.351c 0 -0.234 0.234 -0.234 0.442 -0.234h 5.512c 2.717 0 3.939 1.716 3.939 2.873c 0 1.118 -0.975 1.677 -2.171 1.781c 2.08 0.377 2.821 1.586 2.821 2.457Z m -1.755 0.065c 0 -0.91 -0.728 -2.301 -2.496 -2.301h -2.054l 0.806 3.198c 0.052 0.195 0.065 0.208 0.143 0.221c 0.117 0.013 0.208 0.013 0.351 0.013h 1.937c 0.26 0 1.313 0 1.313 -1.131Z m -0.702 -4.095c 0 -1.001 -0.663 -2.47 -2.509 -2.47h -2.08c -0.195 0 -0.221 0 -0.312 0.013l 0.936 3.783h 2.535c 0.338 0 1.43 0 1.43 -1.326Z "/></symbol><symbol id="gB323F9E42E1C20C087FBF81136E27860" overflow="visible"><path d="M 0 0m 2.496 3.25c 0 0.377 -0.312 0.689 -0.689 0.689c -0.377 0 -0.689 -0.312 -0.689 -0.689c 0 -0.377 0.312 -0.689 0.689 -0.689c 0.377 0 0.689 0.312 0.689 0.689Z "/></symbol><symbol id="gEB9B079EF07FFCCA69ED7A9B1F1ABEB" overflow="visible"><path d="M 0 0m 4.862 -0.143l 1.989 0.143v 0.494c -0.468 0 -0.741 0.026 -0.845 0.104c -0.104 0.078 -0.156 0.273 -0.156 0.572v 7.852l -1.937 -0.143v -0.494c 0.455 0 0.741 -0.039 0.845 -0.117c 0.104 -0.078 0.143 -0.26 0.143 -0.559v -2.639c -0.416 0.481 -0.936 0.715 -1.56 0.715c -0.806 0 -1.495 -0.286 -2.054 -0.871c -0.559 -0.585 -0.845 -1.287 -0.845 -2.106c 0 -0.793 0.26 -1.482 0.793 -2.067c 0.533 -0.585 1.183 -0.884 1.976 -0.884c 0.663 0 1.222 0.247 1.651 0.754Z m -1.469 5.538c 0.559 0 1.014 -0.247 1.339 -0.741c 0.091 -0.143 0.13 -0.286 0.13 -0.455v -2.626c 0 -0.169 -0.039 -0.312 -0.13 -0.455c -0.364 -0.585 -0.858 -0.871 -1.469 -0.871c -0.533 0 -0.962 0.26 -1.3 0.793c -0.234 0.39 -0.351 0.975 -0.351 1.755c 0 1.417 0.481 2.6 1.781 2.6Z "/></symbol><symbol id="gE70A8B7A223969D4EC58FC2FFC91A371" overflow="visible"><path d="M 0 0m 3.744 8.788c 0 0.169 -0.143 0.234 -0.286 0.234c -0.052 0 -0.065 0 -0.091 -0.013l -1.677 -0.078c -0.182 -0.013 -0.416 -0.026 -0.416 -0.39c 0 -0.234 0.247 -0.234 0.338 -0.234c 0.143 0 0.377 0 0.546 -0.026l -1.664 -6.669c -0.039 -0.143 -0.065 -0.26 -0.065 -0.442c 0 -0.858 0.858 -1.274 1.625 -1.274c 0.481 0 0.845 0.273 1.131 0.741c 0.312 0.507 0.494 1.209 0.494 1.287c 0 0.182 -0.195 0.182 -0.312 0.182c -0.143 0 -0.195 0 -0.26 -0.065c -0.026 -0.026 -0.026 -0.052 -0.104 -0.377c -0.247 -0.988 -0.533 -1.3 -0.884 -1.3c -0.195 0 -0.299 0.13 -0.299 0.468c 0 0.26 0.039 0.39 0.078 0.572l 1.794 7.163c 0.052 0.182 0.052 0.221 0.052 0.221Z "/></symbol><symbol id="g13AFF74D87C474CFAF661EEAD0458F8B" overflow="visible"><path d="M 0 0m 9.074 4.771h -8.034c -0.208 0 -0.312 -0.104 -0.312 -0.299c 0 -0.195 0.104 -0.299 0.312 -0.299h 8.034c 0.208 0 0.312 0.104 0.312 0.299c 0 0.156 -0.143 0.299 -0.312 0.299Z m 0 -2.444h -8.034c -0.208 0 -0.312 -0.104 -0.312 -0.299c 0 -0.195 0.104 -0.299 0.312 -0.299h 8.034c 0.208 0 0.312 0.104 0.312 0.299c 0 0.169 -0.143 0.299 -0.312 0.299Z "/></symbol><symbol id="gA32CAC846971E9468FADD933D647D41A" overflow="visible"><path d="M 0 0m 7.436 1.846c 0 0.117 -0.065 0.182 -0.208 0.182c -0.104 0 -0.182 -0.091 -0.221 -0.26c -0.26 -1.04 -0.572 -1.56 -0.923 -1.56c -0.221 0 -0.338 0.182 -0.338 0.546c 0 0.221 0.078 0.663 0.247 1.313l 0.364 1.391c 0.117 0.468 0.221 0.793 0.299 1.196l 0.078 0.364c 0.026 0.091 0.039 0.156 0.039 0.182c 0 0.273 -0.143 0.403 -0.429 0.403c -0.286 0 -0.468 -0.156 -0.546 -0.481l -0.936 -3.718c 0 -0.143 -0.208 -0.403 -0.624 -0.793c -0.286 -0.273 -0.611 -0.403 -0.988 -0.403c -0.598 0 -0.897 0.351 -0.897 1.066c 0 0.247 0.052 0.598 0.169 1.079l 0.546 2.158c 0.104 0.403 0.169 0.689 0.195 0.832c 0 0.273 -0.143 0.403 -0.429 0.403c -0.286 0 -0.468 -0.169 -0.559 -0.507l -1.846 -7.436c -0.026 -0.104 -0.039 -0.169 -0.039 -0.208c 0 -0.273 0.143 -0.403 0.416 -0.403c 0.195 0 0.351 0.104 0.494 0.299c 0.039 0.091 0.26 0.988 0.689 2.691c 0.312 -0.234 0.715 -0.351 1.209 -0.351c 0.767 0 1.274 0.403 1.677 0.871c 0.143 -0.481 0.572 -0.871 1.183 -0.871c 0.897 0 1.17 1.053 1.378 2.015Z "/></symbol><symbol id="g66C287F757172C4FBEE46C9B113A6E1F" overflow="visible"><path d="M 0 0m 4.6956 2.9029c 0 1.0283 -0.182 1.8109 -0.5369 2.3478c -0.2912 0.455 -0.8736 0.7917 -1.5743 0.7917c -0.2912 0 -0.5551 -0.0455 -0.7826 -0.1456c -1.001 -0.4186 -1.3286 -1.5834 -1.3286 -2.9939c 0 -0.3094 0.0182 -0.6006 0.0455 -0.8827c 0.1547 -1.1921 0.7098 -2.2022 2.0657 -2.2022c 0.2912 0 0.5551 0.0455 0.7826 0.1456c 1.001 0.4095 1.3286 1.547 1.3286 2.9393Z m -1.0374 2.0202c 0.1001 -0.3367 0.1547 -0.9646 0.1547 -1.9019c 0 -0.8918 -0.0364 -1.5197 -0.1183 -1.8928c -0.1092 -0.5369 -0.4914 -0.9828 -1.1102 -0.9828c -0.2275 0 -0.455 0.0728 -0.6643 0.2275c -0.2821 0.2093 -0.455 0.6188 -0.5278 1.2467c -0.0273 0.2093 -0.0364 0.6734 -0.0364 1.4014c 0 0.8827 0.0455 1.4924 0.1365 1.82c 0.1547 0.5824 0.5187 0.8736 1.092 0.8736c 0.546 0 0.9464 -0.3549 1.0738 -0.7917Z "/></symbol><symbol id="g115DED64194A3B9D1CA25A004CD4734D" overflow="visible"><path d="M 0 0m 6.461 8.671c 0 0.143 -0.078 0.208 -0.247 0.208l -1.677 -0.039l -1.703 0.039c -0.208 0.013 -0.312 -0.091 -0.312 -0.312c 0 -0.13 0.143 -0.195 0.416 -0.195c 0.559 0 0.832 -0.065 0.832 -0.182c 0 -0.065 -0.013 -0.13 -0.026 -0.195l -1.729 -6.929c -0.065 -0.286 -0.195 -0.455 -0.39 -0.52c -0.091 -0.026 -0.325 -0.039 -0.728 -0.039c -0.325 0 -0.455 -0.013 -0.455 -0.312c 0 -0.13 0.078 -0.195 0.247 -0.195l 1.664 0.039l 1.716 -0.039c 0.208 -0.013 0.312 0.091 0.312 0.299c 0 0.208 -0.156 0.208 -0.442 0.208c -0.507 0 -0.819 -0.026 -0.819 0.182c 0 0.065 0.013 0.156 0.052 0.286l 1.716 6.851c 0.065 0.273 0.195 0.442 0.39 0.507c 0.091 0.026 0.325 0.039 0.728 0.039c 0.312 0 0.455 0.013 0.455 0.299Z "/></symbol><symbol id="g6F1B2EC7690C574873AE01D06ED173C6" overflow="visible"><path d="M 0 0m 3.7765 2.2841c 0 1.0465 -0.6097 1.7927 -1.6289 1.7927c -0.546 0 -1.001 -0.2093 -1.3741 -0.637c -0.3458 -0.4004 -0.5187 -0.8827 -0.5187 -1.4378c 0 -0.5733 0.1911 -1.0556 0.5733 -1.4742c 0.3822 -0.4186 0.8554 -0.6279 1.4196 -0.6279c 0.5187 0 0.9191 0.182 1.1921 0.5369c 0.2275 0.3003 0.3367 0.5187 0.3367 0.6643c 0 0.091 -0.0546 0.1365 -0.1547 0.1365c -0.0728 0 -0.1183 -0.0455 -0.1456 -0.1456c -0.2002 -0.6006 -0.5915 -0.9009 -1.1739 -0.9009c -0.4095 0 -0.728 0.1911 -0.9737 0.5824c -0.1729 0.2821 -0.2548 0.7098 -0.2639 1.2922h 2.457c 0.2002 0 0.2548 0.0182 0.2548 0.2184Z m -0.8099 0.8918c 0.1001 -0.3003 0.1456 -0.5915 0.1456 -0.8554h -2.0384c 0.0273 0.6006 0.182 1.0101 0.455 1.2194c 0.2275 0.182 0.4277 0.273 0.6188 0.273c 0.4095 0 0.6825 -0.2093 0.819 -0.637Z "/></symbol><symbol id="g689CD2C8CC31657A53FE374FF94F6738" overflow="visible"><path d="M 0 0m 2.8574 3.7583c 0.4095 0 0.6188 -0.3185 0.6188 -0.9646v -2.0748c 0 -0.1729 -0.0273 -0.2821 -0.091 -0.3185c -0.0637 -0.0364 -0.2639 -0.0546 -0.6006 -0.0546v -0.3458l 1.0465 0.0273l 1.0374 -0.0273v 0.3458c -0.2912 0 -0.4823 0.0091 -0.5733 0.0364c -0.091 0.0273 -0.1274 0.091 -0.1274 0.2002v 1.7017c 0 0.4277 -0.0091 0.728 -0.0364 0.9009c -0.091 0.5551 -0.5005 0.8372 -1.2194 0.8372c -0.5733 0 -1.001 -0.273 -1.2831 -0.819v 0.819l -1.3377 -0.1001v -0.3458c 0.3276 0 0.5278 -0.0273 0.6006 -0.0819c 0.0728 -0.0546 0.1001 -0.1729 0.1001 -0.3822v -2.3933c 0 -0.1729 -0.0364 -0.2821 -0.1001 -0.3185c -0.0637 -0.0364 -0.2639 -0.0546 -0.6006 -0.0546v -0.3458l 1.0465 0.0273l 1.0374 -0.0273v 0.3458c -0.3367 0 -0.5278 0.0182 -0.5915 0.0546c -0.0637 0.0364 -0.1001 0.1456 -0.1001 0.3185v 1.638c 0 0.7371 0.4641 1.4014 1.1739 1.4014Z "/></symbol><symbol id="gC86B0FAB9444A46451EA9A07C4DA98BD" overflow="visible"><path d="M 0 0m 2.2841 3.7856c 0.3822 0 0.6734 -0.091 0.8736 -0.273c -0.2184 -0.0273 -0.3731 -0.2275 -0.3731 -0.4368c 0 -0.3003 0.1456 -0.4459 0.4459 -0.4459c 0.3003 0 0.4459 0.1547 0.4459 0.455c 0 0.6461 -0.7007 0.9919 -1.4014 0.9919c -0.5642 0 -1.0283 -0.2002 -1.4014 -0.6188c -0.3731 -0.4186 -0.5642 -0.9191 -0.5642 -1.4924c 0 -0.5551 0.1911 -1.0465 0.5642 -1.456c 0.3731 -0.4095 0.8281 -0.6097 1.3832 -0.6097c 0.455 0 0.8099 0.1274 1.0647 0.3913c 0.2093 0.2093 0.3458 0.4186 0.4186 0.637c 0.0273 0.0819 0.0364 0.1365 0.0364 0.1729c 0 0.0819 -0.0546 0.1183 -0.1547 0.1183c -0.0728 0 -0.1183 -0.0364 -0.1456 -0.1092c -0.1911 -0.6097 -0.5642 -0.9191 -1.1375 -0.9191c -0.2639 0 -0.5187 0.1183 -0.7735 0.364c -0.3003 0.2821 -0.4459 0.7553 -0.4459 1.4287c 0 0.91 0.3458 1.8018 1.1648 1.8018Z "/></symbol><symbol id="g84C597EFF9988624DBABE6CF17069247" overflow="visible"><path d="M 0 0m 10.803 17.693c -0.611 0 -1.157 -0.559 -1.664 -1.677c -0.247 -0.533 -0.507 -1.339 -0.793 -2.418c -1.261 -4.654 -2.21 -9.191 -3.211 -15.119c -0.455 -2.743 -0.832 -4.732 -1.131 -5.941c -0.533 -2.223 -1.144 -3.341 -1.82 -3.341c -0.247 0 -0.468 0.065 -0.663 0.208c 0.377 0.065 0.559 0.286 0.559 0.676c 0 0.377 -0.286 0.676 -0.663 0.676c -0.455 0 -0.689 -0.234 -0.689 -0.689c 0 -0.754 0.741 -1.261 1.482 -1.261c 0.949 0 1.729 0.754 2.34 2.249c 0.325 0.793 0.767 2.327 1.313 4.576c 0.949 3.861 1.794 7.995 2.535 12.389c 0.52 3.081 0.988 5.421 1.391 7.02c 0.377 1.508 0.728 2.262 1.04 2.262c 0.26 0 0.481 -0.065 0.65 -0.208c -0.377 -0.065 -0.572 -0.286 -0.572 -0.676c 0 -0.377 0.286 -0.676 0.663 -0.676c 0.455 0 0.689 0.234 0.689 0.689c 0 0.715 -0.702 1.261 -1.456 1.261Z "/></symbol><symbol id="g6697F866823FE95C3132B77B4272D97A" overflow="visible"><path d="M 0 0m 9.022 8.684c 0 0 -0.013 0.234 -0.273 0.234c -0.26 0 -0.546 -0.026 -0.819 -0.026l -0.897 -0.013l -2.262 0.039c -0.156 0 -0.39 0 -0.39 -0.377c 0 -0.234 0.208 -0.234 0.442 -0.234h 0.455c 0.507 0 0.533 0 0.845 -0.039l -1.573 -6.305c -0.325 -1.326 -1.144 -1.716 -1.742 -1.716c -0.117 0 -0.676 0.013 -1.066 0.312c 0.702 0.169 0.936 0.78 0.936 1.131c 0 0.429 -0.351 0.741 -0.793 0.741c -0.52 0 -1.157 -0.416 -1.157 -1.235c 0 -0.897 0.897 -1.417 2.145 -1.417c 1.456 0 3.029 0.598 3.406 2.119l 1.547 6.162c 0.052 0.195 0.065 0.208 0.156 0.221c 0.156 0.026 0.338 0.026 0.494 0.026c 0.338 0 0.546 0 0.546 0.377Z "/></symbol><symbol id="gBD2F635BE1AA233FD824DB5B16D5C07E" overflow="visible"><path d="M 0 0m 9.282 8.944c 0 0.169 -0.143 0.195 -0.234 0.195c -0.091 0 -0.117 0 -0.286 -0.156l -0.715 -0.598c -0.507 0.52 -1.196 0.754 -2.067 0.754c -2.405 0 -3.588 -1.859 -3.588 -3.185c 0 -0.689 0.312 -1.183 0.624 -1.482c 0.455 -0.403 0.767 -0.468 1.729 -0.689l 1.014 -0.234c 0.221 -0.052 1.027 -0.234 1.027 -1.17c 0 -0.624 -0.533 -1.989 -2.223 -1.989c -0.312 0 -1.17 0.039 -1.768 0.39c -0.741 0.455 -0.741 1.079 -0.741 1.339c 0 0.104 0 0.286 0.065 0.533c 0 0.039 0.013 0.13 0.013 0.13c 0 0.182 -0.182 0.182 -0.299 0.182c -0.26 0 -0.273 -0.052 -0.338 -0.299l -0.663 -2.704c 0 -0.143 0.117 -0.182 0.221 -0.182c 0.117 0 0.117 0.013 0.26 0.13c 0.039 0.026 0.533 0.455 0.741 0.624c 0.728 -0.65 1.833 -0.754 2.457 -0.754c 2.548 0 3.679 2.119 3.679 3.445c 0 0.702 -0.286 1.222 -0.585 1.521c -0.468 0.468 -0.78 0.533 -1.872 0.78l -1.014 0.234c -0.572 0.13 -0.923 0.533 -0.923 1.04c 0 0.624 0.572 1.781 2.145 1.781c 1.079 0 2.067 -0.455 2.067 -1.924c 0 -0.234 -0.039 -0.468 -0.039 -0.507c 0 -0.195 0.182 -0.195 0.312 -0.195c 0.247 0 0.26 0.026 0.325 0.286l 0.624 2.444c 0.013 0.039 0.052 0.26 0.052 0.26Z "/></symbol></defs></svg>