<svg viewBox="0 0 290.082577778 39.741" width="290.082577778pt" height="39.741pt" xmlns="http://www.w3.org/2000/svg" xmlns:xlink="http://www.w3.org/1999/xlink" xmlns:h5="http://www.w3.org/1999/xhtml"><g transform="matrix(1 0 0 -1 6.5 21.866)"><use xlink:href="#g115DED64194A3B9D1CA25A004CD4734D" x="0" y="0" fill="#e6edf3" fill-rule="nonzero"/></g><g transform="matrix(1 0 0 -1 16.936111111 21.866)"><use xlink:href="#g13AFF74D87C474CFAF661EEAD0458F8B" x="0" y="0" fill="#e6edf3" fill-rule="nonzero"/></g><g transform="matrix(1 0 0 -1 29.216777778 21.866)"><use xlink:href="#gEB9B079EF07FFCCA69ED7A9B1F1ABEB" x="0" y="0" fill="#e6edf3" fill-rule="nonzero"/></g><g transform="matrix(1 0 0 -1 38.563777778 13.065)"><use xlink:href="#gFCB8EE904C83D15DBBDA0F3192DB537A" x="0" y="0" fill="#e6edf3" fill-rule="nonzero"/></g><g transform="matrix(1 0 0 -1 37.744777778 30.784)"><use xlink:href="#gEB9B079EF07FFCCA69ED7A9B1F1ABEB" x="0" y="0" fill="#e6edf3" fill-rule="nonzero"/></g><g transform="matrix(1 0 0 -1 44.972777778 30.784)"><use xlink:href="#g3780884EF0B1863BCCC7385193F65A25" x="0" y="0" fill="#e6edf3" fill-rule="nonzero"/></g><path fill="none" stroke="#e6edf3" stroke-width="0.624" stroke-linecap="butt" stroke-linejoin="miter" stroke-miterlimit="4" transform="translate(37.744777778 18.616)" d="M 0 0h 11.921"/><g transform="matrix(1 0 0 -1 76.965777778 21.866)"><use xlink:href="#g115DED64194A3B9D1CA25A004CD4734D" x="0" y="0" fill="#e6edf3" fill-rule="nonzero"/></g><g transform="matrix(1 0 0 -1 87.401888889 21.866)"><use xlink:href="#g13AFF74D87C474CFAF661EEAD0458F8B" x="0" y="0" fill="#e6edf3" fill-rule="nonzero"/></g><g transform="matrix(1 0 0 -1 101.127 21.866)"><use xlink:href="#g84C597EFF9988624DBABE6CF17069247" x="0" y="0" fill="#e6edf3" fill-rule="nonzero"/></g><g transform="matrix(1 0 0 -1 108.264 35.659)"><use xlink:href="#gAFF071B78EC9EEFB01BB2C72F5E749E4" x="0" y="0" fill="#e6edf3" fill-rule="nonzero"/></g><g transform="matrix(1 0 0 -1 117.874466667 21.866)"><use xlink:href="#g6697F866823FE95C3132B77B4272D97A" x="0" y="0" fill="#e6edf3" fill-rule="nonzero"/></g><g transform="matrix(1 0 0 -1 130.149355556 21.866)"><use xlink:href="#gB323F9E42E1C20C087FBF81136E27860" x="0" y="0" fill="#e6edf3" fill-rule="nonzero"/></g><g transform="matrix(1 0 0 -1 135.930022222 21.866)"><use xlink:href="#gEB9B079EF07FFCCA69ED7A9B1F1ABEB" x="0" y="0" fill="#e6edf3" fill-rule="nonzero"/></g><g transform="matrix(1 0 0 -1 143.158022222 21.866)"><use xlink:href="#gBD2F635BE1AA233FD824DB5B16D5C07E" x="0" y="0" fill="#e6edf3" fill-rule="nonzero"/></g><g transform="matrix(1 0 0 -1 178.804022222 21.866)"><use xlink:href="#g115DED64194A3B9D1CA25A004CD4734D" x="0" y="0" fill="#e6edf3" fill-rule="nonzero"/></g><g transform="matrix(1 0 0 -1 189.240133333 21.866)"><use xlink:href="#g13AFF74D87C474CFAF661EEAD0458F8B" x="0" y="0" fill="#e6edf3" fill-rule="nonzero"/></g><g transform="matrix(1 0 0 -1 202.965244444 21.866)"><use xlink:href="#g84C597EFF9988624DBABE6CF17069247" x="0" y="0" fill="#e6edf3" fill-rule="nonzero"/></g><g transform="matrix(1 0 0 -1 210.102244444 35.659)"><use xlink:href="#g33B3D41859763DD63975A6CD9628E3A9" x="0" y="0" fill="#e6edf3" fill-rule="nonzero"/></g><g transform="matrix(1 0 0 -1 215.952244444 21.866)"><use xlink:href="#g2D7122AD31FABF41BED931716B883F58" x="0" y="0" fill="#e6edf3" fill-rule="nonzero"/></g><g transform="matrix(1 0 0 -1 221.009244444 21.866)"><use xlink:href="#g7E0DE8510F76F8FD5F8C8A25983FCF95" x="0" y="0" fill="#e6edf3" fill-rule="nonzero"/></g><g transform="matrix(1 0 0 -1 237.301133333 21.866)"><use xlink:href="#g596E6AE655F7C550875F3D7A9A58D2C7" x="0" y="0" fill="#e6edf3" fill-rule="nonzero"/></g><g transform="matrix(1 0 0 -1 250.304022222 21.866)"><use xlink:href="#g5AAD6B38658AAA3198C014B3B7995D3E" x="0" y="0" fill="#e6edf3" fill-rule="nonzero"/></g><g transform="matrix(1 0 0 -1 251.279022222 21.866)"><use xlink:href="#g5B90E9196699B0DF3EE96BEA297F231B" x="0" y="0" fill="#e6edf3" fill-rule="nonzero"/></g><g transform="matrix(1 0 0 -1 258.104022222 21.866)"><use xlink:href="#g2F93E6EEEE2061842AA37F49EEA2F1A2" x="0" y="0" fill="#e6edf3" fill-rule="nonzero"/></g><g transform="matrix(1 0 0 -1 266.049911111 21.866)"><use xlink:href="#gB323F9E42E1C20C087FBF81136E27860" x="0" y="0" fill="#e6edf3" fill-rule="nonzero"/></g><g transform="matrix(1 0 0 -1 271.830577778 21.866)"><use xlink:href="#gEB9B079EF07FFCCA69ED7A9B1F1ABEB" x="0" y="0" fill="#e6edf3" fill-rule="nonzero"/></g><g transform="matrix(1 0 0 -1 279.058577778 21.866)"><use xlink:href="#gE70A8B7A223969D4EC58FC2FFC91A371" x="0" y="0" fill="#e6edf3" fill-rule="nonzero"/></g><defs><symbol id="g115DED64194A3B9D1CA25A004CD4734D" overflow="visible"><path d="M 0 0m 6.461 8.671c 0 0.143 -0.078 0.208 -0.247 0.208l -1.677 -0.039l -1.703 0.039c -0.208 0.013 -0.312 -0.091 -0.312 -0.312c 0 -0.13 0.143 -0.195 0.416 -0.195c 0.559 0 0.832 -0.065 0.832 -0.182c 0 -0.065 -0.013 -0.13 -0.026 -0.195l -1.729 -6.929c -0.065 -0.286 -0.195 -0.455 -0.39 -0.52c -0.091 -0.026 -0.325 -0.039 -0.728 -0.039c -0.325 0 -0.455 -0.013 -0.455 -0.312c 0 -0.13 0.078 -0.195 0.247 -0.195l 1.664 0.039l 1.716 -0.039c 0.208 -0.013 0.312 0.091 0.312 0.299c 0 0.208 -0.156 0.208 -0.442 0.208c -0.507 0 -0.819 -0.026 -0.819 0.182c 0 0.065 0.013 0.156 0.052 0.286l 1.716 6.851c 0.065 0.273 0.195 0.442 0.39 0.507c 0.091 0.026 0.325 0.039 0.728 0.039c 0.312 0 0.455 0.013 0.455 0.299Z "/></symbol><symbol id="g13AFF74D87C474CFAF661EEAD0458F8B" overflow="visible"><path d="M 0 0m 9.074 4.771h -8.034c -0.208 0 -0.312 -0.104 -0.312 -0.299c 0 -0.195 0.104 -0.299 0.312 -0.299h 8.034c 0.208 0 0.312 0.104 0.312 0.299c 0 0.156 -0.143 0.299 -0.312 0.299Z m 0 -2.444h -8.034c -0.208 0 -0.312 -0.104 -0.312 -0.299c 0 -0.195 0.104 -0.299 0.312 -0.299h 8.034c 0.208 0 0.312 0.104 0.312 0.299c 0 0.169 -0.143 0.299 -0.312 0.299Z "/></symbol><symbol id="gEB9B079EF07FFCCA69ED7A9B1F1ABEB" overflow="visible"><path d="M 0 0m 4.862 -0.143l 1.989 0.143v 0.494c -0.468 0 -0.741 0.026 -0.845 0.104c -0.104 0.078 -0.156 0.273 -0.156 0.572v 7.852l -1.937 -0.143v -0.494c 0.455 0 0.741 -0.039 0.845 -0.117c 0.104 -0.078 0.143 -0.26 0.143 -0.559v -2.639c -0.416 0.481 -0.936 0.715 -1.56 0.715c -0.806 0 -1.495 -0.286 -2.054 -0.871c -0.559 -0.585 -0.845 -1.287 -0.845 -2.106c 0 -0.793 0.26 -1.482 0.793 -2.067c 0.533 -0.585 1.183 -0.884 1.976 -0.884c 0.663 0 1.222 0.247 1.651 0.754Z m -1.469 5.538c 0.559 0 1.014 -0.247 1.339 -0.741c 0.091 -0.143 0.13 -0.286 0.13 -0.455v -2.626c 0 -0.169 -0.039 -0.312 -0.13 -0.455c -0.364 -0.585 -0.858 -0.871 -1.469 -0.871c -0.533 0 -0.962 0.26 -1.3 0.793c -0.234 0.39 -0.351 0.975 -0.351 1.755c 0 1.417 0.481 2.6 1.781 2.6Z "/></symbol><symbol id="gFCB8EE904C83D15DBBDA0F3192DB537A" overflow="visible"><path d="M 0 0m 3.978 -0.312c 0.377 0 0.78 0.065 1.209 0.182c -0.039 -0.494 -0.052 -0.806 -0.052 -0.923c 0 -0.975 0.377 -1.469 1.118 -1.469c 0.793 0 1.404 0.637 1.703 1.222c 0.325 0.676 0.494 1.118 0.494 1.326c 0 0.117 -0.065 0.182 -0.195 0.182c -0.091 0 -0.156 -0.052 -0.195 -0.169c -0.195 -0.598 -0.728 -1.209 -1.456 -1.209c -0.663 0 -0.754 0.533 -0.858 1.248c 1.092 0.429 2.015 1.17 2.756 2.236c 0.741 1.066 1.118 2.171 1.118 3.328c 0 1.027 -0.299 1.859 -0.91 2.522c -0.611 0.663 -1.417 1.001 -2.418 1.001c -0.689 0 -1.378 -0.169 -2.067 -0.52c -1.404 -0.689 -2.431 -1.781 -3.094 -3.25c -0.325 -0.741 -0.494 -1.469 -0.494 -2.21c 0 -2.041 1.326 -3.497 3.341 -3.497Z m 4.407 6.37c 0 -0.793 -0.195 -1.703 -0.585 -2.756c -0.455 -1.209 -1.157 -2.106 -2.132 -2.678c -0.052 0.286 -0.13 0.546 -0.234 0.78c -0.169 0.39 -0.481 0.585 -0.936 0.585c -0.715 0 -1.365 -0.65 -1.365 -1.365c 0 -0.117 0.013 -0.234 0.039 -0.325c -0.871 0.403 -1.3 1.222 -1.3 2.47c 0 0.546 0.104 1.209 0.325 1.989c 0.455 1.651 1.274 2.821 2.457 3.51c 0.559 0.312 1.079 0.468 1.56 0.468c 1.43 0 2.171 -1.183 2.171 -2.678Z m -3.887 -4.459c 0.481 0 0.728 -0.351 0.728 -1.04c 0 -0.117 -0.039 -0.182 -0.117 -0.208c -0.364 -0.156 -0.715 -0.234 -1.053 -0.234c -0.364 0 -0.546 0.169 -0.546 0.507c 0 0.494 0.494 0.975 0.988 0.975Z "/></symbol><symbol id="g3780884EF0B1863BCCC7385193F65A25" overflow="visible"><path d="M 0 0m 4.29 5.447c 0 0.117 -0.13 0.182 -0.403 0.182h -1.053c 0.338 1.352 0.507 2.054 0.507 2.106c 0 0.273 -0.143 0.403 -0.416 0.403c -0.299 0 -0.481 -0.169 -0.559 -0.507l -0.481 -2.002h -1.157c -0.286 0 -0.429 -0.013 -0.429 -0.286c 0 -0.143 0.13 -0.208 0.403 -0.208h 1.053c -0.637 -2.535 -0.949 -3.874 -0.949 -4.043c 0 -0.728 0.494 -1.235 1.222 -1.235c 0.494 0 0.923 0.221 1.3 0.676c 0.312 0.377 0.533 0.741 0.676 1.092c 0.052 0.143 0.078 0.221 0.078 0.26c 0 0.117 -0.065 0.182 -0.195 0.182c -0.104 0 -0.182 -0.065 -0.234 -0.208c -0.442 -1.079 -0.975 -1.612 -1.612 -1.612c -0.221 0 -0.338 0.182 -0.338 0.533c 0 0.195 0.026 0.403 0.078 0.611l 0.923 3.744h 1.157c 0.338 0 0.429 0.026 0.429 0.312Z "/></symbol><symbol id="g84C597EFF9988624DBABE6CF17069247" overflow="visible"><path d="M 0 0m 10.803 17.693c -0.611 0 -1.157 -0.559 -1.664 -1.677c -0.247 -0.533 -0.507 -1.339 -0.793 -2.418c -1.261 -4.654 -2.21 -9.191 -3.211 -15.119c -0.455 -2.743 -0.832 -4.732 -1.131 -5.941c -0.533 -2.223 -1.144 -3.341 -1.82 -3.341c -0.247 0 -0.468 0.065 -0.663 0.208c 0.377 0.065 0.559 0.286 0.559 0.676c 0 0.377 -0.286 0.676 -0.663 0.676c -0.455 0 -0.689 -0.234 -0.689 -0.689c 0 -0.754 0.741 -1.261 1.482 -1.261c 0.949 0 1.729 0.754 2.34 2.249c 0.325 0.793 0.767 2.327 1.313 4.576c 0.949 3.861 1.794 7.995 2.535 12.389c 0.52 3.081 0.988 5.421 1.391 7.02c 0.377 1.508 0.728 2.262 1.04 2.262c 0.26 0 0.481 -0.065 0.65 -0.208c -0.377 -0.065 -0.572 -0.286 -0.572 -0.676c 0 -0.377 0.286 -0.676 0.663 -0.676c 0.455 0 0.689 0.234 0.689 0.689c 0 0.715 -0.702 1.261 -1.456 1.261Z "/></symbol><symbol id="gAFF071B78EC9EEFB01BB2C72F5E749E4" overflow="visible"><path d="M 0 0m 5.5874 4.2679c 0 -0.1092 0.0637 -0.1638 0.1911 -0.1638c 0.1729 0 0.1729 0.0637 0.2184 0.2275l 0.4641 1.911c 0 0.1001 -0.0546 0.1547 -0.1547 0.1547c -0.0546 0 -0.1274 -0.0455 -0.2093 -0.1365l -0.4095 -0.4823c -0.3094 0.4095 -0.7917 0.6188 -1.456 0.6188c -0.5915 0 -1.1375 -0.2002 -1.6289 -0.5915c -0.5369 -0.4277 -0.8008 -0.9282 -0.8008 -1.5015c 0 -0.6643 0.4641 -1.1557 1.0283 -1.3104c 0.5824 -0.1456 1.0192 -0.2548 1.3104 -0.3185c 0.5369 -0.1274 0.8099 -0.4277 0.8099 -0.91c 0 -0.4277 -0.182 -0.7917 -0.546 -1.092c -0.364 -0.3003 -0.7735 -0.455 -1.2012 -0.455c -0.4277 0 -0.819 0.0819 -1.1557 0.2548c -0.3731 0.1911 -0.5551 0.5187 -0.5551 0.9828c 0 0.1365 0.0182 0.2912 0.0546 0.4459c 0.0091 0.0273 0.0091 0.0455 0.0091 0.0546c 0 0.1001 -0.0637 0.1547 -0.182 0.1547c -0.0455 0 -0.0728 0 -0.1001 -0.0091c -0.0637 -0.0728 -0.1001 -0.1365 -0.1092 -0.2002l -0.455 -1.7927c -0.0182 -0.0728 -0.0273 -0.1183 -0.0273 -0.1456c 0 -0.1001 0.0546 -0.1456 0.1638 -0.1456c 0.0637 0 0.1274 0.0455 0.2002 0.1365l 0.2184 0.2548c 0.0819 0.1001 0.1456 0.1729 0.1911 0.2184c 0.3913 -0.4095 0.9646 -0.6097 1.7199 -0.6097c 0.6188 0 1.183 0.2184 1.6926 0.6552c 0.5278 0.4641 0.7917 1.001 0.7917 1.6107c 0 0.7917 -0.4732 1.2194 -1.1284 1.4287c 0 0 -1.2649 0.2821 -1.4287 0.3458c -0.3913 0.1365 -0.5824 0.4004 -0.5824 0.7826c 0 0.3913 0.1911 0.728 0.5733 1.0101c 0.3458 0.2548 0.7189 0.3822 1.1284 0.3822c 0.9373 0 1.4014 -0.455 1.4014 -1.365c 0 -0.0728 -0.0364 -0.3276 -0.0364 -0.4004Z "/></symbol><symbol id="g6697F866823FE95C3132B77B4272D97A" overflow="visible"><path d="M 0 0m 9.022 8.684c 0 0 -0.013 0.234 -0.273 0.234c -0.26 0 -0.546 -0.026 -0.819 -0.026l -0.897 -0.013l -2.262 0.039c -0.156 0 -0.39 0 -0.39 -0.377c 0 -0.234 0.208 -0.234 0.442 -0.234h 0.455c 0.507 0 0.533 0 0.845 -0.039l -1.573 -6.305c -0.325 -1.326 -1.144 -1.716 -1.742 -1.716c -0.117 0 -0.676 0.013 -1.066 0.312c 0.702 0.169 0.936 0.78 0.936 1.131c 0 0.429 -0.351 0.741 -0.793 0.741c -0.52 0 -1.157 -0.416 -1.157 -1.235c 0 -0.897 0.897 -1.417 2.145 -1.417c 1.456 0 3.029 0.598 3.406 2.119l 1.547 6.162c 0.052 0.195 0.065 0.208 0.156 0.221c 0.156 0.026 0.338 0.026 0.494 0.026c 0.338 0 0.546 0 0.546 0.377Z "/></symbol><symbol id="gB323F9E42E1C20C087FBF81136E27860" overflow="visible"><path d="M 0 0m 2.496 3.25c 0 0.377 -0.312 0.689 -0.689 0.689c -0.377 0 -0.689 -0.312 -0.689 -0.689c 0 -0.377 0.312 -0.689 0.689 -0.689c 0.377 0 0.689 0.312 0.689 0.689Z "/></symbol><symbol id="gBD2F635BE1AA233FD824DB5B16D5C07E" overflow="visible"><path d="M 0 0m 9.282 8.944c 0 0.169 -0.143 0.195 -0.234 0.195c -0.091 0 -0.117 0 -0.286 -0.156l -0.715 -0.598c -0.507 0.52 -1.196 0.754 -2.067 0.754c -2.405 0 -3.588 -1.859 -3.588 -3.185c 0 -0.689 0.312 -1.183 0.624 -1.482c 0.455 -0.403 0.767 -0.468 1.729 -0.689l 1.014 -0.234c 0.221 -0.052 1.027 -0.234 1.027 -1.17c 0 -0.624 -0.533 -1.989 -2.223 -1.989c -0.312 0 -1.17 0.039 -1.768 0.39c -0.741 0.455 -0.741 1.079 -0.741 1.339c 0 0.104 0 0.286 0.065 0.533c 0 0.039 0.013 0.13 0.013 0.13c 0 0.182 -0.182 0.182 -0.299 0.182c -0.26 0 -0.273 -0.052 -0.338 -0.299l -0.663 -2.704c 0 -0.143 0.117 -0.182 0.221 -0.182c 0.117 0 0.117 0.013 0.26 0.13c 0.039 0.026 0.533 0.455 0.741 0.624c 0.728 -0.65 1.833 -0.754 2.457 -0.754c 2.548 0 3.679 2.119 3.679 3.445c 0 0.702 -0.286 1.222 -0.585 1.521c -0.468 0.468 -0.78 0.533 -1.872 0.78l -1.014 0.234c -0.572 0.13 -0.923 0.533 -0.923 1.04c 0 0.624 0.572 1.781 2.145 1.781c 1.079 0 2.067 -0.455 2.067 -1.924c 0 -0.234 -0.039 -0.468 -0.039 -0.507c 0 -0.195 0.182 -0.195 0.312 -0.195c 0.247 0 0.26 0.026 0.325 0.286l 0.624 2.444c 0.013 0.039 0.052 0.26 0.052 0.26Z "/></symbol><symbol id="g33B3D41859763DD63975A6CD9628E3A9" overflow="visible"><path d="M 0 0m 1.7199 5.7239c 0 -0.0273 -0.0091 -0.091 -0.0273 -0.1911l -1.092 -4.4408c -0.0273 -0.1001 -0.0364 -0.2002 -0.0364 -0.2912c 0 -0.5278 0.4277 -0.8918 0.9555 -0.8918c 0.3913 0 0.6825 0.2912 0.8918 0.8736c 0.1001 0.273 0.1547 0.455 0.1547 0.5369c 0 0.1001 -0.0546 0.1547 -0.1729 0.1547c -0.1001 0 -0.1729 -0.0819 -0.2093 -0.2548c -0.0364 -0.1729 -0.091 -0.3276 -0.1365 -0.4641c -0.1274 -0.3458 -0.2912 -0.5187 -0.4914 -0.5187c -0.1729 0 -0.2639 0.1365 -0.2639 0.4004c 0 0.1001 0.0182 0.2184 0.0546 0.364l 1.2194 4.9959c 0.0091 0.0182 0.0182 0.0728 0.0364 0.1547c 0 0.1092 -0.0546 0.1638 -0.1729 0.1638c -0.1001 0 -0.4732 -0.0273 -1.1284 -0.091c -0.1456 -0.0091 -0.2184 -0.091 -0.2184 -0.2457c 0 -0.1001 0.0819 -0.1547 0.2548 -0.1547c 0.1547 0 0.3822 0 0.3822 -0.1001Z "/></symbol><symbol id="g2D7122AD31FABF41BED931716B883F58" overflow="visible"><path d="M 0 0m 4.134 -3.224c 0.117 0 0.182 0.065 0.182 0.182c 0 0.039 -0.026 0.091 -0.065 0.143c -0.676 0.52 -1.222 1.378 -1.625 2.561c -0.351 1.027 -0.533 2.041 -0.533 3.042v 1.092c 0 1.001 0.182 2.015 0.533 3.042c 0.403 1.183 0.949 2.041 1.625 2.561c 0.039 0.039 0.065 0.091 0.065 0.143c 0 0.117 -0.065 0.182 -0.182 0.182c -0.013 0 -0.052 -0.013 -0.091 -0.039c -0.78 -0.598 -1.43 -1.482 -1.963 -2.665c -0.507 -1.131 -0.767 -2.197 -0.767 -3.224v -1.092c 0 -1.027 0.26 -2.093 0.767 -3.224c 0.533 -1.183 1.183 -2.067 1.963 -2.665c 0.039 -0.026 0.078 -0.039 0.091 -0.039Z "/></symbol><symbol id="g7E0DE8510F76F8FD5F8C8A25983FCF95" overflow="visible"><path d="M 0 0m 13.039 8.684c 0 0.117 -0.104 0.234 -0.234 0.234c -0.325 0 -0.702 -0.039 -1.04 -0.039c -0.533 0 -1.092 0.039 -1.625 0.039c -0.104 0 -0.364 0 -0.364 -0.377c 0 -0.234 0.234 -0.234 0.312 -0.234c 0.104 0 0.377 -0.013 0.598 -0.091l -5.928 -4.095l 1.027 4.134c 0.286 0.052 0.741 0.052 0.884 0.052c 0.169 0 0.429 0 0.481 0.039c 0.13 0.091 0.143 0.338 0.143 0.338c 0 0.169 -0.13 0.234 -0.286 0.234c -0.325 0 -0.663 -0.026 -0.988 -0.026l -0.975 -0.013l -1.001 0.013c -0.338 0 -0.689 0.026 -1.027 0.026c -0.117 0 -0.377 0 -0.377 -0.377c 0 -0.234 0.169 -0.234 0.546 -0.234c 0.273 0 0.52 -0.013 0.793 -0.026l -1.859 -7.41c -0.052 -0.208 -0.065 -0.221 -0.299 -0.247c -0.221 -0.013 -0.481 -0.013 -0.689 -0.013c -0.338 0 -0.364 0 -0.416 -0.026c -0.156 -0.091 -0.156 -0.299 -0.156 -0.351c 0 0 0.013 -0.234 0.286 -0.234c 0.325 0 0.663 0.026 0.988 0.026l 0.988 0.013l 1.001 -0.013c 0.338 0 0.689 -0.026 1.014 -0.026c 0.13 0 0.221 0 0.299 0.091c 0.052 0.078 0.078 0.286 0.078 0.286c 0 0.234 -0.182 0.234 -0.533 0.234c -0.273 0 -0.52 0.013 -0.793 0.026l 0.676 2.704l 1.612 1.105l 1.937 -3.757c -0.26 -0.078 -0.65 -0.078 -0.702 -0.078c -0.169 0 -0.247 0 -0.325 -0.091c -0.052 -0.065 -0.078 -0.286 -0.078 -0.286c 0 0 0 -0.234 0.273 -0.234l 1.924 0.039l 0.832 -0.013c 0.26 0 0.533 -0.026 0.78 -0.026c 0.091 0 0.351 0 0.351 0.377c 0 0.234 -0.221 0.234 -0.416 0.234c -0.598 0 -0.624 0.052 -0.728 0.26l -2.366 4.589c 0.871 0.611 3.25 2.288 3.705 2.522c 0.299 0.156 0.572 0.299 1.235 0.325c 0.234 0.013 0.442 0.013 0.442 0.377Z "/></symbol><symbol id="g596E6AE655F7C550875F3D7A9A58D2C7" overflow="visible"><path d="M 0 0m 8.19 0.416c 0 0.091 -0.026 0.156 -0.091 0.221l -2.613 2.613l 2.613 2.613c 0.065 0.065 0.091 0.13 0.091 0.221c 0 0.169 -0.13 0.299 -0.299 0.299c -0.091 0 -0.156 -0.026 -0.221 -0.091l -2.613 -2.613l -2.613 2.613c -0.065 0.065 -0.13 0.091 -0.221 0.091c -0.169 0 -0.299 -0.13 -0.299 -0.299c 0 -0.091 0.026 -0.156 0.091 -0.221l 2.613 -2.613l -2.613 -2.613c -0.065 -0.065 -0.091 -0.13 -0.091 -0.221c 0 -0.169 0.13 -0.299 0.299 -0.299c 0.091 0 0.156 0.026 0.221 0.091l 2.613 2.613l 2.613 -2.613c 0.065 -0.065 0.13 -0.091 0.221 -0.091c 0.169 0 0.299 0.13 0.299 0.299Z "/></symbol><symbol id="g5AAD6B38658AAA3198C014B3B7995D3E" overflow="visible"><path d="M 0 0m 6.981 1.781c -0.299 -1.027 -0.728 -1.547 -1.261 -1.547c -0.169 0 -0.26 0.13 -0.26 0.377c 0 0.182 0.078 0.481 0.234 0.884c 0.52 1.417 0.78 2.353 0.78 2.834c 0 0.91 -0.611 1.417 -1.521 1.417c -0.767 0 -1.43 -0.338 -1.963 -1.027c -0.104 0.572 -0.559 1.027 -1.222 1.027c -0.728 0 -1.014 -0.676 -1.196 -1.261c -0.13 -0.416 -0.195 -0.663 -0.195 -0.754c 0 -0.117 0.065 -0.182 0.208 -0.182c 0.065 0 0.104 0.013 0.143 0.039c 0.065 0.117 0.104 0.208 0.117 0.299c 0.234 0.988 0.533 1.482 0.884 1.482c 0.234 0 0.351 -0.182 0.351 -0.546c 0 -0.169 -0.065 -0.52 -0.208 -1.053l -0.741 -2.951c -0.039 -0.169 -0.117 -0.507 -0.117 -0.572c 0 -0.26 0.143 -0.39 0.429 -0.39c 0.247 0 0.429 0.13 0.52 0.39c 0.026 0.065 0.104 0.39 0.247 0.949l 0.273 1.157l 0.39 1.482c 0.143 0.299 0.364 0.598 0.637 0.91c 0.377 0.416 0.845 0.624 1.404 0.624c 0.429 0 0.637 -0.286 0.637 -0.845c 0 -0.494 -0.273 -1.482 -0.832 -2.964c -0.091 -0.234 -0.13 -0.429 -0.13 -0.598c 0 -0.637 0.481 -1.105 1.105 -1.105c 0.572 0 1.027 0.325 1.352 0.975c 0.247 0.52 0.377 0.871 0.377 1.04c 0 0.117 -0.065 0.182 -0.208 0.182c -0.039 0 -0.234 -0.117 -0.234 -0.273Z "/></symbol><symbol id="g5B90E9196699B0DF3EE96BEA297F231B" overflow="visible"><path d="M 0 0m 5.018 6.695l 0.221 0.234l -1.989 2.093l -1.989 -2.093l 0.221 -0.234l 1.768 1.339Z "/></symbol><symbol id="g2F93E6EEEE2061842AA37F49EEA2F1A2" overflow="visible"><path d="M 0 0m 1.014 -3.185c 0.78 0.598 1.43 1.482 1.963 2.665c 0.507 1.131 0.767 2.197 0.767 3.224v 1.092c 0 1.027 -0.26 2.093 -0.767 3.224c -0.533 1.183 -1.183 2.067 -1.963 2.665c -0.039 0.026 -0.078 0.039 -0.091 0.039c -0.117 0 -0.182 -0.065 -0.182 -0.182c 0 -0.052 0.026 -0.104 0.065 -0.143c 0.676 -0.52 1.222 -1.378 1.625 -2.561c 0.351 -1.027 0.533 -2.041 0.533 -3.042v -1.092c 0 -1.001 -0.182 -2.015 -0.533 -3.042c -0.403 -1.183 -0.949 -2.041 -1.625 -2.561c -0.039 -0.052 -0.065 -0.104 -0.065 -0.143c 0 -0.117 0.065 -0.182 0.182 -0.182c 0.013 0 0.052 0.013 0.091 0.039Z "/></symbol><symbol id="gE70A8B7A223969D4EC58FC2FFC91A371" overflow="visible"><path d="M 0 0m 3.744 8.788c 0 0.169 -0.143 0.234 -0.286 0.234c -0.052 0 -0.065 0 -0.091 -0.013l -1.677 -0.078c -0.182 -0.013 -0.416 -0.026 -0.416 -0.39c 0 -0.234 0.247 -0.234 0.338 -0.234c 0.143 0 0.377 0 0.546 -0.026l -1.664 -6.669c -0.039 -0.143 -0.065 -0.26 -0.065 -0.442c 0 -0.858 0.858 -1.274 1.625 -1.274c 0.481 0 0.845 0.273 1.131 0.741c 0.312 0.507 0.494 1.209 0.494 1.287c 0 0.182 -0.195 0.182 -0.312 0.182c -0.143 0 -0.195 0 -0.26 -0.065c -0.026 -0.026 -0.026 -0.052 -0.104 -0.377c -0.247 -0.988 -0.533 -1.3 -0.884 -1.3c -0.195 0 -0.299 0.13 -0.299 0.468c 0 0.26 0.039 0.39 0.078 0.572l 1.794 7.163c 0.052 0.182 0.052 0.221 0.052 0.221Z "/></symbol></defs></svg>