<svg class="typst-doc" viewBox="0 0 92.1609 20.110999999999997" width="92.1609pt" height="20.110999999999997pt" xmlns="http://www.w3.org/2000/svg" xmlns:xlink="http://www.w3.org/1999/xlink" xmlns:h5="http://www.w3.org/1999/xhtml">
    <g>
        <g class="typst-group">
            <g>
                <g class="typst-text" transform="matrix(1 0 0 -1 6.5 12.818)">
                    <use xlink:href="#g5DEF9E7F4A4E75DF8A1AB5DAF4CF51BE" x="0" y="0" fill="#e6edf3" fill-rule="nonzero"/>
                </g>
                <g class="typst-text" transform="matrix(1 0 0 -1 22.370111111111115 12.818)">
                    <use xlink:href="#g17B9629AC1C3FA19683E9944E21FFB4D" x="0" y="0" fill="#e6edf3" fill-rule="nonzero"/>
                </g>
                <g class="typst-text" transform="matrix(1 0 0 -1 36.095222222222226 12.818)">
                    <use xlink:href="#g9650F7627BFB24BE5FE6788D4E6EBD59" x="0" y="0" fill="#e6edf3" fill-rule="nonzero"/>
                </g>
                <g class="typst-text" transform="matrix(1 0 0 -1 41.373222222222225 16.029)">
                    <use xlink:href="#gAAC6B64334C326A06DD3C76B462F26F8" x="0" y="0" fill="#e6edf3" fill-rule="nonzero"/>
                </g>
                <g class="typst-text" transform="matrix(1 0 0 -1 47.27912222222223 12.818)">
                    <use xlink:href="#g148F7D9CF8C798023F7FC96EE63ECB3A" x="0" y="0" fill="#e6edf3" fill-rule="nonzero"/>
                </g>
                <g class="typst-text" transform="matrix(1 0 0 -1 61.25701111111111 12.818)">
                    <use xlink:href="#g6E16AA7B36344F9D0136F5058897B754" x="0" y="0" fill="#e6edf3" fill-rule="nonzero"/>
                </g>
                <g class="typst-text" transform="matrix(1 0 0 -1 74.25989999999999 12.818)">
                    <use xlink:href="#g41B393F11B210FF26C54AFC7825702BC" x="0" y="0" fill="#e6edf3" fill-rule="nonzero"/>
                </g>
            </g>
        </g>
    </g>
    <defs id="glyph">
        <symbol id="g5DEF9E7F4A4E75DF8A1AB5DAF4CF51BE" overflow="visible">
            <path d="M 0 0m 11.895 5.7070003 c 0 2.249 -1.651 3.211 -3.5880003 3.211 h -5.1870003 c -0.26 0 -0.48100019 0 -0.48100019 -0.37699986 c 0 -0.2340002 0.16900015 -0.2340002 0.54600024 -0.2340002 c 0.273 0 0.52 -0.012999535 0.793 -0.026000023 l -1.8590002 -7.4100003 c -0.051999807 -0.208 -0.06499982 -0.22099996 -0.2989999 -0.24699998 c -0.22100008 -0.013000011 -0.48100007 -0.013000011 -0.689 -0.013000011 c -0.338 0 -0.36400002 0 -0.416 -0.025999963 c -0.15600002 -0.09100002 -0.15600002 -0.29900002 -0.15600002 -0.35100004 c 0 -0.234 0.23400003 -0.234 0.44200003 -0.234 h 5.083 c 3.7310004 0 5.8110003 3.068 5.8110003 5.7070003 Z m -1.7290001 0.45499992 c 0 -0.90999985 -0.48099995 -2.704 -0.8319998 -3.4320002 c -0.75400066 -1.521 -2.1060004 -2.119 -3.6010003 -2.119 h -1.612 c -0.19500017 0 -0.2210002 0 -0.31200027 0.013000011 l 1.8590002 7.449 c 0.052000046 0.19500065 0.06500006 0.20800018 0.14300013 0.22100067 c 0.116999626 0.012999535 0.2079997 0.012999535 0.35099983 0.012999535 h 1.4819999 c 0.37699986 0 1.2480001 -0.038999557 1.8719997 -0.533 c 0.6500006 -0.546 0.6500006 -1.3130002 0.6500006 -1.612 Z "/>
        </symbol>
        <symbol id="g17B9629AC1C3FA19683E9944E21FFB4D" overflow="visible">
            <path d="M 0 0m 9.074 4.771 h -8.034 c -0.20799994 0 -0.31199992 -0.103999615 -0.31199992 -0.2989998 c 0 -0.19500017 0.10399997 -0.29900026 0.31199992 -0.29900026 h 8.034 c 0.20800018 0 0.31200027 0.10400009 0.31200027 0.29900026 c 0 0.15600014 -0.1430006 0.2989998 -0.31200027 0.2989998 Z m 0 -2.4439998 h -8.034 c -0.20799994 0 -0.31199992 -0.10400009 -0.31199992 -0.29900002 c 0 -0.19500005 0.10399997 -0.29900002 0.31199992 -0.29900002 h 8.034 c 0.20800018 0 0.31200027 0.10399997 0.31200027 0.29900002 c 0 0.16899991 -0.1430006 0.29900002 -0.31200027 0.29900002 Z "/>
        </symbol>
        <symbol id="g9650F7627BFB24BE5FE6788D4E6EBD59" overflow="visible">
            <path d="M 0 0m 2.964 -0.143 c 0.52 0 1.0010002 0.143 1.4430001 0.42900002 c 0.16900015 0.116999984 0.24700022 0.208 0.24700022 0.273 c 0 0.15600002 -0.06500006 0.23400003 -0.18200016 0.23400003 l -0.18200016 -0.09100002 c -0.48099995 -0.312 -0.90999985 -0.46800002 -1.3 -0.46800002 c -0.87100005 0 -1.326 0.702 -1.326 1.6120001 c 0 0.33799994 0.039000034 0.689 0.13 1.0400001 h 2.054 c 0.3249998 0 0.48099995 0.09099984 0.48099995 0.26 c 0 0.1559999 -0.14300013 0.23399997 -0.4159999 0.23399997 h -1.9890001 c 0.35100007 1.1570001 1.053 1.7290001 2.1060002 1.7290001 h 0.38999987 c 0.3119998 0 0.46799994 0.09100008 0.46799994 0.25999975 c 0 0.15600014 -0.14300013 0.2340002 -0.4289999 0.2340002 h -0.4419999 c -0.9230001 0 -1.7290001 -0.31200027 -2.4050002 -0.9489999 c -0.676 -0.6370001 -1.0009999 -1.4040003 -1.0009999 -2.3270001 c 0 -1.404 0.94900006 -2.4700003 2.353 -2.4700003 Z "/>
        </symbol>
        <symbol id="gAAC6B64334C326A06DD3C76B462F26F8" overflow="visible">
            <path d="M 0 0m 4.6956 2.9029002 c 0 1.0283 -0.18199968 1.8109002 -0.53690004 2.3477998 c -0.29119992 0.4550004 -0.87359977 0.79170036 -1.5742998 0.79170036 c -0.29120016 0 -0.5551002 -0.04550028 -0.78260005 -0.14560032 c -1.0010002 -0.4185996 -1.3286002 -1.5833998 -1.3286002 -2.9938998 c 0 -0.30940008 0.01820001 -0.60060024 0.04549998 -0.8827002 c 0.15470004 -1.1921 0.7098 -2.2022 2.0657 -2.2022 c 0.29119992 0 0.55509996 0.04550001 0.7825999 0.1456 c 1.0009999 0.4095 1.3285999 1.547 1.3285999 2.9393003 Z m -1.0373998 2.0201998 c 0.1000998 -0.33669996 0.1546998 -0.96459985 0.1546998 -1.9018998 c 0 -0.89180017 -0.03639984 -1.5197002 -0.11829996 -1.8928001 c -0.1092 -0.53690004 -0.4914 -0.98280007 -1.1101999 -0.98280007 c -0.22749996 0 -0.45500016 0.072799996 -0.6643001 0.2275 c -0.28210008 0.20930001 -0.45500004 0.61880004 -0.5278001 1.2467 c -0.0273 0.20930004 -0.03639996 0.6733999 -0.03639996 1.4014001 c 0 0.88269997 0.04550004 1.4924002 0.1365 1.8200002 c 0.15470004 0.58239985 0.5187 0.8736 1.0920001 0.8736 c 0.546 0 0.9463999 -0.35490036 1.0738001 -0.79170036 Z "/>
        </symbol>
        <symbol id="g148F7D9CF8C798023F7FC96EE63ECB3A" overflow="visible">
            <path d="M 0 0m 10.725 8.606 c 0 0.2340002 -0.22099972 0.2340002 -0.4289999 0.2340002 h -7.2020006 c -0.273 0 -0.286 -0.012999535 -0.35100007 -0.06499958 c -0.09100008 -0.065000534 -0.116999865 -0.31200027 -0.116999865 -0.31200027 c 0 -0.2340002 0.18199992 -0.2340002 0.533 -0.2340002 c 0.273 0 0.52 -0.012999535 0.793 -0.026000023 l -1.8330002 -7.3320003 c -0.051999807 -0.208 -0.06499982 -0.22099996 -0.2989999 -0.24699998 c -0.22100008 -0.013000011 -0.48100007 -0.013000011 -0.689 -0.013000011 c -0.338 0 -0.36400002 0 -0.416 -0.025999963 c -0.15600002 -0.09100002 -0.15600002 -0.29900002 -0.15600002 -0.35100004 c 0 -0.234 0.22100002 -0.234 0.44200003 -0.234 h 7.423 c 0.31200027 0 0.36400032 0 0.48099995 0.273 l 1.2480001 2.821 c 0.07800007 0.16899991 0.07800007 0.23399997 0.07800007 0.23399997 c 0 0.23399997 -0.24699974 0.23399997 -0.31199932 0.23399997 c -0.20800018 0 -0.22100067 -0.026000023 -0.3770008 -0.37699986 c -0.77999973 -1.7160002 -1.4559994 -2.5740001 -3.6529999 -2.5740001 h -1.69 c -0.1949997 0 -0.22099972 0 -0.3119998 0.013000011 l 0.90999985 3.6529999 h 0.8970003 c 0.7669997 0 1.027 -0.1170001 1.027 -0.5589998 c 0 -0.20800018 -0.09100008 -0.559 -0.10400009 -0.59800005 l -0.013000011 -0.13000011 c 0 -0.19499993 0.16900015 -0.23399997 0.29900026 -0.23399997 c 0.24699974 0 0.25999975 0.07800007 0.3249998 0.31200004 l 0.72800016 2.899 c 0.052000046 0.16900015 0.052000046 0.20800018 0.052000046 0.20800018 c 0 0.23399973 -0.26000023 0.23399973 -0.31200027 0.23399973 c -0.24699974 0 -0.27299976 -0.0909996 -0.33799982 -0.33799982 c -0.26000023 -0.9749999 -0.6500001 -1.1830001 -1.625 -1.1830001 h -0.7800002 l 0.81900024 3.315 c 0.16899967 0.026000023 0.3119998 0.026000023 0.4419999 0.026000023 h 1.7030001 c 1.4170003 0 1.9889998 -0.3119998 1.9889998 -1.5469999 c 0 -0.2340002 -0.052000046 -0.52 -0.052000046 -0.72800016 c 0 -0.24699974 0.24699974 -0.24699974 0.31200027 -0.24699974 c 0.27299976 0 0.28600025 0.12999964 0.31200027 0.36399984 c 0.077999115 0.84500027 0.1819992 1.677 0.24699974 2.5349998 Z "/>
        </symbol>
        <symbol id="g6E16AA7B36344F9D0136F5058897B754" overflow="visible">
            <path d="M 0 0m 9.074 3.562 h -3.7050004 v 3.7050002 c 0 0.20800018 -0.103999615 0.3119998 -0.3119998 0.3119998 c -0.20800018 0 -0.31200027 -0.103999615 -0.31200027 -0.3119998 v -3.7050002 h -3.705 c -0.20799994 0 -0.31199992 -0.10399985 -0.31199992 -0.31200004 c 0 -0.20799994 0.10399997 -0.31200004 0.31199992 -0.31200004 h 3.705 v -3.705 c 0 -0.208 0.10400009 -0.31199998 0.31200027 -0.31199998 c 0.20800018 0 0.3119998 0.10399997 0.3119998 0.31199998 v 3.705 h 3.7050004 c 0.20800018 0 0.31200027 0.10400009 0.31200027 0.31200004 c 0 0.16900015 -0.1430006 0.31200004 -0.31200027 0.31200004 Z "/>
        </symbol>
        <symbol id="g41B393F11B210FF26C54AFC7825702BC" overflow="visible">
            <path d="M 0 0m 11.037001 6.9160004 c 0 1.3260002 -1.1960001 2.0019999 -2.9120007 2.0019999 h -5.005 c -0.24699998 0 -0.48100019 0 -0.48100019 -0.37699986 c 0 -0.2340002 0.18200016 -0.2340002 0.54600024 -0.2340002 c 0.273 0 0.52 -0.012999535 0.793 -0.026000023 l -1.8590002 -7.4100003 c -0.051999807 -0.208 -0.06499982 -0.22099996 -0.2989999 -0.24699998 c -0.22100008 -0.013000011 -0.48100007 -0.013000011 -0.689 -0.013000011 c -0.338 0 -0.36400002 0 -0.403 -0.038999975 c -0.16900003 -0.07800001 -0.16900003 -0.27300003 -0.16900003 -0.33800003 c 0 0 0 -0.234 0.286 -0.234 c 0.32500005 0 0.663 0.026 0.98800004 0.026 l 0.98800004 0.013 l 1.0009999 -0.013 c 0.33799982 0 0.6890001 -0.026 1.0139999 -0.026 c 0.13000011 0 0.37700033 0 0.37700033 0.36400002 c 0 0.24699998 -0.15600014 0.24699998 -0.533 0.24699998 c -0.27300024 0 -0.52000046 0.013000011 -0.7930002 0.026000023 l 0.81900024 3.289 h 2.3009996 c 2.3920002 0 4.0300007 1.4559999 4.0300007 2.9900002 Z m -1.8200006 0.36399984 c 0 -0.15600014 -0.16899967 -1.4819999 -0.6499996 -2.106 c -0.27299976 -0.3510003 -0.8580003 -0.71500015 -2.0280004 -0.71500015 h -1.7810001 l 0.9100003 3.6139998 c 0.052000046 0.19500065 0.06500006 0.20800018 0.14300013 0.22100067 c 0.116999626 0.012999535 0.2079997 0.012999535 0.35099983 0.012999535 h 1.3519998 c 0.72800064 0 1.7030001 -0.13000011 1.7030001 -1.027 Z "/>
        </symbol>
    </defs>
</svg>
