<svg class="typst-doc" viewBox="0 0 81.33002222222223 34.65800000000001" width="81.33002222222223pt" height="34.65800000000001pt" xmlns="http://www.w3.org/2000/svg" xmlns:xlink="http://www.w3.org/1999/xlink" xmlns:h5="http://www.w3.org/1999/xhtml">
    <g>
        <g class="typst-group">
            <g>
                <g class="typst-text" transform="matrix(1 0 0 -1 6.5 18.447000000000003)">
                    <use xlink:href="#g76B7CDBCADFD7611D6F811816A2C6218" x="0" y="0" fill="#e6edf3" fill-rule="nonzero"/>
                </g>
                <g class="typst-text" transform="matrix(1 0 0 -1 17.329 13.728)">
                    <use xlink:href="#g44AE30A7EB3BB786DC1379B8EF0EC6C1" x="0" y="0" fill="#e6edf3" fill-rule="nonzero"/>
                </g>
                <g class="typst-text" transform="matrix(1 0 0 -1 23.2349 18.447000000000003)">
                    <use xlink:href="#gB8ECE718EBB546C9524648295FABF310" x="0" y="0" fill="#e6edf3" fill-rule="nonzero"/>
                </g>
                <g class="typst-text" transform="matrix(1 0 0 -1 37.20701111111111 18.447000000000003)">
                    <use xlink:href="#g17B9629AC1C3FA19683E9944E21FFB4D" x="0" y="0" fill="#e6edf3" fill-rule="nonzero"/>
                </g>
                <g class="typst-text" transform="matrix(1 0 0 -1 50.932122222222226 18.447000000000003)">
                    <use xlink:href="#gC28496685373E45DD49FD701EAB20365" x="0" y="0" fill="#e6edf3" fill-rule="nonzero"/>
                </g>
                <g class="typst-text" transform="matrix(1 0 0 -1 64.49307222222222 9.645999999999999)">
                    <use xlink:href="#gEBF4435978679191FD91B019016ED220" x="0" y="0" fill="#e6edf3" fill-rule="nonzero"/>
                </g>
                <g class="typst-text" transform="matrix(1 0 0 -1 62.34612222222223 27.365000000000002)">
                    <use xlink:href="#g9650F7627BFB24BE5FE6788D4E6EBD59" x="0" y="0" fill="#e6edf3" fill-rule="nonzero"/>
                </g>
                <g class="typst-text" transform="matrix(1 0 0 -1 67.62412222222223 30.576)">
                    <use xlink:href="#gAAC6B64334C326A06DD3C76B462F26F8" x="0" y="0" fill="#e6edf3" fill-rule="nonzero"/>
                </g>
                <path class="typst-shape" fill="none" stroke="#e6edf3" stroke-width="0.624" stroke-linecap="butt" stroke-linejoin="miter" stroke-miterlimit="4" transform="matrix(1 0 0 1 62.34612222222223 15.197)" d="M 0 0h 11.1839 "/>
            </g>
        </g>
    </g>
    <defs id="glyph">
        <symbol id="g76B7CDBCADFD7611D6F811816A2C6218" overflow="visible">
            <path d="M 0 0m 10.14 8.541 c 0.038999557 0.0909996 0.06499958 0.15600014 0.06499958 0.18200016 c 0 0.10400009 -0.116999626 0.15599918 -0.33799934 0.15599918 h -8.918 c -0.22099996 0 -0.338 -0.051999092 -0.338 -0.16899967 l 4.42 -8.879 c 0.09100008 -0.169 0.20800018 -0.26000002 0.37699986 -0.26000002 c 0.16900015 0 0.28600025 0.09100002 0.37700033 0.26000002 Z m -4.355 -7.6050005 l -3.4580002 6.9290004 h 6.9030004 Z "/>
        </symbol>
        <symbol id="g44AE30A7EB3BB786DC1379B8EF0EC6C1" overflow="visible">
            <path d="M 0 0m 1.0829 3.8584 c 0.29120004 0 0.50960004 0.21840024 0.50960004 0.5095999 c 0 0.3276 -0.17290008 0.5005002 -0.50960004 0.50960016 c 0.20019996 0.42770004 0.6552 0.77349997 1.2467 0.77349997 c 0.8008001 0 1.3286002 -0.60059977 1.3286002 -1.4014001 c 0 -0.4368 -0.15470004 -0.85539985 -0.47320008 -1.2649 c -0.15470004 -0.20930004 -0.273 -0.35489988 -0.35490012 -0.4368 l -2.1567001 -2.1385002 c -0.11830002 -0.1092 -0.10010004 -0.1365 -0.10010004 -0.4095 h 3.7492003 l 0.28209972 1.7108 h -0.38219976 c -0.0637002 -0.48230004 -0.13649988 -0.7644 -0.2184 -0.8281 c -0.04550004 -0.0273 -0.3276 -0.04549998 -0.86450005 -0.04549998 h -1.547 c 0.6097001 0.53690004 1.1739 1.0192001 1.7108 1.4469 c 0.40950012 0.31850004 0.70070004 0.6006 0.8827002 0.8463001 c 0.27299976 0.35489988 0.40949965 0.7279999 0.40949965 1.1192999 c 0 0.5641999 -0.2184 1.0101004 -0.6642997 1.3377004 c -0.3913002 0.30029964 -0.8827002 0.45499992 -1.4651 0.45499992 c -0.5005001 0 -0.9282001 -0.14560032 -1.3013002 -0.4368 c -0.39130002 -0.31850004 -0.59150004 -0.7189002 -0.59150004 -1.2103 c 0 -0.30940008 0.22750002 -0.5369003 0.50960004 -0.5369003 Z "/>
        </symbol>
        <symbol id="gB8ECE718EBB546C9524648295FABF310" overflow="visible">
            <path d="M 0 0m 8.723001 8.84 c -0.2470007 0 -1.0270004 0.038999557 -1.2740002 0.038999557 c -0.19500017 0 -0.29900026 -0.10399914 -0.29900026 -0.2989998 c 0 -0.13000011 0.09100008 -0.1949997 0.26000023 -0.20800018 c 0.36399984 -0.012999535 0.546 -0.14299965 0.546 -0.36399937 c 0 -0.1170001 -0.06500006 -0.27300024 -0.18200016 -0.4680004 l -3.874 -6.149 l -0.85800004 6.656 c 0 0.22100067 0.273 0.3249998 0.832 0.3249998 c 0.26000023 0 0.37699986 0.09100056 0.37699986 0.31200027 c 0 0.13000011 -0.07800007 0.1949997 -0.23399973 0.1949997 c -0.286 0 -1.3000002 -0.038999557 -1.5860002 -0.038999557 c -0.26 0 -1.1439999 0.038999557 -1.4039999 0.038999557 c -0.19500005 0 -0.29900002 -0.10399914 -0.29900002 -0.2989998 c 0 -0.14299965 0.13 -0.20800018 0.37699997 -0.20800018 c 0.22099996 0 0.37699997 -0.026000023 0.48100007 -0.052000046 c 0.20799994 -0.06499958 0.19499993 -0.0909996 0.23399997 -0.33799934 l 1.014 -7.9300003 c 0.039000034 -0.221 0.14299989 -0.338 0.31200004 -0.338 c 0.16899991 0 0.29900002 0.091000006 0.40299988 0.26000002 l 4.6280003 7.3580003 c 0.2989998 0.46799994 0.58500004 0.7669997 0.8710003 0.8840003 c 0.1949997 0.0909996 0.44199944 0.14299965 0.7279997 0.15599918 c 0.1430006 0.013000488 0.20800018 0.10400009 0.22099972 0.29900074 c 0.013000488 0.14299965 -0.06499958 0.20799923 -0.22099972 0.20799923 c -0.1949997 0 -0.8579998 -0.038999557 -1.0529995 -0.038999557 Z "/>
        </symbol>
        <symbol id="g17B9629AC1C3FA19683E9944E21FFB4D" overflow="visible">
            <path d="M 0 0m 9.074 4.771 h -8.034 c -0.20799994 0 -0.31199992 -0.103999615 -0.31199992 -0.2989998 c 0 -0.19500017 0.10399997 -0.29900026 0.31199992 -0.29900026 h 8.034 c 0.20800018 0 0.31200027 0.10400009 0.31200027 0.29900026 c 0 0.15600014 -0.1430006 0.2989998 -0.31200027 0.2989998 Z m 0 -2.4439998 h -8.034 c -0.20799994 0 -0.31199992 -0.10400009 -0.31199992 -0.29900002 c 0 -0.19500005 0.10399997 -0.29900002 0.31199992 -0.29900002 h 8.034 c 0.20800018 0 0.31200027 0.10399997 0.31200027 0.29900002 c 0 0.16899991 -0.1430006 0.29900002 -0.31200027 0.29900002 Z "/>
        </symbol>
        <symbol id="gC28496685373E45DD49FD701EAB20365" overflow="visible">
            <path d="M 0 0m 9.074 3.51 h -8.034 c -0.20799994 0 -0.31199992 -0.09099984 -0.31199992 -0.26 c 0 -0.16899991 0.10399997 -0.26 0.31199992 -0.26 h 8.034 c 0.20800018 0 0.31200027 0.09100008 0.31200027 0.26 c 0 0.15600014 -0.15600014 0.26 -0.31200027 0.26 Z "/>
        </symbol>
        <symbol id="gEBF4435978679191FD91B019016ED220" overflow="visible">
            <path d="M 0 0m 4.6930003 5.7460003 c -1.4690003 0 -2.6910002 -1.5860004 -3.0160003 -2.8860002 l -1.248 -5.057 c -0.026000023 -0.10400009 -0.039000005 -0.16899991 -0.039000005 -0.20799994 c 0 -0.273 0.12999997 -0.40300012 0.40300003 -0.40300012 c 0.195 0 0.36400002 0.10400009 0.49400002 0.29900002 l 0.79299986 3.107 c 0.29900002 -0.50699997 0.71500015 -0.76699996 1.2480001 -0.76699996 c 0.8579998 0 1.612 0.416 2.275 1.261 c 0.61100006 0.793 0.92299986 1.638 0.92299986 2.509 c 0 1.1829998 -0.6890001 2.1450002 -1.8329997 2.1450002 Z m -0.026000023 -0.39000034 c 0.559 0 0.8319998 -0.40299988 0.8319998 -1.2089996 c 0 -0.3510003 -0.07800007 -0.80600023 -0.2210002 -1.3910003 c -0.28599977 -1.105 -0.68899965 -1.846 -1.1959996 -2.236 c -0.27300024 -0.20799997 -0.5200002 -0.31199998 -0.7670002 -0.31199998 c -0.24699998 0 -0.46799994 0.09099999 -0.6370001 0.26 c -0.273 0.273 -0.40299988 0.5590001 -0.40299988 0.8320001 c 0.013000011 0.09099996 0.039000034 0.24699998 0.09099984 0.46799994 c 0.29900002 1.235 0.559 2.0279999 0.7670002 2.3919997 c 0.45499992 0.7930002 0.96200013 1.1960001 1.5340002 1.1960001 Z "/>
        </symbol>
        <symbol id="g9650F7627BFB24BE5FE6788D4E6EBD59" overflow="visible">
            <path d="M 0 0m 2.964 -0.143 c 0.52 0 1.0010002 0.143 1.4430001 0.42900002 c 0.16900015 0.116999984 0.24700022 0.208 0.24700022 0.273 c 0 0.15600002 -0.06500006 0.23400003 -0.18200016 0.23400003 l -0.18200016 -0.09100002 c -0.48099995 -0.312 -0.90999985 -0.46800002 -1.3 -0.46800002 c -0.87100005 0 -1.326 0.702 -1.326 1.6120001 c 0 0.33799994 0.039000034 0.689 0.13 1.0400001 h 2.054 c 0.3249998 0 0.48099995 0.09099984 0.48099995 0.26 c 0 0.1559999 -0.14300013 0.23399997 -0.4159999 0.23399997 h -1.9890001 c 0.35100007 1.1570001 1.053 1.7290001 2.1060002 1.7290001 h 0.38999987 c 0.3119998 0 0.46799994 0.09100008 0.46799994 0.25999975 c 0 0.15600014 -0.14300013 0.2340002 -0.4289999 0.2340002 h -0.4419999 c -0.9230001 0 -1.7290001 -0.31200027 -2.4050002 -0.9489999 c -0.676 -0.6370001 -1.0009999 -1.4040003 -1.0009999 -2.3270001 c 0 -1.404 0.94900006 -2.4700003 2.353 -2.4700003 Z "/>
        </symbol>
        <symbol id="gAAC6B64334C326A06DD3C76B462F26F8" overflow="visible">
            <path d="M 0 0m 4.6956 2.9029002 c 0 1.0283 -0.18199968 1.8109002 -0.53690004 2.3477998 c -0.29119992 0.4550004 -0.87359977 0.79170036 -1.5742998 0.79170036 c -0.29120016 0 -0.5551002 -0.04550028 -0.78260005 -0.14560032 c -1.0010002 -0.4185996 -1.3286002 -1.5833998 -1.3286002 -2.9938998 c 0 -0.30940008 0.01820001 -0.60060024 0.04549998 -0.8827002 c 0.15470004 -1.1921 0.7098 -2.2022 2.0657 -2.2022 c 0.29119992 0 0.55509996 0.04550001 0.7825999 0.1456 c 1.0009999 0.4095 1.3285999 1.547 1.3285999 2.9393003 Z m -1.0373998 2.0201998 c 0.1000998 -0.33669996 0.1546998 -0.96459985 0.1546998 -1.9018998 c 0 -0.89180017 -0.03639984 -1.5197002 -0.11829996 -1.8928001 c -0.1092 -0.53690004 -0.4914 -0.98280007 -1.1101999 -0.98280007 c -0.22749996 0 -0.45500016 0.072799996 -0.6643001 0.2275 c -0.28210008 0.20930001 -0.45500004 0.61880004 -0.5278001 1.2467 c -0.0273 0.20930004 -0.03639996 0.6733999 -0.03639996 1.4014001 c 0 0.88269997 0.04550004 1.4924002 0.1365 1.8200002 c 0.15470004 0.58239985 0.5187 0.8736 1.0920001 0.8736 c 0.546 0 0.9463999 -0.35490036 1.0738001 -0.79170036 Z "/>
        </symbol>
    </defs>
</svg>
