<svg viewBox="0 0 221.616922222 20.4191" width="221.616922222pt" height="20.4191pt" xmlns="http://www.w3.org/2000/svg" xmlns:xlink="http://www.w3.org/1999/xlink" xmlns:h5="http://www.w3.org/1999/xhtml"><g transform="matrix(1 0 0 -1 6.5 13.208)"><use xlink:href="#g1EC01C5368D684131831F3BFC5D2F1C1" x="0" y="0" fill="#e6edf3" fill-rule="nonzero"/></g><g transform="matrix(1 0 0 -1 17.329 13.208)"><use xlink:href="#g7FCD119A4094BE7F1574F3E8F3A7E7BD" x="0" y="0" fill="#e6edf3" fill-rule="nonzero"/></g><g transform="matrix(1 0 0 -1 25.298 16.419)"><use xlink:href="#gFF16A8268DAB16CE6CB780B7F571FDB3" x="0" y="0" fill="#e6edf3" fill-rule="nonzero"/><use xlink:href="#g689CD2C8CC31657A53FE374FF94F6738" x="5.0596" y="0" fill="#e6edf3" fill-rule="nonzero"/><use xlink:href="#g402F9925856942787E59D257DA93AD2E" x="10.1192" y="0" fill="#e6edf3" fill-rule="nonzero"/><use xlink:href="#g903F1B72715C8210FD028A24D9A597FC" x="12.649" y="0" fill="#e6edf3" fill-rule="nonzero"/><use xlink:href="#g6F1B2EC7690C574873AE01D06ED173C6" x="17.4538" y="0" fill="#e6edf3" fill-rule="nonzero"/><use xlink:href="#g23F189AE588E1A359BE6574F29945FEE" x="21.4942" y="0" fill="#e6edf3" fill-rule="nonzero"/><use xlink:href="#g56CA2213A637A1EBD48C3733E7CBD1B8" x="25.0614" y="0" fill="#e6edf3" fill-rule="nonzero"/><use xlink:href="#g733BC00FCAC4D4817C0648C06C143A7E" x="28.6468" y="0" fill="#e6edf3" fill-rule="nonzero"/></g><g transform="matrix(1 0 0 -1 62.833911111 13.208)"><use xlink:href="#g13AFF74D87C474CFAF661EEAD0458F8B" x="0" y="0" fill="#e6edf3" fill-rule="nonzero"/></g><g transform="matrix(1 0 0 -1 76.559022222 13.208)"><use xlink:href="#g1EC01C5368D684131831F3BFC5D2F1C1" x="0" y="0" fill="#e6edf3" fill-rule="nonzero"/></g><g transform="matrix(1 0 0 -1 87.388022222 13.208)"><use xlink:href="#g7FCD119A4094BE7F1574F3E8F3A7E7BD" x="0" y="0" fill="#e6edf3" fill-rule="nonzero"/></g><g transform="matrix(1 0 0 -1 95.357022222 16.419)"><use xlink:href="#g56CA2213A637A1EBD48C3733E7CBD1B8" x="0" y="0" fill="#e6edf3" fill-rule="nonzero"/><use xlink:href="#g402F9925856942787E59D257DA93AD2E" x="3.5854" y="0" fill="#e6edf3" fill-rule="nonzero"/><use xlink:href="#g56CA2213A637A1EBD48C3733E7CBD1B8" x="6.1152" y="0" fill="#e6edf3" fill-rule="nonzero"/><use xlink:href="#g929C9F5835BF20B9E99EAF8B7595E15F" x="9.7006" y="0" fill="#e6edf3" fill-rule="nonzero"/><use xlink:href="#g6F1B2EC7690C574873AE01D06ED173C6" x="13.2405" y="0" fill="#e6edf3" fill-rule="nonzero"/><use xlink:href="#g4A3E5A4432A0C4729107706BA2BDD8BD" x="17.2809" y="0" fill="#e6edf3" fill-rule="nonzero"/><use xlink:href="#g1CEBE56BFF7571B8DB10F1A4DAC5A5D7" x="24.8612" y="0" fill="#e6edf3" fill-rule="nonzero"/></g><g transform="matrix(1 0 0 -1 128.385111111 13.208)"><use xlink:href="#gEDF6611ACB83925E748178A176190AF2" x="0" y="0" fill="#e6edf3" fill-rule="nonzero"/></g><g transform="matrix(1 0 0 -1 141.388 13.208)"><use xlink:href="#g1EC01C5368D684131831F3BFC5D2F1C1" x="0" y="0" fill="#e6edf3" fill-rule="nonzero"/></g><g transform="matrix(1 0 0 -1 152.217 13.208)"><use xlink:href="#g7FCD119A4094BE7F1574F3E8F3A7E7BD" x="0" y="0" fill="#e6edf3" fill-rule="nonzero"/></g><g transform="matrix(1 0 0 -1 160.186 16.419)"><use xlink:href="#g6F1B2EC7690C574873AE01D06ED173C6" x="0" y="0" fill="#e6edf3" fill-rule="nonzero"/><use xlink:href="#g689CD2C8CC31657A53FE374FF94F6738" x="4.0404" y="0" fill="#e6edf3" fill-rule="nonzero"/><use xlink:href="#g929C9F5835BF20B9E99EAF8B7595E15F" x="9.1" y="0" fill="#e6edf3" fill-rule="nonzero"/><use xlink:href="#g733BC00FCAC4D4817C0648C06C143A7E" x="12.6399" y="0" fill="#e6edf3" fill-rule="nonzero"/><use xlink:href="#g23F189AE588E1A359BE6574F29945FEE" x="17.1899" y="0" fill="#e6edf3" fill-rule="nonzero"/><use xlink:href="#g689CD2C8CC31657A53FE374FF94F6738" x="20.7571" y="0" fill="#e6edf3" fill-rule="nonzero"/><use xlink:href="#g733BC00FCAC4D4817C0648C06C143A7E" x="25.8167" y="0" fill="#e6edf3" fill-rule="nonzero"/></g><g transform="matrix(1 0 0 -1 194.891811111 13.208)"><use xlink:href="#g8237564506ED4B3F93E3A3E50618EC8" x="0" y="0" fill="#e6edf3" fill-rule="nonzero"/></g><g transform="matrix(1 0 0 -1 208.616922222 13.208)"><use xlink:href="#gC189A0A36A47FB1CBF46D2ED82C939AF" x="0" y="0" fill="#e6edf3" fill-rule="nonzero"/></g><defs><symbol id="g1EC01C5368D684131831F3BFC5D2F1C1" overflow="visible"><path d="M 0 0m 9.867 0c 0.221 0 0.338 0.052 0.338 0.169l -4.42 8.879c -0.091 0.169 -0.208 0.26 -0.377 0.26c -0.169 0 -0.286 -0.091 -0.377 -0.26l -4.355 -8.723c -0.039 -0.091 -0.065 -0.143 -0.065 -0.169c 0 -0.104 0.117 -0.156 0.338 -0.156Z m -4.875 7.852l 3.38 -6.773h -6.76Z "/></symbol><symbol id="g7FCD119A4094BE7F1574F3E8F3A7E7BD" overflow="visible"><path d="M 0 0m 1.729 2.041c 0 0.312 0.039 0.572 0.104 0.78c 0 0.13 -0.065 0.195 -0.208 0.195c -0.065 0 -0.117 -0.026 -0.143 -0.052c -0.065 -0.065 -0.806 -2.86 -0.806 -3.068c 0 -0.117 0.065 -0.182 0.195 -0.182c 0.065 0 0.156 0.065 0.273 0.208l 0.585 0.689c 0.455 -0.598 1.183 -0.897 2.171 -0.897c 0.858 0 1.612 0.351 2.288 1.04c 0.676 0.689 1.014 1.456 1.014 2.314c 0 0.611 -0.208 1.131 -0.637 1.547c -0.195 0.169 -0.455 0.312 -0.78 0.429c -0.299 0.065 -0.585 0.143 -0.871 0.221l -0.858 0.234c -0.429 0.117 -0.754 0.598 -0.754 1.118c 0 0.559 0.221 1.04 0.676 1.456c 0.455 0.416 0.962 0.624 1.521 0.624c 1.196 0 1.794 -0.65 1.794 -1.937c 0 -0.234 -0.052 -0.494 -0.052 -0.715v -0.039c 0.039 -0.091 0.104 -0.143 0.208 -0.143c 0.117 0 0.195 0.104 0.247 0.299l 0.689 2.821c 0 0.117 -0.065 0.182 -0.195 0.182c -0.065 0 -0.156 -0.065 -0.273 -0.208l -0.559 -0.676c -0.364 0.585 -0.975 0.884 -1.846 0.884c -0.819 0 -1.56 -0.312 -2.21 -0.923c -0.676 -0.624 -1.014 -1.339 -1.014 -2.158c 0 -0.936 0.611 -1.677 1.378 -1.885l 1.365 -0.351c 0.702 -0.195 1.144 -0.442 1.144 -1.313c 0 -0.598 -0.234 -1.131 -0.689 -1.599c -0.455 -0.468 -0.975 -0.715 -1.56 -0.715c -1.274 0 -2.197 0.559 -2.197 1.82Z "/></symbol><symbol id="gFF16A8268DAB16CE6CB780B7F571FDB3" overflow="visible"><path d="M 0 0m 2.4297 0.1638c -0.6279 0 -0.7462 0.2639 -0.7462 0.8554v 3.003l -1.3923 -0.1001v -0.3458c 0.3549 0 0.5642 -0.0364 0.6188 -0.1001c 0.0546 -0.0637 0.0819 -0.2912 0.0819 -0.6916v -1.3377c 0 -0.3549 0.0273 -0.6279 0.091 -0.8372c 0.1365 -0.4732 0.637 -0.7098 1.3013 -0.7098c 0.4914 0 0.8645 0.2275 1.1193 0.6916v -0.6916l 1.365 0.1001v 0.3458c -0.3276 0 -0.5187 0.0182 -0.5915 0.0728c -0.0728 0.0546 -0.1092 0.182 -0.1092 0.3913v 3.2123l -1.3832 -0.1001v -0.3458c 0.3185 0 0.5096 -0.0273 0.5824 -0.0819c 0.0728 -0.0546 0.1092 -0.1729 0.1092 -0.3822v -1.5925c 0 -0.7189 -0.3822 -1.3559 -1.0465 -1.3559Z "/></symbol><symbol id="g689CD2C8CC31657A53FE374FF94F6738" overflow="visible"><path d="M 0 0m 2.8574 3.7583c 0.4095 0 0.6188 -0.3185 0.6188 -0.9646v -2.0748c 0 -0.1729 -0.0273 -0.2821 -0.091 -0.3185c -0.0637 -0.0364 -0.2639 -0.0546 -0.6006 -0.0546v -0.3458l 1.0465 0.0273l 1.0374 -0.0273v 0.3458c -0.2912 0 -0.4823 0.0091 -0.5733 0.0364c -0.091 0.0273 -0.1274 0.091 -0.1274 0.2002v 1.7017c 0 0.4277 -0.0091 0.728 -0.0364 0.9009c -0.091 0.5551 -0.5005 0.8372 -1.2194 0.8372c -0.5733 0 -1.001 -0.273 -1.2831 -0.819v 0.819l -1.3377 -0.1001v -0.3458c 0.3276 0 0.5278 -0.0273 0.6006 -0.0819c 0.0728 -0.0546 0.1001 -0.1729 0.1001 -0.3822v -2.3933c 0 -0.1729 -0.0364 -0.2821 -0.1001 -0.3185c -0.0637 -0.0364 -0.2639 -0.0546 -0.6006 -0.0546v -0.3458l 1.0465 0.0273l 1.0374 -0.0273v 0.3458c -0.3367 0 -0.5278 0.0182 -0.5915 0.0546c -0.0637 0.0364 -0.1001 0.1456 -0.1001 0.3185v 1.638c 0 0.7371 0.4641 1.4014 1.1739 1.4014Z "/></symbol><symbol id="g402F9925856942787E59D257DA93AD2E" overflow="visible"><path d="M 0 0m 1.7654 5.4691c 0 0.273 -0.2275 0.5096 -0.5005 0.5096c -0.273 0 -0.5096 -0.2366 -0.5096 -0.5096c 0 -0.273 0.2275 -0.5187 0.5005 -0.5187c 0.2821 0 0.5096 0.2366 0.5096 0.5187Z m -0.4641 -5.4418l 0.9464 -0.0273v 0.3549c -0.3003 0 -0.4823 0.0182 -0.5369 0.0546c -0.0546 0.0364 -0.0728 0.1365 -0.0728 0.3003v 3.3397l -1.3013 -0.1092v -0.3458c 0.3003 0 0.4914 -0.0273 0.5551 -0.0728c 0.0637 -0.0455 0.091 -0.1729 0.091 -0.3822v -2.4206c 0 -0.1729 -0.0273 -0.2821 -0.091 -0.3185c -0.0637 -0.0364 -0.2639 -0.0455 -0.5915 -0.0455v -0.3549Z "/></symbol><symbol id="g903F1B72715C8210FD028A24D9A597FC" overflow="visible"><path d="M 0 0m 3.5308 3.2214c 0 -0.0455 -0.0182 -0.1092 -0.0546 -0.2002l -0.8736 -2.1931l -0.9737 2.4115c -0.0364 0.0819 -0.0546 0.1274 -0.0546 0.1365c 0 0.1365 0.1729 0.2002 0.5187 0.2002v 0.3458l -1.0192 -0.0273c -0.2184 -0.0091 -0.5187 0 -0.9009 0.0273v -0.3458c 0.5096 0 0.5915 0.0182 0.7189 -0.3094l 1.2922 -3.1759c 0.0455 -0.1274 0.1183 -0.1911 0.2184 -0.1911c 0.1001 0 0.1729 0.0637 0.2184 0.1911l 1.1739 2.9029c 0.0364 0.1001 0.0728 0.182 0.1183 0.2548c 0.1274 0.2184 0.364 0.3276 0.7098 0.3276v 0.3458c -0.3003 -0.0273 -0.5369 -0.0364 -0.7098 -0.0273l -0.8099 0.0273v -0.3458c 0.2639 -0.0091 0.4277 -0.1183 0.4277 -0.3549Z "/></symbol><symbol id="g6F1B2EC7690C574873AE01D06ED173C6" overflow="visible"><path d="M 0 0m 3.7765 2.2841c 0 1.0465 -0.6097 1.7927 -1.6289 1.7927c -0.546 0 -1.001 -0.2093 -1.3741 -0.637c -0.3458 -0.4004 -0.5187 -0.8827 -0.5187 -1.4378c 0 -0.5733 0.1911 -1.0556 0.5733 -1.4742c 0.3822 -0.4186 0.8554 -0.6279 1.4196 -0.6279c 0.5187 0 0.9191 0.182 1.1921 0.5369c 0.2275 0.3003 0.3367 0.5187 0.3367 0.6643c 0 0.091 -0.0546 0.1365 -0.1547 0.1365c -0.0728 0 -0.1183 -0.0455 -0.1456 -0.1456c -0.2002 -0.6006 -0.5915 -0.9009 -1.1739 -0.9009c -0.4095 0 -0.728 0.1911 -0.9737 0.5824c -0.1729 0.2821 -0.2548 0.7098 -0.2639 1.2922h 2.457c 0.2002 0 0.2548 0.0182 0.2548 0.2184Z m -0.8099 0.8918c 0.1001 -0.3003 0.1456 -0.5915 0.1456 -0.8554h -2.0384c 0.0273 0.6006 0.182 1.0101 0.455 1.2194c 0.2275 0.182 0.4277 0.273 0.6188 0.273c 0.4095 0 0.6825 -0.2093 0.819 -0.637Z "/></symbol><symbol id="g23F189AE588E1A359BE6574F29945FEE" overflow="visible"><path d="M 0 0m 3.3124 3.4398c 0 0.3549 -0.3367 0.5824 -0.6916 0.5824c -0.4641 0 -0.819 -0.273 -1.0556 -0.8281v 0.8281l -1.3104 -0.1001v -0.3458c 0.3185 0 0.5096 -0.0273 0.5824 -0.0819c 0.0728 -0.0546 0.1092 -0.1729 0.1092 -0.3822v -2.3933c 0 -0.1729 -0.0273 -0.2821 -0.091 -0.3185c -0.0637 -0.0364 -0.2639 -0.0546 -0.6006 -0.0546v -0.3458l 1.0465 0.0273c 0.3822 0.0091 0.7735 0 1.1648 -0.0273v 0.3458h -0.2184c -0.3003 0 -0.4914 0.0273 -0.5551 0.0728c -0.0637 0.0455 -0.091 0.1547 -0.091 0.3185v 1.3741c 0 0.3913 0.0728 0.7462 0.2093 1.0465c 0.182 0.3913 0.4459 0.5915 0.8008 0.6006c -0.091 -0.091 -0.1365 -0.2002 -0.1365 -0.3276c 0 -0.2821 0.1365 -0.4186 0.4186 -0.4186c 0.2457 0 0.4186 0.1911 0.4186 0.4277Z "/></symbol><symbol id="g56CA2213A637A1EBD48C3733E7CBD1B8" overflow="visible"><path d="M 0 0m 3.276 1.183c 0 0.6916 -0.4732 1.1284 -1.4105 1.3104c -0.4277 0.0819 -0.7007 0.182 -0.8463 0.2821c -0.1456 0.1001 -0.2184 0.2457 -0.2184 0.4186c 0 0.4277 0.3185 0.637 0.9555 0.637c 0.6188 0 0.9555 -0.3458 1.001 -1.0465c 0.0091 -0.0728 0.0546 -0.1092 0.1456 -0.1092c 0.1001 0 0.1547 0.0819 0.1547 0.2457v 0.9009c 0 0.1729 -0.0455 0.2548 -0.1365 0.2548c -0.1001 0 -0.2366 -0.1638 -0.3276 -0.2366c -0.2275 0.1547 -0.5096 0.2366 -0.8372 0.2366c -0.8099 0 -1.456 -0.364 -1.456 -1.1375c 0 -0.3094 0.1274 -0.5733 0.3913 -0.7826c 0.3185 -0.2639 0.6188 -0.3185 1.1921 -0.4186c 0.5915 -0.1183 0.8918 -0.3822 0.8918 -0.7917c 0 -0.5187 -0.3185 -0.7826 -0.9646 -0.7826c -0.6279 0 -1.0283 0.4186 -1.2012 1.2467c -0.0273 0.1183 -0.0728 0.182 -0.1547 0.182c -0.1001 0 -0.1547 -0.091 -0.1547 -0.2639v -1.1739c 0 -0.1729 0.0455 -0.2548 0.1365 -0.2548c 0.0273 0 0.0728 0.0273 0.1456 0.091c 0.1638 0.1456 0.091 0.1183 0.2548 0.2821c 0.2639 -0.2457 0.5915 -0.3731 0.9737 -0.3731c 0.8645 0 1.4651 0.4459 1.4651 1.2831Z "/></symbol><symbol id="g733BC00FCAC4D4817C0648C06C143A7E" overflow="visible"><path d="M 0 0m 2.2659 -0.1001c 0.5642 0 1.0374 0.2002 1.4287 0.6006c 0.3913 0.4004 0.5915 0.8827 0.5915 1.4469c 0 0.5733 -0.1911 1.0738 -0.5733 1.4924c -0.3822 0.4186 -0.8645 0.637 -1.4378 0.637c -0.5733 0 -1.0465 -0.2184 -1.4378 -0.637c -0.3913 -0.4186 -0.5824 -0.9191 -0.5824 -1.4924c 0 -0.5642 0.1911 -1.0465 0.5824 -1.4469c 0.3913 -0.4004 0.8736 -0.6006 1.4287 -0.6006Z m 0.0091 0.2912c -0.4368 0 -0.7644 0.1911 -0.9919 0.5824c -0.1456 0.2548 -0.2184 0.6734 -0.2184 1.2467c 0 0.5551 0.0728 0.9555 0.2093 1.2103c 0.2184 0.3913 0.546 0.5824 0.9919 0.5824c 0.4277 0 0.7553 -0.1911 0.9828 -0.5642c 0.1547 -0.2548 0.2275 -0.6643 0.2275 -1.2285c 0 -1.0556 -0.3094 -1.8291 -1.2012 -1.8291Z "/></symbol><symbol id="g13AFF74D87C474CFAF661EEAD0458F8B" overflow="visible"><path d="M 0 0m 9.074 4.771h -8.034c -0.208 0 -0.312 -0.104 -0.312 -0.299c 0 -0.195 0.104 -0.299 0.312 -0.299h 8.034c 0.208 0 0.312 0.104 0.312 0.299c 0 0.156 -0.143 0.299 -0.312 0.299Z m 0 -2.444h -8.034c -0.208 0 -0.312 -0.104 -0.312 -0.299c 0 -0.195 0.104 -0.299 0.312 -0.299h 8.034c 0.208 0 0.312 0.104 0.312 0.299c 0 0.169 -0.143 0.299 -0.312 0.299Z "/></symbol><symbol id="g929C9F5835BF20B9E99EAF8B7595E15F" overflow="visible"><path d="M 0 0m 3.0212 1.1466v 0.546h -0.2912v -0.5278c 0 -0.455 -0.1638 -0.9646 -0.5642 -0.9646c -0.3731 0 -0.5551 0.3094 -0.5551 0.9282v 2.4661h 1.2649v 0.3458h -1.2649v 1.6562h -0.2912c -0.0091 -0.3003 -0.0364 -0.5642 -0.1001 -0.8008c -0.1547 -0.6006 -0.5096 -0.91 -1.0465 -0.9373v -0.2639h 0.7553v -2.4479c 0 -0.5369 0.1638 -0.8827 0.4823 -1.0556c 0.2457 -0.1274 0.4732 -0.1911 0.7007 -0.1911c 0.6006 0 0.91 0.6006 0.91 1.2467Z "/></symbol><symbol id="g4A3E5A4432A0C4729107706BA2BDD8BD" overflow="visible"><path d="M 0 0m 2.8665 3.7583c 0.4186 0 0.6279 -0.3185 0.6279 -0.9646v -2.0748c 0 -0.1729 -0.0273 -0.2821 -0.091 -0.3185c -0.0637 -0.0364 -0.273 -0.0546 -0.6097 -0.0546v -0.3458l 1.0556 0.0273l 1.0465 -0.0273v 0.3458c -0.3367 0 -0.5369 0.0182 -0.6006 0.0546c -0.0637 0.0364 -0.1001 0.1456 -0.1001 0.3185v 1.638c 0 0.728 0.4732 1.4014 1.1739 1.4014c 0.4277 0 0.637 -0.3185 0.637 -0.9646v -2.0748c 0 -0.1729 -0.0364 -0.2821 -0.1001 -0.3185c -0.0637 -0.0364 -0.273 -0.0546 -0.6097 -0.0546v -0.3458l 1.0556 0.0273l 1.0465 -0.0273v 0.3458c -0.2912 0 -0.4823 0.0091 -0.5733 0.0364c -0.091 0.0273 -0.1274 0.091 -0.1274 0.2002v 1.7017c 0 0.4277 -0.0182 0.728 -0.0455 0.9009c -0.091 0.5551 -0.5005 0.8372 -1.2194 0.8372c -0.5733 0 -1.001 -0.2639 -1.2922 -0.8008c -0.1274 0.5369 -0.5278 0.8008 -1.2103 0.8008c -0.5733 0 -1.0101 -0.273 -1.3013 -0.819v 0.819l -1.3377 -0.1001v -0.3458c 0.3276 0 0.5278 -0.0273 0.6006 -0.0819c 0.0728 -0.0546 0.1001 -0.1729 0.1001 -0.3822v -2.3933c 0 -0.1729 -0.0364 -0.2821 -0.1001 -0.3185c -0.0637 -0.0364 -0.2639 -0.0546 -0.6006 -0.0546v -0.3458l 1.0556 0.0273l 1.0465 -0.0273v 0.3458c -0.3367 0 -0.546 0.0182 -0.6097 0.0546c -0.0637 0.0364 -0.1001 0.1456 -0.1001 0.3185v 1.638c 0 0.7371 0.4823 1.4014 1.183 1.4014Z "/></symbol><symbol id="g1CEBE56BFF7571B8DB10F1A4DAC5A5D7" overflow="visible"><path d="M 0 0m 4.3953 0.8281v 0.5369h -0.2912v -0.5369c 0 -0.3549 -0.1001 -0.5369 -0.2912 -0.5369c -0.182 0 -0.2912 0.2275 -0.2912 0.4095v 1.7927c 0 0.3185 -0.0364 0.5551 -0.1001 0.7189c -0.2184 0.5369 -0.8463 0.8645 -1.4833 0.8645c -0.7007 0 -1.3923 -0.3913 -1.3923 -1.0465c 0 -0.3003 0.1547 -0.455 0.455 -0.455c 0.3003 0 0.4459 0.1456 0.4459 0.4459c 0 0.2639 -0.1365 0.4186 -0.4186 0.4459c 0.2002 0.2275 0.5005 0.3458 0.8918 0.3458c 0.5642 0 0.91 -0.5187 0.91 -1.1102v -0.3003c -0.7098 -0.0455 -1.2467 -0.1547 -1.6198 -0.3276c -0.6097 -0.2821 -0.9191 -0.6734 -0.9191 -1.1921c 0 -0.2366 0.091 -0.4368 0.2639 -0.5915c 0.2912 -0.2639 0.6916 -0.3913 1.2012 -0.3913c 0.5369 0 0.9191 0.2275 1.1557 0.6916c 0.0637 -0.3458 0.3185 -0.6461 0.7098 -0.6461c 0.4823 0 0.7735 0.3822 0.7735 0.8827Z m -2.5753 -0.6643c -0.4186 0 -0.7644 0.3094 -0.7644 0.728c 0 0.8463 0.8827 1.2103 1.7745 1.2558v -0.8645c 0 -0.6097 -0.4004 -1.1193 -1.0101 -1.1193Z "/></symbol><symbol id="gEDF6611ACB83925E748178A176190AF2" overflow="visible"><path d="M 0 0m 9.074 3.562h -3.705v 3.705c 0 0.208 -0.104 0.312 -0.312 0.312c -0.208 0 -0.312 -0.104 -0.312 -0.312v -3.705h -3.705c -0.208 0 -0.312 -0.104 -0.312 -0.312c 0 -0.208 0.104 -0.312 0.312 -0.312h 3.705v -3.705c 0 -0.208 0.104 -0.312 0.312 -0.312c 0.208 0 0.312 0.104 0.312 0.312v 3.705h 3.705c 0.208 0 0.312 0.104 0.312 0.312c 0 0.169 -0.143 0.312 -0.312 0.312Z "/></symbol><symbol id="g8237564506ED4B3F93E3A3E50618EC8" overflow="visible"><path d="M 0 0m 8.892 4.03c 0.13 0.065 0.195 0.156 0.195 0.299c 0 0.143 -0.065 0.247 -0.195 0.312l -7.462 3.536c -0.039 0.013 -0.091 0.026 -0.143 0.026c -0.208 0 -0.312 -0.104 -0.312 -0.325c 0 -0.117 0.065 -0.208 0.182 -0.26l 6.942 -3.289l -6.942 -3.289c -0.117 -0.052 -0.182 -0.143 -0.182 -0.26c 0 -0.221 0.104 -0.325 0.312 -0.325c 0.052 0 0.104 0.013 0.143 0.039Z m -0.078 -4.966h -7.514c -0.208 0 -0.312 -0.104 -0.312 -0.299c 0 -0.208 0.104 -0.312 0.312 -0.312h 7.514c 0.208 0 0.312 0.104 0.312 0.312c 0 0.156 -0.143 0.299 -0.312 0.299Z "/></symbol><symbol id="gC189A0A36A47FB1CBF46D2ED82C939AF" overflow="visible"><path d="M 0 0m 3.237 -0.286c 1.833 0 2.743 1.482 2.743 4.446c 0 1.989 -0.416 3.315 -1.235 3.965c -0.455 0.351 -0.962 0.533 -1.495 0.533c -1.833 0 -2.743 -1.495 -2.743 -4.498c 0 -2.392 0.637 -4.446 2.73 -4.446Z m 1.456 7.098c 0.091 -0.455 0.13 -1.287 0.13 -2.496c 0 -1.196 -0.052 -2.08 -0.143 -2.652c -0.169 -1.04 -0.65 -1.56 -1.443 -1.56c -0.299 0 -0.598 0.117 -0.871 0.338c -0.351 0.299 -0.559 0.91 -0.65 1.846c -0.039 0.325 -0.052 1.001 -0.052 2.028c 0 1.131 0.039 1.924 0.104 2.353c 0.117 0.715 0.351 1.17 0.715 1.365c 0.286 0.156 0.533 0.234 0.754 0.234c 0.845 0 1.313 -0.689 1.456 -1.456Z "/></symbol></defs></svg>