<svg viewBox="0 0 78.060522222 36.6444" width="78.060522222pt" height="36.6444pt" xmlns="http://www.w3.org/2000/svg" xmlns:xlink="http://www.w3.org/1999/xlink" xmlns:h5="http://www.w3.org/1999/xhtml"><g transform="matrix(1 0 0 -1 6.5 23.8264)"><use xlink:href="#gA7C36109E42D4F0EB4F28B48DBFDEDEE" x="0" y="0" fill="#e6edf3" fill-rule="nonzero"/></g><g transform="matrix(1 0 0 -1 13.546 27.0374)"><use xlink:href="#gC8D3C41E96247D923393A2468BB66E86" x="0" y="0" fill="#e6edf3" fill-rule="nonzero"/></g><g transform="matrix(1 0 0 -1 22.799111111 23.8264)"><use xlink:href="#g13AFF74D87C474CFAF661EEAD0458F8B" x="0" y="0" fill="#e6edf3" fill-rule="nonzero"/></g><g transform="matrix(1 0 0 -1 37.824222222 15.0254)"><use xlink:href="#gC717BE5B93447205292D108A434A4EF5" x="0" y="0" fill="#e6edf3" fill-rule="nonzero"/></g><g transform="matrix(1 0 0 -1 43.882222222 10.3064)"><use xlink:href="#g9948C0FDABF29E771DA30338E5C0072D" x="0" y="0" fill="#e6edf3" fill-rule="nonzero"/></g><g transform="matrix(1 0 0 -1 50.962022222 10.3064)"><use xlink:href="#g767379DCBC383F5CD189EBAED801A2E4" x="0" y="0" fill="#e6edf3" fill-rule="nonzero"/></g><g transform="matrix(1 0 0 -1 56.968022222 10.3064)"><use xlink:href="#gE1855B9080E381DBF30A60576B27B8A2" x="0" y="0" fill="#e6edf3" fill-rule="nonzero"/></g><g transform="matrix(1 0 0 -1 64.602922222 12.5541)"><use xlink:href="#g6F3446AD88EE3F15480C0DC16F5A411" x="0" y="0" fill="#e6edf3" fill-rule="nonzero"/></g><g transform="matrix(1 0 0 -1 49.160872222 32.7444)"><use xlink:href="#g4F4A543C48CF8402D9EEEC7880A7C7C3" x="0" y="0" fill="#e6edf3" fill-rule="nonzero"/></g><path fill="none" stroke="#e6edf3" stroke-width="0.624" stroke-linecap="butt" stroke-linejoin="miter" stroke-miterlimit="4" transform="translate(37.824222222 20.5764)" d="M 0 0h 32.4363"/><defs><symbol id="gA7C36109E42D4F0EB4F28B48DBFDEDEE" overflow="visible"><path d="M 0 0m 7.215 8.879h -4.16c -0.299 0 -0.442 -0.013 -0.442 -0.299c 0 -0.143 0.143 -0.208 0.429 -0.208c 0.26 0 0.78 0.039 0.78 -0.169c 0 -0.026 -0.013 -0.104 -0.052 -0.234l -1.716 -6.903c -0.078 -0.286 -0.208 -0.455 -0.39 -0.52c -0.091 -0.026 -0.325 -0.039 -0.728 -0.039c -0.286 0 -0.416 -0.026 -0.416 -0.299c 0 -0.143 0.078 -0.208 0.247 -0.208l 1.625 0.039l 0.832 -0.013c 0.143 0 0.663 -0.026 0.832 -0.026c 0.208 0 0.312 0.104 0.312 0.312c 0 0.13 -0.143 0.195 -0.416 0.195c -0.52 0 -0.78 0.052 -0.78 0.169c 0 0 0.013 0.039 0.039 0.208l 0.78 3.172h 2.145c 0.845 0 1.651 0.26 2.405 0.767c 0.845 0.559 1.261 1.248 1.261 2.067c 0 1.287 -1.222 1.989 -2.587 1.989Z m -0.403 -0.507c 1.131 0 1.69 -0.39 1.69 -1.17c 0 -0.728 -0.364 -1.703 -0.741 -2.041c -0.494 -0.442 -1.144 -0.663 -1.95 -0.663h -1.742l 0.858 3.432c 0.104 0.442 0.104 0.442 0.65 0.442Z "/></symbol><symbol id="gC8D3C41E96247D923393A2468BB66E86" overflow="visible"><path d="M 0 0m 4.6592 3.3215c 0 0.4732 -0.4823 0.6916 -0.9828 0.6916c -0.4641 0 -0.8827 -0.2002 -1.2467 -0.6006c -0.0546 0.1456 -0.1365 0.2639 -0.2548 0.364c -0.2093 0.1547 -0.4368 0.2366 -0.6825 0.2366c -0.3094 0 -0.5551 -0.1547 -0.728 -0.4732c -0.2275 -0.3913 -0.3367 -0.7007 -0.3367 -0.9282c 0 -0.1001 0.0637 -0.1547 0.1911 -0.1547c 0.182 0 0.1729 0.1001 0.2275 0.2912c 0.1547 0.6279 0.364 0.9464 0.6188 0.9464c 0.1729 0 0.2639 -0.1365 0.2639 -0.4095c 0 -0.1001 -0.0455 -0.3367 -0.1456 -0.728l -0.4823 -1.9474c -0.0637 -0.2457 -0.091 -0.3731 -0.091 -0.3822c 0 -0.2093 0.1092 -0.3185 0.3367 -0.3185c 0.3185 0 0.4095 0.2002 0.4823 0.5005c 0.2002 0.8281 0.3549 1.4469 0.4641 1.8746c 0.0819 0.2912 0.1183 0.4459 0.1183 0.455c 0.0091 0.0455 0.0728 0.1547 0.1911 0.3185c 0.3003 0.4277 0.6552 0.637 1.0647 0.637c 0.1547 0 0.2912 -0.0273 0.4004 -0.0819c -0.2275 -0.1001 -0.3367 -0.2639 -0.3367 -0.5005c 0 -0.2184 0.1729 -0.3731 0.3913 -0.3731c 0.3094 0 0.5369 0.273 0.5369 0.5824Z "/></symbol><symbol id="g13AFF74D87C474CFAF661EEAD0458F8B" overflow="visible"><path d="M 0 0m 9.074 4.771h -8.034c -0.208 0 -0.312 -0.104 -0.312 -0.299c 0 -0.195 0.104 -0.299 0.312 -0.299h 8.034c 0.208 0 0.312 0.104 0.312 0.299c 0 0.156 -0.143 0.299 -0.312 0.299Z m 0 -2.444h -8.034c -0.208 0 -0.312 -0.104 -0.312 -0.299c 0 -0.195 0.104 -0.299 0.312 -0.299h 8.034c 0.208 0 0.312 0.104 0.312 0.299c 0 0.169 -0.143 0.299 -0.312 0.299Z "/></symbol><symbol id="gC717BE5B93447205292D108A434A4EF5" overflow="visible"><path d="M 0 0m 1.612 1.677c 0 0.312 0.065 0.741 0.195 1.274h 0.637c 0.845 0 1.495 0.104 1.963 0.299c 0.429 0.182 0.715 0.442 0.858 0.767c 0.091 0.221 0.13 0.429 0.13 0.598c 0 0.715 -0.676 1.131 -1.404 1.131c -0.507 0 -1.014 -0.13 -1.521 -0.39c -1.001 -0.52 -1.872 -1.703 -1.872 -3.133c 0 -1.326 0.767 -2.366 2.054 -2.366c 0.689 0 1.3 0.169 1.833 0.494c 0.442 0.273 0.767 0.546 0.975 0.819c 0.091 0.117 0.13 0.208 0.13 0.247c 0 0.143 -0.065 0.221 -0.208 0.221c -0.065 0 -0.13 -0.052 -0.208 -0.156c -0.429 -0.572 -0.962 -0.936 -1.573 -1.092c -0.403 -0.104 -0.702 -0.156 -0.923 -0.156c -0.741 0 -1.066 0.702 -1.066 1.443Z m 3.263 2.938c 0 -0.858 -0.832 -1.287 -2.509 -1.287h -0.455c 0.247 0.858 0.611 1.43 1.105 1.703c 0.39 0.221 0.715 0.338 0.975 0.338c 0.468 0 0.884 -0.286 0.884 -0.754Z "/></symbol><symbol id="g9948C0FDABF29E771DA30338E5C0072D" overflow="visible"><path d="M 0 0m 6.3336 2.4843h -5.5874c -0.182 0 -0.2366 -0.091 -0.2366 -0.2093c 0 -0.1183 0.0546 -0.2093 0.2366 -0.2093h 5.5874c 0.182 0 0.2366 0.091 0.2366 0.2093c 0 0.1092 -0.0546 0.2093 -0.2366 0.2093Z "/></symbol><symbol id="g767379DCBC383F5CD189EBAED801A2E4" overflow="visible"><path d="M 0 0m 4.2406 6.4064c -1.2376 0 -2.1294 -1.3559 -2.4115 -2.4752l -1.3741 -5.5237c -0.0182 -0.1183 0.0273 -0.1729 0.1365 -0.1729h 0.091c 0.0728 0 0.1183 0.0364 0.1365 0.1092l 0.5733 2.2932c 0.2639 -0.5005 0.7007 -0.7462 1.3104 -0.7462c 0.6097 0 1.1739 0.1729 1.6744 0.5278c 0.6916 0.4641 1.0374 1.0647 1.0374 1.8018c 0 0.6097 -0.2275 1.0738 -0.6734 1.3832c 0.5187 0.2639 0.8463 0.7007 0.9646 1.2012c 0.0273 0.1183 0.0455 0.2275 0.0455 0.3185c 0 0.8099 -0.6916 1.2831 -1.5106 1.2831Z m -1.1375 -2.8119c 0.0455 0.0182 0.2184 0.0273 0.5187 0.0273c 0.0546 0 0.1092 -0.0091 0.1729 -0.0182c -0.0819 -0.0091 -0.1638 -0.0182 -0.2548 -0.0182h -0.1638c -0.0819 0 -0.1729 0 -0.273 0.0091Z m 1.9838 1.7017c 0 -0.1183 -0.0182 -0.2548 -0.0637 -0.4277c -0.091 -0.3913 -0.2639 -0.6916 -0.5278 -0.9191c -0.0364 -0.0273 -0.091 -0.0728 -0.1638 -0.1274c -0.2275 0.0819 -0.455 0.1183 -0.7007 0.1183c -0.4277 0 -0.7007 -0.0364 -0.8099 -0.1183c -0.0819 -0.0728 -0.1274 -0.1638 -0.1274 -0.2639c 0 -0.0728 0.0273 -0.1274 0.0728 -0.1729c 0.0819 -0.0819 0.3367 -0.1274 0.7644 -0.1274c 0.2639 0 0.5187 0.0455 0.7735 0.1274c 0.2639 -0.1911 0.3913 -0.4914 0.3913 -0.91c 0 -0.182 -0.0364 -0.4186 -0.1092 -0.7098c -0.2093 -0.8372 -0.8827 -1.547 -1.8746 -1.547c -0.6552 0 -1.1102 0.4459 -1.1102 1.1011c 0 0.1092 0.0182 0.2366 0.0546 0.3822l 0.5369 2.1749c 0.2457 0.9737 0.9828 2.2113 2.0384 2.2113c 0.5096 0 0.8554 -0.2821 0.8554 -0.7917Z "/></symbol><symbol id="gE1855B9080E381DBF30A60576B27B8A2" overflow="visible"><path d="M 0 0m 7.3528 6.1789h -4.9504c -0.2093 0 -0.3276 -0.0273 -0.3276 -0.2366c 0 -0.1001 0.1092 -0.1547 0.3367 -0.1547c 0.2821 0 0.4459 -0.0182 0.4914 -0.0455c 0.0091 -0.0091 0.0091 -0.0364 0.0091 -0.0637c 0 -0.0455 -0.0091 -0.1092 -0.0273 -0.1911l -1.183 -4.7047c -0.0455 -0.1729 -0.1001 -0.2821 -0.1729 -0.3276c -0.0728 -0.0455 -0.2639 -0.0637 -0.5915 -0.0637c -0.2002 0 -0.3094 -0.0273 -0.3094 -0.2275c 0 -0.1092 0.1001 -0.1638 0.3094 -0.1638h 5.0869c 0.2275 0 0.2639 0.0182 0.3367 0.182l 0.8463 1.9201c 0.0364 0.0819 0.0546 0.1456 0.0546 0.1729c 0 0.1092 -0.0637 0.1638 -0.1911 0.1638l -0.1092 -0.0455c -0.0273 -0.0273 -0.0819 -0.1183 -0.1547 -0.273c -0.3003 -0.6643 -0.6006 -1.1102 -0.9191 -1.3377c -0.3458 -0.2639 -0.8645 -0.3913 -1.5561 -0.3913h -1.5288c -0.1729 0 -0.2548 -0.0182 -0.2548 0.0546l 0.6279 2.5662h 0.9828c 0.4732 0 0.7826 0 0.7826 -0.3731c 0 -0.091 -0.0182 -0.2275 -0.0637 -0.4004c -0.0182 -0.0546 -0.0273 -0.091 -0.0273 -0.1183v -0.0364c 0.0273 -0.0819 0.091 -0.1274 0.1911 -0.1274c 0.1001 0 0.1638 0.0728 0.2093 0.2275l 0.4914 1.9747c 0.0182 0.0728 0.0273 0.1183 0.0273 0.1365c 0 0.1092 -0.0637 0.1638 -0.1911 0.1638h -0.0728c -0.0455 -0.0091 -0.0819 -0.0546 -0.1001 -0.1365c -0.1183 -0.4186 -0.2639 -0.6825 -0.4186 -0.7735c -0.1547 -0.091 -0.4186 -0.1365 -0.8099 -0.1365h -0.9009l 0.5278 2.093c 0.0728 0.2821 0.0637 0.2821 0.4277 0.2821h 1.4651c 0.5005 0 0.8463 -0.0455 1.0283 -0.1456c 0.2821 -0.1365 0.4186 -0.4277 0.4186 -0.8645c 0 -0.1274 -0.0364 -0.3822 -0.0364 -0.546c 0 -0.1274 0.0637 -0.1911 0.182 -0.1911c 0.0546 0 0.1001 0.0091 0.1274 0.0364c 0.0455 0.1001 0.0728 0.1729 0.0728 0.2275l 0.1638 1.5652v 0.1456c 0 0.1547 -0.1092 0.1638 -0.3003 0.1638Z "/></symbol><symbol id="g6F3446AD88EE3F15480C0DC16F5A411" overflow="visible"><path d="M 0 0m 4.238 2.3205c 0 0.234 -0.13 0.39 -0.3965 0.468c -0.1885 0.0585 -0.39 0.0845 -0.6175 0.0845c -0.3835 0 -0.7215 -0.156 -1.014 -0.468c -0.078 0.273 -0.416 0.468 -0.7735 0.468c -0.3185 0 -0.559 -0.2145 -0.728 -0.637c -0.078 -0.1885 -0.117 -0.312 -0.117 -0.3705c 0 -0.0845 0.052 -0.1235 0.1625 -0.1235c 0.1365 0 0.143 0.065 0.182 0.2015c 0.117 0.442 0.273 0.663 0.468 0.663c 0.1625 0 0.2405 -0.104 0.2405 -0.312c 0 -0.052 -0.0325 -0.2145 -0.104 -0.494c -0.091 -0.3835 -0.1885 -0.767 -0.286 -1.144c -0.0715 -0.2795 -0.1105 -0.442 -0.1105 -0.481c 0 -0.1625 0.0845 -0.247 0.26 -0.247c 0.1365 0 0.2405 0.0585 0.3055 0.182c 0.0455 0.1495 0.0845 0.273 0.1105 0.3835l 0.1495 0.572c 0.0975 0.39 0.1755 0.78 0.3315 1.001c 0.2405 0.3575 0.546 0.5395 0.91 0.5395c 0.2275 0 0.403 -0.026 0.5265 -0.0845c -0.117 -0.0585 -0.234 -0.221 -0.234 -0.3705c 0 -0.1755 0.143 -0.286 0.312 -0.286c 0.2405 0 0.4225 0.2145 0.4225 0.455Z "/></symbol><symbol id="g4F4A543C48CF8402D9EEEC7880A7C7C3" overflow="visible"><path d="M 0 0m 9.36 8.489c 0.026 0.117 0.039 0.195 0.039 0.221c 0 0.117 -0.065 0.169 -0.208 0.169h -5.59c -0.325 0 -0.364 -0.039 -0.442 -0.299l -0.702 -2.301c -0.026 -0.065 -0.039 -0.143 -0.052 -0.208c 0.039 -0.104 0.065 -0.182 0.208 -0.182c 0.065 0 0.143 0.052 0.221 0.156c 0.273 0.845 0.637 1.456 1.092 1.807c 0.455 0.351 1.131 0.52 2.015 0.52h 1.976l -7.111 -7.943l -0.052 -0.26c 0 -0.117 0.078 -0.169 0.221 -0.169h 5.733c 0.338 0 0.377 0.026 0.455 0.299l 0.91 2.847c 0.013 0.052 0.052 0.143 0.052 0.195c 0 0.13 -0.078 0.195 -0.221 0.195c -0.091 0 -0.182 -0.117 -0.26 -0.364c -0.286 -0.884 -0.637 -1.534 -1.066 -1.95c -0.455 -0.455 -1.209 -0.676 -2.249 -0.676h -2.08Z "/></symbol></defs></svg>