<svg viewBox="0 0 352.458033333 101.701" width="352.458033333pt" height="101.701pt" xmlns="http://www.w3.org/2000/svg" xmlns:xlink="http://www.w3.org/1999/xlink" xmlns:h5="http://www.w3.org/1999/xhtml"><path fill="none" stroke="#e6edf3" stroke-width="0.4" stroke-linecap="butt" stroke-linejoin="miter" stroke-miterlimit="4" transform="translate(6.5 3.7)" d="M 0 0v 94.301"/><path fill="none" stroke="#e6edf3" stroke-width="0.4" stroke-linecap="butt" stroke-linejoin="miter" stroke-miterlimit="4" transform="translate(73.518 3.7)" d="M 0 0v 94.301"/><path fill="none" stroke="#e6edf3" stroke-width="0.4" stroke-linecap="butt" stroke-linejoin="miter" stroke-miterlimit="4" transform="translate(185.177566667 3.7)" d="M 0 0v 94.301"/><path fill="none" stroke="#e6edf3" stroke-width="0.4" stroke-linecap="butt" stroke-linejoin="miter" stroke-miterlimit="4" transform="translate(286.723133333 3.7)" d="M 0 0v 94.301"/><path fill="none" stroke="#e6edf3" stroke-width="0.4" stroke-linecap="butt" stroke-linejoin="miter" stroke-miterlimit="4" transform="translate(345.958033333 3.7)" d="M 0 0v 94.301"/><path fill="none" stroke="#e6edf3" stroke-width="0.4" stroke-linecap="butt" stroke-linejoin="miter" stroke-miterlimit="4" transform="translate(6.3 3.9)" d="M 0 0h 339.858033333"/><path fill="none" stroke="#e6edf3" stroke-width="0.4" stroke-linecap="butt" stroke-linejoin="miter" stroke-miterlimit="4" transform="translate(6.3 22.285)" d="M 0 0h 339.858033333"/><path fill="none" stroke="#e6edf3" stroke-width="0.4" stroke-linecap="butt" stroke-linejoin="miter" stroke-miterlimit="4" transform="translate(6.3 41.164)" d="M 0 0h 339.858033333"/><path fill="none" stroke="#e6edf3" stroke-width="0.4" stroke-linecap="butt" stroke-linejoin="miter" stroke-miterlimit="4" transform="translate(6.3 60.043)" d="M 0 0h 339.858033333"/><path fill="none" stroke="#e6edf3" stroke-width="0.4" stroke-linecap="butt" stroke-linejoin="miter" stroke-miterlimit="4" transform="translate(6.3 78.922)" d="M 0 0h 339.858033333"/><path fill="none" stroke="#e6edf3" stroke-width="0.4" stroke-linecap="butt" stroke-linejoin="miter" stroke-miterlimit="4" transform="translate(6.3 97.801)" d="M 0 0h 339.858033333"/><g transform="matrix(1 0 0 -1 17.1615 17.285)"><use xlink:href="#gE5BD0B2E9F45D2127B41B4A8A79F742A" x="0" y="0" fill="#e6edf3" fill-rule="nonzero"/><use xlink:href="#g1FF48EE9E7A7AA04D1062894F4A805D0" x="7.982" y="0" fill="#e6edf3" fill-rule="nonzero"/><use xlink:href="#gD13250BD8AE4ABF7ECBD5EDAD87650D4" x="13.442" y="0" fill="#e6edf3" fill-rule="nonzero"/><use xlink:href="#g455AF5F2E9F45D10EE15745A2F635446" x="20.696" y="0" fill="#e6edf3" fill-rule="nonzero"/><use xlink:href="#g395D26C38F96DCFC2DF8FE7DE8483C3E" x="26.624" y="0" fill="#e6edf3" fill-rule="nonzero"/><use xlink:href="#g60FD640496E2B8D32E175971F5F28FCC" x="32.981" y="0" fill="#e6edf3" fill-rule="nonzero"/><use xlink:href="#gD13250BD8AE4ABF7ECBD5EDAD87650D4" x="38.532" y="0" fill="#e6edf3" fill-rule="nonzero"/></g><g transform="matrix(1 0 0 -1 122.665783333 17.285)"><use xlink:href="#gB2F75FC3AB08179BFFBAE44960BADA2B" x="0" y="0" fill="#e6edf3" fill-rule="nonzero"/></g><g transform="matrix(1 0 0 -1 231.20535 17.285)"><use xlink:href="#g725F833E68E5942C442E1F7B3D8B88E3" x="0" y="0" fill="#e6edf3" fill-rule="nonzero"/></g><g transform="matrix(1 0 0 -1 307.084583333 17.285)"><use xlink:href="#gE44A30E6BBD661E56EEE06E3A1BB4C22" x="0" y="0" fill="#e6edf3" fill-rule="nonzero"/></g><g transform="matrix(1 0 0 -1 316.080583333 17.285)"><use xlink:href="#g3CDF0641163B3E69615034F3AEEBD166" x="0" y="0" fill="#e6edf3" fill-rule="nonzero"/></g><g transform="matrix(1 0 0 -1 11.9355 35.839)"><use xlink:href="#g16F896E2CB127937186692A1B7F9BFE8" x="0" y="0" fill="#e6edf3" fill-rule="nonzero"/><use xlink:href="#g4836F9D3BB531E5D04DA4839E8D1C9B5" x="3.861" y="0" fill="#e6edf3" fill-rule="nonzero"/><use xlink:href="#g4EB41F8CD30B017092B37FE804FFB59C" x="8.931" y="0" fill="#e6edf3" fill-rule="nonzero"/><use xlink:href="#g2EFB0F3A9CFC24976352FD6841E7E8CA" x="15.483" y="0" fill="#e6edf3" fill-rule="nonzero"/><use xlink:href="#gADB30F391A257CC6CC841FADCED6F8C2" x="19.591" y="0" fill="#e6edf3" fill-rule="nonzero"/><use xlink:href="#g9D961919576FDA431E05BF17B32D59AA" x="25.402" y="0" fill="#e6edf3" fill-rule="nonzero"/><use xlink:href="#g1FD97084E4DD632C0A164C90D00856A4" x="30.238" y="0" fill="#e6edf3" fill-rule="nonzero"/><use xlink:href="#g5BEB83E308280632BF9E3E6C7947CF8" x="40.508" y="0" fill="#e6edf3" fill-rule="nonzero"/><use xlink:href="#g4133D56BEB80BA32EA4E48A514562EB5" x="44.031" y="0" fill="#e6edf3" fill-rule="nonzero"/><use xlink:href="#g4EB41F8CD30B017092B37FE804FFB59C" x="49.595" y="0" fill="#e6edf3" fill-rule="nonzero"/></g><g transform="matrix(1 0 0 -1 78.518 36.164)"><use xlink:href="#g9B543B57F718853EF8F95EF155B6CF69" x="0" y="0" fill="#e6edf3" fill-rule="nonzero"/></g><g transform="matrix(1 0 0 -1 88.632 36.164)"><use xlink:href="#gACA2FE1DD062579B79E6E19150F5B03F" x="0" y="0" fill="#e6edf3" fill-rule="nonzero"/></g><g transform="matrix(1 0 0 -1 100.449 36.164)"><use xlink:href="#gCD18A55F4CC2CA429D96672C565B9565" x="0" y="0" fill="#e6edf3" fill-rule="nonzero"/></g><g transform="matrix(1 0 0 -1 107.222 39.375)"><use xlink:href="#gC7B20184179011BBC954B5E7CD84FB69" x="0" y="0" fill="#e6edf3" fill-rule="nonzero"/></g><g transform="matrix(1 0 0 -1 115.8033 36.164)"><use xlink:href="#g2D1FD5FA7721AD843D67732819992226" x="0" y="0" fill="#e6edf3" fill-rule="nonzero"/></g><g transform="matrix(1 0 0 -1 127.485966667 36.164)"><use xlink:href="#gBC3D9C1A249D0D4F874E09900DF515A4" x="0" y="0" fill="#e6edf3" fill-rule="nonzero"/><use xlink:href="#gA2276AEFE9378953E87817A497BFC175" x="3.614" y="0" fill="#e6edf3" fill-rule="nonzero"/></g><g transform="matrix(1 0 0 -1 138.327966667 36.164)"><use xlink:href="#g7AE04F15A7C3AC417269385A78E6B62E" x="0" y="0" fill="#e6edf3" fill-rule="nonzero"/></g><g transform="matrix(1 0 0 -1 144.281966667 36.164)"><use xlink:href="#g53251C539233983FE9FC826CA7FBAC4A" x="0" y="0" fill="#e6edf3" fill-rule="nonzero"/></g><g transform="matrix(1 0 0 -1 150.560966667 39.375)"><use xlink:href="#gAAD6BC2C8137F80591245DBA53D53272" x="0" y="0" fill="#e6edf3" fill-rule="nonzero"/></g><g transform="matrix(1 0 0 -1 157.040166667 36.164)"><use xlink:href="#gBD71DD9E9466376912EA1F5384258320" x="0" y="0" fill="#e6edf3" fill-rule="nonzero"/></g><g transform="matrix(1 0 0 -1 163.540166667 36.164)"><use xlink:href="#g53251C539233983FE9FC826CA7FBAC4A" x="0" y="0" fill="#e6edf3" fill-rule="nonzero"/></g><g transform="matrix(1 0 0 -1 169.819166667 39.375)"><use xlink:href="#g4CE686876A17D681BBB59265FB1A41AE" x="0" y="0" fill="#e6edf3" fill-rule="nonzero"/></g><g transform="matrix(1 0 0 -1 174.223566667 36.164)"><use xlink:href="#g51B3DB8755C43AB79D2F02785B5613F6" x="0" y="0" fill="#e6edf3" fill-rule="nonzero"/></g><g transform="matrix(1 0 0 -1 190.177566667 36.164)"><use xlink:href="#gACA2FE1DD062579B79E6E19150F5B03F" x="0" y="0" fill="#e6edf3" fill-rule="nonzero"/></g><g transform="matrix(1 0 0 -1 201.994566667 36.164)"><use xlink:href="#gCD18A55F4CC2CA429D96672C565B9565" x="0" y="0" fill="#e6edf3" fill-rule="nonzero"/></g><g transform="matrix(1 0 0 -1 208.767566667 39.375)"><use xlink:href="#gC7B20184179011BBC954B5E7CD84FB69" x="0" y="0" fill="#e6edf3" fill-rule="nonzero"/></g><g transform="matrix(1 0 0 -1 217.348866667 36.164)"><use xlink:href="#g2D1FD5FA7721AD843D67732819992226" x="0" y="0" fill="#e6edf3" fill-rule="nonzero"/></g><g transform="matrix(1 0 0 -1 229.031533333 36.164)"><use xlink:href="#gBC3D9C1A249D0D4F874E09900DF515A4" x="0" y="0" fill="#e6edf3" fill-rule="nonzero"/><use xlink:href="#gA2276AEFE9378953E87817A497BFC175" x="3.614" y="0" fill="#e6edf3" fill-rule="nonzero"/></g><g transform="matrix(1 0 0 -1 239.873533333 36.164)"><use xlink:href="#g7AE04F15A7C3AC417269385A78E6B62E" x="0" y="0" fill="#e6edf3" fill-rule="nonzero"/></g><g transform="matrix(1 0 0 -1 245.827533333 36.164)"><use xlink:href="#g53251C539233983FE9FC826CA7FBAC4A" x="0" y="0" fill="#e6edf3" fill-rule="nonzero"/></g><g transform="matrix(1 0 0 -1 252.106533333 39.375)"><use xlink:href="#gAAD6BC2C8137F80591245DBA53D53272" x="0" y="0" fill="#e6edf3" fill-rule="nonzero"/></g><g transform="matrix(1 0 0 -1 258.585733333 36.164)"><use xlink:href="#gBD71DD9E9466376912EA1F5384258320" x="0" y="0" fill="#e6edf3" fill-rule="nonzero"/></g><g transform="matrix(1 0 0 -1 265.085733333 36.164)"><use xlink:href="#g53251C539233983FE9FC826CA7FBAC4A" x="0" y="0" fill="#e6edf3" fill-rule="nonzero"/></g><g transform="matrix(1 0 0 -1 271.364733333 39.375)"><use xlink:href="#g4CE686876A17D681BBB59265FB1A41AE" x="0" y="0" fill="#e6edf3" fill-rule="nonzero"/></g><g transform="matrix(1 0 0 -1 275.769133333 36.164)"><use xlink:href="#g51B3DB8755C43AB79D2F02785B5613F6" x="0" y="0" fill="#e6edf3" fill-rule="nonzero"/></g><g transform="matrix(1 0 0 -1 313.090583333 36.164)"><use xlink:href="#gC189A0A36A47FB1CBF46D2ED82C939AF" x="0" y="0" fill="#e6edf3" fill-rule="nonzero"/></g><g transform="matrix(1 0 0 -1 15.9265 54.718)"><use xlink:href="#g16F896E2CB127937186692A1B7F9BFE8" x="0" y="0" fill="#e6edf3" fill-rule="nonzero"/><use xlink:href="#g4836F9D3BB531E5D04DA4839E8D1C9B5" x="3.861" y="0" fill="#e6edf3" fill-rule="nonzero"/><use xlink:href="#g4EB41F8CD30B017092B37FE804FFB59C" x="8.931" y="0" fill="#e6edf3" fill-rule="nonzero"/><use xlink:href="#g4133D56BEB80BA32EA4E48A514562EB5" x="15.574" y="0" fill="#e6edf3" fill-rule="nonzero"/><use xlink:href="#gB9F04D5D656A49E4E93D1A3697420BD8" x="21.138" y="0" fill="#e6edf3" fill-rule="nonzero"/><use xlink:href="#g9D961919576FDA431E05BF17B32D59AA" x="27.69" y="0" fill="#e6edf3" fill-rule="nonzero"/><use xlink:href="#g5BEB83E308280632BF9E3E6C7947CF8" x="32.526" y="0" fill="#e6edf3" fill-rule="nonzero"/><use xlink:href="#g4133D56BEB80BA32EA4E48A514562EB5" x="36.049" y="0" fill="#e6edf3" fill-rule="nonzero"/><use xlink:href="#g4EB41F8CD30B017092B37FE804FFB59C" x="41.613" y="0" fill="#e6edf3" fill-rule="nonzero"/></g><g transform="matrix(1 0 0 -1 126.097783333 55.043)"><use xlink:href="#gC189A0A36A47FB1CBF46D2ED82C939AF" x="0" y="0" fill="#e6edf3" fill-rule="nonzero"/></g><g transform="matrix(1 0 0 -1 211.3329 55.043)"><use xlink:href="#gACA2FE1DD062579B79E6E19150F5B03F" x="0" y="0" fill="#e6edf3" fill-rule="nonzero"/></g><g transform="matrix(1 0 0 -1 223.1499 55.043)"><use xlink:href="#g67F14AC23942C2CCA8D4F8A1F079A1D1" x="0" y="0" fill="#e6edf3" fill-rule="nonzero"/></g><g transform="matrix(1 0 0 -1 231.4049 58.254)"><use xlink:href="#gB520C4FDFB2403295A40FD77402E9185" x="0" y="0" fill="#e6edf3" fill-rule="nonzero"/></g><g transform="matrix(1 0 0 -1 240.2228 55.043)"><use xlink:href="#g1EC01C5368D684131831F3BFC5D2F1C1" x="0" y="0" fill="#e6edf3" fill-rule="nonzero"/></g><g transform="matrix(1 0 0 -1 251.0518 55.043)"><use xlink:href="#g2D1FD5FA7721AD843D67732819992226" x="0" y="0" fill="#e6edf3" fill-rule="nonzero"/></g><g transform="matrix(1 0 0 -1 291.723133333 55.043)"><use xlink:href="#gACA2FE1DD062579B79E6E19150F5B03F" x="0" y="0" fill="#e6edf3" fill-rule="nonzero"/></g><g transform="matrix(1 0 0 -1 303.540133333 55.043)"><use xlink:href="#g67F14AC23942C2CCA8D4F8A1F079A1D1" x="0" y="0" fill="#e6edf3" fill-rule="nonzero"/></g><g transform="matrix(1 0 0 -1 311.795133333 58.254)"><use xlink:href="#gB520C4FDFB2403295A40FD77402E9185" x="0" y="0" fill="#e6edf3" fill-rule="nonzero"/></g><g transform="matrix(1 0 0 -1 320.613033333 55.043)"><use xlink:href="#g1EC01C5368D684131831F3BFC5D2F1C1" x="0" y="0" fill="#e6edf3" fill-rule="nonzero"/></g><g transform="matrix(1 0 0 -1 331.442033333 55.043)"><use xlink:href="#g2D1FD5FA7721AD843D67732819992226" x="0" y="0" fill="#e6edf3" fill-rule="nonzero"/></g><g transform="matrix(1 0 0 -1 15.855 73.597)"><use xlink:href="#g16F896E2CB127937186692A1B7F9BFE8" x="0" y="0" fill="#e6edf3" fill-rule="nonzero"/><use xlink:href="#g4836F9D3BB531E5D04DA4839E8D1C9B5" x="3.861" y="0" fill="#e6edf3" fill-rule="nonzero"/><use xlink:href="#g4EB41F8CD30B017092B37FE804FFB59C" x="8.931" y="0" fill="#e6edf3" fill-rule="nonzero"/><use xlink:href="#g7E29B44545B22BEB1272A6678F5B7C8B" x="15.483" y="0" fill="#e6edf3" fill-rule="nonzero"/><use xlink:href="#gF6C889BC8005961D1D2093A19F48428E" x="21.892" y="0" fill="#e6edf3" fill-rule="nonzero"/><use xlink:href="#g9D961919576FDA431E05BF17B32D59AA" x="27.833" y="0" fill="#e6edf3" fill-rule="nonzero"/><use xlink:href="#g5BEB83E308280632BF9E3E6C7947CF8" x="32.669" y="0" fill="#e6edf3" fill-rule="nonzero"/><use xlink:href="#g4133D56BEB80BA32EA4E48A514562EB5" x="36.192" y="0" fill="#e6edf3" fill-rule="nonzero"/><use xlink:href="#g4EB41F8CD30B017092B37FE804FFB59C" x="41.756" y="0" fill="#e6edf3" fill-rule="nonzero"/></g><g transform="matrix(1 0 0 -1 110.328783333 73.922)"><use xlink:href="#g9B543B57F718853EF8F95EF155B6CF69" x="0" y="0" fill="#e6edf3" fill-rule="nonzero"/></g><g transform="matrix(1 0 0 -1 120.442783333 73.922)"><use xlink:href="#gAF39B06637020F254AB7B881282CA7F5" x="0" y="0" fill="#e6edf3" fill-rule="nonzero"/></g><g transform="matrix(1 0 0 -1 127.176783333 73.922)"><use xlink:href="#g1EC01C5368D684131831F3BFC5D2F1C1" x="0" y="0" fill="#e6edf3" fill-rule="nonzero"/></g><g transform="matrix(1 0 0 -1 138.005783333 73.922)"><use xlink:href="#g53251C539233983FE9FC826CA7FBAC4A" x="0" y="0" fill="#e6edf3" fill-rule="nonzero"/></g><g transform="matrix(1 0 0 -1 212.6979 73.922)"><use xlink:href="#gACA2FE1DD062579B79E6E19150F5B03F" x="0" y="0" fill="#e6edf3" fill-rule="nonzero"/></g><g transform="matrix(1 0 0 -1 224.5149 73.922)"><use xlink:href="#g67F14AC23942C2CCA8D4F8A1F079A1D1" x="0" y="0" fill="#e6edf3" fill-rule="nonzero"/></g><g transform="matrix(1 0 0 -1 232.7699 77.133)"><use xlink:href="#gDE2B0DCD42F709297493CB2FA2EBD985" x="0" y="0" fill="#e6edf3" fill-rule="nonzero"/></g><g transform="matrix(1 0 0 -1 238.8578 73.922)"><use xlink:href="#g1EC01C5368D684131831F3BFC5D2F1C1" x="0" y="0" fill="#e6edf3" fill-rule="nonzero"/></g><g transform="matrix(1 0 0 -1 249.6868 73.922)"><use xlink:href="#g2D1FD5FA7721AD843D67732819992226" x="0" y="0" fill="#e6edf3" fill-rule="nonzero"/></g><g transform="matrix(1 0 0 -1 291.723133333 73.922)"><use xlink:href="#gACA2FE1DD062579B79E6E19150F5B03F" x="0" y="0" fill="#e6edf3" fill-rule="nonzero"/></g><g transform="matrix(1 0 0 -1 303.540133333 73.922)"><use xlink:href="#g67F14AC23942C2CCA8D4F8A1F079A1D1" x="0" y="0" fill="#e6edf3" fill-rule="nonzero"/></g><g transform="matrix(1 0 0 -1 311.795133333 77.133)"><use xlink:href="#gB520C4FDFB2403295A40FD77402E9185" x="0" y="0" fill="#e6edf3" fill-rule="nonzero"/></g><g transform="matrix(1 0 0 -1 320.613033333 73.922)"><use xlink:href="#g1EC01C5368D684131831F3BFC5D2F1C1" x="0" y="0" fill="#e6edf3" fill-rule="nonzero"/></g><g transform="matrix(1 0 0 -1 331.442033333 73.922)"><use xlink:href="#g2D1FD5FA7721AD843D67732819992226" x="0" y="0" fill="#e6edf3" fill-rule="nonzero"/></g><g transform="matrix(1 0 0 -1 11.5 92.476)"><use xlink:href="#g2381F6852ADEE3D7D18DC8F3ED2DB1AF" x="0" y="0" fill="#e6edf3" fill-rule="nonzero"/><use xlink:href="#g8F48726E4FA2E83CD0FC211C30111D2D" x="8.879" y="0" fill="#e6edf3" fill-rule="nonzero"/><use xlink:href="#g5BEB83E308280632BF9E3E6C7947CF8" x="15.457" y="0" fill="#e6edf3" fill-rule="nonzero"/><use xlink:href="#gDDE822408A43A382ED0207F263DCEA38" x="18.98" y="0" fill="#e6edf3" fill-rule="nonzero"/><use xlink:href="#g7E29B44545B22BEB1272A6678F5B7C8B" x="24.921" y="0" fill="#e6edf3" fill-rule="nonzero"/><use xlink:href="#gF6C889BC8005961D1D2093A19F48428E" x="31.33" y="0" fill="#e6edf3" fill-rule="nonzero"/><use xlink:href="#g2EFB0F3A9CFC24976352FD6841E7E8CA" x="37.271" y="0" fill="#e6edf3" fill-rule="nonzero"/><use xlink:href="#g5BEB83E308280632BF9E3E6C7947CF8" x="41.379" y="0" fill="#e6edf3" fill-rule="nonzero"/><use xlink:href="#g4133D56BEB80BA32EA4E48A514562EB5" x="44.902" y="0" fill="#e6edf3" fill-rule="nonzero"/><use xlink:href="#g4EB41F8CD30B017092B37FE804FFB59C" x="50.466" y="0" fill="#e6edf3" fill-rule="nonzero"/></g><g transform="matrix(1 0 0 -1 104.730333333 92.801)"><use xlink:href="#gACA2FE1DD062579B79E6E19150F5B03F" x="0" y="0" fill="#e6edf3" fill-rule="nonzero"/></g><g transform="matrix(1 0 0 -1 116.547333333 92.801)"><use xlink:href="#g67F14AC23942C2CCA8D4F8A1F079A1D1" x="0" y="0" fill="#e6edf3" fill-rule="nonzero"/></g><g transform="matrix(1 0 0 -1 124.802333333 96.012)"><use xlink:href="#gB520C4FDFB2403295A40FD77402E9185" x="0" y="0" fill="#e6edf3" fill-rule="nonzero"/></g><g transform="matrix(1 0 0 -1 133.620233333 92.801)"><use xlink:href="#g1EC01C5368D684131831F3BFC5D2F1C1" x="0" y="0" fill="#e6edf3" fill-rule="nonzero"/></g><g transform="matrix(1 0 0 -1 144.449233333 92.801)"><use xlink:href="#g2D1FD5FA7721AD843D67732819992226" x="0" y="0" fill="#e6edf3" fill-rule="nonzero"/></g><g transform="matrix(1 0 0 -1 232.70035 92.801)"><use xlink:href="#gC189A0A36A47FB1CBF46D2ED82C939AF" x="0" y="0" fill="#e6edf3" fill-rule="nonzero"/></g><g transform="matrix(1 0 0 -1 291.723133333 92.801)"><use xlink:href="#gACA2FE1DD062579B79E6E19150F5B03F" x="0" y="0" fill="#e6edf3" fill-rule="nonzero"/></g><g transform="matrix(1 0 0 -1 303.540133333 92.801)"><use xlink:href="#g67F14AC23942C2CCA8D4F8A1F079A1D1" x="0" y="0" fill="#e6edf3" fill-rule="nonzero"/></g><g transform="matrix(1 0 0 -1 311.795133333 96.012)"><use xlink:href="#gB520C4FDFB2403295A40FD77402E9185" x="0" y="0" fill="#e6edf3" fill-rule="nonzero"/></g><g transform="matrix(1 0 0 -1 320.613033333 92.801)"><use xlink:href="#g1EC01C5368D684131831F3BFC5D2F1C1" x="0" y="0" fill="#e6edf3" fill-rule="nonzero"/></g><g transform="matrix(1 0 0 -1 331.442033333 92.801)"><use xlink:href="#g2D1FD5FA7721AD843D67732819992226" x="0" y="0" fill="#e6edf3" fill-rule="nonzero"/></g><defs><symbol id="gE5BD0B2E9F45D2127B41B4A8A79F742A" overflow="visible"><path d="M 0 0m 4.498 8.502c -0.52 0 -3.575 -0.091 -4.095 -0.091c -0.13 -0.078 -0.13 -0.364 0 -0.442c 0.715 -0.039 1.079 -0.091 1.079 -1.17v -5.213c 0 -1.079 -0.364 -1.131 -1.079 -1.17c -0.13 -0.078 -0.13 -0.364 0 -0.442c 0.52 0.013 1.482 0.026 2.002 0.026c 0.52 0 1.456 -0.013 1.976 -0.026c 0.13 0.078 0.13 0.364 0 0.442c -0.715 0.039 -1.079 0.091 -1.079 1.17v 5.226c 0 0.884 0.091 1.157 0.78 1.157c 0.754 0 1.625 -0.312 1.625 -1.898c 0 -1.352 -0.377 -1.924 -1.443 -1.924c -0.195 0 -0.468 0.013 -0.65 0.039c 0 -0.247 0.078 -0.429 0.26 -0.546c 0.182 -0.026 0.143 -0.039 0.455 -0.039c 1.144 0 1.95 0.195 2.47 0.624c 0.65 0.533 0.871 1.378 0.871 2.067c 0 0.52 -0.195 1.3 -1.001 1.781c -0.481 0.286 -1.196 0.429 -2.171 0.429Z "/></symbol><symbol id="g1FF48EE9E7A7AA04D1062894F4A805D0" overflow="visible"><path d="M 0 0m 2.964 3.484c 0 0.468 0.143 0.663 0.312 0.858c 0.104 0.13 0.221 0.221 0.416 0.221c 0.117 0 0.26 -0.117 0.364 -0.247c 0.091 -0.104 0.312 -0.208 0.611 -0.208c 0.377 0 0.741 0.39 0.741 0.936c 0 0.338 -0.39 0.728 -0.858 0.728c -0.455 0 -0.949 -0.39 -1.547 -1.248h -0.052c -0.026 0.39 -0.091 1.027 -0.091 1.027c -0.013 0.117 -0.117 0.221 -0.299 0.221c -0.611 -0.156 -1.3 -0.338 -2.158 -0.429c -0.026 -0.078 0 -0.325 0.026 -0.403c 0.715 -0.065 0.845 -0.182 0.845 -0.923v -2.431c 0 -1.079 -0.143 -1.105 -0.936 -1.17c -0.078 -0.078 -0.078 -0.364 0 -0.442c 0.546 0.013 1.092 0.026 1.781 0.026c 0.689 0 1.222 -0.013 1.781 -0.026c 0.078 0.078 0.078 0.364 0 0.442c -0.793 0.052 -0.936 0.091 -0.936 1.17Z "/></symbol><symbol id="gD13250BD8AE4ABF7ECBD5EDAD87650D4" overflow="visible"><path d="M 0 0m 0.481 2.691c 0 -1.703 1.352 -2.821 3.094 -2.821c 0.923 0 1.69 0.26 2.223 0.741c 0.663 0.585 0.884 1.469 0.884 2.197c 0 1.703 -1.157 2.964 -3.094 2.964c -1.079 0 -1.885 -0.377 -2.392 -0.962c -0.494 -0.572 -0.715 -1.352 -0.715 -2.119Z m 2.899 2.535c 0.884 0 1.482 -1.053 1.482 -2.834c 0 -1.56 -0.611 -1.976 -1.079 -1.976c -1.066 0 -1.482 1.599 -1.482 2.561c 0 1.196 0.208 2.249 1.079 2.249Z "/></symbol><symbol id="g455AF5F2E9F45D10EE15745A2F635446" overflow="visible"><path d="M 0 0m 5.486 1.131c 0 0.156 -0.026 0.403 -0.169 0.403c -0.52 -0.481 -0.962 -0.728 -1.339 -0.728c -0.975 0 -1.742 0.702 -1.742 2.262c 0 1.443 0.325 2.158 1.014 2.158c 0.481 0 0.676 -0.507 0.715 -0.923c 0.039 -0.351 0.39 -0.611 0.806 -0.611c 0.416 0 0.715 0.325 0.715 0.728c 0 0.585 -0.702 1.352 -2.119 1.352c -1.534 0 -2.886 -1.235 -2.886 -3.159c 0 -0.845 0.299 -1.586 0.806 -2.067c 0.507 -0.481 1.105 -0.676 2.028 -0.676c 0.78 0 1.677 0.546 2.171 1.261Z "/></symbol><symbol id="g395D26C38F96DCFC2DF8FE7DE8483C3E" overflow="visible"><path d="M 0 0m 5.603 1.677c -0.533 -0.546 -1.235 -0.689 -1.729 -0.689c -1.014 0 -1.638 0.585 -1.638 1.859c 0 0.091 0.013 0.143 0.013 0.208h 3.12c 0.312 0 0.377 0.221 0.377 0.403c 0 1.105 -0.429 2.314 -2.34 2.314c -1.365 0 -2.925 -1.209 -2.925 -3.198c 0 -0.754 0.273 -1.547 0.832 -2.054c 0.494 -0.442 1.131 -0.65 2.054 -0.65c 0.897 0 1.781 0.455 2.431 1.404c 0 0.169 -0.065 0.403 -0.195 0.403Z m -3.302 1.898c 0.013 0.455 0.078 0.949 0.26 1.209c 0.208 0.312 0.559 0.442 0.702 0.442c 0.351 0 0.832 -0.338 0.832 -1.378c 0 -0.078 0 -0.247 -0.026 -0.273Z "/></symbol><symbol id="g60FD640496E2B8D32E175971F5F28FCC" overflow="visible"><path d="M 0 0m 0.624 1.898c 0.052 -0.637 0.117 -1.248 0.221 -1.742c 0.247 -0.078 1.079 -0.286 1.807 -0.286c 1.001 0 2.249 0.546 2.249 1.677c 0 0.442 -0.104 0.793 -0.403 1.118c -0.364 0.416 -0.91 0.741 -1.508 1.001c -0.52 0.221 -0.702 0.637 -0.702 1.014c 0 0.299 0.247 0.546 0.624 0.546c 0.455 0 0.897 -0.416 1.222 -1.209c 0.234 -0.039 0.377 -0.026 0.507 0.065c 0 0.468 -0.052 0.962 -0.169 1.378c -0.416 0.182 -0.741 0.312 -1.456 0.312c -0.689 0 -1.339 -0.26 -1.755 -0.676c -0.299 -0.299 -0.442 -0.663 -0.442 -1.014c 0 -0.39 0.156 -0.702 0.403 -0.975c 0.403 -0.442 1.118 -0.897 1.508 -1.079c 0.52 -0.234 0.663 -0.702 0.663 -1.014c 0 -0.416 -0.416 -0.637 -0.767 -0.637c -0.585 0 -1.209 0.598 -1.482 1.547c -0.208 0.039 -0.312 0.026 -0.52 -0.026Z "/></symbol><symbol id="gB2F75FC3AB08179BFFBAE44960BADA2B" overflow="visible"><path d="M 0 0m 7.475 7.969c -0.247 -0.052 -0.611 -0.052 -0.78 0l -1.859 -5.239l -0.091 -0.338l -0.13 0.416l -1.417 4.641c -0.13 0.429 0.338 0.481 0.962 0.52c 0.078 0.078 0.078 0.364 0 0.442c -0.481 -0.013 -1.781 -0.026 -2.288 -0.026c -0.533 0 -1.261 0.013 -1.742 0.026c -0.078 -0.078 -0.078 -0.364 0 -0.442c 0.507 -0.052 0.975 -0.143 1.17 -0.702l 2.444 -7.124c 0.091 -0.273 0.286 -0.299 0.429 -0.299c 0.13 0 0.338 0.026 0.442 0.299l 1.95 5.187l 1.989 -5.187c 0.091 -0.247 0.234 -0.299 0.429 -0.299c 0.169 0 0.351 0.065 0.442 0.299l 2.444 6.656c 0.273 0.767 0.793 1.131 1.365 1.17c 0.078 0.078 0.078 0.364 0 0.442c -0.429 -0.013 -0.871 -0.026 -1.326 -0.026c -0.533 0 -1.144 0.013 -1.625 0.026c -0.078 -0.078 -0.078 -0.364 0 -0.442c 0.741 -0.117 0.988 -0.39 0.832 -0.871l -1.469 -4.368l -0.156 -0.468l -0.195 0.546Z "/></symbol><symbol id="g725F833E68E5942C442E1F7B3D8B88E3" overflow="visible"><path d="M 0 0m 9.022 4.277c 0 2.587 -1.924 4.277 -4.303 4.277c -1.3 0 -2.431 -0.559 -3.185 -1.456c -0.676 -0.806 -1.053 -1.885 -1.053 -3.081c 0 -2.392 1.755 -3.913 3.783 -4.121c -0.793 -0.416 -1.508 -1.027 -1.976 -1.586c -0.078 -0.091 -0.156 -0.195 -0.221 -0.299l 0.507 -0.39c 0.143 0.208 0.312 0.403 0.468 0.585c 0.195 0.13 0.377 0.182 0.481 0.182c 1.209 0 2.028 -1.365 3.718 -1.365c 0.819 0 1.365 0.468 1.872 1.196l -0.221 0.286c -0.286 -0.351 -0.754 -0.481 -1.131 -0.481c -1.144 0 -2.067 1.196 -3.497 1.196c -0.026 0 -0.052 0 -0.065 0c 0.559 0.39 1.105 0.637 1.456 0.728c 0.923 0.169 1.69 0.598 2.249 1.209c 0.715 0.78 1.118 1.846 1.118 3.12Z m -4.459 3.731c 1.391 0 2.496 -1.365 2.496 -4.004c 0 -2.158 -0.754 -3.588 -2.067 -3.588c -1.43 0 -2.548 1.417 -2.548 3.861c 0 2.652 0.962 3.731 2.119 3.731Z "/></symbol><symbol id="gE44A30E6BBD661E56EEE06E3A1BB4C22" overflow="visible"><path d="M 0 0m 5.33 8.463h -1.456l -3.575 -8.203c -0.052 -0.13 -0.065 -0.143 -0.065 -0.169c 0 -0.078 0.104 -0.091 0.273 -0.091h 7.904c 0.221 0 0.273 0.026 0.273 0.065c 0 0.026 -0.013 0.078 -0.052 0.195Z m -1.287 -1.248l 2.626 -6.721h -5.356l 2.704 6.643Z "/></symbol><symbol id="g3CDF0641163B3E69615034F3AEEBD166" overflow="visible"><path d="M 0 0m 2.951 6.786c 0 1.079 0.195 1.144 1.196 1.183c 0.078 0.078 0.078 0.364 0 0.442c -0.637 -0.013 -1.495 -0.026 -2.119 -0.026c -0.585 0 -1.248 0.013 -1.898 0.026c -0.078 -0.078 -0.078 -0.364 0 -0.442c 0.78 -0.039 1.001 -0.104 1.001 -1.183v -3.718c 0 -1.261 0.403 -2.171 1.131 -2.652c 0.819 -0.533 2.015 -0.546 2.626 -0.546c 2.665 0 3.51 1.651 3.51 3.965v 2.951c 0 1.079 0.234 1.105 1.001 1.183c 0.078 0.078 0.078 0.364 0 0.442c -0.507 -0.013 -1.027 -0.026 -1.391 -0.026c -0.377 0 -1.053 0.013 -1.651 0.026c -0.078 -0.078 -0.078 -0.364 0 -0.442c 0.988 -0.078 1.196 -0.104 1.196 -1.183v -3.185c 0 -1.456 -0.195 -3.185 -2.392 -3.185c -0.624 0 -1.157 0.273 -1.547 0.65c -0.637 0.611 -0.663 1.586 -0.663 2.431Z "/></symbol><symbol id="g16F896E2CB127937186692A1B7F9BFE8" overflow="visible"><path d="M 0 0m 2.483 1.586v 5.213c 0 1.079 0.221 1.144 1.131 1.183c 0.078 0.078 0.078 0.351 0 0.429c -0.572 -0.013 -1.183 -0.026 -1.69 -0.026c -0.429 0 -1.066 0.013 -1.677 0.026c -0.078 -0.078 -0.078 -0.351 0 -0.429c 0.91 -0.039 1.131 -0.104 1.131 -1.183v -5.213c 0 -1.079 -0.221 -1.144 -1.131 -1.183c -0.078 -0.078 -0.078 -0.351 0 -0.429c 0.585 0.013 1.222 0.026 1.69 0.026c 0.468 0 1.092 -0.013 1.677 -0.026c 0.078 0.078 0.078 0.351 0 0.429c -0.91 0.039 -1.131 0.104 -1.131 1.183Z "/></symbol><symbol id="g4836F9D3BB531E5D04DA4839E8D1C9B5" overflow="visible"><path d="M 0 0m 0.624 1.794c 0.052 -0.637 0.091 -1.248 0.091 -1.794c 0.13 0.026 0.26 0.039 0.325 0.039c 0.091 0 0.169 0 0.26 -0.026c 0.351 -0.091 0.702 -0.143 1.183 -0.143c 0.728 0 2.067 0.351 2.067 1.638c 0 0.884 -0.637 1.404 -1.521 1.729c -0.78 0.299 -1.3 0.494 -1.3 1.209c 0 0.533 0.468 0.832 0.91 0.832c 0.286 0 1.04 -0.104 1.209 -1.209c 0.078 -0.078 0.338 -0.065 0.416 0.013c 0.039 0.468 0.065 0.949 0.078 1.378c -0.403 0.065 -1.027 0.247 -1.703 0.247c -0.962 0 -1.833 -0.624 -1.833 -1.456c 0 -0.949 0.429 -1.352 1.43 -1.768c 1.079 -0.442 1.326 -0.715 1.326 -1.274c 0 -0.637 -0.624 -0.91 -1.105 -0.91c -0.507 0 -0.793 0.169 -0.923 0.312c -0.286 0.299 -0.429 0.871 -0.507 1.196c -0.078 0.078 -0.325 0.065 -0.403 -0.013Z "/></symbol><symbol id="g4EB41F8CD30B017092B37FE804FFB59C" overflow="visible"><path d="M 0 0m 0.533 2.665c 0 -1.326 0.884 -2.795 2.73 -2.795c 0.832 0 1.469 0.299 1.911 0.728c 0.585 0.572 0.845 1.391 0.845 2.184c 0 1.352 -0.741 2.925 -2.73 2.925c -0.858 0 -1.56 -0.351 -2.041 -0.91c -0.468 -0.559 -0.715 -1.313 -0.715 -2.132Z m 2.561 2.587c 1.118 0 1.807 -1.014 1.807 -2.886c 0 -1.638 -0.845 -2.041 -1.456 -2.041c -1.352 0 -1.794 1.638 -1.794 2.639c 0 1.131 0.273 2.288 1.443 2.288Z "/></symbol><symbol id="g2EFB0F3A9CFC24976352FD6841E7E8CA" overflow="visible"><path d="M 0 0m 0.559 5.577c -0.182 0 -0.234 -0.156 -0.234 -0.26v -0.169c 0 -0.065 0.013 -0.078 0.065 -0.078h 0.767v -3.913c 0 -0.923 0.403 -1.287 1.001 -1.287c 0.598 0 1.248 0.286 1.755 0.858c -0.026 0.13 -0.104 0.208 -0.234 0.221c -0.338 -0.26 -0.728 -0.364 -1.066 -0.364c -0.351 0 -0.429 0.39 -0.429 1.196v 3.289h 1.352c 0.13 0 0.312 0.052 0.312 0.169v 0.26c 0 0.052 -0.039 0.078 -0.104 0.078h -1.56v 0.507c 0 0.845 0.052 1.365 0.052 1.365c 0 0.078 -0.039 0.117 -0.104 0.117c -0.052 0 -0.169 -0.052 -0.286 -0.117c -0.143 -0.078 -0.273 -0.143 -0.442 -0.182c -0.156 -0.052 -0.286 -0.091 -0.286 -0.182c 0 -0.156 0.039 -0.065 0.039 -1.508Z "/></symbol><symbol id="gADB30F391A257CC6CC841FADCED6F8C2" overflow="visible"><path d="M 0 0m 5.018 1.209c -0.481 -0.494 -0.858 -0.702 -1.612 -0.702c -0.468 0 -1.014 0.273 -1.417 0.936c -0.26 0.429 -0.416 1.027 -0.416 1.781l 3.458 -0.026c 0.156 0 0.247 0.078 0.247 0.221c 0 1.092 -0.39 2.262 -2.197 2.262c -1.131 0 -2.6 -1.079 -2.6 -3.055c 0 -0.728 0.182 -1.43 0.611 -1.924c 0.442 -0.52 1.053 -0.832 1.989 -0.832c 0.988 0 1.69 0.455 2.21 1.131c -0.039 0.13 -0.117 0.195 -0.273 0.208Z m -3.406 2.457c 0.247 1.469 1.157 1.586 1.469 1.586c 0.494 0 1.079 -0.273 1.079 -1.365c 0 -0.117 -0.052 -0.182 -0.195 -0.182Z m 1.898 5.057l -0.988 -1.547c -0.104 -0.169 -0.143 -0.221 -0.143 -0.364c 0 -0.091 0.091 -0.169 0.182 -0.169c 0.091 0 0.195 0.052 0.39 0.247l 1.495 1.417l -0.039 0.143c -0.299 0.286 -0.637 0.299 -0.715 0.299c -0.065 0 -0.143 -0.013 -0.182 -0.026Z "/></symbol><symbol id="g9D961919576FDA431E05BF17B32D59AA" overflow="visible"><path d="M 0 0m 2.288 4.654c -0.026 0.52 -0.039 0.858 -0.104 0.988c -0.026 0.065 -0.052 0.104 -0.156 0.104c -0.364 -0.143 -0.702 -0.26 -1.599 -0.377c -0.026 -0.078 0 -0.286 0.026 -0.364c 0.702 -0.065 0.845 -0.13 0.845 -0.884v -2.535c 0 -1.079 -0.156 -1.131 -0.962 -1.183c -0.078 -0.078 -0.078 -0.351 0 -0.429c 0.455 0.013 0.962 0.026 1.482 0.026c 0.52 0 1.118 -0.013 1.573 -0.026c 0.078 0.078 0.078 0.351 0 0.429c -0.91 0.065 -1.066 0.104 -1.066 1.183v 1.807c 0 0.338 0.156 0.637 0.312 0.871c 0.143 0.208 0.442 0.637 0.598 0.637c 0.117 0 0.234 -0.026 0.338 -0.169c 0.091 -0.13 0.247 -0.299 0.468 -0.299c 0.312 0 0.611 0.325 0.611 0.65c 0 0.247 -0.234 0.624 -0.78 0.624c -0.611 0 -1.144 -0.572 -1.443 -1.079c -0.078 -0.143 -0.143 -0.039 -0.143 0.026Z "/></symbol><symbol id="g1FD97084E4DD632C0A164C90D00856A4" overflow="visible"><path d="M 0 0m 2.21 4.654c -0.013 0.39 -0.039 0.858 -0.104 0.988c -0.026 0.065 -0.052 0.104 -0.156 0.104c -0.364 -0.143 -0.702 -0.26 -1.599 -0.377c -0.026 -0.078 0 -0.286 0.026 -0.364c 0.702 -0.065 0.845 -0.13 0.845 -0.884v -2.535c 0 -1.066 -0.169 -1.131 -0.884 -1.183c -0.078 -0.078 -0.078 -0.351 0 -0.429c 0.39 0.013 0.884 0.026 1.404 0.026c 0.52 0 0.923 -0.013 1.313 -0.026c 0.078 0.078 0.078 0.351 0 0.429c -0.663 0.065 -0.806 0.117 -0.806 1.183v 2.132c 0 0.273 0.117 0.429 0.221 0.546c 0.52 0.507 1.001 0.767 1.404 0.767c 0.494 0 0.858 -0.312 0.858 -1.183v -2.262c 0 -1.066 -0.104 -1.131 -0.806 -1.183c -0.065 -0.078 -0.065 -0.351 0 -0.429c 0.325 0.013 0.806 0.026 1.326 0.026c 0.52 0 0.949 -0.013 1.274 -0.026c 0.065 0.078 0.065 0.351 0 0.429c -0.65 0.052 -0.767 0.117 -0.767 1.183v 2.067c 0 0.182 0 0.364 -0.013 0.52c 0.624 0.689 1.209 0.858 1.716 0.858c 0.494 0 0.78 -0.286 0.78 -1.157v -2.288c 0 -1.066 -0.13 -1.131 -0.806 -1.183c -0.065 -0.078 -0.065 -0.351 0 -0.429c 0.325 0.013 0.806 0.026 1.326 0.026c 0.52 0 0.975 -0.013 1.339 -0.026c 0.065 0.078 0.065 0.351 0 0.429c -0.715 0.052 -0.832 0.117 -0.832 1.183v 2.054c 0 1.157 -0.195 2.067 -1.339 2.067c -0.663 0 -1.469 -0.247 -2.145 -0.962c -0.039 -0.039 -0.117 -0.104 -0.143 0.013c -0.117 0.533 -0.624 0.949 -1.3 0.949c -0.754 0 -1.43 -0.442 -1.976 -1.053c -0.065 -0.065 -0.143 -0.156 -0.156 0Z "/></symbol><symbol id="g5BEB83E308280632BF9E3E6C7947CF8" overflow="visible"><path d="M 0 0m 2.353 1.586v 2.587c 0 0.65 0.052 1.482 0.052 1.482c 0 0.052 -0.065 0.091 -0.169 0.091c -0.364 -0.143 -0.884 -0.26 -1.781 -0.377c -0.026 -0.078 0 -0.286 0.026 -0.364c 0.715 -0.065 0.845 -0.143 0.845 -0.884v -2.535c 0 -1.079 -0.143 -1.118 -0.936 -1.183c -0.078 -0.078 -0.078 -0.351 0 -0.429c 0.429 0.013 0.936 0.026 1.456 0.026c 0.52 0 1.014 -0.013 1.443 -0.026c 0.078 0.078 0.078 0.351 0 0.429c -0.793 0.052 -0.936 0.104 -0.936 1.183Z m -1.183 6.201c 0 -0.338 0.312 -0.676 0.624 -0.676c 0.364 0 0.676 0.351 0.676 0.624c 0 0.312 -0.273 0.676 -0.624 0.676c -0.312 0 -0.676 -0.312 -0.676 -0.624Z "/></symbol><symbol id="g4133D56BEB80BA32EA4E48A514562EB5" overflow="visible"><path d="M 0 0m 5.174 1.183c -0.052 0.117 -0.156 0.169 -0.273 0.182c -0.442 -0.572 -1.001 -0.858 -1.56 -0.858c -0.949 0 -1.742 0.962 -1.742 2.483c 0 1.43 0.624 2.288 1.482 2.288c 0.767 0 0.871 -0.455 0.923 -0.91c 0.039 -0.351 0.221 -0.468 0.494 -0.468c 0.273 0 0.637 0.169 0.637 0.572c 0 0.715 -0.741 1.235 -1.989 1.235c -1.287 0 -2.665 -1.157 -2.665 -3.003c 0 -1.677 0.936 -2.834 2.574 -2.834c 0.78 0 1.469 0.247 2.119 1.313Z "/></symbol><symbol id="g9B543B57F718853EF8F95EF155B6CF69" overflow="visible"><path d="M 0 0m 9.074 3.51h -8.034c -0.208 0 -0.312 -0.091 -0.312 -0.26c 0 -0.169 0.104 -0.26 0.312 -0.26h 8.034c 0.208 0 0.312 0.091 0.312 0.26c 0 0.156 -0.156 0.26 -0.312 0.26Z "/></symbol><symbol id="gACA2FE1DD062579B79E6E19150F5B03F" overflow="visible"><path d="M 0 0m 11.232 8.879c -0.247 0 -1.053 -0.039 -1.3 -0.039c -0.247 0 -1.066 0.039 -1.313 0.039c -0.195 0 -0.286 -0.104 -0.286 -0.312c 0 -0.117 0.091 -0.182 0.286 -0.195c 0.546 0 0.819 -0.169 0.819 -0.507c 0 -0.078 -0.013 -0.169 -0.026 -0.26l -1.404 -5.564l -2.795 6.565c -0.104 0.247 -0.13 0.273 -0.455 0.273h -1.729c -0.312 0 -0.429 -0.026 -0.429 -0.312c 0 -0.13 0.143 -0.195 0.416 -0.195c 0.546 0 0.819 -0.013 0.832 -0.052l -1.729 -6.89c -0.117 -0.507 -0.416 -0.793 -0.884 -0.884c -0.338 -0.039 -0.728 0.013 -0.728 -0.351c 0 -0.13 0.078 -0.195 0.221 -0.195c 0.234 0 1.04 0.039 1.287 0.039c 0.247 0 1.079 -0.039 1.326 -0.039c 0.195 0 0.286 0.104 0.286 0.312c 0 0.117 -0.104 0.182 -0.312 0.195c -0.533 0.013 -0.793 0.182 -0.793 0.507c 0 0.065 0.013 0.156 0.039 0.286l 1.677 6.643l 3.25 -7.67c 0.078 -0.182 0.182 -0.273 0.299 -0.273c 0.117 0 0.195 0.104 0.247 0.312l 1.807 7.15c 0.169 0.663 0.533 0.897 1.339 0.91c 0.182 0.013 0.273 0.117 0.273 0.325c -0.039 0.117 -0.052 0.182 -0.221 0.182Z "/></symbol><symbol id="gCD18A55F4CC2CA429D96672C565B9565" overflow="visible"><path d="M 0 0m 5.317 4.589c 0 -0.338 0.182 -0.507 0.533 -0.507c 0.455 0 0.754 0.403 0.754 0.845c 0 0.507 -0.416 0.858 -0.923 0.858c -0.585 0 -1.209 -0.39 -1.898 -1.157c -0.533 -0.585 -0.962 -0.962 -1.313 -1.131l 1.313 5.33c -0.026 0.117 -0.052 0.195 -0.221 0.195c -0.416 0 -1.404 -0.117 -1.56 -0.13c -0.195 -0.026 -0.286 -0.117 -0.286 -0.312c 0 -0.13 0.117 -0.195 0.351 -0.195c 0.247 0 0.585 0.013 0.585 -0.169l -1.885 -7.657c -0.039 -0.143 -0.052 -0.234 -0.052 -0.286c 0 -0.273 0.143 -0.416 0.416 -0.416c 0.221 0 0.39 0.104 0.481 0.299c 0.065 0.117 0.299 1.04 0.715 2.782c 0.676 -0.065 1.391 -0.39 1.391 -1.04c 0 -0.195 -0.091 -0.585 -0.091 -0.715c 0 -0.741 0.481 -1.326 1.222 -1.326c 0.754 0 1.261 0.676 1.521 2.028c 0 0.117 -0.065 0.182 -0.195 0.182c -0.117 0 -0.195 -0.091 -0.234 -0.273c -0.286 -1.027 -0.637 -1.547 -1.066 -1.547c -0.234 0 -0.351 0.182 -0.351 0.546c 0 0.208 0.156 0.91 0.156 1.118c 0 0.741 -0.598 1.196 -1.807 1.378c 0.299 0.208 0.637 0.507 1.001 0.897c 0.364 0.39 0.624 0.637 0.793 0.78c 0.351 0.286 0.689 0.429 0.988 0.429c 0.13 0 0.234 -0.026 0.312 -0.078c -0.351 -0.065 -0.65 -0.39 -0.65 -0.728Z "/></symbol><symbol id="gC7B20184179011BBC954B5E7CD84FB69" overflow="visible"><path d="M 0 0m 7.6167 4.9049c 0 0.4368 -0.2184 0.7735 -0.6552 1.0101c -0.3549 0.2002 -0.7735 0.3003 -1.2467 0.3003h -3.276c -0.2093 0 -0.3276 -0.0273 -0.3276 -0.2366c 0 -0.1001 0.0637 -0.1456 0.1911 -0.1547l 0.4732 -0.0182c 0.1183 -0.0091 0.1729 0 0.1729 -0.091l -1.2285 -4.9686c -0.0455 -0.182 -0.1365 -0.2912 -0.273 -0.3367c -0.0455 -0.0091 -0.2002 -0.0182 -0.4823 -0.0182h -0.1547c -0.1001 -0.0091 -0.1547 -0.0819 -0.1547 -0.2184c 0 -0.1547 0.1183 -0.1729 0.3094 -0.1729h 3.4853c 0.6097 0 1.1921 0.1729 1.7472 0.5096c 0.6461 0.3913 0.9646 0.8736 0.9646 1.4469c 0 0.728 -0.6916 1.1739 -1.3741 1.3013c 0.8099 0.182 1.8291 0.7826 1.8291 1.6471Z m -0.9555 0.0091c 0 -0.455 -0.2275 -0.8281 -0.6734 -1.1284c -0.4004 -0.2639 -0.8372 -0.3913 -1.3195 -0.3913h -1.4287l 0.5369 2.1476c 0.0728 0.273 0.0728 0.2821 0.4277 0.2821h 1.365c 0.6279 0 1.092 -0.3185 1.092 -0.91Z m -0.4823 -2.8938c 0 -0.4732 -0.2184 -0.8736 -0.6461 -1.1921c -0.3913 -0.2912 -0.8281 -0.4368 -1.3195 -0.4368h -1.4469c -0.1729 0 -0.2548 -0.0182 -0.2548 0.0546l 0.6461 2.6208h 1.8837c 0.6643 0 1.1375 -0.3822 1.1375 -1.0465Z "/></symbol><symbol id="g2D1FD5FA7721AD843D67732819992226" overflow="visible"><path d="M 0 0m 4.472 8.203c 0 -0.039 -0.013 -0.13 -0.052 -0.26l -1.716 -6.864c -0.052 -0.195 -0.104 -0.312 -0.143 -0.364c -0.117 -0.143 -0.559 -0.208 -1.339 -0.208c -0.403 0 -0.585 0.039 -0.585 -0.299c 0 -0.143 0.091 -0.208 0.26 -0.208c 0.663 0 1.599 0.052 2.158 0.039l 1.066 -0.013c 0.182 0 0.897 -0.026 1.118 -0.026c 0.221 0 0.325 0.104 0.325 0.312c 0 0.13 -0.156 0.195 -0.481 0.195c -0.676 0 -1.066 0.026 -1.183 0.091c -0.039 0.026 -0.065 0.078 -0.065 0.156l 1.755 7.085c 0.039 0.182 0.078 0.299 0.117 0.338c 0.052 0.078 0.364 0.117 0.936 0.117c 0.715 0 1.209 -0.052 1.456 -0.169c 0.247 -0.117 0.377 -0.39 0.377 -0.832c 0 -0.234 -0.039 -0.572 -0.104 -1.014c -0.026 -0.104 -0.039 -0.182 -0.039 -0.247c 0 -0.143 0.065 -0.221 0.208 -0.221c 0.117 0 0.195 0.117 0.234 0.338l 0.351 2.236c 0.013 0.065 0.026 0.143 0.026 0.221c 0 0.13 -0.13 0.195 -0.403 0.195h -7.124c -0.338 0 -0.364 -0.039 -0.468 -0.286l -0.767 -2.262c -0.039 -0.117 -0.065 -0.195 -0.078 -0.247c 0 -0.13 0.065 -0.195 0.208 -0.195c 0.104 0 0.195 0.104 0.26 0.299c 0.325 0.949 0.65 1.534 0.949 1.781c 0.338 0.273 0.988 0.403 1.937 0.403h 0.507c 0.143 0 0.299 0.013 0.299 -0.091Z "/></symbol><symbol id="gBC3D9C1A249D0D4F874E09900DF515A4" overflow="visible"><path d="M 0 0m 1.872 0.039l 1.443 -0.039v 0.507c -0.468 0 -0.754 0.013 -0.845 0.065c -0.091 0.052 -0.13 0.208 -0.13 0.455v 7.995l -1.911 -0.143v -0.494c 0.455 0 0.741 -0.039 0.832 -0.117c 0.091 -0.078 0.143 -0.26 0.143 -0.559v -6.682c 0 -0.247 -0.039 -0.403 -0.13 -0.455c -0.091 -0.052 -0.377 -0.065 -0.845 -0.065v -0.507Z "/></symbol><symbol id="gA2276AEFE9378953E87817A497BFC175" overflow="visible"><path d="M 0 0m 4.082 5.369c 0.585 0 0.884 -0.455 0.884 -1.378v -2.964c 0 -0.247 -0.039 -0.403 -0.13 -0.455c -0.091 -0.052 -0.377 -0.078 -0.858 -0.078v -0.494l 1.495 0.039l 1.482 -0.039v 0.494c -0.416 0 -0.689 0.013 -0.819 0.052c -0.13 0.039 -0.182 0.13 -0.182 0.286v 2.431c 0 0.611 -0.013 1.04 -0.052 1.287c -0.13 0.793 -0.715 1.196 -1.742 1.196c -0.819 0 -1.43 -0.39 -1.833 -1.17v 1.17l -1.911 -0.143v -0.494c 0.468 0 0.754 -0.039 0.858 -0.117c 0.104 -0.078 0.143 -0.247 0.143 -0.546v -3.419c 0 -0.247 -0.052 -0.403 -0.143 -0.455c -0.091 -0.052 -0.377 -0.078 -0.858 -0.078v -0.494l 1.495 0.039l 1.482 -0.039v 0.494c -0.481 0 -0.754 0.026 -0.845 0.078c -0.091 0.052 -0.143 0.208 -0.143 0.455v 2.34c 0 1.053 0.663 2.002 1.677 2.002Z "/></symbol><symbol id="g7AE04F15A7C3AC417269385A78E6B62E" overflow="visible"><path d="M 0 0m 4.94 -4.511c 0.13 0 0.195 0.065 0.195 0.195c 0 0.065 -0.026 0.117 -0.065 0.156c -0.793 0.611 -1.43 1.612 -1.911 3.016c -0.416 1.209 -0.624 2.405 -0.624 3.562v 1.664c 0 1.157 0.208 2.353 0.624 3.562c 0.481 1.404 1.118 2.405 1.911 3.016c 0.039 0.039 0.065 0.091 0.065 0.156c 0 0.13 -0.065 0.195 -0.195 0.195c -0.026 0 -0.065 -0.013 -0.104 -0.039c -0.91 -0.689 -1.664 -1.729 -2.262 -3.12c -0.585 -1.313 -0.871 -2.574 -0.871 -3.77v -1.664c 0 -1.196 0.286 -2.457 0.871 -3.77c 0.598 -1.391 1.352 -2.431 2.262 -3.12c 0.039 -0.026 0.078 -0.039 0.104 -0.039Z "/></symbol><symbol id="g53251C539233983FE9FC826CA7FBAC4A" overflow="visible"><path d="M 0 0m 8.723 8.84c -0.247 0 -1.027 0.039 -1.274 0.039c -0.195 0 -0.299 -0.104 -0.299 -0.299c 0 -0.13 0.091 -0.195 0.26 -0.208c 0.364 -0.013 0.546 -0.143 0.546 -0.364c 0 -0.117 -0.065 -0.273 -0.182 -0.468l -3.874 -6.149l -0.858 6.656c 0 0.221 0.273 0.325 0.832 0.325c 0.26 0 0.377 0.091 0.377 0.312c 0 0.13 -0.078 0.195 -0.234 0.195c -0.286 0 -1.3 -0.039 -1.586 -0.039c -0.26 0 -1.144 0.039 -1.404 0.039c -0.195 0 -0.299 -0.104 -0.299 -0.299c 0 -0.143 0.13 -0.208 0.377 -0.208c 0.221 0 0.377 -0.026 0.481 -0.052c 0.208 -0.065 0.195 -0.091 0.234 -0.338l 1.014 -7.93c 0.039 -0.221 0.143 -0.338 0.312 -0.338c 0.169 0 0.299 0.091 0.403 0.26l 4.628 7.358c 0.299 0.468 0.585 0.767 0.871 0.884c 0.195 0.091 0.442 0.143 0.728 0.156c 0.143 0.013 0.208 0.104 0.221 0.299c 0.013 0.143 -0.065 0.208 -0.221 0.208c -0.195 0 -0.858 -0.039 -1.053 -0.039Z "/></symbol><symbol id="gAAD6BC2C8137F80591245DBA53D53272" overflow="visible"><path d="M 0 0m 5.4964 5.733c 0 0.4368 -0.455 0.6734 -0.9282 0.6734c -0.2184 0 -0.4277 -0.0637 -0.6279 -0.182c -0.3367 -0.2002 -0.5733 -0.5642 -0.6916 -1.0829c -0.0455 -0.2184 -0.1274 -0.6188 -0.2275 -1.2012h -0.6825c -0.2093 0 -0.3276 -0.0182 -0.3276 -0.2275c 0 -0.1092 0.1001 -0.1638 0.3094 -0.1638h 0.6188l -0.7735 -4.2224c -0.1092 -0.5733 -0.3094 -0.8554 -0.5915 -0.8554h -0.0637c -0.1001 0.0091 -0.182 0.0364 -0.2457 0.0637c 0.1729 0.0819 0.3367 0.2912 0.3367 0.5005c 0 0.2184 -0.1729 0.3731 -0.3913 0.3731c -0.3094 0 -0.546 -0.2821 -0.546 -0.5915c 0 -0.4368 0.4459 -0.6734 0.91 -0.6734c 0.1729 0 0.3549 0.0546 0.5278 0.1729c 0.2366 0.1547 0.4277 0.3731 0.5733 0.637c 0.2275 0.4095 0.4095 1.0192 0.5551 1.8382l 0.4914 2.7573h 0.8554c 0.2184 0 0.3276 0.0273 0.3276 0.2366c 0 0.1001 -0.1092 0.1547 -0.3185 0.1547h -0.7826c 0.182 1.0101 0.2912 1.6016 0.3367 1.7836c 0.0637 0.2366 0.2002 0.3549 0.4277 0.3549h 0.0637c 0.1092 -0.0091 0.2002 -0.0364 0.2639 -0.0637c -0.1729 -0.0819 -0.3367 -0.2912 -0.3367 -0.5005c 0 -0.2184 0.1729 -0.3731 0.3913 -0.3731c 0.3094 0 0.546 0.2821 0.546 0.5915Z "/></symbol><symbol id="gBD71DD9E9466376912EA1F5384258320" overflow="visible"><path d="M 0 0m 5.772 9.334c 0.013 0.026 0.013 0.065 0.013 0.104c 0 0.208 -0.104 0.312 -0.312 0.312c -0.143 0 -0.234 -0.065 -0.286 -0.208l -4.446 -12.376c -0.013 -0.026 -0.013 -0.065 -0.013 -0.104c 0 -0.208 0.104 -0.312 0.312 -0.312c 0.143 0 0.234 0.065 0.286 0.208Z "/></symbol><symbol id="g4CE686876A17D681BBB59265FB1A41AE" overflow="visible"><path d="M 0 0m 2.9575 5.6511c 0 0.2184 -0.1729 0.3822 -0.3913 0.3822c -0.273 0 -0.5369 -0.2548 -0.5369 -0.5278c 0 -0.2184 0.1729 -0.3822 0.3913 -0.3822c 0.273 0 0.5369 0.2548 0.5369 0.5278Z m -1.2103 -1.6107c -0.4277 0 -0.7644 -0.2184 -1.0101 -0.6552c -0.2093 -0.364 -0.3094 -0.6188 -0.3094 -0.7644c 0 -0.1001 0.0637 -0.1456 0.182 -0.1456c 0.1001 0 0.1638 0.0546 0.2002 0.1638c 0.2093 0.7189 0.5096 1.0738 0.91 1.0738c 0.1274 0 0.1911 -0.091 0.1911 -0.2821c 0 -0.1183 -0.091 -0.4095 -0.273 -0.8827l -0.5642 -1.4469c -0.0546 -0.1456 -0.0819 -0.273 -0.0819 -0.3913c 0 -0.4732 0.4095 -0.8008 0.8827 -0.8008c 0.4277 0 0.7553 0.2184 1.001 0.6643c 0.2093 0.364 0.3094 0.6097 0.3094 0.7462c 0 0.1001 -0.0637 0.1547 -0.182 0.1547c -0.0546 -0.0091 -0.1183 -0.0546 -0.182 -0.1456c -0.0091 -0.0091 -0.0182 -0.0273 -0.0182 -0.0364c -0.2093 -0.7007 -0.5096 -1.0556 -0.9009 -1.0556c -0.1274 0 -0.1911 0.091 -0.1911 0.273c 0 0.1365 0.0455 0.3276 0.1456 0.5642l 0.7189 1.8655c 0.0364 0.1001 0.0546 0.2002 0.0546 0.3003c 0 0.4732 -0.4095 0.8008 -0.8827 0.8008Z "/></symbol><symbol id="g51B3DB8755C43AB79D2F02785B5613F6" overflow="visible"><path d="M 0 0m 1.118 -4.472c 0.91 0.689 1.664 1.729 2.262 3.12c 0.585 1.313 0.871 2.574 0.871 3.77v 1.664c 0 1.196 -0.286 2.457 -0.871 3.77c -0.598 1.391 -1.352 2.431 -2.262 3.12c -0.039 0.026 -0.078 0.039 -0.104 0.039c -0.13 0 -0.195 -0.065 -0.195 -0.195c 0 -0.065 0.026 -0.117 0.065 -0.156c 0.793 -0.611 1.43 -1.612 1.911 -3.016c 0.416 -1.209 0.624 -2.405 0.624 -3.562v -1.664c 0 -1.157 -0.208 -2.353 -0.624 -3.562c -0.481 -1.404 -1.118 -2.405 -1.911 -3.016c -0.039 -0.039 -0.065 -0.091 -0.065 -0.156c 0 -0.13 0.065 -0.195 0.195 -0.195c 0.026 0 0.065 0.013 0.104 0.039Z "/></symbol><symbol id="gC189A0A36A47FB1CBF46D2ED82C939AF" overflow="visible"><path d="M 0 0m 3.237 -0.286c 1.833 0 2.743 1.482 2.743 4.446c 0 1.989 -0.416 3.315 -1.235 3.965c -0.455 0.351 -0.962 0.533 -1.495 0.533c -1.833 0 -2.743 -1.495 -2.743 -4.498c 0 -2.392 0.637 -4.446 2.73 -4.446Z m 1.456 7.098c 0.091 -0.455 0.13 -1.287 0.13 -2.496c 0 -1.196 -0.052 -2.08 -0.143 -2.652c -0.169 -1.04 -0.65 -1.56 -1.443 -1.56c -0.299 0 -0.598 0.117 -0.871 0.338c -0.351 0.299 -0.559 0.91 -0.65 1.846c -0.039 0.325 -0.052 1.001 -0.052 2.028c 0 1.131 0.039 1.924 0.104 2.353c 0.117 0.715 0.351 1.17 0.715 1.365c 0.286 0.156 0.533 0.234 0.754 0.234c 0.845 0 1.313 -0.689 1.456 -1.456Z "/></symbol><symbol id="gB9F04D5D656A49E4E93D1A3697420BD8" overflow="visible"><path d="M 0 0m 0.533 2.665c 0 -1.326 0.884 -2.795 2.73 -2.795c 0.832 0 1.469 0.299 1.911 0.728c 0.585 0.572 0.845 1.391 0.845 2.184c 0 1.352 -0.741 2.925 -2.73 2.925c -0.858 0 -1.56 -0.351 -2.041 -0.91c -0.468 -0.559 -0.715 -1.313 -0.715 -2.132Z m 2.561 2.587c 1.118 0 1.807 -1.014 1.807 -2.886c 0 -1.638 -0.845 -2.041 -1.456 -2.041c -1.352 0 -1.794 1.638 -1.794 2.639c 0 1.131 0.273 2.288 1.443 2.288Z m 0.416 3.471l -0.988 -1.547c -0.104 -0.169 -0.143 -0.221 -0.143 -0.364c 0 -0.091 0.091 -0.169 0.182 -0.169c 0.091 0 0.195 0.052 0.39 0.247l 1.495 1.417l -0.039 0.143c -0.299 0.286 -0.637 0.299 -0.715 0.299c -0.065 0 -0.143 -0.013 -0.182 -0.026Z "/></symbol><symbol id="g67F14AC23942C2CCA8D4F8A1F079A1D1" overflow="visible"><path d="M 0 0m 1.924 2.834c 0 1.664 0.728 3.354 1.547 4.29c 0.663 0.767 1.807 1.534 3.094 1.534c 1.352 0 2.015 -1.027 2.015 -2.431c 0 -0.117 -0.039 -0.533 -0.039 -0.65c 0 -0.117 0.078 -0.182 0.247 -0.182c 0.065 0 0.117 0.013 0.156 0.026c 0.065 0.091 0.104 0.182 0.13 0.273l 0.806 3.289c 0 0.117 -0.065 0.182 -0.195 0.182c -0.052 0 -0.13 -0.052 -0.234 -0.169l -0.845 -0.949c -0.507 0.741 -1.222 1.118 -2.145 1.118c -0.715 0 -1.417 -0.169 -2.132 -0.494c -1.443 -0.676 -2.496 -1.742 -3.172 -3.198c -0.338 -0.715 -0.507 -1.443 -0.507 -2.184c 0 -1.04 0.325 -1.885 0.988 -2.561c 0.663 -0.676 1.508 -1.014 2.548 -1.014c 1.027 0 1.963 0.377 2.808 1.118c 0.351 0.299 0.65 0.663 0.897 1.066c 0.351 0.585 0.533 0.988 0.533 1.235c 0 0.117 -0.065 0.182 -0.208 0.182c -0.117 0 -0.182 -0.052 -0.208 -0.169c -0.273 -0.845 -0.702 -1.521 -1.287 -2.002c -0.741 -0.611 -1.521 -0.923 -2.327 -0.923c -1.56 0 -2.47 1.053 -2.47 2.613Z "/></symbol><symbol id="gB520C4FDFB2403295A40FD77402E9185" overflow="visible"><path d="M 0 0m 6.9524 6.1789c -0.1729 0 -0.7644 0.0364 -0.9373 0.0364c -0.1456 0 -0.2184 -0.0819 -0.2184 -0.2366c 0 -0.1001 0.0637 -0.1547 0.2002 -0.1638c 0.2275 -0.0091 0.3367 -0.0819 0.3367 -0.2184c 0 -0.0728 -0.0546 -0.1911 -0.1547 -0.3458l -2.912 -4.277l -0.8008 4.5136c -0.0091 0.0637 -0.0182 0.1001 -0.0182 0.1274c 0 0.1365 0.1729 0.2002 0.5278 0.2002c 0.1911 0 0.3094 0.0455 0.3094 0.2366v 0.0364c -0.0182 0.0819 -0.0819 0.1274 -0.1911 0.1274c -0.2093 0 -0.9464 -0.0364 -1.1557 -0.0364c -0.1911 0 -0.8099 0.0364 -1.001 0.0364c -0.1456 0 -0.2184 -0.0819 -0.2184 -0.2366c 0 -0.1092 0.091 -0.1638 0.2639 -0.1638c 0.3913 0 0.4732 0.0273 0.5187 -0.2548l 0.9828 -5.4691c 0.0273 -0.182 0.1183 -0.273 0.2548 -0.273c 0.1274 0 0.2366 0.0728 0.3367 0.2093l 3.4398 5.0596c 0.3094 0.455 0.6734 0.7007 1.0829 0.7371c 0.1638 0.0091 0.2366 0.0728 0.2366 0.2275c 0 0.1092 -0.0546 0.1638 -0.1638 0.1638c -0.1274 0 -0.5915 -0.0364 -0.7189 -0.0364Z "/></symbol><symbol id="g1EC01C5368D684131831F3BFC5D2F1C1" overflow="visible"><path d="M 0 0m 9.867 0c 0.221 0 0.338 0.052 0.338 0.169l -4.42 8.879c -0.091 0.169 -0.208 0.26 -0.377 0.26c -0.169 0 -0.286 -0.091 -0.377 -0.26l -4.355 -8.723c -0.039 -0.091 -0.065 -0.143 -0.065 -0.169c 0 -0.104 0.117 -0.156 0.338 -0.156Z m -4.875 7.852l 3.38 -6.773h -6.76Z "/></symbol><symbol id="g7E29B44545B22BEB1272A6678F5B7C8B" overflow="visible"><path d="M 0 0m 2.171 5.122c -0.078 -0.078 -0.13 -0.052 -0.13 0.065v 2.392c 0 0.845 0.052 1.365 0.052 1.365c 0 0.091 -0.052 0.13 -0.169 0.13c -0.325 -0.13 -1.3 -0.312 -1.82 -0.351c -0.026 -0.104 0 -0.312 0.078 -0.39c 0.039 0 0.078 0 0.117 0c 0.572 -0.039 0.715 -0.039 0.715 -1.066v -6.344c 0 -0.507 -0.013 -0.741 -0.052 -0.923c 0.065 -0.104 0.13 -0.156 0.286 -0.156c 0.078 0.078 0.208 0.195 0.312 0.312c 0.13 0.156 0.208 0.156 0.351 0.039c 0.299 -0.247 0.689 -0.325 1.144 -0.325c 1.326 0 2.873 1.209 2.873 3.276c 0 1.586 -1.17 2.561 -2.301 2.561c -0.559 0 -1.053 -0.221 -1.456 -0.585Z m 0.091 -0.403c 0.338 0.299 0.728 0.416 1.105 0.416c 0.793 0 1.443 -0.962 1.443 -2.223c 0 -1.482 -0.598 -2.6 -1.833 -2.6c -0.403 0 -0.676 0.286 -0.936 0.611v 3.25c 0 0.273 0.052 0.403 0.221 0.546Z "/></symbol><symbol id="gF6C889BC8005961D1D2093A19F48428E" overflow="visible"><path d="M 0 0m 3.809 0.624c 0.078 -0.403 0.221 -0.754 0.871 -0.754c 0.494 0 0.962 0.221 1.235 0.481c -0.026 0.156 -0.078 0.273 -0.221 0.351c -0.091 -0.078 -0.312 -0.208 -0.481 -0.208c -0.377 0 -0.39 0.507 -0.39 1.105v 1.911c 0 1.846 -1.014 2.197 -1.963 2.197c -1.066 0 -2.145 -0.702 -2.145 -1.443c 0 -0.312 0.156 -0.468 0.455 -0.468c 0.377 0 0.611 0.273 0.611 0.442c 0 0.091 -0.013 0.182 -0.039 0.234c -0.013 0.039 -0.026 0.117 -0.026 0.26c 0 0.403 0.546 0.546 1.04 0.546c 0.442 0 1.053 -0.221 1.053 -1.69c 0 -0.091 -0.039 -0.143 -0.078 -0.156l -1.118 -0.273c -1.248 -0.312 -2.145 -1.001 -2.145 -1.885c 0 -1.066 0.728 -1.404 1.638 -1.404c 0.455 0 0.845 0.104 1.417 0.546l 0.26 0.208Z m 0 2.405v -1.716c 0 -0.169 -0.078 -0.26 -0.182 -0.338c -0.338 -0.273 -0.78 -0.572 -1.144 -0.572c -0.65 0 -0.936 0.52 -0.936 0.923c 0 0.585 0.273 1.183 1.235 1.43Z m -0.637 5.694l -0.988 -1.547c -0.104 -0.169 -0.143 -0.221 -0.143 -0.364c 0 -0.091 0.091 -0.169 0.182 -0.169c 0.091 0 0.195 0.052 0.39 0.247l 1.495 1.417l -0.039 0.143c -0.299 0.286 -0.637 0.299 -0.715 0.299c -0.065 0 -0.143 -0.013 -0.182 -0.026Z "/></symbol><symbol id="gAF39B06637020F254AB7B881282CA7F5" overflow="visible"><path d="M 0 0m 4.615 5.746c -0.572 0 -1.118 -0.299 -1.651 -0.897c -0.143 0.598 -0.546 0.897 -1.183 0.897c -0.533 0 -0.923 -0.429 -1.196 -1.274c -0.13 -0.429 -0.195 -0.676 -0.195 -0.754c 0 -0.117 0.065 -0.182 0.208 -0.182c 0.065 0 0.104 0.013 0.143 0.039c 0.065 0.117 0.104 0.208 0.117 0.299c 0.234 0.988 0.533 1.482 0.884 1.482c 0.234 0 0.351 -0.182 0.351 -0.533c 0 -0.195 -0.026 -0.416 -0.091 -0.65l -1.43 -5.707c -0.117 -0.429 -0.13 -0.481 -0.637 -0.481c -0.234 0 -0.351 -0.104 -0.351 -0.299c 0 -0.143 0.078 -0.208 0.221 -0.208c 0.195 0 0.871 0.039 1.066 0.039c 0.247 0 1.027 -0.039 1.274 -0.039c 0.195 0 0.286 0.104 0.286 0.312c 0 0.13 -0.117 0.195 -0.364 0.195c -0.234 0 -0.585 -0.013 -0.585 0.143c 0 0.169 0.533 2.21 0.585 2.431c 0.26 -0.481 0.65 -0.728 1.17 -0.728c 0.845 0 1.586 0.429 2.236 1.3c 0.598 0.793 0.897 1.638 0.897 2.509c 0 1.131 -0.676 2.106 -1.755 2.106Z m -0.039 -0.39c 0.507 0 0.767 -0.39 0.767 -1.157c 0 -0.351 -0.078 -0.819 -0.221 -1.404c -0.299 -1.131 -0.676 -1.872 -1.131 -2.249c -0.273 -0.221 -0.52 -0.338 -0.767 -0.338c -0.377 0 -0.637 0.169 -0.78 0.52c -0.117 0.273 -0.182 0.468 -0.182 0.572l 0.663 2.717c 0.065 0.286 0.299 0.585 0.663 0.884c 0.364 0.299 0.689 0.455 0.988 0.455Z "/></symbol><symbol id="gDE2B0DCD42F709297493CB2FA2EBD985" overflow="visible"><path d="M 0 0m 3.6855 4.0131c -0.4459 0 -0.8645 -0.2002 -1.2558 -0.6006c -0.1365 0.4004 -0.455 0.6006 -0.9373 0.6006c -0.4277 0 -0.7462 -0.3367 -0.9646 -1.0192c -0.0728 -0.2184 -0.1092 -0.3458 -0.1092 -0.3913c 0 -0.1001 0.0637 -0.1547 0.1911 -0.1547c 0.182 0 0.1911 0.1001 0.2366 0.3003c 0.1547 0.6279 0.3549 0.9373 0.6188 0.9373c 0.1729 0 0.2548 -0.1365 0.2548 -0.4004c 0 -0.1001 -0.0091 -0.1911 -0.0273 -0.2639l -1.0192 -4.095c -0.0637 -0.2548 -0.0819 -0.3003 -0.4004 -0.3003c -0.1911 0 -0.2821 -0.0546 -0.2821 -0.2184c 0 -0.1183 0.0546 -0.1729 0.1638 -0.1729c 0.1456 0 0.6188 0.0364 0.7735 0.0364c 0.1729 0 0.7644 -0.0364 0.9373 -0.0364c 0.1456 0 0.2184 0.0819 0.2184 0.2366c 0 0.1001 -0.091 0.1547 -0.273 0.1547c -0.2639 0 -0.4004 0.0273 -0.4004 0.0728c 0 0.0091 0.0091 0.0546 0.0273 0.1183l 0.3822 1.547c 0.2093 -0.3185 0.5187 -0.4732 0.91 -0.4732c 0.6188 0 1.1648 0.2821 1.6471 0.8372c 0.4641 0.5369 0.6916 1.1193 0.6916 1.7472c 0 0.8463 -0.5278 1.5379 -1.3832 1.5379Z m -0.0273 -0.3276c 0.4095 0 0.6188 -0.273 0.6188 -0.8281c 0 -0.5187 -0.273 -1.4378 -0.455 -1.7927c -0.182 -0.3731 -0.6097 -0.8554 -1.092 -0.8554c -0.182 0 -0.3367 0.0546 -0.4641 0.1729c -0.2002 0.1911 -0.3003 0.3822 -0.3003 0.5733c 0 0.0182 0.0091 0.0637 0.0273 0.1274l 0.4459 1.8018c 0.4004 0.5369 0.8099 0.8008 1.2194 0.8008Z "/></symbol><symbol id="g2381F6852ADEE3D7D18DC8F3ED2DB1AF" overflow="visible"><path d="M 0 0m 2.015 1.027l 0.715 1.885c 0.065 0.169 0.143 0.221 0.455 0.221h 2.743l 0.754 -2.197c 0.156 -0.442 -0.338 -0.494 -0.962 -0.533c -0.078 -0.078 -0.078 -0.351 0 -0.429c 0.481 0.013 1.196 0.026 1.703 0.026c 0.533 0 1.027 -0.013 1.482 -0.026c 0.078 0.078 0.078 0.351 0 0.429c -0.507 0.052 -0.949 0.091 -1.17 0.715l -2.678 7.436c -0.195 -0.117 -0.546 -0.26 -0.715 -0.26l -2.951 -6.968c -0.338 -0.806 -0.728 -0.884 -1.3 -0.923c -0.078 -0.078 -0.078 -0.351 0 -0.429c 0.338 0.013 0.767 0.026 1.157 0.026c 0.533 0 1.183 -0.013 1.664 -0.026c 0.078 0.078 0.078 0.351 0 0.429c -0.494 0.039 -1.105 0.091 -0.897 0.624Z m 1.404 2.652c -0.286 0 -0.377 0.039 -0.325 0.169l 1.326 3.367h 0.078l 1.222 -3.536Z "/></symbol><symbol id="g8F48726E4FA2E83CD0FC211C30111D2D" overflow="visible"><path d="M 0 0m 4.342 0.65c 0.065 0.052 0.182 0.078 0.195 -0.013c 0.039 -0.312 0.143 -0.767 0.143 -0.767c 0.104 -0.039 0.169 -0.026 0.247 0c 0.286 0.234 0.741 0.429 1.534 0.52c 0.078 0.078 0.078 0.273 0 0.351c -0.832 0.065 -0.949 0.312 -0.949 0.949v 5.889c 0 0.845 0.052 1.365 0.052 1.365c 0 0.091 -0.052 0.13 -0.169 0.13c -0.325 -0.13 -1.3 -0.312 -1.82 -0.351c -0.026 -0.104 0 -0.312 0.078 -0.39c 0.039 0 0.078 0 0.117 0c 0.572 -0.039 0.715 -0.039 0.715 -1.066v -1.664c 0 -0.091 -0.026 -0.117 -0.117 -0.117c -0.052 0 -0.585 0.221 -1.014 0.221c -0.858 0 -1.43 -0.286 -1.95 -0.78c -0.559 -0.559 -0.897 -1.326 -0.897 -2.288c 0 -1.599 0.806 -2.769 2.21 -2.769c 0.507 0 0.988 0.26 1.625 0.78Z m 0.143 0.962c 0 -0.247 -0.026 -0.351 -0.208 -0.507c -0.481 -0.416 -0.897 -0.624 -1.222 -0.624c -0.702 0 -1.43 0.767 -1.43 2.392c 0 0.936 0.182 1.456 0.377 1.729c 0.403 0.611 0.949 0.65 1.209 0.65c 0.468 0 0.793 -0.169 1.053 -0.468c 0.182 -0.208 0.221 -0.299 0.221 -0.702Z "/></symbol><symbol id="gDDE822408A43A382ED0207F263DCEA38" overflow="visible"><path d="M 0 0m 3.809 0.624c 0.078 -0.403 0.221 -0.754 0.871 -0.754c 0.494 0 0.962 0.221 1.235 0.481c -0.026 0.156 -0.078 0.273 -0.221 0.351c -0.091 -0.078 -0.312 -0.208 -0.481 -0.208c -0.377 0 -0.39 0.507 -0.39 1.105v 1.911c 0 1.846 -1.014 2.197 -1.963 2.197c -1.066 0 -2.145 -0.702 -2.145 -1.443c 0 -0.312 0.156 -0.468 0.455 -0.468c 0.377 0 0.611 0.273 0.611 0.442c 0 0.091 -0.013 0.182 -0.039 0.234c -0.013 0.039 -0.026 0.117 -0.026 0.26c 0 0.403 0.546 0.546 1.04 0.546c 0.442 0 1.053 -0.221 1.053 -1.69c 0 -0.091 -0.039 -0.143 -0.078 -0.156l -1.118 -0.273c -1.248 -0.312 -2.145 -1.001 -2.145 -1.885c 0 -1.066 0.728 -1.404 1.638 -1.404c 0.455 0 0.845 0.104 1.417 0.546l 0.26 0.208Z m 0 2.405v -1.716c 0 -0.169 -0.078 -0.26 -0.182 -0.338c -0.338 -0.273 -0.78 -0.572 -1.144 -0.572c -0.65 0 -0.936 0.52 -0.936 0.923c 0 0.585 0.273 1.183 1.235 1.43Z "/></symbol></defs></svg>