<svg viewBox="0 0 154.978344444 39" width="154.978344444pt" height="39pt" xmlns="http://www.w3.org/2000/svg" xmlns:xlink="http://www.w3.org/1999/xlink" xmlns:h5="http://www.w3.org/1999/xhtml"><g transform="matrix(1 0 0 -1 6.5 22.75)"><use xlink:href="#gCC416E75927AD0A8099D8AB0ED7855DE" x="0" y="0" fill="#e6edf3" fill-rule="nonzero"/></g><g transform="matrix(1 0 0 -1 16.354 19.721)"><use xlink:href="#g37D7AF847EB8D066970F2B84C26D7F75" x="0" y="0" fill="#e6edf3" fill-rule="nonzero"/></g><g transform="matrix(1 0 0 -1 16.367 25.961)"><use xlink:href="#g56CA2213A637A1EBD48C3733E7CBD1B8" x="0" y="0" fill="#e6edf3" fill-rule="nonzero"/><use xlink:href="#g733BC00FCAC4D4817C0648C06C143A7E" x="3.5854" y="0" fill="#e6edf3" fill-rule="nonzero"/><use xlink:href="#g48B3ED1BE8E5B4ABFD539FA8F671E63F" x="8.1354" y="0" fill="#e6edf3" fill-rule="nonzero"/><use xlink:href="#g6F1B2EC7690C574873AE01D06ED173C6" x="10.6652" y="0" fill="#e6edf3" fill-rule="nonzero"/><use xlink:href="#g689CD2C8CC31657A53FE374FF94F6738" x="14.7056" y="0" fill="#e6edf3" fill-rule="nonzero"/><use xlink:href="#g733BC00FCAC4D4817C0648C06C143A7E" x="19.7652" y="0" fill="#e6edf3" fill-rule="nonzero"/><use xlink:href="#g402F9925856942787E59D257DA93AD2E" x="24.3152" y="0" fill="#e6edf3" fill-rule="nonzero"/><use xlink:href="#g9BBD495599649835EB769190150DF525" x="26.845" y="0" fill="#e6edf3" fill-rule="nonzero"/><use xlink:href="#g6F1B2EC7690C574873AE01D06ED173C6" x="31.9046" y="0" fill="#e6edf3" fill-rule="nonzero"/></g><g transform="matrix(1 0 0 -1 56.651111111 22.75)"><use xlink:href="#g13AFF74D87C474CFAF661EEAD0458F8B" x="0" y="0" fill="#e6edf3" fill-rule="nonzero"/></g><g transform="matrix(1 0 0 -1 70.376222222 22.75)"><use xlink:href="#g54D13866AEE4B213997C37480AEFE31F" x="0" y="0" fill="#e6edf3" fill-rule="nonzero"/></g><g transform="matrix(1 0 0 -1 80.126222222 14.8915)"><use xlink:href="#gA32CAC846971E9468FADD933D647D41A" x="0" y="0" fill="#e6edf3" fill-rule="nonzero"/></g><g transform="matrix(1 0 0 -1 87.965222222 18.1025)"><use xlink:href="#g66C287F757172C4FBEE46C9B113A6E1F" x="0" y="0" fill="#e6edf3" fill-rule="nonzero"/></g><g transform="matrix(1 0 0 -1 93.871122222 14.8915)"><use xlink:href="#g5AAD6B38658AAA3198C014B3B7995D3E" x="0" y="0" fill="#e6edf3" fill-rule="nonzero"/></g><g transform="matrix(1 0 0 -1 101.671122222 14.8915)"><use xlink:href="#g115DED64194A3B9D1CA25A004CD4734D" x="0" y="0" fill="#e6edf3" fill-rule="nonzero"/></g><g transform="matrix(1 0 0 -1 108.496122222 14.8915)"><use xlink:href="#gB7560AD8DFDE075CC650DFC2ACE08502" x="0" y="0" fill="#e6edf3" fill-rule="nonzero"/></g><g transform="matrix(1 0 0 -1 109.614122222 14.8915)"><use xlink:href="#g5B90E9196699B0DF3EE96BEA297F231B" x="0" y="0" fill="#e6edf3" fill-rule="nonzero"/></g><g transform="matrix(1 0 0 -1 114.931122222 14.8915)"><use xlink:href="#gF5FB9F3934311C9D089606536CC9B01A" x="0" y="0" fill="#e6edf3" fill-rule="nonzero"/></g><g transform="matrix(1 0 0 -1 124.574233333 14.8915)"><use xlink:href="#g3CDB071E19D0E5A44EA9C23D26C7531F" x="0" y="0" fill="#e6edf3" fill-rule="nonzero"/></g><g transform="matrix(1 0 0 -1 138.299344444 14.8915)"><use xlink:href="#g64EED7C1DC5EF9C242224A119317485D" x="0" y="0" fill="#e6edf3" fill-rule="nonzero"/></g><g transform="matrix(1 0 0 -1 80.126222222 30.6085)"><use xlink:href="#g4C291E187DD5794F9B556D2620986782" x="0" y="0" fill="#e6edf3" fill-rule="nonzero"/></g><g transform="matrix(1 0 0 -1 114.931122222 30.6085)"><use xlink:href="#gF5FB9F3934311C9D089606536CC9B01A" x="0" y="0" fill="#e6edf3" fill-rule="nonzero"/></g><g transform="matrix(1 0 0 -1 124.574233333 30.6085)"><use xlink:href="#g3A04ED2BED26798A89A96732901846A4" x="0" y="0" fill="#e6edf3" fill-rule="nonzero"/></g><g transform="matrix(1 0 0 -1 138.299344444 30.6085)"><use xlink:href="#g64EED7C1DC5EF9C242224A119317485D" x="0" y="0" fill="#e6edf3" fill-rule="nonzero"/></g><defs><symbol id="gCC416E75927AD0A8099D8AB0ED7855DE" overflow="visible"><path d="M 0 0m 9.828 7.059c 0 1.183 -1.17 1.82 -2.444 1.82h -4.316c -0.299 0 -0.429 -0.013 -0.429 -0.312c 0 -0.208 0.26 -0.195 0.416 -0.195c 0.39 -0.013 0.624 -0.039 0.689 -0.052c 0.065 -0.013 0.091 -0.052 0.091 -0.117c 0 -0.026 -0.013 -0.104 -0.052 -0.234l -1.716 -6.903c -0.065 -0.286 -0.195 -0.455 -0.39 -0.52c -0.091 -0.026 -0.325 -0.039 -0.728 -0.039c -0.273 0 -0.403 -0.104 -0.403 -0.312c 0 -0.13 0.13 -0.195 0.403 -0.195h 4.589c 0.845 0 1.625 0.26 2.366 0.767c 0.819 0.559 1.235 1.248 1.235 2.054c 0 1.027 -0.845 1.651 -1.768 1.833c 1.144 0.273 2.457 1.144 2.457 2.405Z m -2.626 1.313c 0.897 0 1.352 -0.416 1.352 -1.261c 0 -0.663 -0.26 -1.209 -0.806 -1.651c -0.546 -0.442 -1.157 -0.65 -1.82 -0.65h -1.807l 0.78 3.12c 0.104 0.442 0.104 0.442 0.65 0.442Z m 0.364 -4.485c 0.182 -0.299 0.273 -0.598 0.273 -0.923c 0 -0.676 -0.26 -1.261 -0.793 -1.742c -0.533 -0.481 -1.131 -0.715 -1.82 -0.715h -1.755c -0.13 0 -0.221 0 -0.273 0.013c -0.078 0 -0.117 0.026 -0.117 0.065c 0 0.013 0 0.052 0.013 0.104c 0.403 1.651 0.715 2.899 0.923 3.731h 2.392c 0.559 0 0.936 -0.182 1.157 -0.533Z "/></symbol><symbol id="g37D7AF847EB8D066970F2B84C26D7F75" overflow="visible"><path d="M 0 0m -0.897 7.787c 0.117 0.039 0.169 0.104 0.169 0.221c 0 0.117 -0.052 0.182 -0.169 0.221c -0.468 0.156 -0.806 0.442 -1.014 0.871c -0.039 0.091 -0.117 0.143 -0.208 0.143c -0.169 0 -0.247 -0.078 -0.247 -0.234c 0 -0.195 0.169 -0.455 0.507 -0.767h -4.03c -0.169 0 -0.247 -0.078 -0.247 -0.234c 0 -0.156 0.078 -0.234 0.247 -0.234h 4.03c -0.338 -0.312 -0.507 -0.572 -0.507 -0.767c 0 -0.156 0.078 -0.234 0.247 -0.234c 0.091 0 0.169 0.052 0.208 0.143c 0.208 0.429 0.546 0.715 1.014 0.871Z "/></symbol><symbol id="g56CA2213A637A1EBD48C3733E7CBD1B8" overflow="visible"><path d="M 0 0m 3.276 1.183c 0 0.6916 -0.4732 1.1284 -1.4105 1.3104c -0.4277 0.0819 -0.7007 0.182 -0.8463 0.2821c -0.1456 0.1001 -0.2184 0.2457 -0.2184 0.4186c 0 0.4277 0.3185 0.637 0.9555 0.637c 0.6188 0 0.9555 -0.3458 1.001 -1.0465c 0.0091 -0.0728 0.0546 -0.1092 0.1456 -0.1092c 0.1001 0 0.1547 0.0819 0.1547 0.2457v 0.9009c 0 0.1729 -0.0455 0.2548 -0.1365 0.2548c -0.1001 0 -0.2366 -0.1638 -0.3276 -0.2366c -0.2275 0.1547 -0.5096 0.2366 -0.8372 0.2366c -0.8099 0 -1.456 -0.364 -1.456 -1.1375c 0 -0.3094 0.1274 -0.5733 0.3913 -0.7826c 0.3185 -0.2639 0.6188 -0.3185 1.1921 -0.4186c 0.5915 -0.1183 0.8918 -0.3822 0.8918 -0.7917c 0 -0.5187 -0.3185 -0.7826 -0.9646 -0.7826c -0.6279 0 -1.0283 0.4186 -1.2012 1.2467c -0.0273 0.1183 -0.0728 0.182 -0.1547 0.182c -0.1001 0 -0.1547 -0.091 -0.1547 -0.2639v -1.1739c 0 -0.1729 0.0455 -0.2548 0.1365 -0.2548c 0.0273 0 0.0728 0.0273 0.1456 0.091c 0.1638 0.1456 0.091 0.1183 0.2548 0.2821c 0.2639 -0.2457 0.5915 -0.3731 0.9737 -0.3731c 0.8645 0 1.4651 0.4459 1.4651 1.2831Z "/></symbol><symbol id="g733BC00FCAC4D4817C0648C06C143A7E" overflow="visible"><path d="M 0 0m 2.2659 -0.1001c 0.5642 0 1.0374 0.2002 1.4287 0.6006c 0.3913 0.4004 0.5915 0.8827 0.5915 1.4469c 0 0.5733 -0.1911 1.0738 -0.5733 1.4924c -0.3822 0.4186 -0.8645 0.637 -1.4378 0.637c -0.5733 0 -1.0465 -0.2184 -1.4378 -0.637c -0.3913 -0.4186 -0.5824 -0.9191 -0.5824 -1.4924c 0 -0.5642 0.1911 -1.0465 0.5824 -1.4469c 0.3913 -0.4004 0.8736 -0.6006 1.4287 -0.6006Z m 0.0091 0.2912c -0.4368 0 -0.7644 0.1911 -0.9919 0.5824c -0.1456 0.2548 -0.2184 0.6734 -0.2184 1.2467c 0 0.5551 0.0728 0.9555 0.2093 1.2103c 0.2184 0.3913 0.546 0.5824 0.9919 0.5824c 0.4277 0 0.7553 -0.1911 0.9828 -0.5642c 0.1547 -0.2548 0.2275 -0.6643 0.2275 -1.2285c 0 -1.0556 -0.3094 -1.8291 -1.2012 -1.8291Z "/></symbol><symbol id="g48B3ED1BE8E5B4ABFD539FA8F671E63F" overflow="visible"><path d="M 0 0m 1.3104 0.0273l 1.0101 -0.0273v 0.3549c -0.3276 0 -0.5278 0.0091 -0.5915 0.0455c -0.0637 0.0364 -0.091 0.1456 -0.091 0.3185v 5.5965l -1.3377 -0.1001v -0.3458c 0.3185 0 0.5187 -0.0273 0.5824 -0.0819c 0.0637 -0.0546 0.1001 -0.182 0.1001 -0.3913v -4.6774c 0 -0.1729 -0.0273 -0.2821 -0.091 -0.3185c -0.0637 -0.0364 -0.2639 -0.0455 -0.5915 -0.0455v -0.3549Z "/></symbol><symbol id="g6F1B2EC7690C574873AE01D06ED173C6" overflow="visible"><path d="M 0 0m 3.7765 2.2841c 0 1.0465 -0.6097 1.7927 -1.6289 1.7927c -0.546 0 -1.001 -0.2093 -1.3741 -0.637c -0.3458 -0.4004 -0.5187 -0.8827 -0.5187 -1.4378c 0 -0.5733 0.1911 -1.0556 0.5733 -1.4742c 0.3822 -0.4186 0.8554 -0.6279 1.4196 -0.6279c 0.5187 0 0.9191 0.182 1.1921 0.5369c 0.2275 0.3003 0.3367 0.5187 0.3367 0.6643c 0 0.091 -0.0546 0.1365 -0.1547 0.1365c -0.0728 0 -0.1183 -0.0455 -0.1456 -0.1456c -0.2002 -0.6006 -0.5915 -0.9009 -1.1739 -0.9009c -0.4095 0 -0.728 0.1911 -0.9737 0.5824c -0.1729 0.2821 -0.2548 0.7098 -0.2639 1.2922h 2.457c 0.2002 0 0.2548 0.0182 0.2548 0.2184Z m -0.8099 0.8918c 0.1001 -0.3003 0.1456 -0.5915 0.1456 -0.8554h -2.0384c 0.0273 0.6006 0.182 1.0101 0.455 1.2194c 0.2275 0.182 0.4277 0.273 0.6188 0.273c 0.4095 0 0.6825 -0.2093 0.819 -0.637Z "/></symbol><symbol id="g689CD2C8CC31657A53FE374FF94F6738" overflow="visible"><path d="M 0 0m 2.8574 3.7583c 0.4095 0 0.6188 -0.3185 0.6188 -0.9646v -2.0748c 0 -0.1729 -0.0273 -0.2821 -0.091 -0.3185c -0.0637 -0.0364 -0.2639 -0.0546 -0.6006 -0.0546v -0.3458l 1.0465 0.0273l 1.0374 -0.0273v 0.3458c -0.2912 0 -0.4823 0.0091 -0.5733 0.0364c -0.091 0.0273 -0.1274 0.091 -0.1274 0.2002v 1.7017c 0 0.4277 -0.0091 0.728 -0.0364 0.9009c -0.091 0.5551 -0.5005 0.8372 -1.2194 0.8372c -0.5733 0 -1.001 -0.273 -1.2831 -0.819v 0.819l -1.3377 -0.1001v -0.3458c 0.3276 0 0.5278 -0.0273 0.6006 -0.0819c 0.0728 -0.0546 0.1001 -0.1729 0.1001 -0.3822v -2.3933c 0 -0.1729 -0.0364 -0.2821 -0.1001 -0.3185c -0.0637 -0.0364 -0.2639 -0.0546 -0.6006 -0.0546v -0.3458l 1.0465 0.0273l 1.0374 -0.0273v 0.3458c -0.3367 0 -0.5278 0.0182 -0.5915 0.0546c -0.0637 0.0364 -0.1001 0.1456 -0.1001 0.3185v 1.638c 0 0.7371 0.4641 1.4014 1.1739 1.4014Z "/></symbol><symbol id="g402F9925856942787E59D257DA93AD2E" overflow="visible"><path d="M 0 0m 1.7654 5.4691c 0 0.273 -0.2275 0.5096 -0.5005 0.5096c -0.273 0 -0.5096 -0.2366 -0.5096 -0.5096c 0 -0.273 0.2275 -0.5187 0.5005 -0.5187c 0.2821 0 0.5096 0.2366 0.5096 0.5187Z m -0.4641 -5.4418l 0.9464 -0.0273v 0.3549c -0.3003 0 -0.4823 0.0182 -0.5369 0.0546c -0.0546 0.0364 -0.0728 0.1365 -0.0728 0.3003v 3.3397l -1.3013 -0.1092v -0.3458c 0.3003 0 0.4914 -0.0273 0.5551 -0.0728c 0.0637 -0.0455 0.091 -0.1729 0.091 -0.3822v -2.4206c 0 -0.1729 -0.0273 -0.2821 -0.091 -0.3185c -0.0637 -0.0364 -0.2639 -0.0455 -0.5915 -0.0455v -0.3549Z "/></symbol><symbol id="g9BBD495599649835EB769190150DF525" overflow="visible"><path d="M 0 0m 3.4034 -0.1001l 1.3923 0.1001v 0.3458c -0.3276 0 -0.5187 0.0182 -0.5915 0.0728c -0.0728 0.0546 -0.1092 0.1911 -0.1092 0.4004v 5.4964l -1.3559 -0.1001v -0.3458c 0.3185 0 0.5187 -0.0273 0.5915 -0.0819c 0.0728 -0.0546 0.1001 -0.182 0.1001 -0.3913v -1.8473c -0.2912 0.3367 -0.6552 0.5005 -1.092 0.5005c -0.5642 0 -1.0465 -0.2002 -1.4378 -0.6097c -0.3913 -0.4095 -0.5915 -0.9009 -0.5915 -1.4742c 0 -0.5551 0.182 -1.0374 0.5551 -1.4469c 0.3731 -0.4095 0.8281 -0.6188 1.3832 -0.6188c 0.4641 0 0.8554 0.1729 1.1557 0.5278Z m -1.0283 3.8766c 0.3913 0 0.7098 -0.1729 0.9373 -0.5187c 0.0637 -0.1001 0.091 -0.2002 0.091 -0.3185v -1.8382c 0 -0.1183 -0.0273 -0.2184 -0.091 -0.3185c -0.2548 -0.4095 -0.6006 -0.6097 -1.0283 -0.6097c -0.3731 0 -0.6734 0.182 -0.91 0.5551c -0.1638 0.273 -0.2457 0.6825 -0.2457 1.2285c 0 0.9919 0.3367 1.82 1.2467 1.82Z "/></symbol><symbol id="g13AFF74D87C474CFAF661EEAD0458F8B" overflow="visible"><path d="M 0 0m 9.074 4.771h -8.034c -0.208 0 -0.312 -0.104 -0.312 -0.299c 0 -0.195 0.104 -0.299 0.312 -0.299h 8.034c 0.208 0 0.312 0.104 0.312 0.299c 0 0.156 -0.143 0.299 -0.312 0.299Z m 0 -2.444h -8.034c -0.208 0 -0.312 -0.104 -0.312 -0.299c 0 -0.195 0.104 -0.299 0.312 -0.299h 8.034c 0.208 0 0.312 0.104 0.312 0.299c 0 0.169 -0.143 0.299 -0.312 0.299Z "/></symbol><symbol id="g54D13866AEE4B213997C37480AEFE31F" overflow="visible"><path d="M 0 0m 2.561 3.25c 1.339 0.65 2.964 2.119 2.964 3.887v 7.774c 0 0.702 0.273 1.378 0.832 2.028c 0.52 0.611 1.131 1.027 1.82 1.248c 0.169 0.052 0.247 0.156 0.247 0.325c 0 0.221 -0.117 0.338 -0.338 0.338c -0.039 0 -0.065 0 -0.091 -0.013c -0.936 -0.299 -1.768 -0.78 -2.496 -1.443c -0.845 -0.793 -1.274 -1.612 -1.274 -2.483v -7.774c 0 -0.767 -0.26 -1.495 -0.78 -2.184c -0.52 -0.689 -1.144 -1.157 -1.872 -1.378c -0.169 -0.052 -0.247 -0.156 -0.247 -0.325c 0 -0.169 0.078 -0.273 0.247 -0.325c 0.728 -0.221 1.352 -0.689 1.872 -1.378c 0.52 -0.689 0.78 -1.417 0.78 -2.184v -7.774c 0 -0.871 0.429 -1.69 1.274 -2.483c 0.728 -0.663 1.56 -1.144 2.496 -1.443c 0.026 -0.013 0.052 -0.013 0.091 -0.013c 0.221 0 0.338 0.117 0.338 0.338c 0 0.169 -0.078 0.273 -0.247 0.325c -0.689 0.221 -1.3 0.637 -1.82 1.248c -0.559 0.65 -0.832 1.326 -0.832 2.028v 7.774c 0 1.768 -1.625 3.237 -2.964 3.887Z "/></symbol><symbol id="gA32CAC846971E9468FADD933D647D41A" overflow="visible"><path d="M 0 0m 7.436 1.846c 0 0.117 -0.065 0.182 -0.208 0.182c -0.104 0 -0.182 -0.091 -0.221 -0.26c -0.26 -1.04 -0.572 -1.56 -0.923 -1.56c -0.221 0 -0.338 0.182 -0.338 0.546c 0 0.221 0.078 0.663 0.247 1.313l 0.364 1.391c 0.117 0.468 0.221 0.793 0.299 1.196l 0.078 0.364c 0.026 0.091 0.039 0.156 0.039 0.182c 0 0.273 -0.143 0.403 -0.429 0.403c -0.286 0 -0.468 -0.156 -0.546 -0.481l -0.936 -3.718c 0 -0.143 -0.208 -0.403 -0.624 -0.793c -0.286 -0.273 -0.611 -0.403 -0.988 -0.403c -0.598 0 -0.897 0.351 -0.897 1.066c 0 0.247 0.052 0.598 0.169 1.079l 0.546 2.158c 0.104 0.403 0.169 0.689 0.195 0.832c 0 0.273 -0.143 0.403 -0.429 0.403c -0.286 0 -0.468 -0.169 -0.559 -0.507l -1.846 -7.436c -0.026 -0.104 -0.039 -0.169 -0.039 -0.208c 0 -0.273 0.143 -0.403 0.416 -0.403c 0.195 0 0.351 0.104 0.494 0.299c 0.039 0.091 0.26 0.988 0.689 2.691c 0.312 -0.234 0.715 -0.351 1.209 -0.351c 0.767 0 1.274 0.403 1.677 0.871c 0.143 -0.481 0.572 -0.871 1.183 -0.871c 0.897 0 1.17 1.053 1.378 2.015Z "/></symbol><symbol id="g66C287F757172C4FBEE46C9B113A6E1F" overflow="visible"><path d="M 0 0m 4.6956 2.9029c 0 1.0283 -0.182 1.8109 -0.5369 2.3478c -0.2912 0.455 -0.8736 0.7917 -1.5743 0.7917c -0.2912 0 -0.5551 -0.0455 -0.7826 -0.1456c -1.001 -0.4186 -1.3286 -1.5834 -1.3286 -2.9939c 0 -0.3094 0.0182 -0.6006 0.0455 -0.8827c 0.1547 -1.1921 0.7098 -2.2022 2.0657 -2.2022c 0.2912 0 0.5551 0.0455 0.7826 0.1456c 1.001 0.4095 1.3286 1.547 1.3286 2.9393Z m -1.0374 2.0202c 0.1001 -0.3367 0.1547 -0.9646 0.1547 -1.9019c 0 -0.8918 -0.0364 -1.5197 -0.1183 -1.8928c -0.1092 -0.5369 -0.4914 -0.9828 -1.1102 -0.9828c -0.2275 0 -0.455 0.0728 -0.6643 0.2275c -0.2821 0.2093 -0.455 0.6188 -0.5278 1.2467c -0.0273 0.2093 -0.0364 0.6734 -0.0364 1.4014c 0 0.8827 0.0455 1.4924 0.1365 1.82c 0.1547 0.5824 0.5187 0.8736 1.092 0.8736c 0.546 0 0.9464 -0.3549 1.0738 -0.7917Z "/></symbol><symbol id="g5AAD6B38658AAA3198C014B3B7995D3E" overflow="visible"><path d="M 0 0m 6.981 1.781c -0.299 -1.027 -0.728 -1.547 -1.261 -1.547c -0.169 0 -0.26 0.13 -0.26 0.377c 0 0.182 0.078 0.481 0.234 0.884c 0.52 1.417 0.78 2.353 0.78 2.834c 0 0.91 -0.611 1.417 -1.521 1.417c -0.767 0 -1.43 -0.338 -1.963 -1.027c -0.104 0.572 -0.559 1.027 -1.222 1.027c -0.728 0 -1.014 -0.676 -1.196 -1.261c -0.13 -0.416 -0.195 -0.663 -0.195 -0.754c 0 -0.117 0.065 -0.182 0.208 -0.182c 0.065 0 0.104 0.013 0.143 0.039c 0.065 0.117 0.104 0.208 0.117 0.299c 0.234 0.988 0.533 1.482 0.884 1.482c 0.234 0 0.351 -0.182 0.351 -0.546c 0 -0.169 -0.065 -0.52 -0.208 -1.053l -0.741 -2.951c -0.039 -0.169 -0.117 -0.507 -0.117 -0.572c 0 -0.26 0.143 -0.39 0.429 -0.39c 0.247 0 0.429 0.13 0.52 0.39c 0.026 0.065 0.104 0.39 0.247 0.949l 0.273 1.157l 0.39 1.482c 0.143 0.299 0.364 0.598 0.637 0.91c 0.377 0.416 0.845 0.624 1.404 0.624c 0.429 0 0.637 -0.286 0.637 -0.845c 0 -0.494 -0.273 -1.482 -0.832 -2.964c -0.091 -0.234 -0.13 -0.429 -0.13 -0.598c 0 -0.637 0.481 -1.105 1.105 -1.105c 0.572 0 1.027 0.325 1.352 0.975c 0.247 0.52 0.377 0.871 0.377 1.04c 0 0.117 -0.065 0.182 -0.208 0.182c -0.039 0 -0.234 -0.117 -0.234 -0.273Z "/></symbol><symbol id="g115DED64194A3B9D1CA25A004CD4734D" overflow="visible"><path d="M 0 0m 6.461 8.671c 0 0.143 -0.078 0.208 -0.247 0.208l -1.677 -0.039l -1.703 0.039c -0.208 0.013 -0.312 -0.091 -0.312 -0.312c 0 -0.13 0.143 -0.195 0.416 -0.195c 0.559 0 0.832 -0.065 0.832 -0.182c 0 -0.065 -0.013 -0.13 -0.026 -0.195l -1.729 -6.929c -0.065 -0.286 -0.195 -0.455 -0.39 -0.52c -0.091 -0.026 -0.325 -0.039 -0.728 -0.039c -0.325 0 -0.455 -0.013 -0.455 -0.312c 0 -0.13 0.078 -0.195 0.247 -0.195l 1.664 0.039l 1.716 -0.039c 0.208 -0.013 0.312 0.091 0.312 0.299c 0 0.208 -0.156 0.208 -0.442 0.208c -0.507 0 -0.819 -0.026 -0.819 0.182c 0 0.065 0.013 0.156 0.052 0.286l 1.716 6.851c 0.065 0.273 0.195 0.442 0.39 0.507c 0.091 0.026 0.325 0.039 0.728 0.039c 0.312 0 0.455 0.013 0.455 0.299Z "/></symbol><symbol id="gB7560AD8DFDE075CC650DFC2ACE08502" overflow="visible"><path d="M 0 0m 2.106 1.196l -0.221 -0.026c 0.624 0.611 1.105 1.053 1.43 1.352l 1.248 1.157c 0.299 0.273 0.611 0.611 0.91 0.988c 0.403 0.494 0.598 0.793 0.598 0.897c 0 0.117 -0.065 0.182 -0.195 0.182c -0.091 0 -0.169 -0.052 -0.234 -0.169c -0.325 -0.533 -0.624 -0.793 -0.91 -0.793c -0.286 0 -0.494 0.234 -0.611 0.39c -0.312 0.377 -0.624 0.572 -0.923 0.572c -0.338 0 -0.689 -0.156 -1.053 -0.494c -0.364 -0.338 -0.546 -0.676 -0.546 -1.014c 0 -0.13 0.065 -0.195 0.208 -0.195c 0.091 0 0.169 0.065 0.221 0.182c 0.143 0.377 0.494 0.559 1.027 0.559c 0.182 0 0.442 -0.065 0.793 -0.182c 0.312 -0.117 0.611 -0.182 0.884 -0.195c -0.728 -0.715 -1.287 -1.235 -1.69 -1.586l -1.157 -1.079c -0.195 -0.195 -0.442 -0.455 -0.715 -0.78c -0.403 -0.507 -0.611 -0.806 -0.611 -0.923c 0 -0.117 0.065 -0.182 0.208 -0.182c 0.078 0 0.156 0.065 0.247 0.195c 0.325 0.507 0.676 0.767 1.04 0.767c 0.208 0 0.442 -0.156 0.702 -0.481c 0.26 -0.325 0.559 -0.481 0.858 -0.481c 0.442 0 0.884 0.234 1.352 0.689c 0.468 0.455 0.702 0.897 0.702 1.326c 0 0.117 -0.065 0.182 -0.208 0.182c -0.091 0 -0.169 -0.065 -0.234 -0.195c -0.195 -0.559 -0.754 -1.04 -1.482 -1.04c -0.312 0 -1.326 0.377 -1.638 0.377Z "/></symbol><symbol id="g5B90E9196699B0DF3EE96BEA297F231B" overflow="visible"><path d="M 0 0m 5.018 6.695l 0.221 0.234l -1.989 2.093l -1.989 -2.093l 0.221 -0.234l 1.768 1.339Z "/></symbol><symbol id="gF5FB9F3934311C9D089606536CC9B01A" overflow="visible"><path d="M 0 0m 5.668 4.862c 0 0.546 -0.533 0.884 -1.105 0.884c -0.637 0 -1.17 -0.299 -1.612 -0.91c -0.13 0.507 -0.572 0.91 -1.183 0.91c -0.533 0 -0.923 -0.416 -1.196 -1.261c -0.13 -0.429 -0.195 -0.676 -0.195 -0.754c 0 -0.117 0.065 -0.182 0.208 -0.182c 0.065 0 0.104 0.013 0.143 0.039c 0.065 0.117 0.104 0.208 0.117 0.299c 0.234 0.988 0.533 1.482 0.884 1.482c 0.221 0 0.338 -0.182 0.338 -0.546c 0 -0.169 -0.065 -0.52 -0.195 -1.053l -0.741 -2.951c -0.039 -0.169 -0.117 -0.507 -0.117 -0.572c 0 -0.26 0.143 -0.39 0.416 -0.39c 0.26 0 0.429 0.13 0.52 0.39l 0.247 0.936c 0.143 0.559 0.234 0.923 0.273 1.092l 0.403 1.664c 0.026 0.104 0.13 0.273 0.299 0.52c 0.351 0.494 0.754 0.91 1.391 0.91c 0.156 0 0.286 -0.026 0.403 -0.091c -0.39 -0.117 -0.585 -0.364 -0.585 -0.715c 0 -0.338 0.182 -0.507 0.533 -0.507c 0.429 0 0.754 0.377 0.754 0.806Z "/></symbol><symbol id="g3CDB071E19D0E5A44EA9C23D26C7531F" overflow="visible"><path d="M 0 0m 8.658 -0.585c 0.221 -0.091 0.455 0.078 0.455 0.286c 0 0.13 -0.065 0.221 -0.182 0.273l -6.942 3.276l 6.942 3.276c 0.117 0.052 0.182 0.143 0.182 0.26c 0 0.221 -0.104 0.325 -0.312 0.325c -0.052 0 -0.104 -0.013 -0.143 -0.026l -7.462 -3.536c -0.13 -0.065 -0.195 -0.156 -0.195 -0.299c 0 -0.143 0.065 -0.234 0.195 -0.299Z "/></symbol><symbol id="g64EED7C1DC5EF9C242224A119317485D" overflow="visible"><path d="M 0 0m 9.607 6.903c 0 0.663 -0.338 1.17 -1.001 1.534c -0.533 0.299 -1.17 0.442 -1.885 0.442h -3.666c -0.299 0 -0.429 -0.013 -0.429 -0.312c 0 -0.091 0.039 -0.156 0.117 -0.169c 0.13 -0.013 0.234 -0.026 0.299 -0.026c 0.39 -0.013 0.611 -0.039 0.676 -0.052c 0.065 -0.013 0.104 -0.052 0.104 -0.117c 0 -0.026 -0.013 -0.104 -0.052 -0.234l -1.716 -6.903c -0.065 -0.286 -0.195 -0.468 -0.39 -0.533c -0.091 -0.026 -0.325 -0.039 -0.728 -0.039c -0.286 0 -0.403 -0.013 -0.403 -0.299c 0 -0.143 0.078 -0.208 0.234 -0.195l 1.612 0.039l 1.638 -0.039c 0.208 -0.013 0.312 0.104 0.312 0.299c 0 0.13 -0.143 0.195 -0.416 0.195c -0.52 0 -0.78 0.065 -0.78 0.182c 0 0 0.013 0.026 0.039 0.208l 0.832 3.367h 1.495c 0.897 0 1.352 -0.377 1.352 -1.118c 0 -0.117 -0.065 -0.403 -0.182 -0.871c -0.143 -0.546 -0.208 -0.91 -0.208 -1.105c 0 -0.988 0.767 -1.443 1.755 -1.443c 0.364 0 0.715 0.169 1.066 0.494c 0.351 0.325 0.533 0.676 0.533 1.04c 0 0.13 -0.065 0.195 -0.208 0.195c -0.091 0 -0.169 -0.065 -0.208 -0.208c -0.143 -0.403 -0.325 -0.702 -0.533 -0.871c -0.208 -0.169 -0.403 -0.26 -0.598 -0.26c -0.299 0 -0.455 0.247 -0.455 0.728c 0 0.312 0.039 0.793 0.13 1.456c 0.039 0.273 0.052 0.468 0.052 0.611c 0 0.689 -0.364 1.196 -1.092 1.508c 1.222 0.299 2.704 1.17 2.704 2.496Z m -1.69 1.105c 0.26 -0.169 0.39 -0.455 0.39 -0.858c 0 -0.26 -0.052 -0.559 -0.169 -0.91c -0.351 -1.066 -1.235 -1.599 -2.652 -1.599h -1.378l 0.819 3.289c 0.065 0.273 0.169 0.416 0.312 0.429c 0.065 0.013 0.325 0.013 0.78 0.013c 0.845 0 1.339 -0.026 1.898 -0.364Z "/></symbol><symbol id="g4C291E187DD5794F9B556D2620986782" overflow="visible"><path d="M 0 0m 6.877 4.147c 0 1.261 -0.013 4.368 -3.146 4.368c -3.133 0 -3.146 -3.094 -3.146 -4.368c 0 -1.287 0.013 -4.29 3.146 -4.29c 3.12 0 3.146 2.99 3.146 4.29Z m -1.664 0.156c 0 -0.728 0 -1.911 -0.091 -2.587c -0.182 -1.209 -1.001 -1.391 -1.391 -1.391c -0.468 0 -1.196 0.286 -1.365 1.235c -0.117 0.676 -0.117 2.028 -0.117 2.743c 0 0.936 0 1.781 0.104 2.457c 0.156 1.157 1.066 1.287 1.378 1.287c 0.481 0 1.014 -0.247 1.261 -0.819c 0.221 -0.481 0.221 -1.859 0.221 -2.925Z "/></symbol><symbol id="g3A04ED2BED26798A89A96732901846A4" overflow="visible"><path d="M 0 0m 8.918 2.951c 0.13 0.065 0.195 0.156 0.195 0.299c 0 0.143 -0.065 0.234 -0.195 0.299l -7.462 3.536c -0.039 0.013 -0.091 0.026 -0.143 0.026c -0.208 0 -0.312 -0.104 -0.312 -0.325c 0 -0.117 0.065 -0.208 0.182 -0.26l 6.942 -3.276l -6.942 -3.276c -0.117 -0.052 -0.182 -0.143 -0.182 -0.26c 0 -0.221 0.104 -0.325 0.312 -0.325c 0.052 0 0.104 0.013 0.143 0.026Z "/></symbol></defs></svg>