<svg viewBox="0 0 201.6105 45.2842" width="201.6105pt" height="45.2842pt" xmlns="http://www.w3.org/2000/svg" xmlns:xlink="http://www.w3.org/1999/xlink" xmlns:h5="http://www.w3.org/1999/xhtml"><g transform="matrix(1 0 0 -1 6.5 25.4904)"><use xlink:href="#g67F14AC23942C2CCA8D4F8A1F079A1D1" x="0" y="0" fill="#e6edf3" fill-rule="nonzero"/></g><g transform="matrix(1 0 0 -1 14.755 28.7014)"><use xlink:href="#gB520C4FDFB2403295A40FD77402E9185" x="0" y="0" fill="#e6edf3" fill-rule="nonzero"/></g><g transform="matrix(1 0 0 -1 27.184011111 25.4904)"><use xlink:href="#g13AFF74D87C474CFAF661EEAD0458F8B" x="0" y="0" fill="#e6edf3" fill-rule="nonzero"/></g><g transform="matrix(1 0 0 -1 40.909122222 25.4904)"><use xlink:href="#gD5105E1CC4CD5829824BEAD95693D8C5" x="0" y="0" fill="#e6edf3" fill-rule="nonzero"/></g><g transform="matrix(1 0 0 -1 47.409122222 25.4904)"><use xlink:href="#gACA2FE1DD062579B79E6E19150F5B03F" x="0" y="0" fill="#e6edf3" fill-rule="nonzero"/></g><g transform="matrix(1 0 0 -1 59.226122222 25.4904)"><use xlink:href="#gCD18A55F4CC2CA429D96672C565B9565" x="0" y="0" fill="#e6edf3" fill-rule="nonzero"/></g><g transform="matrix(1 0 0 -1 65.999122222 28.7014)"><use xlink:href="#gC7B20184179011BBC954B5E7CD84FB69" x="0" y="0" fill="#e6edf3" fill-rule="nonzero"/></g><g transform="matrix(1 0 0 -1 74.580422222 25.4904)"><use xlink:href="#g60832423DC5A0A0EF6FFDE0FB4B0707B" x="0" y="0" fill="#e6edf3" fill-rule="nonzero"/></g><g transform="matrix(1 0 0 -1 85.448422222 16.6894)"><use xlink:href="#g312D683510B9D1407B792F48B7FEA8C3" x="0" y="0" fill="#e6edf3" fill-rule="nonzero"/></g><g transform="matrix(1 0 0 -1 94.652422222 19.9004)"><use xlink:href="#gE1855B9080E381DBF30A60576B27B8A2" x="0" y="0" fill="#e6edf3" fill-rule="nonzero"/></g><g transform="matrix(1 0 0 -1 89.610372222 34.4084)"><use xlink:href="#g2D1FD5FA7721AD843D67732819992226" x="0" y="0" fill="#e6edf3" fill-rule="nonzero"/></g><path fill="none" stroke="#e6edf3" stroke-width="0.624" stroke-linecap="butt" stroke-linejoin="miter" stroke-miterlimit="4" transform="translate(85.448422222 22.2404)" d="M 0 0h 17.8399"/><g transform="matrix(1 0 0 -1 104.588322222 25.4904)"><use xlink:href="#gAA559AA643B86E5DAA15675B02A56BFE" x="0" y="0" fill="#e6edf3" fill-rule="nonzero"/></g><g transform="matrix(1 0 0 -1 114.156322222 9.9424)"><use xlink:href="#g8A6A9074F91D642F82CC8BE39AC39D3A" x="0" y="0" fill="#e6edf3" fill-rule="nonzero"/></g><g transform="matrix(1 0 0 -1 140.997061111 16.6894)"><use xlink:href="#gC717BE5B93447205292D108A434A4EF5" x="0" y="0" fill="#e6edf3" fill-rule="nonzero"/></g><g transform="matrix(1 0 0 -1 147.055061111 11.9704)"><use xlink:href="#gEA8DDBFC1A379ACB27688F53B9348E72" x="0" y="0" fill="#e6edf3" fill-rule="nonzero"/></g><g transform="matrix(1 0 0 -1 154.398761111 14.2181)"><use xlink:href="#g3C8929F6602E88D0565A6511485E19C4" x="0" y="0" fill="#e6edf3" fill-rule="nonzero"/></g><g transform="matrix(1 0 0 -1 161.453861111 11.9704)"><use xlink:href="#g1496F20E01A9F81D8E91FA120B618555" x="0" y="0" fill="#e6edf3" fill-rule="nonzero"/></g><g transform="matrix(1 0 0 -1 166.003861111 11.9704)"><use xlink:href="#g93B96925AF20254D7D82B92F2475B654" x="0" y="0" fill="#e6edf3" fill-rule="nonzero"/></g><g transform="matrix(1 0 0 -1 121.362222222 37.5232)"><use xlink:href="#gE84E87933D5C07F1B4CD76202CFC8708" x="0" y="0" fill="#e6edf3" fill-rule="nonzero"/></g><g transform="matrix(1 0 0 -1 126.848222222 37.5232)"><use xlink:href="#gC717BE5B93447205292D108A434A4EF5" x="0" y="0" fill="#e6edf3" fill-rule="nonzero"/></g><g transform="matrix(1 0 0 -1 132.906222222 33.7662)"><use xlink:href="#gEA8DDBFC1A379ACB27688F53B9348E72" x="0" y="0" fill="#e6edf3" fill-rule="nonzero"/></g><g transform="matrix(1 0 0 -1 140.249922222 36.0139)"><use xlink:href="#g3C8929F6602E88D0565A6511485E19C4" x="0" y="0" fill="#e6edf3" fill-rule="nonzero"/></g><g transform="matrix(1 0 0 -1 147.305022222 33.7662)"><use xlink:href="#g1496F20E01A9F81D8E91FA120B618555" x="0" y="0" fill="#e6edf3" fill-rule="nonzero"/></g><g transform="matrix(1 0 0 -1 151.855022222 33.7662)"><use xlink:href="#g93B96925AF20254D7D82B92F2475B654" x="0" y="0" fill="#e6edf3" fill-rule="nonzero"/></g><g transform="matrix(1 0 0 -1 162.915711111 37.5232)"><use xlink:href="#g9B543B57F718853EF8F95EF155B6CF69" x="0" y="0" fill="#e6edf3" fill-rule="nonzero"/></g><g transform="matrix(1 0 0 -1 175.9186 37.5232)"><use xlink:href="#g6B3DB0E0ADE6D994825CC39624067234" x="0" y="0" fill="#e6edf3" fill-rule="nonzero"/></g><g transform="matrix(1 0 0 -1 182.4186 37.5232)"><use xlink:href="#g48A8E09FFEFEF79EF4EF187974EFF69A" x="0" y="0" fill="#e6edf3" fill-rule="nonzero"/></g><g transform="matrix(1 0 0 -1 187.9046 30.1548)"><use xlink:href="#g8A6A9074F91D642F82CC8BE39AC39D3A" x="0" y="0" fill="#e6edf3" fill-rule="nonzero"/></g><path fill="none" stroke="#e6edf3" stroke-width="0.624" stroke-linecap="butt" stroke-linejoin="miter" stroke-miterlimit="4" transform="translate(121.362222222 22.2404)" d="M 0 0h 72.448277778"/><defs><symbol id="g67F14AC23942C2CCA8D4F8A1F079A1D1" overflow="visible"><path d="M 0 0m 1.924 2.834c 0 1.664 0.728 3.354 1.547 4.29c 0.663 0.767 1.807 1.534 3.094 1.534c 1.352 0 2.015 -1.027 2.015 -2.431c 0 -0.117 -0.039 -0.533 -0.039 -0.65c 0 -0.117 0.078 -0.182 0.247 -0.182c 0.065 0 0.117 0.013 0.156 0.026c 0.065 0.091 0.104 0.182 0.13 0.273l 0.806 3.289c 0 0.117 -0.065 0.182 -0.195 0.182c -0.052 0 -0.13 -0.052 -0.234 -0.169l -0.845 -0.949c -0.507 0.741 -1.222 1.118 -2.145 1.118c -0.715 0 -1.417 -0.169 -2.132 -0.494c -1.443 -0.676 -2.496 -1.742 -3.172 -3.198c -0.338 -0.715 -0.507 -1.443 -0.507 -2.184c 0 -1.04 0.325 -1.885 0.988 -2.561c 0.663 -0.676 1.508 -1.014 2.548 -1.014c 1.027 0 1.963 0.377 2.808 1.118c 0.351 0.299 0.65 0.663 0.897 1.066c 0.351 0.585 0.533 0.988 0.533 1.235c 0 0.117 -0.065 0.182 -0.208 0.182c -0.117 0 -0.182 -0.052 -0.208 -0.169c -0.273 -0.845 -0.702 -1.521 -1.287 -2.002c -0.741 -0.611 -1.521 -0.923 -2.327 -0.923c -1.56 0 -2.47 1.053 -2.47 2.613Z "/></symbol><symbol id="gB520C4FDFB2403295A40FD77402E9185" overflow="visible"><path d="M 0 0m 6.9524 6.1789c -0.1729 0 -0.7644 0.0364 -0.9373 0.0364c -0.1456 0 -0.2184 -0.0819 -0.2184 -0.2366c 0 -0.1001 0.0637 -0.1547 0.2002 -0.1638c 0.2275 -0.0091 0.3367 -0.0819 0.3367 -0.2184c 0 -0.0728 -0.0546 -0.1911 -0.1547 -0.3458l -2.912 -4.277l -0.8008 4.5136c -0.0091 0.0637 -0.0182 0.1001 -0.0182 0.1274c 0 0.1365 0.1729 0.2002 0.5278 0.2002c 0.1911 0 0.3094 0.0455 0.3094 0.2366v 0.0364c -0.0182 0.0819 -0.0819 0.1274 -0.1911 0.1274c -0.2093 0 -0.9464 -0.0364 -1.1557 -0.0364c -0.1911 0 -0.8099 0.0364 -1.001 0.0364c -0.1456 0 -0.2184 -0.0819 -0.2184 -0.2366c 0 -0.1092 0.091 -0.1638 0.2639 -0.1638c 0.3913 0 0.4732 0.0273 0.5187 -0.2548l 0.9828 -5.4691c 0.0273 -0.182 0.1183 -0.273 0.2548 -0.273c 0.1274 0 0.2366 0.0728 0.3367 0.2093l 3.4398 5.0596c 0.3094 0.455 0.6734 0.7007 1.0829 0.7371c 0.1638 0.0091 0.2366 0.0728 0.2366 0.2275c 0 0.1092 -0.0546 0.1638 -0.1638 0.1638c -0.1274 0 -0.5915 -0.0364 -0.7189 -0.0364Z "/></symbol><symbol id="g13AFF74D87C474CFAF661EEAD0458F8B" overflow="visible"><path d="M 0 0m 9.074 4.771h -8.034c -0.208 0 -0.312 -0.104 -0.312 -0.299c 0 -0.195 0.104 -0.299 0.312 -0.299h 8.034c 0.208 0 0.312 0.104 0.312 0.299c 0 0.156 -0.143 0.299 -0.312 0.299Z m 0 -2.444h -8.034c -0.208 0 -0.312 -0.104 -0.312 -0.299c 0 -0.195 0.104 -0.299 0.312 -0.299h 8.034c 0.208 0 0.312 0.104 0.312 0.299c 0 0.169 -0.143 0.299 -0.312 0.299Z "/></symbol><symbol id="gD5105E1CC4CD5829824BEAD95693D8C5" overflow="visible"><path d="M 0 0m 3.939 4.589c 0.858 0.325 1.664 1.144 1.664 2.249c 0 0.559 -0.273 1.014 -0.806 1.365c -0.468 0.299 -1.001 0.455 -1.599 0.455c -0.585 0 -1.092 -0.156 -1.547 -0.455c -0.507 -0.338 -0.767 -0.78 -0.767 -1.339c 0 -0.429 0.286 -0.728 0.702 -0.728c 0.416 0 0.702 0.299 0.702 0.715c 0 0.429 -0.247 0.663 -0.741 0.689c 0.338 0.455 0.871 0.689 1.599 0.689c 0.78 0 1.17 -0.455 1.17 -1.378c 0 -0.546 -0.104 -1.001 -0.299 -1.378c -0.351 -0.624 -0.832 -0.741 -1.638 -0.741c -0.156 -0.026 -0.234 -0.091 -0.234 -0.208c 0 -0.195 0.091 -0.195 0.351 -0.195h 0.559c 0.975 0 1.469 -0.689 1.469 -2.08c 0 -1.105 -0.403 -2.067 -1.391 -2.067c -0.845 0 -1.469 0.286 -1.846 0.858c 0.455 -0.013 0.793 0.325 0.793 0.767c 0 0.442 -0.325 0.767 -0.767 0.767c -0.507 0 -0.767 -0.26 -0.767 -0.793c 0 -0.637 0.286 -1.144 0.858 -1.547c 0.507 -0.351 1.105 -0.52 1.768 -0.52c 0.741 0 1.378 0.247 1.937 0.728c 0.559 0.481 0.832 1.079 0.832 1.807c 0 1.222 -0.962 2.067 -2.002 2.34Z "/></symbol><symbol id="gACA2FE1DD062579B79E6E19150F5B03F" overflow="visible"><path d="M 0 0m 11.232 8.879c -0.247 0 -1.053 -0.039 -1.3 -0.039c -0.247 0 -1.066 0.039 -1.313 0.039c -0.195 0 -0.286 -0.104 -0.286 -0.312c 0 -0.117 0.091 -0.182 0.286 -0.195c 0.546 0 0.819 -0.169 0.819 -0.507c 0 -0.078 -0.013 -0.169 -0.026 -0.26l -1.404 -5.564l -2.795 6.565c -0.104 0.247 -0.13 0.273 -0.455 0.273h -1.729c -0.312 0 -0.429 -0.026 -0.429 -0.312c 0 -0.13 0.143 -0.195 0.416 -0.195c 0.546 0 0.819 -0.013 0.832 -0.052l -1.729 -6.89c -0.117 -0.507 -0.416 -0.793 -0.884 -0.884c -0.338 -0.039 -0.728 0.013 -0.728 -0.351c 0 -0.13 0.078 -0.195 0.221 -0.195c 0.234 0 1.04 0.039 1.287 0.039c 0.247 0 1.079 -0.039 1.326 -0.039c 0.195 0 0.286 0.104 0.286 0.312c 0 0.117 -0.104 0.182 -0.312 0.195c -0.533 0.013 -0.793 0.182 -0.793 0.507c 0 0.065 0.013 0.156 0.039 0.286l 1.677 6.643l 3.25 -7.67c 0.078 -0.182 0.182 -0.273 0.299 -0.273c 0.117 0 0.195 0.104 0.247 0.312l 1.807 7.15c 0.169 0.663 0.533 0.897 1.339 0.91c 0.182 0.013 0.273 0.117 0.273 0.325c -0.039 0.117 -0.052 0.182 -0.221 0.182Z "/></symbol><symbol id="gCD18A55F4CC2CA429D96672C565B9565" overflow="visible"><path d="M 0 0m 5.317 4.589c 0 -0.338 0.182 -0.507 0.533 -0.507c 0.455 0 0.754 0.403 0.754 0.845c 0 0.507 -0.416 0.858 -0.923 0.858c -0.585 0 -1.209 -0.39 -1.898 -1.157c -0.533 -0.585 -0.962 -0.962 -1.313 -1.131l 1.313 5.33c -0.026 0.117 -0.052 0.195 -0.221 0.195c -0.416 0 -1.404 -0.117 -1.56 -0.13c -0.195 -0.026 -0.286 -0.117 -0.286 -0.312c 0 -0.13 0.117 -0.195 0.351 -0.195c 0.247 0 0.585 0.013 0.585 -0.169l -1.885 -7.657c -0.039 -0.143 -0.052 -0.234 -0.052 -0.286c 0 -0.273 0.143 -0.416 0.416 -0.416c 0.221 0 0.39 0.104 0.481 0.299c 0.065 0.117 0.299 1.04 0.715 2.782c 0.676 -0.065 1.391 -0.39 1.391 -1.04c 0 -0.195 -0.091 -0.585 -0.091 -0.715c 0 -0.741 0.481 -1.326 1.222 -1.326c 0.754 0 1.261 0.676 1.521 2.028c 0 0.117 -0.065 0.182 -0.195 0.182c -0.117 0 -0.195 -0.091 -0.234 -0.273c -0.286 -1.027 -0.637 -1.547 -1.066 -1.547c -0.234 0 -0.351 0.182 -0.351 0.546c 0 0.208 0.156 0.91 0.156 1.118c 0 0.741 -0.598 1.196 -1.807 1.378c 0.299 0.208 0.637 0.507 1.001 0.897c 0.364 0.39 0.624 0.637 0.793 0.78c 0.351 0.286 0.689 0.429 0.988 0.429c 0.13 0 0.234 -0.026 0.312 -0.078c -0.351 -0.065 -0.65 -0.39 -0.65 -0.728Z "/></symbol><symbol id="gC7B20184179011BBC954B5E7CD84FB69" overflow="visible"><path d="M 0 0m 7.6167 4.9049c 0 0.4368 -0.2184 0.7735 -0.6552 1.0101c -0.3549 0.2002 -0.7735 0.3003 -1.2467 0.3003h -3.276c -0.2093 0 -0.3276 -0.0273 -0.3276 -0.2366c 0 -0.1001 0.0637 -0.1456 0.1911 -0.1547l 0.4732 -0.0182c 0.1183 -0.0091 0.1729 0 0.1729 -0.091l -1.2285 -4.9686c -0.0455 -0.182 -0.1365 -0.2912 -0.273 -0.3367c -0.0455 -0.0091 -0.2002 -0.0182 -0.4823 -0.0182h -0.1547c -0.1001 -0.0091 -0.1547 -0.0819 -0.1547 -0.2184c 0 -0.1547 0.1183 -0.1729 0.3094 -0.1729h 3.4853c 0.6097 0 1.1921 0.1729 1.7472 0.5096c 0.6461 0.3913 0.9646 0.8736 0.9646 1.4469c 0 0.728 -0.6916 1.1739 -1.3741 1.3013c 0.8099 0.182 1.8291 0.7826 1.8291 1.6471Z m -0.9555 0.0091c 0 -0.455 -0.2275 -0.8281 -0.6734 -1.1284c -0.4004 -0.2639 -0.8372 -0.3913 -1.3195 -0.3913h -1.4287l 0.5369 2.1476c 0.0728 0.273 0.0728 0.2821 0.4277 0.2821h 1.365c 0.6279 0 1.092 -0.3185 1.092 -0.91Z m -0.4823 -2.8938c 0 -0.4732 -0.2184 -0.8736 -0.6461 -1.1921c -0.3913 -0.2912 -0.8281 -0.4368 -1.3195 -0.4368h -1.4469c -0.1729 0 -0.2548 -0.0182 -0.2548 0.0546l 0.6461 2.6208h 1.8837c 0.6643 0 1.1375 -0.3822 1.1375 -1.0465Z "/></symbol><symbol id="g60832423DC5A0A0EF6FFDE0FB4B0707B" overflow="visible"><path d="M 0 0m 8.58 -12.298c 0.195 0 0.286 0.091 0.286 0.286c 0 0.091 -0.039 0.169 -0.104 0.221c -0.884 0.663 -1.677 1.69 -2.392 3.081c -1.261 2.47 -2.21 5.993 -2.21 9.555v 4.81c 0 1.625 0.195 3.263 0.572 4.914c 0.676 2.99 2.067 6.24 4.03 7.722c 0.065 0.052 0.104 0.13 0.104 0.221c 0 0.195 -0.091 0.286 -0.286 0.286c -0.052 0 -0.104 -0.026 -0.169 -0.065c -0.949 -0.715 -1.846 -1.781 -2.691 -3.198c -1.469 -2.47 -2.782 -6.201 -2.782 -9.88v -4.81c 0 -3.471 1.222 -7.046 2.548 -9.477c 0.884 -1.599 1.859 -2.808 2.925 -3.601c 0.065 -0.039 0.117 -0.065 0.169 -0.065Z "/></symbol><symbol id="g312D683510B9D1407B792F48B7FEA8C3" overflow="visible"><path d="M 0 0m 5.044 -0.286c 1.248 0 2.288 0.481 3.12 1.43c 0.806 0.91 1.209 2.002 1.209 3.263c 0 1.261 -0.403 2.366 -1.196 3.289c -0.845 0.975 -1.885 1.469 -3.133 1.469c -1.248 0 -2.288 -0.494 -3.12 -1.469c -0.793 -0.923 -1.196 -2.028 -1.196 -3.289c 0 -1.261 0.403 -2.34 1.196 -3.263c 0.845 -0.949 1.885 -1.43 3.12 -1.43Z m 1.95 8.099c 0.689 -0.741 1.027 -1.872 1.027 -3.406c 0 -1.235 -0.234 -2.21 -0.702 -2.925c -0.598 -0.91 -1.352 -1.365 -2.262 -1.365c -0.689 0 -1.339 0.312 -1.95 0.923c -0.689 0.715 -1.027 1.833 -1.027 3.367c 0 1.573 0.338 2.704 1.027 3.419c 0.611 0.637 1.248 0.949 1.937 0.949c 0.702 0 1.352 -0.325 1.95 -0.962Z m -0.026 -4.342h 0.429v 1.95h -0.429v -0.429h -3.835v 0.429h -0.429v -1.95h 0.429v 0.429h 3.835Z "/></symbol><symbol id="gE1855B9080E381DBF30A60576B27B8A2" overflow="visible"><path d="M 0 0m 7.3528 6.1789h -4.9504c -0.2093 0 -0.3276 -0.0273 -0.3276 -0.2366c 0 -0.1001 0.1092 -0.1547 0.3367 -0.1547c 0.2821 0 0.4459 -0.0182 0.4914 -0.0455c 0.0091 -0.0091 0.0091 -0.0364 0.0091 -0.0637c 0 -0.0455 -0.0091 -0.1092 -0.0273 -0.1911l -1.183 -4.7047c -0.0455 -0.1729 -0.1001 -0.2821 -0.1729 -0.3276c -0.0728 -0.0455 -0.2639 -0.0637 -0.5915 -0.0637c -0.2002 0 -0.3094 -0.0273 -0.3094 -0.2275c 0 -0.1092 0.1001 -0.1638 0.3094 -0.1638h 5.0869c 0.2275 0 0.2639 0.0182 0.3367 0.182l 0.8463 1.9201c 0.0364 0.0819 0.0546 0.1456 0.0546 0.1729c 0 0.1092 -0.0637 0.1638 -0.1911 0.1638l -0.1092 -0.0455c -0.0273 -0.0273 -0.0819 -0.1183 -0.1547 -0.273c -0.3003 -0.6643 -0.6006 -1.1102 -0.9191 -1.3377c -0.3458 -0.2639 -0.8645 -0.3913 -1.5561 -0.3913h -1.5288c -0.1729 0 -0.2548 -0.0182 -0.2548 0.0546l 0.6279 2.5662h 0.9828c 0.4732 0 0.7826 0 0.7826 -0.3731c 0 -0.091 -0.0182 -0.2275 -0.0637 -0.4004c -0.0182 -0.0546 -0.0273 -0.091 -0.0273 -0.1183v -0.0364c 0.0273 -0.0819 0.091 -0.1274 0.1911 -0.1274c 0.1001 0 0.1638 0.0728 0.2093 0.2275l 0.4914 1.9747c 0.0182 0.0728 0.0273 0.1183 0.0273 0.1365c 0 0.1092 -0.0637 0.1638 -0.1911 0.1638h -0.0728c -0.0455 -0.0091 -0.0819 -0.0546 -0.1001 -0.1365c -0.1183 -0.4186 -0.2639 -0.6825 -0.4186 -0.7735c -0.1547 -0.091 -0.4186 -0.1365 -0.8099 -0.1365h -0.9009l 0.5278 2.093c 0.0728 0.2821 0.0637 0.2821 0.4277 0.2821h 1.4651c 0.5005 0 0.8463 -0.0455 1.0283 -0.1456c 0.2821 -0.1365 0.4186 -0.4277 0.4186 -0.8645c 0 -0.1274 -0.0364 -0.3822 -0.0364 -0.546c 0 -0.1274 0.0637 -0.1911 0.182 -0.1911c 0.0546 0 0.1001 0.0091 0.1274 0.0364c 0.0455 0.1001 0.0728 0.1729 0.0728 0.2275l 0.1638 1.5652v 0.1456c 0 0.1547 -0.1092 0.1638 -0.3003 0.1638Z "/></symbol><symbol id="g2D1FD5FA7721AD843D67732819992226" overflow="visible"><path d="M 0 0m 4.472 8.203c 0 -0.039 -0.013 -0.13 -0.052 -0.26l -1.716 -6.864c -0.052 -0.195 -0.104 -0.312 -0.143 -0.364c -0.117 -0.143 -0.559 -0.208 -1.339 -0.208c -0.403 0 -0.585 0.039 -0.585 -0.299c 0 -0.143 0.091 -0.208 0.26 -0.208c 0.663 0 1.599 0.052 2.158 0.039l 1.066 -0.013c 0.182 0 0.897 -0.026 1.118 -0.026c 0.221 0 0.325 0.104 0.325 0.312c 0 0.13 -0.156 0.195 -0.481 0.195c -0.676 0 -1.066 0.026 -1.183 0.091c -0.039 0.026 -0.065 0.078 -0.065 0.156l 1.755 7.085c 0.039 0.182 0.078 0.299 0.117 0.338c 0.052 0.078 0.364 0.117 0.936 0.117c 0.715 0 1.209 -0.052 1.456 -0.169c 0.247 -0.117 0.377 -0.39 0.377 -0.832c 0 -0.234 -0.039 -0.572 -0.104 -1.014c -0.026 -0.104 -0.039 -0.182 -0.039 -0.247c 0 -0.143 0.065 -0.221 0.208 -0.221c 0.117 0 0.195 0.117 0.234 0.338l 0.351 2.236c 0.013 0.065 0.026 0.143 0.026 0.221c 0 0.13 -0.13 0.195 -0.403 0.195h -7.124c -0.338 0 -0.364 -0.039 -0.468 -0.286l -0.767 -2.262c -0.039 -0.117 -0.065 -0.195 -0.078 -0.247c 0 -0.13 0.065 -0.195 0.208 -0.195c 0.104 0 0.195 0.104 0.26 0.299c 0.325 0.949 0.65 1.534 0.949 1.781c 0.338 0.273 0.988 0.403 1.937 0.403h 0.507c 0.143 0 0.299 0.013 0.299 -0.091Z "/></symbol><symbol id="gAA559AA643B86E5DAA15675B02A56BFE" overflow="visible"><path d="M 0 0m 1.157 -12.233c 0.949 0.715 1.846 1.781 2.691 3.198c 1.469 2.457 2.782 6.201 2.782 9.88v 4.81c 0 3.471 -1.222 7.046 -2.548 9.477c -0.884 1.599 -1.859 2.808 -2.925 3.601c -0.065 0.039 -0.117 0.065 -0.169 0.065c -0.195 0 -0.286 -0.091 -0.286 -0.286c 0 -0.091 0.039 -0.169 0.104 -0.221c 0.884 -0.663 1.677 -1.69 2.392 -3.081c 1.261 -2.47 2.21 -5.993 2.21 -9.555v -4.81c 0 -1.625 -0.195 -3.263 -0.572 -4.914c -0.676 -2.99 -2.067 -6.24 -4.03 -7.722c -0.065 -0.052 -0.104 -0.13 -0.104 -0.221c 0 -0.195 0.091 -0.286 0.286 -0.286c 0.052 0 0.104 0.026 0.169 0.065Z "/></symbol><symbol id="g8A6A9074F91D642F82CC8BE39AC39D3A" overflow="visible"><path d="M 0 0m 1.0829 3.8584c 0.2912 0 0.5096 0.2184 0.5096 0.5096c 0 0.3276 -0.1729 0.5005 -0.5096 0.5096c 0.2002 0.4277 0.6552 0.7735 1.2467 0.7735c 0.8008 0 1.3286 -0.6006 1.3286 -1.4014c 0 -0.4368 -0.1547 -0.8554 -0.4732 -1.2649c -0.1547 -0.2093 -0.273 -0.3549 -0.3549 -0.4368l -2.1567 -2.1385c -0.1183 -0.1092 -0.1001 -0.1365 -0.1001 -0.4095h 3.7492l 0.2821 1.7108h -0.3822c -0.0637 -0.4823 -0.1365 -0.7644 -0.2184 -0.8281c -0.0455 -0.0273 -0.3276 -0.0455 -0.8645 -0.0455h -1.547c 0.6097 0.5369 1.1739 1.0192 1.7108 1.4469c 0.4095 0.3185 0.7007 0.6006 0.8827 0.8463c 0.273 0.3549 0.4095 0.728 0.4095 1.1193c 0 0.5642 -0.2184 1.0101 -0.6643 1.3377c -0.3913 0.3003 -0.8827 0.455 -1.4651 0.455c -0.5005 0 -0.9282 -0.1456 -1.3013 -0.4368c -0.3913 -0.3185 -0.5915 -0.7189 -0.5915 -1.2103c 0 -0.3094 0.2275 -0.5369 0.5096 -0.5369Z "/></symbol><symbol id="gC717BE5B93447205292D108A434A4EF5" overflow="visible"><path d="M 0 0m 1.612 1.677c 0 0.312 0.065 0.741 0.195 1.274h 0.637c 0.845 0 1.495 0.104 1.963 0.299c 0.429 0.182 0.715 0.442 0.858 0.767c 0.091 0.221 0.13 0.429 0.13 0.598c 0 0.715 -0.676 1.131 -1.404 1.131c -0.507 0 -1.014 -0.13 -1.521 -0.39c -1.001 -0.52 -1.872 -1.703 -1.872 -3.133c 0 -1.326 0.767 -2.366 2.054 -2.366c 0.689 0 1.3 0.169 1.833 0.494c 0.442 0.273 0.767 0.546 0.975 0.819c 0.091 0.117 0.13 0.208 0.13 0.247c 0 0.143 -0.065 0.221 -0.208 0.221c -0.065 0 -0.13 -0.052 -0.208 -0.156c -0.429 -0.572 -0.962 -0.936 -1.573 -1.092c -0.403 -0.104 -0.702 -0.156 -0.923 -0.156c -0.741 0 -1.066 0.702 -1.066 1.443Z m 3.263 2.938c 0 -0.858 -0.832 -1.287 -2.509 -1.287h -0.455c 0.247 0.858 0.611 1.43 1.105 1.703c 0.39 0.221 0.715 0.338 0.975 0.338c 0.468 0 0.884 -0.286 0.884 -0.754Z "/></symbol><symbol id="gEA8DDBFC1A379ACB27688F53B9348E72" overflow="visible"><path d="M 0 0m 3.9858 -0.182c 0.9191 0 1.7108 0.3185 2.366 0.9464c 0.6552 0.6279 0.9828 1.3923 0.9828 2.3114c 0 0.9191 -0.3276 1.7017 -0.9828 2.3478c -0.6552 0.6461 -1.4378 0.9737 -2.366 0.9737c -0.9282 0 -1.7108 -0.3185 -2.366 -0.9646c -0.6552 -0.6461 -0.9828 -1.4287 -0.9828 -2.3569c 0 -0.9191 0.3276 -1.6835 0.9828 -2.3114c 0.6552 -0.6279 1.4469 -0.9464 2.366 -0.9464Z m 1.6016 5.551c 0.5187 -0.5096 0.7735 -1.274 0.7735 -2.2841c 0 -0.9646 -0.3094 -1.8018 -0.7917 -2.2568c -0.4823 -0.4459 -1.0101 -0.6643 -1.5834 -0.6643c -0.5824 0 -1.1102 0.2184 -1.5834 0.6643c -0.5278 0.5005 -0.7917 1.2467 -0.7917 2.2568c 0 1.0101 0.2548 1.7745 0.7735 2.2841c 0.4732 0.4641 1.0101 0.7007 1.6016 0.7007c 0.5915 0 1.1284 -0.2366 1.6016 -0.7007Z m -0.1001 -2.9575h 0.3822v 1.4196h -0.3822v -0.3094h -3.003v 0.3094h -0.3822v -1.4196h 0.3822v 0.3003h 3.003Z "/></symbol><symbol id="g3C8929F6602E88D0565A6511485E19C4" overflow="visible"><path d="M 0 0m 1.7875 4.2055c 0 -0.1365 0.091 -0.13 0.26 -0.13c 0.169 0 0.299 -0.013 0.39 -0.0325l -0.0195 -0.1365l -0.8385 -3.341c -0.0195 -0.0715 -0.039 -0.117 -0.0585 -0.143c -0.039 -0.0585 -0.195 -0.0845 -0.468 -0.0845c -0.195 0 -0.2925 -0.013 -0.2925 -0.2015c 0 -0.091 0.078 -0.1365 0.2405 -0.1365h 4.1015c 0.169 0 0.1885 0.013 0.247 0.1365l 0.65 1.4105c 0.026 0.0585 0.039 0.0975 0.039 0.117c 0 0.091 -0.052 0.1365 -0.156 0.1365c -0.0585 0 -0.0975 -0.013 -0.117 -0.0325c -0.039 -0.0585 -0.065 -0.1105 -0.0845 -0.156c -0.2275 -0.5005 -0.4745 -0.8385 -0.741 -1.014c -0.2665 -0.1755 -0.6695 -0.26 -1.209 -0.26h -1.2935c -0.078 0 -0.1365 0.0065 -0.182 0.013c 0.0065 0.026 0.013 0.052 0.0195 0.0845l 0.416 1.6835h 0.819c 0.3445 0 0.5395 -0.039 0.585 -0.1235c 0.0195 -0.0325 0.026 -0.091 0.026 -0.1625c 0 -0.0715 -0.013 -0.1625 -0.039 -0.2665c 0 -0.013 0 -0.0325 -0.0065 -0.0585v -0.0325c 0.0195 -0.0715 0.0715 -0.104 0.156 -0.104c 0.0845 0 0.143 0.052 0.1755 0.1625l 0.364 1.443c 0.013 0.052 0.0195 0.0845 0.0195 0.0975c 0 0.091 -0.052 0.1365 -0.1625 0.1365c -0.0845 0 -0.1365 -0.052 -0.169 -0.156c -0.0715 -0.2535 -0.1755 -0.4225 -0.325 -0.5005c -0.1105 -0.0585 -0.312 -0.091 -0.6045 -0.091h -0.754l 0.3575 1.417c 0.052 0.195 0.0455 0.195 0.299 0.195h 1.248c 0.4615 0 0.7735 -0.0585 0.9295 -0.1625c 0.156 -0.104 0.234 -0.3185 0.234 -0.637c 0 -0.052 -0.0195 -0.247 -0.0195 -0.299c 0 -0.0975 0.052 -0.1495 0.156 -0.1495c 0.1365 0 0.156 0.0715 0.169 0.2015c 0.039 0.4095 0.0715 0.832 0.117 1.2415c 0 0.1235 -0.0845 0.143 -0.2405 0.143h -3.991c -0.182 0 -0.247 -0.052 -0.247 -0.208Z "/></symbol><symbol id="g1496F20E01A9F81D8E91FA120B618555" overflow="visible"><path d="M 0 0m 3.5945 6.6612l -3.0849 -8.5995c -0.0728 -0.2002 0.0273 -0.2912 0.1365 -0.3276c 0.1092 -0.0364 0.2457 -0.0364 0.3185 0.1638l 3.0849 8.5904c 0.0728 0.2002 -0.0273 0.2912 -0.1365 0.3276c -0.1001 0.0364 -0.2457 0.0455 -0.3185 -0.1547Z "/></symbol><symbol id="g93B96925AF20254D7D82B92F2475B654" overflow="visible"><path d="M 0 0m 3.5763 5.7057l -1.2194 -4.914c -0.0364 -0.1365 -0.0728 -0.2184 -0.1001 -0.2548c -0.0819 -0.1001 -0.3913 -0.1456 -0.9191 -0.1456c -0.3003 0 -0.4459 0.0182 -0.4459 -0.2275c 0 -0.1092 0.0637 -0.1638 0.1911 -0.1638c 0.4914 0 1.0374 0.0455 1.547 0.0364l 0.8099 -0.0091c 0.2366 0 0.5915 -0.0091 0.7644 -0.0273c 0.1547 0 0.2366 0.0819 0.2366 0.2366c 0 0.0819 -0.0455 0.1365 -0.1456 0.1547h -0.2548c -0.4459 0 -0.7098 0.0182 -0.7735 0.0637c -0.0273 0.0182 -0.0364 0.0455 -0.0364 0.091c 0 0.0455 0.0091 0.1092 0.0273 0.2002l 1.1921 4.7229c 0.0637 0.2093 0.0455 0.2639 0.2457 0.2821c 0.0273 0.0091 0.2002 0.0091 0.5369 0.0091c 0.5187 0 0.8554 -0.0273 1.001 -0.0728c 0.2912 -0.1001 0.4004 -0.2366 0.4004 -0.6825c 0 -0.2457 -0.0273 -0.5187 -0.0819 -0.819c 0 -0.1183 0.0637 -0.1729 0.1911 -0.1729c 0.0455 0 0.091 0.0091 0.1183 0.0364c 0.0455 0.091 0.0728 0.1638 0.0819 0.2184l 0.2457 1.7199c 0 0.1092 -0.1001 0.1638 -0.3094 0.1638h -5.5328c -0.2548 0 -0.273 -0.0182 -0.3367 -0.2093l -0.5733 -1.5925c -0.0091 -0.0455 -0.0455 -0.1456 -0.0455 -0.1729c 0 -0.1092 0.0637 -0.1638 0.1911 -0.1638c 0.091 0 0.1638 0.0819 0.2184 0.2366c 0.3094 0.8463 0.5096 1.3832 1.4469 1.4924c 0.1001 0.0091 0.3367 0.0182 0.7098 0.0182h 0.3822c 0.1638 0 0.2366 0.0182 0.2366 -0.0546Z "/></symbol><symbol id="gE84E87933D5C07F1B4CD76202CFC8708" overflow="visible"><path d="M 0 0m 4.524 -3.861c 0.117 0 0.182 0.065 0.182 0.182c 0 0.065 -0.026 0.104 -0.065 0.143c -0.728 0.559 -1.313 1.495 -1.755 2.808c -0.377 1.131 -0.572 2.223 -0.572 3.302v 1.352c 0 1.079 0.195 2.171 0.572 3.302c 0.442 1.313 1.027 2.249 1.755 2.808c 0.039 0.039 0.065 0.078 0.065 0.143c 0 0.117 -0.065 0.182 -0.182 0.182c -0.052 0 -0.091 -0.013 -0.104 -0.039c -0.845 -0.65 -1.547 -1.612 -2.106 -2.899c -0.533 -1.222 -0.806 -2.392 -0.806 -3.497v -1.352c 0 -1.105 0.273 -2.275 0.806 -3.497c 0.559 -1.287 1.261 -2.249 2.106 -2.899c 0.013 -0.026 0.052 -0.039 0.104 -0.039Z "/></symbol><symbol id="g9B543B57F718853EF8F95EF155B6CF69" overflow="visible"><path d="M 0 0m 9.074 3.51h -8.034c -0.208 0 -0.312 -0.091 -0.312 -0.26c 0 -0.169 0.104 -0.26 0.312 -0.26h 8.034c 0.208 0 0.312 0.091 0.312 0.26c 0 0.156 -0.156 0.26 -0.312 0.26Z "/></symbol><symbol id="g6B3DB0E0ADE6D994825CC39624067234" overflow="visible"><path d="M 0 0m 3.497 8.658c -0.533 -0.546 -1.313 -0.819 -2.34 -0.819v -0.507c 0.676 0 1.235 0.104 1.664 0.312v -6.578c 0 -0.234 -0.052 -0.39 -0.169 -0.455c -0.117 -0.065 -0.442 -0.104 -0.962 -0.104h -0.455v -0.507c 0.325 0.026 1.027 0.039 2.106 0.039c 1.079 0 1.781 -0.013 2.106 -0.039v 0.507h -0.455c -0.533 0 -0.858 0.039 -0.962 0.104c -0.104 0.065 -0.169 0.221 -0.169 0.455v 7.202c 0 0.312 -0.026 0.39 -0.364 0.39Z "/></symbol><symbol id="g48A8E09FFEFEF79EF4EF187974EFF69A" overflow="visible"><path d="M 0 0m 1.066 -3.822c 0.845 0.65 1.547 1.612 2.106 2.899c 0.533 1.222 0.806 2.392 0.806 3.497v 1.352c 0 1.105 -0.273 2.275 -0.806 3.497c -0.559 1.287 -1.261 2.249 -2.106 2.899c -0.013 0.026 -0.052 0.039 -0.104 0.039c -0.117 0 -0.182 -0.065 -0.182 -0.182c 0 -0.065 0.026 -0.104 0.065 -0.143c 0.728 -0.559 1.313 -1.495 1.755 -2.808c 0.377 -1.131 0.572 -2.223 0.572 -3.302v -1.352c 0 -1.079 -0.195 -2.171 -0.572 -3.302c -0.442 -1.313 -1.027 -2.249 -1.755 -2.808c -0.039 -0.039 -0.065 -0.078 -0.065 -0.143c 0 -0.117 0.065 -0.182 0.182 -0.182c 0.052 0 0.091 0.013 0.104 0.039Z "/></symbol></defs></svg>