<svg viewBox="0 0 209.412233333 38.129" width="209.412233333pt" height="38.129pt" xmlns="http://www.w3.org/2000/svg" xmlns:xlink="http://www.w3.org/1999/xlink" xmlns:h5="http://www.w3.org/1999/xhtml"><g transform="matrix(1 0 0 -1 6.5 22.009)"><use xlink:href="#g2F389E882241F7D883BD9BE49B9B556F" x="0" y="0" fill="#e6edf3" fill-rule="nonzero"/></g><g transform="matrix(1 0 0 -1 11.557 22.009)"><use xlink:href="#gCF5C81C6E401366426924053F591B3B3" x="0" y="0" fill="#e6edf3" fill-rule="nonzero"/></g><g transform="matrix(1 0 0 -1 17.251 25.22)"><use xlink:href="#g4CE686876A17D681BBB59265FB1A41AE" x="0" y="0" fill="#e6edf3" fill-rule="nonzero"/></g><g transform="matrix(1 0 0 -1 22.9554 13.208)"><use xlink:href="#gECD202B73668A69AC8A33649F9D5BDE0" x="0" y="0" fill="#e6edf3" fill-rule="nonzero"/></g><g transform="matrix(1 0 0 -1 30.6774 13.208)"><use xlink:href="#g128BC29E509AAF6EF62444E10CCC5730" x="0" y="0" fill="#e6edf3" fill-rule="nonzero"/></g><g transform="matrix(1 0 0 -1 23.8147 30.927)"><use xlink:href="#gECD202B73668A69AC8A33649F9D5BDE0" x="0" y="0" fill="#e6edf3" fill-rule="nonzero"/></g><g transform="matrix(1 0 0 -1 31.5367 30.927)"><use xlink:href="#gCF5C81C6E401366426924053F591B3B3" x="0" y="0" fill="#e6edf3" fill-rule="nonzero"/></g><g transform="matrix(1 0 0 -1 37.2307 34.138)"><use xlink:href="#g4CE686876A17D681BBB59265FB1A41AE" x="0" y="0" fill="#e6edf3" fill-rule="nonzero"/></g><path fill="none" stroke="#e6edf3" stroke-width="0.624" stroke-linecap="butt" stroke-linejoin="miter" stroke-miterlimit="4" transform="translate(22.9554 18.759)" d="M 0 0h 19.539"/><g transform="matrix(1 0 0 -1 43.7944 22.009)"><use xlink:href="#g77D2A3BE49641BC9FE86B31DAB4932B4" x="0" y="0" fill="#e6edf3" fill-rule="nonzero"/></g><g transform="matrix(1 0 0 -1 52.462511111 22.009)"><use xlink:href="#g13AFF74D87C474CFAF661EEAD0458F8B" x="0" y="0" fill="#e6edf3" fill-rule="nonzero"/></g><g transform="matrix(1 0 0 -1 66.187622222 22.009)"><use xlink:href="#gCD18A55F4CC2CA429D96672C565B9565" x="0" y="0" fill="#e6edf3" fill-rule="nonzero"/></g><g transform="matrix(1 0 0 -1 72.960622222 25.22)"><use xlink:href="#gC7B20184179011BBC954B5E7CD84FB69" x="0" y="0" fill="#e6edf3" fill-rule="nonzero"/></g><g transform="matrix(1 0 0 -1 81.541922222 22.009)"><use xlink:href="#g2D1FD5FA7721AD843D67732819992226" x="0" y="0" fill="#e6edf3" fill-rule="nonzero"/></g><g transform="matrix(1 0 0 -1 94.669033333 22.009)"><use xlink:href="#g7AF10AFFE59D420B8F89A40B982EF05" x="0" y="0" fill="#e6edf3" fill-rule="nonzero"/></g><g transform="matrix(1 0 0 -1 111.280144444 22.009)"><use xlink:href="#g2F389E882241F7D883BD9BE49B9B556F" x="0" y="0" fill="#e6edf3" fill-rule="nonzero"/></g><g transform="matrix(1 0 0 -1 117.637144444 13.208)"><use xlink:href="#g6B3DB0E0ADE6D994825CC39624067234" x="0" y="0" fill="#e6edf3" fill-rule="nonzero"/></g><g transform="matrix(1 0 0 -1 117.637144444 30.927)"><use xlink:href="#g21E6026C55295689503B3E9C99FAF46D" x="0" y="0" fill="#e6edf3" fill-rule="nonzero"/></g><path fill="none" stroke="#e6edf3" stroke-width="0.624" stroke-linecap="butt" stroke-linejoin="miter" stroke-miterlimit="4" transform="translate(117.637144444 18.759)" d="M 0 0h 6.5"/><g transform="matrix(1 0 0 -1 127.603811111 22.009)"><use xlink:href="#gE9E0C553A910389E98181E1EB82F3CA5" x="0" y="0" fill="#e6edf3" fill-rule="nonzero"/></g><g transform="matrix(1 0 0 -1 134.480811111 22.009)"><use xlink:href="#gCF5C81C6E401366426924053F591B3B3" x="0" y="0" fill="#e6edf3" fill-rule="nonzero"/></g><g transform="matrix(1 0 0 -1 140.642811111 17.19835)"><use xlink:href="#g8A6A9074F91D642F82CC8BE39AC39D3A" x="0" y="0" fill="#e6edf3" fill-rule="nonzero"/></g><g transform="matrix(1 0 0 -1 140.174811111 25.31165)"><use xlink:href="#g4CE686876A17D681BBB59265FB1A41AE" x="0" y="0" fill="#e6edf3" fill-rule="nonzero"/></g><g transform="matrix(1 0 0 -1 146.548711111 22.009)"><use xlink:href="#g77D2A3BE49641BC9FE86B31DAB4932B4" x="0" y="0" fill="#e6edf3" fill-rule="nonzero"/></g><g transform="matrix(1 0 0 -1 155.216822222 22.009)"><use xlink:href="#g13AFF74D87C474CFAF661EEAD0458F8B" x="0" y="0" fill="#e6edf3" fill-rule="nonzero"/></g><g transform="matrix(1 0 0 -1 170.241933333 13.208)"><use xlink:href="#g6B3DB0E0ADE6D994825CC39624067234" x="0" y="0" fill="#e6edf3" fill-rule="nonzero"/></g><g transform="matrix(1 0 0 -1 170.241933333 30.927)"><use xlink:href="#g21E6026C55295689503B3E9C99FAF46D" x="0" y="0" fill="#e6edf3" fill-rule="nonzero"/></g><path fill="none" stroke="#e6edf3" stroke-width="0.624" stroke-linecap="butt" stroke-linejoin="miter" stroke-miterlimit="4" transform="translate(170.241933333 18.759)" d="M 0 0h 6.5"/><g transform="matrix(1 0 0 -1 178.041933333 22.009)"><use xlink:href="#gCD18A55F4CC2CA429D96672C565B9565" x="0" y="0" fill="#e6edf3" fill-rule="nonzero"/></g><g transform="matrix(1 0 0 -1 184.814933333 25.22)"><use xlink:href="#gC7B20184179011BBC954B5E7CD84FB69" x="0" y="0" fill="#e6edf3" fill-rule="nonzero"/></g><g transform="matrix(1 0 0 -1 193.396233333 22.009)"><use xlink:href="#g2D1FD5FA7721AD843D67732819992226" x="0" y="0" fill="#e6edf3" fill-rule="nonzero"/></g><defs><symbol id="g2F389E882241F7D883BD9BE49B9B556F" overflow="visible"><path d="M 0 0m 4.069 -3.25c 0.195 0 0.299 0.104 0.299 0.312c 0 0.039 0 0.078 -0.013 0.104l -2.301 6.084l 2.301 6.071c 0.013 0.026 0.013 0.065 0.013 0.117c 0 0.208 -0.104 0.312 -0.299 0.312c -0.143 0 -0.234 -0.065 -0.286 -0.195l -2.34 -6.188c -0.013 -0.026 -0.013 -0.065 -0.013 -0.117c 0 -0.039 0 -0.078 0.013 -0.104l 2.34 -6.201c 0.052 -0.13 0.143 -0.195 0.286 -0.195Z "/></symbol><symbol id="gCF5C81C6E401366426924053F591B3B3" overflow="visible"><path d="M 0 0m 1.313 5.46c 0 -0.585 0.26 -1.04 0.78 -1.365c -1.196 -0.923 -1.794 -1.833 -1.794 -2.73c 0 -0.455 0.221 -0.819 0.377 -1.053c 0.221 -0.221 0.442 -0.39 0.689 -0.52c 0.637 -0.273 1.573 -0.624 2.353 -0.936c 0.273 -0.13 0.416 -0.169 0.416 -0.507c 0 -0.325 -0.247 -0.624 -0.572 -0.624c -0.364 0 -0.728 0.13 -1.092 0.403c -0.065 0.039 -0.13 0.065 -0.169 0.065c -0.117 0 -0.182 -0.065 -0.182 -0.182c 0 -0.065 0.078 -0.156 0.221 -0.273c 0.351 -0.273 0.754 -0.403 1.222 -0.403c 0.741 0 1.378 0.689 1.378 1.43c 0 0.481 -0.208 0.793 -0.637 0.962l -0.78 0.299c -0.377 0.143 -0.637 0.234 -0.78 0.299l -0.767 0.299c -0.611 0.247 -0.923 0.624 -0.923 1.105c 0 0.871 0.884 1.794 1.521 2.132c 0.312 -0.104 0.689 -0.156 1.118 -0.156c 0.819 0 1.235 0.143 1.235 0.442c 0 0.273 -0.364 0.403 -1.092 0.403c -0.39 0 -0.741 -0.052 -1.053 -0.143c -0.234 0.247 -0.351 0.559 -0.351 0.949c 0 0.949 0.676 1.781 1.352 2.119c 0.169 -0.182 0.442 -0.273 0.832 -0.273c 0.793 0 1.183 0.156 1.183 0.455c 0 0.273 -0.364 0.403 -1.105 0.403c -0.299 0 -0.559 -0.026 -0.78 -0.065c -0.026 0.117 -0.039 0.234 -0.039 0.364c 0 0.117 0.026 0.286 0.065 0.481c 0 0.143 -0.065 0.221 -0.208 0.221c -0.195 0 -0.286 -0.234 -0.286 -0.689c 0 -0.091 0.026 -0.234 0.078 -0.455c -1.053 -0.325 -2.21 -1.209 -2.21 -2.457Z m 3.393 2.21c 0.182 0 0.351 -0.013 0.494 -0.039c -0.156 -0.026 -0.351 -0.039 -0.572 -0.039c -0.169 0 -0.299 0.013 -0.39 0.052c 0.117 0.013 0.273 0.026 0.468 0.026Z m -0.884 -3.51c 0.195 0 0.377 -0.013 0.52 -0.026c -0.143 -0.039 -0.351 -0.052 -0.611 -0.052c -0.169 0 -0.325 0.013 -0.442 0.052c 0.156 0.013 0.338 0.026 0.533 0.026Z "/></symbol><symbol id="g4CE686876A17D681BBB59265FB1A41AE" overflow="visible"><path d="M 0 0m 2.9575 5.6511c 0 0.2184 -0.1729 0.3822 -0.3913 0.3822c -0.273 0 -0.5369 -0.2548 -0.5369 -0.5278c 0 -0.2184 0.1729 -0.3822 0.3913 -0.3822c 0.273 0 0.5369 0.2548 0.5369 0.5278Z m -1.2103 -1.6107c -0.4277 0 -0.7644 -0.2184 -1.0101 -0.6552c -0.2093 -0.364 -0.3094 -0.6188 -0.3094 -0.7644c 0 -0.1001 0.0637 -0.1456 0.182 -0.1456c 0.1001 0 0.1638 0.0546 0.2002 0.1638c 0.2093 0.7189 0.5096 1.0738 0.91 1.0738c 0.1274 0 0.1911 -0.091 0.1911 -0.2821c 0 -0.1183 -0.091 -0.4095 -0.273 -0.8827l -0.5642 -1.4469c -0.0546 -0.1456 -0.0819 -0.273 -0.0819 -0.3913c 0 -0.4732 0.4095 -0.8008 0.8827 -0.8008c 0.4277 0 0.7553 0.2184 1.001 0.6643c 0.2093 0.364 0.3094 0.6097 0.3094 0.7462c 0 0.1001 -0.0637 0.1547 -0.182 0.1547c -0.0546 -0.0091 -0.1183 -0.0546 -0.182 -0.1456c -0.0091 -0.0091 -0.0182 -0.0273 -0.0182 -0.0364c -0.2093 -0.7007 -0.5096 -1.0556 -0.9009 -1.0556c -0.1274 0 -0.1911 0.091 -0.1911 0.273c 0 0.1365 0.0455 0.3276 0.1456 0.5642l 0.7189 1.8655c 0.0364 0.1001 0.0546 0.2002 0.0546 0.3003c 0 0.4732 -0.4095 0.8008 -0.8827 0.8008Z "/></symbol><symbol id="gECD202B73668A69AC8A33649F9D5BDE0" overflow="visible"><path d="M 0 0m 3.328 7.462c 0 0.299 -0.195 0.468 -0.572 0.494c 0.403 0.611 0.988 0.923 1.755 0.923c 1.196 0 1.781 -1.001 1.781 -2.275c 0 -0.533 -0.104 -1.183 -0.299 -1.976c -0.221 0.897 -0.78 1.352 -1.651 1.352c -1.001 0 -1.872 -0.416 -2.652 -1.222c -0.78 -0.806 -1.17 -1.703 -1.17 -2.704c 0 -0.481 0.169 -0.975 0.507 -1.469c 0.403 -0.585 1.027 -0.871 1.898 -0.871c 1.17 0 2.145 0.546 2.912 1.651c 0.728 1.066 1.521 2.912 1.521 4.563c 0 0.923 -0.234 1.703 -0.702 2.327c -0.507 0.702 -1.222 1.053 -2.119 1.053c -0.871 0 -1.521 -0.299 -1.963 -0.91c -0.351 -0.481 -0.533 -0.871 -0.533 -1.17c 0 -0.338 0.182 -0.507 0.546 -0.507c 0.39 0 0.741 0.351 0.741 0.741Z m 2.379 -3.523c 0 -0.819 -0.247 -1.625 -0.754 -2.418c -0.559 -0.897 -1.222 -1.339 -1.989 -1.339c -0.858 0 -1.352 0.559 -1.352 1.391c 0 0.364 0.091 0.871 0.273 1.521c 0.182 0.65 0.364 1.105 0.559 1.378c 0.52 0.741 1.157 1.118 1.898 1.118c 0.949 0 1.365 -0.702 1.365 -1.651Z "/></symbol><symbol id="g128BC29E509AAF6EF62444E10CCC5730" overflow="visible"><path d="M 0 0m 11.453 8.684c 0 0.13 -0.078 0.195 -0.234 0.195l -1.651 -0.039l -1.651 0.039c -0.208 0 -0.299 -0.117 -0.299 -0.312c 0 -0.091 0.039 -0.156 0.104 -0.169c 0.13 -0.013 0.234 -0.026 0.299 -0.026c 0.403 -0.013 0.624 -0.039 0.689 -0.052c 0.065 -0.013 0.104 -0.052 0.104 -0.117c -0.013 -0.039 -0.026 -0.117 -0.052 -0.234l -0.767 -3.094h -3.822l 0.754 2.951c 0.065 0.273 0.182 0.442 0.351 0.507c 0.091 0.026 0.312 0.039 0.676 0.039c 0.351 0 0.494 0 0.494 0.312c 0 0.13 -0.078 0.195 -0.234 0.195l -1.651 -0.039l -1.664 0.039c -0.208 0 -0.299 -0.117 -0.299 -0.312c 0 -0.091 0.039 -0.156 0.117 -0.169c 0.13 -0.013 0.234 -0.026 0.299 -0.026c 0.403 -0.013 0.637 -0.039 0.702 -0.052c 0.065 -0.013 0.091 -0.052 0.091 -0.117c 0 -0.026 -0.013 -0.104 -0.052 -0.234l -1.729 -6.903c -0.065 -0.286 -0.195 -0.455 -0.39 -0.52c -0.091 -0.026 -0.325 -0.039 -0.728 -0.039c -0.286 0 -0.403 -0.026 -0.403 -0.312c 0 -0.13 0.078 -0.195 0.234 -0.195l 1.638 0.039l 0.819 -0.013c 0.143 0 0.689 -0.026 0.832 -0.026c 0.208 0 0.312 0.104 0.312 0.312c 0 0.13 -0.143 0.195 -0.416 0.195c -0.52 0 -0.78 0.052 -0.78 0.169c 0 0 0.013 0.039 0.039 0.208l 0.871 3.484h 3.809l -0.871 -3.484c -0.039 -0.195 -0.195 -0.325 -0.455 -0.364c -0.065 -0.013 -0.286 -0.013 -0.663 -0.013c -0.247 0 -0.364 -0.104 -0.364 -0.312c 0 -0.13 0.078 -0.195 0.234 -0.195l 1.638 0.039l 0.819 -0.013c 0.143 0 0.676 -0.026 0.845 -0.026c 0.208 0 0.312 0.104 0.312 0.312c 0 0.13 -0.143 0.195 -0.416 0.195c -0.533 0 -0.793 0.052 -0.793 0.169c 0 0 0.013 0.039 0.039 0.208l 1.742 6.942c 0.065 0.273 0.182 0.442 0.351 0.507c 0.078 0.026 0.299 0.039 0.676 0.039c 0.338 0 0.494 0 0.494 0.312Z "/></symbol><symbol id="g77D2A3BE49641BC9FE86B31DAB4932B4" overflow="visible"><path d="M 0 0m 3.614 3.146c 0.013 0.026 0.013 0.065 0.013 0.104c 0 0.039 0 0.078 -0.013 0.104l -2.34 6.201c -0.052 0.13 -0.143 0.195 -0.286 0.195c -0.195 0 -0.299 -0.104 -0.299 -0.312c 0 -0.039 0 -0.078 0.013 -0.104l 2.301 -6.084l -2.301 -6.071c -0.013 -0.026 -0.013 -0.065 -0.013 -0.117c 0 -0.208 0.104 -0.312 0.299 -0.312c 0.143 0 0.234 0.065 0.286 0.195Z "/></symbol><symbol id="g13AFF74D87C474CFAF661EEAD0458F8B" overflow="visible"><path d="M 0 0m 9.074 4.771h -8.034c -0.208 0 -0.312 -0.104 -0.312 -0.299c 0 -0.195 0.104 -0.299 0.312 -0.299h 8.034c 0.208 0 0.312 0.104 0.312 0.299c 0 0.156 -0.143 0.299 -0.312 0.299Z m 0 -2.444h -8.034c -0.208 0 -0.312 -0.104 -0.312 -0.299c 0 -0.195 0.104 -0.299 0.312 -0.299h 8.034c 0.208 0 0.312 0.104 0.312 0.299c 0 0.169 -0.143 0.299 -0.312 0.299Z "/></symbol><symbol id="gCD18A55F4CC2CA429D96672C565B9565" overflow="visible"><path d="M 0 0m 5.317 4.589c 0 -0.338 0.182 -0.507 0.533 -0.507c 0.455 0 0.754 0.403 0.754 0.845c 0 0.507 -0.416 0.858 -0.923 0.858c -0.585 0 -1.209 -0.39 -1.898 -1.157c -0.533 -0.585 -0.962 -0.962 -1.313 -1.131l 1.313 5.33c -0.026 0.117 -0.052 0.195 -0.221 0.195c -0.416 0 -1.404 -0.117 -1.56 -0.13c -0.195 -0.026 -0.286 -0.117 -0.286 -0.312c 0 -0.13 0.117 -0.195 0.351 -0.195c 0.247 0 0.585 0.013 0.585 -0.169l -1.885 -7.657c -0.039 -0.143 -0.052 -0.234 -0.052 -0.286c 0 -0.273 0.143 -0.416 0.416 -0.416c 0.221 0 0.39 0.104 0.481 0.299c 0.065 0.117 0.299 1.04 0.715 2.782c 0.676 -0.065 1.391 -0.39 1.391 -1.04c 0 -0.195 -0.091 -0.585 -0.091 -0.715c 0 -0.741 0.481 -1.326 1.222 -1.326c 0.754 0 1.261 0.676 1.521 2.028c 0 0.117 -0.065 0.182 -0.195 0.182c -0.117 0 -0.195 -0.091 -0.234 -0.273c -0.286 -1.027 -0.637 -1.547 -1.066 -1.547c -0.234 0 -0.351 0.182 -0.351 0.546c 0 0.208 0.156 0.91 0.156 1.118c 0 0.741 -0.598 1.196 -1.807 1.378c 0.299 0.208 0.637 0.507 1.001 0.897c 0.364 0.39 0.624 0.637 0.793 0.78c 0.351 0.286 0.689 0.429 0.988 0.429c 0.13 0 0.234 -0.026 0.312 -0.078c -0.351 -0.065 -0.65 -0.39 -0.65 -0.728Z "/></symbol><symbol id="gC7B20184179011BBC954B5E7CD84FB69" overflow="visible"><path d="M 0 0m 7.6167 4.9049c 0 0.4368 -0.2184 0.7735 -0.6552 1.0101c -0.3549 0.2002 -0.7735 0.3003 -1.2467 0.3003h -3.276c -0.2093 0 -0.3276 -0.0273 -0.3276 -0.2366c 0 -0.1001 0.0637 -0.1456 0.1911 -0.1547l 0.4732 -0.0182c 0.1183 -0.0091 0.1729 0 0.1729 -0.091l -1.2285 -4.9686c -0.0455 -0.182 -0.1365 -0.2912 -0.273 -0.3367c -0.0455 -0.0091 -0.2002 -0.0182 -0.4823 -0.0182h -0.1547c -0.1001 -0.0091 -0.1547 -0.0819 -0.1547 -0.2184c 0 -0.1547 0.1183 -0.1729 0.3094 -0.1729h 3.4853c 0.6097 0 1.1921 0.1729 1.7472 0.5096c 0.6461 0.3913 0.9646 0.8736 0.9646 1.4469c 0 0.728 -0.6916 1.1739 -1.3741 1.3013c 0.8099 0.182 1.8291 0.7826 1.8291 1.6471Z m -0.9555 0.0091c 0 -0.455 -0.2275 -0.8281 -0.6734 -1.1284c -0.4004 -0.2639 -0.8372 -0.3913 -1.3195 -0.3913h -1.4287l 0.5369 2.1476c 0.0728 0.273 0.0728 0.2821 0.4277 0.2821h 1.365c 0.6279 0 1.092 -0.3185 1.092 -0.91Z m -0.4823 -2.8938c 0 -0.4732 -0.2184 -0.8736 -0.6461 -1.1921c -0.3913 -0.2912 -0.8281 -0.4368 -1.3195 -0.4368h -1.4469c -0.1729 0 -0.2548 -0.0182 -0.2548 0.0546l 0.6461 2.6208h 1.8837c 0.6643 0 1.1375 -0.3822 1.1375 -1.0465Z "/></symbol><symbol id="g2D1FD5FA7721AD843D67732819992226" overflow="visible"><path d="M 0 0m 4.472 8.203c 0 -0.039 -0.013 -0.13 -0.052 -0.26l -1.716 -6.864c -0.052 -0.195 -0.104 -0.312 -0.143 -0.364c -0.117 -0.143 -0.559 -0.208 -1.339 -0.208c -0.403 0 -0.585 0.039 -0.585 -0.299c 0 -0.143 0.091 -0.208 0.26 -0.208c 0.663 0 1.599 0.052 2.158 0.039l 1.066 -0.013c 0.182 0 0.897 -0.026 1.118 -0.026c 0.221 0 0.325 0.104 0.325 0.312c 0 0.13 -0.156 0.195 -0.481 0.195c -0.676 0 -1.066 0.026 -1.183 0.091c -0.039 0.026 -0.065 0.078 -0.065 0.156l 1.755 7.085c 0.039 0.182 0.078 0.299 0.117 0.338c 0.052 0.078 0.364 0.117 0.936 0.117c 0.715 0 1.209 -0.052 1.456 -0.169c 0.247 -0.117 0.377 -0.39 0.377 -0.832c 0 -0.234 -0.039 -0.572 -0.104 -1.014c -0.026 -0.104 -0.039 -0.182 -0.039 -0.247c 0 -0.143 0.065 -0.221 0.208 -0.221c 0.117 0 0.195 0.117 0.234 0.338l 0.351 2.236c 0.013 0.065 0.026 0.143 0.026 0.221c 0 0.13 -0.13 0.195 -0.403 0.195h -7.124c -0.338 0 -0.364 -0.039 -0.468 -0.286l -0.767 -2.262c -0.039 -0.117 -0.065 -0.195 -0.078 -0.247c 0 -0.13 0.065 -0.195 0.208 -0.195c 0.104 0 0.195 0.104 0.26 0.299c 0.325 0.949 0.65 1.534 0.949 1.781c 0.338 0.273 0.988 0.403 1.937 0.403h 0.507c 0.143 0 0.299 0.013 0.299 -0.091Z "/></symbol><symbol id="g7AF10AFFE59D420B8F89A40B982EF05" overflow="visible"><path d="M 0 0m 12.051 3.029c 0.104 0.052 0.156 0.13 0.156 0.221c 0 0.091 -0.052 0.169 -0.156 0.221c -0.793 0.208 -1.599 0.663 -2.405 1.352c -0.585 0.507 -1.04 1.092 -1.378 1.768c -0.052 0.117 -0.143 0.169 -0.273 0.169c -0.208 0 -0.312 -0.104 -0.312 -0.312c 0 -0.026 0.013 -0.065 0.026 -0.13c 0.299 -0.572 0.663 -1.079 1.079 -1.521h -7.696c -0.208 0 -0.312 -0.104 -0.312 -0.299c 0 -0.208 0.104 -0.312 0.312 -0.312h 8.372c 0.481 -0.39 1.014 -0.702 1.573 -0.936c -0.559 -0.234 -1.092 -0.546 -1.573 -0.936h -8.372c -0.208 0 -0.312 -0.104 -0.312 -0.312c 0 -0.195 0.104 -0.299 0.312 -0.299h 7.696c -0.416 -0.442 -0.78 -0.949 -1.079 -1.521c -0.013 -0.065 -0.026 -0.104 -0.026 -0.13c 0 -0.208 0.104 -0.312 0.312 -0.312c 0.13 0 0.221 0.052 0.273 0.169c 0.338 0.676 0.793 1.261 1.378 1.768c 0.806 0.689 1.612 1.144 2.405 1.352Z "/></symbol><symbol id="g6B3DB0E0ADE6D994825CC39624067234" overflow="visible"><path d="M 0 0m 3.497 8.658c -0.533 -0.546 -1.313 -0.819 -2.34 -0.819v -0.507c 0.676 0 1.235 0.104 1.664 0.312v -6.578c 0 -0.234 -0.052 -0.39 -0.169 -0.455c -0.117 -0.065 -0.442 -0.104 -0.962 -0.104h -0.455v -0.507c 0.325 0.026 1.027 0.039 2.106 0.039c 1.079 0 1.781 -0.013 2.106 -0.039v 0.507h -0.455c -0.533 0 -0.858 0.039 -0.962 0.104c -0.104 0.065 -0.169 0.221 -0.169 0.455v 7.202c 0 0.312 -0.026 0.39 -0.364 0.39Z "/></symbol><symbol id="g21E6026C55295689503B3E9C99FAF46D" overflow="visible"><path d="M 0 0m 3.081 8.658c -0.663 0 -1.222 -0.234 -1.703 -0.702c -0.481 -0.468 -0.728 -1.014 -0.728 -1.677c 0 -0.442 0.325 -0.767 0.728 -0.767c 0.39 0 0.715 0.338 0.715 0.728c 0 0.429 -0.312 0.728 -0.728 0.728c -0.039 0 -0.065 0 -0.091 -0.013c 0.247 0.637 0.819 1.196 1.638 1.196c 1.066 0 1.664 -0.923 1.664 -2.041c 0 -0.871 -0.442 -1.807 -1.326 -2.795l -2.444 -2.756c -0.169 -0.195 -0.156 -0.182 -0.156 -0.559h 4.823l 0.377 2.34h -0.429c -0.104 -0.663 -0.195 -1.04 -0.273 -1.157c -0.065 -0.065 -0.455 -0.091 -1.17 -0.091h -2.171l 1.261 1.235c 0.884 0.832 2.002 1.729 2.379 2.418c 0.26 0.455 0.39 0.91 0.39 1.365c 0 1.534 -1.196 2.548 -2.756 2.548Z "/></symbol><symbol id="gE9E0C553A910389E98181E1EB82F3CA5" overflow="visible"><path d="M 0 0m 6.474 1.872c 0 0.117 -0.065 0.182 -0.208 0.182c -0.104 0 -0.182 -0.091 -0.221 -0.273c -0.26 -1.027 -0.572 -1.547 -0.923 -1.547c -0.221 0 -0.338 0.182 -0.338 0.546c 0 0.169 0.052 0.481 0.169 0.936l 0.741 2.925c 0.065 0.247 0.091 0.39 0.091 0.455c 0 0.26 -0.143 0.39 -0.429 0.39c -0.273 0 -0.455 -0.156 -0.546 -0.455c -0.273 0.481 -0.663 0.715 -1.157 0.715c -0.845 0 -1.586 -0.429 -2.236 -1.287c -0.598 -0.806 -0.897 -1.638 -0.897 -2.509c 0 -1.131 0.663 -2.093 1.755 -2.093c 0.559 0 1.105 0.299 1.625 0.897c 0.143 -0.494 0.585 -0.897 1.196 -0.897c 0.897 0 1.17 1.053 1.378 2.015Z m -2.041 2.99c 0.117 -0.273 0.182 -0.455 0.182 -0.572c 0 -0.052 -0.013 -0.117 -0.026 -0.208l -0.637 -2.496c -0.039 -0.143 -0.13 -0.299 -0.247 -0.455c -0.481 -0.598 -0.949 -0.897 -1.404 -0.897c -0.507 0 -0.767 0.39 -0.767 1.157c 0 0.312 0.078 0.78 0.234 1.404c 0.273 1.105 0.663 1.846 1.144 2.249c 0.26 0.221 0.507 0.325 0.754 0.325c 0.351 0 0.611 -0.169 0.767 -0.507Z "/></symbol><symbol id="g8A6A9074F91D642F82CC8BE39AC39D3A" overflow="visible"><path d="M 0 0m 1.0829 3.8584c 0.2912 0 0.5096 0.2184 0.5096 0.5096c 0 0.3276 -0.1729 0.5005 -0.5096 0.5096c 0.2002 0.4277 0.6552 0.7735 1.2467 0.7735c 0.8008 0 1.3286 -0.6006 1.3286 -1.4014c 0 -0.4368 -0.1547 -0.8554 -0.4732 -1.2649c -0.1547 -0.2093 -0.273 -0.3549 -0.3549 -0.4368l -2.1567 -2.1385c -0.1183 -0.1092 -0.1001 -0.1365 -0.1001 -0.4095h 3.7492l 0.2821 1.7108h -0.3822c -0.0637 -0.4823 -0.1365 -0.7644 -0.2184 -0.8281c -0.0455 -0.0273 -0.3276 -0.0455 -0.8645 -0.0455h -1.547c 0.6097 0.5369 1.1739 1.0192 1.7108 1.4469c 0.4095 0.3185 0.7007 0.6006 0.8827 0.8463c 0.273 0.3549 0.4095 0.728 0.4095 1.1193c 0 0.5642 -0.2184 1.0101 -0.6643 1.3377c -0.3913 0.3003 -0.8827 0.455 -1.4651 0.455c -0.5005 0 -0.9282 -0.1456 -1.3013 -0.4368c -0.3913 -0.3185 -0.5915 -0.7189 -0.5915 -1.2103c 0 -0.3094 0.2275 -0.5369 0.5096 -0.5369Z "/></symbol></defs></svg>