<svg viewBox="0 0 230.726311111 16.679" width="230.726311111pt" height="16.679pt" xmlns="http://www.w3.org/2000/svg" xmlns:xlink="http://www.w3.org/1999/xlink" xmlns:h5="http://www.w3.org/1999/xhtml"><g transform="matrix(1 0 0 -1 6.5 12.779)"><use xlink:href="#gDEB83DEFA453EA333E9964337D78E6E1" x="0" y="0" fill="#e6edf3" fill-rule="nonzero"/></g><g transform="matrix(1 0 0 -1 23.826111111 12.779)"><use xlink:href="#g13AFF74D87C474CFAF661EEAD0458F8B" x="0" y="0" fill="#e6edf3" fill-rule="nonzero"/></g><g transform="matrix(1 0 0 -1 37.551222222 12.779)"><use xlink:href="#gACA2FE1DD062579B79E6E19150F5B03F" x="0" y="0" fill="#e6edf3" fill-rule="nonzero"/></g><g transform="matrix(1 0 0 -1 56.205572222 7.657)"><use xlink:href="#gF8B12D28FBBE51325C3135F1AF502CFC" x="0" y="0" fill="#e6edf3" fill-rule="nonzero"/></g><g transform="matrix(1 0 0 -1 50.668222222 17.264)"><use xlink:href="#g8A6A9074F91D642F82CC8BE39AC39D3A" x="0" y="0" fill="#e6edf3" fill-rule="nonzero"/></g><g transform="matrix(1 0 0 -1 55.846122222 17.264)"><use xlink:href="#gCC5579AAC0EE5A3145B8A0F2ECFB97BD" x="0" y="0" fill="#e6edf3" fill-rule="nonzero"/></g><g transform="matrix(1 0 0 -1 61.961322222 17.264)"><use xlink:href="#gC8D3C41E96247D923393A2468BB66E86" x="0" y="0" fill="#e6edf3" fill-rule="nonzero"/></g><path fill="none" stroke="#e6edf3" stroke-width="0.624" stroke-linecap="butt" stroke-linejoin="miter" stroke-miterlimit="4" transform="translate(50.668222222 9.529)" d="M 0 0h 16.2071"/><g transform="matrix(1 0 0 -1 68.175322222 12.779)"><use xlink:href="#gCD11787F63AFA6F24E21FEAF474C7C55" x="0" y="0" fill="#e6edf3" fill-rule="nonzero"/></g><g transform="matrix(1 0 0 -1 69.540322222 12.779)"><use xlink:href="#g5B90E9196699B0DF3EE96BEA297F231B" x="0" y="0" fill="#e6edf3" fill-rule="nonzero"/></g><g transform="matrix(1 0 0 -1 89.677322222 12.779)"><use xlink:href="#g7AF10AFFE59D420B8F89A40B982EF05" x="0" y="0" fill="#e6edf3" fill-rule="nonzero"/></g><g transform="matrix(1 0 0 -1 115.677322222 12.779)"><use xlink:href="#g9A821B85A19606F12AFA84257EC05DE9" x="0" y="0" fill="#e6edf3" fill-rule="nonzero"/></g><g transform="matrix(1 0 0 -1 127.143322222 12.779)"><use xlink:href="#g2D7122AD31FABF41BED931716B883F58" x="0" y="0" fill="#e6edf3" fill-rule="nonzero"/></g><g transform="matrix(1 0 0 -1 132.200322222 12.779)"><use xlink:href="#gF5FB9F3934311C9D089606536CC9B01A" x="0" y="0" fill="#e6edf3" fill-rule="nonzero"/></g><g transform="matrix(1 0 0 -1 138.232322222 12.779)"><use xlink:href="#gEFA988DEC565252013B2D05DB9DFDA82" x="0" y="0" fill="#e6edf3" fill-rule="nonzero"/></g><g transform="matrix(1 0 0 -1 144.012988889 12.779)"><use xlink:href="#g60E61677E5DD2EBB7ED3D15DA438AEBB" x="0" y="0" fill="#e6edf3" fill-rule="nonzero"/></g><g transform="matrix(1 0 0 -1 150.291988889 12.779)"><use xlink:href="#g2F93E6EEEE2061842AA37F49EEA2F1A2" x="0" y="0" fill="#e6edf3" fill-rule="nonzero"/></g><g transform="matrix(1 0 0 -1 158.9601 12.779)"><use xlink:href="#g13AFF74D87C474CFAF661EEAD0458F8B" x="0" y="0" fill="#e6edf3" fill-rule="nonzero"/></g><g transform="matrix(1 0 0 -1 172.685211111 12.779)"><use xlink:href="#gA32CAC846971E9468FADD933D647D41A" x="0" y="0" fill="#e6edf3" fill-rule="nonzero"/></g><g transform="matrix(1 0 0 -1 180.524211111 12.779)"><use xlink:href="#g2D7122AD31FABF41BED931716B883F58" x="0" y="0" fill="#e6edf3" fill-rule="nonzero"/></g><g transform="matrix(1 0 0 -1 185.581211111 12.779)"><use xlink:href="#g60E61677E5DD2EBB7ED3D15DA438AEBB" x="0" y="0" fill="#e6edf3" fill-rule="nonzero"/></g><g transform="matrix(1 0 0 -1 191.860211111 12.779)"><use xlink:href="#g2F93E6EEEE2061842AA37F49EEA2F1A2" x="0" y="0" fill="#e6edf3" fill-rule="nonzero"/></g><g transform="matrix(1 0 0 -1 199.259161111 7.657)"><use xlink:href="#g528A59098A0D3781770F15CFBE29D3CD" x="0" y="0" fill="#e6edf3" fill-rule="nonzero"/></g><g transform="matrix(1 0 0 -1 208.249961111 7.657)"><use xlink:href="#gF8B12D28FBBE51325C3135F1AF502CFC" x="0" y="0" fill="#e6edf3" fill-rule="nonzero"/></g><g transform="matrix(1 0 0 -1 198.217211111 17.264)"><use xlink:href="#g8A6A9074F91D642F82CC8BE39AC39D3A" x="0" y="0" fill="#e6edf3" fill-rule="nonzero"/></g><g transform="matrix(1 0 0 -1 203.395111111 17.264)"><use xlink:href="#gCC5579AAC0EE5A3145B8A0F2ECFB97BD" x="0" y="0" fill="#e6edf3" fill-rule="nonzero"/></g><g transform="matrix(1 0 0 -1 209.510311111 17.264)"><use xlink:href="#gC8D3C41E96247D923393A2468BB66E86" x="0" y="0" fill="#e6edf3" fill-rule="nonzero"/></g><path fill="none" stroke="#e6edf3" stroke-width="0.624" stroke-linecap="butt" stroke-linejoin="miter" stroke-miterlimit="4" transform="translate(198.217211111 9.529)" d="M 0 0h 16.2071"/><g transform="matrix(1 0 0 -1 215.724311111 12.779)"><use xlink:href="#gCD11787F63AFA6F24E21FEAF474C7C55" x="0" y="0" fill="#e6edf3" fill-rule="nonzero"/></g><g transform="matrix(1 0 0 -1 217.089311111 12.779)"><use xlink:href="#g5B90E9196699B0DF3EE96BEA297F231B" x="0" y="0" fill="#e6edf3" fill-rule="nonzero"/></g><defs><symbol id="gDEB83DEFA453EA333E9964337D78E6E1" overflow="visible"><path d="M 0 0m 13.351 8.684c 0 0.169 -0.13 0.234 -0.286 0.234c -0.325 0 -0.663 -0.026 -0.988 -0.026l -0.975 -0.013l -1.001 0.013c -0.338 0 -0.689 0.026 -1.027 0.026c -0.117 0 -0.377 0 -0.377 -0.377c 0 -0.234 0.169 -0.234 0.546 -0.234c 0.273 0 0.52 -0.013 0.793 -0.026l -0.832 -3.341h -4.238l 0.819 3.315c 0.286 0.052 0.741 0.052 0.884 0.052c 0.169 0 0.429 0 0.481 0.039c 0.13 0.091 0.143 0.338 0.143 0.338c 0 0.169 -0.13 0.234 -0.286 0.234c -0.325 0 -0.663 -0.026 -0.988 -0.026l -0.975 -0.013l -1.001 0.013c -0.338 0 -0.689 0.026 -1.027 0.026c -0.117 0 -0.377 0 -0.377 -0.377c 0 -0.234 0.169 -0.234 0.546 -0.234c 0.273 0 0.52 -0.013 0.793 -0.026l -1.859 -7.41c -0.052 -0.208 -0.065 -0.221 -0.299 -0.247c -0.221 -0.013 -0.481 -0.013 -0.689 -0.013c -0.338 0 -0.364 0 -0.416 -0.026c -0.156 -0.091 -0.156 -0.299 -0.156 -0.351c 0 0 0 -0.234 0.286 -0.234c 0.325 0 0.663 0.026 0.988 0.026l 0.988 0.013l 1.001 -0.013c 0.338 0 0.689 -0.026 1.014 -0.026c 0.13 0 0.234 0 0.299 0.091c 0.052 0.078 0.078 0.286 0.078 0.286c 0 0.234 -0.182 0.234 -0.533 0.234c -0.273 0 -0.52 0.013 -0.793 0.026l 0.923 3.692h 4.238l -0.871 -3.458c -0.052 -0.208 -0.065 -0.221 -0.299 -0.247c -0.221 -0.013 -0.481 -0.013 -0.689 -0.013c -0.338 0 -0.364 0 -0.416 -0.026c -0.156 -0.091 -0.156 -0.299 -0.156 -0.351c 0 0 0 -0.234 0.286 -0.234c 0.325 0 0.663 0.026 0.988 0.026l 0.988 0.013l 1.001 -0.013c 0.338 0 0.689 -0.026 1.014 -0.026c 0.13 0 0.234 0 0.299 0.091c 0.052 0.078 0.078 0.286 0.078 0.286c 0 0.234 -0.182 0.234 -0.533 0.234c -0.273 0 -0.52 0.013 -0.793 0.026l 1.898 7.618c 0.286 0.052 0.741 0.052 0.884 0.052c 0.169 0 0.429 0 0.481 0.039c 0.13 0.091 0.143 0.338 0.143 0.338Z "/></symbol><symbol id="g13AFF74D87C474CFAF661EEAD0458F8B" overflow="visible"><path d="M 0 0m 9.074 4.771h -8.034c -0.208 0 -0.312 -0.104 -0.312 -0.299c 0 -0.195 0.104 -0.299 0.312 -0.299h 8.034c 0.208 0 0.312 0.104 0.312 0.299c 0 0.156 -0.143 0.299 -0.312 0.299Z m 0 -2.444h -8.034c -0.208 0 -0.312 -0.104 -0.312 -0.299c 0 -0.195 0.104 -0.299 0.312 -0.299h 8.034c 0.208 0 0.312 0.104 0.312 0.299c 0 0.169 -0.143 0.299 -0.312 0.299Z "/></symbol><symbol id="gACA2FE1DD062579B79E6E19150F5B03F" overflow="visible"><path d="M 0 0m 11.232 8.879c -0.247 0 -1.053 -0.039 -1.3 -0.039c -0.247 0 -1.066 0.039 -1.313 0.039c -0.195 0 -0.286 -0.104 -0.286 -0.312c 0 -0.117 0.091 -0.182 0.286 -0.195c 0.546 0 0.819 -0.169 0.819 -0.507c 0 -0.078 -0.013 -0.169 -0.026 -0.26l -1.404 -5.564l -2.795 6.565c -0.104 0.247 -0.13 0.273 -0.455 0.273h -1.729c -0.312 0 -0.429 -0.026 -0.429 -0.312c 0 -0.13 0.143 -0.195 0.416 -0.195c 0.546 0 0.819 -0.013 0.832 -0.052l -1.729 -6.89c -0.117 -0.507 -0.416 -0.793 -0.884 -0.884c -0.338 -0.039 -0.728 0.013 -0.728 -0.351c 0 -0.13 0.078 -0.195 0.221 -0.195c 0.234 0 1.04 0.039 1.287 0.039c 0.247 0 1.079 -0.039 1.326 -0.039c 0.195 0 0.286 0.104 0.286 0.312c 0 0.117 -0.104 0.182 -0.312 0.195c -0.533 0.013 -0.793 0.182 -0.793 0.507c 0 0.065 0.013 0.156 0.039 0.286l 1.677 6.643l 3.25 -7.67c 0.078 -0.182 0.182 -0.273 0.299 -0.273c 0.117 0 0.195 0.104 0.247 0.312l 1.807 7.15c 0.169 0.663 0.533 0.897 1.339 0.91c 0.182 0.013 0.273 0.117 0.273 0.325c -0.039 0.117 -0.052 0.182 -0.221 0.182Z "/></symbol><symbol id="gF8B12D28FBBE51325C3135F1AF502CFC" overflow="visible"><path d="M 0 0m 4.8776 6.0424c 0 0.1183 -0.0637 0.1729 -0.182 0.1729c -0.3822 0 -0.8099 -0.0455 -1.2012 -0.0364l -0.6188 0.0091c -0.1183 0 -0.5005 0.0273 -0.6188 0.0273c -0.1547 0 -0.2275 -0.0819 -0.2275 -0.2366c 0 -0.0819 0.0273 -0.1274 0.091 -0.1365c 0.1001 -0.0091 0.182 -0.0182 0.2366 -0.0182c 0.3276 -0.0182 0.5551 -0.0091 0.5551 -0.1092c 0 -0.0273 -0.0091 -0.091 -0.0364 -0.182l -1.1921 -4.7775c -0.0273 -0.1092 -0.0546 -0.182 -0.0819 -0.2275c -0.0637 -0.091 -0.2821 -0.1365 -0.6552 -0.1365c -0.2275 0 -0.364 0 -0.364 -0.2275v -0.0455c 0.0273 -0.0819 0.0819 -0.1183 0.182 -0.1183c 0.2093 0 0.9737 0.0364 1.2012 0.0364l 0.6188 -0.0091c 0.1183 0 0.5005 -0.0273 0.6188 -0.0273c 0.1547 0 0.2275 0.0819 0.2275 0.2366c 0 0.1001 -0.0637 0.1456 -0.182 0.1547c -0.2366 0.0091 -0.4095 0.0182 -0.5278 0.0182c -0.0728 0.0091 -0.1729 0.0455 -0.1729 0.1001l 1.2285 4.9504c 0.0455 0.182 0.1365 0.2912 0.2639 0.3367c 0.0455 0.0182 0.2093 0.0273 0.4732 0.0273c 0.2457 0 0.364 0.0273 0.364 0.2184Z "/></symbol><symbol id="g8A6A9074F91D642F82CC8BE39AC39D3A" overflow="visible"><path d="M 0 0m 1.0829 3.8584c 0.2912 0 0.5096 0.2184 0.5096 0.5096c 0 0.3276 -0.1729 0.5005 -0.5096 0.5096c 0.2002 0.4277 0.6552 0.7735 1.2467 0.7735c 0.8008 0 1.3286 -0.6006 1.3286 -1.4014c 0 -0.4368 -0.1547 -0.8554 -0.4732 -1.2649c -0.1547 -0.2093 -0.273 -0.3549 -0.3549 -0.4368l -2.1567 -2.1385c -0.1183 -0.1092 -0.1001 -0.1365 -0.1001 -0.4095h 3.7492l 0.2821 1.7108h -0.3822c -0.0637 -0.4823 -0.1365 -0.7644 -0.2184 -0.8281c -0.0455 -0.0273 -0.3276 -0.0455 -0.8645 -0.0455h -1.547c 0.6097 0.5369 1.1739 1.0192 1.7108 1.4469c 0.4095 0.3185 0.7007 0.6006 0.8827 0.8463c 0.273 0.3549 0.4095 0.728 0.4095 1.1193c 0 0.5642 -0.2184 1.0101 -0.6643 1.3377c -0.3913 0.3003 -0.8827 0.455 -1.4651 0.455c -0.5005 0 -0.9282 -0.1456 -1.3013 -0.4368c -0.3913 -0.3185 -0.5915 -0.7189 -0.5915 -1.2103c 0 -0.3094 0.2275 -0.5369 0.5096 -0.5369Z "/></symbol><symbol id="gCC5579AAC0EE5A3145B8A0F2ECFB97BD" overflow="visible"><path d="M 0 0m 4.0768 -0.091c 0.2275 0 0.455 0.2093 0.455 0.4368c 0 0.0455 -0.0273 0.1183 -0.0728 0.2184c -0.2184 0.4095 -0.3276 0.9282 -0.3276 1.5561c 0 0.3367 0.0364 0.7098 0.1183 1.1193h 1.092c 0.3458 0 0.5187 0.1274 0.5187 0.3913c 0 0.1911 -0.1365 0.2912 -0.4186 0.2912h -3.3852c -0.364 0 -0.7189 -0.1547 -1.0556 -0.4641c -0.1183 -0.1183 -0.2457 -0.2639 -0.3822 -0.4459c -0.1365 -0.182 -0.2093 -0.3003 -0.2093 -0.3458c 0 -0.1001 0.0637 -0.1456 0.1911 -0.1456c 0.0728 0 0.1365 0.0364 0.1911 0.1092c 0.2912 0.4095 0.6825 0.6097 1.183 0.6097h 0.5005c -0.1911 -0.6825 -0.5733 -1.5925 -1.1284 -2.7482c -0.0273 -0.0637 -0.0546 -0.1001 -0.0637 -0.1092c -0.0182 -0.0819 -0.0273 -0.1274 -0.0273 -0.1547c 0 -0.2093 0.1183 -0.3185 0.3458 -0.3185c 0.2002 0 0.364 0.1638 0.5005 0.4914c 0.0273 0.0819 0.1001 0.3276 0.2093 0.7462l 0.546 2.093h 1.001c -0.2184 -0.8645 -0.3276 -1.5379 -0.3276 -2.0202c 0 -0.5369 0.1365 -1.3104 0.546 -1.3104Z "/></symbol><symbol id="gC8D3C41E96247D923393A2468BB66E86" overflow="visible"><path d="M 0 0m 4.6592 3.3215c 0 0.4732 -0.4823 0.6916 -0.9828 0.6916c -0.4641 0 -0.8827 -0.2002 -1.2467 -0.6006c -0.0546 0.1456 -0.1365 0.2639 -0.2548 0.364c -0.2093 0.1547 -0.4368 0.2366 -0.6825 0.2366c -0.3094 0 -0.5551 -0.1547 -0.728 -0.4732c -0.2275 -0.3913 -0.3367 -0.7007 -0.3367 -0.9282c 0 -0.1001 0.0637 -0.1547 0.1911 -0.1547c 0.182 0 0.1729 0.1001 0.2275 0.2912c 0.1547 0.6279 0.364 0.9464 0.6188 0.9464c 0.1729 0 0.2639 -0.1365 0.2639 -0.4095c 0 -0.1001 -0.0455 -0.3367 -0.1456 -0.728l -0.4823 -1.9474c -0.0637 -0.2457 -0.091 -0.3731 -0.091 -0.3822c 0 -0.2093 0.1092 -0.3185 0.3367 -0.3185c 0.3185 0 0.4095 0.2002 0.4823 0.5005c 0.2002 0.8281 0.3549 1.4469 0.4641 1.8746c 0.0819 0.2912 0.1183 0.4459 0.1183 0.455c 0.0091 0.0455 0.0728 0.1547 0.1911 0.3185c 0.3003 0.4277 0.6552 0.637 1.0647 0.637c 0.1547 0 0.2912 -0.0273 0.4004 -0.0819c -0.2275 -0.1001 -0.3367 -0.2639 -0.3367 -0.5005c 0 -0.2184 0.1729 -0.3731 0.3913 -0.3731c 0.3094 0 0.5369 0.273 0.5369 0.5824Z "/></symbol><symbol id="gCD11787F63AFA6F24E21FEAF474C7C55" overflow="visible"><path d="M 0 0m 6.539 5.746c -0.221 0 -0.416 -0.039 -0.611 -0.104c -0.819 -0.273 -1.391 -1.079 -1.716 -1.82c -0.546 -1.209 -0.702 -1.703 -1.105 -3.068c -1.339 0.273 -2.015 0.884 -2.015 1.846c 0 0.871 0.611 2.132 1.04 2.626c 0.078 0.091 0.117 0.156 0.117 0.195c 0 0.117 -0.065 0.182 -0.208 0.182c -0.221 0 -0.507 -0.377 -0.858 -1.131c -0.351 -0.754 -0.533 -1.43 -0.533 -2.015c 0 -1.352 1.027 -2.21 2.21 -2.496l -0.663 -2.106c -0.052 -0.143 -0.078 -0.234 -0.078 -0.273c 0 -0.273 0.143 -0.416 0.429 -0.416c 0.247 0 0.416 0.13 0.52 0.377l 0.442 2.301c 0.143 -0.013 0.26 -0.013 0.377 -0.013c 1.066 0 2.015 0.416 2.873 1.248c 0.858 0.832 1.287 1.781 1.287 2.847c 0 1.014 -0.533 1.82 -1.508 1.82Z m 1.04 -2.106c 0 -0.819 -0.39 -1.534 -1.183 -2.145c -0.741 -0.546 -1.534 -0.819 -2.392 -0.819c -0.078 0 -0.156 0 -0.221 0.013c -0.078 0 -0.117 0 -0.117 -0.013c 0.195 1.027 0.312 1.638 0.364 1.82c 0.299 1.027 1.183 2.405 2.379 2.405c 0.728 0 1.17 -0.52 1.17 -1.261Z "/></symbol><symbol id="g5B90E9196699B0DF3EE96BEA297F231B" overflow="visible"><path d="M 0 0m 5.018 6.695l 0.221 0.234l -1.989 2.093l -1.989 -2.093l 0.221 -0.234l 1.768 1.339Z "/></symbol><symbol id="g7AF10AFFE59D420B8F89A40B982EF05" overflow="visible"><path d="M 0 0m 12.051 3.029c 0.104 0.052 0.156 0.13 0.156 0.221c 0 0.091 -0.052 0.169 -0.156 0.221c -0.793 0.208 -1.599 0.663 -2.405 1.352c -0.585 0.507 -1.04 1.092 -1.378 1.768c -0.052 0.117 -0.143 0.169 -0.273 0.169c -0.208 0 -0.312 -0.104 -0.312 -0.312c 0 -0.026 0.013 -0.065 0.026 -0.13c 0.299 -0.572 0.663 -1.079 1.079 -1.521h -7.696c -0.208 0 -0.312 -0.104 -0.312 -0.299c 0 -0.208 0.104 -0.312 0.312 -0.312h 8.372c 0.481 -0.39 1.014 -0.702 1.573 -0.936c -0.559 -0.234 -1.092 -0.546 -1.573 -0.936h -8.372c -0.208 0 -0.312 -0.104 -0.312 -0.312c 0 -0.195 0.104 -0.299 0.312 -0.299h 7.696c -0.416 -0.442 -0.78 -0.949 -1.079 -1.521c -0.013 -0.065 -0.026 -0.104 -0.026 -0.13c 0 -0.208 0.104 -0.312 0.312 -0.312c 0.13 0 0.221 0.052 0.273 0.169c 0.338 0.676 0.793 1.261 1.378 1.768c 0.806 0.689 1.612 1.144 2.405 1.352Z "/></symbol><symbol id="g9A821B85A19606F12AFA84257EC05DE9" overflow="visible"><path d="M 0 0m 11.102 7.111c 0 1.066 -0.936 1.807 -2.769 1.807h -5.213c -0.26 0 -0.481 0 -0.481 -0.377c 0 -0.234 0.169 -0.234 0.546 -0.234c 0.273 0 0.52 -0.013 0.793 -0.026l -1.859 -7.41c -0.052 -0.208 -0.065 -0.221 -0.299 -0.247c -0.221 -0.013 -0.481 -0.013 -0.689 -0.013c -0.338 0 -0.364 0 -0.416 -0.026c -0.156 -0.091 -0.156 -0.299 -0.156 -0.351c 0 -0.234 0.234 -0.234 0.442 -0.234h 5.512c 2.717 0 3.939 1.716 3.939 2.873c 0 1.118 -0.975 1.677 -2.171 1.781c 2.08 0.377 2.821 1.586 2.821 2.457Z m -1.755 0.065c 0 -0.91 -0.728 -2.301 -2.496 -2.301h -2.054l 0.806 3.198c 0.052 0.195 0.065 0.208 0.143 0.221c 0.117 0.013 0.208 0.013 0.351 0.013h 1.937c 0.26 0 1.313 0 1.313 -1.131Z m -0.702 -4.095c 0 -1.001 -0.663 -2.47 -2.509 -2.47h -2.08c -0.195 0 -0.221 0 -0.312 0.013l 0.936 3.783h 2.535c 0.338 0 1.43 0 1.43 -1.326Z "/></symbol><symbol id="g2D7122AD31FABF41BED931716B883F58" overflow="visible"><path d="M 0 0m 4.134 -3.224c 0.117 0 0.182 0.065 0.182 0.182c 0 0.039 -0.026 0.091 -0.065 0.143c -0.676 0.52 -1.222 1.378 -1.625 2.561c -0.351 1.027 -0.533 2.041 -0.533 3.042v 1.092c 0 1.001 0.182 2.015 0.533 3.042c 0.403 1.183 0.949 2.041 1.625 2.561c 0.039 0.039 0.065 0.091 0.065 0.143c 0 0.117 -0.065 0.182 -0.182 0.182c -0.013 0 -0.052 -0.013 -0.091 -0.039c -0.78 -0.598 -1.43 -1.482 -1.963 -2.665c -0.507 -1.131 -0.767 -2.197 -0.767 -3.224v -1.092c 0 -1.027 0.26 -2.093 0.767 -3.224c 0.533 -1.183 1.183 -2.067 1.963 -2.665c 0.039 -0.026 0.078 -0.039 0.091 -0.039Z "/></symbol><symbol id="gF5FB9F3934311C9D089606536CC9B01A" overflow="visible"><path d="M 0 0m 5.668 4.862c 0 0.546 -0.533 0.884 -1.105 0.884c -0.637 0 -1.17 -0.299 -1.612 -0.91c -0.13 0.507 -0.572 0.91 -1.183 0.91c -0.533 0 -0.923 -0.416 -1.196 -1.261c -0.13 -0.429 -0.195 -0.676 -0.195 -0.754c 0 -0.117 0.065 -0.182 0.208 -0.182c 0.065 0 0.104 0.013 0.143 0.039c 0.065 0.117 0.104 0.208 0.117 0.299c 0.234 0.988 0.533 1.482 0.884 1.482c 0.221 0 0.338 -0.182 0.338 -0.546c 0 -0.169 -0.065 -0.52 -0.195 -1.053l -0.741 -2.951c -0.039 -0.169 -0.117 -0.507 -0.117 -0.572c 0 -0.26 0.143 -0.39 0.416 -0.39c 0.26 0 0.429 0.13 0.52 0.39l 0.247 0.936c 0.143 0.559 0.234 0.923 0.273 1.092l 0.403 1.664c 0.026 0.104 0.13 0.273 0.299 0.52c 0.351 0.494 0.754 0.91 1.391 0.91c 0.156 0 0.286 -0.026 0.403 -0.091c -0.39 -0.117 -0.585 -0.364 -0.585 -0.715c 0 -0.338 0.182 -0.507 0.533 -0.507c 0.429 0 0.754 0.377 0.754 0.806Z "/></symbol><symbol id="gEFA988DEC565252013B2D05DB9DFDA82" overflow="visible"><path d="M 0 0m 1.807 1.378c -0.416 0 -0.689 -0.312 -0.689 -0.728c 0 -0.39 0.299 -0.715 0.689 -0.715c 0.182 0 0.338 0.052 0.455 0.169l 0.013 -0.104c 0 -0.819 -0.273 -1.521 -0.819 -2.08c -0.091 -0.104 -0.143 -0.182 -0.143 -0.234c 0 -0.13 0.052 -0.195 0.169 -0.195c 0.117 0 0.273 0.156 0.494 0.455c 0.442 0.624 0.663 1.313 0.663 2.054c 0 0.689 -0.234 1.378 -0.832 1.378Z "/></symbol><symbol id="g60E61677E5DD2EBB7ED3D15DA438AEBB" overflow="visible"><path d="M 0 0m 2.132 -0.143c 0.585 0 1.196 0.351 1.794 1.053c 1.04 1.209 1.989 3.445 1.989 5.564c 0 0.533 -0.091 1.092 -0.273 1.651c -0.234 0.689 -0.676 1.04 -1.313 1.04c -0.585 0 -1.17 -0.351 -1.781 -1.053c -1.04 -1.196 -2.002 -3.432 -2.002 -5.564c 0 -1.326 0.429 -2.691 1.586 -2.691Z m 2.184 8.918c 0.429 0 0.65 -0.494 0.65 -1.495c 0 -0.559 -0.13 -1.404 -0.39 -2.509h -2.561c 0.325 1.209 0.637 2.106 0.962 2.691c 0.481 0.871 0.936 1.313 1.339 1.313Z m -2.431 -4.524h 2.548c -0.247 -1.053 -0.546 -1.898 -0.871 -2.535c -0.507 -0.975 -0.975 -1.469 -1.43 -1.469c -0.429 0 -0.637 0.507 -0.637 1.508c 0 0.65 0.13 1.482 0.39 2.496Z "/></symbol><symbol id="g2F93E6EEEE2061842AA37F49EEA2F1A2" overflow="visible"><path d="M 0 0m 1.014 -3.185c 0.78 0.598 1.43 1.482 1.963 2.665c 0.507 1.131 0.767 2.197 0.767 3.224v 1.092c 0 1.027 -0.26 2.093 -0.767 3.224c -0.533 1.183 -1.183 2.067 -1.963 2.665c -0.039 0.026 -0.078 0.039 -0.091 0.039c -0.117 0 -0.182 -0.065 -0.182 -0.182c 0 -0.052 0.026 -0.104 0.065 -0.143c 0.676 -0.52 1.222 -1.378 1.625 -2.561c 0.351 -1.027 0.533 -2.041 0.533 -3.042v -1.092c 0 -1.001 -0.182 -2.015 -0.533 -3.042c -0.403 -1.183 -0.949 -2.041 -1.625 -2.561c -0.039 -0.052 -0.065 -0.104 -0.065 -0.143c 0 -0.117 0.065 -0.182 0.182 -0.182c 0.013 0 0.052 0.013 0.091 0.039Z "/></symbol><symbol id="gA32CAC846971E9468FADD933D647D41A" overflow="visible"><path d="M 0 0m 7.436 1.846c 0 0.117 -0.065 0.182 -0.208 0.182c -0.104 0 -0.182 -0.091 -0.221 -0.26c -0.26 -1.04 -0.572 -1.56 -0.923 -1.56c -0.221 0 -0.338 0.182 -0.338 0.546c 0 0.221 0.078 0.663 0.247 1.313l 0.364 1.391c 0.117 0.468 0.221 0.793 0.299 1.196l 0.078 0.364c 0.026 0.091 0.039 0.156 0.039 0.182c 0 0.273 -0.143 0.403 -0.429 0.403c -0.286 0 -0.468 -0.156 -0.546 -0.481l -0.936 -3.718c 0 -0.143 -0.208 -0.403 -0.624 -0.793c -0.286 -0.273 -0.611 -0.403 -0.988 -0.403c -0.598 0 -0.897 0.351 -0.897 1.066c 0 0.247 0.052 0.598 0.169 1.079l 0.546 2.158c 0.104 0.403 0.169 0.689 0.195 0.832c 0 0.273 -0.143 0.403 -0.429 0.403c -0.286 0 -0.468 -0.169 -0.559 -0.507l -1.846 -7.436c -0.026 -0.104 -0.039 -0.169 -0.039 -0.208c 0 -0.273 0.143 -0.403 0.416 -0.403c 0.195 0 0.351 0.104 0.494 0.299c 0.039 0.091 0.26 0.988 0.689 2.691c 0.312 -0.234 0.715 -0.351 1.209 -0.351c 0.767 0 1.274 0.403 1.677 0.871c 0.143 -0.481 0.572 -0.871 1.183 -0.871c 0.897 0 1.17 1.053 1.378 2.015Z "/></symbol><symbol id="g528A59098A0D3781770F15CFBE29D3CD" overflow="visible"><path d="M 0 0m 7.6258 6.1789c -0.182 0 -0.7735 0.0364 -0.9555 0.0364c -0.1456 0 -0.2184 -0.0819 -0.2184 -0.2366c 0 -0.1001 0.0819 -0.1547 0.2366 -0.1547c 0.3549 -0.0091 0.5369 -0.1183 0.5369 -0.3367c 0 -0.0455 -0.0091 -0.1092 -0.0273 -0.2093l -0.9646 -3.822l -2.2477 4.5864c -0.0728 0.1547 -0.1183 0.1729 -0.3367 0.1729h -1.2376c -0.2093 0 -0.3185 -0.0273 -0.3185 -0.2366c 0 -0.1001 0.1092 -0.1547 0.3276 -0.1547c 0.2184 0 0.3913 -0.0182 0.5369 -0.0455l -1.2012 -4.7684c -0.1183 -0.455 -0.3549 -0.5915 -0.9009 -0.6188c -0.1547 0 -0.2275 -0.0728 -0.2275 -0.2184c 0 -0.1183 0.0546 -0.1729 0.1729 -0.1729c 0.1729 0 0.7644 0.0364 0.9373 0.0364c 0.182 0 0.7735 -0.0364 0.9555 -0.0364c 0.1456 0 0.2184 0.0728 0.2184 0.2275c 0 0.1092 -0.0819 0.1638 -0.2457 0.1638c -0.3549 0.0091 -0.5278 0.0637 -0.5278 0.3458c 0 0.0455 0.0091 0.1183 0.0273 0.2184l 1.1375 4.5045l 2.5844 -5.2871c 0.0637 -0.1183 0.1365 -0.1729 0.2366 -0.1729c 0.1183 0 0.2184 0.0728 0.2184 0.2184l 1.2558 4.9686c 0.1183 0.4641 0.3458 0.6279 0.9191 0.637c 0.1456 0 0.2184 0.0728 0.2184 0.2275c 0 0.1092 -0.0546 0.1638 -0.1729 0.1638c -0.1729 0 -0.7644 -0.0364 -0.9373 -0.0364Z "/></symbol></defs></svg>