<svg viewBox="0 0 271.942522222 17.5175" width="271.942522222pt" height="17.5175pt" xmlns="http://www.w3.org/2000/svg" xmlns:xlink="http://www.w3.org/1999/xlink" xmlns:h5="http://www.w3.org/1999/xhtml"><g transform="matrix(1 0 0 -1 6.5 12.779)"><use xlink:href="#g219D7D161E803083B7D838AFD138262C" x="0" y="0" fill="#e6edf3" fill-rule="nonzero"/></g><g transform="matrix(1 0 0 -1 18.964111111 12.779)"><use xlink:href="#g13AFF74D87C474CFAF661EEAD0458F8B" x="0" y="0" fill="#e6edf3" fill-rule="nonzero"/></g><g transform="matrix(1 0 0 -1 33.989222222 7.657)"><use xlink:href="#g528A59098A0D3781770F15CFBE29D3CD" x="0" y="0" fill="#e6edf3" fill-rule="nonzero"/></g><g transform="matrix(1 0 0 -1 42.980022222 4.3537)"><use xlink:href="#g7594C19EACA82C804431EC922115ECFD" x="0" y="0" fill="#e6edf3" fill-rule="nonzero"/></g><g transform="matrix(1 0 0 -1 47.916122222 7.657)"><use xlink:href="#g60AED43247E540A54ACC98EC3D575461" x="0" y="0" fill="#e6edf3" fill-rule="nonzero"/></g><g transform="matrix(1 0 0 -1 38.350072222 17.264)"><use xlink:href="#g8A6A9074F91D642F82CC8BE39AC39D3A" x="0" y="0" fill="#e6edf3" fill-rule="nonzero"/></g><g transform="matrix(1 0 0 -1 43.527972222 17.264)"><use xlink:href="#gCC5579AAC0EE5A3145B8A0F2ECFB97BD" x="0" y="0" fill="#e6edf3" fill-rule="nonzero"/></g><path fill="none" stroke="#e6edf3" stroke-width="0.624" stroke-linecap="butt" stroke-linejoin="miter" stroke-miterlimit="4" transform="translate(33.989222222 9.529)" d="M 0 0h 20.0148"/><g transform="matrix(1 0 0 -1 57.470688889 12.7725)"><use xlink:href="#g76DBD581143076F3713CF567FD1C6AB1" x="0" y="0" fill="#e6edf3" fill-rule="nonzero"/></g><g transform="matrix(1 0 0 -1 66.115688889 5.5575)"><use xlink:href="#g8A6A9074F91D642F82CC8BE39AC39D3A" x="0" y="0" fill="#e6edf3" fill-rule="nonzero"/></g><g transform="matrix(1 0 0 -1 71.293588889 5.5575)"><use xlink:href="#gCC5579AAC0EE5A3145B8A0F2ECFB97BD" x="0" y="0" fill="#e6edf3" fill-rule="nonzero"/></g><g transform="matrix(1 0 0 -1 63.775688889 19.3505)"><use xlink:href="#g66C287F757172C4FBEE46C9B113A6E1F" x="0" y="0" fill="#e6edf3" fill-rule="nonzero"/></g><g transform="matrix(1 0 0 -1 81.603455556 6.3362)"><use xlink:href="#gFF16A71406285492465AAA8A0C1F3936" x="0" y="0" fill="#e6edf3" fill-rule="nonzero"/></g><g transform="matrix(1 0 0 -1 87.927955556 6.3362)"><use xlink:href="#g113F13A4D17198A1C07EDFC5CF3E0BE9" x="0" y="0" fill="#e6edf3" fill-rule="nonzero"/></g><g transform="matrix(1 0 0 -1 91.467855556 6.3362)"><use xlink:href="#g7E8E62BFA655667604C8BA305761E74A" x="0" y="0" fill="#e6edf3" fill-rule="nonzero"/></g><g transform="matrix(1 0 0 -1 96.418255556 6.3362)"><use xlink:href="#g46583585F9F2E82789E32589C97B74E" x="0" y="0" fill="#e6edf3" fill-rule="nonzero"/></g><g transform="matrix(1 0 0 -1 88.191855556 17.264)"><use xlink:href="#g8A6A9074F91D642F82CC8BE39AC39D3A" x="0" y="0" fill="#e6edf3" fill-rule="nonzero"/></g><path fill="none" stroke="#e6edf3" stroke-width="0.624" stroke-linecap="butt" stroke-linejoin="miter" stroke-miterlimit="4" transform="translate(81.603455556 9.529)" d="M 0 0h 18.3547"/><g transform="matrix(1 0 0 -1 101.258155556 12.779)"><use xlink:href="#g6BCCDCE0D843C0F823A4CE121D6D1649" x="0" y="0" fill="#e6edf3" fill-rule="nonzero"/></g><g transform="matrix(1 0 0 -1 108.330155556 12.779)"><use xlink:href="#g60E61677E5DD2EBB7ED3D15DA438AEBB" x="0" y="0" fill="#e6edf3" fill-rule="nonzero"/></g><g transform="matrix(1 0 0 -1 117.498044444 12.779)"><use xlink:href="#gB323F9E42E1C20C087FBF81136E27860" x="0" y="0" fill="#e6edf3" fill-rule="nonzero"/></g><g transform="matrix(1 0 0 -1 124.000933333 12.779)"><use xlink:href="#gBC3D9C1A249D0D4F874E09900DF515A4" x="0" y="0" fill="#e6edf3" fill-rule="nonzero"/><use xlink:href="#gA2276AEFE9378953E87817A497BFC175" x="3.614" y="0" fill="#e6edf3" fill-rule="nonzero"/></g><g transform="matrix(1 0 0 -1 134.842933333 12.779)"><use xlink:href="#g7AE04F15A7C3AC417269385A78E6B62E" x="0" y="0" fill="#e6edf3" fill-rule="nonzero"/></g><g transform="matrix(1 0 0 -1 142.633833333 7.657)"><use xlink:href="#g31B61B3DC86BBCC37CEA5A6A7246B2DC" x="0" y="0" fill="#e6edf3" fill-rule="nonzero"/></g><g transform="matrix(1 0 0 -1 142.096933333 17.264)"><use xlink:href="#gD387F7DE56A169B7DBC6F3E7C89336F3" x="0" y="0" fill="#e6edf3" fill-rule="nonzero"/></g><path fill="none" stroke="#e6edf3" stroke-width="0.624" stroke-linecap="butt" stroke-linejoin="miter" stroke-miterlimit="4" transform="translate(142.096933333 9.529)" d="M 0 0h 5.642"/><g transform="matrix(1 0 0 -1 149.038933333 12.779)"><use xlink:href="#g51B3DB8755C43AB79D2F02785B5613F6" x="0" y="0" fill="#e6edf3" fill-rule="nonzero"/></g><g transform="matrix(1 0 0 -1 158.604044444 12.779)"><use xlink:href="#g13AFF74D87C474CFAF661EEAD0458F8B" x="0" y="0" fill="#e6edf3" fill-rule="nonzero"/></g><g transform="matrix(1 0 0 -1 172.329155556 12.779)"><use xlink:href="#gA32CAC846971E9468FADD933D647D41A" x="0" y="0" fill="#e6edf3" fill-rule="nonzero"/></g><g transform="matrix(1 0 0 -1 180.168155556 15.99)"><use xlink:href="#g66C287F757172C4FBEE46C9B113A6E1F" x="0" y="0" fill="#e6edf3" fill-rule="nonzero"/></g><g transform="matrix(1 0 0 -1 186.074055556 12.779)"><use xlink:href="#g2F389E882241F7D883BD9BE49B9B556F" x="0" y="0" fill="#e6edf3" fill-rule="nonzero"/></g><g transform="matrix(1 0 0 -1 191.131055556 12.779)"><use xlink:href="#gA32CAC846971E9468FADD933D647D41A" x="0" y="0" fill="#e6edf3" fill-rule="nonzero"/></g><g transform="matrix(1 0 0 -1 198.970055556 15.99)"><use xlink:href="#gC8D3C41E96247D923393A2468BB66E86" x="0" y="0" fill="#e6edf3" fill-rule="nonzero"/></g><g transform="matrix(1 0 0 -1 204.612055556 12.779)"><use xlink:href="#g77D2A3BE49641BC9FE86B31DAB4932B4" x="0" y="0" fill="#e6edf3" fill-rule="nonzero"/></g><g transform="matrix(1 0 0 -1 210.969055556 7.657)"><use xlink:href="#g528A59098A0D3781770F15CFBE29D3CD" x="0" y="0" fill="#e6edf3" fill-rule="nonzero"/></g><g transform="matrix(1 0 0 -1 219.959855556 4.3537)"><use xlink:href="#g7594C19EACA82C804431EC922115ECFD" x="0" y="0" fill="#e6edf3" fill-rule="nonzero"/></g><g transform="matrix(1 0 0 -1 224.895955556 7.657)"><use xlink:href="#g60AED43247E540A54ACC98EC3D575461" x="0" y="0" fill="#e6edf3" fill-rule="nonzero"/></g><g transform="matrix(1 0 0 -1 215.329905556 17.264)"><use xlink:href="#g8A6A9074F91D642F82CC8BE39AC39D3A" x="0" y="0" fill="#e6edf3" fill-rule="nonzero"/></g><g transform="matrix(1 0 0 -1 220.507805556 17.264)"><use xlink:href="#gCC5579AAC0EE5A3145B8A0F2ECFB97BD" x="0" y="0" fill="#e6edf3" fill-rule="nonzero"/></g><path fill="none" stroke="#e6edf3" stroke-width="0.624" stroke-linecap="butt" stroke-linejoin="miter" stroke-miterlimit="4" transform="translate(210.969055556 9.529)" d="M 0 0h 20.0148"/><g transform="matrix(1 0 0 -1 234.450522222 12.779)"><use xlink:href="#gBC3D9C1A249D0D4F874E09900DF515A4" x="0" y="0" fill="#e6edf3" fill-rule="nonzero"/><use xlink:href="#gA2276AEFE9378953E87817A497BFC175" x="3.614" y="0" fill="#e6edf3" fill-rule="nonzero"/></g><g transform="matrix(1 0 0 -1 245.292522222 12.779)"><use xlink:href="#g7AE04F15A7C3AC417269385A78E6B62E" x="0" y="0" fill="#e6edf3" fill-rule="nonzero"/></g><g transform="matrix(1 0 0 -1 253.083422222 7.657)"><use xlink:href="#g31B61B3DC86BBCC37CEA5A6A7246B2DC" x="0" y="0" fill="#e6edf3" fill-rule="nonzero"/></g><g transform="matrix(1 0 0 -1 252.546522222 17.264)"><use xlink:href="#gD387F7DE56A169B7DBC6F3E7C89336F3" x="0" y="0" fill="#e6edf3" fill-rule="nonzero"/></g><path fill="none" stroke="#e6edf3" stroke-width="0.624" stroke-linecap="butt" stroke-linejoin="miter" stroke-miterlimit="4" transform="translate(252.546522222 9.529)" d="M 0 0h 5.642"/><g transform="matrix(1 0 0 -1 259.488522222 12.779)"><use xlink:href="#g51B3DB8755C43AB79D2F02785B5613F6" x="0" y="0" fill="#e6edf3" fill-rule="nonzero"/></g><defs><symbol id="g219D7D161E803083B7D838AFD138262C" overflow="visible"><path d="M 0 0m 6.76 8.671c 0 0.143 -0.091 0.208 -0.26 0.208l -1.898 -0.039l -1.703 0.039c -0.195 0.013 -0.299 -0.091 -0.299 -0.312c 0 -0.091 0.039 -0.156 0.117 -0.169c 0.117 -0.013 0.221 -0.026 0.286 -0.026c 0.403 -0.013 0.624 -0.039 0.689 -0.052c 0.065 -0.013 0.104 -0.052 0.104 -0.117c 0 -0.026 -0.013 -0.104 -0.052 -0.234l -1.716 -6.903c -0.078 -0.286 -0.208 -0.455 -0.403 -0.52c -0.078 -0.026 -0.312 -0.039 -0.715 -0.039c -0.273 0 -0.403 -0.104 -0.403 -0.312c 0 -0.13 0.13 -0.195 0.403 -0.195h 5.941c 0.325 0 0.351 0 0.442 0.247l 1.014 2.782c 0.039 0.091 0.052 0.156 0.052 0.195c 0 0.13 -0.065 0.195 -0.208 0.195c -0.13 0 -0.195 -0.117 -0.26 -0.299c -0.247 -0.637 -0.481 -1.118 -0.676 -1.417c -0.481 -0.728 -1.3 -1.196 -2.496 -1.196h -1.209c -0.143 0 -0.234 0 -0.273 0.013c -0.091 0 -0.13 0.026 -0.13 0.065c 0 0.026 0.026 0.117 0.065 0.286l 1.729 6.942c 0.078 0.299 0.247 0.468 0.494 0.533c 0.078 0.013 0.351 0.026 0.819 0.026c 0.364 0 0.546 0 0.546 0.299Z "/></symbol><symbol id="g13AFF74D87C474CFAF661EEAD0458F8B" overflow="visible"><path d="M 0 0m 9.074 4.771h -8.034c -0.208 0 -0.312 -0.104 -0.312 -0.299c 0 -0.195 0.104 -0.299 0.312 -0.299h 8.034c 0.208 0 0.312 0.104 0.312 0.299c 0 0.156 -0.143 0.299 -0.312 0.299Z m 0 -2.444h -8.034c -0.208 0 -0.312 -0.104 -0.312 -0.299c 0 -0.195 0.104 -0.299 0.312 -0.299h 8.034c 0.208 0 0.312 0.104 0.312 0.299c 0 0.169 -0.143 0.299 -0.312 0.299Z "/></symbol><symbol id="g528A59098A0D3781770F15CFBE29D3CD" overflow="visible"><path d="M 0 0m 7.6258 6.1789c -0.182 0 -0.7735 0.0364 -0.9555 0.0364c -0.1456 0 -0.2184 -0.0819 -0.2184 -0.2366c 0 -0.1001 0.0819 -0.1547 0.2366 -0.1547c 0.3549 -0.0091 0.5369 -0.1183 0.5369 -0.3367c 0 -0.0455 -0.0091 -0.1092 -0.0273 -0.2093l -0.9646 -3.822l -2.2477 4.5864c -0.0728 0.1547 -0.1183 0.1729 -0.3367 0.1729h -1.2376c -0.2093 0 -0.3185 -0.0273 -0.3185 -0.2366c 0 -0.1001 0.1092 -0.1547 0.3276 -0.1547c 0.2184 0 0.3913 -0.0182 0.5369 -0.0455l -1.2012 -4.7684c -0.1183 -0.455 -0.3549 -0.5915 -0.9009 -0.6188c -0.1547 0 -0.2275 -0.0728 -0.2275 -0.2184c 0 -0.1183 0.0546 -0.1729 0.1729 -0.1729c 0.1729 0 0.7644 0.0364 0.9373 0.0364c 0.182 0 0.7735 -0.0364 0.9555 -0.0364c 0.1456 0 0.2184 0.0728 0.2184 0.2275c 0 0.1092 -0.0819 0.1638 -0.2457 0.1638c -0.3549 0.0091 -0.5278 0.0637 -0.5278 0.3458c 0 0.0455 0.0091 0.1183 0.0273 0.2184l 1.1375 4.5045l 2.5844 -5.2871c 0.0637 -0.1183 0.1365 -0.1729 0.2366 -0.1729c 0.1183 0 0.2184 0.0728 0.2184 0.2184l 1.2558 4.9686c 0.1183 0.4641 0.3458 0.6279 0.9191 0.637c 0.1456 0 0.2184 0.0728 0.2184 0.2275c 0 0.1092 -0.0546 0.1638 -0.1729 0.1638c -0.1729 0 -0.7644 -0.0364 -0.9373 -0.0364Z "/></symbol><symbol id="g7594C19EACA82C804431EC922115ECFD" overflow="visible"><path d="M 0 0m 0.988 2.756c 0.234 0 0.403 0.169 0.403 0.403c 0 0.2275 -0.117 0.364 -0.3445 0.403c 0.2015 0.2925 0.5135 0.4355 0.936 0.4355c 0.6175 0 1.1115 -0.3835 1.1115 -0.9815c 0 -0.4095 -0.286 -0.858 -0.858 -1.3455l -1.56 -1.3325c -0.052 -0.0455 -0.078 -0.0845 -0.0845 -0.117v -0.221h 3.0225l 0.221 1.2935h -0.325c -0.0585 -0.351 -0.117 -0.546 -0.1755 -0.5915c -0.0325 -0.0195 -0.26 -0.0325 -0.6695 -0.0325h -1.1765c 0.8385 0.6175 1.0205 0.741 1.56 1.1245c 0.26 0.1885 0.442 0.364 0.5525 0.5265c 0.1495 0.2275 0.2275 0.4615 0.2275 0.702c 0 0.4355 -0.1885 0.767 -0.559 1.001c -0.3185 0.2015 -0.702 0.3055 -1.157 0.3055c -0.3835 0 -0.7215 -0.0975 -1.014 -0.286c -0.338 -0.2145 -0.507 -0.507 -0.507 -0.871c 0 -0.247 0.195 -0.416 0.3965 -0.416Z "/></symbol><symbol id="g60AED43247E540A54ACC98EC3D575461" overflow="visible"><path d="M 0 0m 2.0293 5.7239c 0 -0.0364 -0.0091 -0.1001 -0.0364 -0.1911c -0.4368 -1.7381 -0.8554 -3.4944 -1.3013 -5.2234c -0.0091 -0.0364 -0.0091 -0.0637 -0.0091 -0.0728c 0 -0.2184 0.1092 -0.3276 0.3367 -0.3276c 0.273 0 0.3822 0.1729 0.4641 0.4368l 0.3003 1.1921c 0.1001 0.4368 0.2002 0.9282 0.4095 1.2376c 0.4095 0.6279 0.8736 0.9373 1.4014 0.9373c 0.3276 0 0.4914 -0.2002 0.4914 -0.5915c 0 -0.3549 -0.1729 -0.9828 -0.5187 -1.9019c -0.091 -0.2457 -0.1365 -0.4095 -0.1365 -0.5005c 0 -0.4914 0.3913 -0.8099 0.8827 -0.8099c 0.4277 0 0.7735 0.2184 1.0192 0.6643c 0.2093 0.3731 0.3094 0.6188 0.3094 0.7462c 0 0.1001 -0.0637 0.1547 -0.182 0.1547c -0.0637 -0.0091 -0.1274 -0.0546 -0.1911 -0.1456c -0.0091 -0.0091 -0.0091 -0.0273 -0.0091 -0.0364c -0.2093 -0.7007 -0.5096 -1.0556 -0.9191 -1.0556c -0.1274 0 -0.1911 0.091 -0.1911 0.273c 0 0.1365 0.0728 0.3731 0.2093 0.7189c 0.3185 0.8099 0.4732 1.3923 0.4732 1.7472c 0 0.7098 -0.4004 1.0647 -1.2012 1.0647c -0.5187 0 -0.9828 -0.2184 -1.3923 -0.6552l 0.6461 2.6117c 0.0091 0.0182 0.0182 0.0728 0.0364 0.1547c 0 0.1092 -0.0546 0.1638 -0.1729 0.1638l -1.1557 -0.091c -0.1547 -0.0091 -0.2275 -0.091 -0.2275 -0.2457c 0 -0.1001 0.091 -0.1547 0.2639 -0.1547c 0.1638 0 0.4004 0.0091 0.4004 -0.1001Z "/></symbol><symbol id="g8A6A9074F91D642F82CC8BE39AC39D3A" overflow="visible"><path d="M 0 0m 1.0829 3.8584c 0.2912 0 0.5096 0.2184 0.5096 0.5096c 0 0.3276 -0.1729 0.5005 -0.5096 0.5096c 0.2002 0.4277 0.6552 0.7735 1.2467 0.7735c 0.8008 0 1.3286 -0.6006 1.3286 -1.4014c 0 -0.4368 -0.1547 -0.8554 -0.4732 -1.2649c -0.1547 -0.2093 -0.273 -0.3549 -0.3549 -0.4368l -2.1567 -2.1385c -0.1183 -0.1092 -0.1001 -0.1365 -0.1001 -0.4095h 3.7492l 0.2821 1.7108h -0.3822c -0.0637 -0.4823 -0.1365 -0.7644 -0.2184 -0.8281c -0.0455 -0.0273 -0.3276 -0.0455 -0.8645 -0.0455h -1.547c 0.6097 0.5369 1.1739 1.0192 1.7108 1.4469c 0.4095 0.3185 0.7007 0.6006 0.8827 0.8463c 0.273 0.3549 0.4095 0.728 0.4095 1.1193c 0 0.5642 -0.2184 1.0101 -0.6643 1.3377c -0.3913 0.3003 -0.8827 0.455 -1.4651 0.455c -0.5005 0 -0.9282 -0.1456 -1.3013 -0.4368c -0.3913 -0.3185 -0.5915 -0.7189 -0.5915 -1.2103c 0 -0.3094 0.2275 -0.5369 0.5096 -0.5369Z "/></symbol><symbol id="gCC5579AAC0EE5A3145B8A0F2ECFB97BD" overflow="visible"><path d="M 0 0m 4.0768 -0.091c 0.2275 0 0.455 0.2093 0.455 0.4368c 0 0.0455 -0.0273 0.1183 -0.0728 0.2184c -0.2184 0.4095 -0.3276 0.9282 -0.3276 1.5561c 0 0.3367 0.0364 0.7098 0.1183 1.1193h 1.092c 0.3458 0 0.5187 0.1274 0.5187 0.3913c 0 0.1911 -0.1365 0.2912 -0.4186 0.2912h -3.3852c -0.364 0 -0.7189 -0.1547 -1.0556 -0.4641c -0.1183 -0.1183 -0.2457 -0.2639 -0.3822 -0.4459c -0.1365 -0.182 -0.2093 -0.3003 -0.2093 -0.3458c 0 -0.1001 0.0637 -0.1456 0.1911 -0.1456c 0.0728 0 0.1365 0.0364 0.1911 0.1092c 0.2912 0.4095 0.6825 0.6097 1.183 0.6097h 0.5005c -0.1911 -0.6825 -0.5733 -1.5925 -1.1284 -2.7482c -0.0273 -0.0637 -0.0546 -0.1001 -0.0637 -0.1092c -0.0182 -0.0819 -0.0273 -0.1274 -0.0273 -0.1547c 0 -0.2093 0.1183 -0.3185 0.3458 -0.3185c 0.2002 0 0.364 0.1638 0.5005 0.4914c 0.0273 0.0819 0.1001 0.3276 0.2093 0.7462l 0.546 2.093h 1.001c -0.2184 -0.8645 -0.3276 -1.5379 -0.3276 -2.0202c 0 -0.5369 0.1365 -1.3104 0.546 -1.3104Z "/></symbol><symbol id="g76DBD581143076F3713CF567FD1C6AB1" overflow="visible"><path d="M 0 0m 6.461 10.465c -0.988 0 -1.651 -0.754 -1.989 -2.275c -0.052 -0.221 -0.117 -0.676 -0.208 -1.352l -0.169 -1.313c -0.182 -1.456 -0.299 -2.535 -0.351 -3.25l -0.247 -3.211c -0.091 -1.261 -0.299 -2.652 -1.313 -2.652c -0.273 0 -0.507 0.065 -0.702 0.195c 0.273 0.078 0.416 0.26 0.416 0.546c 0 0.351 -0.234 0.598 -0.585 0.598c -0.39 0 -0.585 -0.208 -0.585 -0.611c 0 -0.689 0.715 -1.118 1.456 -1.118c 1.053 0 1.781 0.78 2.171 2.327c 0.273 1.092 0.52 3.042 0.728 5.863l 0.247 3.211c 0.052 0.741 0.143 1.326 0.26 1.742c 0.169 0.546 0.286 0.91 0.884 0.91c 0.273 0 0.507 -0.065 0.689 -0.195c -0.273 -0.078 -0.416 -0.26 -0.416 -0.546c 0 -0.351 0.234 -0.598 0.585 -0.598c 0.39 0 0.585 0.208 0.585 0.611c 0 0.689 -0.715 1.118 -1.456 1.118Z "/></symbol><symbol id="g66C287F757172C4FBEE46C9B113A6E1F" overflow="visible"><path d="M 0 0m 4.6956 2.9029c 0 1.0283 -0.182 1.8109 -0.5369 2.3478c -0.2912 0.455 -0.8736 0.7917 -1.5743 0.7917c -0.2912 0 -0.5551 -0.0455 -0.7826 -0.1456c -1.001 -0.4186 -1.3286 -1.5834 -1.3286 -2.9939c 0 -0.3094 0.0182 -0.6006 0.0455 -0.8827c 0.1547 -1.1921 0.7098 -2.2022 2.0657 -2.2022c 0.2912 0 0.5551 0.0455 0.7826 0.1456c 1.001 0.4095 1.3286 1.547 1.3286 2.9393Z m -1.0374 2.0202c 0.1001 -0.3367 0.1547 -0.9646 0.1547 -1.9019c 0 -0.8918 -0.0364 -1.5197 -0.1183 -1.8928c -0.1092 -0.5369 -0.4914 -0.9828 -1.1102 -0.9828c -0.2275 0 -0.455 0.0728 -0.6643 0.2275c -0.2821 0.2093 -0.455 0.6188 -0.5278 1.2467c -0.0273 0.2093 -0.0364 0.6734 -0.0364 1.4014c 0 0.8827 0.0455 1.4924 0.1365 1.82c 0.1547 0.5824 0.5187 0.8736 1.092 0.8736c 0.546 0 0.9464 -0.3549 1.0738 -0.7917Z "/></symbol><symbol id="gFF16A71406285492465AAA8A0C1F3936" overflow="visible"><path d="M 0 0m 4.9413 3.9221c -0.1729 0 -0.3094 -0.0819 -0.4004 -0.2366c -0.0091 -0.0273 -0.0637 -0.2002 -0.1456 -0.5278l -0.4641 -1.8655c -0.0364 -0.1547 -0.0819 -0.273 -0.1365 -0.3549c -0.3367 -0.4823 -0.728 -0.728 -1.1557 -0.728c -0.4641 0 -0.7007 0.2548 -0.7007 0.7644c 0 0.1365 0.0455 0.4186 0.1456 0.8281l 0.4641 1.8837c 0 0.2184 -0.1183 0.3276 -0.3458 0.3276c -0.2275 0 -0.3822 -0.1456 -0.4641 -0.4459l -1.2467 -4.9959c -0.0273 -0.1001 -0.0364 -0.1638 -0.0364 -0.1911c 0 -0.2184 0.1092 -0.3276 0.3367 -0.3276c 0.2366 0 0.3913 0.1547 0.4732 0.4732l 0.4004 1.6016c 0.2548 -0.1547 0.5642 -0.2366 0.9373 -0.2366c 0.3549 0 0.6916 0.1183 1.0101 0.364c 0.0455 0.0364 0.1274 0.1183 0.2639 0.2457c 0.1456 -0.4095 0.4641 -0.6097 0.9464 -0.6097c 0.3003 0 0.546 0.1638 0.7371 0.4914c 0.0728 0.1274 0.3185 0.7462 0.3185 0.9191c 0 0.1001 -0.0637 0.1456 -0.182 0.1456c -0.0455 0 -0.0819 -0.0091 -0.1092 -0.0273c -0.0637 -0.1092 -0.1092 -0.2002 -0.1183 -0.273c -0.1547 -0.6279 -0.364 -0.9373 -0.6188 -0.9373c -0.1729 0 -0.2639 0.1365 -0.2639 0.4095c 0 0.1001 0.0455 0.3367 0.1365 0.7007l 0.1911 0.8099l 0.2093 0.7917c 0.1001 0.4004 0.1547 0.6279 0.1547 0.6825c 0 0.182 -0.1547 0.3185 -0.3367 0.3185Z "/></symbol><symbol id="g113F13A4D17198A1C07EDFC5CF3E0BE9" overflow="visible"><path d="M 0 0m 2.8938 -2.2568c 0.0819 0 0.1274 0.0455 0.1274 0.1274c 0 0.0273 -0.0182 0.0637 -0.0455 0.1001c -0.4732 0.364 -0.8554 0.9646 -1.1375 1.7927c -0.2457 0.7189 -0.3731 1.4287 -0.3731 2.1294v 0.7644c 0 0.7007 0.1274 1.4105 0.3731 2.1294c 0.2821 0.8281 0.6643 1.4287 1.1375 1.7927c 0.0273 0.0273 0.0455 0.0637 0.0455 0.1001c 0 0.0819 -0.0455 0.1274 -0.1274 0.1274c -0.0091 0 -0.0364 -0.0091 -0.0637 -0.0273c -0.546 -0.4186 -1.001 -1.0374 -1.3741 -1.8655c -0.3549 -0.7917 -0.5369 -1.5379 -0.5369 -2.2568v -0.7644c 0 -0.7189 0.182 -1.4651 0.5369 -2.2568c 0.3731 -0.8281 0.8281 -1.4469 1.3741 -1.8655c 0.0273 -0.0182 0.0546 -0.0273 0.0637 -0.0273Z "/></symbol><symbol id="g7E8E62BFA655667604C8BA305761E74A" overflow="visible"><path d="M 0 0m 1.8473 -0.091c 0.4459 0 0.8918 0.2366 1.3377 0.7098c 0.7644 0.8008 1.4651 2.3114 1.4651 3.7947c 0 0.5005 -0.091 0.9373 -0.2639 1.2922c -0.2275 0.4641 -0.5642 0.7007 -1.0101 0.7007c -0.4459 0 -0.8918 -0.2366 -1.3377 -0.7007c -0.7644 -0.8008 -1.4651 -2.3205 -1.4651 -3.8038c 0 -1.0101 0.3731 -1.9929 1.274 -1.9929Z m 1.5288 6.1698c 0.3549 0 0.5278 -0.3731 0.5278 -1.1284c 0 -0.3822 -0.0819 -0.91 -0.2457 -1.5925h -1.9929c 0.2275 0.9282 0.8736 2.7209 1.7108 2.7209Z m -1.8109 -3.1213h 1.9929c -0.2002 -0.7826 -0.4368 -1.4014 -0.7098 -1.8473c -0.3458 -0.5824 -0.6825 -0.8736 -1.001 -0.8736c -0.3549 0 -0.5278 0.3731 -0.5278 1.1284c 0 0.4368 0.0819 0.9646 0.2457 1.5925Z "/></symbol><symbol id="g46583585F9F2E82789E32589C97B74E" overflow="visible"><path d="M 0 0m 0.7098 -2.2295c 0.546 0.4186 1.001 1.0374 1.3741 1.8655c 0.3549 0.7917 0.5369 1.5379 0.5369 2.2568v 0.7644c 0 0.7189 -0.182 1.4651 -0.5369 2.2568c -0.3731 0.8281 -0.8281 1.4469 -1.3741 1.8655c -0.0273 0.0182 -0.0546 0.0273 -0.0637 0.0273c -0.0819 0 -0.1274 -0.0455 -0.1274 -0.1274c 0 -0.0364 0.0182 -0.0728 0.0455 -0.1001c 0.4732 -0.364 0.8554 -0.9646 1.1375 -1.7927c 0.2457 -0.7189 0.3731 -1.4287 0.3731 -2.1294v -0.7644c 0 -0.7007 -0.1274 -1.4105 -0.3731 -2.1294c -0.2821 -0.8281 -0.6643 -1.4287 -1.1375 -1.7927c -0.0273 -0.0364 -0.0455 -0.0728 -0.0455 -0.1001c 0 -0.0819 0.0455 -0.1274 0.1274 -0.1274c 0.0091 0 0.0364 0.0091 0.0637 0.0273Z "/></symbol><symbol id="g6BCCDCE0D843C0F823A4CE121D6D1649" overflow="visible"><path d="M 0 0m 5.577 8.216l -0.767 -3.159c -0.273 0.481 -0.65 0.728 -1.157 0.728c -0.845 0 -1.586 -0.429 -2.236 -1.3c -0.598 -0.806 -0.897 -1.651 -0.897 -2.522c 0 -1.144 0.663 -2.106 1.755 -2.106c 0.559 0 1.105 0.299 1.625 0.91c 0.143 -0.494 0.585 -0.91 1.196 -0.91c 0.897 0 1.183 1.066 1.378 2.028c 0 0.117 -0.065 0.182 -0.195 0.182c -0.117 0 -0.195 -0.091 -0.234 -0.273c -0.26 -1.027 -0.572 -1.547 -0.923 -1.547c -0.221 0 -0.338 0.182 -0.338 0.533c 0 0.195 0.026 0.403 0.078 0.611l 1.846 7.436v 0.052c -0.039 0.091 -0.117 0.143 -0.221 0.143c -0.299 0 -0.845 -0.052 -1.625 -0.143c -0.143 -0.013 -0.221 -0.117 -0.221 -0.299c 0 -0.13 0.117 -0.195 0.351 -0.195c 0.247 0 0.585 0.013 0.585 -0.169Z m -1.144 -3.328c 0.13 -0.273 0.195 -0.455 0.195 -0.572c -0.013 -0.052 -0.026 -0.117 -0.039 -0.208l -0.637 -2.522c -0.039 -0.143 -0.13 -0.299 -0.247 -0.455c -0.481 -0.585 -0.949 -0.884 -1.404 -0.884c -0.507 0 -0.767 0.39 -0.767 1.157c 0 0.312 0.078 0.78 0.234 1.404c 0.273 1.105 0.663 1.859 1.144 2.262c 0.26 0.221 0.507 0.325 0.754 0.325c 0.351 0 0.611 -0.169 0.767 -0.507Z "/></symbol><symbol id="g60E61677E5DD2EBB7ED3D15DA438AEBB" overflow="visible"><path d="M 0 0m 2.132 -0.143c 0.585 0 1.196 0.351 1.794 1.053c 1.04 1.209 1.989 3.445 1.989 5.564c 0 0.533 -0.091 1.092 -0.273 1.651c -0.234 0.689 -0.676 1.04 -1.313 1.04c -0.585 0 -1.17 -0.351 -1.781 -1.053c -1.04 -1.196 -2.002 -3.432 -2.002 -5.564c 0 -1.326 0.429 -2.691 1.586 -2.691Z m 2.184 8.918c 0.429 0 0.65 -0.494 0.65 -1.495c 0 -0.559 -0.13 -1.404 -0.39 -2.509h -2.561c 0.325 1.209 0.637 2.106 0.962 2.691c 0.481 0.871 0.936 1.313 1.339 1.313Z m -2.431 -4.524h 2.548c -0.247 -1.053 -0.546 -1.898 -0.871 -2.535c -0.507 -0.975 -0.975 -1.469 -1.43 -1.469c -0.429 0 -0.637 0.507 -0.637 1.508c 0 0.65 0.13 1.482 0.39 2.496Z "/></symbol><symbol id="gB323F9E42E1C20C087FBF81136E27860" overflow="visible"><path d="M 0 0m 2.496 3.25c 0 0.377 -0.312 0.689 -0.689 0.689c -0.377 0 -0.689 -0.312 -0.689 -0.689c 0 -0.377 0.312 -0.689 0.689 -0.689c 0.377 0 0.689 0.312 0.689 0.689Z "/></symbol><symbol id="gBC3D9C1A249D0D4F874E09900DF515A4" overflow="visible"><path d="M 0 0m 1.872 0.039l 1.443 -0.039v 0.507c -0.468 0 -0.754 0.013 -0.845 0.065c -0.091 0.052 -0.13 0.208 -0.13 0.455v 7.995l -1.911 -0.143v -0.494c 0.455 0 0.741 -0.039 0.832 -0.117c 0.091 -0.078 0.143 -0.26 0.143 -0.559v -6.682c 0 -0.247 -0.039 -0.403 -0.13 -0.455c -0.091 -0.052 -0.377 -0.065 -0.845 -0.065v -0.507Z "/></symbol><symbol id="gA2276AEFE9378953E87817A497BFC175" overflow="visible"><path d="M 0 0m 4.082 5.369c 0.585 0 0.884 -0.455 0.884 -1.378v -2.964c 0 -0.247 -0.039 -0.403 -0.13 -0.455c -0.091 -0.052 -0.377 -0.078 -0.858 -0.078v -0.494l 1.495 0.039l 1.482 -0.039v 0.494c -0.416 0 -0.689 0.013 -0.819 0.052c -0.13 0.039 -0.182 0.13 -0.182 0.286v 2.431c 0 0.611 -0.013 1.04 -0.052 1.287c -0.13 0.793 -0.715 1.196 -1.742 1.196c -0.819 0 -1.43 -0.39 -1.833 -1.17v 1.17l -1.911 -0.143v -0.494c 0.468 0 0.754 -0.039 0.858 -0.117c 0.104 -0.078 0.143 -0.247 0.143 -0.546v -3.419c 0 -0.247 -0.052 -0.403 -0.143 -0.455c -0.091 -0.052 -0.377 -0.078 -0.858 -0.078v -0.494l 1.495 0.039l 1.482 -0.039v 0.494c -0.481 0 -0.754 0.026 -0.845 0.078c -0.091 0.052 -0.143 0.208 -0.143 0.455v 2.34c 0 1.053 0.663 2.002 1.677 2.002Z "/></symbol><symbol id="g7AE04F15A7C3AC417269385A78E6B62E" overflow="visible"><path d="M 0 0m 4.94 -4.511c 0.13 0 0.195 0.065 0.195 0.195c 0 0.065 -0.026 0.117 -0.065 0.156c -0.793 0.611 -1.43 1.612 -1.911 3.016c -0.416 1.209 -0.624 2.405 -0.624 3.562v 1.664c 0 1.157 0.208 2.353 0.624 3.562c 0.481 1.404 1.118 2.405 1.911 3.016c 0.039 0.039 0.065 0.091 0.065 0.156c 0 0.13 -0.065 0.195 -0.195 0.195c -0.026 0 -0.065 -0.013 -0.104 -0.039c -0.91 -0.689 -1.664 -1.729 -2.262 -3.12c -0.585 -1.313 -0.871 -2.574 -0.871 -3.77v -1.664c 0 -1.196 0.286 -2.457 0.871 -3.77c 0.598 -1.391 1.352 -2.431 2.262 -3.12c 0.039 -0.026 0.078 -0.039 0.104 -0.039Z "/></symbol><symbol id="g31B61B3DC86BBCC37CEA5A6A7246B2DC" overflow="visible"><path d="M 0 0m 2.912 4.0404c -0.3549 0 -0.7098 -0.1456 -1.0647 -0.4368l 0.5915 2.3933c 0.0091 0.0182 0.0182 0.0728 0.0364 0.1547c 0 0.1092 -0.0637 0.1638 -0.182 0.1638l -1.1466 -0.091c -0.1547 -0.0091 -0.2275 -0.091 -0.2275 -0.2457c 0 -0.1001 0.091 -0.1547 0.273 -0.1547c 0.1547 0 0.3913 0 0.3913 -0.1001c 0 -0.0273 -0.0091 -0.091 -0.0364 -0.1911c -0.1365 -0.5551 -0.2457 -0.9737 -0.3094 -1.2558l -0.5915 -2.3933c -0.0273 -0.1274 -0.0455 -0.2821 -0.0455 -0.455c 0 -0.8463 0.5187 -1.5197 1.3468 -1.5197c 0.6188 0 1.1648 0.2821 1.6471 0.8372c 0.4641 0.5369 0.6916 1.1284 0.6916 1.7563c 0 0.8645 -0.5369 1.5379 -1.3741 1.5379Z m -1.6107 -2.9302c 0 0.2457 0.1092 0.7917 0.3367 1.6471c 0.0273 0.1183 0.091 0.2366 0.2093 0.3731c 0.3367 0.3913 0.6825 0.5824 1.0374 0.5824c 0.4095 0 0.6188 -0.2821 0.6188 -0.8372c 0 -0.5278 -0.2821 -1.4196 -0.4641 -1.7836c -0.182 -0.3822 -0.5915 -0.8554 -1.0829 -0.8554c -0.4368 0 -0.6552 0.4004 -0.6552 0.8736Z "/></symbol><symbol id="gD387F7DE56A169B7DBC6F3E7C89336F3" overflow="visible"><path d="M 0 0m 1.9474 -0.091c 0.4095 0 0.8281 0.2002 1.2558 0.6006c 0.1456 -0.3731 0.4732 -0.6006 0.9373 -0.6006c 0.3003 0 0.546 0.1638 0.7371 0.4914c 0.0728 0.1183 0.3185 0.728 0.3185 0.91c 0 0.1001 -0.0637 0.1547 -0.182 0.1547c -0.0455 0 -0.0819 -0.0091 -0.1092 -0.0273c -0.0637 -0.1092 -0.1092 -0.2002 -0.1183 -0.273c -0.1547 -0.6279 -0.364 -0.9373 -0.6188 -0.9373c -0.1729 0 -0.2639 0.1365 -0.2639 0.4095c 0 0.1001 0.0455 0.3276 0.1365 0.6916l 0.2002 0.8099c 0.0728 0.3003 0.1274 0.5278 0.1729 0.6734l 0.1638 0.7098c 0 0.2093 -0.1092 0.3185 -0.3367 0.3185c -0.2093 0 -0.3549 -0.1001 -0.4277 -0.3094c -0.2275 0.3185 -0.5369 0.4823 -0.91 0.4823c -0.6188 0 -1.1739 -0.2821 -1.6562 -0.8372c -0.4641 -0.5369 -0.6916 -1.1193 -0.6916 -1.7472c 0 -0.8463 0.5642 -1.5197 1.3923 -1.5197Z m 1.5561 3.4489c 0.1092 -0.1911 0.1638 -0.3276 0.1638 -0.4095c 0 -0.0091 0 -0.0273 -0.0091 -0.0455l -0.4368 -1.7381c -0.0546 -0.2184 -0.2184 -0.4368 -0.5005 -0.637c -0.2821 -0.2002 -0.5278 -0.3003 -0.7462 -0.3003c -0.4095 0 -0.6188 0.2821 -0.6188 0.8372c 0 0.2184 0.0546 0.5187 0.1547 0.9191c 0.1001 0.4004 0.2002 0.6916 0.3003 0.8736c 0.3185 0.5551 0.6825 0.8372 1.092 0.8372c 0.2821 0 0.4823 -0.1092 0.6006 -0.3367Z "/></symbol><symbol id="g51B3DB8755C43AB79D2F02785B5613F6" overflow="visible"><path d="M 0 0m 1.118 -4.472c 0.91 0.689 1.664 1.729 2.262 3.12c 0.585 1.313 0.871 2.574 0.871 3.77v 1.664c 0 1.196 -0.286 2.457 -0.871 3.77c -0.598 1.391 -1.352 2.431 -2.262 3.12c -0.039 0.026 -0.078 0.039 -0.104 0.039c -0.13 0 -0.195 -0.065 -0.195 -0.195c 0 -0.065 0.026 -0.117 0.065 -0.156c 0.793 -0.611 1.43 -1.612 1.911 -3.016c 0.416 -1.209 0.624 -2.405 0.624 -3.562v -1.664c 0 -1.157 -0.208 -2.353 -0.624 -3.562c -0.481 -1.404 -1.118 -2.405 -1.911 -3.016c -0.039 -0.039 -0.065 -0.091 -0.065 -0.156c 0 -0.13 0.065 -0.195 0.195 -0.195c 0.026 0 0.065 0.013 0.104 0.039Z "/></symbol><symbol id="gA32CAC846971E9468FADD933D647D41A" overflow="visible"><path d="M 0 0m 7.436 1.846c 0 0.117 -0.065 0.182 -0.208 0.182c -0.104 0 -0.182 -0.091 -0.221 -0.26c -0.26 -1.04 -0.572 -1.56 -0.923 -1.56c -0.221 0 -0.338 0.182 -0.338 0.546c 0 0.221 0.078 0.663 0.247 1.313l 0.364 1.391c 0.117 0.468 0.221 0.793 0.299 1.196l 0.078 0.364c 0.026 0.091 0.039 0.156 0.039 0.182c 0 0.273 -0.143 0.403 -0.429 0.403c -0.286 0 -0.468 -0.156 -0.546 -0.481l -0.936 -3.718c 0 -0.143 -0.208 -0.403 -0.624 -0.793c -0.286 -0.273 -0.611 -0.403 -0.988 -0.403c -0.598 0 -0.897 0.351 -0.897 1.066c 0 0.247 0.052 0.598 0.169 1.079l 0.546 2.158c 0.104 0.403 0.169 0.689 0.195 0.832c 0 0.273 -0.143 0.403 -0.429 0.403c -0.286 0 -0.468 -0.169 -0.559 -0.507l -1.846 -7.436c -0.026 -0.104 -0.039 -0.169 -0.039 -0.208c 0 -0.273 0.143 -0.403 0.416 -0.403c 0.195 0 0.351 0.104 0.494 0.299c 0.039 0.091 0.26 0.988 0.689 2.691c 0.312 -0.234 0.715 -0.351 1.209 -0.351c 0.767 0 1.274 0.403 1.677 0.871c 0.143 -0.481 0.572 -0.871 1.183 -0.871c 0.897 0 1.17 1.053 1.378 2.015Z "/></symbol><symbol id="g2F389E882241F7D883BD9BE49B9B556F" overflow="visible"><path d="M 0 0m 4.069 -3.25c 0.195 0 0.299 0.104 0.299 0.312c 0 0.039 0 0.078 -0.013 0.104l -2.301 6.084l 2.301 6.071c 0.013 0.026 0.013 0.065 0.013 0.117c 0 0.208 -0.104 0.312 -0.299 0.312c -0.143 0 -0.234 -0.065 -0.286 -0.195l -2.34 -6.188c -0.013 -0.026 -0.013 -0.065 -0.013 -0.117c 0 -0.039 0 -0.078 0.013 -0.104l 2.34 -6.201c 0.052 -0.13 0.143 -0.195 0.286 -0.195Z "/></symbol><symbol id="gC8D3C41E96247D923393A2468BB66E86" overflow="visible"><path d="M 0 0m 4.6592 3.3215c 0 0.4732 -0.4823 0.6916 -0.9828 0.6916c -0.4641 0 -0.8827 -0.2002 -1.2467 -0.6006c -0.0546 0.1456 -0.1365 0.2639 -0.2548 0.364c -0.2093 0.1547 -0.4368 0.2366 -0.6825 0.2366c -0.3094 0 -0.5551 -0.1547 -0.728 -0.4732c -0.2275 -0.3913 -0.3367 -0.7007 -0.3367 -0.9282c 0 -0.1001 0.0637 -0.1547 0.1911 -0.1547c 0.182 0 0.1729 0.1001 0.2275 0.2912c 0.1547 0.6279 0.364 0.9464 0.6188 0.9464c 0.1729 0 0.2639 -0.1365 0.2639 -0.4095c 0 -0.1001 -0.0455 -0.3367 -0.1456 -0.728l -0.4823 -1.9474c -0.0637 -0.2457 -0.091 -0.3731 -0.091 -0.3822c 0 -0.2093 0.1092 -0.3185 0.3367 -0.3185c 0.3185 0 0.4095 0.2002 0.4823 0.5005c 0.2002 0.8281 0.3549 1.4469 0.4641 1.8746c 0.0819 0.2912 0.1183 0.4459 0.1183 0.455c 0.0091 0.0455 0.0728 0.1547 0.1911 0.3185c 0.3003 0.4277 0.6552 0.637 1.0647 0.637c 0.1547 0 0.2912 -0.0273 0.4004 -0.0819c -0.2275 -0.1001 -0.3367 -0.2639 -0.3367 -0.5005c 0 -0.2184 0.1729 -0.3731 0.3913 -0.3731c 0.3094 0 0.5369 0.273 0.5369 0.5824Z "/></symbol><symbol id="g77D2A3BE49641BC9FE86B31DAB4932B4" overflow="visible"><path d="M 0 0m 3.614 3.146c 0.013 0.026 0.013 0.065 0.013 0.104c 0 0.039 0 0.078 -0.013 0.104l -2.34 6.201c -0.052 0.13 -0.143 0.195 -0.286 0.195c -0.195 0 -0.299 -0.104 -0.299 -0.312c 0 -0.039 0 -0.078 0.013 -0.104l 2.301 -6.084l -2.301 -6.071c -0.013 -0.026 -0.013 -0.065 -0.013 -0.117c 0 -0.208 0.104 -0.312 0.299 -0.312c 0.143 0 0.234 0.065 0.286 0.195Z "/></symbol></defs></svg>