<svg viewBox="0 0 333.164866667 17.6397" width="333.164866667pt" height="17.6397pt" xmlns="http://www.w3.org/2000/svg" xmlns:xlink="http://www.w3.org/1999/xlink" xmlns:h5="http://www.w3.org/1999/xhtml"><g transform="matrix(1 0 0 -1 6.5 12.779)"><use xlink:href="#g9A821B85A19606F12AFA84257EC05DE9" x="0" y="0" fill="#e6edf3" fill-rule="nonzero"/></g><g transform="matrix(1 0 0 -1 21.577111111 12.779)"><use xlink:href="#g13AFF74D87C474CFAF661EEAD0458F8B" x="0" y="0" fill="#e6edf3" fill-rule="nonzero"/></g><g transform="matrix(1 0 0 -1 35.302222222 12.779)"><use xlink:href="#gA32CAC846971E9468FADD933D647D41A" x="0" y="0" fill="#e6edf3" fill-rule="nonzero"/></g><g transform="matrix(1 0 0 -1 43.141222222 12.779)"><use xlink:href="#gDEB83DEFA453EA333E9964337D78E6E1" x="0" y="0" fill="#e6edf3" fill-rule="nonzero"/></g><g transform="matrix(1 0 0 -1 56.856222222 12.779)"><use xlink:href="#gEFA988DEC565252013B2D05DB9DFDA82" x="0" y="0" fill="#e6edf3" fill-rule="nonzero"/></g><g transform="matrix(1 0 0 -1 73.470222222 12.779)"><use xlink:href="#gA32CAC846971E9468FADD933D647D41A" x="0" y="0" fill="#e6edf3" fill-rule="nonzero"/></g><g transform="matrix(1 0 0 -1 84.920333333 12.779)"><use xlink:href="#g13AFF74D87C474CFAF661EEAD0458F8B" x="0" y="0" fill="#e6edf3" fill-rule="nonzero"/></g><g transform="matrix(1 0 0 -1 98.645444444 12.779)"><use xlink:href="#gA32CAC846971E9468FADD933D647D41A" x="0" y="0" fill="#e6edf3" fill-rule="nonzero"/></g><g transform="matrix(1 0 0 -1 106.484444444 15.99)"><use xlink:href="#g66C287F757172C4FBEE46C9B113A6E1F" x="0" y="0" fill="#e6edf3" fill-rule="nonzero"/></g><g transform="matrix(1 0 0 -1 112.390344444 12.779)"><use xlink:href="#g2D7122AD31FABF41BED931716B883F58" x="0" y="0" fill="#e6edf3" fill-rule="nonzero"/></g><g transform="matrix(1 0 0 -1 117.447344444 12.779)"><use xlink:href="#g6B3DB0E0ADE6D994825CC39624067234" x="0" y="0" fill="#e6edf3" fill-rule="nonzero"/></g><g transform="matrix(1 0 0 -1 126.836233333 12.779)"><use xlink:href="#gEDF6611ACB83925E748178A176190AF2" x="0" y="0" fill="#e6edf3" fill-rule="nonzero"/></g><g transform="matrix(1 0 0 -1 139.839122222 12.779)"><use xlink:href="#g12B4F1BE3978ADFC0F4394F2E572B20F" x="0" y="0" fill="#e6edf3" fill-rule="nonzero"/></g><g transform="matrix(1 0 0 -1 147.977122222 15.99)"><use xlink:href="#g101A15221A0EE003755D1DFBD155057" x="0" y="0" fill="#e6edf3" fill-rule="nonzero"/></g><g transform="matrix(1 0 0 -1 157.932522222 12.779)"><use xlink:href="#g2F93E6EEEE2061842AA37F49EEA2F1A2" x="0" y="0" fill="#e6edf3" fill-rule="nonzero"/></g><g transform="matrix(1 0 0 -1 166.600633333 12.779)"><use xlink:href="#g13AFF74D87C474CFAF661EEAD0458F8B" x="0" y="0" fill="#e6edf3" fill-rule="nonzero"/></g><g transform="matrix(1 0 0 -1 180.325744444 12.779)"><use xlink:href="#gA32CAC846971E9468FADD933D647D41A" x="0" y="0" fill="#e6edf3" fill-rule="nonzero"/></g><g transform="matrix(1 0 0 -1 188.164744444 15.99)"><use xlink:href="#g66C287F757172C4FBEE46C9B113A6E1F" x="0" y="0" fill="#e6edf3" fill-rule="nonzero"/></g><g transform="matrix(1 0 0 -1 194.070644444 12.779)"><use xlink:href="#gA32CAC846971E9468FADD933D647D41A" x="0" y="0" fill="#e6edf3" fill-rule="nonzero"/></g><g transform="matrix(1 0 0 -1 201.909644444 15.99)"><use xlink:href="#gC8D3C41E96247D923393A2468BB66E86" x="0" y="0" fill="#e6edf3" fill-rule="nonzero"/></g><g transform="matrix(1 0 0 -1 207.551644444 12.779)"><use xlink:href="#gEFA988DEC565252013B2D05DB9DFDA82" x="0" y="0" fill="#e6edf3" fill-rule="nonzero"/></g><g transform="matrix(1 0 0 -1 224.165644444 12.779)"><use xlink:href="#gA32CAC846971E9468FADD933D647D41A" x="0" y="0" fill="#e6edf3" fill-rule="nonzero"/></g><g transform="matrix(1 0 0 -1 232.004644444 15.99)"><use xlink:href="#gC8D3C41E96247D923393A2468BB66E86" x="0" y="0" fill="#e6edf3" fill-rule="nonzero"/></g><g transform="matrix(1 0 0 -1 241.257755556 12.779)"><use xlink:href="#g13AFF74D87C474CFAF661EEAD0458F8B" x="0" y="0" fill="#e6edf3" fill-rule="nonzero"/></g><g transform="matrix(1 0 0 -1 258.750916667 6.6456)"><use xlink:href="#gFF16A71406285492465AAA8A0C1F3936" x="0" y="0" fill="#e6edf3" fill-rule="nonzero"/></g><g transform="matrix(1 0 0 -1 256.282866667 17.264)"><use xlink:href="#gFF16A71406285492465AAA8A0C1F3936" x="0" y="0" fill="#e6edf3" fill-rule="nonzero"/></g><g transform="matrix(1 0 0 -1 262.607366667 19.5117)"><use xlink:href="#gFA9C496F3B51D521A73CFA99F8A9D69F" x="0" y="0" fill="#e6edf3" fill-rule="nonzero"/></g><path fill="none" stroke="#e6edf3" stroke-width="0.624" stroke-linecap="butt" stroke-linejoin="miter" stroke-miterlimit="4" transform="translate(256.282866667 9.529)" d="M 0 0h 11.2606"/><g transform="matrix(1 0 0 -1 272.454577778 12.779)"><use xlink:href="#g13AFF74D87C474CFAF661EEAD0458F8B" x="0" y="0" fill="#e6edf3" fill-rule="nonzero"/></g><g transform="matrix(1 0 0 -1 286.179688889 12.779)"><use xlink:href="#g6B3DB0E0ADE6D994825CC39624067234" x="0" y="0" fill="#e6edf3" fill-rule="nonzero"/></g><g transform="matrix(1 0 0 -1 295.568577778 12.779)"><use xlink:href="#gEDF6611ACB83925E748178A176190AF2" x="0" y="0" fill="#e6edf3" fill-rule="nonzero"/></g><g transform="matrix(1 0 0 -1 308.571466667 12.779)"><use xlink:href="#g12B4F1BE3978ADFC0F4394F2E572B20F" x="0" y="0" fill="#e6edf3" fill-rule="nonzero"/></g><g transform="matrix(1 0 0 -1 316.709466667 15.99)"><use xlink:href="#g101A15221A0EE003755D1DFBD155057" x="0" y="0" fill="#e6edf3" fill-rule="nonzero"/></g><defs><symbol id="g9A821B85A19606F12AFA84257EC05DE9" overflow="visible"><path d="M 0 0m 11.102 7.111c 0 1.066 -0.936 1.807 -2.769 1.807h -5.213c -0.26 0 -0.481 0 -0.481 -0.377c 0 -0.234 0.169 -0.234 0.546 -0.234c 0.273 0 0.52 -0.013 0.793 -0.026l -1.859 -7.41c -0.052 -0.208 -0.065 -0.221 -0.299 -0.247c -0.221 -0.013 -0.481 -0.013 -0.689 -0.013c -0.338 0 -0.364 0 -0.416 -0.026c -0.156 -0.091 -0.156 -0.299 -0.156 -0.351c 0 -0.234 0.234 -0.234 0.442 -0.234h 5.512c 2.717 0 3.939 1.716 3.939 2.873c 0 1.118 -0.975 1.677 -2.171 1.781c 2.08 0.377 2.821 1.586 2.821 2.457Z m -1.755 0.065c 0 -0.91 -0.728 -2.301 -2.496 -2.301h -2.054l 0.806 3.198c 0.052 0.195 0.065 0.208 0.143 0.221c 0.117 0.013 0.208 0.013 0.351 0.013h 1.937c 0.26 0 1.313 0 1.313 -1.131Z m -0.702 -4.095c 0 -1.001 -0.663 -2.47 -2.509 -2.47h -2.08c -0.195 0 -0.221 0 -0.312 0.013l 0.936 3.783h 2.535c 0.338 0 1.43 0 1.43 -1.326Z "/></symbol><symbol id="g13AFF74D87C474CFAF661EEAD0458F8B" overflow="visible"><path d="M 0 0m 9.074 4.771h -8.034c -0.208 0 -0.312 -0.104 -0.312 -0.299c 0 -0.195 0.104 -0.299 0.312 -0.299h 8.034c 0.208 0 0.312 0.104 0.312 0.299c 0 0.156 -0.143 0.299 -0.312 0.299Z m 0 -2.444h -8.034c -0.208 0 -0.312 -0.104 -0.312 -0.299c 0 -0.195 0.104 -0.299 0.312 -0.299h 8.034c 0.208 0 0.312 0.104 0.312 0.299c 0 0.169 -0.143 0.299 -0.312 0.299Z "/></symbol><symbol id="gA32CAC846971E9468FADD933D647D41A" overflow="visible"><path d="M 0 0m 7.436 1.846c 0 0.117 -0.065 0.182 -0.208 0.182c -0.104 0 -0.182 -0.091 -0.221 -0.26c -0.26 -1.04 -0.572 -1.56 -0.923 -1.56c -0.221 0 -0.338 0.182 -0.338 0.546c 0 0.221 0.078 0.663 0.247 1.313l 0.364 1.391c 0.117 0.468 0.221 0.793 0.299 1.196l 0.078 0.364c 0.026 0.091 0.039 0.156 0.039 0.182c 0 0.273 -0.143 0.403 -0.429 0.403c -0.286 0 -0.468 -0.156 -0.546 -0.481l -0.936 -3.718c 0 -0.143 -0.208 -0.403 -0.624 -0.793c -0.286 -0.273 -0.611 -0.403 -0.988 -0.403c -0.598 0 -0.897 0.351 -0.897 1.066c 0 0.247 0.052 0.598 0.169 1.079l 0.546 2.158c 0.104 0.403 0.169 0.689 0.195 0.832c 0 0.273 -0.143 0.403 -0.429 0.403c -0.286 0 -0.468 -0.169 -0.559 -0.507l -1.846 -7.436c -0.026 -0.104 -0.039 -0.169 -0.039 -0.208c 0 -0.273 0.143 -0.403 0.416 -0.403c 0.195 0 0.351 0.104 0.494 0.299c 0.039 0.091 0.26 0.988 0.689 2.691c 0.312 -0.234 0.715 -0.351 1.209 -0.351c 0.767 0 1.274 0.403 1.677 0.871c 0.143 -0.481 0.572 -0.871 1.183 -0.871c 0.897 0 1.17 1.053 1.378 2.015Z "/></symbol><symbol id="gDEB83DEFA453EA333E9964337D78E6E1" overflow="visible"><path d="M 0 0m 13.351 8.684c 0 0.169 -0.13 0.234 -0.286 0.234c -0.325 0 -0.663 -0.026 -0.988 -0.026l -0.975 -0.013l -1.001 0.013c -0.338 0 -0.689 0.026 -1.027 0.026c -0.117 0 -0.377 0 -0.377 -0.377c 0 -0.234 0.169 -0.234 0.546 -0.234c 0.273 0 0.52 -0.013 0.793 -0.026l -0.832 -3.341h -4.238l 0.819 3.315c 0.286 0.052 0.741 0.052 0.884 0.052c 0.169 0 0.429 0 0.481 0.039c 0.13 0.091 0.143 0.338 0.143 0.338c 0 0.169 -0.13 0.234 -0.286 0.234c -0.325 0 -0.663 -0.026 -0.988 -0.026l -0.975 -0.013l -1.001 0.013c -0.338 0 -0.689 0.026 -1.027 0.026c -0.117 0 -0.377 0 -0.377 -0.377c 0 -0.234 0.169 -0.234 0.546 -0.234c 0.273 0 0.52 -0.013 0.793 -0.026l -1.859 -7.41c -0.052 -0.208 -0.065 -0.221 -0.299 -0.247c -0.221 -0.013 -0.481 -0.013 -0.689 -0.013c -0.338 0 -0.364 0 -0.416 -0.026c -0.156 -0.091 -0.156 -0.299 -0.156 -0.351c 0 0 0 -0.234 0.286 -0.234c 0.325 0 0.663 0.026 0.988 0.026l 0.988 0.013l 1.001 -0.013c 0.338 0 0.689 -0.026 1.014 -0.026c 0.13 0 0.234 0 0.299 0.091c 0.052 0.078 0.078 0.286 0.078 0.286c 0 0.234 -0.182 0.234 -0.533 0.234c -0.273 0 -0.52 0.013 -0.793 0.026l 0.923 3.692h 4.238l -0.871 -3.458c -0.052 -0.208 -0.065 -0.221 -0.299 -0.247c -0.221 -0.013 -0.481 -0.013 -0.689 -0.013c -0.338 0 -0.364 0 -0.416 -0.026c -0.156 -0.091 -0.156 -0.299 -0.156 -0.351c 0 0 0 -0.234 0.286 -0.234c 0.325 0 0.663 0.026 0.988 0.026l 0.988 0.013l 1.001 -0.013c 0.338 0 0.689 -0.026 1.014 -0.026c 0.13 0 0.234 0 0.299 0.091c 0.052 0.078 0.078 0.286 0.078 0.286c 0 0.234 -0.182 0.234 -0.533 0.234c -0.273 0 -0.52 0.013 -0.793 0.026l 1.898 7.618c 0.286 0.052 0.741 0.052 0.884 0.052c 0.169 0 0.429 0 0.481 0.039c 0.13 0.091 0.143 0.338 0.143 0.338Z "/></symbol><symbol id="gEFA988DEC565252013B2D05DB9DFDA82" overflow="visible"><path d="M 0 0m 1.807 1.378c -0.416 0 -0.689 -0.312 -0.689 -0.728c 0 -0.39 0.299 -0.715 0.689 -0.715c 0.182 0 0.338 0.052 0.455 0.169l 0.013 -0.104c 0 -0.819 -0.273 -1.521 -0.819 -2.08c -0.091 -0.104 -0.143 -0.182 -0.143 -0.234c 0 -0.13 0.052 -0.195 0.169 -0.195c 0.117 0 0.273 0.156 0.494 0.455c 0.442 0.624 0.663 1.313 0.663 2.054c 0 0.689 -0.234 1.378 -0.832 1.378Z "/></symbol><symbol id="g66C287F757172C4FBEE46C9B113A6E1F" overflow="visible"><path d="M 0 0m 4.6956 2.9029c 0 1.0283 -0.182 1.8109 -0.5369 2.3478c -0.2912 0.455 -0.8736 0.7917 -1.5743 0.7917c -0.2912 0 -0.5551 -0.0455 -0.7826 -0.1456c -1.001 -0.4186 -1.3286 -1.5834 -1.3286 -2.9939c 0 -0.3094 0.0182 -0.6006 0.0455 -0.8827c 0.1547 -1.1921 0.7098 -2.2022 2.0657 -2.2022c 0.2912 0 0.5551 0.0455 0.7826 0.1456c 1.001 0.4095 1.3286 1.547 1.3286 2.9393Z m -1.0374 2.0202c 0.1001 -0.3367 0.1547 -0.9646 0.1547 -1.9019c 0 -0.8918 -0.0364 -1.5197 -0.1183 -1.8928c -0.1092 -0.5369 -0.4914 -0.9828 -1.1102 -0.9828c -0.2275 0 -0.455 0.0728 -0.6643 0.2275c -0.2821 0.2093 -0.455 0.6188 -0.5278 1.2467c -0.0273 0.2093 -0.0364 0.6734 -0.0364 1.4014c 0 0.8827 0.0455 1.4924 0.1365 1.82c 0.1547 0.5824 0.5187 0.8736 1.092 0.8736c 0.546 0 0.9464 -0.3549 1.0738 -0.7917Z "/></symbol><symbol id="g2D7122AD31FABF41BED931716B883F58" overflow="visible"><path d="M 0 0m 4.134 -3.224c 0.117 0 0.182 0.065 0.182 0.182c 0 0.039 -0.026 0.091 -0.065 0.143c -0.676 0.52 -1.222 1.378 -1.625 2.561c -0.351 1.027 -0.533 2.041 -0.533 3.042v 1.092c 0 1.001 0.182 2.015 0.533 3.042c 0.403 1.183 0.949 2.041 1.625 2.561c 0.039 0.039 0.065 0.091 0.065 0.143c 0 0.117 -0.065 0.182 -0.182 0.182c -0.013 0 -0.052 -0.013 -0.091 -0.039c -0.78 -0.598 -1.43 -1.482 -1.963 -2.665c -0.507 -1.131 -0.767 -2.197 -0.767 -3.224v -1.092c 0 -1.027 0.26 -2.093 0.767 -3.224c 0.533 -1.183 1.183 -2.067 1.963 -2.665c 0.039 -0.026 0.078 -0.039 0.091 -0.039Z "/></symbol><symbol id="g6B3DB0E0ADE6D994825CC39624067234" overflow="visible"><path d="M 0 0m 3.497 8.658c -0.533 -0.546 -1.313 -0.819 -2.34 -0.819v -0.507c 0.676 0 1.235 0.104 1.664 0.312v -6.578c 0 -0.234 -0.052 -0.39 -0.169 -0.455c -0.117 -0.065 -0.442 -0.104 -0.962 -0.104h -0.455v -0.507c 0.325 0.026 1.027 0.039 2.106 0.039c 1.079 0 1.781 -0.013 2.106 -0.039v 0.507h -0.455c -0.533 0 -0.858 0.039 -0.962 0.104c -0.104 0.065 -0.169 0.221 -0.169 0.455v 7.202c 0 0.312 -0.026 0.39 -0.364 0.39Z "/></symbol><symbol id="gEDF6611ACB83925E748178A176190AF2" overflow="visible"><path d="M 0 0m 9.074 3.562h -3.705v 3.705c 0 0.208 -0.104 0.312 -0.312 0.312c -0.208 0 -0.312 -0.104 -0.312 -0.312v -3.705h -3.705c -0.208 0 -0.312 -0.104 -0.312 -0.312c 0 -0.208 0.104 -0.312 0.312 -0.312h 3.705v -3.705c 0 -0.208 0.104 -0.312 0.312 -0.312c 0.208 0 0.312 0.104 0.312 0.312v 3.705h 3.705c 0.208 0 0.312 0.104 0.312 0.312c 0 0.169 -0.143 0.312 -0.312 0.312Z "/></symbol><symbol id="g12B4F1BE3978ADFC0F4394F2E572B20F" overflow="visible"><path d="M 0 0m 0.793 4.836c 0.052 -0.091 0.039 -0.169 0.195 -0.169c 0.104 0 0.182 0.052 0.221 0.169c 0.091 0.247 0.351 0.52 0.624 0.52c 0.585 0 1.404 -2.73 1.651 -3.614c 0.065 -0.208 0.091 -0.338 0.104 -0.403l -3.029 -3.419c -0.104 -0.117 -0.156 -0.195 -0.156 -0.234c 0 -0.143 0.065 -0.208 0.208 -0.208c 0.065 0 0.143 0.052 0.234 0.156l 2.886 3.237c 0.364 -1.209 0.65 -2.028 0.845 -2.483c 0.065 -0.169 0.143 -0.325 0.234 -0.455c 0.221 -0.338 0.832 -0.598 1.404 -0.598c 0.468 0 1.131 0.416 1.131 0.884c 0 0.13 -0.065 0.195 -0.195 0.195c -0.091 0 -0.169 -0.065 -0.234 -0.208c -0.117 -0.325 -0.325 -0.481 -0.624 -0.481c -0.403 0 -0.988 1.339 -1.755 4.03l 3.029 3.406c 0.104 0.117 0.156 0.195 0.156 0.234c 0 0.143 -0.065 0.208 -0.208 0.208c -0.065 0 -0.143 -0.052 -0.234 -0.169l -2.886 -3.211c -0.403 1.3 -0.702 2.158 -0.884 2.561c -0.091 0.195 -0.221 0.39 -0.403 0.572c -0.247 0.26 -0.637 0.39 -1.196 0.39c -0.494 0 -1.118 -0.442 -1.118 -0.91Z "/></symbol><symbol id="g101A15221A0EE003755D1DFBD155057" overflow="visible"><path d="M 0 0m 1.5015 4.0131c -0.3003 0 -0.5551 -0.1638 -0.7462 -0.5005c -0.1274 -0.2275 -0.2275 -0.4641 -0.2912 -0.728c -0.0273 -0.1001 -0.0364 -0.1547 -0.0364 -0.1729c 0 -0.1001 0.0637 -0.1547 0.1911 -0.1547c 0.1729 0 0.182 0.1001 0.2275 0.2912c 0.1547 0.6279 0.364 0.9464 0.6279 0.9464c 0.1729 0 0.2639 -0.1365 0.2639 -0.4095c 0 -0.1001 -0.0455 -0.3367 -0.1456 -0.728l -0.4914 -1.9474c -0.0637 -0.2457 -0.091 -0.3731 -0.091 -0.3822c 0 -0.2093 0.1183 -0.3185 0.3458 -0.3185c 0.1729 0 0.3003 0.0728 0.3822 0.2184c 0.0273 0.0546 0.0819 0.2457 0.1638 0.5642l 0.2002 0.8008c 0.1092 0.4277 0.1729 0.6643 0.1911 0.7189c 0.0728 0.2366 0.182 0.4641 0.3367 0.6734c 0.3822 0.5369 0.8281 0.8099 1.3286 0.8099c 0.3276 0 0.4914 -0.2002 0.4914 -0.5915c 0 -0.1547 -0.0546 -0.4277 -0.1547 -0.8372l -0.3731 -1.5015c -0.0819 -0.3367 -0.1274 -0.5096 -0.1274 -0.5369c 0 -0.2093 0.1092 -0.3185 0.3367 -0.3185c 0.1729 0 0.3094 0.0728 0.3913 0.2184c 0.0273 0.0546 0.0819 0.2457 0.1638 0.5642l 0.2002 0.8008c 0.1456 0.5642 0.1729 0.9009 0.4277 1.2649c 0.4095 0.6279 0.8736 0.9373 1.4105 0.9373c 0.3276 0 0.4914 -0.2002 0.4914 -0.5915c 0 -0.3549 -0.1729 -0.9828 -0.5278 -1.8928c -0.091 -0.2366 -0.1365 -0.4004 -0.1365 -0.5005c 0 -0.4914 0.4004 -0.8008 0.8918 -0.8008c 0.4368 0 0.7826 0.2184 1.0283 0.6552c 0.2093 0.3731 0.3094 0.6188 0.3094 0.7462c 0 0.1001 -0.0637 0.1547 -0.182 0.1547c -0.0637 -0.0091 -0.1547 -0.0819 -0.2093 -0.182c -0.2093 -0.7007 -0.5096 -1.0556 -0.9191 -1.0556c -0.1274 0 -0.1911 0.091 -0.1911 0.2821c 0 0.1274 0.0728 0.364 0.2093 0.7098c 0.3185 0.8099 0.4823 1.3923 0.4823 1.7381c 0 0.7007 -0.4004 1.0556 -1.2103 1.0556c -0.5915 0 -1.1102 -0.2821 -1.5743 -0.8463c -0.091 0.5642 -0.4914 0.8463 -1.1921 0.8463c -0.5915 0 -1.092 -0.2548 -1.5015 -0.7644c -0.0819 0.4459 -0.4732 0.7644 -0.9919 0.7644Z "/></symbol><symbol id="g2F93E6EEEE2061842AA37F49EEA2F1A2" overflow="visible"><path d="M 0 0m 1.014 -3.185c 0.78 0.598 1.43 1.482 1.963 2.665c 0.507 1.131 0.767 2.197 0.767 3.224v 1.092c 0 1.027 -0.26 2.093 -0.767 3.224c -0.533 1.183 -1.183 2.067 -1.963 2.665c -0.039 0.026 -0.078 0.039 -0.091 0.039c -0.117 0 -0.182 -0.065 -0.182 -0.182c 0 -0.052 0.026 -0.104 0.065 -0.143c 0.676 -0.52 1.222 -1.378 1.625 -2.561c 0.351 -1.027 0.533 -2.041 0.533 -3.042v -1.092c 0 -1.001 -0.182 -2.015 -0.533 -3.042c -0.403 -1.183 -0.949 -2.041 -1.625 -2.561c -0.039 -0.052 -0.065 -0.104 -0.065 -0.143c 0 -0.117 0.065 -0.182 0.182 -0.182c 0.013 0 0.052 0.013 0.091 0.039Z "/></symbol><symbol id="gC8D3C41E96247D923393A2468BB66E86" overflow="visible"><path d="M 0 0m 4.6592 3.3215c 0 0.4732 -0.4823 0.6916 -0.9828 0.6916c -0.4641 0 -0.8827 -0.2002 -1.2467 -0.6006c -0.0546 0.1456 -0.1365 0.2639 -0.2548 0.364c -0.2093 0.1547 -0.4368 0.2366 -0.6825 0.2366c -0.3094 0 -0.5551 -0.1547 -0.728 -0.4732c -0.2275 -0.3913 -0.3367 -0.7007 -0.3367 -0.9282c 0 -0.1001 0.0637 -0.1547 0.1911 -0.1547c 0.182 0 0.1729 0.1001 0.2275 0.2912c 0.1547 0.6279 0.364 0.9464 0.6188 0.9464c 0.1729 0 0.2639 -0.1365 0.2639 -0.4095c 0 -0.1001 -0.0455 -0.3367 -0.1456 -0.728l -0.4823 -1.9474c -0.0637 -0.2457 -0.091 -0.3731 -0.091 -0.3822c 0 -0.2093 0.1092 -0.3185 0.3367 -0.3185c 0.3185 0 0.4095 0.2002 0.4823 0.5005c 0.2002 0.8281 0.3549 1.4469 0.4641 1.8746c 0.0819 0.2912 0.1183 0.4459 0.1183 0.455c 0.0091 0.0455 0.0728 0.1547 0.1911 0.3185c 0.3003 0.4277 0.6552 0.637 1.0647 0.637c 0.1547 0 0.2912 -0.0273 0.4004 -0.0819c -0.2275 -0.1001 -0.3367 -0.2639 -0.3367 -0.5005c 0 -0.2184 0.1729 -0.3731 0.3913 -0.3731c 0.3094 0 0.5369 0.273 0.5369 0.5824Z "/></symbol><symbol id="gFF16A71406285492465AAA8A0C1F3936" overflow="visible"><path d="M 0 0m 4.9413 3.9221c -0.1729 0 -0.3094 -0.0819 -0.4004 -0.2366c -0.0091 -0.0273 -0.0637 -0.2002 -0.1456 -0.5278l -0.4641 -1.8655c -0.0364 -0.1547 -0.0819 -0.273 -0.1365 -0.3549c -0.3367 -0.4823 -0.728 -0.728 -1.1557 -0.728c -0.4641 0 -0.7007 0.2548 -0.7007 0.7644c 0 0.1365 0.0455 0.4186 0.1456 0.8281l 0.4641 1.8837c 0 0.2184 -0.1183 0.3276 -0.3458 0.3276c -0.2275 0 -0.3822 -0.1456 -0.4641 -0.4459l -1.2467 -4.9959c -0.0273 -0.1001 -0.0364 -0.1638 -0.0364 -0.1911c 0 -0.2184 0.1092 -0.3276 0.3367 -0.3276c 0.2366 0 0.3913 0.1547 0.4732 0.4732l 0.4004 1.6016c 0.2548 -0.1547 0.5642 -0.2366 0.9373 -0.2366c 0.3549 0 0.6916 0.1183 1.0101 0.364c 0.0455 0.0364 0.1274 0.1183 0.2639 0.2457c 0.1456 -0.4095 0.4641 -0.6097 0.9464 -0.6097c 0.3003 0 0.546 0.1638 0.7371 0.4914c 0.0728 0.1274 0.3185 0.7462 0.3185 0.9191c 0 0.1001 -0.0637 0.1456 -0.182 0.1456c -0.0455 0 -0.0819 -0.0091 -0.1092 -0.0273c -0.0637 -0.1092 -0.1092 -0.2002 -0.1183 -0.273c -0.1547 -0.6279 -0.364 -0.9373 -0.6188 -0.9373c -0.1729 0 -0.2639 0.1365 -0.2639 0.4095c 0 0.1001 0.0455 0.3367 0.1365 0.7007l 0.1911 0.8099l 0.2093 0.7917c 0.1001 0.4004 0.1547 0.6279 0.1547 0.6825c 0 0.182 -0.1547 0.3185 -0.3367 0.3185Z "/></symbol><symbol id="gFA9C496F3B51D521A73CFA99F8A9D69F" overflow="visible"><path d="M 0 0m 3.9065 2.08c 0 0.286 0 0.338 -0.039 0.637c -0.117 0.9165 -0.6045 1.612 -1.6575 1.612c -0.6825 0 -1.1505 -0.3055 -1.3845 -0.7475c -0.2275 -0.429 -0.312 -0.8775 -0.312 -1.5015c 0 -0.2275 0.013 -0.4355 0.039 -0.637c 0.117 -0.9035 0.611 -1.586 1.6575 -1.586c 0.676 0 1.1505 0.3055 1.3845 0.7345c 0.234 0.429 0.312 0.871 0.312 1.4885Z m -0.78 1.313c 0.0585 -0.2145 0.091 -0.624 0.091 -1.235c 0 -0.6435 -0.0325 -1.0855 -0.0975 -1.339c -0.1105 -0.429 -0.4225 -0.6955 -0.91 -0.6955c -0.1495 0 -0.312 0.039 -0.481 0.1105c -0.208 0.0975 -0.351 0.2925 -0.429 0.598c -0.065 0.247 -0.0975 0.689 -0.0975 1.326c 0 0.6175 0.0325 1.0465 0.104 1.274c 0.1235 0.4225 0.4225 0.6305 0.9035 0.6305c 0.4875 0 0.793 -0.221 0.9165 -0.6695Z "/></symbol></defs></svg>