<svg viewBox="0 0 221.427844444 34.177" width="221.427844444pt" height="34.177pt" xmlns="http://www.w3.org/2000/svg" xmlns:xlink="http://www.w3.org/1999/xlink" xmlns:h5="http://www.w3.org/1999/xhtml"><g transform="matrix(1 0 0 -1 6.5 21.359)"><use xlink:href="#g2F389E882241F7D883BD9BE49B9B556F" x="0" y="0" fill="#e6edf3" fill-rule="nonzero"/></g><g transform="matrix(1 0 0 -1 11.557 21.359)"><use xlink:href="#gF4455947FC057089CFA62E76F26386FD" x="0" y="0" fill="#e6edf3" fill-rule="nonzero"/></g><g transform="matrix(1 0 0 -1 21.853 21.359)"><use xlink:href="#g77D2A3BE49641BC9FE86B31DAB4932B4" x="0" y="0" fill="#e6edf3" fill-rule="nonzero"/></g><g transform="matrix(1 0 0 -1 26.91 24.57)"><use xlink:href="#g1DC54A0239151B73224BF01740FABF4E" x="0" y="0" fill="#e6edf3" fill-rule="nonzero"/><use xlink:href="#g12A277A1F32FE31CE8B77358BEAB0050" x="4.55" y="0" fill="#e6edf3" fill-rule="nonzero"/></g><g transform="matrix(1 0 0 -1 42.751511111 21.359)"><use xlink:href="#g13AFF74D87C474CFAF661EEAD0458F8B" x="0" y="0" fill="#e6edf3" fill-rule="nonzero"/></g><g transform="matrix(1 0 0 -1 57.776622222 12.558)"><use xlink:href="#gD5105E1CC4CD5829824BEAD95693D8C5" x="0" y="0" fill="#e6edf3" fill-rule="nonzero"/></g><g transform="matrix(1 0 0 -1 57.776622222 30.277)"><use xlink:href="#g21E6026C55295689503B3E9C99FAF46D" x="0" y="0" fill="#e6edf3" fill-rule="nonzero"/></g><path fill="none" stroke="#e6edf3" stroke-width="0.624" stroke-linecap="butt" stroke-linejoin="miter" stroke-miterlimit="4" transform="translate(57.776622222 18.109)" d="M 0 0h 6.5"/><g transform="matrix(1 0 0 -1 65.576622222 21.359)"><use xlink:href="#gACA2FE1DD062579B79E6E19150F5B03F" x="0" y="0" fill="#e6edf3" fill-rule="nonzero"/></g><g transform="matrix(1 0 0 -1 77.393622222 21.359)"><use xlink:href="#gCD18A55F4CC2CA429D96672C565B9565" x="0" y="0" fill="#e6edf3" fill-rule="nonzero"/></g><g transform="matrix(1 0 0 -1 84.166622222 24.57)"><use xlink:href="#gC7B20184179011BBC954B5E7CD84FB69" x="0" y="0" fill="#e6edf3" fill-rule="nonzero"/></g><g transform="matrix(1 0 0 -1 92.747922222 21.359)"><use xlink:href="#g2D1FD5FA7721AD843D67732819992226" x="0" y="0" fill="#e6edf3" fill-rule="nonzero"/></g><g transform="matrix(1 0 0 -1 128.263922222 21.359)"><use xlink:href="#g2F389E882241F7D883BD9BE49B9B556F" x="0" y="0" fill="#e6edf3" fill-rule="nonzero"/></g><g transform="matrix(1 0 0 -1 133.320922222 21.359)"><use xlink:href="#gF4455947FC057089CFA62E76F26386FD" x="0" y="0" fill="#e6edf3" fill-rule="nonzero"/></g><g transform="matrix(1 0 0 -1 143.616922222 21.359)"><use xlink:href="#g77D2A3BE49641BC9FE86B31DAB4932B4" x="0" y="0" fill="#e6edf3" fill-rule="nonzero"/></g><g transform="matrix(1 0 0 -1 148.673922222 24.57)"><use xlink:href="#gA2D715C2BA380523111540EF9E8501E1" x="0" y="0" fill="#e6edf3" fill-rule="nonzero"/><use xlink:href="#g12A277A1F32FE31CE8B77358BEAB0050" x="4.55" y="0" fill="#e6edf3" fill-rule="nonzero"/></g><g transform="matrix(1 0 0 -1 164.515433333 21.359)"><use xlink:href="#g13AFF74D87C474CFAF661EEAD0458F8B" x="0" y="0" fill="#e6edf3" fill-rule="nonzero"/></g><g transform="matrix(1 0 0 -1 178.240544444 21.359)"><use xlink:href="#gACA2FE1DD062579B79E6E19150F5B03F" x="0" y="0" fill="#e6edf3" fill-rule="nonzero"/></g><g transform="matrix(1 0 0 -1 190.057544444 21.359)"><use xlink:href="#gCD18A55F4CC2CA429D96672C565B9565" x="0" y="0" fill="#e6edf3" fill-rule="nonzero"/></g><g transform="matrix(1 0 0 -1 196.830544444 24.57)"><use xlink:href="#gC7B20184179011BBC954B5E7CD84FB69" x="0" y="0" fill="#e6edf3" fill-rule="nonzero"/></g><g transform="matrix(1 0 0 -1 205.411844444 21.359)"><use xlink:href="#g2D1FD5FA7721AD843D67732819992226" x="0" y="0" fill="#e6edf3" fill-rule="nonzero"/></g><defs><symbol id="g2F389E882241F7D883BD9BE49B9B556F" overflow="visible"><path d="M 0 0m 4.069 -3.25c 0.195 0 0.299 0.104 0.299 0.312c 0 0.039 0 0.078 -0.013 0.104l -2.301 6.084l 2.301 6.071c 0.013 0.026 0.013 0.065 0.013 0.117c 0 0.208 -0.104 0.312 -0.299 0.312c -0.143 0 -0.234 -0.065 -0.286 -0.195l -2.34 -6.188c -0.013 -0.026 -0.013 -0.065 -0.013 -0.117c 0 -0.039 0 -0.078 0.013 -0.104l 2.34 -6.201c 0.052 -0.13 0.143 -0.195 0.286 -0.195Z "/></symbol><symbol id="gF4455947FC057089CFA62E76F26386FD" overflow="visible"><path d="M 0 0m 2.587 8.528c 0 -0.13 0.143 -0.195 0.416 -0.195c 0.52 0 0.78 -0.052 0.78 -0.169c 0 -0.039 -0.026 -0.13 -0.065 -0.299l -1.69 -6.799c -0.065 -0.286 -0.195 -0.455 -0.39 -0.52c -0.091 -0.026 -0.325 -0.039 -0.728 -0.039c -0.286 0 -0.416 -0.026 -0.416 -0.299c 0 -0.143 0.143 -0.208 0.416 -0.208h 6.669c 0.312 0 0.338 0.026 0.442 0.247l 0.52 1.17c 0.351 0.806 0.598 1.404 0.741 1.807c -0.026 0.117 -0.065 0.195 -0.208 0.195c -0.091 0 -0.169 -0.065 -0.221 -0.182c -0.325 -0.767 -0.637 -1.352 -0.949 -1.768c -0.52 -0.702 -1.287 -0.962 -2.509 -0.962h -1.885c -0.13 0 -0.221 0 -0.273 0.013c -0.078 0 -0.117 0.026 -0.117 0.065c 0 0.026 0.026 0.117 0.065 0.286l 0.858 3.471h 1.235c 0.611 0 0.936 -0.078 1.001 -0.247c 0.026 -0.065 0.039 -0.156 0.039 -0.286c 0 -0.169 -0.026 -0.377 -0.091 -0.624c -0.026 -0.065 -0.039 -0.117 -0.039 -0.156c 0 -0.13 0.078 -0.195 0.221 -0.195c 0.117 0 0.195 0.104 0.247 0.299l 0.728 3.016c 0 0.13 -0.065 0.195 -0.208 0.195c -0.104 0 -0.182 -0.091 -0.221 -0.273c -0.13 -0.507 -0.299 -0.832 -0.52 -0.988c -0.221 -0.156 -0.585 -0.234 -1.118 -0.234h -1.144l 0.754 3.029c 0.104 0.442 0.104 0.455 0.65 0.455h 1.807c 0.663 0 1.118 -0.065 1.365 -0.195c 0.364 -0.195 0.546 -0.585 0.546 -1.17c 0 -0.221 -0.013 -0.455 -0.052 -0.676c 0 -0.026 0 -0.065 -0.013 -0.117v -0.117c 0 -0.143 0.065 -0.208 0.195 -0.208c 0.13 0 0.208 0.117 0.234 0.364l 0.26 2.223c 0.039 0.364 -0.052 0.403 -0.403 0.403h -6.487c -0.299 0 -0.442 -0.013 -0.442 -0.312Z "/></symbol><symbol id="g77D2A3BE49641BC9FE86B31DAB4932B4" overflow="visible"><path d="M 0 0m 3.614 3.146c 0.013 0.026 0.013 0.065 0.013 0.104c 0 0.039 0 0.078 -0.013 0.104l -2.34 6.201c -0.052 0.13 -0.143 0.195 -0.286 0.195c -0.195 0 -0.299 -0.104 -0.299 -0.312c 0 -0.039 0 -0.078 0.013 -0.104l 2.301 -6.084l -2.301 -6.071c -0.013 -0.026 -0.013 -0.065 -0.013 -0.117c 0 -0.208 0.104 -0.312 0.299 -0.312c 0.143 0 0.234 0.065 0.286 0.195Z "/></symbol><symbol id="g1DC54A0239151B73224BF01740FABF4E" overflow="visible"><path d="M 0 0m 2.7573 3.2123c 0.6006 0.2275 1.1648 0.8008 1.1648 1.5743c 0 0.3913 -0.1911 0.7098 -0.5642 0.9555c -0.3276 0.2093 -0.7007 0.3185 -1.1193 0.3185c -0.4095 0 -0.7644 -0.1092 -1.0829 -0.3185c -0.3549 -0.2366 -0.5369 -0.546 -0.5369 -0.9373c 0 -0.3003 0.2002 -0.5096 0.4914 -0.5096c 0.2912 0 0.4914 0.2093 0.4914 0.5005c 0 0.3003 -0.1729 0.4641 -0.5187 0.4823c 0.2366 0.3185 0.6097 0.4823 1.1193 0.4823c 0.546 0 0.819 -0.3185 0.819 -0.9646c 0 -0.3822 -0.0728 -0.7007 -0.2093 -0.9646c -0.2457 -0.4368 -0.5824 -0.5187 -1.1466 -0.5187c -0.1092 -0.0182 -0.1638 -0.0637 -0.1638 -0.1456c 0 -0.1365 0.0637 -0.1365 0.2457 -0.1365h 0.3913c 0.6825 0 1.0283 -0.4823 1.0283 -1.456c 0 -0.7735 -0.2821 -1.4469 -0.9737 -1.4469c -0.5915 0 -1.0283 0.2002 -1.2922 0.6006c 0.3185 -0.0091 0.5551 0.2275 0.5551 0.5369c 0 0.3094 -0.2275 0.5369 -0.5369 0.5369c -0.3549 0 -0.5369 -0.182 -0.5369 -0.5551c 0 -0.4459 0.2002 -0.8008 0.6006 -1.0829c 0.3549 -0.2457 0.7735 -0.364 1.2376 -0.364c 0.5187 0 0.9646 0.1729 1.3559 0.5096c 0.3913 0.3367 0.5824 0.7553 0.5824 1.2649c 0 0.8554 -0.6734 1.4469 -1.4014 1.638Z "/></symbol><symbol id="g12A277A1F32FE31CE8B77358BEAB0050" overflow="visible"><path d="M 0 0m 3.6491 0c 0.8099 0 1.4742 0.3094 2.0111 0.9373c 0.5187 0.5915 0.7735 1.3013 0.7735 2.1203c 0 0.8372 -0.2548 1.5652 -0.7553 2.1749c -0.5369 0.6552 -1.2194 0.9828 -2.0293 0.9828h -3.3306v -0.3549h 0.2548c 0.3185 0 0.5096 -0.0273 0.5733 -0.0728c 0.0637 -0.0455 0.1001 -0.1456 0.1001 -0.3094v -4.7411c 0 -0.1638 -0.0364 -0.273 -0.1001 -0.3185c -0.0637 -0.0455 -0.2548 -0.0637 -0.5733 -0.0637h -0.2548v -0.3549Z m -0.2457 0.3549h -0.91c -0.3549 0 -0.4004 -0.0091 -0.4004 0.3185v 4.8685c 0 0.3276 0.0455 0.3185 0.4004 0.3185h 0.9009c 0.6734 0 1.2103 -0.273 1.6107 -0.819c 0.3003 -0.4277 0.455 -1.0829 0.455 -1.9838c 0 -1.5925 -0.6006 -2.7027 -2.0566 -2.7027Z "/></symbol><symbol id="g13AFF74D87C474CFAF661EEAD0458F8B" overflow="visible"><path d="M 0 0m 9.074 4.771h -8.034c -0.208 0 -0.312 -0.104 -0.312 -0.299c 0 -0.195 0.104 -0.299 0.312 -0.299h 8.034c 0.208 0 0.312 0.104 0.312 0.299c 0 0.156 -0.143 0.299 -0.312 0.299Z m 0 -2.444h -8.034c -0.208 0 -0.312 -0.104 -0.312 -0.299c 0 -0.195 0.104 -0.299 0.312 -0.299h 8.034c 0.208 0 0.312 0.104 0.312 0.299c 0 0.169 -0.143 0.299 -0.312 0.299Z "/></symbol><symbol id="gD5105E1CC4CD5829824BEAD95693D8C5" overflow="visible"><path d="M 0 0m 3.939 4.589c 0.858 0.325 1.664 1.144 1.664 2.249c 0 0.559 -0.273 1.014 -0.806 1.365c -0.468 0.299 -1.001 0.455 -1.599 0.455c -0.585 0 -1.092 -0.156 -1.547 -0.455c -0.507 -0.338 -0.767 -0.78 -0.767 -1.339c 0 -0.429 0.286 -0.728 0.702 -0.728c 0.416 0 0.702 0.299 0.702 0.715c 0 0.429 -0.247 0.663 -0.741 0.689c 0.338 0.455 0.871 0.689 1.599 0.689c 0.78 0 1.17 -0.455 1.17 -1.378c 0 -0.546 -0.104 -1.001 -0.299 -1.378c -0.351 -0.624 -0.832 -0.741 -1.638 -0.741c -0.156 -0.026 -0.234 -0.091 -0.234 -0.208c 0 -0.195 0.091 -0.195 0.351 -0.195h 0.559c 0.975 0 1.469 -0.689 1.469 -2.08c 0 -1.105 -0.403 -2.067 -1.391 -2.067c -0.845 0 -1.469 0.286 -1.846 0.858c 0.455 -0.013 0.793 0.325 0.793 0.767c 0 0.442 -0.325 0.767 -0.767 0.767c -0.507 0 -0.767 -0.26 -0.767 -0.793c 0 -0.637 0.286 -1.144 0.858 -1.547c 0.507 -0.351 1.105 -0.52 1.768 -0.52c 0.741 0 1.378 0.247 1.937 0.728c 0.559 0.481 0.832 1.079 0.832 1.807c 0 1.222 -0.962 2.067 -2.002 2.34Z "/></symbol><symbol id="g21E6026C55295689503B3E9C99FAF46D" overflow="visible"><path d="M 0 0m 3.081 8.658c -0.663 0 -1.222 -0.234 -1.703 -0.702c -0.481 -0.468 -0.728 -1.014 -0.728 -1.677c 0 -0.442 0.325 -0.767 0.728 -0.767c 0.39 0 0.715 0.338 0.715 0.728c 0 0.429 -0.312 0.728 -0.728 0.728c -0.039 0 -0.065 0 -0.091 -0.013c 0.247 0.637 0.819 1.196 1.638 1.196c 1.066 0 1.664 -0.923 1.664 -2.041c 0 -0.871 -0.442 -1.807 -1.326 -2.795l -2.444 -2.756c -0.169 -0.195 -0.156 -0.182 -0.156 -0.559h 4.823l 0.377 2.34h -0.429c -0.104 -0.663 -0.195 -1.04 -0.273 -1.157c -0.065 -0.065 -0.455 -0.091 -1.17 -0.091h -2.171l 1.261 1.235c 0.884 0.832 2.002 1.729 2.379 2.418c 0.26 0.455 0.39 0.91 0.39 1.365c 0 1.534 -1.196 2.548 -2.756 2.548Z "/></symbol><symbol id="gACA2FE1DD062579B79E6E19150F5B03F" overflow="visible"><path d="M 0 0m 11.232 8.879c -0.247 0 -1.053 -0.039 -1.3 -0.039c -0.247 0 -1.066 0.039 -1.313 0.039c -0.195 0 -0.286 -0.104 -0.286 -0.312c 0 -0.117 0.091 -0.182 0.286 -0.195c 0.546 0 0.819 -0.169 0.819 -0.507c 0 -0.078 -0.013 -0.169 -0.026 -0.26l -1.404 -5.564l -2.795 6.565c -0.104 0.247 -0.13 0.273 -0.455 0.273h -1.729c -0.312 0 -0.429 -0.026 -0.429 -0.312c 0 -0.13 0.143 -0.195 0.416 -0.195c 0.546 0 0.819 -0.013 0.832 -0.052l -1.729 -6.89c -0.117 -0.507 -0.416 -0.793 -0.884 -0.884c -0.338 -0.039 -0.728 0.013 -0.728 -0.351c 0 -0.13 0.078 -0.195 0.221 -0.195c 0.234 0 1.04 0.039 1.287 0.039c 0.247 0 1.079 -0.039 1.326 -0.039c 0.195 0 0.286 0.104 0.286 0.312c 0 0.117 -0.104 0.182 -0.312 0.195c -0.533 0.013 -0.793 0.182 -0.793 0.507c 0 0.065 0.013 0.156 0.039 0.286l 1.677 6.643l 3.25 -7.67c 0.078 -0.182 0.182 -0.273 0.299 -0.273c 0.117 0 0.195 0.104 0.247 0.312l 1.807 7.15c 0.169 0.663 0.533 0.897 1.339 0.91c 0.182 0.013 0.273 0.117 0.273 0.325c -0.039 0.117 -0.052 0.182 -0.221 0.182Z "/></symbol><symbol id="gCD18A55F4CC2CA429D96672C565B9565" overflow="visible"><path d="M 0 0m 5.317 4.589c 0 -0.338 0.182 -0.507 0.533 -0.507c 0.455 0 0.754 0.403 0.754 0.845c 0 0.507 -0.416 0.858 -0.923 0.858c -0.585 0 -1.209 -0.39 -1.898 -1.157c -0.533 -0.585 -0.962 -0.962 -1.313 -1.131l 1.313 5.33c -0.026 0.117 -0.052 0.195 -0.221 0.195c -0.416 0 -1.404 -0.117 -1.56 -0.13c -0.195 -0.026 -0.286 -0.117 -0.286 -0.312c 0 -0.13 0.117 -0.195 0.351 -0.195c 0.247 0 0.585 0.013 0.585 -0.169l -1.885 -7.657c -0.039 -0.143 -0.052 -0.234 -0.052 -0.286c 0 -0.273 0.143 -0.416 0.416 -0.416c 0.221 0 0.39 0.104 0.481 0.299c 0.065 0.117 0.299 1.04 0.715 2.782c 0.676 -0.065 1.391 -0.39 1.391 -1.04c 0 -0.195 -0.091 -0.585 -0.091 -0.715c 0 -0.741 0.481 -1.326 1.222 -1.326c 0.754 0 1.261 0.676 1.521 2.028c 0 0.117 -0.065 0.182 -0.195 0.182c -0.117 0 -0.195 -0.091 -0.234 -0.273c -0.286 -1.027 -0.637 -1.547 -1.066 -1.547c -0.234 0 -0.351 0.182 -0.351 0.546c 0 0.208 0.156 0.91 0.156 1.118c 0 0.741 -0.598 1.196 -1.807 1.378c 0.299 0.208 0.637 0.507 1.001 0.897c 0.364 0.39 0.624 0.637 0.793 0.78c 0.351 0.286 0.689 0.429 0.988 0.429c 0.13 0 0.234 -0.026 0.312 -0.078c -0.351 -0.065 -0.65 -0.39 -0.65 -0.728Z "/></symbol><symbol id="gC7B20184179011BBC954B5E7CD84FB69" overflow="visible"><path d="M 0 0m 7.6167 4.9049c 0 0.4368 -0.2184 0.7735 -0.6552 1.0101c -0.3549 0.2002 -0.7735 0.3003 -1.2467 0.3003h -3.276c -0.2093 0 -0.3276 -0.0273 -0.3276 -0.2366c 0 -0.1001 0.0637 -0.1456 0.1911 -0.1547l 0.4732 -0.0182c 0.1183 -0.0091 0.1729 0 0.1729 -0.091l -1.2285 -4.9686c -0.0455 -0.182 -0.1365 -0.2912 -0.273 -0.3367c -0.0455 -0.0091 -0.2002 -0.0182 -0.4823 -0.0182h -0.1547c -0.1001 -0.0091 -0.1547 -0.0819 -0.1547 -0.2184c 0 -0.1547 0.1183 -0.1729 0.3094 -0.1729h 3.4853c 0.6097 0 1.1921 0.1729 1.7472 0.5096c 0.6461 0.3913 0.9646 0.8736 0.9646 1.4469c 0 0.728 -0.6916 1.1739 -1.3741 1.3013c 0.8099 0.182 1.8291 0.7826 1.8291 1.6471Z m -0.9555 0.0091c 0 -0.455 -0.2275 -0.8281 -0.6734 -1.1284c -0.4004 -0.2639 -0.8372 -0.3913 -1.3195 -0.3913h -1.4287l 0.5369 2.1476c 0.0728 0.273 0.0728 0.2821 0.4277 0.2821h 1.365c 0.6279 0 1.092 -0.3185 1.092 -0.91Z m -0.4823 -2.8938c 0 -0.4732 -0.2184 -0.8736 -0.6461 -1.1921c -0.3913 -0.2912 -0.8281 -0.4368 -1.3195 -0.4368h -1.4469c -0.1729 0 -0.2548 -0.0182 -0.2548 0.0546l 0.6461 2.6208h 1.8837c 0.6643 0 1.1375 -0.3822 1.1375 -1.0465Z "/></symbol><symbol id="g2D1FD5FA7721AD843D67732819992226" overflow="visible"><path d="M 0 0m 4.472 8.203c 0 -0.039 -0.013 -0.13 -0.052 -0.26l -1.716 -6.864c -0.052 -0.195 -0.104 -0.312 -0.143 -0.364c -0.117 -0.143 -0.559 -0.208 -1.339 -0.208c -0.403 0 -0.585 0.039 -0.585 -0.299c 0 -0.143 0.091 -0.208 0.26 -0.208c 0.663 0 1.599 0.052 2.158 0.039l 1.066 -0.013c 0.182 0 0.897 -0.026 1.118 -0.026c 0.221 0 0.325 0.104 0.325 0.312c 0 0.13 -0.156 0.195 -0.481 0.195c -0.676 0 -1.066 0.026 -1.183 0.091c -0.039 0.026 -0.065 0.078 -0.065 0.156l 1.755 7.085c 0.039 0.182 0.078 0.299 0.117 0.338c 0.052 0.078 0.364 0.117 0.936 0.117c 0.715 0 1.209 -0.052 1.456 -0.169c 0.247 -0.117 0.377 -0.39 0.377 -0.832c 0 -0.234 -0.039 -0.572 -0.104 -1.014c -0.026 -0.104 -0.039 -0.182 -0.039 -0.247c 0 -0.143 0.065 -0.221 0.208 -0.221c 0.117 0 0.195 0.117 0.234 0.338l 0.351 2.236c 0.013 0.065 0.026 0.143 0.026 0.221c 0 0.13 -0.13 0.195 -0.403 0.195h -7.124c -0.338 0 -0.364 -0.039 -0.468 -0.286l -0.767 -2.262c -0.039 -0.117 -0.065 -0.195 -0.078 -0.247c 0 -0.13 0.065 -0.195 0.208 -0.195c 0.104 0 0.195 0.104 0.26 0.299c 0.325 0.949 0.65 1.534 0.949 1.781c 0.338 0.273 0.988 0.403 1.937 0.403h 0.507c 0.143 0 0.299 0.013 0.299 -0.091Z "/></symbol><symbol id="gA2D715C2BA380523111540EF9E8501E1" overflow="visible"><path d="M 0 0m 2.1567 6.0606c -0.4641 0 -0.8554 -0.1638 -1.1921 -0.4914c -0.3367 -0.3276 -0.5096 -0.7098 -0.5096 -1.1739c 0 -0.3094 0.2275 -0.5369 0.5096 -0.5369c 0.273 0 0.5005 0.2366 0.5005 0.5096c 0 0.3003 -0.2184 0.5096 -0.5096 0.5096c -0.0273 0 -0.0455 0 -0.0637 -0.0091c 0.1729 0.4459 0.5733 0.8372 1.1466 0.8372c 0.7462 0 1.1648 -0.6461 1.1648 -1.4287c 0 -0.6097 -0.3094 -1.2649 -0.9282 -1.9565l -1.7108 -1.9292c -0.1183 -0.1365 -0.1092 -0.1274 -0.1092 -0.3913h 3.3761l 0.2639 1.638h -0.3003c -0.0728 -0.4641 -0.1365 -0.728 -0.1911 -0.8099c -0.0455 -0.0455 -0.3185 -0.0637 -0.819 -0.0637h -1.5197l 0.8827 0.8645c 0.6188 0.5824 1.4014 1.2103 1.6653 1.6926c 0.182 0.3185 0.273 0.637 0.273 0.9555c 0 1.0738 -0.8372 1.7836 -1.9292 1.7836Z "/></symbol></defs></svg>