<svg viewBox="0 0 222.231244444 34.32" width="222.231244444pt" height="34.32pt" xmlns="http://www.w3.org/2000/svg" xmlns:xlink="http://www.w3.org/1999/xlink" xmlns:h5="http://www.w3.org/1999/xhtml"><g transform="matrix(1 0 0 -1 6.5 21.502)"><use xlink:href="#g2F389E882241F7D883BD9BE49B9B556F" x="0" y="0" fill="#e6edf3" fill-rule="nonzero"/></g><g transform="matrix(1 0 0 -1 11.557 21.502)"><use xlink:href="#gC0145148BC36294A1E6393678561EC4B" x="0" y="0" fill="#e6edf3" fill-rule="nonzero"/></g><g transform="matrix(1 0 0 -1 16.835 21.502)"><use xlink:href="#g7AE04F15A7C3AC417269385A78E6B62E" x="0" y="0" fill="#e6edf3" fill-rule="nonzero"/></g><g transform="matrix(1 0 0 -1 22.789 21.502)"><use xlink:href="#gAF39B06637020F254AB7B881282CA7F5" x="0" y="0" fill="#e6edf3" fill-rule="nonzero"/></g><g transform="matrix(1 0 0 -1 29.328 24.713)"><use xlink:href="#g98601464C894CB168BCFB296435320FA" x="0" y="0" fill="#e6edf3" fill-rule="nonzero"/></g><g transform="matrix(1 0 0 -1 34.3603 21.502)"><use xlink:href="#g51B3DB8755C43AB79D2F02785B5613F6" x="0" y="0" fill="#e6edf3" fill-rule="nonzero"/></g><g transform="matrix(1 0 0 -1 40.3143 21.502)"><use xlink:href="#g77D2A3BE49641BC9FE86B31DAB4932B4" x="0" y="0" fill="#e6edf3" fill-rule="nonzero"/></g><g transform="matrix(1 0 0 -1 48.982411111 21.502)"><use xlink:href="#g13AFF74D87C474CFAF661EEAD0458F8B" x="0" y="0" fill="#e6edf3" fill-rule="nonzero"/></g><g transform="matrix(1 0 0 -1 62.707522222 21.502)"><use xlink:href="#gCD18A55F4CC2CA429D96672C565B9565" x="0" y="0" fill="#e6edf3" fill-rule="nonzero"/></g><g transform="matrix(1 0 0 -1 69.480522222 24.713)"><use xlink:href="#gC7B20184179011BBC954B5E7CD84FB69" x="0" y="0" fill="#e6edf3" fill-rule="nonzero"/></g><g transform="matrix(1 0 0 -1 79.361822222 12.701)"><use xlink:href="#g2D1FD5FA7721AD843D67732819992226" x="0" y="0" fill="#e6edf3" fill-rule="nonzero"/></g><g transform="matrix(1 0 0 -1 80.869822222 30.42)"><use xlink:href="#g21E6026C55295689503B3E9C99FAF46D" x="0" y="0" fill="#e6edf3" fill-rule="nonzero"/></g><path fill="none" stroke="#e6edf3" stroke-width="0.624" stroke-linecap="butt" stroke-linejoin="miter" stroke-miterlimit="4" transform="translate(79.361822222 18.252)" d="M 0 0h 9.516"/><g transform="matrix(1 0 0 -1 116.177822222 21.502)"><use xlink:href="#g8B273DA24598714A1DE03FD5302C001A" x="0" y="0" fill="#e6edf3" fill-rule="nonzero"/><use xlink:href="#g5D4DFCA3C00979A1E9076032CC813B65" x="5.772" y="0" fill="#e6edf3" fill-rule="nonzero"/><use xlink:href="#gA2276AEFE9378953E87817A497BFC175" x="12.272" y="0" fill="#e6edf3" fill-rule="nonzero"/></g><g transform="matrix(1 0 0 -1 148.677822222 21.502)"><use xlink:href="#gC0145148BC36294A1E6393678561EC4B" x="0" y="0" fill="#e6edf3" fill-rule="nonzero"/></g><g transform="matrix(1 0 0 -1 153.955822222 21.502)"><use xlink:href="#g7AE04F15A7C3AC417269385A78E6B62E" x="0" y="0" fill="#e6edf3" fill-rule="nonzero"/></g><g transform="matrix(1 0 0 -1 159.909822222 21.502)"><use xlink:href="#gAF39B06637020F254AB7B881282CA7F5" x="0" y="0" fill="#e6edf3" fill-rule="nonzero"/></g><g transform="matrix(1 0 0 -1 166.448822222 24.713)"><use xlink:href="#g98601464C894CB168BCFB296435320FA" x="0" y="0" fill="#e6edf3" fill-rule="nonzero"/></g><g transform="matrix(1 0 0 -1 171.481122222 21.502)"><use xlink:href="#g51B3DB8755C43AB79D2F02785B5613F6" x="0" y="0" fill="#e6edf3" fill-rule="nonzero"/></g><g transform="matrix(1 0 0 -1 181.046233333 21.502)"><use xlink:href="#g13AFF74D87C474CFAF661EEAD0458F8B" x="0" y="0" fill="#e6edf3" fill-rule="nonzero"/></g><g transform="matrix(1 0 0 -1 194.771344444 21.502)"><use xlink:href="#g183B7F76720C9CEFDB35CD9597C39B17" x="0" y="0" fill="#e6edf3" fill-rule="nonzero"/></g><g transform="matrix(1 0 0 -1 203.091344444 21.502)"><use xlink:href="#gAF39B06637020F254AB7B881282CA7F5" x="0" y="0" fill="#e6edf3" fill-rule="nonzero"/></g><g transform="matrix(1 0 0 -1 209.825344444 16.69135)"><use xlink:href="#g8A6A9074F91D642F82CC8BE39AC39D3A" x="0" y="0" fill="#e6edf3" fill-rule="nonzero"/></g><g transform="matrix(1 0 0 -1 209.630344444 24.80465)"><use xlink:href="#g98601464C894CB168BCFB296435320FA" x="0" y="0" fill="#e6edf3" fill-rule="nonzero"/></g><defs><symbol id="g2F389E882241F7D883BD9BE49B9B556F" overflow="visible"><path d="M 0 0m 4.069 -3.25c 0.195 0 0.299 0.104 0.299 0.312c 0 0.039 0 0.078 -0.013 0.104l -2.301 6.084l 2.301 6.071c 0.013 0.026 0.013 0.065 0.013 0.117c 0 0.208 -0.104 0.312 -0.299 0.312c -0.143 0 -0.234 -0.065 -0.286 -0.195l -2.34 -6.188c -0.013 -0.026 -0.013 -0.065 -0.013 -0.117c 0 -0.039 0 -0.078 0.013 -0.104l 2.34 -6.201c 0.052 -0.13 0.143 -0.195 0.286 -0.195Z "/></symbol><symbol id="gC0145148BC36294A1E6393678561EC4B" overflow="visible"><path d="M 0 0m 2.964 -0.143c 0.52 0 1.001 0.143 1.443 0.429c 0.169 0.117 0.247 0.208 0.247 0.273c 0 0.156 -0.065 0.234 -0.182 0.234l -0.182 -0.091c -0.481 -0.312 -0.91 -0.468 -1.3 -0.468c -0.871 0 -1.326 0.702 -1.326 1.612c 0 0.338 0.039 0.689 0.13 1.04h 2.054c 0.325 0 0.481 0.091 0.481 0.26c 0 0.156 -0.143 0.234 -0.416 0.234h -1.989c 0.351 1.157 1.053 1.729 2.106 1.729h 0.39c 0.312 0 0.468 0.091 0.468 0.26c 0 0.156 -0.143 0.234 -0.429 0.234h -0.442c -0.923 0 -1.729 -0.312 -2.405 -0.949c -0.676 -0.637 -1.001 -1.404 -1.001 -2.327c 0 -1.404 0.949 -2.47 2.353 -2.47Z "/></symbol><symbol id="g7AE04F15A7C3AC417269385A78E6B62E" overflow="visible"><path d="M 0 0m 4.94 -4.511c 0.13 0 0.195 0.065 0.195 0.195c 0 0.065 -0.026 0.117 -0.065 0.156c -0.793 0.611 -1.43 1.612 -1.911 3.016c -0.416 1.209 -0.624 2.405 -0.624 3.562v 1.664c 0 1.157 0.208 2.353 0.624 3.562c 0.481 1.404 1.118 2.405 1.911 3.016c 0.039 0.039 0.065 0.091 0.065 0.156c 0 0.13 -0.065 0.195 -0.195 0.195c -0.026 0 -0.065 -0.013 -0.104 -0.039c -0.91 -0.689 -1.664 -1.729 -2.262 -3.12c -0.585 -1.313 -0.871 -2.574 -0.871 -3.77v -1.664c 0 -1.196 0.286 -2.457 0.871 -3.77c 0.598 -1.391 1.352 -2.431 2.262 -3.12c 0.039 -0.026 0.078 -0.039 0.104 -0.039Z "/></symbol><symbol id="gAF39B06637020F254AB7B881282CA7F5" overflow="visible"><path d="M 0 0m 4.615 5.746c -0.572 0 -1.118 -0.299 -1.651 -0.897c -0.143 0.598 -0.546 0.897 -1.183 0.897c -0.533 0 -0.923 -0.429 -1.196 -1.274c -0.13 -0.429 -0.195 -0.676 -0.195 -0.754c 0 -0.117 0.065 -0.182 0.208 -0.182c 0.065 0 0.104 0.013 0.143 0.039c 0.065 0.117 0.104 0.208 0.117 0.299c 0.234 0.988 0.533 1.482 0.884 1.482c 0.234 0 0.351 -0.182 0.351 -0.533c 0 -0.195 -0.026 -0.416 -0.091 -0.65l -1.43 -5.707c -0.117 -0.429 -0.13 -0.481 -0.637 -0.481c -0.234 0 -0.351 -0.104 -0.351 -0.299c 0 -0.143 0.078 -0.208 0.221 -0.208c 0.195 0 0.871 0.039 1.066 0.039c 0.247 0 1.027 -0.039 1.274 -0.039c 0.195 0 0.286 0.104 0.286 0.312c 0 0.13 -0.117 0.195 -0.364 0.195c -0.234 0 -0.585 -0.013 -0.585 0.143c 0 0.169 0.533 2.21 0.585 2.431c 0.26 -0.481 0.65 -0.728 1.17 -0.728c 0.845 0 1.586 0.429 2.236 1.3c 0.598 0.793 0.897 1.638 0.897 2.509c 0 1.131 -0.676 2.106 -1.755 2.106Z m -0.039 -0.39c 0.507 0 0.767 -0.39 0.767 -1.157c 0 -0.351 -0.078 -0.819 -0.221 -1.404c -0.299 -1.131 -0.676 -1.872 -1.131 -2.249c -0.273 -0.221 -0.52 -0.338 -0.767 -0.338c -0.377 0 -0.637 0.169 -0.78 0.52c -0.117 0.273 -0.182 0.468 -0.182 0.572l 0.663 2.717c 0.065 0.286 0.299 0.585 0.663 0.884c 0.364 0.299 0.689 0.455 0.988 0.455Z "/></symbol><symbol id="g98601464C894CB168BCFB296435320FA" overflow="visible"><path d="M 0 0m 3.9949 5.6511c 0 0.2184 -0.1729 0.3822 -0.3913 0.3822c -0.2639 0 -0.5369 -0.2639 -0.5369 -0.5278c 0 -0.2184 0.1729 -0.3822 0.3913 -0.3822c 0.273 0 0.5369 0.2548 0.5369 0.5278Z m -1.3195 -1.6198c -0.5096 0 -0.9555 -0.3367 -1.1921 -0.6552c -0.273 -0.3913 -0.4095 -0.6461 -0.4095 -0.7644c 0 -0.1001 0.0637 -0.1456 0.182 -0.1456c 0.091 0 0.1638 0.0637 0.2184 0.182c 0.1001 0.2184 0.2184 0.4095 0.3549 0.5824c 0.2639 0.3185 0.5369 0.4732 0.819 0.4732c 0.1729 0 0.2639 -0.1365 0.2639 -0.4004c 0 -0.1092 -0.0091 -0.2002 -0.0273 -0.2639l -0.8554 -3.4489c -0.1274 -0.5187 -0.5369 -1.1193 -1.1193 -1.1193c -0.0819 0 -0.1547 0.0091 -0.2275 0.0273c 0.1638 0.1001 0.2457 0.2548 0.2457 0.4459c 0 0.2457 -0.1274 0.3731 -0.3822 0.3731c -0.3094 0 -0.546 -0.2639 -0.546 -0.5733c 0 -0.4186 0.455 -0.6006 0.9191 -0.6006c 0.2093 0 0.4368 0.0364 0.6734 0.1183c 0.5642 0.1911 1.0738 0.728 1.2194 1.3377l 0.8099 3.2214c 0.0273 0.1183 0.0455 0.2275 0.0455 0.3276c 0 0.5278 -0.4641 0.8827 -0.9919 0.8827Z "/></symbol><symbol id="g51B3DB8755C43AB79D2F02785B5613F6" overflow="visible"><path d="M 0 0m 1.118 -4.472c 0.91 0.689 1.664 1.729 2.262 3.12c 0.585 1.313 0.871 2.574 0.871 3.77v 1.664c 0 1.196 -0.286 2.457 -0.871 3.77c -0.598 1.391 -1.352 2.431 -2.262 3.12c -0.039 0.026 -0.078 0.039 -0.104 0.039c -0.13 0 -0.195 -0.065 -0.195 -0.195c 0 -0.065 0.026 -0.117 0.065 -0.156c 0.793 -0.611 1.43 -1.612 1.911 -3.016c 0.416 -1.209 0.624 -2.405 0.624 -3.562v -1.664c 0 -1.157 -0.208 -2.353 -0.624 -3.562c -0.481 -1.404 -1.118 -2.405 -1.911 -3.016c -0.039 -0.039 -0.065 -0.091 -0.065 -0.156c 0 -0.13 0.065 -0.195 0.195 -0.195c 0.026 0 0.065 0.013 0.104 0.039Z "/></symbol><symbol id="g77D2A3BE49641BC9FE86B31DAB4932B4" overflow="visible"><path d="M 0 0m 3.614 3.146c 0.013 0.026 0.013 0.065 0.013 0.104c 0 0.039 0 0.078 -0.013 0.104l -2.34 6.201c -0.052 0.13 -0.143 0.195 -0.286 0.195c -0.195 0 -0.299 -0.104 -0.299 -0.312c 0 -0.039 0 -0.078 0.013 -0.104l 2.301 -6.084l -2.301 -6.071c -0.013 -0.026 -0.013 -0.065 -0.013 -0.117c 0 -0.208 0.104 -0.312 0.299 -0.312c 0.143 0 0.234 0.065 0.286 0.195Z "/></symbol><symbol id="g13AFF74D87C474CFAF661EEAD0458F8B" overflow="visible"><path d="M 0 0m 9.074 4.771h -8.034c -0.208 0 -0.312 -0.104 -0.312 -0.299c 0 -0.195 0.104 -0.299 0.312 -0.299h 8.034c 0.208 0 0.312 0.104 0.312 0.299c 0 0.156 -0.143 0.299 -0.312 0.299Z m 0 -2.444h -8.034c -0.208 0 -0.312 -0.104 -0.312 -0.299c 0 -0.195 0.104 -0.299 0.312 -0.299h 8.034c 0.208 0 0.312 0.104 0.312 0.299c 0 0.169 -0.143 0.299 -0.312 0.299Z "/></symbol><symbol id="gCD18A55F4CC2CA429D96672C565B9565" overflow="visible"><path d="M 0 0m 5.317 4.589c 0 -0.338 0.182 -0.507 0.533 -0.507c 0.455 0 0.754 0.403 0.754 0.845c 0 0.507 -0.416 0.858 -0.923 0.858c -0.585 0 -1.209 -0.39 -1.898 -1.157c -0.533 -0.585 -0.962 -0.962 -1.313 -1.131l 1.313 5.33c -0.026 0.117 -0.052 0.195 -0.221 0.195c -0.416 0 -1.404 -0.117 -1.56 -0.13c -0.195 -0.026 -0.286 -0.117 -0.286 -0.312c 0 -0.13 0.117 -0.195 0.351 -0.195c 0.247 0 0.585 0.013 0.585 -0.169l -1.885 -7.657c -0.039 -0.143 -0.052 -0.234 -0.052 -0.286c 0 -0.273 0.143 -0.416 0.416 -0.416c 0.221 0 0.39 0.104 0.481 0.299c 0.065 0.117 0.299 1.04 0.715 2.782c 0.676 -0.065 1.391 -0.39 1.391 -1.04c 0 -0.195 -0.091 -0.585 -0.091 -0.715c 0 -0.741 0.481 -1.326 1.222 -1.326c 0.754 0 1.261 0.676 1.521 2.028c 0 0.117 -0.065 0.182 -0.195 0.182c -0.117 0 -0.195 -0.091 -0.234 -0.273c -0.286 -1.027 -0.637 -1.547 -1.066 -1.547c -0.234 0 -0.351 0.182 -0.351 0.546c 0 0.208 0.156 0.91 0.156 1.118c 0 0.741 -0.598 1.196 -1.807 1.378c 0.299 0.208 0.637 0.507 1.001 0.897c 0.364 0.39 0.624 0.637 0.793 0.78c 0.351 0.286 0.689 0.429 0.988 0.429c 0.13 0 0.234 -0.026 0.312 -0.078c -0.351 -0.065 -0.65 -0.39 -0.65 -0.728Z "/></symbol><symbol id="gC7B20184179011BBC954B5E7CD84FB69" overflow="visible"><path d="M 0 0m 7.6167 4.9049c 0 0.4368 -0.2184 0.7735 -0.6552 1.0101c -0.3549 0.2002 -0.7735 0.3003 -1.2467 0.3003h -3.276c -0.2093 0 -0.3276 -0.0273 -0.3276 -0.2366c 0 -0.1001 0.0637 -0.1456 0.1911 -0.1547l 0.4732 -0.0182c 0.1183 -0.0091 0.1729 0 0.1729 -0.091l -1.2285 -4.9686c -0.0455 -0.182 -0.1365 -0.2912 -0.273 -0.3367c -0.0455 -0.0091 -0.2002 -0.0182 -0.4823 -0.0182h -0.1547c -0.1001 -0.0091 -0.1547 -0.0819 -0.1547 -0.2184c 0 -0.1547 0.1183 -0.1729 0.3094 -0.1729h 3.4853c 0.6097 0 1.1921 0.1729 1.7472 0.5096c 0.6461 0.3913 0.9646 0.8736 0.9646 1.4469c 0 0.728 -0.6916 1.1739 -1.3741 1.3013c 0.8099 0.182 1.8291 0.7826 1.8291 1.6471Z m -0.9555 0.0091c 0 -0.455 -0.2275 -0.8281 -0.6734 -1.1284c -0.4004 -0.2639 -0.8372 -0.3913 -1.3195 -0.3913h -1.4287l 0.5369 2.1476c 0.0728 0.273 0.0728 0.2821 0.4277 0.2821h 1.365c 0.6279 0 1.092 -0.3185 1.092 -0.91Z m -0.4823 -2.8938c 0 -0.4732 -0.2184 -0.8736 -0.6461 -1.1921c -0.3913 -0.2912 -0.8281 -0.4368 -1.3195 -0.4368h -1.4469c -0.1729 0 -0.2548 -0.0182 -0.2548 0.0546l 0.6461 2.6208h 1.8837c 0.6643 0 1.1375 -0.3822 1.1375 -1.0465Z "/></symbol><symbol id="g2D1FD5FA7721AD843D67732819992226" overflow="visible"><path d="M 0 0m 4.472 8.203c 0 -0.039 -0.013 -0.13 -0.052 -0.26l -1.716 -6.864c -0.052 -0.195 -0.104 -0.312 -0.143 -0.364c -0.117 -0.143 -0.559 -0.208 -1.339 -0.208c -0.403 0 -0.585 0.039 -0.585 -0.299c 0 -0.143 0.091 -0.208 0.26 -0.208c 0.663 0 1.599 0.052 2.158 0.039l 1.066 -0.013c 0.182 0 0.897 -0.026 1.118 -0.026c 0.221 0 0.325 0.104 0.325 0.312c 0 0.13 -0.156 0.195 -0.481 0.195c -0.676 0 -1.066 0.026 -1.183 0.091c -0.039 0.026 -0.065 0.078 -0.065 0.156l 1.755 7.085c 0.039 0.182 0.078 0.299 0.117 0.338c 0.052 0.078 0.364 0.117 0.936 0.117c 0.715 0 1.209 -0.052 1.456 -0.169c 0.247 -0.117 0.377 -0.39 0.377 -0.832c 0 -0.234 -0.039 -0.572 -0.104 -1.014c -0.026 -0.104 -0.039 -0.182 -0.039 -0.247c 0 -0.143 0.065 -0.221 0.208 -0.221c 0.117 0 0.195 0.117 0.234 0.338l 0.351 2.236c 0.013 0.065 0.026 0.143 0.026 0.221c 0 0.13 -0.13 0.195 -0.403 0.195h -7.124c -0.338 0 -0.364 -0.039 -0.468 -0.286l -0.767 -2.262c -0.039 -0.117 -0.065 -0.195 -0.078 -0.247c 0 -0.13 0.065 -0.195 0.208 -0.195c 0.104 0 0.195 0.104 0.26 0.299c 0.325 0.949 0.65 1.534 0.949 1.781c 0.338 0.273 0.988 0.403 1.937 0.403h 0.507c 0.143 0 0.299 0.013 0.299 -0.091Z "/></symbol><symbol id="g21E6026C55295689503B3E9C99FAF46D" overflow="visible"><path d="M 0 0m 3.081 8.658c -0.663 0 -1.222 -0.234 -1.703 -0.702c -0.481 -0.468 -0.728 -1.014 -0.728 -1.677c 0 -0.442 0.325 -0.767 0.728 -0.767c 0.39 0 0.715 0.338 0.715 0.728c 0 0.429 -0.312 0.728 -0.728 0.728c -0.039 0 -0.065 0 -0.091 -0.013c 0.247 0.637 0.819 1.196 1.638 1.196c 1.066 0 1.664 -0.923 1.664 -2.041c 0 -0.871 -0.442 -1.807 -1.326 -2.795l -2.444 -2.756c -0.169 -0.195 -0.156 -0.182 -0.156 -0.559h 4.823l 0.377 2.34h -0.429c -0.104 -0.663 -0.195 -1.04 -0.273 -1.157c -0.065 -0.065 -0.455 -0.091 -1.17 -0.091h -2.171l 1.261 1.235c 0.884 0.832 2.002 1.729 2.379 2.418c 0.26 0.455 0.39 0.91 0.39 1.365c 0 1.534 -1.196 2.548 -2.756 2.548Z "/></symbol><symbol id="g8B273DA24598714A1DE03FD5302C001A" overflow="visible"><path d="M 0 0m 3.263 5.408c 0.546 0 0.962 -0.13 1.248 -0.39c -0.312 -0.039 -0.533 -0.325 -0.533 -0.624c 0 -0.429 0.208 -0.637 0.637 -0.637c 0.429 0 0.637 0.221 0.637 0.65c 0 0.923 -1.001 1.417 -2.002 1.417c -0.806 0 -1.469 -0.286 -2.002 -0.884c -0.533 -0.598 -0.806 -1.313 -0.806 -2.132c 0 -0.793 0.273 -1.495 0.806 -2.08c 0.533 -0.585 1.183 -0.871 1.976 -0.871c 0.65 0 1.157 0.182 1.521 0.559c 0.299 0.299 0.494 0.598 0.598 0.91c 0.039 0.117 0.052 0.195 0.052 0.247c 0 0.117 -0.078 0.169 -0.221 0.169c -0.104 0 -0.169 -0.052 -0.208 -0.156c -0.273 -0.871 -0.806 -1.313 -1.625 -1.313c -0.377 0 -0.741 0.169 -1.105 0.52c -0.429 0.403 -0.637 1.079 -0.637 2.041c 0 1.3 0.494 2.574 1.664 2.574Z "/></symbol><symbol id="g5D4DFCA3C00979A1E9076032CC813B65" overflow="visible"><path d="M 0 0m 3.237 -0.143c 0.806 0 1.482 0.286 2.041 0.858c 0.559 0.572 0.845 1.261 0.845 2.067c 0 0.819 -0.273 1.534 -0.819 2.132c -0.546 0.598 -1.235 0.91 -2.054 0.91c -0.819 0 -1.495 -0.312 -2.054 -0.91c -0.559 -0.598 -0.832 -1.313 -0.832 -2.132c 0 -0.806 0.273 -1.495 0.832 -2.067c 0.559 -0.572 1.248 -0.858 2.041 -0.858Z m 0.013 0.416c -0.624 0 -1.092 0.273 -1.417 0.832c -0.208 0.364 -0.312 0.962 -0.312 1.781c 0 0.793 0.104 1.365 0.299 1.729c 0.312 0.559 0.78 0.832 1.417 0.832c 0.611 0 1.079 -0.273 1.404 -0.806c 0.221 -0.364 0.325 -0.949 0.325 -1.755c 0 -1.508 -0.442 -2.613 -1.716 -2.613Z "/></symbol><symbol id="gA2276AEFE9378953E87817A497BFC175" overflow="visible"><path d="M 0 0m 4.082 5.369c 0.585 0 0.884 -0.455 0.884 -1.378v -2.964c 0 -0.247 -0.039 -0.403 -0.13 -0.455c -0.091 -0.052 -0.377 -0.078 -0.858 -0.078v -0.494l 1.495 0.039l 1.482 -0.039v 0.494c -0.416 0 -0.689 0.013 -0.819 0.052c -0.13 0.039 -0.182 0.13 -0.182 0.286v 2.431c 0 0.611 -0.013 1.04 -0.052 1.287c -0.13 0.793 -0.715 1.196 -1.742 1.196c -0.819 0 -1.43 -0.39 -1.833 -1.17v 1.17l -1.911 -0.143v -0.494c 0.468 0 0.754 -0.039 0.858 -0.117c 0.104 -0.078 0.143 -0.247 0.143 -0.546v -3.419c 0 -0.247 -0.052 -0.403 -0.143 -0.455c -0.091 -0.052 -0.377 -0.078 -0.858 -0.078v -0.494l 1.495 0.039l 1.482 -0.039v 0.494c -0.481 0 -0.754 0.026 -0.845 0.078c -0.091 0.052 -0.143 0.208 -0.143 0.455v 2.34c 0 1.053 0.663 2.002 1.677 2.002Z "/></symbol><symbol id="g183B7F76720C9CEFDB35CD9597C39B17" overflow="visible"><path d="M 0 0m 4.03 5.746c -0.897 0 -1.703 -0.39 -2.418 -1.157c -0.715 -0.767 -1.079 -1.612 -1.079 -2.522c 0 -1.274 0.858 -2.21 2.132 -2.21c 0.897 0 1.781 0.351 2.665 1.04c 0.195 -0.689 0.598 -1.04 1.196 -1.04c 0.468 0 1.131 0.494 1.131 0.962c 0 0.117 -0.065 0.169 -0.208 0.169c -0.091 0 -0.169 -0.052 -0.208 -0.156c -0.104 -0.273 -0.377 -0.598 -0.676 -0.598c -0.221 0 -0.338 0.416 -0.338 1.261c 0 0.182 0.039 0.325 0.117 0.416c 0.351 0.429 0.663 0.923 0.91 1.469c 0.325 0.702 0.52 1.222 0.572 1.56v 0.052c -0.039 0.091 -0.117 0.13 -0.208 0.13c -0.065 -0.013 -0.143 -0.117 -0.234 -0.299c -0.273 -0.936 -0.65 -1.742 -1.157 -2.405v 0.65c 0 1.508 -0.754 2.678 -2.197 2.678Z m 1.209 -3.003c 0 -0.767 0.013 -1.235 0.026 -1.404c -0.845 -0.741 -1.703 -1.105 -2.574 -1.105c -0.741 0 -1.105 0.455 -1.105 1.352c 0 0.754 0.429 2.158 0.728 2.626c 0.494 0.767 1.066 1.157 1.703 1.157c 0.403 0 0.676 -0.156 0.845 -0.468c 0.091 -0.156 0.156 -0.312 0.221 -0.455c 0.104 -0.299 0.156 -1.092 0.156 -1.703Z "/></symbol><symbol id="g8A6A9074F91D642F82CC8BE39AC39D3A" overflow="visible"><path d="M 0 0m 1.0829 3.8584c 0.2912 0 0.5096 0.2184 0.5096 0.5096c 0 0.3276 -0.1729 0.5005 -0.5096 0.5096c 0.2002 0.4277 0.6552 0.7735 1.2467 0.7735c 0.8008 0 1.3286 -0.6006 1.3286 -1.4014c 0 -0.4368 -0.1547 -0.8554 -0.4732 -1.2649c -0.1547 -0.2093 -0.273 -0.3549 -0.3549 -0.4368l -2.1567 -2.1385c -0.1183 -0.1092 -0.1001 -0.1365 -0.1001 -0.4095h 3.7492l 0.2821 1.7108h -0.3822c -0.0637 -0.4823 -0.1365 -0.7644 -0.2184 -0.8281c -0.0455 -0.0273 -0.3276 -0.0455 -0.8645 -0.0455h -1.547c 0.6097 0.5369 1.1739 1.0192 1.7108 1.4469c 0.4095 0.3185 0.7007 0.6006 0.8827 0.8463c 0.273 0.3549 0.4095 0.728 0.4095 1.1193c 0 0.5642 -0.2184 1.0101 -0.6643 1.3377c -0.3913 0.3003 -0.8827 0.455 -1.4651 0.455c -0.5005 0 -0.9282 -0.1456 -1.3013 -0.4368c -0.3913 -0.3185 -0.5915 -0.7189 -0.5915 -1.2103c 0 -0.3094 0.2275 -0.5369 0.5096 -0.5369Z "/></symbol></defs></svg>