<svg viewBox="0 0 190.239688889 25.8583" width="190.239688889pt" height="25.8583pt" xmlns="http://www.w3.org/2000/svg" xmlns:xlink="http://www.w3.org/1999/xlink" xmlns:h5="http://www.w3.org/1999/xhtml"><g transform="matrix(1 0 0 -1 6.5 21.6723)"><use xlink:href="#g6B3DB0E0ADE6D994825CC39624067234" x="0" y="0" fill="#e6edf3" fill-rule="nonzero"/></g><g transform="matrix(1 0 0 -1 23.924911111 21.6723)"><use xlink:href="#g43776F0EA130CB0EC6D88FD1D39ED823" x="0" y="0" fill="#e6edf3" fill-rule="nonzero"/></g><g transform="matrix(1 0 0 -1 16.611111111 10.1946)"><use xlink:href="#g93B96925AF20254D7D82B92F2475B654" x="0" y="0" fill="#e6edf3" fill-rule="nonzero"/></g><g transform="matrix(1 0 0 -1 22.480611111 12.4423)"><use xlink:href="#g13D66751935FA09636BAA1F04EF91FE0" x="0" y="0" fill="#e6edf3" fill-rule="nonzero"/></g><g transform="matrix(1 0 0 -1 27.416711111 10.1946)"><use xlink:href="#gBEEE2912D783E659636489D0C0BC01CB" x="0" y="0" fill="#e6edf3" fill-rule="nonzero"/></g><g transform="matrix(1 0 0 -1 33.522811111 10.1946)"><use xlink:href="#g402F9925856942787E59D257DA93AD2E" x="0" y="0" fill="#e6edf3" fill-rule="nonzero"/><use xlink:href="#g56CA2213A637A1EBD48C3733E7CBD1B8" x="2.5298" y="0" fill="#e6edf3" fill-rule="nonzero"/><use xlink:href="#g733BC00FCAC4D4817C0648C06C143A7E" x="6.1152" y="0" fill="#e6edf3" fill-rule="nonzero"/><use xlink:href="#g929C9F5835BF20B9E99EAF8B7595E15F" x="10.6652" y="0" fill="#e6edf3" fill-rule="nonzero"/><use xlink:href="#gBFC7FFA96542AB4AB40701B9B2571C85" x="14.2051" y="0" fill="#e6edf3" fill-rule="nonzero"/></g><g transform="matrix(1 0 0 -1 53.868822222 21.6723)"><use xlink:href="#g21E6026C55295689503B3E9C99FAF46D" x="0" y="0" fill="#e6edf3" fill-rule="nonzero"/></g><g transform="matrix(1 0 0 -1 66.609833333 21.6723)"><use xlink:href="#g43776F0EA130CB0EC6D88FD1D39ED823" x="0" y="0" fill="#e6edf3" fill-rule="nonzero"/></g><g transform="matrix(1 0 0 -1 63.979933333 12.3422)"><use xlink:href="#g1CEBE56BFF7571B8DB10F1A4DAC5A5D7" x="0" y="0" fill="#e6edf3" fill-rule="nonzero"/><use xlink:href="#g9BBD495599649835EB769190150DF525" x="4.55" y="0" fill="#e6edf3" fill-rule="nonzero"/><use xlink:href="#g402F9925856942787E59D257DA93AD2E" x="9.6096" y="0" fill="#e6edf3" fill-rule="nonzero"/><use xlink:href="#g1CEBE56BFF7571B8DB10F1A4DAC5A5D7" x="12.1394" y="0" fill="#e6edf3" fill-rule="nonzero"/><use xlink:href="#gF8130F3716873E4875D3AC8A6936C373" x="16.6894" y="0" fill="#e6edf3" fill-rule="nonzero"/><use xlink:href="#gBFC7FFA96542AB4AB40701B9B2571C85" x="21.749" y="0" fill="#e6edf3" fill-rule="nonzero"/></g><g transform="matrix(1 0 0 -1 91.869844444 21.6723)"><use xlink:href="#gD5105E1CC4CD5829824BEAD95693D8C5" x="0" y="0" fill="#e6edf3" fill-rule="nonzero"/></g><g transform="matrix(1 0 0 -1 109.294755556 21.6723)"><use xlink:href="#g43776F0EA130CB0EC6D88FD1D39ED823" x="0" y="0" fill="#e6edf3" fill-rule="nonzero"/></g><g transform="matrix(1 0 0 -1 101.980955556 10.0516)"><use xlink:href="#g93B96925AF20254D7D82B92F2475B654" x="0" y="0" fill="#e6edf3" fill-rule="nonzero"/></g><g transform="matrix(1 0 0 -1 107.850455556 12.2993)"><use xlink:href="#gFA9C496F3B51D521A73CFA99F8A9D69F" x="0" y="0" fill="#e6edf3" fill-rule="nonzero"/></g><g transform="matrix(1 0 0 -1 112.786555556 10.0516)"><use xlink:href="#gBEEE2912D783E659636489D0C0BC01CB" x="0" y="0" fill="#e6edf3" fill-rule="nonzero"/></g><g transform="matrix(1 0 0 -1 118.892655556 10.0516)"><use xlink:href="#g402F9925856942787E59D257DA93AD2E" x="0" y="0" fill="#e6edf3" fill-rule="nonzero"/><use xlink:href="#g56CA2213A637A1EBD48C3733E7CBD1B8" x="2.5298" y="0" fill="#e6edf3" fill-rule="nonzero"/><use xlink:href="#g733BC00FCAC4D4817C0648C06C143A7E" x="6.1152" y="0" fill="#e6edf3" fill-rule="nonzero"/><use xlink:href="#g929C9F5835BF20B9E99EAF8B7595E15F" x="10.6652" y="0" fill="#e6edf3" fill-rule="nonzero"/><use xlink:href="#gBFC7FFA96542AB4AB40701B9B2571C85" x="14.2051" y="0" fill="#e6edf3" fill-rule="nonzero"/></g><g transform="matrix(1 0 0 -1 139.238666667 21.6723)"><use xlink:href="#g20CFFEADE4897488A8BFC1664802F723" x="0" y="0" fill="#e6edf3" fill-rule="nonzero"/></g><g transform="matrix(1 0 0 -1 151.979677778 21.6723)"><use xlink:href="#g43776F0EA130CB0EC6D88FD1D39ED823" x="0" y="0" fill="#e6edf3" fill-rule="nonzero"/></g><g transform="matrix(1 0 0 -1 149.349777778 12.3422)"><use xlink:href="#g1CEBE56BFF7571B8DB10F1A4DAC5A5D7" x="0" y="0" fill="#e6edf3" fill-rule="nonzero"/><use xlink:href="#g9BBD495599649835EB769190150DF525" x="4.55" y="0" fill="#e6edf3" fill-rule="nonzero"/><use xlink:href="#g402F9925856942787E59D257DA93AD2E" x="9.6096" y="0" fill="#e6edf3" fill-rule="nonzero"/><use xlink:href="#g1CEBE56BFF7571B8DB10F1A4DAC5A5D7" x="12.1394" y="0" fill="#e6edf3" fill-rule="nonzero"/><use xlink:href="#gF8130F3716873E4875D3AC8A6936C373" x="16.6894" y="0" fill="#e6edf3" fill-rule="nonzero"/><use xlink:href="#gBFC7FFA96542AB4AB40701B9B2571C85" x="21.749" y="0" fill="#e6edf3" fill-rule="nonzero"/></g><g transform="matrix(1 0 0 -1 177.239688889 21.6723)"><use xlink:href="#g6B3DB0E0ADE6D994825CC39624067234" x="0" y="0" fill="#e6edf3" fill-rule="nonzero"/></g><defs><symbol id="g6B3DB0E0ADE6D994825CC39624067234" overflow="visible"><path d="M 0 0m 3.497 8.658c -0.533 -0.546 -1.313 -0.819 -2.34 -0.819v -0.507c 0.676 0 1.235 0.104 1.664 0.312v -6.578c 0 -0.234 -0.052 -0.39 -0.169 -0.455c -0.117 -0.065 -0.442 -0.104 -0.962 -0.104h -0.455v -0.507c 0.325 0.026 1.027 0.039 2.106 0.039c 1.079 0 1.781 -0.013 2.106 -0.039v 0.507h -0.455c -0.533 0 -0.858 0.039 -0.962 0.104c -0.104 0.065 -0.169 0.221 -0.169 0.455v 7.202c 0 0.312 -0.026 0.39 -0.364 0.39Z "/></symbol><symbol id="g43776F0EA130CB0EC6D88FD1D39ED823" overflow="visible"><path d="M 0 0m 18.148 3.042c 0.091 0.039 0.143 0.117 0.143 0.208c 0 0.091 -0.052 0.169 -0.143 0.208c -0.637 0.208 -1.222 0.65 -1.755 1.326c -0.377 0.455 -0.624 0.988 -0.741 1.599c -0.039 0.169 -0.143 0.247 -0.312 0.247c -0.208 0 -0.312 -0.104 -0.312 -0.325l 0.013 -0.026v -0.013c 0.221 -1.131 0.806 -2.028 1.755 -2.704h -15.756c -0.208 0 -0.312 -0.104 -0.312 -0.312c 0 -0.208 0.104 -0.312 0.312 -0.312h 15.756c -0.949 -0.676 -1.534 -1.573 -1.755 -2.704v -0.013l -0.013 -0.026c 0 -0.221 0.104 -0.325 0.312 -0.325c 0.169 0 0.273 0.078 0.312 0.247c 0.117 0.611 0.364 1.144 0.741 1.599c 0.533 0.676 1.118 1.118 1.755 1.326Z "/></symbol><symbol id="g93B96925AF20254D7D82B92F2475B654" overflow="visible"><path d="M 0 0m 3.5763 5.7057l -1.2194 -4.914c -0.0364 -0.1365 -0.0728 -0.2184 -0.1001 -0.2548c -0.0819 -0.1001 -0.3913 -0.1456 -0.9191 -0.1456c -0.3003 0 -0.4459 0.0182 -0.4459 -0.2275c 0 -0.1092 0.0637 -0.1638 0.1911 -0.1638c 0.4914 0 1.0374 0.0455 1.547 0.0364l 0.8099 -0.0091c 0.2366 0 0.5915 -0.0091 0.7644 -0.0273c 0.1547 0 0.2366 0.0819 0.2366 0.2366c 0 0.0819 -0.0455 0.1365 -0.1456 0.1547h -0.2548c -0.4459 0 -0.7098 0.0182 -0.7735 0.0637c -0.0273 0.0182 -0.0364 0.0455 -0.0364 0.091c 0 0.0455 0.0091 0.1092 0.0273 0.2002l 1.1921 4.7229c 0.0637 0.2093 0.0455 0.2639 0.2457 0.2821c 0.0273 0.0091 0.2002 0.0091 0.5369 0.0091c 0.5187 0 0.8554 -0.0273 1.001 -0.0728c 0.2912 -0.1001 0.4004 -0.2366 0.4004 -0.6825c 0 -0.2457 -0.0273 -0.5187 -0.0819 -0.819c 0 -0.1183 0.0637 -0.1729 0.1911 -0.1729c 0.0455 0 0.091 0.0091 0.1183 0.0364c 0.0455 0.091 0.0728 0.1638 0.0819 0.2184l 0.2457 1.7199c 0 0.1092 -0.1001 0.1638 -0.3094 0.1638h -5.5328c -0.2548 0 -0.273 -0.0182 -0.3367 -0.2093l -0.5733 -1.5925c -0.0091 -0.0455 -0.0455 -0.1456 -0.0455 -0.1729c 0 -0.1092 0.0637 -0.1638 0.1911 -0.1638c 0.091 0 0.1638 0.0819 0.2184 0.2366c 0.3094 0.8463 0.5096 1.3832 1.4469 1.4924c 0.1001 0.0091 0.3367 0.0182 0.7098 0.0182h 0.3822c 0.1638 0 0.2366 0.0182 0.2366 -0.0546Z "/></symbol><symbol id="g13D66751935FA09636BAA1F04EF91FE0" overflow="visible"><path d="M 0 0m 2.34 4.329c -0.299 -0.273 -0.7215 -0.4095 -1.274 -0.4095h -0.1365v -0.338h 0.1365c 0.3315 0 0.6305 0.0585 0.9035 0.169v -3.172c 0 -0.0715 -0.0065 -0.1235 -0.026 -0.1495c -0.0325 -0.065 -0.2405 -0.0975 -0.624 -0.0975h -0.3445v -0.3315c 0.2535 0.0195 0.689 0.026 1.313 0.026c 0.624 0 1.0595 -0.0065 1.313 -0.026v 0.3315h -0.3445c -0.3835 0 -0.5915 0.0325 -0.6305 0.0975c -0.013 0.026 -0.0195 0.078 -0.0195 0.1495v 3.5295c 0 0.221 -0.026 0.221 -0.2665 0.221Z "/></symbol><symbol id="gBEEE2912D783E659636489D0C0BC01CB" overflow="visible"><path d="M 0 0m 1.5379 1.0465c -0.2912 0 -0.5187 -0.2366 -0.5187 -0.5369c 0 -0.3185 0.2184 -0.5551 0.5278 -0.5551c 0.1183 0 0.2275 0.0364 0.3185 0.1001c -0.0182 -0.6006 -0.2366 -1.1102 -0.6552 -1.5197c -0.0455 -0.0455 -0.0728 -0.0819 -0.0728 -0.1274c 0 -0.1092 0.0546 -0.1638 0.1547 -0.1638c 0.0637 0 0.1547 0.0728 0.2912 0.2184c 0.3003 0.3276 0.5915 0.9919 0.5915 1.5834c 0 0.5005 -0.182 1.001 -0.637 1.001Z "/></symbol><symbol id="g402F9925856942787E59D257DA93AD2E" overflow="visible"><path d="M 0 0m 1.7654 5.4691c 0 0.273 -0.2275 0.5096 -0.5005 0.5096c -0.273 0 -0.5096 -0.2366 -0.5096 -0.5096c 0 -0.273 0.2275 -0.5187 0.5005 -0.5187c 0.2821 0 0.5096 0.2366 0.5096 0.5187Z m -0.4641 -5.4418l 0.9464 -0.0273v 0.3549c -0.3003 0 -0.4823 0.0182 -0.5369 0.0546c -0.0546 0.0364 -0.0728 0.1365 -0.0728 0.3003v 3.3397l -1.3013 -0.1092v -0.3458c 0.3003 0 0.4914 -0.0273 0.5551 -0.0728c 0.0637 -0.0455 0.091 -0.1729 0.091 -0.3822v -2.4206c 0 -0.1729 -0.0273 -0.2821 -0.091 -0.3185c -0.0637 -0.0364 -0.2639 -0.0455 -0.5915 -0.0455v -0.3549Z "/></symbol><symbol id="g56CA2213A637A1EBD48C3733E7CBD1B8" overflow="visible"><path d="M 0 0m 3.276 1.183c 0 0.6916 -0.4732 1.1284 -1.4105 1.3104c -0.4277 0.0819 -0.7007 0.182 -0.8463 0.2821c -0.1456 0.1001 -0.2184 0.2457 -0.2184 0.4186c 0 0.4277 0.3185 0.637 0.9555 0.637c 0.6188 0 0.9555 -0.3458 1.001 -1.0465c 0.0091 -0.0728 0.0546 -0.1092 0.1456 -0.1092c 0.1001 0 0.1547 0.0819 0.1547 0.2457v 0.9009c 0 0.1729 -0.0455 0.2548 -0.1365 0.2548c -0.1001 0 -0.2366 -0.1638 -0.3276 -0.2366c -0.2275 0.1547 -0.5096 0.2366 -0.8372 0.2366c -0.8099 0 -1.456 -0.364 -1.456 -1.1375c 0 -0.3094 0.1274 -0.5733 0.3913 -0.7826c 0.3185 -0.2639 0.6188 -0.3185 1.1921 -0.4186c 0.5915 -0.1183 0.8918 -0.3822 0.8918 -0.7917c 0 -0.5187 -0.3185 -0.7826 -0.9646 -0.7826c -0.6279 0 -1.0283 0.4186 -1.2012 1.2467c -0.0273 0.1183 -0.0728 0.182 -0.1547 0.182c -0.1001 0 -0.1547 -0.091 -0.1547 -0.2639v -1.1739c 0 -0.1729 0.0455 -0.2548 0.1365 -0.2548c 0.0273 0 0.0728 0.0273 0.1456 0.091c 0.1638 0.1456 0.091 0.1183 0.2548 0.2821c 0.2639 -0.2457 0.5915 -0.3731 0.9737 -0.3731c 0.8645 0 1.4651 0.4459 1.4651 1.2831Z "/></symbol><symbol id="g733BC00FCAC4D4817C0648C06C143A7E" overflow="visible"><path d="M 0 0m 2.2659 -0.1001c 0.5642 0 1.0374 0.2002 1.4287 0.6006c 0.3913 0.4004 0.5915 0.8827 0.5915 1.4469c 0 0.5733 -0.1911 1.0738 -0.5733 1.4924c -0.3822 0.4186 -0.8645 0.637 -1.4378 0.637c -0.5733 0 -1.0465 -0.2184 -1.4378 -0.637c -0.3913 -0.4186 -0.5824 -0.9191 -0.5824 -1.4924c 0 -0.5642 0.1911 -1.0465 0.5824 -1.4469c 0.3913 -0.4004 0.8736 -0.6006 1.4287 -0.6006Z m 0.0091 0.2912c -0.4368 0 -0.7644 0.1911 -0.9919 0.5824c -0.1456 0.2548 -0.2184 0.6734 -0.2184 1.2467c 0 0.5551 0.0728 0.9555 0.2093 1.2103c 0.2184 0.3913 0.546 0.5824 0.9919 0.5824c 0.4277 0 0.7553 -0.1911 0.9828 -0.5642c 0.1547 -0.2548 0.2275 -0.6643 0.2275 -1.2285c 0 -1.0556 -0.3094 -1.8291 -1.2012 -1.8291Z "/></symbol><symbol id="g929C9F5835BF20B9E99EAF8B7595E15F" overflow="visible"><path d="M 0 0m 3.0212 1.1466v 0.546h -0.2912v -0.5278c 0 -0.455 -0.1638 -0.9646 -0.5642 -0.9646c -0.3731 0 -0.5551 0.3094 -0.5551 0.9282v 2.4661h 1.2649v 0.3458h -1.2649v 1.6562h -0.2912c -0.0091 -0.3003 -0.0364 -0.5642 -0.1001 -0.8008c -0.1547 -0.6006 -0.5096 -0.91 -1.0465 -0.9373v -0.2639h 0.7553v -2.4479c 0 -0.5369 0.1638 -0.8827 0.4823 -1.0556c 0.2457 -0.1274 0.4732 -0.1911 0.7007 -0.1911c 0.6006 0 0.91 0.6006 0.91 1.2467Z "/></symbol><symbol id="gBFC7FFA96542AB4AB40701B9B2571C85" overflow="visible"><path d="M 0 0m 1.7472 0.4823c 0 0.2639 -0.2184 0.4823 -0.4823 0.4823c -0.2639 0 -0.4823 -0.2184 -0.4823 -0.4823c 0 -0.2639 0.2184 -0.4823 0.4823 -0.4823c 0.2639 0 0.4823 0.2184 0.4823 0.4823Z "/></symbol><symbol id="g21E6026C55295689503B3E9C99FAF46D" overflow="visible"><path d="M 0 0m 3.081 8.658c -0.663 0 -1.222 -0.234 -1.703 -0.702c -0.481 -0.468 -0.728 -1.014 -0.728 -1.677c 0 -0.442 0.325 -0.767 0.728 -0.767c 0.39 0 0.715 0.338 0.715 0.728c 0 0.429 -0.312 0.728 -0.728 0.728c -0.039 0 -0.065 0 -0.091 -0.013c 0.247 0.637 0.819 1.196 1.638 1.196c 1.066 0 1.664 -0.923 1.664 -2.041c 0 -0.871 -0.442 -1.807 -1.326 -2.795l -2.444 -2.756c -0.169 -0.195 -0.156 -0.182 -0.156 -0.559h 4.823l 0.377 2.34h -0.429c -0.104 -0.663 -0.195 -1.04 -0.273 -1.157c -0.065 -0.065 -0.455 -0.091 -1.17 -0.091h -2.171l 1.261 1.235c 0.884 0.832 2.002 1.729 2.379 2.418c 0.26 0.455 0.39 0.91 0.39 1.365c 0 1.534 -1.196 2.548 -2.756 2.548Z "/></symbol><symbol id="g1CEBE56BFF7571B8DB10F1A4DAC5A5D7" overflow="visible"><path d="M 0 0m 4.3953 0.8281v 0.5369h -0.2912v -0.5369c 0 -0.3549 -0.1001 -0.5369 -0.2912 -0.5369c -0.182 0 -0.2912 0.2275 -0.2912 0.4095v 1.7927c 0 0.3185 -0.0364 0.5551 -0.1001 0.7189c -0.2184 0.5369 -0.8463 0.8645 -1.4833 0.8645c -0.7007 0 -1.3923 -0.3913 -1.3923 -1.0465c 0 -0.3003 0.1547 -0.455 0.455 -0.455c 0.3003 0 0.4459 0.1456 0.4459 0.4459c 0 0.2639 -0.1365 0.4186 -0.4186 0.4459c 0.2002 0.2275 0.5005 0.3458 0.8918 0.3458c 0.5642 0 0.91 -0.5187 0.91 -1.1102v -0.3003c -0.7098 -0.0455 -1.2467 -0.1547 -1.6198 -0.3276c -0.6097 -0.2821 -0.9191 -0.6734 -0.9191 -1.1921c 0 -0.2366 0.091 -0.4368 0.2639 -0.5915c 0.2912 -0.2639 0.6916 -0.3913 1.2012 -0.3913c 0.5369 0 0.9191 0.2275 1.1557 0.6916c 0.0637 -0.3458 0.3185 -0.6461 0.7098 -0.6461c 0.4823 0 0.7735 0.3822 0.7735 0.8827Z m -2.5753 -0.6643c -0.4186 0 -0.7644 0.3094 -0.7644 0.728c 0 0.8463 0.8827 1.2103 1.7745 1.2558v -0.8645c 0 -0.6097 -0.4004 -1.1193 -1.0101 -1.1193Z "/></symbol><symbol id="g9BBD495599649835EB769190150DF525" overflow="visible"><path d="M 0 0m 3.4034 -0.1001l 1.3923 0.1001v 0.3458c -0.3276 0 -0.5187 0.0182 -0.5915 0.0728c -0.0728 0.0546 -0.1092 0.1911 -0.1092 0.4004v 5.4964l -1.3559 -0.1001v -0.3458c 0.3185 0 0.5187 -0.0273 0.5915 -0.0819c 0.0728 -0.0546 0.1001 -0.182 0.1001 -0.3913v -1.8473c -0.2912 0.3367 -0.6552 0.5005 -1.092 0.5005c -0.5642 0 -1.0465 -0.2002 -1.4378 -0.6097c -0.3913 -0.4095 -0.5915 -0.9009 -0.5915 -1.4742c 0 -0.5551 0.182 -1.0374 0.5551 -1.4469c 0.3731 -0.4095 0.8281 -0.6188 1.3832 -0.6188c 0.4641 0 0.8554 0.1729 1.1557 0.5278Z m -1.0283 3.8766c 0.3913 0 0.7098 -0.1729 0.9373 -0.5187c 0.0637 -0.1001 0.091 -0.2002 0.091 -0.3185v -1.8382c 0 -0.1183 -0.0273 -0.2184 -0.091 -0.3185c -0.2548 -0.4095 -0.6006 -0.6097 -1.0283 -0.6097c -0.3731 0 -0.6734 0.182 -0.91 0.5551c -0.1638 0.273 -0.2457 0.6825 -0.2457 1.2285c 0 0.9919 0.3367 1.82 1.2467 1.82Z "/></symbol><symbol id="gF8130F3716873E4875D3AC8A6936C373" overflow="visible"><path d="M 0 0m 2.7118 -0.1001c 0.5642 0 1.0465 0.2002 1.4378 0.6097c 0.3913 0.4095 0.5915 0.8918 0.5915 1.4651c 0 0.5551 -0.182 1.0465 -0.5551 1.456c -0.3731 0.4095 -0.8281 0.6188 -1.3832 0.6188c -0.4459 0 -0.8463 -0.1729 -1.183 -0.5278v 2.7937l -1.365 -0.1001v -0.3458c 0.3276 0 0.5278 -0.0273 0.6006 -0.0819c 0.0728 -0.0546 0.1001 -0.182 0.1001 -0.3913v -5.3963h 0.2821l 0.3003 0.5278c 0.2912 -0.4186 0.6825 -0.6279 1.1739 -0.6279Z m -0.0364 0.273c -0.3731 0 -0.6825 0.1729 -0.91 0.5278c -0.0819 0.1183 -0.1183 0.2457 -0.1183 0.364v 1.8473c 0 0.1183 0.0273 0.2184 0.091 0.3094c 0.2639 0.3731 0.6006 0.5551 1.0283 0.5551c 0.3731 0 0.6734 -0.182 0.91 -0.5551c 0.1638 -0.273 0.2457 -0.6825 0.2457 -1.2376c 0 -0.9828 -0.3458 -1.8109 -1.2467 -1.8109Z "/></symbol><symbol id="gD5105E1CC4CD5829824BEAD95693D8C5" overflow="visible"><path d="M 0 0m 3.939 4.589c 0.858 0.325 1.664 1.144 1.664 2.249c 0 0.559 -0.273 1.014 -0.806 1.365c -0.468 0.299 -1.001 0.455 -1.599 0.455c -0.585 0 -1.092 -0.156 -1.547 -0.455c -0.507 -0.338 -0.767 -0.78 -0.767 -1.339c 0 -0.429 0.286 -0.728 0.702 -0.728c 0.416 0 0.702 0.299 0.702 0.715c 0 0.429 -0.247 0.663 -0.741 0.689c 0.338 0.455 0.871 0.689 1.599 0.689c 0.78 0 1.17 -0.455 1.17 -1.378c 0 -0.546 -0.104 -1.001 -0.299 -1.378c -0.351 -0.624 -0.832 -0.741 -1.638 -0.741c -0.156 -0.026 -0.234 -0.091 -0.234 -0.208c 0 -0.195 0.091 -0.195 0.351 -0.195h 0.559c 0.975 0 1.469 -0.689 1.469 -2.08c 0 -1.105 -0.403 -2.067 -1.391 -2.067c -0.845 0 -1.469 0.286 -1.846 0.858c 0.455 -0.013 0.793 0.325 0.793 0.767c 0 0.442 -0.325 0.767 -0.767 0.767c -0.507 0 -0.767 -0.26 -0.767 -0.793c 0 -0.637 0.286 -1.144 0.858 -1.547c 0.507 -0.351 1.105 -0.52 1.768 -0.52c 0.741 0 1.378 0.247 1.937 0.728c 0.559 0.481 0.832 1.079 0.832 1.807c 0 1.222 -0.962 2.067 -2.002 2.34Z "/></symbol><symbol id="gFA9C496F3B51D521A73CFA99F8A9D69F" overflow="visible"><path d="M 0 0m 3.9065 2.08c 0 0.286 0 0.338 -0.039 0.637c -0.117 0.9165 -0.6045 1.612 -1.6575 1.612c -0.6825 0 -1.1505 -0.3055 -1.3845 -0.7475c -0.2275 -0.429 -0.312 -0.8775 -0.312 -1.5015c 0 -0.2275 0.013 -0.4355 0.039 -0.637c 0.117 -0.9035 0.611 -1.586 1.6575 -1.586c 0.676 0 1.1505 0.3055 1.3845 0.7345c 0.234 0.429 0.312 0.871 0.312 1.4885Z m -0.78 1.313c 0.0585 -0.2145 0.091 -0.624 0.091 -1.235c 0 -0.6435 -0.0325 -1.0855 -0.0975 -1.339c -0.1105 -0.429 -0.4225 -0.6955 -0.91 -0.6955c -0.1495 0 -0.312 0.039 -0.481 0.1105c -0.208 0.0975 -0.351 0.2925 -0.429 0.598c -0.065 0.247 -0.0975 0.689 -0.0975 1.326c 0 0.6175 0.0325 1.0465 0.104 1.274c 0.1235 0.4225 0.4225 0.6305 0.9035 0.6305c 0.4875 0 0.793 -0.221 0.9165 -0.6695Z "/></symbol><symbol id="g20CFFEADE4897488A8BFC1664802F723" overflow="visible"><path d="M 0 0m 4.589 8.801c -0.117 0 -0.221 -0.065 -0.299 -0.182l -3.926 -6.032v -0.468h 3.393v -1.066c 0 -0.234 -0.052 -0.39 -0.143 -0.455c -0.091 -0.065 -0.338 -0.091 -0.767 -0.091h -0.325v -0.507c 0.377 0.026 0.975 0.039 1.781 0.039c 0.806 0 1.404 -0.013 1.781 -0.039v 0.507h -0.325c -0.429 0 -0.676 0.026 -0.767 0.091c -0.091 0.065 -0.143 0.221 -0.143 0.455v 1.066h 1.274v 0.507h -1.274v 5.954c 0 0.13 -0.091 0.221 -0.26 0.221Z m -0.754 -1.612v -4.563h -2.964Z "/></symbol></defs></svg>