<svg viewBox="0 0 163.402055556 38.8804" width="163.402055556pt" height="38.8804pt" xmlns="http://www.w3.org/2000/svg" xmlns:xlink="http://www.w3.org/1999/xlink" xmlns:h5="http://www.w3.org/1999/xhtml"><g transform="matrix(1 0 0 -1 6.5 23.3974)"><use xlink:href="#gA01F6DC51669829F49C013CF8E967E44" x="0" y="0" fill="#e6edf3" fill-rule="nonzero"/></g><g transform="matrix(1 0 0 -1 20.217888889 23.3974)"><use xlink:href="#gB323F9E42E1C20C087FBF81136E27860" x="0" y="0" fill="#e6edf3" fill-rule="nonzero"/></g><g transform="matrix(1 0 0 -1 26.720777778 23.3974)"><use xlink:href="#gA5D6553E5589AE1C82BB1D97B3E20260" x="0" y="0" fill="#e6edf3" fill-rule="nonzero"/></g><g transform="matrix(1 0 0 -1 41.212888889 23.3974)"><use xlink:href="#g13AFF74D87C474CFAF661EEAD0458F8B" x="0" y="0" fill="#e6edf3" fill-rule="nonzero"/></g><g transform="matrix(1 0 0 -1 56.238 14.5964)"><use xlink:href="#gECD202B73668A69AC8A33649F9D5BDE0" x="0" y="0" fill="#e6edf3" fill-rule="nonzero"/></g><g transform="matrix(1 0 0 -1 63.96 14.5964)"><use xlink:href="#g1BB2B5D3B118FC32761E8AAB6F68EABA" x="0" y="0" fill="#e6edf3" fill-rule="nonzero"/></g><g transform="matrix(1 0 0 -1 70.889 17.8074)"><use xlink:href="#g2C469168A0CCE6A0F75C75230004CE9F" x="0" y="0" fill="#e6edf3" fill-rule="nonzero"/></g><g transform="matrix(1 0 0 -1 59.2969 32.3154)"><use xlink:href="#gECD202B73668A69AC8A33649F9D5BDE0" x="0" y="0" fill="#e6edf3" fill-rule="nonzero"/></g><g transform="matrix(1 0 0 -1 67.0189 32.3154)"><use xlink:href="#gA6F2C1D597D3EC5A6DEDB5B511CF0779" x="0" y="0" fill="#e6edf3" fill-rule="nonzero"/></g><path fill="none" stroke="#e6edf3" stroke-width="0.624" stroke-linecap="butt" stroke-linejoin="miter" stroke-miterlimit="4" transform="translate(56.238 20.1474)" d="M 0 0h 21.2758"/><g transform="matrix(1 0 0 -1 81.702688889 23.3974)"><use xlink:href="#gEDF6611ACB83925E748178A176190AF2" x="0" y="0" fill="#e6edf3" fill-rule="nonzero"/></g><g transform="matrix(1 0 0 -1 96.005577778 13.208)"><use xlink:href="#gECD202B73668A69AC8A33649F9D5BDE0" x="0" y="0" fill="#e6edf3" fill-rule="nonzero"/></g><g transform="matrix(1 0 0 -1 103.727577778 13.208)"><use xlink:href="#g1BB2B5D3B118FC32761E8AAB6F68EABA" x="0" y="0" fill="#e6edf3" fill-rule="nonzero"/></g><g transform="matrix(1 0 0 -1 110.656577778 16.419)"><use xlink:href="#g2F9B4C5FF6E5B587639F4DD8D1BED4C6" x="0" y="0" fill="#e6edf3" fill-rule="nonzero"/></g><g transform="matrix(1 0 0 -1 99.142477778 32.3154)"><use xlink:href="#gECD202B73668A69AC8A33649F9D5BDE0" x="0" y="0" fill="#e6edf3" fill-rule="nonzero"/></g><g transform="matrix(1 0 0 -1 106.864477778 32.3154)"><use xlink:href="#gF0987D4BBB05CD0FF9CB5060A0FDC798" x="0" y="0" fill="#e6edf3" fill-rule="nonzero"/></g><path fill="none" stroke="#e6edf3" stroke-width="0.624" stroke-linecap="butt" stroke-linejoin="miter" stroke-miterlimit="4" transform="translate(96.005577778 20.1474)" d="M 0 0h 20.7298"/><g transform="matrix(1 0 0 -1 120.924266667 23.3974)"><use xlink:href="#gEDF6611ACB83925E748178A176190AF2" x="0" y="0" fill="#e6edf3" fill-rule="nonzero"/></g><g transform="matrix(1 0 0 -1 135.227155556 14.5964)"><use xlink:href="#gECD202B73668A69AC8A33649F9D5BDE0" x="0" y="0" fill="#e6edf3" fill-rule="nonzero"/></g><g transform="matrix(1 0 0 -1 142.949155556 14.5964)"><use xlink:href="#g1BB2B5D3B118FC32761E8AAB6F68EABA" x="0" y="0" fill="#e6edf3" fill-rule="nonzero"/></g><g transform="matrix(1 0 0 -1 149.878155556 17.8074)"><use xlink:href="#g8D2729A48B9ECD6712FB8A757305E9A2" x="0" y="0" fill="#e6edf3" fill-rule="nonzero"/></g><g transform="matrix(1 0 0 -1 138.336105556 32.3154)"><use xlink:href="#gECD202B73668A69AC8A33649F9D5BDE0" x="0" y="0" fill="#e6edf3" fill-rule="nonzero"/></g><g transform="matrix(1 0 0 -1 146.058105556 32.3154)"><use xlink:href="#gB7560AD8DFDE075CC650DFC2ACE08502" x="0" y="0" fill="#e6edf3" fill-rule="nonzero"/></g><path fill="none" stroke="#e6edf3" stroke-width="0.624" stroke-linecap="butt" stroke-linejoin="miter" stroke-miterlimit="4" transform="translate(135.227155556 20.1474)" d="M 0 0h 20.3749"/><defs><symbol id="gA01F6DC51669829F49C013CF8E967E44" overflow="visible"><path d="M 0 0m 10.14 8.541c 0.039 0.091 0.065 0.156 0.065 0.182c 0 0.104 -0.117 0.156 -0.338 0.156h -8.918c -0.221 0 -0.338 -0.052 -0.338 -0.169l 4.42 -8.879c 0.091 -0.169 0.208 -0.26 0.377 -0.26c 0.169 0 0.286 0.091 0.377 0.26Z m -4.355 -7.605l -3.458 6.929h 6.903Z "/></symbol><symbol id="gB323F9E42E1C20C087FBF81136E27860" overflow="visible"><path d="M 0 0m 2.496 3.25c 0 0.377 -0.312 0.689 -0.689 0.689c -0.377 0 -0.689 -0.312 -0.689 -0.689c 0 -0.377 0.312 -0.689 0.689 -0.689c 0.377 0 0.689 0.312 0.689 0.689Z "/></symbol><symbol id="gA5D6553E5589AE1C82BB1D97B3E20260" overflow="visible"><path d="M 0 0m 6.487 2.834c 0 -0.195 0.169 -0.234 0.299 -0.234c 0.247 0 0.26 0.078 0.325 0.312l 0.728 2.899c 0.052 0.169 0.052 0.208 0.052 0.208c 0 0.234 -0.26 0.234 -0.312 0.234c -0.247 0 -0.273 -0.091 -0.338 -0.338c -0.26 -0.988 -0.663 -1.183 -1.599 -1.183h -0.728l 0.858 3.471c 0.169 0.026 0.312 0.026 0.442 0.026h 1.547c 1.482 0 1.937 -0.377 1.937 -1.521c 0 -0.312 -0.052 -0.702 -0.052 -0.754c 0 -0.247 0.247 -0.247 0.312 -0.247c 0.273 0 0.286 0.13 0.312 0.364c 0.078 0.845 0.182 1.677 0.247 2.535c 0 0.234 -0.221 0.234 -0.429 0.234h -6.994c -0.273 0 -0.286 -0.013 -0.351 -0.065c -0.091 -0.065 -0.117 -0.312 -0.117 -0.312c 0 -0.234 0.182 -0.234 0.533 -0.234c 0.273 0 0.52 -0.013 0.793 -0.026l -1.833 -7.332c -0.052 -0.208 -0.065 -0.221 -0.299 -0.247c -0.221 -0.013 -0.481 -0.013 -0.689 -0.013c -0.338 0 -0.364 0 -0.416 -0.026c -0.156 -0.091 -0.156 -0.299 -0.156 -0.351c 0 0 0 -0.234 0.286 -0.234c 0.325 0 0.663 0.026 0.988 0.026l 1.053 0.013l 1.17 -0.013c 0.377 0 0.754 -0.026 1.118 -0.026c 0.156 0 0.39 0 0.39 0.377c 0 0.234 -0.221 0.234 -0.429 0.234h -0.429c -0.494 0 -0.689 0.026 -0.819 0.052l 0.871 3.458h 0.845c 0.78 0 1.001 -0.13 1.001 -0.559c 0 -0.195 -0.091 -0.559 -0.117 -0.728Z "/></symbol><symbol id="g13AFF74D87C474CFAF661EEAD0458F8B" overflow="visible"><path d="M 0 0m 9.074 4.771h -8.034c -0.208 0 -0.312 -0.104 -0.312 -0.299c 0 -0.195 0.104 -0.299 0.312 -0.299h 8.034c 0.208 0 0.312 0.104 0.312 0.299c 0 0.156 -0.143 0.299 -0.312 0.299Z m 0 -2.444h -8.034c -0.208 0 -0.312 -0.104 -0.312 -0.299c 0 -0.195 0.104 -0.299 0.312 -0.299h 8.034c 0.208 0 0.312 0.104 0.312 0.299c 0 0.169 -0.143 0.299 -0.312 0.299Z "/></symbol><symbol id="gECD202B73668A69AC8A33649F9D5BDE0" overflow="visible"><path d="M 0 0m 3.328 7.462c 0 0.299 -0.195 0.468 -0.572 0.494c 0.403 0.611 0.988 0.923 1.755 0.923c 1.196 0 1.781 -1.001 1.781 -2.275c 0 -0.533 -0.104 -1.183 -0.299 -1.976c -0.221 0.897 -0.78 1.352 -1.651 1.352c -1.001 0 -1.872 -0.416 -2.652 -1.222c -0.78 -0.806 -1.17 -1.703 -1.17 -2.704c 0 -0.481 0.169 -0.975 0.507 -1.469c 0.403 -0.585 1.027 -0.871 1.898 -0.871c 1.17 0 2.145 0.546 2.912 1.651c 0.728 1.066 1.521 2.912 1.521 4.563c 0 0.923 -0.234 1.703 -0.702 2.327c -0.507 0.702 -1.222 1.053 -2.119 1.053c -0.871 0 -1.521 -0.299 -1.963 -0.91c -0.351 -0.481 -0.533 -0.871 -0.533 -1.17c 0 -0.338 0.182 -0.507 0.546 -0.507c 0.39 0 0.741 0.351 0.741 0.741Z m 2.379 -3.523c 0 -0.819 -0.247 -1.625 -0.754 -2.418c -0.559 -0.897 -1.222 -1.339 -1.989 -1.339c -0.858 0 -1.352 0.559 -1.352 1.391c 0 0.364 0.091 0.871 0.273 1.521c 0.182 0.65 0.364 1.105 0.559 1.378c 0.52 0.741 1.157 1.118 1.898 1.118c 0.949 0 1.365 -0.702 1.365 -1.651Z "/></symbol><symbol id="g1BB2B5D3B118FC32761E8AAB6F68EABA" overflow="visible"><path d="M 0 0m 2.587 8.528c 0 -0.13 0.143 -0.195 0.416 -0.195c 0.52 0 0.78 -0.052 0.78 -0.169c 0 -0.039 -0.026 -0.13 -0.065 -0.299l -1.69 -6.799c -0.078 -0.286 -0.208 -0.455 -0.39 -0.52c -0.091 -0.026 -0.325 -0.039 -0.728 -0.039c -0.286 0 -0.416 -0.026 -0.416 -0.299c 0 -0.143 0.078 -0.208 0.247 -0.208l 1.69 0.039l 1.924 -0.039c 0.208 0 0.312 0.104 0.312 0.299c 0 0.221 -0.143 0.208 -0.481 0.208c -0.572 0 -0.897 0.026 -0.975 0.091c -0.039 0.013 -0.052 0.065 -0.052 0.13l 0.832 3.445h 1.209c 0.598 0 1.014 -0.026 1.014 -0.52c 0 -0.169 -0.026 -0.377 -0.091 -0.624c -0.013 -0.039 -0.026 -0.091 -0.039 -0.143c 0 -0.143 0.065 -0.208 0.208 -0.208c 0.065 0.013 0.156 0.104 0.247 0.299l 0.702 2.795c 0.026 0.104 0.039 0.182 0.039 0.221c -0.039 0.117 -0.117 0.182 -0.208 0.182c -0.104 0 -0.182 -0.104 -0.234 -0.299c -0.13 -0.494 -0.312 -0.806 -0.52 -0.962c -0.208 -0.156 -0.572 -0.234 -1.092 -0.234h -1.105l 0.806 3.198c 0.104 0.442 0.104 0.455 0.65 0.455h 1.69c 1.261 0 1.833 -0.195 1.833 -1.352c 0 -0.26 -0.013 -0.494 -0.039 -0.689c -0.013 -0.143 -0.026 -0.221 -0.026 -0.234c 0 -0.143 0.065 -0.208 0.195 -0.208c 0.13 0 0.208 0.117 0.234 0.364l 0.26 2.223c 0.039 0.364 -0.052 0.403 -0.403 0.403h -6.292c -0.299 0 -0.442 -0.013 -0.442 -0.312Z "/></symbol><symbol id="g2C469168A0CCE6A0F75C75230004CE9F" overflow="visible"><path d="M 0 0m 5.3053 3.3215c 0 0.4641 -0.4732 0.6916 -0.9646 0.6916c -0.4095 0 -0.7462 -0.2002 -1.001 -0.6006c -0.2184 0.4004 -0.5824 0.6006 -1.0829 0.6006c -0.3367 0 -0.6916 -0.1456 -1.0465 -0.4459c -0.3731 -0.3094 -0.5642 -0.6279 -0.5642 -0.9555c 0 -0.1001 0.0637 -0.1547 0.182 -0.1547c 0.1001 0 0.1638 0.0546 0.2093 0.1729c 0.1638 0.4914 0.6097 1.0647 1.1921 1.0647c 0.3367 0 0.5005 -0.182 0.5005 -0.5551c 0 -0.1183 -0.0637 -0.4277 -0.182 -0.9282l -0.3094 -1.2194c -0.0819 -0.3458 -0.4186 -0.7644 -0.8099 -0.7644c -0.1547 0 -0.2912 0.0273 -0.4004 0.091c 0.182 0.0819 0.3458 0.2821 0.3458 0.4914c 0 0.2184 -0.1729 0.3731 -0.3913 0.3731c -0.3094 0 -0.546 -0.273 -0.546 -0.5824c 0 -0.455 0.4823 -0.6916 0.9737 -0.6916c 0.4186 0 0.7553 0.2002 1.001 0.6006c 0.2184 -0.4004 0.5733 -0.6006 1.0738 -0.6006c 0.5005 0 0.9009 0.2002 1.2103 0.6006c 0.2639 0.3549 0.4004 0.6279 0.4004 0.8008c 0 0.1001 -0.0546 0.1547 -0.1729 0.1547c -0.1001 0 -0.1729 -0.0637 -0.2093 -0.182c -0.1547 -0.4823 -0.6188 -1.0556 -1.1921 -1.0556c -0.3367 0 -0.5096 0.182 -0.5096 0.546c 0 0.1365 0.1547 0.819 0.4641 2.0293c 0.1547 0.5915 0.4277 0.8918 0.8372 0.8918l 0.0819 -0.0091c 0.1092 0 0.2184 -0.0273 0.3185 -0.0728c -0.2275 -0.1001 -0.3367 -0.2639 -0.3367 -0.5005c 0 -0.2184 0.1729 -0.3731 0.3913 -0.3731c 0.3094 0 0.5369 0.273 0.5369 0.5824Z "/></symbol><symbol id="gA6F2C1D597D3EC5A6DEDB5B511CF0779" overflow="visible"><path d="M 0 0m 6.851 4.849c 0 0.598 -0.585 0.897 -1.235 0.897c -0.559 0 -1.001 -0.299 -1.339 -0.897c -0.273 0.598 -0.728 0.897 -1.391 0.897c -0.637 0 -1.157 -0.299 -1.573 -0.884c -0.351 -0.507 -0.533 -0.884 -0.533 -1.131c 0 -0.117 0.065 -0.182 0.195 -0.182c 0.117 0 0.195 0.065 0.221 0.182c 0.247 0.754 0.793 1.638 1.664 1.638c 0.429 0 0.637 -0.273 0.637 -0.806c 0 -0.273 -0.234 -1.287 -0.689 -3.029c -0.221 -0.871 -0.611 -1.3 -1.17 -1.3c -0.182 0 -0.351 0.039 -0.494 0.104c 0.338 0.13 0.507 0.364 0.507 0.702c 0 0.338 -0.169 0.507 -0.52 0.507c -0.429 0 -0.754 -0.364 -0.754 -0.793c 0 -0.598 0.611 -0.897 1.248 -0.897c 0.546 0 0.988 0.299 1.339 0.897c 0.247 -0.598 0.715 -0.897 1.391 -0.897c 0.624 0 1.144 0.299 1.56 0.884c 0.351 0.507 0.533 0.884 0.533 1.131c 0 0.117 -0.065 0.182 -0.195 0.182c -0.117 0 -0.182 -0.065 -0.221 -0.182c -0.221 -0.741 -0.806 -1.638 -1.651 -1.638c -0.429 0 -0.65 0.26 -0.65 0.793c 0 0.169 0.065 0.533 0.208 1.118l 0.442 1.755c 0.247 0.975 0.65 1.469 1.222 1.469c 0.182 0 0.351 -0.039 0.494 -0.104c -0.351 -0.117 -0.52 -0.351 -0.52 -0.702c 0 -0.338 0.182 -0.507 0.533 -0.507c 0.416 0 0.741 0.377 0.741 0.793Z "/></symbol><symbol id="gEDF6611ACB83925E748178A176190AF2" overflow="visible"><path d="M 0 0m 9.074 3.562h -3.705v 3.705c 0 0.208 -0.104 0.312 -0.312 0.312c -0.208 0 -0.312 -0.104 -0.312 -0.312v -3.705h -3.705c -0.208 0 -0.312 -0.104 -0.312 -0.312c 0 -0.208 0.104 -0.312 0.312 -0.312h 3.705v -3.705c 0 -0.208 0.104 -0.312 0.312 -0.312c 0.208 0 0.312 0.104 0.312 0.312v 3.705h 3.705c 0.208 0 0.312 0.104 0.312 0.312c 0 0.169 -0.143 0.312 -0.312 0.312Z "/></symbol><symbol id="g2F9B4C5FF6E5B587639F4DD8D1BED4C6" overflow="visible"><path d="M 0 0m 4.7684 3.9221c -0.182 0 -0.3185 -0.0819 -0.4004 -0.2366c -0.0182 -0.0273 -0.0637 -0.2002 -0.1456 -0.5278l -0.546 -2.184c -0.0637 -0.1001 -0.1183 -0.1911 -0.182 -0.2639c -0.2912 -0.3367 -0.5915 -0.5005 -0.8918 -0.5005c -0.3822 0 -0.5733 0.2366 -0.5733 0.7098c 0 0.3367 0.1547 0.9191 0.4732 1.729c 0.1001 0.273 0.1547 0.4641 0.1547 0.5642c 0 0.4732 -0.4095 0.8008 -0.8827 0.8008c -0.4368 0 -0.7826 -0.2184 -1.0374 -0.6552c -0.2093 -0.3549 -0.3094 -0.6097 -0.3094 -0.7553c 0 -0.1001 0.0637 -0.1547 0.1911 -0.1547c 0.1001 0 0.1638 0.0546 0.1911 0.1729c 0.2093 0.7098 0.5278 1.0647 0.9373 1.0647c 0.1183 0 0.182 -0.091 0.182 -0.273c 0 -0.1365 -0.0364 -0.3003 -0.1183 -0.5096c -0.1911 -0.4823 -0.3003 -0.7826 -0.3458 -0.9009c -0.1183 -0.3549 -0.1729 -0.6734 -0.1729 -0.9373c 0 -0.7735 0.5005 -1.1739 1.274 -1.1739c 0.3367 0 0.637 0.1092 0.9191 0.3367c -0.1365 -0.5187 -0.3185 -0.9191 -0.5551 -1.2012c -0.3276 -0.3731 -0.6734 -0.5551 -1.0465 -0.5551c -0.2821 0 -0.4914 0.0728 -0.6188 0.2275c 0.2548 0.0637 0.4641 0.2366 0.4641 0.5278c 0 0.2457 -0.1274 0.3731 -0.3913 0.3731c -0.3276 0 -0.5551 -0.3003 -0.5551 -0.6279c 0 -0.5369 0.5278 -0.8281 1.1011 -0.8281c 0.5369 0 1.0192 0.182 1.4651 0.5369c 0.4459 0.3549 0.728 0.8008 0.8554 1.3195l 0.8554 3.3943c 0.0273 0.1001 0.0364 0.1638 0.0364 0.2093c 0 0.182 -0.1456 0.3185 -0.3276 0.3185Z "/></symbol><symbol id="gF0987D4BBB05CD0FF9CB5060A0FDC798" overflow="visible"><path d="M 0 0m 2.119 5.746c -0.585 0 -1.04 -0.325 -1.365 -0.975c -0.247 -0.507 -0.377 -0.858 -0.377 -1.053c 0 -0.117 0.065 -0.182 0.208 -0.182c 0.182 0 0.195 0.078 0.247 0.273c 0.299 1.027 0.715 1.547 1.248 1.547c 0.169 0 0.26 -0.117 0.26 -0.351c 0 -0.208 -0.065 -0.507 -0.208 -0.884c -0.494 -1.339 -0.741 -2.236 -0.741 -2.717c 0 -0.988 0.611 -1.573 1.612 -1.573c 0.429 0 0.832 0.156 1.196 0.468c -0.455 -1.716 -1.17 -2.574 -2.145 -2.574c -0.442 0 -0.741 0.143 -0.897 0.429c 0.52 0.026 0.78 0.273 0.78 0.741c 0 0.325 -0.169 0.494 -0.52 0.494c -0.481 0 -0.767 -0.403 -0.767 -0.884c 0 -0.715 0.65 -1.17 1.404 -1.17c 1.495 0 2.717 1.378 3.042 2.652l 1.222 4.914c 0.039 0.143 0.052 0.247 0.052 0.312c 0 0.26 -0.143 0.39 -0.416 0.39c -0.208 0 -0.377 -0.104 -0.494 -0.299c -0.078 -0.273 -0.143 -0.507 -0.182 -0.702l -0.832 -3.341c -0.13 -0.468 -0.819 -1.053 -1.404 -1.053c -0.494 0 -0.741 0.325 -0.741 0.988c 0 0.546 0.221 1.378 0.65 2.496c 0.169 0.455 0.26 0.767 0.26 0.949c 0 0.637 -0.455 1.105 -1.092 1.105Z "/></symbol><symbol id="g8D2729A48B9ECD6712FB8A757305E9A2" overflow="visible"><path d="M 0 0m 3.6582 3.0576c -0.2457 -0.2457 -0.6188 -0.5733 -1.1466 -0.9919c -0.5278 -0.4186 -0.91 -0.7462 -1.1466 -0.9828c -0.2002 -0.2002 -0.3458 -0.3549 -0.4459 -0.4732c -0.2457 -0.2821 -0.364 -0.4732 -0.364 -0.5551c 0 -0.1001 0.0637 -0.1456 0.1911 -0.1456c 0.0728 0 0.1365 0.0364 0.182 0.1092c 0.2457 0.3549 0.5096 0.5278 0.7917 0.5278c 0.1365 0 0.2821 -0.0728 0.4459 -0.2093c 0.2275 -0.2002 0.364 -0.3094 0.4004 -0.3367c 0.1092 -0.0637 0.2366 -0.091 0.3731 -0.091c 0.3003 0 0.5824 0.1001 0.8463 0.3003c 0.2821 0.2184 0.7462 0.7098 0.7462 1.1193c 0 0.1001 -0.0637 0.1547 -0.182 0.1547c -0.091 0 -0.1547 -0.0546 -0.2002 -0.1638c -0.1365 -0.3731 -0.5915 -0.637 -1.1011 -0.637c -0.2457 0 -1.0374 0.1911 -1.2922 0.182h -0.1183c 0.2821 0.273 0.637 0.5824 1.0829 0.9373c 0.6006 0.4823 0.9737 0.7917 1.1284 0.9464c 0.5915 0.5915 0.8918 0.9646 0.8918 1.1193c 0 0.1001 -0.0637 0.1456 -0.1911 0.1456c -0.0728 0 -0.1365 -0.0364 -0.182 -0.1092c -0.2275 -0.3549 -0.4459 -0.5278 -0.6461 -0.5278c -0.1274 0 -0.3094 0.1092 -0.5551 0.3185c -0.2457 0.2093 -0.4641 0.3185 -0.6643 0.3185c -0.2639 0 -0.5278 -0.1183 -0.8099 -0.3549c -0.2821 -0.2366 -0.4186 -0.4732 -0.4186 -0.728c 0 -0.1001 0.0637 -0.1456 0.182 -0.1456c 0.0728 0 0.1365 0.0364 0.182 0.1183c 0.1638 0.2639 0.3094 0.3367 0.7553 0.3367c 0.2457 0 1.0283 -0.1729 1.2649 -0.182Z "/></symbol><symbol id="gB7560AD8DFDE075CC650DFC2ACE08502" overflow="visible"><path d="M 0 0m 2.106 1.196l -0.221 -0.026c 0.624 0.611 1.105 1.053 1.43 1.352l 1.248 1.157c 0.299 0.273 0.611 0.611 0.91 0.988c 0.403 0.494 0.598 0.793 0.598 0.897c 0 0.117 -0.065 0.182 -0.195 0.182c -0.091 0 -0.169 -0.052 -0.234 -0.169c -0.325 -0.533 -0.624 -0.793 -0.91 -0.793c -0.286 0 -0.494 0.234 -0.611 0.39c -0.312 0.377 -0.624 0.572 -0.923 0.572c -0.338 0 -0.689 -0.156 -1.053 -0.494c -0.364 -0.338 -0.546 -0.676 -0.546 -1.014c 0 -0.13 0.065 -0.195 0.208 -0.195c 0.091 0 0.169 0.065 0.221 0.182c 0.143 0.377 0.494 0.559 1.027 0.559c 0.182 0 0.442 -0.065 0.793 -0.182c 0.312 -0.117 0.611 -0.182 0.884 -0.195c -0.728 -0.715 -1.287 -1.235 -1.69 -1.586l -1.157 -1.079c -0.195 -0.195 -0.442 -0.455 -0.715 -0.78c -0.403 -0.507 -0.611 -0.806 -0.611 -0.923c 0 -0.117 0.065 -0.182 0.208 -0.182c 0.078 0 0.156 0.065 0.247 0.195c 0.325 0.507 0.676 0.767 1.04 0.767c 0.208 0 0.442 -0.156 0.702 -0.481c 0.26 -0.325 0.559 -0.481 0.858 -0.481c 0.442 0 0.884 0.234 1.352 0.689c 0.468 0.455 0.702 0.897 0.702 1.326c 0 0.117 -0.065 0.182 -0.208 0.182c -0.091 0 -0.169 -0.065 -0.234 -0.195c -0.195 -0.559 -0.754 -1.04 -1.482 -1.04c -0.312 0 -1.326 0.377 -1.638 0.377Z "/></symbol></defs></svg>