<svg viewBox="0 0 168.761811111 39.468" width="168.761811111pt" height="39.468pt" xmlns="http://www.w3.org/2000/svg" xmlns:xlink="http://www.w3.org/1999/xlink" xmlns:h5="http://www.w3.org/1999/xhtml"><g transform="matrix(1 0 0 -1 6.5 21.593)"><use xlink:href="#gB8701B097AF733516B3B0D112B7C8538" x="0" y="0" fill="#e6edf3" fill-rule="nonzero"/></g><g transform="matrix(1 0 0 -1 19.097 35.386)"><use xlink:href="#gAFF071B78EC9EEFB01BB2C72F5E749E4" x="0" y="0" fill="#e6edf3" fill-rule="nonzero"/></g><g transform="matrix(1 0 0 -1 28.707466667 21.593)"><use xlink:href="#gA5D6553E5589AE1C82BB1D97B3E20260" x="0" y="0" fill="#e6edf3" fill-rule="nonzero"/></g><g transform="matrix(1 0 0 -1 42.477355556 21.593)"><use xlink:href="#gB323F9E42E1C20C087FBF81136E27860" x="0" y="0" fill="#e6edf3" fill-rule="nonzero"/></g><g transform="matrix(1 0 0 -1 48.980244444 21.593)"><use xlink:href="#g6BCCDCE0D843C0F823A4CE121D6D1649" x="0" y="0" fill="#e6edf3" fill-rule="nonzero"/></g><g transform="matrix(1 0 0 -1 56.052244444 21.593)"><use xlink:href="#g9172A4D008F59866536D2701B71C2AA7" x="0" y="0" fill="#e6edf3" fill-rule="nonzero"/></g><g transform="matrix(1 0 0 -1 70.960355556 21.593)"><use xlink:href="#g13AFF74D87C474CFAF661EEAD0458F8B" x="0" y="0" fill="#e6edf3" fill-rule="nonzero"/></g><g transform="matrix(1 0 0 -1 84.685466667 21.593)"><use xlink:href="#g804534FDB2C04DB6DF70D6FAD987A95A" x="0" y="0" fill="#e6edf3" fill-rule="nonzero"/></g><g transform="matrix(1 0 0 -1 102.742466667 35.386)"><use xlink:href="#gB520C4FDFB2403295A40FD77402E9185" x="0" y="0" fill="#e6edf3" fill-rule="nonzero"/></g><g transform="matrix(1 0 0 -1 113.727033333 21.593)"><use xlink:href="#gA01F6DC51669829F49C013CF8E967E44" x="0" y="0" fill="#e6edf3" fill-rule="nonzero"/></g><g transform="matrix(1 0 0 -1 127.444922222 21.593)"><use xlink:href="#gB323F9E42E1C20C087FBF81136E27860" x="0" y="0" fill="#e6edf3" fill-rule="nonzero"/></g><g transform="matrix(1 0 0 -1 133.947811111 21.593)"><use xlink:href="#gA5D6553E5589AE1C82BB1D97B3E20260" x="0" y="0" fill="#e6edf3" fill-rule="nonzero"/></g><g transform="matrix(1 0 0 -1 144.828811111 21.593)"><use xlink:href="#g6BCCDCE0D843C0F823A4CE121D6D1649" x="0" y="0" fill="#e6edf3" fill-rule="nonzero"/></g><g transform="matrix(1 0 0 -1 151.900811111 21.593)"><use xlink:href="#g53251C539233983FE9FC826CA7FBAC4A" x="0" y="0" fill="#e6edf3" fill-rule="nonzero"/></g><defs><symbol id="gB8701B097AF733516B3B0D112B7C8538" overflow="visible"><path d="M 0 0m 16.263 17.693c -0.611 0 -1.157 -0.559 -1.664 -1.664c -0.234 -0.52 -0.507 -1.326 -0.806 -2.431c -0.442 -1.612 -0.975 -3.848 -1.599 -6.708c -0.871 0.221 -1.768 0.338 -2.691 0.338c -0.429 0 -0.832 -0.026 -1.235 -0.065l 0.143 0.858c 0.494 2.977 0.962 5.317 1.404 7.02c 0.377 1.508 0.728 2.262 1.04 2.262c 0.26 0 0.481 -0.065 0.65 -0.208c -0.377 -0.065 -0.572 -0.286 -0.572 -0.676c 0 -0.39 0.286 -0.676 0.676 -0.676c 0.455 0 0.689 0.234 0.689 0.689c 0 0.728 -0.715 1.261 -1.469 1.261c -0.611 0 -1.157 -0.559 -1.664 -1.664c -0.221 -0.507 -0.494 -1.326 -0.793 -2.431c -0.455 -1.651 -0.988 -3.887 -1.599 -6.721c -1.781 -0.468 -3.952 -1.703 -3.952 -3.627c 0 -1.521 1.378 -2.574 2.6 -3.133l -0.273 -1.638c -0.481 -2.795 -0.858 -4.771 -1.131 -5.941c -0.533 -2.223 -1.144 -3.341 -1.833 -3.341c -0.247 0 -0.468 0.065 -0.663 0.208c 0.377 0.065 0.559 0.286 0.559 0.676c 0 0.377 -0.286 0.676 -0.663 0.676c -0.455 0 -0.689 -0.234 -0.689 -0.689c 0 -0.728 0.728 -1.261 1.482 -1.261c 0.949 0 1.742 0.754 2.353 2.249c 0.403 0.975 0.832 2.496 1.313 4.576l 0.923 3.978c 0.871 -0.221 1.768 -0.338 2.704 -0.338c 0.416 0 0.819 0.026 1.209 0.065l -0.143 -0.858c -0.429 -2.639 -0.806 -4.628 -1.131 -5.941c -0.533 -2.223 -1.144 -3.341 -1.82 -3.341c -0.26 0 -0.481 0.065 -0.663 0.208c 0.377 0.065 0.559 0.286 0.559 0.676c 0 0.39 -0.286 0.676 -0.676 0.676c -0.455 0 -0.689 -0.234 -0.689 -0.689c 0 -0.728 0.741 -1.261 1.495 -1.261c 0.949 0 1.729 0.754 2.34 2.249c 0.403 0.962 0.845 2.483 1.326 4.576l 0.923 3.991c 1.768 0.468 3.952 1.716 3.952 3.627c 0 1.521 -1.404 2.574 -2.626 3.146l 0.286 1.625c 1.053 6.188 1.872 9.282 2.444 9.282c 0.26 0 0.481 -0.065 0.65 -0.208c -0.377 -0.065 -0.572 -0.286 -0.572 -0.676c 0 -0.377 0.286 -0.676 0.663 -0.676c 0.455 0 0.689 0.234 0.689 0.689c 0 0.715 -0.702 1.261 -1.456 1.261Z m -3.874 -17.316l 1.053 5.343c 1.365 -0.65 2.041 -1.469 2.041 -2.47c 0 -1.521 -1.703 -2.457 -3.094 -2.873Z m -2.886 6.149c 0.897 0 1.755 -0.104 2.548 -0.312l -1.196 -6.162c -0.403 -0.052 -0.858 -0.078 -1.352 -0.078c -0.897 0 -1.742 0.104 -2.561 0.312l 1.196 6.162c 0.403 0.052 0.858 0.078 1.365 0.078Z m -2.899 -0.403l -1.053 -5.356c -1.352 0.663 -2.028 1.482 -2.028 2.483c 0 1.534 1.69 2.457 3.081 2.873Z "/></symbol><symbol id="gAFF071B78EC9EEFB01BB2C72F5E749E4" overflow="visible"><path d="M 0 0m 5.5874 4.2679c 0 -0.1092 0.0637 -0.1638 0.1911 -0.1638c 0.1729 0 0.1729 0.0637 0.2184 0.2275l 0.4641 1.911c 0 0.1001 -0.0546 0.1547 -0.1547 0.1547c -0.0546 0 -0.1274 -0.0455 -0.2093 -0.1365l -0.4095 -0.4823c -0.3094 0.4095 -0.7917 0.6188 -1.456 0.6188c -0.5915 0 -1.1375 -0.2002 -1.6289 -0.5915c -0.5369 -0.4277 -0.8008 -0.9282 -0.8008 -1.5015c 0 -0.6643 0.4641 -1.1557 1.0283 -1.3104c 0.5824 -0.1456 1.0192 -0.2548 1.3104 -0.3185c 0.5369 -0.1274 0.8099 -0.4277 0.8099 -0.91c 0 -0.4277 -0.182 -0.7917 -0.546 -1.092c -0.364 -0.3003 -0.7735 -0.455 -1.2012 -0.455c -0.4277 0 -0.819 0.0819 -1.1557 0.2548c -0.3731 0.1911 -0.5551 0.5187 -0.5551 0.9828c 0 0.1365 0.0182 0.2912 0.0546 0.4459c 0.0091 0.0273 0.0091 0.0455 0.0091 0.0546c 0 0.1001 -0.0637 0.1547 -0.182 0.1547c -0.0455 0 -0.0728 0 -0.1001 -0.0091c -0.0637 -0.0728 -0.1001 -0.1365 -0.1092 -0.2002l -0.455 -1.7927c -0.0182 -0.0728 -0.0273 -0.1183 -0.0273 -0.1456c 0 -0.1001 0.0546 -0.1456 0.1638 -0.1456c 0.0637 0 0.1274 0.0455 0.2002 0.1365l 0.2184 0.2548c 0.0819 0.1001 0.1456 0.1729 0.1911 0.2184c 0.3913 -0.4095 0.9646 -0.6097 1.7199 -0.6097c 0.6188 0 1.183 0.2184 1.6926 0.6552c 0.5278 0.4641 0.7917 1.001 0.7917 1.6107c 0 0.7917 -0.4732 1.2194 -1.1284 1.4287c 0 0 -1.2649 0.2821 -1.4287 0.3458c -0.3913 0.1365 -0.5824 0.4004 -0.5824 0.7826c 0 0.3913 0.1911 0.728 0.5733 1.0101c 0.3458 0.2548 0.7189 0.3822 1.1284 0.3822c 0.9373 0 1.4014 -0.455 1.4014 -1.365c 0 -0.0728 -0.0364 -0.3276 -0.0364 -0.4004Z "/></symbol><symbol id="gA5D6553E5589AE1C82BB1D97B3E20260" overflow="visible"><path d="M 0 0m 6.487 2.834c 0 -0.195 0.169 -0.234 0.299 -0.234c 0.247 0 0.26 0.078 0.325 0.312l 0.728 2.899c 0.052 0.169 0.052 0.208 0.052 0.208c 0 0.234 -0.26 0.234 -0.312 0.234c -0.247 0 -0.273 -0.091 -0.338 -0.338c -0.26 -0.988 -0.663 -1.183 -1.599 -1.183h -0.728l 0.858 3.471c 0.169 0.026 0.312 0.026 0.442 0.026h 1.547c 1.482 0 1.937 -0.377 1.937 -1.521c 0 -0.312 -0.052 -0.702 -0.052 -0.754c 0 -0.247 0.247 -0.247 0.312 -0.247c 0.273 0 0.286 0.13 0.312 0.364c 0.078 0.845 0.182 1.677 0.247 2.535c 0 0.234 -0.221 0.234 -0.429 0.234h -6.994c -0.273 0 -0.286 -0.013 -0.351 -0.065c -0.091 -0.065 -0.117 -0.312 -0.117 -0.312c 0 -0.234 0.182 -0.234 0.533 -0.234c 0.273 0 0.52 -0.013 0.793 -0.026l -1.833 -7.332c -0.052 -0.208 -0.065 -0.221 -0.299 -0.247c -0.221 -0.013 -0.481 -0.013 -0.689 -0.013c -0.338 0 -0.364 0 -0.416 -0.026c -0.156 -0.091 -0.156 -0.299 -0.156 -0.351c 0 0 0 -0.234 0.286 -0.234c 0.325 0 0.663 0.026 0.988 0.026l 1.053 0.013l 1.17 -0.013c 0.377 0 0.754 -0.026 1.118 -0.026c 0.156 0 0.39 0 0.39 0.377c 0 0.234 -0.221 0.234 -0.429 0.234h -0.429c -0.494 0 -0.689 0.026 -0.819 0.052l 0.871 3.458h 0.845c 0.78 0 1.001 -0.13 1.001 -0.559c 0 -0.195 -0.091 -0.559 -0.117 -0.728Z "/></symbol><symbol id="gB323F9E42E1C20C087FBF81136E27860" overflow="visible"><path d="M 0 0m 2.496 3.25c 0 0.377 -0.312 0.689 -0.689 0.689c -0.377 0 -0.689 -0.312 -0.689 -0.689c 0 -0.377 0.312 -0.689 0.689 -0.689c 0.377 0 0.689 0.312 0.689 0.689Z "/></symbol><symbol id="g6BCCDCE0D843C0F823A4CE121D6D1649" overflow="visible"><path d="M 0 0m 5.577 8.216l -0.767 -3.159c -0.273 0.481 -0.65 0.728 -1.157 0.728c -0.845 0 -1.586 -0.429 -2.236 -1.3c -0.598 -0.806 -0.897 -1.651 -0.897 -2.522c 0 -1.144 0.663 -2.106 1.755 -2.106c 0.559 0 1.105 0.299 1.625 0.91c 0.143 -0.494 0.585 -0.91 1.196 -0.91c 0.897 0 1.183 1.066 1.378 2.028c 0 0.117 -0.065 0.182 -0.195 0.182c -0.117 0 -0.195 -0.091 -0.234 -0.273c -0.26 -1.027 -0.572 -1.547 -0.923 -1.547c -0.221 0 -0.338 0.182 -0.338 0.533c 0 0.195 0.026 0.403 0.078 0.611l 1.846 7.436v 0.052c -0.039 0.091 -0.117 0.143 -0.221 0.143c -0.299 0 -0.845 -0.052 -1.625 -0.143c -0.143 -0.013 -0.221 -0.117 -0.221 -0.299c 0 -0.13 0.117 -0.195 0.351 -0.195c 0.247 0 0.585 0.013 0.585 -0.169Z m -1.144 -3.328c 0.13 -0.273 0.195 -0.455 0.195 -0.572c -0.013 -0.052 -0.026 -0.117 -0.039 -0.208l -0.637 -2.522c -0.039 -0.143 -0.13 -0.299 -0.247 -0.455c -0.481 -0.585 -0.949 -0.884 -1.404 -0.884c -0.507 0 -0.767 0.39 -0.767 1.157c 0 0.312 0.078 0.78 0.234 1.404c 0.273 1.105 0.663 1.859 1.144 2.262c 0.26 0.221 0.507 0.325 0.754 0.325c 0.351 0 0.611 -0.169 0.767 -0.507Z "/></symbol><symbol id="g9172A4D008F59866536D2701B71C2AA7" overflow="visible"><path d="M 0 0m 10.842 0.377c 0 0.234 -0.195 0.234 -0.52 0.234c -0.182 0 -0.325 0 -0.507 0.013c -0.156 0.013 -0.169 0.026 -0.208 0.247l -1.222 7.995c -0.052 0.325 -0.117 0.377 -0.442 0.377c -0.286 0 -0.39 -0.052 -0.572 -0.325l -5.109 -7.813c -0.156 -0.247 -0.312 -0.481 -1.261 -0.494c -0.182 0 -0.416 0 -0.416 -0.377c 0 -0.104 0.091 -0.234 0.247 -0.234c 0.39 0 0.832 0.039 1.235 0.039c 0.481 0 0.975 -0.039 1.443 -0.039c 0.091 0 0.351 0 0.351 0.377c 0 0.234 -0.234 0.234 -0.338 0.234c -0.104 0 -0.468 0 -0.754 0.143l 1.196 1.82h 3.51l 0.299 -1.898c -0.247 -0.052 -0.65 -0.065 -0.845 -0.065c -0.26 0 -0.481 0 -0.481 -0.377c 0 -0.169 0.143 -0.234 0.286 -0.234l 1.937 0.039l 0.897 -0.013c 0.299 0 0.611 -0.026 0.91 -0.026c 0.117 0 0.364 0 0.364 0.377Z m -3.458 2.808h -3.016l 2.444 3.744Z "/></symbol><symbol id="g13AFF74D87C474CFAF661EEAD0458F8B" overflow="visible"><path d="M 0 0m 9.074 4.771h -8.034c -0.208 0 -0.312 -0.104 -0.312 -0.299c 0 -0.195 0.104 -0.299 0.312 -0.299h 8.034c 0.208 0 0.312 0.104 0.312 0.299c 0 0.156 -0.143 0.299 -0.312 0.299Z m 0 -2.444h -8.034c -0.208 0 -0.312 -0.104 -0.312 -0.299c 0 -0.195 0.104 -0.299 0.312 -0.299h 8.034c 0.208 0 0.312 0.104 0.312 0.299c 0 0.169 -0.143 0.299 -0.312 0.299Z "/></symbol><symbol id="g804534FDB2C04DB6DF70D6FAD987A95A" overflow="visible"><path d="M 0 0m 21.723 17.693c -0.611 0 -1.17 -0.559 -1.677 -1.664c -0.481 -1.079 -0.975 -3.029 -1.352 -4.563c -0.949 -3.705 -1.833 -8.034 -2.665 -12.987c -0.468 -2.743 -0.845 -4.732 -1.144 -5.941c -0.533 -2.223 -1.144 -3.341 -1.82 -3.341c -0.26 0 -0.481 0.065 -0.663 0.208c 0.377 0.065 0.559 0.286 0.559 0.676c 0 0.39 -0.286 0.676 -0.676 0.676c -0.455 0 -0.689 -0.234 -0.689 -0.689c 0 -0.728 0.741 -1.261 1.495 -1.261c 0.949 0 1.729 0.754 2.34 2.249c 0.325 0.793 0.767 2.327 1.326 4.576c 0.949 3.861 1.794 7.995 2.535 12.389c 0.52 3.081 0.988 5.421 1.404 7.02c 0.377 1.508 0.728 2.262 1.04 2.262c 0.273 0 0.494 -0.065 0.663 -0.208c -0.39 -0.065 -0.585 -0.286 -0.585 -0.676c 0 -0.377 0.299 -0.676 0.676 -0.676c 0.455 0 0.689 0.234 0.689 0.689c 0 0.715 -0.702 1.261 -1.456 1.261Z m -5.447 0c -0.611 0 -1.157 -0.559 -1.664 -1.664c -0.247 -0.546 -0.507 -1.352 -0.806 -2.431c -1.261 -4.667 -2.21 -9.191 -3.211 -15.119c -0.468 -2.743 -0.845 -4.732 -1.144 -5.941c -0.533 -2.223 -1.144 -3.341 -1.82 -3.341c -0.26 0 -0.481 0.065 -0.663 0.208c 0.377 0.065 0.559 0.286 0.559 0.676c 0 0.377 -0.299 0.676 -0.676 0.676c -0.455 0 -0.689 -0.234 -0.689 -0.689c 0 -0.728 0.728 -1.261 1.495 -1.261c 0.949 0 1.729 0.754 2.34 2.249c 0.325 0.793 0.767 2.327 1.326 4.576c 0.949 3.861 1.794 7.995 2.535 12.389c 0.52 3.081 0.988 5.421 1.404 7.02c 0.377 1.508 0.728 2.262 1.04 2.262c 0.273 0 0.494 -0.065 0.663 -0.208c -0.39 -0.065 -0.585 -0.286 -0.585 -0.676c 0 -0.377 0.299 -0.676 0.676 -0.676c 0.455 0 0.689 0.234 0.689 0.689c 0 0.728 -0.715 1.261 -1.469 1.261Z m -5.434 0c -0.611 0 -1.157 -0.559 -1.664 -1.664c -0.481 -1.066 -0.975 -3.016 -1.352 -4.563c -0.949 -3.705 -1.833 -8.034 -2.678 -12.987c -0.455 -2.743 -0.832 -4.732 -1.131 -5.941c -0.533 -2.223 -1.144 -3.341 -1.833 -3.341c -0.247 0 -0.468 0.065 -0.65 0.208c 0.377 0.065 0.559 0.286 0.559 0.676c 0 0.377 -0.299 0.676 -0.676 0.676c -0.455 0 -0.689 -0.234 -0.689 -0.689c 0 -0.728 0.728 -1.261 1.482 -1.261c 0.949 0 1.742 0.754 2.353 2.249c 0.325 0.793 0.767 2.327 1.326 4.576c 0.949 3.861 1.794 7.995 2.535 12.389c 0.52 3.081 0.988 5.421 1.404 7.02c 0.377 1.508 0.728 2.262 1.04 2.262c 0.26 0 0.481 -0.065 0.663 -0.208c -0.39 -0.065 -0.585 -0.286 -0.585 -0.676c 0 -0.39 0.286 -0.676 0.676 -0.676c 0.455 0 0.689 0.234 0.689 0.689c 0 0.728 -0.715 1.261 -1.469 1.261Z "/></symbol><symbol id="gB520C4FDFB2403295A40FD77402E9185" overflow="visible"><path d="M 0 0m 6.9524 6.1789c -0.1729 0 -0.7644 0.0364 -0.9373 0.0364c -0.1456 0 -0.2184 -0.0819 -0.2184 -0.2366c 0 -0.1001 0.0637 -0.1547 0.2002 -0.1638c 0.2275 -0.0091 0.3367 -0.0819 0.3367 -0.2184c 0 -0.0728 -0.0546 -0.1911 -0.1547 -0.3458l -2.912 -4.277l -0.8008 4.5136c -0.0091 0.0637 -0.0182 0.1001 -0.0182 0.1274c 0 0.1365 0.1729 0.2002 0.5278 0.2002c 0.1911 0 0.3094 0.0455 0.3094 0.2366v 0.0364c -0.0182 0.0819 -0.0819 0.1274 -0.1911 0.1274c -0.2093 0 -0.9464 -0.0364 -1.1557 -0.0364c -0.1911 0 -0.8099 0.0364 -1.001 0.0364c -0.1456 0 -0.2184 -0.0819 -0.2184 -0.2366c 0 -0.1092 0.091 -0.1638 0.2639 -0.1638c 0.3913 0 0.4732 0.0273 0.5187 -0.2548l 0.9828 -5.4691c 0.0273 -0.182 0.1183 -0.273 0.2548 -0.273c 0.1274 0 0.2366 0.0728 0.3367 0.2093l 3.4398 5.0596c 0.3094 0.455 0.6734 0.7007 1.0829 0.7371c 0.1638 0.0091 0.2366 0.0728 0.2366 0.2275c 0 0.1092 -0.0546 0.1638 -0.1638 0.1638c -0.1274 0 -0.5915 -0.0364 -0.7189 -0.0364Z "/></symbol><symbol id="gA01F6DC51669829F49C013CF8E967E44" overflow="visible"><path d="M 0 0m 10.14 8.541c 0.039 0.091 0.065 0.156 0.065 0.182c 0 0.104 -0.117 0.156 -0.338 0.156h -8.918c -0.221 0 -0.338 -0.052 -0.338 -0.169l 4.42 -8.879c 0.091 -0.169 0.208 -0.26 0.377 -0.26c 0.169 0 0.286 0.091 0.377 0.26Z m -4.355 -7.605l -3.458 6.929h 6.903Z "/></symbol><symbol id="g53251C539233983FE9FC826CA7FBAC4A" overflow="visible"><path d="M 0 0m 8.723 8.84c -0.247 0 -1.027 0.039 -1.274 0.039c -0.195 0 -0.299 -0.104 -0.299 -0.299c 0 -0.13 0.091 -0.195 0.26 -0.208c 0.364 -0.013 0.546 -0.143 0.546 -0.364c 0 -0.117 -0.065 -0.273 -0.182 -0.468l -3.874 -6.149l -0.858 6.656c 0 0.221 0.273 0.325 0.832 0.325c 0.26 0 0.377 0.091 0.377 0.312c 0 0.13 -0.078 0.195 -0.234 0.195c -0.286 0 -1.3 -0.039 -1.586 -0.039c -0.26 0 -1.144 0.039 -1.404 0.039c -0.195 0 -0.299 -0.104 -0.299 -0.299c 0 -0.143 0.13 -0.208 0.377 -0.208c 0.221 0 0.377 -0.026 0.481 -0.052c 0.208 -0.065 0.195 -0.091 0.234 -0.338l 1.014 -7.93c 0.039 -0.221 0.143 -0.338 0.312 -0.338c 0.169 0 0.299 0.091 0.403 0.26l 4.628 7.358c 0.299 0.468 0.585 0.767 0.871 0.884c 0.195 0.091 0.442 0.143 0.728 0.156c 0.143 0.013 0.208 0.104 0.221 0.299c 0.013 0.143 -0.065 0.208 -0.221 0.208c -0.195 0 -0.858 -0.039 -1.053 -0.039Z "/></symbol></defs></svg>