<svg viewBox="0 0 316.940144444 34.658" width="316.940144444pt" height="34.658pt" xmlns="http://www.w3.org/2000/svg" xmlns:xlink="http://www.w3.org/1999/xlink" xmlns:h5="http://www.w3.org/1999/xhtml"><g transform="matrix(1 0 0 -1 6.5 18.447)"><use xlink:href="#gA01F6DC51669829F49C013CF8E967E44" x="0" y="0" fill="#e6edf3" fill-rule="nonzero"/></g><g transform="matrix(1 0 0 -1 17.329 13.728)"><use xlink:href="#g8A6A9074F91D642F82CC8BE39AC39D3A" x="0" y="0" fill="#e6edf3" fill-rule="nonzero"/></g><g transform="matrix(1 0 0 -1 23.2349 18.447)"><use xlink:href="#g53251C539233983FE9FC826CA7FBAC4A" x="0" y="0" fill="#e6edf3" fill-rule="nonzero"/></g><g transform="matrix(1 0 0 -1 37.207011111 18.447)"><use xlink:href="#g13AFF74D87C474CFAF661EEAD0458F8B" x="0" y="0" fill="#e6edf3" fill-rule="nonzero"/></g><g transform="matrix(1 0 0 -1 50.932122222 18.447)"><use xlink:href="#g9B543B57F718853EF8F95EF155B6CF69" x="0" y="0" fill="#e6edf3" fill-rule="nonzero"/></g><g transform="matrix(1 0 0 -1 64.493072222 9.646)"><use xlink:href="#gF894C2D74D7097E9F8A03474A816F1E2" x="0" y="0" fill="#e6edf3" fill-rule="nonzero"/></g><g transform="matrix(1 0 0 -1 62.346122222 27.365)"><use xlink:href="#gC0145148BC36294A1E6393678561EC4B" x="0" y="0" fill="#e6edf3" fill-rule="nonzero"/></g><g transform="matrix(1 0 0 -1 67.624122222 30.576)"><use xlink:href="#g66C287F757172C4FBEE46C9B113A6E1F" x="0" y="0" fill="#e6edf3" fill-rule="nonzero"/></g><path fill="none" stroke="#e6edf3" stroke-width="0.624" stroke-linecap="butt" stroke-linejoin="miter" stroke-miterlimit="4" transform="translate(62.346122222 15.197)" d="M 0 0h 11.1839"/><g transform="matrix(1 0 0 -1 87.830022222 18.447)"><use xlink:href="#g2D7122AD31FABF41BED931716B883F58" x="0" y="0" fill="#e6edf3" fill-rule="nonzero"/><use xlink:href="#g8E97D087849068FDB678D73E5CECDEE2" x="5.057" y="0" fill="#e6edf3" fill-rule="nonzero"/><use xlink:href="#g5D4DFCA3C00979A1E9076032CC813B65" x="13.91" y="0" fill="#e6edf3" fill-rule="nonzero"/><use xlink:href="#g49CA9B429DF3D7281052206316ECCC8A" x="20.41" y="0" fill="#e6edf3" fill-rule="nonzero"/><use xlink:href="#gFD7B4B4FA231C83EBA33EE1F285F6134" x="24.024" y="0" fill="#e6edf3" fill-rule="nonzero"/><use xlink:href="#gFD7B4B4FA231C83EBA33EE1F285F6134" x="29.146" y="0" fill="#e6edf3" fill-rule="nonzero"/><use xlink:href="#g5D4DFCA3C00979A1E9076032CC813B65" x="34.268" y="0" fill="#e6edf3" fill-rule="nonzero"/><use xlink:href="#gA2276AEFE9378953E87817A497BFC175" x="40.768" y="0" fill="#e6edf3" fill-rule="nonzero"/><use xlink:href="#g2F93E6EEEE2061842AA37F49EEA2F1A2" x="47.996" y="0" fill="#e6edf3" fill-rule="nonzero"/></g><g transform="matrix(1 0 0 -1 192.883022222 18.447)"><use xlink:href="#gA01F6DC51669829F49C013CF8E967E44" x="0" y="0" fill="#e6edf3" fill-rule="nonzero"/></g><g transform="matrix(1 0 0 -1 203.712022222 13.728)"><use xlink:href="#g8A6A9074F91D642F82CC8BE39AC39D3A" x="0" y="0" fill="#e6edf3" fill-rule="nonzero"/></g><g transform="matrix(1 0 0 -1 209.617922222 18.447)"><use xlink:href="#g53251C539233983FE9FC826CA7FBAC4A" x="0" y="0" fill="#e6edf3" fill-rule="nonzero"/></g><g transform="matrix(1 0 0 -1 223.590033333 18.447)"><use xlink:href="#g13AFF74D87C474CFAF661EEAD0458F8B" x="0" y="0" fill="#e6edf3" fill-rule="nonzero"/></g><g transform="matrix(1 0 0 -1 237.315144444 18.447)"><use xlink:href="#gC189A0A36A47FB1CBF46D2ED82C939AF" x="0" y="0" fill="#e6edf3" fill-rule="nonzero"/></g><g transform="matrix(1 0 0 -1 256.815144444 18.447)"><use xlink:href="#g2D7122AD31FABF41BED931716B883F58" x="0" y="0" fill="#e6edf3" fill-rule="nonzero"/><use xlink:href="#g562FFBF532095A12970489C496BC60C8" x="5.057" y="0" fill="#e6edf3" fill-rule="nonzero"/><use xlink:href="#g3BE14B656A783D87D3540BF1AAF22AA9" x="13.182" y="0" fill="#e6edf3" fill-rule="nonzero"/><use xlink:href="#g35A7BA3FBB03354D7A4358A466CD34D8" x="19.682" y="0" fill="#e6edf3" fill-rule="nonzero"/><use xlink:href="#gBC3D9C1A249D0D4F874E09900DF515A4" x="26.91" y="0" fill="#e6edf3" fill-rule="nonzero"/><use xlink:href="#g3BE14B656A783D87D3540BF1AAF22AA9" x="30.524" y="0" fill="#e6edf3" fill-rule="nonzero"/><use xlink:href="#g8B273DA24598714A1DE03FD5302C001A" x="37.024" y="0" fill="#e6edf3" fill-rule="nonzero"/><use xlink:href="#g7413A85D70934E3816A3D1EE8499A939" x="42.796" y="0" fill="#e6edf3" fill-rule="nonzero"/><use xlink:href="#g2F93E6EEEE2061842AA37F49EEA2F1A2" x="48.568" y="0" fill="#e6edf3" fill-rule="nonzero"/></g><defs><symbol id="gA01F6DC51669829F49C013CF8E967E44" overflow="visible"><path d="M 0 0m 10.14 8.541c 0.039 0.091 0.065 0.156 0.065 0.182c 0 0.104 -0.117 0.156 -0.338 0.156h -8.918c -0.221 0 -0.338 -0.052 -0.338 -0.169l 4.42 -8.879c 0.091 -0.169 0.208 -0.26 0.377 -0.26c 0.169 0 0.286 0.091 0.377 0.26Z m -4.355 -7.605l -3.458 6.929h 6.903Z "/></symbol><symbol id="g8A6A9074F91D642F82CC8BE39AC39D3A" overflow="visible"><path d="M 0 0m 1.0829 3.8584c 0.2912 0 0.5096 0.2184 0.5096 0.5096c 0 0.3276 -0.1729 0.5005 -0.5096 0.5096c 0.2002 0.4277 0.6552 0.7735 1.2467 0.7735c 0.8008 0 1.3286 -0.6006 1.3286 -1.4014c 0 -0.4368 -0.1547 -0.8554 -0.4732 -1.2649c -0.1547 -0.2093 -0.273 -0.3549 -0.3549 -0.4368l -2.1567 -2.1385c -0.1183 -0.1092 -0.1001 -0.1365 -0.1001 -0.4095h 3.7492l 0.2821 1.7108h -0.3822c -0.0637 -0.4823 -0.1365 -0.7644 -0.2184 -0.8281c -0.0455 -0.0273 -0.3276 -0.0455 -0.8645 -0.0455h -1.547c 0.6097 0.5369 1.1739 1.0192 1.7108 1.4469c 0.4095 0.3185 0.7007 0.6006 0.8827 0.8463c 0.273 0.3549 0.4095 0.728 0.4095 1.1193c 0 0.5642 -0.2184 1.0101 -0.6643 1.3377c -0.3913 0.3003 -0.8827 0.455 -1.4651 0.455c -0.5005 0 -0.9282 -0.1456 -1.3013 -0.4368c -0.3913 -0.3185 -0.5915 -0.7189 -0.5915 -1.2103c 0 -0.3094 0.2275 -0.5369 0.5096 -0.5369Z "/></symbol><symbol id="g53251C539233983FE9FC826CA7FBAC4A" overflow="visible"><path d="M 0 0m 8.723 8.84c -0.247 0 -1.027 0.039 -1.274 0.039c -0.195 0 -0.299 -0.104 -0.299 -0.299c 0 -0.13 0.091 -0.195 0.26 -0.208c 0.364 -0.013 0.546 -0.143 0.546 -0.364c 0 -0.117 -0.065 -0.273 -0.182 -0.468l -3.874 -6.149l -0.858 6.656c 0 0.221 0.273 0.325 0.832 0.325c 0.26 0 0.377 0.091 0.377 0.312c 0 0.13 -0.078 0.195 -0.234 0.195c -0.286 0 -1.3 -0.039 -1.586 -0.039c -0.26 0 -1.144 0.039 -1.404 0.039c -0.195 0 -0.299 -0.104 -0.299 -0.299c 0 -0.143 0.13 -0.208 0.377 -0.208c 0.221 0 0.377 -0.026 0.481 -0.052c 0.208 -0.065 0.195 -0.091 0.234 -0.338l 1.014 -7.93c 0.039 -0.221 0.143 -0.338 0.312 -0.338c 0.169 0 0.299 0.091 0.403 0.26l 4.628 7.358c 0.299 0.468 0.585 0.767 0.871 0.884c 0.195 0.091 0.442 0.143 0.728 0.156c 0.143 0.013 0.208 0.104 0.221 0.299c 0.013 0.143 -0.065 0.208 -0.221 0.208c -0.195 0 -0.858 -0.039 -1.053 -0.039Z "/></symbol><symbol id="g13AFF74D87C474CFAF661EEAD0458F8B" overflow="visible"><path d="M 0 0m 9.074 4.771h -8.034c -0.208 0 -0.312 -0.104 -0.312 -0.299c 0 -0.195 0.104 -0.299 0.312 -0.299h 8.034c 0.208 0 0.312 0.104 0.312 0.299c 0 0.156 -0.143 0.299 -0.312 0.299Z m 0 -2.444h -8.034c -0.208 0 -0.312 -0.104 -0.312 -0.299c 0 -0.195 0.104 -0.299 0.312 -0.299h 8.034c 0.208 0 0.312 0.104 0.312 0.299c 0 0.169 -0.143 0.299 -0.312 0.299Z "/></symbol><symbol id="g9B543B57F718853EF8F95EF155B6CF69" overflow="visible"><path d="M 0 0m 9.074 3.51h -8.034c -0.208 0 -0.312 -0.091 -0.312 -0.26c 0 -0.169 0.104 -0.26 0.312 -0.26h 8.034c 0.208 0 0.312 0.091 0.312 0.26c 0 0.156 -0.156 0.26 -0.312 0.26Z "/></symbol><symbol id="gF894C2D74D7097E9F8A03474A816F1E2" overflow="visible"><path d="M 0 0m 4.693 5.746c -1.469 0 -2.691 -1.586 -3.016 -2.886l -1.248 -5.057c -0.026 -0.104 -0.039 -0.169 -0.039 -0.208c 0 -0.273 0.13 -0.403 0.403 -0.403c 0.195 0 0.364 0.104 0.494 0.299l 0.793 3.107c 0.299 -0.507 0.715 -0.767 1.248 -0.767c 0.858 0 1.612 0.416 2.275 1.261c 0.611 0.793 0.923 1.638 0.923 2.509c 0 1.183 -0.689 2.145 -1.833 2.145Z m -0.026 -0.39c 0.559 0 0.832 -0.403 0.832 -1.209c 0 -0.351 -0.078 -0.806 -0.221 -1.391c -0.286 -1.105 -0.689 -1.846 -1.196 -2.236c -0.273 -0.208 -0.52 -0.312 -0.767 -0.312c -0.247 0 -0.468 0.091 -0.637 0.26c -0.273 0.273 -0.403 0.559 -0.403 0.832c 0.013 0.091 0.039 0.247 0.091 0.468c 0.299 1.235 0.559 2.028 0.767 2.392c 0.455 0.793 0.962 1.196 1.534 1.196Z "/></symbol><symbol id="gC0145148BC36294A1E6393678561EC4B" overflow="visible"><path d="M 0 0m 2.964 -0.143c 0.52 0 1.001 0.143 1.443 0.429c 0.169 0.117 0.247 0.208 0.247 0.273c 0 0.156 -0.065 0.234 -0.182 0.234l -0.182 -0.091c -0.481 -0.312 -0.91 -0.468 -1.3 -0.468c -0.871 0 -1.326 0.702 -1.326 1.612c 0 0.338 0.039 0.689 0.13 1.04h 2.054c 0.325 0 0.481 0.091 0.481 0.26c 0 0.156 -0.143 0.234 -0.416 0.234h -1.989c 0.351 1.157 1.053 1.729 2.106 1.729h 0.39c 0.312 0 0.468 0.091 0.468 0.26c 0 0.156 -0.143 0.234 -0.429 0.234h -0.442c -0.923 0 -1.729 -0.312 -2.405 -0.949c -0.676 -0.637 -1.001 -1.404 -1.001 -2.327c 0 -1.404 0.949 -2.47 2.353 -2.47Z "/></symbol><symbol id="g66C287F757172C4FBEE46C9B113A6E1F" overflow="visible"><path d="M 0 0m 4.6956 2.9029c 0 1.0283 -0.182 1.8109 -0.5369 2.3478c -0.2912 0.455 -0.8736 0.7917 -1.5743 0.7917c -0.2912 0 -0.5551 -0.0455 -0.7826 -0.1456c -1.001 -0.4186 -1.3286 -1.5834 -1.3286 -2.9939c 0 -0.3094 0.0182 -0.6006 0.0455 -0.8827c 0.1547 -1.1921 0.7098 -2.2022 2.0657 -2.2022c 0.2912 0 0.5551 0.0455 0.7826 0.1456c 1.001 0.4095 1.3286 1.547 1.3286 2.9393Z m -1.0374 2.0202c 0.1001 -0.3367 0.1547 -0.9646 0.1547 -1.9019c 0 -0.8918 -0.0364 -1.5197 -0.1183 -1.8928c -0.1092 -0.5369 -0.4914 -0.9828 -1.1102 -0.9828c -0.2275 0 -0.455 0.0728 -0.6643 0.2275c -0.2821 0.2093 -0.455 0.6188 -0.5278 1.2467c -0.0273 0.2093 -0.0364 0.6734 -0.0364 1.4014c 0 0.8827 0.0455 1.4924 0.1365 1.82c 0.1547 0.5824 0.5187 0.8736 1.092 0.8736c 0.546 0 0.9464 -0.3549 1.0738 -0.7917Z "/></symbol><symbol id="g2D7122AD31FABF41BED931716B883F58" overflow="visible"><path d="M 0 0m 4.134 -3.224c 0.117 0 0.182 0.065 0.182 0.182c 0 0.039 -0.026 0.091 -0.065 0.143c -0.676 0.52 -1.222 1.378 -1.625 2.561c -0.351 1.027 -0.533 2.041 -0.533 3.042v 1.092c 0 1.001 0.182 2.015 0.533 3.042c 0.403 1.183 0.949 2.041 1.625 2.561c 0.039 0.039 0.065 0.091 0.065 0.143c 0 0.117 -0.065 0.182 -0.182 0.182c -0.013 0 -0.052 -0.013 -0.091 -0.039c -0.78 -0.598 -1.43 -1.482 -1.963 -2.665c -0.507 -1.131 -0.767 -2.197 -0.767 -3.224v -1.092c 0 -1.027 0.26 -2.093 0.767 -3.224c 0.533 -1.183 1.183 -2.067 1.963 -2.665c 0.039 -0.026 0.078 -0.039 0.091 -0.039Z "/></symbol><symbol id="g8E97D087849068FDB678D73E5CECDEE2" overflow="visible"><path d="M 0 0m 5.135 4.056c 0.741 0 1.404 0.208 1.989 0.624c 0.663 0.468 0.988 1.053 0.988 1.755c 0 0.741 -0.338 1.352 -1.014 1.82c -0.598 0.416 -1.287 0.624 -2.067 0.624h -4.576v -0.507h 0.364c 0.455 0 0.728 -0.039 0.819 -0.104c 0.091 -0.065 0.143 -0.208 0.143 -0.442v -6.773c 0 -0.234 -0.052 -0.39 -0.143 -0.455c -0.091 -0.065 -0.364 -0.091 -0.819 -0.091h -0.364v -0.507c 0.338 0.026 0.988 0.039 1.937 0.039c 0.962 0 1.612 -0.013 1.95 -0.039v 0.507h -0.364c -0.455 0 -0.728 0.026 -0.819 0.091c -0.091 0.065 -0.143 0.221 -0.143 0.455v 3.003Z m -1.573 4.316h 1.144c 0.377 0 0.702 -0.052 0.975 -0.143c 0.741 -0.273 1.001 -0.819 1.001 -1.794c 0 -0.364 -0.039 -0.676 -0.13 -0.936c -0.221 -0.65 -0.923 -1.001 -1.846 -1.001h -1.729v 3.419c 0 0.468 0.078 0.455 0.585 0.455Z "/></symbol><symbol id="g5D4DFCA3C00979A1E9076032CC813B65" overflow="visible"><path d="M 0 0m 3.237 -0.143c 0.806 0 1.482 0.286 2.041 0.858c 0.559 0.572 0.845 1.261 0.845 2.067c 0 0.819 -0.273 1.534 -0.819 2.132c -0.546 0.598 -1.235 0.91 -2.054 0.91c -0.819 0 -1.495 -0.312 -2.054 -0.91c -0.559 -0.598 -0.832 -1.313 -0.832 -2.132c 0 -0.806 0.273 -1.495 0.832 -2.067c 0.559 -0.572 1.248 -0.858 2.041 -0.858Z m 0.013 0.416c -0.624 0 -1.092 0.273 -1.417 0.832c -0.208 0.364 -0.312 0.962 -0.312 1.781c 0 0.793 0.104 1.365 0.299 1.729c 0.312 0.559 0.78 0.832 1.417 0.832c 0.611 0 1.079 -0.273 1.404 -0.806c 0.221 -0.364 0.325 -0.949 0.325 -1.755c 0 -1.508 -0.442 -2.613 -1.716 -2.613Z "/></symbol><symbol id="g49CA9B429DF3D7281052206316ECCC8A" overflow="visible"><path d="M 0 0m 2.522 7.813c 0 0.39 -0.325 0.728 -0.715 0.728c -0.39 0 -0.728 -0.338 -0.728 -0.728c 0 -0.39 0.325 -0.741 0.715 -0.741c 0.403 0 0.728 0.338 0.728 0.741Z m -0.663 -7.774l 1.352 -0.039v 0.507c -0.429 0 -0.689 0.026 -0.767 0.078c -0.078 0.052 -0.104 0.195 -0.104 0.429v 4.771l -1.859 -0.156v -0.494c 0.429 0 0.702 -0.039 0.793 -0.104c 0.091 -0.065 0.13 -0.247 0.13 -0.546v -3.458c 0 -0.247 -0.039 -0.403 -0.13 -0.455c -0.091 -0.052 -0.377 -0.065 -0.845 -0.065v -0.507Z "/></symbol><symbol id="gFD7B4B4FA231C83EBA33EE1F285F6134" overflow="visible"><path d="M 0 0m 4.68 1.69c 0 0.988 -0.676 1.612 -2.015 1.872c -0.611 0.117 -1.001 0.26 -1.209 0.403c -0.208 0.143 -0.312 0.351 -0.312 0.598c 0 0.611 0.455 0.91 1.365 0.91c 0.884 0 1.365 -0.494 1.43 -1.495c 0.013 -0.104 0.078 -0.156 0.208 -0.156c 0.143 0 0.221 0.117 0.221 0.351v 1.287c 0 0.247 -0.065 0.364 -0.195 0.364c -0.143 0 -0.338 -0.234 -0.468 -0.338c -0.325 0.221 -0.728 0.338 -1.196 0.338c -1.157 0 -2.08 -0.52 -2.08 -1.625c 0 -0.442 0.182 -0.819 0.559 -1.118c 0.455 -0.377 0.884 -0.455 1.703 -0.598c 0.845 -0.169 1.274 -0.546 1.274 -1.131c 0 -0.741 -0.455 -1.118 -1.378 -1.118c -0.897 0 -1.469 0.598 -1.716 1.781c -0.039 0.169 -0.104 0.26 -0.221 0.26c -0.143 0 -0.221 -0.13 -0.221 -0.377v -1.677c 0 -0.247 0.065 -0.364 0.195 -0.364c 0.039 0 0.104 0.039 0.208 0.13c 0.234 0.208 0.13 0.169 0.364 0.403c 0.377 -0.351 0.845 -0.533 1.391 -0.533c 1.235 0 2.093 0.637 2.093 1.833Z "/></symbol><symbol id="gA2276AEFE9378953E87817A497BFC175" overflow="visible"><path d="M 0 0m 4.082 5.369c 0.585 0 0.884 -0.455 0.884 -1.378v -2.964c 0 -0.247 -0.039 -0.403 -0.13 -0.455c -0.091 -0.052 -0.377 -0.078 -0.858 -0.078v -0.494l 1.495 0.039l 1.482 -0.039v 0.494c -0.416 0 -0.689 0.013 -0.819 0.052c -0.13 0.039 -0.182 0.13 -0.182 0.286v 2.431c 0 0.611 -0.013 1.04 -0.052 1.287c -0.13 0.793 -0.715 1.196 -1.742 1.196c -0.819 0 -1.43 -0.39 -1.833 -1.17v 1.17l -1.911 -0.143v -0.494c 0.468 0 0.754 -0.039 0.858 -0.117c 0.104 -0.078 0.143 -0.247 0.143 -0.546v -3.419c 0 -0.247 -0.052 -0.403 -0.143 -0.455c -0.091 -0.052 -0.377 -0.078 -0.858 -0.078v -0.494l 1.495 0.039l 1.482 -0.039v 0.494c -0.481 0 -0.754 0.026 -0.845 0.078c -0.091 0.052 -0.143 0.208 -0.143 0.455v 2.34c 0 1.053 0.663 2.002 1.677 2.002Z "/></symbol><symbol id="g2F93E6EEEE2061842AA37F49EEA2F1A2" overflow="visible"><path d="M 0 0m 1.014 -3.185c 0.78 0.598 1.43 1.482 1.963 2.665c 0.507 1.131 0.767 2.197 0.767 3.224v 1.092c 0 1.027 -0.26 2.093 -0.767 3.224c -0.533 1.183 -1.183 2.067 -1.963 2.665c -0.039 0.026 -0.078 0.039 -0.091 0.039c -0.117 0 -0.182 -0.065 -0.182 -0.182c 0 -0.052 0.026 -0.104 0.065 -0.143c 0.676 -0.52 1.222 -1.378 1.625 -2.561c 0.351 -1.027 0.533 -2.041 0.533 -3.042v -1.092c 0 -1.001 -0.182 -2.015 -0.533 -3.042c -0.403 -1.183 -0.949 -2.041 -1.625 -2.561c -0.039 -0.052 -0.065 -0.104 -0.065 -0.143c 0 -0.117 0.065 -0.182 0.182 -0.182c 0.013 0 0.052 0.013 0.091 0.039Z "/></symbol><symbol id="gC189A0A36A47FB1CBF46D2ED82C939AF" overflow="visible"><path d="M 0 0m 3.237 -0.286c 1.833 0 2.743 1.482 2.743 4.446c 0 1.989 -0.416 3.315 -1.235 3.965c -0.455 0.351 -0.962 0.533 -1.495 0.533c -1.833 0 -2.743 -1.495 -2.743 -4.498c 0 -2.392 0.637 -4.446 2.73 -4.446Z m 1.456 7.098c 0.091 -0.455 0.13 -1.287 0.13 -2.496c 0 -1.196 -0.052 -2.08 -0.143 -2.652c -0.169 -1.04 -0.65 -1.56 -1.443 -1.56c -0.299 0 -0.598 0.117 -0.871 0.338c -0.351 0.299 -0.559 0.91 -0.65 1.846c -0.039 0.325 -0.052 1.001 -0.052 2.028c 0 1.131 0.039 1.924 0.104 2.353c 0.117 0.715 0.351 1.17 0.715 1.365c 0.286 0.156 0.533 0.234 0.754 0.234c 0.845 0 1.313 -0.689 1.456 -1.456Z "/></symbol><symbol id="g562FFBF532095A12970489C496BC60C8" overflow="visible"><path d="M 0 0m 2.99 0.962v 6.851c 0 0.169 0.013 0.273 0.039 0.338c 0.065 0.143 0.442 0.221 1.131 0.221h 0.468v 0.507c -0.338 -0.026 -1.066 -0.039 -2.197 -0.039c -1.001 0 -1.664 0.013 -2.002 0.039v -0.507h 0.364c 0.455 0 0.728 -0.039 0.819 -0.104c 0.091 -0.065 0.143 -0.208 0.143 -0.442v -6.773c 0 -0.234 -0.052 -0.39 -0.143 -0.455c -0.091 -0.065 -0.364 -0.091 -0.819 -0.091h -0.364v -0.507h 6.773l 0.364 3.419h -0.416c -0.065 -0.663 -0.182 -1.196 -0.325 -1.612c -0.286 -0.819 -1.053 -1.3 -2.21 -1.3h -1.053c -0.494 0 -0.572 0 -0.572 0.455Z "/></symbol><symbol id="g3BE14B656A783D87D3540BF1AAF22AA9" overflow="visible"><path d="M 0 0m 6.279 1.183v 0.767h -0.416v -0.767c 0 -0.507 -0.143 -0.767 -0.416 -0.767c -0.26 0 -0.416 0.325 -0.416 0.585v 2.561c 0 0.455 -0.052 0.793 -0.143 1.027c -0.312 0.767 -1.209 1.235 -2.119 1.235c -1.001 0 -1.989 -0.559 -1.989 -1.495c 0 -0.429 0.221 -0.65 0.65 -0.65c 0.429 0 0.637 0.208 0.637 0.637c 0 0.377 -0.195 0.598 -0.598 0.637c 0.286 0.325 0.715 0.494 1.274 0.494c 0.806 0 1.3 -0.741 1.3 -1.586v -0.429c -1.014 -0.065 -1.781 -0.221 -2.314 -0.468c -0.871 -0.403 -1.313 -0.962 -1.313 -1.703c 0 -0.338 0.13 -0.624 0.377 -0.845c 0.416 -0.377 0.988 -0.559 1.716 -0.559c 0.767 0 1.313 0.325 1.651 0.988c 0.091 -0.494 0.455 -0.923 1.014 -0.923c 0.689 0 1.105 0.546 1.105 1.261Z m -3.679 -0.949c -0.598 0 -1.092 0.442 -1.092 1.04c 0 1.209 1.261 1.729 2.535 1.794v -1.235c 0 -0.871 -0.572 -1.599 -1.443 -1.599Z "/></symbol><symbol id="g35A7BA3FBB03354D7A4358A466CD34D8" overflow="visible"><path d="M 0 0m 3.874 -0.169c 0.806 0 1.495 0.286 2.054 0.871c 0.559 0.585 0.845 1.274 0.845 2.093c 0 0.793 -0.26 1.469 -0.767 2.041c -0.533 0.611 -1.183 0.91 -1.963 0.91c -0.663 0 -1.235 -0.26 -1.729 -0.767v 0.767l -1.95 -0.143v -0.494c 0.481 0 0.767 -0.026 0.858 -0.091c 0.091 -0.065 0.143 -0.234 0.143 -0.507v -6.006c 0 -0.247 -0.052 -0.403 -0.143 -0.455c -0.091 -0.052 -0.377 -0.065 -0.858 -0.065v -0.507l 1.482 0.039l 1.495 -0.039v 0.507c -0.481 0 -0.754 0.013 -0.845 0.065c -0.091 0.052 -0.143 0.208 -0.143 0.455v 2.067c 0.286 -0.403 0.845 -0.741 1.521 -0.741Z m 0.078 5.486c 0.533 0 0.949 -0.299 1.274 -0.897c 0.247 -0.507 0.377 -1.04 0.377 -1.625c 0 -0.611 -0.143 -1.17 -0.429 -1.677c -0.338 -0.611 -0.793 -0.91 -1.352 -0.91c -0.546 0 -0.975 0.26 -1.3 0.767c -0.117 0.169 -0.169 0.338 -0.169 0.507v 2.847c 0.377 0.663 0.91 0.988 1.599 0.988Z "/></symbol><symbol id="gBC3D9C1A249D0D4F874E09900DF515A4" overflow="visible"><path d="M 0 0m 1.872 0.039l 1.443 -0.039v 0.507c -0.468 0 -0.754 0.013 -0.845 0.065c -0.091 0.052 -0.13 0.208 -0.13 0.455v 7.995l -1.911 -0.143v -0.494c 0.455 0 0.741 -0.039 0.832 -0.117c 0.091 -0.078 0.143 -0.26 0.143 -0.559v -6.682c 0 -0.247 -0.039 -0.403 -0.13 -0.455c -0.091 -0.052 -0.377 -0.065 -0.845 -0.065v -0.507Z "/></symbol><symbol id="g8B273DA24598714A1DE03FD5302C001A" overflow="visible"><path d="M 0 0m 3.263 5.408c 0.546 0 0.962 -0.13 1.248 -0.39c -0.312 -0.039 -0.533 -0.325 -0.533 -0.624c 0 -0.429 0.208 -0.637 0.637 -0.637c 0.429 0 0.637 0.221 0.637 0.65c 0 0.923 -1.001 1.417 -2.002 1.417c -0.806 0 -1.469 -0.286 -2.002 -0.884c -0.533 -0.598 -0.806 -1.313 -0.806 -2.132c 0 -0.793 0.273 -1.495 0.806 -2.08c 0.533 -0.585 1.183 -0.871 1.976 -0.871c 0.65 0 1.157 0.182 1.521 0.559c 0.299 0.299 0.494 0.598 0.598 0.91c 0.039 0.117 0.052 0.195 0.052 0.247c 0 0.117 -0.078 0.169 -0.221 0.169c -0.104 0 -0.169 -0.052 -0.208 -0.156c -0.273 -0.871 -0.806 -1.313 -1.625 -1.313c -0.377 0 -0.741 0.169 -1.105 0.52c -0.429 0.403 -0.637 1.079 -0.637 2.041c 0 1.3 0.494 2.574 1.664 2.574Z "/></symbol><symbol id="g7413A85D70934E3816A3D1EE8499A939" overflow="visible"><path d="M 0 0m 5.395 3.263c 0 1.495 -0.871 2.561 -2.327 2.561c -0.78 0 -1.43 -0.299 -1.963 -0.91c -0.494 -0.572 -0.741 -1.261 -0.741 -2.054c 0 -0.819 0.273 -1.508 0.819 -2.106c 0.546 -0.598 1.222 -0.897 2.028 -0.897c 0.741 0 1.313 0.26 1.703 0.767c 0.325 0.429 0.481 0.741 0.481 0.949c 0 0.13 -0.078 0.195 -0.221 0.195c -0.104 0 -0.169 -0.065 -0.208 -0.208c -0.286 -0.858 -0.845 -1.287 -1.677 -1.287c -0.585 0 -1.04 0.273 -1.391 0.832c -0.247 0.403 -0.364 1.014 -0.377 1.846h 3.51c 0.286 0 0.364 0.026 0.364 0.312Z m -1.157 1.274c 0.143 -0.429 0.208 -0.845 0.208 -1.222h -2.912c 0.039 0.858 0.26 1.443 0.65 1.742c 0.325 0.26 0.611 0.39 0.884 0.39c 0.585 0 0.975 -0.299 1.17 -0.91Z "/></symbol></defs></svg>