<svg viewBox="0 0 256.7916 20.826" width="256.7916pt" height="20.826pt" xmlns="http://www.w3.org/2000/svg" xmlns:xlink="http://www.w3.org/1999/xlink" xmlns:h5="http://www.w3.org/1999/xhtml"><g transform="matrix(1 0 0 -1 6.5 13.624)"><use xlink:href="#g2D1FD5FA7721AD843D67732819992226" x="0" y="0" fill="#e6edf3" fill-rule="nonzero"/></g><g transform="matrix(1 0 0 -1 13.702 16.835)"><use xlink:href="#g92EDD795C1990AE86A5F909996C892B5" x="0" y="0" fill="#e6edf3" fill-rule="nonzero"/></g><g transform="matrix(1 0 0 -1 19.1893 13.624)"><use xlink:href="#gEFA988DEC565252013B2D05DB9DFDA82" x="0" y="0" fill="#e6edf3" fill-rule="nonzero"/></g><g transform="matrix(1 0 0 -1 35.8033 13.624)"><use xlink:href="#gA7C36109E42D4F0EB4F28B48DBFDEDEE" x="0" y="0" fill="#e6edf3" fill-rule="nonzero"/></g><g transform="matrix(1 0 0 -1 42.8493 16.835)"><use xlink:href="#g92EDD795C1990AE86A5F909996C892B5" x="0" y="0" fill="#e6edf3" fill-rule="nonzero"/></g><g transform="matrix(1 0 0 -1 61.3366 13.624)"><use xlink:href="#g2D7122AD31FABF41BED931716B883F58" x="0" y="0" fill="#e6edf3" fill-rule="nonzero"/><use xlink:href="#g35A7BA3FBB03354D7A4358A466CD34D8" x="5.057" y="0" fill="#e6edf3" fill-rule="nonzero"/><use xlink:href="#g639DFB7C802EA1E209EC54229B0444AB" x="12.285" y="0" fill="#e6edf3" fill-rule="nonzero"/><use xlink:href="#gA2276AEFE9378953E87817A497BFC175" x="19.513" y="0" fill="#e6edf3" fill-rule="nonzero"/><use xlink:href="#gAA15FA55B6D99ABF04E317BC87D5459D" x="26.741" y="0" fill="#e6edf3" fill-rule="nonzero"/><use xlink:href="#g5D4DFCA3C00979A1E9076032CC813B65" x="31.798" y="0" fill="#e6edf3" fill-rule="nonzero"/><use xlink:href="#g8B273DA24598714A1DE03FD5302C001A" x="42.614" y="0" fill="#e6edf3" fill-rule="nonzero"/><use xlink:href="#gCCDACA59E6D598A65CF16A9645890FC7" x="48.386" y="0" fill="#e6edf3" fill-rule="nonzero"/><use xlink:href="#gC55184D0BAB0D997093EC3CCD1A02E05" x="53.482" y="0" fill="#e6edf3" fill-rule="nonzero"/><use xlink:href="#gAA15FA55B6D99ABF04E317BC87D5459D" x="57.096" y="0" fill="#e6edf3" fill-rule="nonzero"/><use xlink:href="#g49CA9B429DF3D7281052206316ECCC8A" x="62.153" y="0" fill="#e6edf3" fill-rule="nonzero"/><use xlink:href="#g8B273DA24598714A1DE03FD5302C001A" x="65.767" y="0" fill="#e6edf3" fill-rule="nonzero"/><use xlink:href="#g5D4DFCA3C00979A1E9076032CC813B65" x="71.539" y="0" fill="#e6edf3" fill-rule="nonzero"/><use xlink:href="#g9DD9BCF5A8870114033FB6C8DCF82350" x="78.039" y="0" fill="#e6edf3" fill-rule="nonzero"/><use xlink:href="#gBC3D9C1A249D0D4F874E09900DF515A4" x="85.969" y="0" fill="#e6edf3" fill-rule="nonzero"/><use xlink:href="#gC55184D0BAB0D997093EC3CCD1A02E05" x="89.583" y="0" fill="#e6edf3" fill-rule="nonzero"/><use xlink:href="#g5B7304E1A312B7A0A314BC6F385C42DD" x="93.197" y="0" fill="#e6edf3" fill-rule="nonzero"/><use xlink:href="#g49CA9B429DF3D7281052206316ECCC8A" x="104.026" y="0" fill="#e6edf3" fill-rule="nonzero"/><use xlink:href="#gAA15FA55B6D99ABF04E317BC87D5459D" x="107.64" y="0" fill="#e6edf3" fill-rule="nonzero"/><use xlink:href="#g7413A85D70934E3816A3D1EE8499A939" x="112.697" y="0" fill="#e6edf3" fill-rule="nonzero"/><use xlink:href="#gC6152AE651DB3C20E108D025AA5B86BB" x="122.785" y="0" fill="#e6edf3" fill-rule="nonzero"/><use xlink:href="#g3BE14B656A783D87D3540BF1AAF22AA9" x="129.285" y="0" fill="#e6edf3" fill-rule="nonzero"/><use xlink:href="#gFD7B4B4FA231C83EBA33EE1F285F6134" x="135.785" y="0" fill="#e6edf3" fill-rule="nonzero"/><use xlink:href="#gAD96C2EEE7EE2AE3951947EAB253D6C8" x="140.907" y="0" fill="#e6edf3" fill-rule="nonzero"/><use xlink:href="#gBC3D9C1A249D0D4F874E09900DF515A4" x="145.236" y="0" fill="#e6edf3" fill-rule="nonzero"/><use xlink:href="#gC55184D0BAB0D997093EC3CCD1A02E05" x="148.85" y="0" fill="#e6edf3" fill-rule="nonzero"/><use xlink:href="#gC8DF58A8DB74CAE1181EDCA7FCEE8A09" x="152.464" y="0" fill="#e6edf3" fill-rule="nonzero"/><use xlink:href="#g639DFB7C802EA1E209EC54229B0444AB" x="159.328" y="0" fill="#e6edf3" fill-rule="nonzero"/><use xlink:href="#g49CA9B429DF3D7281052206316ECCC8A" x="166.556" y="0" fill="#e6edf3" fill-rule="nonzero"/><use xlink:href="#gEB9B079EF07FFCCA69ED7A9B1F1ABEB" x="170.17" y="0" fill="#e6edf3" fill-rule="nonzero"/><use xlink:href="#g5D4DFCA3C00979A1E9076032CC813B65" x="177.398" y="0" fill="#e6edf3" fill-rule="nonzero"/><use xlink:href="#g2F93E6EEEE2061842AA37F49EEA2F1A2" x="183.898" y="0" fill="#e6edf3" fill-rule="nonzero"/></g><defs><symbol id="g2D1FD5FA7721AD843D67732819992226" overflow="visible"><path d="M 0 0m 4.472 8.203c 0 -0.039 -0.013 -0.13 -0.052 -0.26l -1.716 -6.864c -0.052 -0.195 -0.104 -0.312 -0.143 -0.364c -0.117 -0.143 -0.559 -0.208 -1.339 -0.208c -0.403 0 -0.585 0.039 -0.585 -0.299c 0 -0.143 0.091 -0.208 0.26 -0.208c 0.663 0 1.599 0.052 2.158 0.039l 1.066 -0.013c 0.182 0 0.897 -0.026 1.118 -0.026c 0.221 0 0.325 0.104 0.325 0.312c 0 0.13 -0.156 0.195 -0.481 0.195c -0.676 0 -1.066 0.026 -1.183 0.091c -0.039 0.026 -0.065 0.078 -0.065 0.156l 1.755 7.085c 0.039 0.182 0.078 0.299 0.117 0.338c 0.052 0.078 0.364 0.117 0.936 0.117c 0.715 0 1.209 -0.052 1.456 -0.169c 0.247 -0.117 0.377 -0.39 0.377 -0.832c 0 -0.234 -0.039 -0.572 -0.104 -1.014c -0.026 -0.104 -0.039 -0.182 -0.039 -0.247c 0 -0.143 0.065 -0.221 0.208 -0.221c 0.117 0 0.195 0.117 0.234 0.338l 0.351 2.236c 0.013 0.065 0.026 0.143 0.026 0.221c 0 0.13 -0.13 0.195 -0.403 0.195h -7.124c -0.338 0 -0.364 -0.039 -0.468 -0.286l -0.767 -2.262c -0.039 -0.117 -0.065 -0.195 -0.078 -0.247c 0 -0.13 0.065 -0.195 0.208 -0.195c 0.104 0 0.195 0.104 0.26 0.299c 0.325 0.949 0.65 1.534 0.949 1.781c 0.338 0.273 0.988 0.403 1.937 0.403h 0.507c 0.143 0 0.299 0.013 0.299 -0.091Z "/></symbol><symbol id="g92EDD795C1990AE86A5F909996C892B5" overflow="visible"><path d="M 0 0m 4.3134 1.1466c -0.0546 0 -0.1092 -0.0364 -0.1638 -0.1092c -0.4641 -0.5369 -1.092 -0.8099 -1.8746 -0.8099c -0.6006 0 -0.9009 0.3185 -0.9009 0.9646c 0 0.6188 0.3003 1.456 0.5824 1.82c 0.3458 0.455 0.7553 0.6825 1.2285 0.6825c 0.3185 0 0.546 -0.0728 0.7007 -0.2184c -0.2821 -0.0637 -0.4186 -0.2366 -0.4186 -0.5187c 0 -0.2457 0.1274 -0.364 0.3822 -0.364c 0.3367 0 0.546 0.273 0.546 0.6097c 0 0.5733 -0.5824 0.8099 -1.2103 0.8099c -0.6643 0 -1.274 -0.2457 -1.8109 -0.7553c -0.5369 -0.5096 -0.8099 -1.092 -0.8099 -1.7563c 0 -0.9555 0.7371 -1.5925 1.6926 -1.5925c 0.5642 0 1.0465 0.1092 1.4469 0.3276c 0.2093 0.1183 0.8008 0.5005 0.8008 0.7189c 0 0.0819 -0.1092 0.1911 -0.1911 0.1911Z "/></symbol><symbol id="gEFA988DEC565252013B2D05DB9DFDA82" overflow="visible"><path d="M 0 0m 1.807 1.378c -0.416 0 -0.689 -0.312 -0.689 -0.728c 0 -0.39 0.299 -0.715 0.689 -0.715c 0.182 0 0.338 0.052 0.455 0.169l 0.013 -0.104c 0 -0.819 -0.273 -1.521 -0.819 -2.08c -0.091 -0.104 -0.143 -0.182 -0.143 -0.234c 0 -0.13 0.052 -0.195 0.169 -0.195c 0.117 0 0.273 0.156 0.494 0.455c 0.442 0.624 0.663 1.313 0.663 2.054c 0 0.689 -0.234 1.378 -0.832 1.378Z "/></symbol><symbol id="gA7C36109E42D4F0EB4F28B48DBFDEDEE" overflow="visible"><path d="M 0 0m 7.215 8.879h -4.16c -0.299 0 -0.442 -0.013 -0.442 -0.299c 0 -0.143 0.143 -0.208 0.429 -0.208c 0.26 0 0.78 0.039 0.78 -0.169c 0 -0.026 -0.013 -0.104 -0.052 -0.234l -1.716 -6.903c -0.078 -0.286 -0.208 -0.455 -0.39 -0.52c -0.091 -0.026 -0.325 -0.039 -0.728 -0.039c -0.286 0 -0.416 -0.026 -0.416 -0.299c 0 -0.143 0.078 -0.208 0.247 -0.208l 1.625 0.039l 0.832 -0.013c 0.143 0 0.663 -0.026 0.832 -0.026c 0.208 0 0.312 0.104 0.312 0.312c 0 0.13 -0.143 0.195 -0.416 0.195c -0.52 0 -0.78 0.052 -0.78 0.169c 0 0 0.013 0.039 0.039 0.208l 0.78 3.172h 2.145c 0.845 0 1.651 0.26 2.405 0.767c 0.845 0.559 1.261 1.248 1.261 2.067c 0 1.287 -1.222 1.989 -2.587 1.989Z m -0.403 -0.507c 1.131 0 1.69 -0.39 1.69 -1.17c 0 -0.728 -0.364 -1.703 -0.741 -2.041c -0.494 -0.442 -1.144 -0.663 -1.95 -0.663h -1.742l 0.858 3.432c 0.104 0.442 0.104 0.442 0.65 0.442Z "/></symbol><symbol id="g2D7122AD31FABF41BED931716B883F58" overflow="visible"><path d="M 0 0m 4.134 -3.224c 0.117 0 0.182 0.065 0.182 0.182c 0 0.039 -0.026 0.091 -0.065 0.143c -0.676 0.52 -1.222 1.378 -1.625 2.561c -0.351 1.027 -0.533 2.041 -0.533 3.042v 1.092c 0 1.001 0.182 2.015 0.533 3.042c 0.403 1.183 0.949 2.041 1.625 2.561c 0.039 0.039 0.065 0.091 0.065 0.143c 0 0.117 -0.065 0.182 -0.182 0.182c -0.013 0 -0.052 -0.013 -0.091 -0.039c -0.78 -0.598 -1.43 -1.482 -1.963 -2.665c -0.507 -1.131 -0.767 -2.197 -0.767 -3.224v -1.092c 0 -1.027 0.26 -2.093 0.767 -3.224c 0.533 -1.183 1.183 -2.067 1.963 -2.665c 0.039 -0.026 0.078 -0.039 0.091 -0.039Z "/></symbol><symbol id="g35A7BA3FBB03354D7A4358A466CD34D8" overflow="visible"><path d="M 0 0m 3.874 -0.169c 0.806 0 1.495 0.286 2.054 0.871c 0.559 0.585 0.845 1.274 0.845 2.093c 0 0.793 -0.26 1.469 -0.767 2.041c -0.533 0.611 -1.183 0.91 -1.963 0.91c -0.663 0 -1.235 -0.26 -1.729 -0.767v 0.767l -1.95 -0.143v -0.494c 0.481 0 0.767 -0.026 0.858 -0.091c 0.091 -0.065 0.143 -0.234 0.143 -0.507v -6.006c 0 -0.247 -0.052 -0.403 -0.143 -0.455c -0.091 -0.052 -0.377 -0.065 -0.858 -0.065v -0.507l 1.482 0.039l 1.495 -0.039v 0.507c -0.481 0 -0.754 0.013 -0.845 0.065c -0.091 0.052 -0.143 0.208 -0.143 0.455v 2.067c 0.286 -0.403 0.845 -0.741 1.521 -0.741Z m 0.078 5.486c 0.533 0 0.949 -0.299 1.274 -0.897c 0.247 -0.507 0.377 -1.04 0.377 -1.625c 0 -0.611 -0.143 -1.17 -0.429 -1.677c -0.338 -0.611 -0.793 -0.91 -1.352 -0.91c -0.546 0 -0.975 0.26 -1.3 0.767c -0.117 0.169 -0.169 0.338 -0.169 0.507v 2.847c 0.377 0.663 0.91 0.988 1.599 0.988Z "/></symbol><symbol id="g639DFB7C802EA1E209EC54229B0444AB" overflow="visible"><path d="M 0 0m 3.471 0.234c -0.897 0 -1.066 0.377 -1.066 1.222v 4.29l -1.989 -0.143v -0.494c 0.507 0 0.806 -0.052 0.884 -0.143c 0.078 -0.091 0.117 -0.416 0.117 -0.988v -1.911c 0 -0.507 0.039 -0.897 0.13 -1.196c 0.195 -0.676 0.91 -1.014 1.859 -1.014c 0.702 0 1.235 0.325 1.599 0.988v -0.988l 1.95 0.143v 0.494c -0.468 0 -0.741 0.026 -0.845 0.104c -0.104 0.078 -0.156 0.26 -0.156 0.559v 4.589l -1.976 -0.143v -0.494c 0.455 0 0.728 -0.039 0.832 -0.117c 0.104 -0.078 0.156 -0.247 0.156 -0.546v -2.275c 0 -1.027 -0.546 -1.937 -1.495 -1.937Z "/></symbol><symbol id="gA2276AEFE9378953E87817A497BFC175" overflow="visible"><path d="M 0 0m 4.082 5.369c 0.585 0 0.884 -0.455 0.884 -1.378v -2.964c 0 -0.247 -0.039 -0.403 -0.13 -0.455c -0.091 -0.052 -0.377 -0.078 -0.858 -0.078v -0.494l 1.495 0.039l 1.482 -0.039v 0.494c -0.416 0 -0.689 0.013 -0.819 0.052c -0.13 0.039 -0.182 0.13 -0.182 0.286v 2.431c 0 0.611 -0.013 1.04 -0.052 1.287c -0.13 0.793 -0.715 1.196 -1.742 1.196c -0.819 0 -1.43 -0.39 -1.833 -1.17v 1.17l -1.911 -0.143v -0.494c 0.468 0 0.754 -0.039 0.858 -0.117c 0.104 -0.078 0.143 -0.247 0.143 -0.546v -3.419c 0 -0.247 -0.052 -0.403 -0.143 -0.455c -0.091 -0.052 -0.377 -0.078 -0.858 -0.078v -0.494l 1.495 0.039l 1.482 -0.039v 0.494c -0.481 0 -0.754 0.026 -0.845 0.078c -0.091 0.052 -0.143 0.208 -0.143 0.455v 2.34c 0 1.053 0.663 2.002 1.677 2.002Z "/></symbol><symbol id="gAA15FA55B6D99ABF04E317BC87D5459D" overflow="visible"><path d="M 0 0m 4.316 1.638v 0.78h -0.416v -0.754c 0 -0.65 -0.234 -1.378 -0.806 -1.378c -0.533 0 -0.793 0.442 -0.793 1.326v 3.523h 1.807v 0.494h -1.807v 2.366h -0.416c -0.013 -0.429 -0.052 -0.806 -0.143 -1.144c -0.221 -0.858 -0.728 -1.3 -1.495 -1.339v -0.377h 1.079v -3.497c 0 -0.767 0.234 -1.261 0.689 -1.508c 0.351 -0.182 0.676 -0.273 1.001 -0.273c 0.858 0 1.3 0.858 1.3 1.781Z "/></symbol><symbol id="g5D4DFCA3C00979A1E9076032CC813B65" overflow="visible"><path d="M 0 0m 3.237 -0.143c 0.806 0 1.482 0.286 2.041 0.858c 0.559 0.572 0.845 1.261 0.845 2.067c 0 0.819 -0.273 1.534 -0.819 2.132c -0.546 0.598 -1.235 0.91 -2.054 0.91c -0.819 0 -1.495 -0.312 -2.054 -0.91c -0.559 -0.598 -0.832 -1.313 -0.832 -2.132c 0 -0.806 0.273 -1.495 0.832 -2.067c 0.559 -0.572 1.248 -0.858 2.041 -0.858Z m 0.013 0.416c -0.624 0 -1.092 0.273 -1.417 0.832c -0.208 0.364 -0.312 0.962 -0.312 1.781c 0 0.793 0.104 1.365 0.299 1.729c 0.312 0.559 0.78 0.832 1.417 0.832c 0.611 0 1.079 -0.273 1.404 -0.806c 0.221 -0.364 0.325 -0.949 0.325 -1.755c 0 -1.508 -0.442 -2.613 -1.716 -2.613Z "/></symbol><symbol id="g8B273DA24598714A1DE03FD5302C001A" overflow="visible"><path d="M 0 0m 3.263 5.408c 0.546 0 0.962 -0.13 1.248 -0.39c -0.312 -0.039 -0.533 -0.325 -0.533 -0.624c 0 -0.429 0.208 -0.637 0.637 -0.637c 0.429 0 0.637 0.221 0.637 0.65c 0 0.923 -1.001 1.417 -2.002 1.417c -0.806 0 -1.469 -0.286 -2.002 -0.884c -0.533 -0.598 -0.806 -1.313 -0.806 -2.132c 0 -0.793 0.273 -1.495 0.806 -2.08c 0.533 -0.585 1.183 -0.871 1.976 -0.871c 0.65 0 1.157 0.182 1.521 0.559c 0.299 0.299 0.494 0.598 0.598 0.91c 0.039 0.117 0.052 0.195 0.052 0.247c 0 0.117 -0.078 0.169 -0.221 0.169c -0.104 0 -0.169 -0.052 -0.208 -0.156c -0.273 -0.871 -0.806 -1.313 -1.625 -1.313c -0.377 0 -0.741 0.169 -1.105 0.52c -0.429 0.403 -0.637 1.079 -0.637 2.041c 0 1.3 0.494 2.574 1.664 2.574Z "/></symbol><symbol id="gCCDACA59E6D598A65CF16A9645890FC7" overflow="visible"><path d="M 0 0m 4.732 4.914c 0 0.507 -0.481 0.832 -0.988 0.832c -0.663 0 -1.17 -0.39 -1.508 -1.183v 1.183l -1.872 -0.143v -0.494c 0.455 0 0.728 -0.039 0.832 -0.117c 0.104 -0.078 0.156 -0.247 0.156 -0.546v -3.419c 0 -0.247 -0.039 -0.403 -0.13 -0.455c -0.091 -0.052 -0.377 -0.078 -0.858 -0.078v -0.494l 1.495 0.039c 0.546 0.013 1.105 0 1.664 -0.039v 0.494h -0.312c -0.429 0 -0.702 0.039 -0.793 0.104c -0.091 0.065 -0.13 0.221 -0.13 0.455v 1.963c 0 0.559 0.104 1.066 0.299 1.495c 0.26 0.559 0.637 0.845 1.144 0.858c -0.13 -0.13 -0.195 -0.286 -0.195 -0.468c 0 -0.403 0.195 -0.598 0.598 -0.598c 0.351 0 0.598 0.273 0.598 0.611Z "/></symbol><symbol id="gC55184D0BAB0D997093EC3CCD1A02E05" overflow="visible"><path d="M 0 0m 2.912 9.074c -0.156 0 -0.299 -0.078 -0.416 -0.234l -1.534 -2.002l 0.273 -0.299l 1.95 1.599c 0.156 0.117 0.234 0.26 0.234 0.416c 0 0.273 -0.247 0.52 -0.507 0.52Z m -1.053 -9.035l 1.365 -0.039v 0.507c -0.442 0 -0.702 0.026 -0.78 0.078c -0.078 0.052 -0.104 0.195 -0.104 0.429v 4.771l -1.859 -0.143v -0.507c 0.429 0 0.702 -0.026 0.793 -0.091c 0.091 -0.065 0.13 -0.26 0.13 -0.559v -3.458c 0 -0.247 -0.039 -0.403 -0.13 -0.455c -0.091 -0.052 -0.377 -0.065 -0.845 -0.065v -0.507Z "/></symbol><symbol id="g49CA9B429DF3D7281052206316ECCC8A" overflow="visible"><path d="M 0 0m 2.522 7.813c 0 0.39 -0.325 0.728 -0.715 0.728c -0.39 0 -0.728 -0.338 -0.728 -0.728c 0 -0.39 0.325 -0.741 0.715 -0.741c 0.403 0 0.728 0.338 0.728 0.741Z m -0.663 -7.774l 1.352 -0.039v 0.507c -0.429 0 -0.689 0.026 -0.767 0.078c -0.078 0.052 -0.104 0.195 -0.104 0.429v 4.771l -1.859 -0.156v -0.494c 0.429 0 0.702 -0.039 0.793 -0.104c 0.091 -0.065 0.13 -0.247 0.13 -0.546v -3.458c 0 -0.247 -0.039 -0.403 -0.13 -0.455c -0.091 -0.052 -0.377 -0.065 -0.845 -0.065v -0.507Z "/></symbol><symbol id="g9DD9BCF5A8870114033FB6C8DCF82350" overflow="visible"><path d="M 0 0m 2.496 4.875c 0 0.39 -0.299 0.728 -0.689 0.728c -0.39 0 -0.689 -0.338 -0.689 -0.728c 0 -0.39 0.299 -0.728 0.689 -0.728c 0.39 0 0.689 0.338 0.689 0.728Z m 0 -4.147c 0 0.39 -0.299 0.728 -0.689 0.728c -0.39 0 -0.689 -0.338 -0.689 -0.728c 0 -0.39 0.299 -0.728 0.689 -0.728c 0.39 0 0.689 0.338 0.689 0.728Z "/></symbol><symbol id="gBC3D9C1A249D0D4F874E09900DF515A4" overflow="visible"><path d="M 0 0m 1.872 0.039l 1.443 -0.039v 0.507c -0.468 0 -0.754 0.013 -0.845 0.065c -0.091 0.052 -0.13 0.208 -0.13 0.455v 7.995l -1.911 -0.143v -0.494c 0.455 0 0.741 -0.039 0.832 -0.117c 0.091 -0.078 0.143 -0.26 0.143 -0.559v -6.682c 0 -0.247 -0.039 -0.403 -0.13 -0.455c -0.091 -0.052 -0.377 -0.065 -0.845 -0.065v -0.507Z "/></symbol><symbol id="g5B7304E1A312B7A0A314BC6F385C42DD" overflow="visible"><path d="M 0 0m 4.095 5.369c 0.598 0 0.897 -0.455 0.897 -1.378v -2.964c 0 -0.247 -0.039 -0.403 -0.13 -0.455c -0.091 -0.052 -0.39 -0.078 -0.871 -0.078v -0.494l 1.508 0.039l 1.495 -0.039v 0.494c -0.481 0 -0.767 0.026 -0.858 0.078c -0.091 0.052 -0.143 0.208 -0.143 0.455v 2.34c 0 1.04 0.676 2.002 1.677 2.002c 0.611 0 0.91 -0.455 0.91 -1.378v -2.964c 0 -0.247 -0.052 -0.403 -0.143 -0.455c -0.091 -0.052 -0.39 -0.078 -0.871 -0.078v -0.494l 1.508 0.039l 1.495 -0.039v 0.494c -0.416 0 -0.689 0.013 -0.819 0.052c -0.13 0.039 -0.182 0.13 -0.182 0.286v 2.431c 0 0.611 -0.026 1.04 -0.065 1.287c -0.13 0.793 -0.715 1.196 -1.742 1.196c -0.819 0 -1.43 -0.377 -1.846 -1.144c -0.182 0.767 -0.754 1.144 -1.729 1.144c -0.819 0 -1.443 -0.39 -1.859 -1.17v 1.17l -1.911 -0.143v -0.494c 0.468 0 0.754 -0.039 0.858 -0.117c 0.104 -0.078 0.143 -0.247 0.143 -0.546v -3.419c 0 -0.247 -0.052 -0.403 -0.143 -0.455c -0.091 -0.052 -0.377 -0.078 -0.858 -0.078v -0.494l 1.508 0.039l 1.495 -0.039v 0.494c -0.481 0 -0.78 0.026 -0.871 0.078c -0.091 0.052 -0.143 0.208 -0.143 0.455v 2.34c 0 1.053 0.689 2.002 1.69 2.002Z "/></symbol><symbol id="g7413A85D70934E3816A3D1EE8499A939" overflow="visible"><path d="M 0 0m 5.395 3.263c 0 1.495 -0.871 2.561 -2.327 2.561c -0.78 0 -1.43 -0.299 -1.963 -0.91c -0.494 -0.572 -0.741 -1.261 -0.741 -2.054c 0 -0.819 0.273 -1.508 0.819 -2.106c 0.546 -0.598 1.222 -0.897 2.028 -0.897c 0.741 0 1.313 0.26 1.703 0.767c 0.325 0.429 0.481 0.741 0.481 0.949c 0 0.13 -0.078 0.195 -0.221 0.195c -0.104 0 -0.169 -0.065 -0.208 -0.208c -0.286 -0.858 -0.845 -1.287 -1.677 -1.287c -0.585 0 -1.04 0.273 -1.391 0.832c -0.247 0.403 -0.364 1.014 -0.377 1.846h 3.51c 0.286 0 0.364 0.026 0.364 0.312Z m -1.157 1.274c 0.143 -0.429 0.208 -0.845 0.208 -1.222h -2.912c 0.039 0.858 0.26 1.443 0.65 1.742c 0.325 0.26 0.611 0.39 0.884 0.39c 0.585 0 0.975 -0.299 1.17 -0.91Z "/></symbol><symbol id="gC6152AE651DB3C20E108D025AA5B86BB" overflow="visible"><path d="M 0 0m 5.603 5.889c -0.494 0 -0.949 -0.195 -1.365 -0.585c -0.39 0.299 -0.832 0.442 -1.339 0.442c -1.118 0 -2.132 -0.832 -2.132 -1.924c 0 -0.546 0.195 -0.988 0.585 -1.326c -0.247 -0.312 -0.377 -0.663 -0.377 -1.066c 0 -0.494 0.169 -0.871 0.494 -1.118c -0.546 -0.182 -1.105 -0.65 -1.105 -1.313c 0 -0.559 0.364 -1.001 1.079 -1.313c 0.546 -0.247 1.144 -0.364 1.794 -0.364c 0.663 0 1.274 0.117 1.82 0.364c 0.715 0.312 1.066 0.754 1.066 1.339c 0 0.689 -0.286 1.196 -0.858 1.521c -0.598 0.325 -1.261 0.364 -2.223 0.364c -0.572 0 -0.884 0 -0.949 0.013c -0.364 0.052 -0.624 0.403 -0.624 0.806c 0 0.195 0.052 0.377 0.169 0.533c 0.364 -0.247 0.78 -0.377 1.261 -0.377c 1.118 0 2.119 0.832 2.119 1.924c 0 0.507 -0.169 0.923 -0.507 1.248c 0.325 0.299 0.676 0.442 1.053 0.442c -0.065 -0.065 -0.104 -0.169 -0.104 -0.299c 0 -0.286 0.143 -0.429 0.429 -0.429c 0.273 0 0.416 0.143 0.416 0.442c 0 0.403 -0.312 0.676 -0.702 0.676Z m -2.704 -0.546c 0.702 0 1.053 -0.507 1.053 -1.521c 0 -1.027 -0.351 -1.547 -1.053 -1.547c -0.715 0 -1.066 0.507 -1.066 1.534c 0 1.027 0.351 1.534 1.066 1.534Z m -0.767 -5.291h 0.754c 0.676 0 1.222 -0.039 1.638 -0.13c 0.559 -0.117 0.832 -0.429 0.832 -0.923c 0 -0.416 -0.26 -0.741 -0.78 -0.988c -0.403 -0.195 -0.845 -0.286 -1.326 -0.286c -0.468 0 -0.91 0.091 -1.326 0.286c -0.533 0.247 -0.793 0.572 -0.793 0.988c 0 0.546 0.468 1.053 1.001 1.053Z "/></symbol><symbol id="g3BE14B656A783D87D3540BF1AAF22AA9" overflow="visible"><path d="M 0 0m 6.279 1.183v 0.767h -0.416v -0.767c 0 -0.507 -0.143 -0.767 -0.416 -0.767c -0.26 0 -0.416 0.325 -0.416 0.585v 2.561c 0 0.455 -0.052 0.793 -0.143 1.027c -0.312 0.767 -1.209 1.235 -2.119 1.235c -1.001 0 -1.989 -0.559 -1.989 -1.495c 0 -0.429 0.221 -0.65 0.65 -0.65c 0.429 0 0.637 0.208 0.637 0.637c 0 0.377 -0.195 0.598 -0.598 0.637c 0.286 0.325 0.715 0.494 1.274 0.494c 0.806 0 1.3 -0.741 1.3 -1.586v -0.429c -1.014 -0.065 -1.781 -0.221 -2.314 -0.468c -0.871 -0.403 -1.313 -0.962 -1.313 -1.703c 0 -0.338 0.13 -0.624 0.377 -0.845c 0.416 -0.377 0.988 -0.559 1.716 -0.559c 0.767 0 1.313 0.325 1.651 0.988c 0.091 -0.494 0.455 -0.923 1.014 -0.923c 0.689 0 1.105 0.546 1.105 1.261Z m -3.679 -0.949c -0.598 0 -1.092 0.442 -1.092 1.04c 0 1.209 1.261 1.729 2.535 1.794v -1.235c 0 -0.871 -0.572 -1.599 -1.443 -1.599Z "/></symbol><symbol id="gFD7B4B4FA231C83EBA33EE1F285F6134" overflow="visible"><path d="M 0 0m 4.68 1.69c 0 0.988 -0.676 1.612 -2.015 1.872c -0.611 0.117 -1.001 0.26 -1.209 0.403c -0.208 0.143 -0.312 0.351 -0.312 0.598c 0 0.611 0.455 0.91 1.365 0.91c 0.884 0 1.365 -0.494 1.43 -1.495c 0.013 -0.104 0.078 -0.156 0.208 -0.156c 0.143 0 0.221 0.117 0.221 0.351v 1.287c 0 0.247 -0.065 0.364 -0.195 0.364c -0.143 0 -0.338 -0.234 -0.468 -0.338c -0.325 0.221 -0.728 0.338 -1.196 0.338c -1.157 0 -2.08 -0.52 -2.08 -1.625c 0 -0.442 0.182 -0.819 0.559 -1.118c 0.455 -0.377 0.884 -0.455 1.703 -0.598c 0.845 -0.169 1.274 -0.546 1.274 -1.131c 0 -0.741 -0.455 -1.118 -1.378 -1.118c -0.897 0 -1.469 0.598 -1.716 1.781c -0.039 0.169 -0.104 0.26 -0.221 0.26c -0.143 0 -0.221 -0.13 -0.221 -0.377v -1.677c 0 -0.247 0.065 -0.364 0.195 -0.364c 0.039 0 0.104 0.039 0.208 0.13c 0.234 0.208 0.13 0.169 0.364 0.403c 0.377 -0.351 0.845 -0.533 1.391 -0.533c 1.235 0 2.093 0.637 2.093 1.833Z "/></symbol><symbol id="gAD96C2EEE7EE2AE3951947EAB253D6C8" overflow="visible"><path d="M 0 0m 0.143 2.431h 3.445v 0.754h -3.445Z "/></symbol><symbol id="gC8DF58A8DB74CAE1181EDCA7FCEE8A09" overflow="visible"><path d="M 0 0m 3.315 5.746c -0.806 0 -1.482 -0.299 -2.041 -0.884c -0.559 -0.585 -0.832 -1.274 -0.832 -2.08c 0 -0.793 0.273 -1.482 0.806 -2.067c 0.533 -0.585 1.183 -0.884 1.976 -0.884c 0.637 0 1.183 0.273 1.638 0.832v -2.158c 0 -0.247 -0.039 -0.403 -0.13 -0.455c -0.091 -0.052 -0.377 -0.065 -0.858 -0.065v -0.507l 1.482 0.039l 1.495 -0.039v 0.507c -0.481 0 -0.767 0.013 -0.858 0.065c -0.091 0.052 -0.143 0.208 -0.143 0.455v 7.241h -0.364l -0.455 -1.092c -0.299 0.559 -0.871 1.092 -1.716 1.092Z m -0.052 -5.538c -0.533 0 -0.962 0.312 -1.274 0.936c -0.247 0.494 -0.377 1.04 -0.377 1.638c 0 0.611 0.143 1.157 0.429 1.651c 0.338 0.585 0.793 0.884 1.352 0.884c 0.845 0 1.508 -0.871 1.508 -1.742v -1.807c 0 -0.793 -0.858 -1.56 -1.638 -1.56Z "/></symbol><symbol id="gEB9B079EF07FFCCA69ED7A9B1F1ABEB" overflow="visible"><path d="M 0 0m 4.862 -0.143l 1.989 0.143v 0.494c -0.468 0 -0.741 0.026 -0.845 0.104c -0.104 0.078 -0.156 0.273 -0.156 0.572v 7.852l -1.937 -0.143v -0.494c 0.455 0 0.741 -0.039 0.845 -0.117c 0.104 -0.078 0.143 -0.26 0.143 -0.559v -2.639c -0.416 0.481 -0.936 0.715 -1.56 0.715c -0.806 0 -1.495 -0.286 -2.054 -0.871c -0.559 -0.585 -0.845 -1.287 -0.845 -2.106c 0 -0.793 0.26 -1.482 0.793 -2.067c 0.533 -0.585 1.183 -0.884 1.976 -0.884c 0.663 0 1.222 0.247 1.651 0.754Z m -1.469 5.538c 0.559 0 1.014 -0.247 1.339 -0.741c 0.091 -0.143 0.13 -0.286 0.13 -0.455v -2.626c 0 -0.169 -0.039 -0.312 -0.13 -0.455c -0.364 -0.585 -0.858 -0.871 -1.469 -0.871c -0.533 0 -0.962 0.26 -1.3 0.793c -0.234 0.39 -0.351 0.975 -0.351 1.755c 0 1.417 0.481 2.6 1.781 2.6Z "/></symbol><symbol id="g2F93E6EEEE2061842AA37F49EEA2F1A2" overflow="visible"><path d="M 0 0m 1.014 -3.185c 0.78 0.598 1.43 1.482 1.963 2.665c 0.507 1.131 0.767 2.197 0.767 3.224v 1.092c 0 1.027 -0.26 2.093 -0.767 3.224c -0.533 1.183 -1.183 2.067 -1.963 2.665c -0.039 0.026 -0.078 0.039 -0.091 0.039c -0.117 0 -0.182 -0.065 -0.182 -0.182c 0 -0.052 0.026 -0.104 0.065 -0.143c 0.676 -0.52 1.222 -1.378 1.625 -2.561c 0.351 -1.027 0.533 -2.041 0.533 -3.042v -1.092c 0 -1.001 -0.182 -2.015 -0.533 -3.042c -0.403 -1.183 -0.949 -2.041 -1.625 -2.561c -0.039 -0.052 -0.065 -0.104 -0.065 -0.143c 0 -0.117 0.065 -0.182 0.182 -0.182c 0.013 0 0.052 0.013 0.091 0.039Z "/></symbol></defs></svg>