<svg viewBox="0 0 318.709444444 20.748" width="318.709444444pt" height="20.748pt" xmlns="http://www.w3.org/2000/svg" xmlns:xlink="http://www.w3.org/1999/xlink" xmlns:h5="http://www.w3.org/1999/xhtml"><g transform="matrix(1 0 0 -1 6.5 13.624)"><use xlink:href="#g1EC01C5368D684131831F3BFC5D2F1C1" x="0" y="0" fill="#e6edf3" fill-rule="nonzero"/></g><g transform="matrix(1 0 0 -1 17.329 13.624)"><use xlink:href="#g2D1FD5FA7721AD843D67732819992226" x="0" y="0" fill="#e6edf3" fill-rule="nonzero"/></g><g transform="matrix(1 0 0 -1 30.456111111 13.624)"><use xlink:href="#g3CDB071E19D0E5A44EA9C23D26C7531F" x="0" y="0" fill="#e6edf3" fill-rule="nonzero"/></g><g transform="matrix(1 0 0 -1 44.181222222 13.624)"><use xlink:href="#gC189A0A36A47FB1CBF46D2ED82C939AF" x="0" y="0" fill="#e6edf3" fill-rule="nonzero"/></g><g transform="matrix(1 0 0 -1 54.997222222 13.624)"><use xlink:href="#g7413A85D70934E3816A3D1EE8499A939" x="8.632" y="0" fill="#e6edf3" fill-rule="nonzero"/><use xlink:href="#gA2276AEFE9378953E87817A497BFC175" x="14.404" y="0" fill="#e6edf3" fill-rule="nonzero"/><use xlink:href="#gBC3D9C1A249D0D4F874E09900DF515A4" x="25.948" y="0" fill="#e6edf3" fill-rule="nonzero"/><use xlink:href="#g3BE14B656A783D87D3540BF1AAF22AA9" x="29.562" y="0" fill="#e6edf3" fill-rule="nonzero"/><use xlink:href="#g7413A85D70934E3816A3D1EE8499A939" x="40.378" y="0" fill="#e6edf3" fill-rule="nonzero"/><use xlink:href="#gFCB94C35A6936272B966DC9E5D65B3F4" x="46.15" y="0" fill="#e6edf3" fill-rule="nonzero"/><use xlink:href="#g35A7BA3FBB03354D7A4358A466CD34D8" x="53.014" y="0" fill="#e6edf3" fill-rule="nonzero"/><use xlink:href="#g3BE14B656A783D87D3540BF1AAF22AA9" x="60.242" y="0" fill="#e6edf3" fill-rule="nonzero"/><use xlink:href="#gA2276AEFE9378953E87817A497BFC175" x="66.742" y="0" fill="#e6edf3" fill-rule="nonzero"/><use xlink:href="#gFD7B4B4FA231C83EBA33EE1F285F6134" x="73.97" y="0" fill="#e6edf3" fill-rule="nonzero"/><use xlink:href="#g49CA9B429DF3D7281052206316ECCC8A" x="79.092" y="0" fill="#e6edf3" fill-rule="nonzero"/><use xlink:href="#g66E488693FE2CB4E6A901EA1738CF831" x="82.706" y="0" fill="#e6edf3" fill-rule="nonzero"/><use xlink:href="#gA2276AEFE9378953E87817A497BFC175" x="89.206" y="0" fill="#e6edf3" fill-rule="nonzero"/><use xlink:href="#g628A0372C9050428EB68955165BB9D3" x="100.75" y="0" fill="#e6edf3" fill-rule="nonzero"/><use xlink:href="#g5D4DFCA3C00979A1E9076032CC813B65" x="107.432" y="0" fill="#e6edf3" fill-rule="nonzero"/><use xlink:href="#g639DFB7C802EA1E209EC54229B0444AB" x="113.932" y="0" fill="#e6edf3" fill-rule="nonzero"/><use xlink:href="#gBC3D9C1A249D0D4F874E09900DF515A4" x="121.16" y="0" fill="#e6edf3" fill-rule="nonzero"/><use xlink:href="#g7413A85D70934E3816A3D1EE8499A939" x="124.774" y="0" fill="#e6edf3" fill-rule="nonzero"/><use xlink:href="#gAD96C2EEE7EE2AE3951947EAB253D6C8" x="130.546" y="0" fill="#e6edf3" fill-rule="nonzero"/><use xlink:href="#g979B9011594C4250B89F84E36A994F42" x="134.875" y="0" fill="#e6edf3" fill-rule="nonzero"/><use xlink:href="#g141C31A975BF6B05490A1C6DCA7DD2E9" x="144.261" y="0" fill="#e6edf3" fill-rule="nonzero"/><use xlink:href="#g5D4DFCA3C00979A1E9076032CC813B65" x="151.489" y="0" fill="#e6edf3" fill-rule="nonzero"/><use xlink:href="#g5B7304E1A312B7A0A314BC6F385C42DD" x="157.989" y="0" fill="#e6edf3" fill-rule="nonzero"/><use xlink:href="#gFD7B4B4FA231C83EBA33EE1F285F6134" x="168.818" y="0" fill="#e6edf3" fill-rule="nonzero"/><use xlink:href="#g5D4DFCA3C00979A1E9076032CC813B65" x="173.94" y="0" fill="#e6edf3" fill-rule="nonzero"/><use xlink:href="#gA2276AEFE9378953E87817A497BFC175" x="180.44" y="0" fill="#e6edf3" fill-rule="nonzero"/><use xlink:href="#g2D7122AD31FABF41BED931716B883F58" x="191.984" y="0" fill="#e6edf3" fill-rule="nonzero"/></g><g transform="matrix(1 0 0 -1 256.354222222 13.624)"><use xlink:href="#g1EC01C5368D684131831F3BFC5D2F1C1" x="0" y="0" fill="#e6edf3" fill-rule="nonzero"/></g><g transform="matrix(1 0 0 -1 267.183222222 13.624)"><use xlink:href="#g128BC29E509AAF6EF62444E10CCC5730" x="0" y="0" fill="#e6edf3" fill-rule="nonzero"/></g><g transform="matrix(1 0 0 -1 282.611333333 13.624)"><use xlink:href="#g13AFF74D87C474CFAF661EEAD0458F8B" x="0" y="0" fill="#e6edf3" fill-rule="nonzero"/></g><g transform="matrix(1 0 0 -1 296.336444444 13.624)"><use xlink:href="#gC189A0A36A47FB1CBF46D2ED82C939AF" x="0" y="0" fill="#e6edf3" fill-rule="nonzero"/></g><g transform="matrix(1 0 0 -1 307.152444444 13.624)"><use xlink:href="#g2F93E6EEEE2061842AA37F49EEA2F1A2" x="0" y="0" fill="#e6edf3" fill-rule="nonzero"/></g><defs><symbol id="g1EC01C5368D684131831F3BFC5D2F1C1" overflow="visible"><path d="M 0 0m 9.867 0c 0.221 0 0.338 0.052 0.338 0.169l -4.42 8.879c -0.091 0.169 -0.208 0.26 -0.377 0.26c -0.169 0 -0.286 -0.091 -0.377 -0.26l -4.355 -8.723c -0.039 -0.091 -0.065 -0.143 -0.065 -0.169c 0 -0.104 0.117 -0.156 0.338 -0.156Z m -4.875 7.852l 3.38 -6.773h -6.76Z "/></symbol><symbol id="g2D1FD5FA7721AD843D67732819992226" overflow="visible"><path d="M 0 0m 4.472 8.203c 0 -0.039 -0.013 -0.13 -0.052 -0.26l -1.716 -6.864c -0.052 -0.195 -0.104 -0.312 -0.143 -0.364c -0.117 -0.143 -0.559 -0.208 -1.339 -0.208c -0.403 0 -0.585 0.039 -0.585 -0.299c 0 -0.143 0.091 -0.208 0.26 -0.208c 0.663 0 1.599 0.052 2.158 0.039l 1.066 -0.013c 0.182 0 0.897 -0.026 1.118 -0.026c 0.221 0 0.325 0.104 0.325 0.312c 0 0.13 -0.156 0.195 -0.481 0.195c -0.676 0 -1.066 0.026 -1.183 0.091c -0.039 0.026 -0.065 0.078 -0.065 0.156l 1.755 7.085c 0.039 0.182 0.078 0.299 0.117 0.338c 0.052 0.078 0.364 0.117 0.936 0.117c 0.715 0 1.209 -0.052 1.456 -0.169c 0.247 -0.117 0.377 -0.39 0.377 -0.832c 0 -0.234 -0.039 -0.572 -0.104 -1.014c -0.026 -0.104 -0.039 -0.182 -0.039 -0.247c 0 -0.143 0.065 -0.221 0.208 -0.221c 0.117 0 0.195 0.117 0.234 0.338l 0.351 2.236c 0.013 0.065 0.026 0.143 0.026 0.221c 0 0.13 -0.13 0.195 -0.403 0.195h -7.124c -0.338 0 -0.364 -0.039 -0.468 -0.286l -0.767 -2.262c -0.039 -0.117 -0.065 -0.195 -0.078 -0.247c 0 -0.13 0.065 -0.195 0.208 -0.195c 0.104 0 0.195 0.104 0.26 0.299c 0.325 0.949 0.65 1.534 0.949 1.781c 0.338 0.273 0.988 0.403 1.937 0.403h 0.507c 0.143 0 0.299 0.013 0.299 -0.091Z "/></symbol><symbol id="g3CDB071E19D0E5A44EA9C23D26C7531F" overflow="visible"><path d="M 0 0m 8.658 -0.585c 0.221 -0.091 0.455 0.078 0.455 0.286c 0 0.13 -0.065 0.221 -0.182 0.273l -6.942 3.276l 6.942 3.276c 0.117 0.052 0.182 0.143 0.182 0.26c 0 0.221 -0.104 0.325 -0.312 0.325c -0.052 0 -0.104 -0.013 -0.143 -0.026l -7.462 -3.536c -0.13 -0.065 -0.195 -0.156 -0.195 -0.299c 0 -0.143 0.065 -0.234 0.195 -0.299Z "/></symbol><symbol id="gC189A0A36A47FB1CBF46D2ED82C939AF" overflow="visible"><path d="M 0 0m 3.237 -0.286c 1.833 0 2.743 1.482 2.743 4.446c 0 1.989 -0.416 3.315 -1.235 3.965c -0.455 0.351 -0.962 0.533 -1.495 0.533c -1.833 0 -2.743 -1.495 -2.743 -4.498c 0 -2.392 0.637 -4.446 2.73 -4.446Z m 1.456 7.098c 0.091 -0.455 0.13 -1.287 0.13 -2.496c 0 -1.196 -0.052 -2.08 -0.143 -2.652c -0.169 -1.04 -0.65 -1.56 -1.443 -1.56c -0.299 0 -0.598 0.117 -0.871 0.338c -0.351 0.299 -0.559 0.91 -0.65 1.846c -0.039 0.325 -0.052 1.001 -0.052 2.028c 0 1.131 0.039 1.924 0.104 2.353c 0.117 0.715 0.351 1.17 0.715 1.365c 0.286 0.156 0.533 0.234 0.754 0.234c 0.845 0 1.313 -0.689 1.456 -1.456Z "/></symbol><symbol id="g7413A85D70934E3816A3D1EE8499A939" overflow="visible"><path d="M 0 0m 5.395 3.263c 0 1.495 -0.871 2.561 -2.327 2.561c -0.78 0 -1.43 -0.299 -1.963 -0.91c -0.494 -0.572 -0.741 -1.261 -0.741 -2.054c 0 -0.819 0.273 -1.508 0.819 -2.106c 0.546 -0.598 1.222 -0.897 2.028 -0.897c 0.741 0 1.313 0.26 1.703 0.767c 0.325 0.429 0.481 0.741 0.481 0.949c 0 0.13 -0.078 0.195 -0.221 0.195c -0.104 0 -0.169 -0.065 -0.208 -0.208c -0.286 -0.858 -0.845 -1.287 -1.677 -1.287c -0.585 0 -1.04 0.273 -1.391 0.832c -0.247 0.403 -0.364 1.014 -0.377 1.846h 3.51c 0.286 0 0.364 0.026 0.364 0.312Z m -1.157 1.274c 0.143 -0.429 0.208 -0.845 0.208 -1.222h -2.912c 0.039 0.858 0.26 1.443 0.65 1.742c 0.325 0.26 0.611 0.39 0.884 0.39c 0.585 0 0.975 -0.299 1.17 -0.91Z "/></symbol><symbol id="gA2276AEFE9378953E87817A497BFC175" overflow="visible"><path d="M 0 0m 4.082 5.369c 0.585 0 0.884 -0.455 0.884 -1.378v -2.964c 0 -0.247 -0.039 -0.403 -0.13 -0.455c -0.091 -0.052 -0.377 -0.078 -0.858 -0.078v -0.494l 1.495 0.039l 1.482 -0.039v 0.494c -0.416 0 -0.689 0.013 -0.819 0.052c -0.13 0.039 -0.182 0.13 -0.182 0.286v 2.431c 0 0.611 -0.013 1.04 -0.052 1.287c -0.13 0.793 -0.715 1.196 -1.742 1.196c -0.819 0 -1.43 -0.39 -1.833 -1.17v 1.17l -1.911 -0.143v -0.494c 0.468 0 0.754 -0.039 0.858 -0.117c 0.104 -0.078 0.143 -0.247 0.143 -0.546v -3.419c 0 -0.247 -0.052 -0.403 -0.143 -0.455c -0.091 -0.052 -0.377 -0.078 -0.858 -0.078v -0.494l 1.495 0.039l 1.482 -0.039v 0.494c -0.481 0 -0.754 0.026 -0.845 0.078c -0.091 0.052 -0.143 0.208 -0.143 0.455v 2.34c 0 1.053 0.663 2.002 1.677 2.002Z "/></symbol><symbol id="gBC3D9C1A249D0D4F874E09900DF515A4" overflow="visible"><path d="M 0 0m 1.872 0.039l 1.443 -0.039v 0.507c -0.468 0 -0.754 0.013 -0.845 0.065c -0.091 0.052 -0.13 0.208 -0.13 0.455v 7.995l -1.911 -0.143v -0.494c 0.455 0 0.741 -0.039 0.832 -0.117c 0.091 -0.078 0.143 -0.26 0.143 -0.559v -6.682c 0 -0.247 -0.039 -0.403 -0.13 -0.455c -0.091 -0.052 -0.377 -0.065 -0.845 -0.065v -0.507Z "/></symbol><symbol id="g3BE14B656A783D87D3540BF1AAF22AA9" overflow="visible"><path d="M 0 0m 6.279 1.183v 0.767h -0.416v -0.767c 0 -0.507 -0.143 -0.767 -0.416 -0.767c -0.26 0 -0.416 0.325 -0.416 0.585v 2.561c 0 0.455 -0.052 0.793 -0.143 1.027c -0.312 0.767 -1.209 1.235 -2.119 1.235c -1.001 0 -1.989 -0.559 -1.989 -1.495c 0 -0.429 0.221 -0.65 0.65 -0.65c 0.429 0 0.637 0.208 0.637 0.637c 0 0.377 -0.195 0.598 -0.598 0.637c 0.286 0.325 0.715 0.494 1.274 0.494c 0.806 0 1.3 -0.741 1.3 -1.586v -0.429c -1.014 -0.065 -1.781 -0.221 -2.314 -0.468c -0.871 -0.403 -1.313 -0.962 -1.313 -1.703c 0 -0.338 0.13 -0.624 0.377 -0.845c 0.416 -0.377 0.988 -0.559 1.716 -0.559c 0.767 0 1.313 0.325 1.651 0.988c 0.091 -0.494 0.455 -0.923 1.014 -0.923c 0.689 0 1.105 0.546 1.105 1.261Z m -3.679 -0.949c -0.598 0 -1.092 0.442 -1.092 1.04c 0 1.209 1.261 1.729 2.535 1.794v -1.235c 0 -0.871 -0.572 -1.599 -1.443 -1.599Z "/></symbol><symbol id="gFCB94C35A6936272B966DC9E5D65B3F4" overflow="visible"><path d="M 0 0m 5.434 0.039c 0.299 0.013 0.728 0 1.274 -0.039v 0.494c -0.689 0 -0.949 0.013 -1.222 0.377l -1.69 2.184c 0.559 0.689 0.936 1.157 1.144 1.404c 0.364 0.416 0.871 0.637 1.534 0.65v 0.494c -0.364 -0.026 -0.728 -0.039 -1.092 -0.039c -0.481 0 -0.91 0.013 -1.287 0.039v -0.494c 0.247 -0.026 0.377 -0.143 0.377 -0.351c 0 -0.117 -0.065 -0.26 -0.182 -0.416l -0.754 -0.936l -0.962 1.235c -0.065 0.091 -0.104 0.156 -0.104 0.195c 0 0.169 0.156 0.26 0.455 0.273v 0.494l -1.443 -0.039c -0.338 -0.013 -0.754 0 -1.261 0.039v -0.494c 0.468 0 0.767 -0.039 0.897 -0.104c 0.13 -0.065 0.338 -0.286 0.624 -0.663l 1.235 -1.612c -0.637 -0.819 -1.027 -1.313 -1.17 -1.482c -0.416 -0.507 -0.962 -0.754 -1.651 -0.754v -0.494c 0.481 0.039 0.845 0.052 1.118 0.039l 1.261 -0.039v 0.494c -0.247 0.039 -0.364 0.156 -0.364 0.351c 0 0.052 0.013 0.117 0.039 0.182c 0.078 0.169 0.429 0.611 1.053 1.352l 0.936 -1.222c 0.143 -0.182 0.221 -0.312 0.26 -0.39c 0 -0.169 -0.156 -0.26 -0.468 -0.273v -0.494Z "/></symbol><symbol id="g35A7BA3FBB03354D7A4358A466CD34D8" overflow="visible"><path d="M 0 0m 3.874 -0.169c 0.806 0 1.495 0.286 2.054 0.871c 0.559 0.585 0.845 1.274 0.845 2.093c 0 0.793 -0.26 1.469 -0.767 2.041c -0.533 0.611 -1.183 0.91 -1.963 0.91c -0.663 0 -1.235 -0.26 -1.729 -0.767v 0.767l -1.95 -0.143v -0.494c 0.481 0 0.767 -0.026 0.858 -0.091c 0.091 -0.065 0.143 -0.234 0.143 -0.507v -6.006c 0 -0.247 -0.052 -0.403 -0.143 -0.455c -0.091 -0.052 -0.377 -0.065 -0.858 -0.065v -0.507l 1.482 0.039l 1.495 -0.039v 0.507c -0.481 0 -0.754 0.013 -0.845 0.065c -0.091 0.052 -0.143 0.208 -0.143 0.455v 2.067c 0.286 -0.403 0.845 -0.741 1.521 -0.741Z m 0.078 5.486c 0.533 0 0.949 -0.299 1.274 -0.897c 0.247 -0.507 0.377 -1.04 0.377 -1.625c 0 -0.611 -0.143 -1.17 -0.429 -1.677c -0.338 -0.611 -0.793 -0.91 -1.352 -0.91c -0.546 0 -0.975 0.26 -1.3 0.767c -0.117 0.169 -0.169 0.338 -0.169 0.507v 2.847c 0.377 0.663 0.91 0.988 1.599 0.988Z "/></symbol><symbol id="gFD7B4B4FA231C83EBA33EE1F285F6134" overflow="visible"><path d="M 0 0m 4.68 1.69c 0 0.988 -0.676 1.612 -2.015 1.872c -0.611 0.117 -1.001 0.26 -1.209 0.403c -0.208 0.143 -0.312 0.351 -0.312 0.598c 0 0.611 0.455 0.91 1.365 0.91c 0.884 0 1.365 -0.494 1.43 -1.495c 0.013 -0.104 0.078 -0.156 0.208 -0.156c 0.143 0 0.221 0.117 0.221 0.351v 1.287c 0 0.247 -0.065 0.364 -0.195 0.364c -0.143 0 -0.338 -0.234 -0.468 -0.338c -0.325 0.221 -0.728 0.338 -1.196 0.338c -1.157 0 -2.08 -0.52 -2.08 -1.625c 0 -0.442 0.182 -0.819 0.559 -1.118c 0.455 -0.377 0.884 -0.455 1.703 -0.598c 0.845 -0.169 1.274 -0.546 1.274 -1.131c 0 -0.741 -0.455 -1.118 -1.378 -1.118c -0.897 0 -1.469 0.598 -1.716 1.781c -0.039 0.169 -0.104 0.26 -0.221 0.26c -0.143 0 -0.221 -0.13 -0.221 -0.377v -1.677c 0 -0.247 0.065 -0.364 0.195 -0.364c 0.039 0 0.104 0.039 0.208 0.13c 0.234 0.208 0.13 0.169 0.364 0.403c 0.377 -0.351 0.845 -0.533 1.391 -0.533c 1.235 0 2.093 0.637 2.093 1.833Z "/></symbol><symbol id="g49CA9B429DF3D7281052206316ECCC8A" overflow="visible"><path d="M 0 0m 2.522 7.813c 0 0.39 -0.325 0.728 -0.715 0.728c -0.39 0 -0.728 -0.338 -0.728 -0.728c 0 -0.39 0.325 -0.741 0.715 -0.741c 0.403 0 0.728 0.338 0.728 0.741Z m -0.663 -7.774l 1.352 -0.039v 0.507c -0.429 0 -0.689 0.026 -0.767 0.078c -0.078 0.052 -0.104 0.195 -0.104 0.429v 4.771l -1.859 -0.156v -0.494c 0.429 0 0.702 -0.039 0.793 -0.104c 0.091 -0.065 0.13 -0.247 0.13 -0.546v -3.458c 0 -0.247 -0.039 -0.403 -0.13 -0.455c -0.091 -0.052 -0.377 -0.065 -0.845 -0.065v -0.507Z "/></symbol><symbol id="g66E488693FE2CB4E6A901EA1738CF831" overflow="visible"><path d="M 0 0m 4.368 9.074c -0.156 0 -0.299 -0.078 -0.416 -0.234l -1.56 -2.002l 0.273 -0.299l 1.989 1.599c 0.156 0.117 0.234 0.26 0.234 0.416c 0 0.273 -0.247 0.52 -0.52 0.52Z m -1.131 -9.217c 0.806 0 1.482 0.299 2.041 0.871c 0.559 0.572 0.845 1.261 0.845 2.067c 0 0.819 -0.273 1.534 -0.819 2.145c -0.546 0.611 -1.235 0.923 -2.054 0.923c -0.819 0 -1.495 -0.299 -2.054 -0.91c -0.559 -0.611 -0.832 -1.326 -0.832 -2.158c 0 -0.806 0.273 -1.495 0.832 -2.067c 0.559 -0.572 1.235 -0.871 2.041 -0.871Z m 0.013 0.429c -0.624 0 -1.092 0.273 -1.417 0.832c -0.208 0.364 -0.312 0.962 -0.312 1.781c 0 0.793 0.104 1.378 0.299 1.742c 0.312 0.559 0.78 0.832 1.417 0.832c 0.611 0 1.079 -0.273 1.404 -0.806c 0.221 -0.364 0.325 -0.949 0.325 -1.768c 0 -1.508 -0.442 -2.613 -1.716 -2.613Z "/></symbol><symbol id="g628A0372C9050428EB68955165BB9D3" overflow="visible"><path d="M 0 0m 2.6 0.104c -0.585 0 -1.014 0.208 -1.313 0.637c 0.52 0.026 0.78 0.286 0.78 0.767c 0 0.442 -0.325 0.78 -0.767 0.78c -0.468 0 -0.767 -0.338 -0.767 -0.806c 0 -1.053 1.014 -1.768 2.093 -1.768c 0.585 0 1.118 0.169 1.586 0.52c 0.468 0.351 0.754 0.819 0.832 1.391c 0.013 0.065 0.013 0.247 0.013 0.572v 5.707c 0 0.221 0.039 0.364 0.143 0.403c 0.104 0.039 0.39 0.065 0.845 0.065v 0.507l -1.703 -0.039c -0.845 -0.013 -1.573 0 -2.184 0.039v -0.507h 0.507c 0.689 0 1.079 -0.065 1.157 -0.208c 0.026 -0.065 0.039 -0.182 0.039 -0.351v -5.863c 0 -0.897 -0.429 -1.846 -1.261 -1.846Z "/></symbol><symbol id="g5D4DFCA3C00979A1E9076032CC813B65" overflow="visible"><path d="M 0 0m 3.237 -0.143c 0.806 0 1.482 0.286 2.041 0.858c 0.559 0.572 0.845 1.261 0.845 2.067c 0 0.819 -0.273 1.534 -0.819 2.132c -0.546 0.598 -1.235 0.91 -2.054 0.91c -0.819 0 -1.495 -0.312 -2.054 -0.91c -0.559 -0.598 -0.832 -1.313 -0.832 -2.132c 0 -0.806 0.273 -1.495 0.832 -2.067c 0.559 -0.572 1.248 -0.858 2.041 -0.858Z m 0.013 0.416c -0.624 0 -1.092 0.273 -1.417 0.832c -0.208 0.364 -0.312 0.962 -0.312 1.781c 0 0.793 0.104 1.365 0.299 1.729c 0.312 0.559 0.78 0.832 1.417 0.832c 0.611 0 1.079 -0.273 1.404 -0.806c 0.221 -0.364 0.325 -0.949 0.325 -1.755c 0 -1.508 -0.442 -2.613 -1.716 -2.613Z "/></symbol><symbol id="g639DFB7C802EA1E209EC54229B0444AB" overflow="visible"><path d="M 0 0m 3.471 0.234c -0.897 0 -1.066 0.377 -1.066 1.222v 4.29l -1.989 -0.143v -0.494c 0.507 0 0.806 -0.052 0.884 -0.143c 0.078 -0.091 0.117 -0.416 0.117 -0.988v -1.911c 0 -0.507 0.039 -0.897 0.13 -1.196c 0.195 -0.676 0.91 -1.014 1.859 -1.014c 0.702 0 1.235 0.325 1.599 0.988v -0.988l 1.95 0.143v 0.494c -0.468 0 -0.741 0.026 -0.845 0.104c -0.104 0.078 -0.156 0.26 -0.156 0.559v 4.589l -1.976 -0.143v -0.494c 0.455 0 0.728 -0.039 0.832 -0.117c 0.104 -0.078 0.156 -0.247 0.156 -0.546v -2.275c 0 -1.027 -0.546 -1.937 -1.495 -1.937Z "/></symbol><symbol id="gAD96C2EEE7EE2AE3951947EAB253D6C8" overflow="visible"><path d="M 0 0m 0.143 2.431h 3.445v 0.754h -3.445Z "/></symbol><symbol id="g979B9011594C4250B89F84E36A994F42" overflow="visible"><path d="M 0 0m 8.489 5.811h 0.416l -0.247 2.99h -7.943l -0.247 -2.99h 0.416c 0.091 0.858 0.13 1.625 0.494 2.054c 0.338 0.39 0.975 0.429 1.768 0.429c 0.377 0 0.611 0 0.689 -0.013c 0.234 -0.052 0.234 -0.169 0.234 -0.442v -6.773c 0 -0.169 -0.013 -0.273 -0.052 -0.338c -0.078 -0.143 -0.494 -0.221 -1.248 -0.221h -0.572v -0.507c 0.39 0.026 1.222 0.039 2.483 0.039c 1.274 0 2.106 -0.013 2.496 -0.039v 0.507h -0.572c -0.754 0 -1.17 0.078 -1.248 0.221c -0.039 0.065 -0.052 0.169 -0.052 0.338v 6.773c 0 0.143 0.026 0.26 0.052 0.338c 0.026 0.078 0.312 0.117 0.871 0.117c 0.793 0 1.417 -0.039 1.755 -0.429c 0.364 -0.429 0.416 -1.196 0.507 -2.054Z "/></symbol><symbol id="g141C31A975BF6B05490A1C6DCA7DD2E9" overflow="visible"><path d="M 0 0m 4.082 5.395c 0.585 0 0.884 -0.455 0.884 -1.378v -2.99c 0 -0.247 -0.039 -0.403 -0.13 -0.455c -0.091 -0.052 -0.377 -0.065 -0.858 -0.065v -0.507l 1.495 0.039l 1.482 -0.039v 0.507c -0.416 0 -0.689 0.013 -0.819 0.052c -0.13 0.039 -0.182 0.13 -0.182 0.273v 2.457c 0 0.624 -0.013 1.053 -0.052 1.3c -0.13 0.793 -0.715 1.196 -1.742 1.196c -0.793 0 -1.391 -0.364 -1.794 -1.092v 4.329l -1.95 -0.143v -0.494c 0.468 0 0.754 -0.039 0.858 -0.117c 0.104 -0.078 0.143 -0.26 0.143 -0.559v -6.682c 0 -0.247 -0.052 -0.403 -0.143 -0.455c -0.091 -0.052 -0.377 -0.065 -0.858 -0.065v -0.507l 1.495 0.039l 1.482 -0.039v 0.507c -0.481 0 -0.754 0.013 -0.845 0.065c -0.091 0.052 -0.143 0.208 -0.143 0.455v 2.366c 0 1.053 0.663 2.002 1.677 2.002Z "/></symbol><symbol id="g5B7304E1A312B7A0A314BC6F385C42DD" overflow="visible"><path d="M 0 0m 4.095 5.369c 0.598 0 0.897 -0.455 0.897 -1.378v -2.964c 0 -0.247 -0.039 -0.403 -0.13 -0.455c -0.091 -0.052 -0.39 -0.078 -0.871 -0.078v -0.494l 1.508 0.039l 1.495 -0.039v 0.494c -0.481 0 -0.767 0.026 -0.858 0.078c -0.091 0.052 -0.143 0.208 -0.143 0.455v 2.34c 0 1.04 0.676 2.002 1.677 2.002c 0.611 0 0.91 -0.455 0.91 -1.378v -2.964c 0 -0.247 -0.052 -0.403 -0.143 -0.455c -0.091 -0.052 -0.39 -0.078 -0.871 -0.078v -0.494l 1.508 0.039l 1.495 -0.039v 0.494c -0.416 0 -0.689 0.013 -0.819 0.052c -0.13 0.039 -0.182 0.13 -0.182 0.286v 2.431c 0 0.611 -0.026 1.04 -0.065 1.287c -0.13 0.793 -0.715 1.196 -1.742 1.196c -0.819 0 -1.43 -0.377 -1.846 -1.144c -0.182 0.767 -0.754 1.144 -1.729 1.144c -0.819 0 -1.443 -0.39 -1.859 -1.17v 1.17l -1.911 -0.143v -0.494c 0.468 0 0.754 -0.039 0.858 -0.117c 0.104 -0.078 0.143 -0.247 0.143 -0.546v -3.419c 0 -0.247 -0.052 -0.403 -0.143 -0.455c -0.091 -0.052 -0.377 -0.078 -0.858 -0.078v -0.494l 1.508 0.039l 1.495 -0.039v 0.494c -0.481 0 -0.78 0.026 -0.871 0.078c -0.091 0.052 -0.143 0.208 -0.143 0.455v 2.34c 0 1.053 0.689 2.002 1.69 2.002Z "/></symbol><symbol id="g2D7122AD31FABF41BED931716B883F58" overflow="visible"><path d="M 0 0m 4.134 -3.224c 0.117 0 0.182 0.065 0.182 0.182c 0 0.039 -0.026 0.091 -0.065 0.143c -0.676 0.52 -1.222 1.378 -1.625 2.561c -0.351 1.027 -0.533 2.041 -0.533 3.042v 1.092c 0 1.001 0.182 2.015 0.533 3.042c 0.403 1.183 0.949 2.041 1.625 2.561c 0.039 0.039 0.065 0.091 0.065 0.143c 0 0.117 -0.065 0.182 -0.182 0.182c -0.013 0 -0.052 -0.013 -0.091 -0.039c -0.78 -0.598 -1.43 -1.482 -1.963 -2.665c -0.507 -1.131 -0.767 -2.197 -0.767 -3.224v -1.092c 0 -1.027 0.26 -2.093 0.767 -3.224c 0.533 -1.183 1.183 -2.067 1.963 -2.665c 0.039 -0.026 0.078 -0.039 0.091 -0.039Z "/></symbol><symbol id="g128BC29E509AAF6EF62444E10CCC5730" overflow="visible"><path d="M 0 0m 11.453 8.684c 0 0.13 -0.078 0.195 -0.234 0.195l -1.651 -0.039l -1.651 0.039c -0.208 0 -0.299 -0.117 -0.299 -0.312c 0 -0.091 0.039 -0.156 0.104 -0.169c 0.13 -0.013 0.234 -0.026 0.299 -0.026c 0.403 -0.013 0.624 -0.039 0.689 -0.052c 0.065 -0.013 0.104 -0.052 0.104 -0.117c -0.013 -0.039 -0.026 -0.117 -0.052 -0.234l -0.767 -3.094h -3.822l 0.754 2.951c 0.065 0.273 0.182 0.442 0.351 0.507c 0.091 0.026 0.312 0.039 0.676 0.039c 0.351 0 0.494 0 0.494 0.312c 0 0.13 -0.078 0.195 -0.234 0.195l -1.651 -0.039l -1.664 0.039c -0.208 0 -0.299 -0.117 -0.299 -0.312c 0 -0.091 0.039 -0.156 0.117 -0.169c 0.13 -0.013 0.234 -0.026 0.299 -0.026c 0.403 -0.013 0.637 -0.039 0.702 -0.052c 0.065 -0.013 0.091 -0.052 0.091 -0.117c 0 -0.026 -0.013 -0.104 -0.052 -0.234l -1.729 -6.903c -0.065 -0.286 -0.195 -0.455 -0.39 -0.52c -0.091 -0.026 -0.325 -0.039 -0.728 -0.039c -0.286 0 -0.403 -0.026 -0.403 -0.312c 0 -0.13 0.078 -0.195 0.234 -0.195l 1.638 0.039l 0.819 -0.013c 0.143 0 0.689 -0.026 0.832 -0.026c 0.208 0 0.312 0.104 0.312 0.312c 0 0.13 -0.143 0.195 -0.416 0.195c -0.52 0 -0.78 0.052 -0.78 0.169c 0 0 0.013 0.039 0.039 0.208l 0.871 3.484h 3.809l -0.871 -3.484c -0.039 -0.195 -0.195 -0.325 -0.455 -0.364c -0.065 -0.013 -0.286 -0.013 -0.663 -0.013c -0.247 0 -0.364 -0.104 -0.364 -0.312c 0 -0.13 0.078 -0.195 0.234 -0.195l 1.638 0.039l 0.819 -0.013c 0.143 0 0.676 -0.026 0.845 -0.026c 0.208 0 0.312 0.104 0.312 0.312c 0 0.13 -0.143 0.195 -0.416 0.195c -0.533 0 -0.793 0.052 -0.793 0.169c 0 0 0.013 0.039 0.039 0.208l 1.742 6.942c 0.065 0.273 0.182 0.442 0.351 0.507c 0.078 0.026 0.299 0.039 0.676 0.039c 0.338 0 0.494 0 0.494 0.312Z "/></symbol><symbol id="g13AFF74D87C474CFAF661EEAD0458F8B" overflow="visible"><path d="M 0 0m 9.074 4.771h -8.034c -0.208 0 -0.312 -0.104 -0.312 -0.299c 0 -0.195 0.104 -0.299 0.312 -0.299h 8.034c 0.208 0 0.312 0.104 0.312 0.299c 0 0.156 -0.143 0.299 -0.312 0.299Z m 0 -2.444h -8.034c -0.208 0 -0.312 -0.104 -0.312 -0.299c 0 -0.195 0.104 -0.299 0.312 -0.299h 8.034c 0.208 0 0.312 0.104 0.312 0.299c 0 0.169 -0.143 0.299 -0.312 0.299Z "/></symbol><symbol id="g2F93E6EEEE2061842AA37F49EEA2F1A2" overflow="visible"><path d="M 0 0m 1.014 -3.185c 0.78 0.598 1.43 1.482 1.963 2.665c 0.507 1.131 0.767 2.197 0.767 3.224v 1.092c 0 1.027 -0.26 2.093 -0.767 3.224c -0.533 1.183 -1.183 2.067 -1.963 2.665c -0.039 0.026 -0.078 0.039 -0.091 0.039c -0.117 0 -0.182 -0.065 -0.182 -0.182c 0 -0.052 0.026 -0.104 0.065 -0.143c 0.676 -0.52 1.222 -1.378 1.625 -2.561c 0.351 -1.027 0.533 -2.041 0.533 -3.042v -1.092c 0 -1.001 -0.182 -2.015 -0.533 -3.042c -0.403 -1.183 -0.949 -2.041 -1.625 -2.561c -0.039 -0.052 -0.065 -0.104 -0.065 -0.143c 0 -0.117 0.065 -0.182 0.182 -0.182c 0.013 0 0.052 0.013 0.091 0.039Z "/></symbol></defs></svg>