<svg viewBox="0 0 328.608944444 53.5639" width="328.608944444pt" height="53.5639pt" xmlns="http://www.w3.org/2000/svg" xmlns:xlink="http://www.w3.org/1999/xlink" xmlns:h5="http://www.w3.org/1999/xhtml"><g transform="matrix(1 0 0 -1 6.5 21.723)"><use xlink:href="#g199C081543EB6953D1A4A35525511A21" x="0" y="0" fill="#e6edf3" fill-rule="nonzero"/></g><g transform="matrix(1 0 0 -1 19.874111111 21.723)"><use xlink:href="#gEA19E95F2BD269CDB5889EB31445E857" x="0" y="0" fill="#e6edf3" fill-rule="nonzero"/></g><g transform="matrix(1 0 0 -1 33.534222222 21.723)"><use xlink:href="#g64370E30DF4B33A21FF4F57190C51178" x="0" y="0" fill="#e6edf3" fill-rule="nonzero"/></g><g transform="matrix(1 0 0 -1 42.923111111 21.723)"><use xlink:href="#gB2FE069A51D41D0F559BB2C2F59548AC" x="0" y="0" fill="#e6edf3" fill-rule="nonzero"/></g><g transform="matrix(1 0 0 -1 59.111 12.922)"><use xlink:href="#gC85125468F8DCC25C1F22CADF7101B66" x="0" y="0" fill="#e6edf3" fill-rule="nonzero"/></g><g transform="matrix(1 0 0 -1 64.87 12.922)"><use xlink:href="#gB4EA66346A2257E70C9E2F21B9C102F" x="0" y="0" fill="#e6edf3" fill-rule="nonzero"/></g><g transform="matrix(1 0 0 -1 57.226 30.641)"><use xlink:href="#gF243718FB94FD6339F3F4E1DA64D0D9F" x="0" y="0" fill="#e6edf3" fill-rule="nonzero"/></g><g transform="matrix(1 0 0 -1 67.405 30.641)"><use xlink:href="#g7096DBAD9DDFA59726AF1613A04D446" x="0" y="0" fill="#e6edf3" fill-rule="nonzero"/></g><path fill="none" stroke="#e6edf3" stroke-width="0.624" stroke-linecap="butt" stroke-linejoin="miter" stroke-miterlimit="4" transform="translate(57.226 18.473)" d="M 0 0h 19.695"/><g transform="matrix(1 0 0 -1 81.832111111 21.723)"><use xlink:href="#gFCC8AED63E37CE6EFDC28131B6356A7F" x="0" y="0" fill="#e6edf3" fill-rule="nonzero"/></g><g transform="matrix(1 0 0 -1 95.557222222 21.723)"><use xlink:href="#g64370E30DF4B33A21FF4F57190C51178" x="0" y="0" fill="#e6edf3" fill-rule="nonzero"/></g><g transform="matrix(1 0 0 -1 6.5 30.927)"><use xlink:href="#g874E1D8B5E89A114F8A483997D2AC0A4" x="0" y="0" fill="#e6edf3" fill-rule="nonzero"/><use xlink:href="#g53E38CC9ADF7F52FE2384DF31C850A1B" x="11.943524118" y="0" fill="#e6edf3" fill-rule="nonzero"/><use xlink:href="#g53E38CC9ADF7F52FE2384DF31C850A1B" x="22.926086993" y="0" fill="#e6edf3" fill-rule="nonzero"/><use xlink:href="#gB63034A9BEFF1005565E30F2B5FC9FED" x="34.765611111" y="0" fill="#e6edf3" fill-rule="nonzero"/><use xlink:href="#g53E38CC9ADF7F52FE2384DF31C850A1B" x="59.722135229" y="0" fill="#e6edf3" fill-rule="nonzero"/><use xlink:href="#g53E38CC9ADF7F52FE2384DF31C850A1B" x="70.704698104" y="0" fill="#e6edf3" fill-rule="nonzero"/><use xlink:href="#gE178E3918AA5B0301112DBF43C4D2BD3" x="82.544222222" y="0" fill="#e6edf3" fill-rule="nonzero"/></g><g transform="matrix(1 0 0 -1 19.339161111 44.8604)"><use xlink:href="#gAC7F30885AF642A49091A4E8ECAD97D4" x="0" y="0" fill="#e6edf3" fill-rule="nonzero"/><use xlink:href="#gD521879FE9FC48B338FDB7072AC7746E" x="9.2183" y="0" fill="#e6edf3" fill-rule="nonzero"/><use xlink:href="#g8E2CF97F8427FAA51DF7EB074D56158A" x="13.7683" y="0" fill="#e6edf3" fill-rule="nonzero"/><use xlink:href="#g71B76DC51F60CF97CFD99DB1C339E79" x="16.2981" y="0" fill="#e6edf3" fill-rule="nonzero"/><use xlink:href="#gD521879FE9FC48B338FDB7072AC7746E" x="19.838" y="0" fill="#e6edf3" fill-rule="nonzero"/><use xlink:href="#gE8DC7C60F8FC1F2370CCFE9B9CA54929" x="24.388" y="0" fill="#e6edf3" fill-rule="nonzero"/><use xlink:href="#g7C86E2A440F48F0F6051EFD4BE8606BB" x="29.939" y="0" fill="#e6edf3" fill-rule="nonzero"/><use xlink:href="#g470E3D9B05490F4329D4462D6C751B09" x="34.9986" y="0" fill="#e6edf3" fill-rule="nonzero"/><use xlink:href="#g15BA1FE8A75D8E8B201C54DEFA8660AD" x="39.5486" y="0" fill="#e6edf3" fill-rule="nonzero"/><use xlink:href="#g9334BF3DBCFEAE906CD06C92C01634B4" x="47.1289" y="0" fill="#e6edf3" fill-rule="nonzero"/><use xlink:href="#g2CB3CA5990C42A1BB561E0F6CA6FBA9A" x="49.6587" y="0" fill="#e6edf3" fill-rule="nonzero"/><use xlink:href="#gD521879FE9FC48B338FDB7072AC7746E" x="54.7183" y="0" fill="#e6edf3" fill-rule="nonzero"/></g><g transform="matrix(1 0 0 -1 84.649861111 44.8604)"><use xlink:href="#g81A0C80BF1E189C03F1C698418AA9A5F" x="0" y="0" fill="#e6edf3" fill-rule="nonzero"/></g><g transform="matrix(1 0 0 -1 128.057222222 21.723)"><use xlink:href="#g199C081543EB6953D1A4A35525511A21" x="0" y="0" fill="#e6edf3" fill-rule="nonzero"/></g><g transform="matrix(1 0 0 -1 141.431333333 21.723)"><use xlink:href="#gEA19E95F2BD269CDB5889EB31445E857" x="0" y="0" fill="#e6edf3" fill-rule="nonzero"/></g><g transform="matrix(1 0 0 -1 155.091444444 21.723)"><use xlink:href="#g64370E30DF4B33A21FF4F57190C51178" x="0" y="0" fill="#e6edf3" fill-rule="nonzero"/></g><g transform="matrix(1 0 0 -1 164.480333333 21.723)"><use xlink:href="#g93E2E4981C31CF08382CC32D1FDB09EE" x="0" y="0" fill="#e6edf3" fill-rule="nonzero"/></g><g transform="matrix(1 0 0 -1 188.119172222 12.922)"><use xlink:href="#g4C1F87D53067917A8407EB60D22EEE0D" x="0" y="0" fill="#e6edf3" fill-rule="nonzero"/></g><g transform="matrix(1 0 0 -1 194.996172222 12.922)"><use xlink:href="#gB4EA66346A2257E70C9E2F21B9C102F" x="0" y="0" fill="#e6edf3" fill-rule="nonzero"/></g><g transform="matrix(1 0 0 -1 178.783222222 30.641)"><use xlink:href="#g2C99166171D18D38BA7BBC782359B2DE" x="0" y="0" fill="#e6edf3" fill-rule="nonzero"/></g><g transform="matrix(1 0 0 -1 183.840222222 30.641)"><use xlink:href="#gF243718FB94FD6339F3F4E1DA64D0D9F" x="0" y="0" fill="#e6edf3" fill-rule="nonzero"/></g><g transform="matrix(1 0 0 -1 194.019222222 30.641)"><use xlink:href="#g7096DBAD9DDFA59726AF1613A04D446" x="0" y="0" fill="#e6edf3" fill-rule="nonzero"/></g><g transform="matrix(1 0 0 -1 203.535222222 30.641)"><use xlink:href="#g96BE5517D6E715F25FC8548E8B9DD04A" x="0" y="0" fill="#e6edf3" fill-rule="nonzero"/></g><g transform="matrix(1 0 0 -1 208.592222222 26.884)"><use xlink:href="#gE54D62E810103456753331C5E7463C1E" x="0" y="0" fill="#e6edf3" fill-rule="nonzero"/></g><path fill="none" stroke="#e6edf3" stroke-width="0.624" stroke-linecap="butt" stroke-linejoin="miter" stroke-miterlimit="4" transform="translate(178.783222222 18.473)" d="M 0 0h 35.7149"/><g transform="matrix(1 0 0 -1 219.409233333 21.723)"><use xlink:href="#gEC392E12A837623E242B01D0CC11F4D6" x="0" y="0" fill="#e6edf3" fill-rule="nonzero"/></g><g transform="matrix(1 0 0 -1 233.134344444 21.723)"><use xlink:href="#g64370E30DF4B33A21FF4F57190C51178" x="0" y="0" fill="#e6edf3" fill-rule="nonzero"/></g><g transform="matrix(1 0 0 -1 128.057222222 33.865)"><use xlink:href="#g874E1D8B5E89A114F8A483997D2AC0A4" x="0" y="0" fill="#e6edf3" fill-rule="nonzero"/><use xlink:href="#g53E38CC9ADF7F52FE2384DF31C850A1B" x="11.454917522" y="0" fill="#e6edf3" fill-rule="nonzero"/><use xlink:href="#g53E38CC9ADF7F52FE2384DF31C850A1B" x="21.439780556" y="0" fill="#e6edf3" fill-rule="nonzero"/><use xlink:href="#g53E38CC9ADF7F52FE2384DF31C850A1B" x="31.424643589" y="0" fill="#e6edf3" fill-rule="nonzero"/><use xlink:href="#gB63034A9BEFF1005565E30F2B5FC9FED" x="42.775561111" y="0" fill="#e6edf3" fill-rule="nonzero"/><use xlink:href="#g53E38CC9ADF7F52FE2384DF31C850A1B" x="67.243478634" y="0" fill="#e6edf3" fill-rule="nonzero"/><use xlink:href="#g53E38CC9ADF7F52FE2384DF31C850A1B" x="77.228341667" y="0" fill="#e6edf3" fill-rule="nonzero"/><use xlink:href="#g53E38CC9ADF7F52FE2384DF31C850A1B" x="87.2132047" y="0" fill="#e6edf3" fill-rule="nonzero"/><use xlink:href="#gE178E3918AA5B0301112DBF43C4D2BD3" x="98.564122222" y="0" fill="#e6edf3" fill-rule="nonzero"/></g><g transform="matrix(1 0 0 -1 147.482183333 47.7984)"><use xlink:href="#gAC7F30885AF642A49091A4E8ECAD97D4" x="0" y="0" fill="#e6edf3" fill-rule="nonzero"/><use xlink:href="#gC02C87DF8045598F1623CFFC0107B91A" x="9.2183" y="0" fill="#e6edf3" fill-rule="nonzero"/><use xlink:href="#gD521879FE9FC48B338FDB7072AC7746E" x="14.2779" y="0" fill="#e6edf3" fill-rule="nonzero"/><use xlink:href="#g5D4C608E3D9B464B6CE5CC20908573ED" x="18.8279" y="0" fill="#e6edf3" fill-rule="nonzero"/><use xlink:href="#gD521879FE9FC48B338FDB7072AC7746E" x="21.6125" y="0" fill="#e6edf3" fill-rule="nonzero"/><use xlink:href="#gE8DC7C60F8FC1F2370CCFE9B9CA54929" x="26.1625" y="0" fill="#e6edf3" fill-rule="nonzero"/><use xlink:href="#g7C86E2A440F48F0F6051EFD4BE8606BB" x="31.7135" y="0" fill="#e6edf3" fill-rule="nonzero"/><use xlink:href="#g470E3D9B05490F4329D4462D6C751B09" x="36.7731" y="0" fill="#e6edf3" fill-rule="nonzero"/><use xlink:href="#g15BA1FE8A75D8E8B201C54DEFA8660AD" x="41.3231" y="0" fill="#e6edf3" fill-rule="nonzero"/><use xlink:href="#g9334BF3DBCFEAE906CD06C92C01634B4" x="48.9034" y="0" fill="#e6edf3" fill-rule="nonzero"/><use xlink:href="#g2CB3CA5990C42A1BB561E0F6CA6FBA9A" x="51.4332" y="0" fill="#e6edf3" fill-rule="nonzero"/><use xlink:href="#gD521879FE9FC48B338FDB7072AC7746E" x="56.4928" y="0" fill="#e6edf3" fill-rule="nonzero"/></g><g transform="matrix(1 0 0 -1 214.567383333 47.7984)"><use xlink:href="#gED72F04BD546482B50753A218A35FA4" x="0" y="0" fill="#e6edf3" fill-rule="nonzero"/></g><g transform="matrix(1 0 0 -1 275.629033333 21.723)"><use xlink:href="#g199C081543EB6953D1A4A35525511A21" x="0" y="0" fill="#e6edf3" fill-rule="nonzero"/></g><g transform="matrix(1 0 0 -1 289.003144444 21.723)"><use xlink:href="#gEB8632C8ABCBF9D286AE672C42A1C6EE" x="0" y="0" fill="#e6edf3" fill-rule="nonzero"/></g><g transform="matrix(1 0 0 -1 305.614255556 21.723)"><use xlink:href="#g64370E30DF4B33A21FF4F57190C51178" x="0" y="0" fill="#e6edf3" fill-rule="nonzero"/></g><g transform="matrix(1 0 0 -1 274.189644444 21.853)"><use xlink:href="#g6060269333C37D9733E1D524F5EEA566" x="0" y="0" fill="#e6edf3" fill-rule="nonzero"/></g><g transform="matrix(1 0 0 -1 265.634344444 35.6434)"><use xlink:href="#gA312FCBFDF86DC62F1841ECB566A6866" x="0" y="0" fill="#e6edf3" fill-rule="nonzero"/><use xlink:href="#gD521879FE9FC48B338FDB7072AC7746E" x="9.5914" y="0" fill="#e6edf3" fill-rule="nonzero"/><use xlink:href="#g8E2CF97F8427FAA51DF7EB074D56158A" x="14.1414" y="0" fill="#e6edf3" fill-rule="nonzero"/><use xlink:href="#g71B76DC51F60CF97CFD99DB1C339E79" x="16.6712" y="0" fill="#e6edf3" fill-rule="nonzero"/><use xlink:href="#gD521879FE9FC48B338FDB7072AC7746E" x="20.2111" y="0" fill="#e6edf3" fill-rule="nonzero"/><use xlink:href="#g6ACC6C07D1481F8556C653435562F4C3" x="24.7611" y="0" fill="#e6edf3" fill-rule="nonzero"/><use xlink:href="#gAC7F30885AF642A49091A4E8ECAD97D4" x="30.3121" y="0" fill="#e6edf3" fill-rule="nonzero"/><use xlink:href="#gC02C87DF8045598F1623CFFC0107B91A" x="39.5304" y="0" fill="#e6edf3" fill-rule="nonzero"/><use xlink:href="#gD521879FE9FC48B338FDB7072AC7746E" x="44.59" y="0" fill="#e6edf3" fill-rule="nonzero"/><use xlink:href="#g5D4C608E3D9B464B6CE5CC20908573ED" x="49.14" y="0" fill="#e6edf3" fill-rule="nonzero"/><use xlink:href="#gD521879FE9FC48B338FDB7072AC7746E" x="51.9246" y="0" fill="#e6edf3" fill-rule="nonzero"/></g><defs><symbol id="g199C081543EB6953D1A4A35525511A21" overflow="visible"><path d="M 0 0m 9.36 8.489c 0.026 0.117 0.039 0.195 0.039 0.221c 0 0.117 -0.065 0.169 -0.208 0.169h -5.59c -0.325 0 -0.364 -0.039 -0.442 -0.299l -0.702 -2.301c -0.026 -0.065 -0.039 -0.143 -0.052 -0.208c 0.039 -0.104 0.065 -0.182 0.208 -0.182c 0.065 0 0.143 0.052 0.221 0.156c 0.273 0.845 0.637 1.456 1.092 1.807c 0.455 0.351 1.131 0.52 2.015 0.52h 1.976l -7.111 -7.943l -0.052 -0.26c 0 -0.117 0.078 -0.169 0.221 -0.169h 5.733c 0.338 0 0.377 0.026 0.455 0.299l 0.91 2.847c 0.013 0.052 0.052 0.143 0.052 0.195c 0 0.13 -0.078 0.195 -0.221 0.195c -0.091 0 -0.182 -0.117 -0.26 -0.364c -0.286 -0.884 -0.637 -1.534 -1.066 -1.95c -0.455 -0.455 -1.209 -0.676 -2.249 -0.676h -2.08Z "/></symbol><symbol id="gEA19E95F2BD269CDB5889EB31445E857" overflow="visible"><path d="M 0 0m 9.321 5.616v 0.026c 0 0.143 -0.065 0.208 -0.208 0.208c -0.091 0 -0.156 -0.052 -0.195 -0.143c -0.091 -0.455 -0.273 -0.806 -0.533 -1.027c -0.429 -0.377 -0.884 -0.559 -1.378 -0.559c -0.377 0 -0.767 0.143 -1.17 0.416c -0.741 0.533 -1.183 0.832 -1.326 0.923c -0.559 0.325 -1.053 0.481 -1.495 0.481c -1.391 0 -2.015 -0.975 -2.288 -2.249v -0.039c 0 -0.13 0.065 -0.195 0.208 -0.195c 0.117 0 0.182 0.052 0.208 0.156c 0.091 0.455 0.26 0.793 0.52 1.014c 0.429 0.377 0.884 0.559 1.391 0.559c 0.377 0 0.754 -0.143 1.157 -0.429c 0.741 -0.52 1.183 -0.819 1.326 -0.91c 0.559 -0.325 1.053 -0.481 1.495 -0.481c 1.391 0 2.015 0.975 2.288 2.249Z m 0 -2.808v 0.039c 0 0.13 -0.065 0.195 -0.208 0.195c -0.091 0 -0.156 -0.052 -0.195 -0.143c -0.091 -0.455 -0.273 -0.793 -0.533 -1.027c -0.429 -0.377 -0.884 -0.559 -1.378 -0.559c -0.377 0 -0.767 0.143 -1.17 0.429c -0.741 0.52 -1.183 0.819 -1.326 0.91c -0.559 0.325 -1.053 0.481 -1.495 0.481c -1.391 0 -2.015 -0.975 -2.288 -2.249v -0.026c 0 -0.143 0.065 -0.208 0.208 -0.208c 0.117 0 0.182 0.052 0.208 0.156c 0.091 0.455 0.26 0.793 0.52 1.014c 0.429 0.377 0.884 0.559 1.391 0.559c 0.377 0 0.754 -0.143 1.157 -0.416c 0.741 -0.533 1.183 -0.832 1.326 -0.923c 0.559 -0.325 1.053 -0.481 1.495 -0.481c 1.391 0 2.015 0.975 2.288 2.249Z "/></symbol><symbol id="g64370E30DF4B33A21FF4F57190C51178" overflow="visible"><path d="M 0 0m 3.497 8.658c -0.533 -0.546 -1.313 -0.819 -2.34 -0.819v -0.507c 0.676 0 1.235 0.104 1.664 0.312v -6.578c 0 -0.234 -0.052 -0.39 -0.169 -0.455c -0.117 -0.065 -0.442 -0.104 -0.962 -0.104h -0.455v -0.507c 0.325 0.026 1.027 0.039 2.106 0.039c 1.079 0 1.781 -0.013 2.106 -0.039v 0.507h -0.455c -0.533 0 -0.858 0.039 -0.962 0.104c -0.104 0.065 -0.169 0.221 -0.169 0.455v 7.202c 0 0.312 -0.026 0.39 -0.364 0.39Z "/></symbol><symbol id="gB2FE069A51D41D0F559BB2C2F59548AC" overflow="visible"><path d="M 0 0m 9.074 3.562h -3.705v 3.705c 0 0.208 -0.104 0.312 -0.312 0.312c -0.208 0 -0.312 -0.104 -0.312 -0.312v -3.705h -3.705c -0.208 0 -0.312 -0.104 -0.312 -0.312c 0 -0.208 0.104 -0.312 0.312 -0.312h 3.705v -3.705c 0 -0.208 0.104 -0.312 0.312 -0.312c 0.208 0 0.312 0.104 0.312 0.312v 3.705h 3.705c 0.208 0 0.312 0.104 0.312 0.312c 0 0.169 -0.143 0.312 -0.312 0.312Z "/></symbol><symbol id="gC85125468F8DCC25C1F22CADF7101B66" overflow="visible"><path d="M 0 0m 3.653 5.785c -0.468 0 -0.936 -0.221 -1.391 -0.663l 0.897 3.705c -0.026 0.117 -0.065 0.195 -0.221 0.195c -0.429 0 -1.378 -0.117 -1.547 -0.13c -0.195 -0.026 -0.299 -0.117 -0.299 -0.312c 0 -0.13 0.117 -0.195 0.364 -0.195c 0.247 0 0.585 0.013 0.585 -0.169c 0 -0.052 -0.065 -0.312 -0.182 -0.793l -1.04 -4.186c -0.143 -0.546 -0.208 -0.988 -0.208 -1.313c 0 -1.118 0.598 -2.067 1.664 -2.067c 0.845 0 1.586 0.429 2.236 1.3c 0.585 0.806 0.884 1.651 0.884 2.522c 0 1.131 -0.663 2.106 -1.742 2.106Z m -0.026 -0.39c 0.507 0 0.754 -0.39 0.754 -1.157c 0 -0.351 -0.078 -0.819 -0.234 -1.404c -0.286 -1.105 -0.663 -1.859 -1.118 -2.262c -0.26 -0.221 -0.507 -0.325 -0.754 -0.325c -0.533 0 -0.793 0.416 -0.793 1.248c 0 0.286 0.065 0.715 0.195 1.287l 0.286 1.17c 0.039 0.195 0.104 0.338 0.182 0.442c 0.507 0.663 1.001 1.001 1.482 1.001Z "/></symbol><symbol id="gB4EA66346A2257E70C9E2F21B9C102F" overflow="visible"><path d="M 0 0m 7.215 8.879h -4.16c -0.299 0 -0.442 -0.013 -0.442 -0.299c 0 -0.143 0.143 -0.208 0.429 -0.208c 0.26 0 0.78 0.039 0.78 -0.169c 0 -0.026 -0.013 -0.104 -0.052 -0.234l -1.716 -6.903c -0.078 -0.286 -0.208 -0.455 -0.39 -0.52c -0.091 -0.026 -0.325 -0.039 -0.728 -0.039c -0.286 0 -0.416 -0.026 -0.416 -0.299c 0 -0.143 0.078 -0.208 0.247 -0.208l 1.625 0.039l 0.832 -0.013c 0.143 0 0.663 -0.026 0.832 -0.026c 0.208 0 0.312 0.104 0.312 0.312c 0 0.13 -0.143 0.195 -0.416 0.195c -0.52 0 -0.78 0.052 -0.78 0.169c 0 0 0.013 0.039 0.039 0.208l 0.78 3.172h 2.145c 0.845 0 1.651 0.26 2.405 0.767c 0.845 0.559 1.261 1.248 1.261 2.067c 0 1.287 -1.222 1.989 -2.587 1.989Z m -0.403 -0.507c 1.131 0 1.69 -0.39 1.69 -1.17c 0 -0.728 -0.364 -1.703 -0.741 -2.041c -0.494 -0.442 -1.144 -0.663 -1.95 -0.663h -1.742l 0.858 3.432c 0.104 0.442 0.104 0.442 0.65 0.442Z "/></symbol><symbol id="gF243718FB94FD6339F3F4E1DA64D0D9F" overflow="visible"><path d="M 0 0m 9.607 6.903c 0 0.663 -0.338 1.17 -1.001 1.534c -0.533 0.299 -1.17 0.442 -1.885 0.442h -3.666c -0.299 0 -0.429 -0.013 -0.429 -0.312c 0 -0.091 0.039 -0.156 0.117 -0.169c 0.13 -0.013 0.234 -0.026 0.299 -0.026c 0.39 -0.013 0.611 -0.039 0.676 -0.052c 0.065 -0.013 0.104 -0.052 0.104 -0.117c 0 -0.026 -0.013 -0.104 -0.052 -0.234l -1.716 -6.903c -0.065 -0.286 -0.195 -0.468 -0.39 -0.533c -0.091 -0.026 -0.325 -0.039 -0.728 -0.039c -0.286 0 -0.403 -0.013 -0.403 -0.299c 0 -0.143 0.078 -0.208 0.234 -0.195l 1.612 0.039l 1.638 -0.039c 0.208 -0.013 0.312 0.104 0.312 0.299c 0 0.13 -0.143 0.195 -0.416 0.195c -0.52 0 -0.78 0.065 -0.78 0.182c 0 0 0.013 0.026 0.039 0.208l 0.832 3.367h 1.495c 0.897 0 1.352 -0.377 1.352 -1.118c 0 -0.117 -0.065 -0.403 -0.182 -0.871c -0.143 -0.546 -0.208 -0.91 -0.208 -1.105c 0 -0.988 0.767 -1.443 1.755 -1.443c 0.364 0 0.715 0.169 1.066 0.494c 0.351 0.325 0.533 0.676 0.533 1.04c 0 0.13 -0.065 0.195 -0.208 0.195c -0.091 0 -0.169 -0.065 -0.208 -0.208c -0.143 -0.403 -0.325 -0.702 -0.533 -0.871c -0.208 -0.169 -0.403 -0.26 -0.598 -0.26c -0.299 0 -0.455 0.247 -0.455 0.728c 0 0.312 0.039 0.793 0.13 1.456c 0.039 0.273 0.052 0.468 0.052 0.611c 0 0.689 -0.364 1.196 -1.092 1.508c 1.222 0.299 2.704 1.17 2.704 2.496Z m -1.69 1.105c 0.26 -0.169 0.39 -0.455 0.39 -0.858c 0 -0.26 -0.052 -0.559 -0.169 -0.91c -0.351 -1.066 -1.235 -1.599 -2.652 -1.599h -1.378l 0.819 3.289c 0.065 0.273 0.169 0.416 0.312 0.429c 0.065 0.013 0.325 0.013 0.78 0.013c 0.845 0 1.339 -0.026 1.898 -0.364Z "/></symbol><symbol id="g7096DBAD9DDFA59726AF1613A04D446" overflow="visible"><path d="M 0 0m 4.472 8.203c 0 -0.039 -0.013 -0.13 -0.052 -0.26l -1.716 -6.864c -0.052 -0.195 -0.104 -0.312 -0.143 -0.364c -0.117 -0.143 -0.559 -0.208 -1.339 -0.208c -0.403 0 -0.585 0.039 -0.585 -0.299c 0 -0.143 0.091 -0.208 0.26 -0.208c 0.663 0 1.599 0.052 2.158 0.039l 1.066 -0.013c 0.182 0 0.897 -0.026 1.118 -0.026c 0.221 0 0.325 0.104 0.325 0.312c 0 0.13 -0.156 0.195 -0.481 0.195c -0.676 0 -1.066 0.026 -1.183 0.091c -0.039 0.026 -0.065 0.078 -0.065 0.156l 1.755 7.085c 0.039 0.182 0.078 0.299 0.117 0.338c 0.052 0.078 0.364 0.117 0.936 0.117c 0.715 0 1.209 -0.052 1.456 -0.169c 0.247 -0.117 0.377 -0.39 0.377 -0.832c 0 -0.234 -0.039 -0.572 -0.104 -1.014c -0.026 -0.104 -0.039 -0.182 -0.039 -0.247c 0 -0.143 0.065 -0.221 0.208 -0.221c 0.117 0 0.195 0.117 0.234 0.338l 0.351 2.236c 0.013 0.065 0.026 0.143 0.026 0.221c 0 0.13 -0.13 0.195 -0.403 0.195h -7.124c -0.338 0 -0.364 -0.039 -0.468 -0.286l -0.767 -2.262c -0.039 -0.117 -0.065 -0.195 -0.078 -0.247c 0 -0.13 0.065 -0.195 0.208 -0.195c 0.104 0 0.195 0.104 0.26 0.299c 0.325 0.949 0.65 1.534 0.949 1.781c 0.338 0.273 0.988 0.403 1.937 0.403h 0.507c 0.143 0 0.299 0.013 0.299 -0.091Z "/></symbol><symbol id="gFCC8AED63E37CE6EFDC28131B6356A7F" overflow="visible"><path d="M 0 0m 8.918 2.951c 0.13 0.065 0.195 0.156 0.195 0.299c 0 0.143 -0.065 0.234 -0.195 0.299l -7.462 3.536c -0.039 0.013 -0.091 0.026 -0.143 0.026c -0.208 0 -0.312 -0.104 -0.312 -0.325c 0 -0.117 0.065 -0.208 0.182 -0.26l 6.942 -3.276l -6.942 -3.276c -0.117 -0.052 -0.182 -0.143 -0.182 -0.26c 0 -0.221 0.104 -0.325 0.312 -0.325c 0.052 0 0.104 0.013 0.143 0.026Z "/></symbol><symbol id="g874E1D8B5E89A114F8A483997D2AC0A4" overflow="visible"><path d="M 0 0m 6.63 -3.822h 6.396v 1.378h -6.396c -1.625 0 -3.029 0.117 -4.186 0.364c -1.157 0.247 -1.833 0.624 -2.028 1.131c -0.039 0.091 -0.104 0.143 -0.195 0.143c -0.143 0 -0.221 -0.065 -0.221 -0.208c 0 -0.039 0 -0.078 0.013 -0.091c 0.325 -0.858 1.287 -1.547 2.912 -2.08c 1.3 -0.429 2.535 -0.637 3.705 -0.637Z "/></symbol><symbol id="g53E38CC9ADF7F52FE2384DF31C850A1B" overflow="visible"><path d="M 0 0m 0 -3.822h 12.922v 1.378h -12.922Z "/></symbol><symbol id="gB63034A9BEFF1005565E30F2B5FC9FED" overflow="visible"><path d="M 0 0m 19.448 -3.822h 6.591v 1.378h -6.591c -1.157 0 -2.327 -0.156 -3.484 -0.468c -1.469 -0.403 -2.457 -0.962 -2.951 -1.703c -0.494 0.741 -1.482 1.3 -2.951 1.703c -1.157 0.312 -2.327 0.468 -3.484 0.468h -6.578v -1.378h 6.578c 1.859 0 3.367 -0.117 4.524 -0.351c 1.131 -0.221 1.69 -0.585 1.69 -1.066c 0 -0.143 0.078 -0.208 0.221 -0.208c 0.143 0 0.221 0.065 0.221 0.208c 0 0.481 0.572 0.845 1.716 1.079c 1.144 0.234 2.639 0.338 4.498 0.338Z "/></symbol><symbol id="gE178E3918AA5B0301112DBF43C4D2BD3" overflow="visible"><path d="M 0 0m 13 -1.105c 0.013 0.013 0.013 0.052 0.013 0.091c 0 0.143 -0.078 0.208 -0.221 0.208c -0.091 0 -0.169 -0.052 -0.208 -0.143c -0.182 -0.507 -0.858 -0.884 -2.015 -1.131c -1.157 -0.247 -2.561 -0.364 -4.186 -0.364h -6.383v -1.378h 6.383c 1.17 0 2.405 0.208 3.705 0.637c 1.625 0.533 2.587 1.222 2.912 2.08Z "/></symbol><symbol id="gAC7F30885AF642A49091A4E8ECAD97D4" overflow="visible"><path d="M 0 0m 3.5945 2.8392c 0.5187 0 0.9828 0.1456 1.3923 0.4368c 0.4641 0.3276 0.6916 0.7371 0.6916 1.2285c 0 0.5187 -0.2366 0.9464 -0.7098 1.274c -0.4186 0.2912 -0.9009 0.4368 -1.4469 0.4368h -3.2032v -0.3549h 0.2548c 0.3185 0 0.5096 -0.0273 0.5733 -0.0728c 0.0637 -0.0455 0.1001 -0.1456 0.1001 -0.3094v -4.7411c 0 -0.1638 -0.0364 -0.273 -0.1001 -0.3185c -0.0637 -0.0455 -0.2548 -0.0637 -0.5733 -0.0637h -0.2548v -0.3549c 0.2366 0.0182 0.6916 0.0273 1.3559 0.0273c 0.6734 0 1.1284 -0.0091 1.365 -0.0273v 0.3549h -0.2548c -0.3185 0 -0.5096 0.0182 -0.5733 0.0637c -0.0637 0.0455 -0.1001 0.1547 -0.1001 0.3185v 2.1021Z m -1.1011 3.0212h 0.8008c 0.2639 0 0.4914 -0.0364 0.6825 -0.1001c 0.5187 -0.1911 0.7007 -0.5733 0.7007 -1.2558c 0 -0.2548 -0.0273 -0.4732 -0.091 -0.6552c -0.1547 -0.455 -0.6461 -0.7007 -1.2922 -0.7007h -1.2103v 2.3933c 0 0.3276 0.0546 0.3185 0.4095 0.3185Z "/></symbol><symbol id="gD521879FE9FC48B338FDB7072AC7746E" overflow="visible"><path d="M 0 0m 4.3953 0.8281v 0.5369h -0.2912v -0.5369c 0 -0.3549 -0.1001 -0.5369 -0.2912 -0.5369c -0.182 0 -0.2912 0.2275 -0.2912 0.4095v 1.7927c 0 0.3185 -0.0364 0.5551 -0.1001 0.7189c -0.2184 0.5369 -0.8463 0.8645 -1.4833 0.8645c -0.7007 0 -1.3923 -0.3913 -1.3923 -1.0465c 0 -0.3003 0.1547 -0.455 0.455 -0.455c 0.3003 0 0.4459 0.1456 0.4459 0.4459c 0 0.2639 -0.1365 0.4186 -0.4186 0.4459c 0.2002 0.2275 0.5005 0.3458 0.8918 0.3458c 0.5642 0 0.91 -0.5187 0.91 -1.1102v -0.3003c -0.7098 -0.0455 -1.2467 -0.1547 -1.6198 -0.3276c -0.6097 -0.2821 -0.9191 -0.6734 -0.9191 -1.1921c 0 -0.2366 0.091 -0.4368 0.2639 -0.5915c 0.2912 -0.2639 0.6916 -0.3913 1.2012 -0.3913c 0.5369 0 0.9191 0.2275 1.1557 0.6916c 0.0637 -0.3458 0.3185 -0.6461 0.7098 -0.6461c 0.4823 0 0.7735 0.3822 0.7735 0.8827Z m -2.5753 -0.6643c -0.4186 0 -0.7644 0.3094 -0.7644 0.728c 0 0.8463 0.8827 1.2103 1.7745 1.2558v -0.8645c 0 -0.6097 -0.4004 -1.1193 -1.0101 -1.1193Z "/></symbol><symbol id="g8E2CF97F8427FAA51DF7EB074D56158A" overflow="visible"><path d="M 0 0m 1.3104 0.0273l 1.0101 -0.0273v 0.3549c -0.3276 0 -0.5278 0.0091 -0.5915 0.0455c -0.0637 0.0364 -0.091 0.1456 -0.091 0.3185v 5.5965l -1.3377 -0.1001v -0.3458c 0.3185 0 0.5187 -0.0273 0.5824 -0.0819c 0.0637 -0.0546 0.1001 -0.182 0.1001 -0.3913v -4.6774c 0 -0.1729 -0.0273 -0.2821 -0.091 -0.3185c -0.0637 -0.0364 -0.2639 -0.0455 -0.5915 -0.0455v -0.3549Z "/></symbol><symbol id="g71B76DC51F60CF97CFD99DB1C339E79" overflow="visible"><path d="M 0 0m 3.0212 1.1466v 0.546h -0.2912v -0.5278c 0 -0.455 -0.1638 -0.9646 -0.5642 -0.9646c -0.3731 0 -0.5551 0.3094 -0.5551 0.9282v 2.4661h 1.2649v 0.3458h -1.2649v 1.6562h -0.2912c -0.0091 -0.3003 -0.0364 -0.5642 -0.1001 -0.8008c -0.1547 -0.6006 -0.5096 -0.91 -1.0465 -0.9373v -0.2639h 0.7553v -2.4479c 0 -0.5369 0.1638 -0.8827 0.4823 -1.0556c 0.2457 -0.1274 0.4732 -0.1911 0.7007 -0.1911c 0.6006 0 0.91 0.6006 0.91 1.2467Z "/></symbol><symbol id="gE8DC7C60F8FC1F2370CCFE9B9CA54929" overflow="visible"><path d="M 0 0m 1.7472 3.4125c 0 0.273 -0.2093 0.5096 -0.4823 0.5096c -0.273 0 -0.4823 -0.2366 -0.4823 -0.5096c 0 -0.273 0.2093 -0.5096 0.4823 -0.5096c 0.273 0 0.4823 0.2366 0.4823 0.5096Z m 0 -2.9029c 0 0.273 -0.2093 0.5096 -0.4823 0.5096c -0.273 0 -0.4823 -0.2366 -0.4823 -0.5096c 0 -0.273 0.2093 -0.5096 0.4823 -0.5096c 0.273 0 0.4823 0.2366 0.4823 0.5096Z "/></symbol><symbol id="g7C86E2A440F48F0F6051EFD4BE8606BB" overflow="visible"><path d="M 0 0m 3.4034 -0.1001l 1.3923 0.1001v 0.3458c -0.3276 0 -0.5187 0.0182 -0.5915 0.0728c -0.0728 0.0546 -0.1092 0.1911 -0.1092 0.4004v 5.4964l -1.3559 -0.1001v -0.3458c 0.3185 0 0.5187 -0.0273 0.5915 -0.0819c 0.0728 -0.0546 0.1001 -0.182 0.1001 -0.3913v -1.8473c -0.2912 0.3367 -0.6552 0.5005 -1.092 0.5005c -0.5642 0 -1.0465 -0.2002 -1.4378 -0.6097c -0.3913 -0.4095 -0.5915 -0.9009 -0.5915 -1.4742c 0 -0.5551 0.182 -1.0374 0.5551 -1.4469c 0.3731 -0.4095 0.8281 -0.6188 1.3832 -0.6188c 0.4641 0 0.8554 0.1729 1.1557 0.5278Z m -1.0283 3.8766c 0.3913 0 0.7098 -0.1729 0.9373 -0.5187c 0.0637 -0.1001 0.091 -0.2002 0.091 -0.3185v -1.8382c 0 -0.1183 -0.0273 -0.2184 -0.091 -0.3185c -0.2548 -0.4095 -0.6006 -0.6097 -1.0283 -0.6097c -0.3731 0 -0.6734 0.182 -0.91 0.5551c -0.1638 0.273 -0.2457 0.6825 -0.2457 1.2285c 0 0.9919 0.3367 1.82 1.2467 1.82Z "/></symbol><symbol id="g470E3D9B05490F4329D4462D6C751B09" overflow="visible"><path d="M 0 0m 2.2659 -0.1001c 0.5642 0 1.0374 0.2002 1.4287 0.6006c 0.3913 0.4004 0.5915 0.8827 0.5915 1.4469c 0 0.5733 -0.1911 1.0738 -0.5733 1.4924c -0.3822 0.4186 -0.8645 0.637 -1.4378 0.637c -0.5733 0 -1.0465 -0.2184 -1.4378 -0.637c -0.3913 -0.4186 -0.5824 -0.9191 -0.5824 -1.4924c 0 -0.5642 0.1911 -1.0465 0.5824 -1.4469c 0.3913 -0.4004 0.8736 -0.6006 1.4287 -0.6006Z m 0.0091 0.2912c -0.4368 0 -0.7644 0.1911 -0.9919 0.5824c -0.1456 0.2548 -0.2184 0.6734 -0.2184 1.2467c 0 0.5551 0.0728 0.9555 0.2093 1.2103c 0.2184 0.3913 0.546 0.5824 0.9919 0.5824c 0.4277 0 0.7553 -0.1911 0.9828 -0.5642c 0.1547 -0.2548 0.2275 -0.6643 0.2275 -1.2285c 0 -1.0556 -0.3094 -1.8291 -1.2012 -1.8291Z "/></symbol><symbol id="g15BA1FE8A75D8E8B201C54DEFA8660AD" overflow="visible"><path d="M 0 0m 2.8665 3.7583c 0.4186 0 0.6279 -0.3185 0.6279 -0.9646v -2.0748c 0 -0.1729 -0.0273 -0.2821 -0.091 -0.3185c -0.0637 -0.0364 -0.273 -0.0546 -0.6097 -0.0546v -0.3458l 1.0556 0.0273l 1.0465 -0.0273v 0.3458c -0.3367 0 -0.5369 0.0182 -0.6006 0.0546c -0.0637 0.0364 -0.1001 0.1456 -0.1001 0.3185v 1.638c 0 0.728 0.4732 1.4014 1.1739 1.4014c 0.4277 0 0.637 -0.3185 0.637 -0.9646v -2.0748c 0 -0.1729 -0.0364 -0.2821 -0.1001 -0.3185c -0.0637 -0.0364 -0.273 -0.0546 -0.6097 -0.0546v -0.3458l 1.0556 0.0273l 1.0465 -0.0273v 0.3458c -0.2912 0 -0.4823 0.0091 -0.5733 0.0364c -0.091 0.0273 -0.1274 0.091 -0.1274 0.2002v 1.7017c 0 0.4277 -0.0182 0.728 -0.0455 0.9009c -0.091 0.5551 -0.5005 0.8372 -1.2194 0.8372c -0.5733 0 -1.001 -0.2639 -1.2922 -0.8008c -0.1274 0.5369 -0.5278 0.8008 -1.2103 0.8008c -0.5733 0 -1.0101 -0.273 -1.3013 -0.819v 0.819l -1.3377 -0.1001v -0.3458c 0.3276 0 0.5278 -0.0273 0.6006 -0.0819c 0.0728 -0.0546 0.1001 -0.1729 0.1001 -0.3822v -2.3933c 0 -0.1729 -0.0364 -0.2821 -0.1001 -0.3185c -0.0637 -0.0364 -0.2639 -0.0546 -0.6006 -0.0546v -0.3458l 1.0556 0.0273l 1.0465 -0.0273v 0.3458c -0.3367 0 -0.546 0.0182 -0.6097 0.0546c -0.0637 0.0364 -0.1001 0.1456 -0.1001 0.3185v 1.638c 0 0.7371 0.4823 1.4014 1.183 1.4014Z "/></symbol><symbol id="g9334BF3DBCFEAE906CD06C92C01634B4" overflow="visible"><path d="M 0 0m 1.7654 5.4691c 0 0.273 -0.2275 0.5096 -0.5005 0.5096c -0.273 0 -0.5096 -0.2366 -0.5096 -0.5096c 0 -0.273 0.2275 -0.5187 0.5005 -0.5187c 0.2821 0 0.5096 0.2366 0.5096 0.5187Z m -0.4641 -5.4418l 0.9464 -0.0273v 0.3549c -0.3003 0 -0.4823 0.0182 -0.5369 0.0546c -0.0546 0.0364 -0.0728 0.1365 -0.0728 0.3003v 3.3397l -1.3013 -0.1092v -0.3458c 0.3003 0 0.4914 -0.0273 0.5551 -0.0728c 0.0637 -0.0455 0.091 -0.1729 0.091 -0.3822v -2.4206c 0 -0.1729 -0.0273 -0.2821 -0.091 -0.3185c -0.0637 -0.0364 -0.2639 -0.0455 -0.5915 -0.0455v -0.3549Z "/></symbol><symbol id="g2CB3CA5990C42A1BB561E0F6CA6FBA9A" overflow="visible"><path d="M 0 0m 2.8574 3.7583c 0.4095 0 0.6188 -0.3185 0.6188 -0.9646v -2.0748c 0 -0.1729 -0.0273 -0.2821 -0.091 -0.3185c -0.0637 -0.0364 -0.2639 -0.0546 -0.6006 -0.0546v -0.3458l 1.0465 0.0273l 1.0374 -0.0273v 0.3458c -0.2912 0 -0.4823 0.0091 -0.5733 0.0364c -0.091 0.0273 -0.1274 0.091 -0.1274 0.2002v 1.7017c 0 0.4277 -0.0091 0.728 -0.0364 0.9009c -0.091 0.5551 -0.5005 0.8372 -1.2194 0.8372c -0.5733 0 -1.001 -0.273 -1.2831 -0.819v 0.819l -1.3377 -0.1001v -0.3458c 0.3276 0 0.5278 -0.0273 0.6006 -0.0819c 0.0728 -0.0546 0.1001 -0.1729 0.1001 -0.3822v -2.3933c 0 -0.1729 -0.0364 -0.2821 -0.1001 -0.3185c -0.0637 -0.0364 -0.2639 -0.0546 -0.6006 -0.0546v -0.3458l 1.0465 0.0273l 1.0374 -0.0273v 0.3458c -0.3367 0 -0.5278 0.0182 -0.5915 0.0546c -0.0637 0.0364 -0.1001 0.1456 -0.1001 0.3185v 1.638c 0 0.7371 0.4641 1.4014 1.1739 1.4014Z "/></symbol><symbol id="g81A0C80BF1E189C03F1C698418AA9A5F" overflow="visible"><path d="M 0 0m 2.912 4.0404c -0.3549 0 -0.7098 -0.1456 -1.0647 -0.4368l 0.5915 2.3933c 0.0091 0.0182 0.0182 0.0728 0.0364 0.1547c 0 0.1092 -0.0637 0.1638 -0.182 0.1638l -1.1466 -0.091c -0.1547 -0.0091 -0.2275 -0.091 -0.2275 -0.2457c 0 -0.1001 0.091 -0.1547 0.273 -0.1547c 0.1547 0 0.3913 0 0.3913 -0.1001c 0 -0.0273 -0.0091 -0.091 -0.0364 -0.1911c -0.1365 -0.5551 -0.2457 -0.9737 -0.3094 -1.2558l -0.5915 -2.3933c -0.0273 -0.1274 -0.0455 -0.2821 -0.0455 -0.455c 0 -0.8463 0.5187 -1.5197 1.3468 -1.5197c 0.6188 0 1.1648 0.2821 1.6471 0.8372c 0.4641 0.5369 0.6916 1.1284 0.6916 1.7563c 0 0.8645 -0.5369 1.5379 -1.3741 1.5379Z m -1.6107 -2.9302c 0 0.2457 0.1092 0.7917 0.3367 1.6471c 0.0273 0.1183 0.091 0.2366 0.2093 0.3731c 0.3367 0.3913 0.6825 0.5824 1.0374 0.5824c 0.4095 0 0.6188 -0.2821 0.6188 -0.8372c 0 -0.5278 -0.2821 -1.4196 -0.4641 -1.7836c -0.182 -0.3822 -0.5915 -0.8554 -1.0829 -0.8554c -0.4368 0 -0.6552 0.4004 -0.6552 0.8736Z "/></symbol><symbol id="g93E2E4981C31CF08382CC32D1FDB09EE" overflow="visible"><path d="M 0 0m 9.074 3.51h -8.034c -0.208 0 -0.312 -0.091 -0.312 -0.26c 0 -0.169 0.104 -0.26 0.312 -0.26h 8.034c 0.208 0 0.312 0.091 0.312 0.26c 0 0.156 -0.156 0.26 -0.312 0.26Z "/></symbol><symbol id="g4C1F87D53067917A8407EB60D22EEE0D" overflow="visible"><path d="M 0 0m 6.474 1.872c 0 0.117 -0.065 0.182 -0.208 0.182c -0.104 0 -0.182 -0.091 -0.221 -0.273c -0.26 -1.027 -0.572 -1.547 -0.923 -1.547c -0.221 0 -0.338 0.182 -0.338 0.546c 0 0.169 0.052 0.481 0.169 0.936l 0.741 2.925c 0.065 0.247 0.091 0.39 0.091 0.455c 0 0.26 -0.143 0.39 -0.429 0.39c -0.273 0 -0.455 -0.156 -0.546 -0.455c -0.273 0.481 -0.663 0.715 -1.157 0.715c -0.845 0 -1.586 -0.429 -2.236 -1.287c -0.598 -0.806 -0.897 -1.638 -0.897 -2.509c 0 -1.131 0.663 -2.093 1.755 -2.093c 0.559 0 1.105 0.299 1.625 0.897c 0.143 -0.494 0.585 -0.897 1.196 -0.897c 0.897 0 1.17 1.053 1.378 2.015Z m -2.041 2.99c 0.117 -0.273 0.182 -0.455 0.182 -0.572c 0 -0.052 -0.013 -0.117 -0.026 -0.208l -0.637 -2.496c -0.039 -0.143 -0.13 -0.299 -0.247 -0.455c -0.481 -0.598 -0.949 -0.897 -1.404 -0.897c -0.507 0 -0.767 0.39 -0.767 1.157c 0 0.312 0.078 0.78 0.234 1.404c 0.273 1.105 0.663 1.846 1.144 2.249c 0.26 0.221 0.507 0.325 0.754 0.325c 0.351 0 0.611 -0.169 0.767 -0.507Z "/></symbol><symbol id="g2C99166171D18D38BA7BBC782359B2DE" overflow="visible"><path d="M 0 0m 4.134 -3.224c 0.117 0 0.182 0.065 0.182 0.182c 0 0.039 -0.026 0.091 -0.065 0.143c -0.676 0.52 -1.222 1.378 -1.625 2.561c -0.351 1.027 -0.533 2.041 -0.533 3.042v 1.092c 0 1.001 0.182 2.015 0.533 3.042c 0.403 1.183 0.949 2.041 1.625 2.561c 0.039 0.039 0.065 0.091 0.065 0.143c 0 0.117 -0.065 0.182 -0.182 0.182c -0.013 0 -0.052 -0.013 -0.091 -0.039c -0.78 -0.598 -1.43 -1.482 -1.963 -2.665c -0.507 -1.131 -0.767 -2.197 -0.767 -3.224v -1.092c 0 -1.027 0.26 -2.093 0.767 -3.224c 0.533 -1.183 1.183 -2.067 1.963 -2.665c 0.039 -0.026 0.078 -0.039 0.091 -0.039Z "/></symbol><symbol id="g96BE5517D6E715F25FC8548E8B9DD04A" overflow="visible"><path d="M 0 0m 1.014 -3.185c 0.78 0.598 1.43 1.482 1.963 2.665c 0.507 1.131 0.767 2.197 0.767 3.224v 1.092c 0 1.027 -0.26 2.093 -0.767 3.224c -0.533 1.183 -1.183 2.067 -1.963 2.665c -0.039 0.026 -0.078 0.039 -0.091 0.039c -0.117 0 -0.182 -0.065 -0.182 -0.182c 0 -0.052 0.026 -0.104 0.065 -0.143c 0.676 -0.52 1.222 -1.378 1.625 -2.561c 0.351 -1.027 0.533 -2.041 0.533 -3.042v -1.092c 0 -1.001 -0.182 -2.015 -0.533 -3.042c -0.403 -1.183 -0.949 -2.041 -1.625 -2.561c -0.039 -0.052 -0.065 -0.104 -0.065 -0.143c 0 -0.117 0.065 -0.182 0.182 -0.182c 0.013 0 0.052 0.013 0.091 0.039Z "/></symbol><symbol id="gE54D62E810103456753331C5E7463C1E" overflow="visible"><path d="M 0 0m 1.0829 3.8584c 0.2912 0 0.5096 0.2184 0.5096 0.5096c 0 0.3276 -0.1729 0.5005 -0.5096 0.5096c 0.2002 0.4277 0.6552 0.7735 1.2467 0.7735c 0.8008 0 1.3286 -0.6006 1.3286 -1.4014c 0 -0.4368 -0.1547 -0.8554 -0.4732 -1.2649c -0.1547 -0.2093 -0.273 -0.3549 -0.3549 -0.4368l -2.1567 -2.1385c -0.1183 -0.1092 -0.1001 -0.1365 -0.1001 -0.4095h 3.7492l 0.2821 1.7108h -0.3822c -0.0637 -0.4823 -0.1365 -0.7644 -0.2184 -0.8281c -0.0455 -0.0273 -0.3276 -0.0455 -0.8645 -0.0455h -1.547c 0.6097 0.5369 1.1739 1.0192 1.7108 1.4469c 0.4095 0.3185 0.7007 0.6006 0.8827 0.8463c 0.273 0.3549 0.4095 0.728 0.4095 1.1193c 0 0.5642 -0.2184 1.0101 -0.6643 1.3377c -0.3913 0.3003 -0.8827 0.455 -1.4651 0.455c -0.5005 0 -0.9282 -0.1456 -1.3013 -0.4368c -0.3913 -0.3185 -0.5915 -0.7189 -0.5915 -1.2103c 0 -0.3094 0.2275 -0.5369 0.5096 -0.5369Z "/></symbol><symbol id="gEC392E12A837623E242B01D0CC11F4D6" overflow="visible"><path d="M 0 0m 8.658 -0.585c 0.221 -0.091 0.455 0.078 0.455 0.286c 0 0.13 -0.065 0.221 -0.182 0.273l -6.942 3.276l 6.942 3.276c 0.117 0.052 0.182 0.143 0.182 0.26c 0 0.221 -0.104 0.325 -0.312 0.325c -0.052 0 -0.104 -0.013 -0.143 -0.026l -7.462 -3.536c -0.13 -0.065 -0.195 -0.156 -0.195 -0.299c 0 -0.143 0.065 -0.234 0.195 -0.299Z "/></symbol><symbol id="gC02C87DF8045598F1623CFFC0107B91A" overflow="visible"><path d="M 0 0m 2.7118 -0.1001c 0.5642 0 1.0465 0.2002 1.4378 0.6097c 0.3913 0.4095 0.5915 0.8918 0.5915 1.4651c 0 0.5551 -0.182 1.0465 -0.5551 1.456c -0.3731 0.4095 -0.8281 0.6188 -1.3832 0.6188c -0.4459 0 -0.8463 -0.1729 -1.183 -0.5278v 2.7937l -1.365 -0.1001v -0.3458c 0.3276 0 0.5278 -0.0273 0.6006 -0.0819c 0.0728 -0.0546 0.1001 -0.182 0.1001 -0.3913v -5.3963h 0.2821l 0.3003 0.5278c 0.2912 -0.4186 0.6825 -0.6279 1.1739 -0.6279Z m -0.0364 0.273c -0.3731 0 -0.6825 0.1729 -0.91 0.5278c -0.0819 0.1183 -0.1183 0.2457 -0.1183 0.364v 1.8473c 0 0.1183 0.0273 0.2184 0.091 0.3094c 0.2639 0.3731 0.6006 0.5551 1.0283 0.5551c 0.3731 0 0.6734 -0.182 0.91 -0.5551c 0.1638 -0.273 0.2457 -0.6825 0.2457 -1.2376c 0 -0.9828 -0.3458 -1.8109 -1.2467 -1.8109Z "/></symbol><symbol id="g5D4C608E3D9B464B6CE5CC20908573ED" overflow="visible"><path d="M 0 0m 1.911 5.4691c 0 0.273 -0.2275 0.5096 -0.5005 0.5096c -0.2821 0 -0.5096 -0.2275 -0.5096 -0.5096c 0 -0.2821 0.2184 -0.5187 0.5005 -0.5187c 0.2821 0 0.5096 0.2366 0.5096 0.5187Z m 0 -5.8968v 4.4681l -1.4105 -0.1001v -0.3549c 0.3549 0 0.5733 -0.0182 0.6461 -0.0728c 0.0728 -0.0546 0.1092 -0.182 0.1092 -0.3913v -3.5672c 0 -0.2548 -0.0364 -0.5005 -0.1001 -0.728c -0.0819 -0.2821 -0.2548 -0.4186 -0.5096 -0.4186c -0.1274 0 -0.2548 0.0273 -0.3822 0.0728c 0.1729 0.0819 0.2548 0.2184 0.2548 0.4095c 0 0.3003 -0.1456 0.455 -0.4459 0.455c -0.2912 0 -0.4368 -0.1547 -0.4368 -0.455c 0 -0.4914 0.5005 -0.7553 1.0283 -0.7553c 0.7462 0 1.2467 0.6643 1.2467 1.4378Z "/></symbol><symbol id="gED72F04BD546482B50753A218A35FA4" overflow="visible"><path d="M 0 0m 1.9474 -0.091c 0.4095 0 0.8281 0.2002 1.2558 0.6006c 0.1456 -0.3731 0.4732 -0.6006 0.9373 -0.6006c 0.3003 0 0.546 0.1638 0.7371 0.4914c 0.0728 0.1183 0.3185 0.728 0.3185 0.91c 0 0.1001 -0.0637 0.1547 -0.182 0.1547c -0.0455 0 -0.0819 -0.0091 -0.1092 -0.0273c -0.0637 -0.1092 -0.1092 -0.2002 -0.1183 -0.273c -0.1547 -0.6279 -0.364 -0.9373 -0.6188 -0.9373c -0.1729 0 -0.2639 0.1365 -0.2639 0.4095c 0 0.1001 0.0455 0.3276 0.1365 0.6916l 0.2002 0.8099c 0.0728 0.3003 0.1274 0.5278 0.1729 0.6734l 0.1638 0.7098c 0 0.2093 -0.1092 0.3185 -0.3367 0.3185c -0.2093 0 -0.3549 -0.1001 -0.4277 -0.3094c -0.2275 0.3185 -0.5369 0.4823 -0.91 0.4823c -0.6188 0 -1.1739 -0.2821 -1.6562 -0.8372c -0.4641 -0.5369 -0.6916 -1.1193 -0.6916 -1.7472c 0 -0.8463 0.5642 -1.5197 1.3923 -1.5197Z m 1.5561 3.4489c 0.1092 -0.1911 0.1638 -0.3276 0.1638 -0.4095c 0 -0.0091 0 -0.0273 -0.0091 -0.0455l -0.4368 -1.7381c -0.0546 -0.2184 -0.2184 -0.4368 -0.5005 -0.637c -0.2821 -0.2002 -0.5278 -0.3003 -0.7462 -0.3003c -0.4095 0 -0.6188 0.2821 -0.6188 0.8372c 0 0.2184 0.0546 0.5187 0.1547 0.9191c 0.1001 0.4004 0.2002 0.6916 0.3003 0.8736c 0.3185 0.5551 0.6825 0.8372 1.092 0.8372c 0.2821 0 0.4823 -0.1092 0.6006 -0.3367Z "/></symbol><symbol id="gEB8632C8ABCBF9D286AE672C42A1C6EE" overflow="visible"><path d="M 0 0m 12.116 3.042c 0.091 0.039 0.143 0.117 0.143 0.208c 0 0.091 -0.052 0.169 -0.143 0.208c -0.624 0.208 -1.209 0.65 -1.755 1.326c -0.364 0.455 -0.611 0.988 -0.728 1.599c -0.039 0.169 -0.143 0.247 -0.312 0.247c -0.208 0 -0.312 -0.104 -0.312 -0.325l 0.013 -0.026v -0.013c 0.221 -1.131 0.793 -2.028 1.742 -2.704h -9.698c -0.208 0 -0.312 -0.104 -0.312 -0.312c 0 -0.208 0.104 -0.312 0.312 -0.312h 9.698c -0.949 -0.676 -1.521 -1.573 -1.742 -2.704v -0.013l -0.013 -0.026c 0 -0.221 0.104 -0.325 0.312 -0.325c 0.169 0 0.273 0.078 0.312 0.247c 0.117 0.611 0.364 1.144 0.728 1.599c 0.546 0.676 1.131 1.118 1.755 1.326Z "/></symbol><symbol id="g6060269333C37D9733E1D524F5EEA566" overflow="visible"><path d="M 0 0m 38.987 -1.157c 0.013 0.013 0.013 0.039 0.013 0.065c 0 0.117 -0.065 0.182 -0.182 0.182c -0.078 0 -0.13 -0.039 -0.169 -0.117c -0.208 -0.585 -0.975 -1.001 -2.314 -1.274c -0.871 -0.169 -1.807 -0.26 -2.808 -0.26h -8.736c -0.975 0 -1.95 -0.143 -2.899 -0.429c -1.209 -0.351 -2.002 -0.871 -2.392 -1.534c -0.39 0.663 -1.183 1.183 -2.392 1.534c -0.949 0.286 -1.924 0.429 -2.899 0.429h -8.736c -1.001 0 -1.937 0.091 -2.808 0.26c -1.339 0.273 -2.106 0.689 -2.314 1.274c -0.039 0.078 -0.091 0.117 -0.169 0.117c -0.117 0 -0.182 -0.065 -0.182 -0.182c 0 -0.026 0 -0.052 0.013 -0.065c 0.221 -0.611 0.858 -1.183 1.937 -1.703c 1.079 -0.52 2.249 -0.793 3.523 -0.793h 8.736c 1.482 0 2.704 -0.117 3.666 -0.377c 0.962 -0.26 1.443 -0.624 1.443 -1.092c 0 -0.117 0.065 -0.182 0.182 -0.182c 0.117 0 0.182 0.065 0.182 0.182c 0 0.468 0.481 0.832 1.443 1.092c 0.962 0.26 2.184 0.377 3.666 0.377h 8.736c 1.274 0 2.444 0.273 3.523 0.793c 1.079 0.52 1.716 1.092 1.937 1.703Z "/></symbol><symbol id="gA312FCBFDF86DC62F1841ECB566A6866" overflow="visible"><path d="M 0 0m 5.9423 4.0677h 0.2912l -0.1729 2.093h -5.5601l -0.1729 -2.093h 0.2912c 0.0637 0.6006 0.091 1.1375 0.3458 1.4378c 0.2366 0.273 0.6825 0.3003 1.2376 0.3003c 0.2639 0 0.4277 0 0.4823 -0.0091c 0.1638 -0.0364 0.1638 -0.1183 0.1638 -0.3094v -4.7411c 0 -0.1183 -0.0091 -0.1911 -0.0364 -0.2366c -0.0546 -0.1001 -0.3458 -0.1547 -0.8736 -0.1547h -0.4004v -0.3549c 0.273 0.0182 0.8554 0.0273 1.7381 0.0273c 0.8918 0 1.4742 -0.0091 1.7472 -0.0273v 0.3549h -0.4004c -0.5278 0 -0.819 0.0546 -0.8736 0.1547c -0.0273 0.0455 -0.0364 0.1183 -0.0364 0.2366v 4.7411c 0 0.1001 0.0182 0.182 0.0364 0.2366c 0.0182 0.0546 0.2184 0.0819 0.6097 0.0819c 0.5551 0 0.9919 -0.0273 1.2285 -0.3003c 0.2548 -0.3003 0.2912 -0.8372 0.3549 -1.4378Z "/></symbol><symbol id="g6ACC6C07D1481F8556C653435562F4C3" overflow="visible"><path d="M 0 0m 1.2649 0.9646c -0.2912 0 -0.4823 -0.2184 -0.4823 -0.5096c 0 -0.273 0.2093 -0.5005 0.4823 -0.5005c 0.1274 0 0.2366 0.0364 0.3185 0.1183l 0.0091 -0.0728c 0 -0.5733 -0.1911 -1.0647 -0.5733 -1.456c -0.0637 -0.0728 -0.1001 -0.1274 -0.1001 -0.1638c 0 -0.091 0.0364 -0.1365 0.1183 -0.1365c 0.0819 0 0.1911 0.1092 0.3458 0.3185c 0.3094 0.4368 0.4641 0.9191 0.4641 1.4378c 0 0.4823 -0.1638 0.9646 -0.5824 0.9646Z "/></symbol></defs></svg>