<svg viewBox="0 0 161.897088889 40.2311" width="161.897088889pt" height="40.2311pt" xmlns="http://www.w3.org/2000/svg" xmlns:xlink="http://www.w3.org/1999/xlink" xmlns:h5="http://www.w3.org/1999/xhtml"><g transform="matrix(1 0 0 -1 6.5 22.3561)"><use xlink:href="#gFCB8EE904C83D15DBBDA0F3192DB537A" x="0" y="0" fill="#e6edf3" fill-rule="nonzero"/></g><g transform="matrix(1 0 0 -1 16.523 25.5671)"><use xlink:href="#g6F1B2EC7690C574873AE01D06ED173C6" x="0" y="0" fill="#e6edf3" fill-rule="nonzero"/><use xlink:href="#g689CD2C8CC31657A53FE374FF94F6738" x="4.0404" y="0" fill="#e6edf3" fill-rule="nonzero"/><use xlink:href="#gC86B0FAB9444A46451EA9A07C4DA98BD" x="9.1" y="0" fill="#e6edf3" fill-rule="nonzero"/></g><g transform="matrix(1 0 0 -1 29.6634 25.5671)"><use xlink:href="#g113F13A4D17198A1C07EDFC5CF3E0BE9" x="0" y="0" fill="#e6edf3" fill-rule="nonzero"/></g><g transform="matrix(1 0 0 -1 33.2033 25.5671)"><use xlink:href="#gC8D3C41E96247D923393A2468BB66E86" x="0" y="0" fill="#e6edf3" fill-rule="nonzero"/></g><g transform="matrix(1 0 0 -1 38.1173 25.5671)"><use xlink:href="#g46583585F9F2E82789E32589C97B74E" x="0" y="0" fill="#e6edf3" fill-rule="nonzero"/></g><g transform="matrix(1 0 0 -1 45.996311111 22.3561)"><use xlink:href="#g13AFF74D87C474CFAF661EEAD0458F8B" x="0" y="0" fill="#e6edf3" fill-rule="nonzero"/></g><g transform="matrix(1 0 0 -1 59.721422222 22.3561)"><use xlink:href="#g84C597EFF9988624DBABE6CF17069247" x="0" y="0" fill="#e6edf3" fill-rule="nonzero"/></g><g transform="matrix(1 0 0 -1 72.708422222 7.9131)"><use xlink:href="#gC8D3C41E96247D923393A2468BB66E86" x="0" y="0" fill="#e6edf3" fill-rule="nonzero"/></g><g transform="matrix(1 0 0 -1 66.858422222 36.1491)"><use xlink:href="#g66C287F757172C4FBEE46C9B113A6E1F" x="0" y="0" fill="#e6edf3" fill-rule="nonzero"/></g><g transform="matrix(1 0 0 -1 80.517088889 22.3561)"><use xlink:href="#gF894C2D74D7097E9F8A03474A816F1E2" x="0" y="0" fill="#e6edf3" fill-rule="nonzero"/></g><g transform="matrix(1 0 0 -1 87.407088889 22.3561)"><use xlink:href="#g2D7122AD31FABF41BED931716B883F58" x="0" y="0" fill="#e6edf3" fill-rule="nonzero"/></g><g transform="matrix(1 0 0 -1 92.464088889 22.3561)"><use xlink:href="#gF5FB9F3934311C9D089606536CC9B01A" x="0" y="0" fill="#e6edf3" fill-rule="nonzero"/></g><g transform="matrix(1 0 0 -1 98.496088889 17.6371)"><use xlink:href="#g962CFBE7F4B0D6E4A1CBDA86A03D94EA" x="0" y="0" fill="#e6edf3" fill-rule="nonzero"/></g><g transform="matrix(1 0 0 -1 102.927788889 22.3561)"><use xlink:href="#g2F93E6EEEE2061842AA37F49EEA2F1A2" x="0" y="0" fill="#e6edf3" fill-rule="nonzero"/></g><g transform="matrix(1 0 0 -1 107.984788889 22.3561)"><use xlink:href="#g20CFFEADE4897488A8BFC1664802F723" x="0" y="0" fill="#e6edf3" fill-rule="nonzero"/></g><g transform="matrix(1 0 0 -1 114.484788889 22.3561)"><use xlink:href="#g3286A19CC752B68D2D94F2BC1EB495F" x="0" y="0" fill="#e6edf3" fill-rule="nonzero"/></g><g transform="matrix(1 0 0 -1 122.219788889 22.3561)"><use xlink:href="#gF5FB9F3934311C9D089606536CC9B01A" x="0" y="0" fill="#e6edf3" fill-rule="nonzero"/></g><g transform="matrix(1 0 0 -1 128.251788889 17.6371)"><use xlink:href="#g962CFBE7F4B0D6E4A1CBDA86A03D94EA" x="0" y="0" fill="#e6edf3" fill-rule="nonzero"/></g><g transform="matrix(1 0 0 -1 131.955488889 17.6371)"><use xlink:href="#g8A6A9074F91D642F82CC8BE39AC39D3A" x="0" y="0" fill="#e6edf3" fill-rule="nonzero"/></g><g transform="matrix(1 0 0 -1 137.861388889 22.3561)"><use xlink:href="#g6BCCDCE0D843C0F823A4CE121D6D1649" x="0" y="0" fill="#e6edf3" fill-rule="nonzero"/></g><g transform="matrix(1 0 0 -1 144.933388889 22.3561)"><use xlink:href="#gF5FB9F3934311C9D089606536CC9B01A" x="0" y="0" fill="#e6edf3" fill-rule="nonzero"/></g><g transform="matrix(1 0 0 -1 150.965388889 17.6371)"><use xlink:href="#g962CFBE7F4B0D6E4A1CBDA86A03D94EA" x="0" y="0" fill="#e6edf3" fill-rule="nonzero"/></g><defs><symbol id="gFCB8EE904C83D15DBBDA0F3192DB537A" overflow="visible"><path d="M 0 0m 3.978 -0.312c 0.377 0 0.78 0.065 1.209 0.182c -0.039 -0.494 -0.052 -0.806 -0.052 -0.923c 0 -0.975 0.377 -1.469 1.118 -1.469c 0.793 0 1.404 0.637 1.703 1.222c 0.325 0.676 0.494 1.118 0.494 1.326c 0 0.117 -0.065 0.182 -0.195 0.182c -0.091 0 -0.156 -0.052 -0.195 -0.169c -0.195 -0.598 -0.728 -1.209 -1.456 -1.209c -0.663 0 -0.754 0.533 -0.858 1.248c 1.092 0.429 2.015 1.17 2.756 2.236c 0.741 1.066 1.118 2.171 1.118 3.328c 0 1.027 -0.299 1.859 -0.91 2.522c -0.611 0.663 -1.417 1.001 -2.418 1.001c -0.689 0 -1.378 -0.169 -2.067 -0.52c -1.404 -0.689 -2.431 -1.781 -3.094 -3.25c -0.325 -0.741 -0.494 -1.469 -0.494 -2.21c 0 -2.041 1.326 -3.497 3.341 -3.497Z m 4.407 6.37c 0 -0.793 -0.195 -1.703 -0.585 -2.756c -0.455 -1.209 -1.157 -2.106 -2.132 -2.678c -0.052 0.286 -0.13 0.546 -0.234 0.78c -0.169 0.39 -0.481 0.585 -0.936 0.585c -0.715 0 -1.365 -0.65 -1.365 -1.365c 0 -0.117 0.013 -0.234 0.039 -0.325c -0.871 0.403 -1.3 1.222 -1.3 2.47c 0 0.546 0.104 1.209 0.325 1.989c 0.455 1.651 1.274 2.821 2.457 3.51c 0.559 0.312 1.079 0.468 1.56 0.468c 1.43 0 2.171 -1.183 2.171 -2.678Z m -3.887 -4.459c 0.481 0 0.728 -0.351 0.728 -1.04c 0 -0.117 -0.039 -0.182 -0.117 -0.208c -0.364 -0.156 -0.715 -0.234 -1.053 -0.234c -0.364 0 -0.546 0.169 -0.546 0.507c 0 0.494 0.494 0.975 0.988 0.975Z "/></symbol><symbol id="g6F1B2EC7690C574873AE01D06ED173C6" overflow="visible"><path d="M 0 0m 3.7765 2.2841c 0 1.0465 -0.6097 1.7927 -1.6289 1.7927c -0.546 0 -1.001 -0.2093 -1.3741 -0.637c -0.3458 -0.4004 -0.5187 -0.8827 -0.5187 -1.4378c 0 -0.5733 0.1911 -1.0556 0.5733 -1.4742c 0.3822 -0.4186 0.8554 -0.6279 1.4196 -0.6279c 0.5187 0 0.9191 0.182 1.1921 0.5369c 0.2275 0.3003 0.3367 0.5187 0.3367 0.6643c 0 0.091 -0.0546 0.1365 -0.1547 0.1365c -0.0728 0 -0.1183 -0.0455 -0.1456 -0.1456c -0.2002 -0.6006 -0.5915 -0.9009 -1.1739 -0.9009c -0.4095 0 -0.728 0.1911 -0.9737 0.5824c -0.1729 0.2821 -0.2548 0.7098 -0.2639 1.2922h 2.457c 0.2002 0 0.2548 0.0182 0.2548 0.2184Z m -0.8099 0.8918c 0.1001 -0.3003 0.1456 -0.5915 0.1456 -0.8554h -2.0384c 0.0273 0.6006 0.182 1.0101 0.455 1.2194c 0.2275 0.182 0.4277 0.273 0.6188 0.273c 0.4095 0 0.6825 -0.2093 0.819 -0.637Z "/></symbol><symbol id="g689CD2C8CC31657A53FE374FF94F6738" overflow="visible"><path d="M 0 0m 2.8574 3.7583c 0.4095 0 0.6188 -0.3185 0.6188 -0.9646v -2.0748c 0 -0.1729 -0.0273 -0.2821 -0.091 -0.3185c -0.0637 -0.0364 -0.2639 -0.0546 -0.6006 -0.0546v -0.3458l 1.0465 0.0273l 1.0374 -0.0273v 0.3458c -0.2912 0 -0.4823 0.0091 -0.5733 0.0364c -0.091 0.0273 -0.1274 0.091 -0.1274 0.2002v 1.7017c 0 0.4277 -0.0091 0.728 -0.0364 0.9009c -0.091 0.5551 -0.5005 0.8372 -1.2194 0.8372c -0.5733 0 -1.001 -0.273 -1.2831 -0.819v 0.819l -1.3377 -0.1001v -0.3458c 0.3276 0 0.5278 -0.0273 0.6006 -0.0819c 0.0728 -0.0546 0.1001 -0.1729 0.1001 -0.3822v -2.3933c 0 -0.1729 -0.0364 -0.2821 -0.1001 -0.3185c -0.0637 -0.0364 -0.2639 -0.0546 -0.6006 -0.0546v -0.3458l 1.0465 0.0273l 1.0374 -0.0273v 0.3458c -0.3367 0 -0.5278 0.0182 -0.5915 0.0546c -0.0637 0.0364 -0.1001 0.1456 -0.1001 0.3185v 1.638c 0 0.7371 0.4641 1.4014 1.1739 1.4014Z "/></symbol><symbol id="gC86B0FAB9444A46451EA9A07C4DA98BD" overflow="visible"><path d="M 0 0m 2.2841 3.7856c 0.3822 0 0.6734 -0.091 0.8736 -0.273c -0.2184 -0.0273 -0.3731 -0.2275 -0.3731 -0.4368c 0 -0.3003 0.1456 -0.4459 0.4459 -0.4459c 0.3003 0 0.4459 0.1547 0.4459 0.455c 0 0.6461 -0.7007 0.9919 -1.4014 0.9919c -0.5642 0 -1.0283 -0.2002 -1.4014 -0.6188c -0.3731 -0.4186 -0.5642 -0.9191 -0.5642 -1.4924c 0 -0.5551 0.1911 -1.0465 0.5642 -1.456c 0.3731 -0.4095 0.8281 -0.6097 1.3832 -0.6097c 0.455 0 0.8099 0.1274 1.0647 0.3913c 0.2093 0.2093 0.3458 0.4186 0.4186 0.637c 0.0273 0.0819 0.0364 0.1365 0.0364 0.1729c 0 0.0819 -0.0546 0.1183 -0.1547 0.1183c -0.0728 0 -0.1183 -0.0364 -0.1456 -0.1092c -0.1911 -0.6097 -0.5642 -0.9191 -1.1375 -0.9191c -0.2639 0 -0.5187 0.1183 -0.7735 0.364c -0.3003 0.2821 -0.4459 0.7553 -0.4459 1.4287c 0 0.91 0.3458 1.8018 1.1648 1.8018Z "/></symbol><symbol id="g113F13A4D17198A1C07EDFC5CF3E0BE9" overflow="visible"><path d="M 0 0m 2.8938 -2.2568c 0.0819 0 0.1274 0.0455 0.1274 0.1274c 0 0.0273 -0.0182 0.0637 -0.0455 0.1001c -0.4732 0.364 -0.8554 0.9646 -1.1375 1.7927c -0.2457 0.7189 -0.3731 1.4287 -0.3731 2.1294v 0.7644c 0 0.7007 0.1274 1.4105 0.3731 2.1294c 0.2821 0.8281 0.6643 1.4287 1.1375 1.7927c 0.0273 0.0273 0.0455 0.0637 0.0455 0.1001c 0 0.0819 -0.0455 0.1274 -0.1274 0.1274c -0.0091 0 -0.0364 -0.0091 -0.0637 -0.0273c -0.546 -0.4186 -1.001 -1.0374 -1.3741 -1.8655c -0.3549 -0.7917 -0.5369 -1.5379 -0.5369 -2.2568v -0.7644c 0 -0.7189 0.182 -1.4651 0.5369 -2.2568c 0.3731 -0.8281 0.8281 -1.4469 1.3741 -1.8655c 0.0273 -0.0182 0.0546 -0.0273 0.0637 -0.0273Z "/></symbol><symbol id="gC8D3C41E96247D923393A2468BB66E86" overflow="visible"><path d="M 0 0m 4.6592 3.3215c 0 0.4732 -0.4823 0.6916 -0.9828 0.6916c -0.4641 0 -0.8827 -0.2002 -1.2467 -0.6006c -0.0546 0.1456 -0.1365 0.2639 -0.2548 0.364c -0.2093 0.1547 -0.4368 0.2366 -0.6825 0.2366c -0.3094 0 -0.5551 -0.1547 -0.728 -0.4732c -0.2275 -0.3913 -0.3367 -0.7007 -0.3367 -0.9282c 0 -0.1001 0.0637 -0.1547 0.1911 -0.1547c 0.182 0 0.1729 0.1001 0.2275 0.2912c 0.1547 0.6279 0.364 0.9464 0.6188 0.9464c 0.1729 0 0.2639 -0.1365 0.2639 -0.4095c 0 -0.1001 -0.0455 -0.3367 -0.1456 -0.728l -0.4823 -1.9474c -0.0637 -0.2457 -0.091 -0.3731 -0.091 -0.3822c 0 -0.2093 0.1092 -0.3185 0.3367 -0.3185c 0.3185 0 0.4095 0.2002 0.4823 0.5005c 0.2002 0.8281 0.3549 1.4469 0.4641 1.8746c 0.0819 0.2912 0.1183 0.4459 0.1183 0.455c 0.0091 0.0455 0.0728 0.1547 0.1911 0.3185c 0.3003 0.4277 0.6552 0.637 1.0647 0.637c 0.1547 0 0.2912 -0.0273 0.4004 -0.0819c -0.2275 -0.1001 -0.3367 -0.2639 -0.3367 -0.5005c 0 -0.2184 0.1729 -0.3731 0.3913 -0.3731c 0.3094 0 0.5369 0.273 0.5369 0.5824Z "/></symbol><symbol id="g46583585F9F2E82789E32589C97B74E" overflow="visible"><path d="M 0 0m 0.7098 -2.2295c 0.546 0.4186 1.001 1.0374 1.3741 1.8655c 0.3549 0.7917 0.5369 1.5379 0.5369 2.2568v 0.7644c 0 0.7189 -0.182 1.4651 -0.5369 2.2568c -0.3731 0.8281 -0.8281 1.4469 -1.3741 1.8655c -0.0273 0.0182 -0.0546 0.0273 -0.0637 0.0273c -0.0819 0 -0.1274 -0.0455 -0.1274 -0.1274c 0 -0.0364 0.0182 -0.0728 0.0455 -0.1001c 0.4732 -0.364 0.8554 -0.9646 1.1375 -1.7927c 0.2457 -0.7189 0.3731 -1.4287 0.3731 -2.1294v -0.7644c 0 -0.7007 -0.1274 -1.4105 -0.3731 -2.1294c -0.2821 -0.8281 -0.6643 -1.4287 -1.1375 -1.7927c -0.0273 -0.0364 -0.0455 -0.0728 -0.0455 -0.1001c 0 -0.0819 0.0455 -0.1274 0.1274 -0.1274c 0.0091 0 0.0364 0.0091 0.0637 0.0273Z "/></symbol><symbol id="g13AFF74D87C474CFAF661EEAD0458F8B" overflow="visible"><path d="M 0 0m 9.074 4.771h -8.034c -0.208 0 -0.312 -0.104 -0.312 -0.299c 0 -0.195 0.104 -0.299 0.312 -0.299h 8.034c 0.208 0 0.312 0.104 0.312 0.299c 0 0.156 -0.143 0.299 -0.312 0.299Z m 0 -2.444h -8.034c -0.208 0 -0.312 -0.104 -0.312 -0.299c 0 -0.195 0.104 -0.299 0.312 -0.299h 8.034c 0.208 0 0.312 0.104 0.312 0.299c 0 0.169 -0.143 0.299 -0.312 0.299Z "/></symbol><symbol id="g84C597EFF9988624DBABE6CF17069247" overflow="visible"><path d="M 0 0m 10.803 17.693c -0.611 0 -1.157 -0.559 -1.664 -1.677c -0.247 -0.533 -0.507 -1.339 -0.793 -2.418c -1.261 -4.654 -2.21 -9.191 -3.211 -15.119c -0.455 -2.743 -0.832 -4.732 -1.131 -5.941c -0.533 -2.223 -1.144 -3.341 -1.82 -3.341c -0.247 0 -0.468 0.065 -0.663 0.208c 0.377 0.065 0.559 0.286 0.559 0.676c 0 0.377 -0.286 0.676 -0.663 0.676c -0.455 0 -0.689 -0.234 -0.689 -0.689c 0 -0.754 0.741 -1.261 1.482 -1.261c 0.949 0 1.729 0.754 2.34 2.249c 0.325 0.793 0.767 2.327 1.313 4.576c 0.949 3.861 1.794 7.995 2.535 12.389c 0.52 3.081 0.988 5.421 1.391 7.02c 0.377 1.508 0.728 2.262 1.04 2.262c 0.26 0 0.481 -0.065 0.65 -0.208c -0.377 -0.065 -0.572 -0.286 -0.572 -0.676c 0 -0.377 0.286 -0.676 0.663 -0.676c 0.455 0 0.689 0.234 0.689 0.689c 0 0.715 -0.702 1.261 -1.456 1.261Z "/></symbol><symbol id="g66C287F757172C4FBEE46C9B113A6E1F" overflow="visible"><path d="M 0 0m 4.6956 2.9029c 0 1.0283 -0.182 1.8109 -0.5369 2.3478c -0.2912 0.455 -0.8736 0.7917 -1.5743 0.7917c -0.2912 0 -0.5551 -0.0455 -0.7826 -0.1456c -1.001 -0.4186 -1.3286 -1.5834 -1.3286 -2.9939c 0 -0.3094 0.0182 -0.6006 0.0455 -0.8827c 0.1547 -1.1921 0.7098 -2.2022 2.0657 -2.2022c 0.2912 0 0.5551 0.0455 0.7826 0.1456c 1.001 0.4095 1.3286 1.547 1.3286 2.9393Z m -1.0374 2.0202c 0.1001 -0.3367 0.1547 -0.9646 0.1547 -1.9019c 0 -0.8918 -0.0364 -1.5197 -0.1183 -1.8928c -0.1092 -0.5369 -0.4914 -0.9828 -1.1102 -0.9828c -0.2275 0 -0.455 0.0728 -0.6643 0.2275c -0.2821 0.2093 -0.455 0.6188 -0.5278 1.2467c -0.0273 0.2093 -0.0364 0.6734 -0.0364 1.4014c 0 0.8827 0.0455 1.4924 0.1365 1.82c 0.1547 0.5824 0.5187 0.8736 1.092 0.8736c 0.546 0 0.9464 -0.3549 1.0738 -0.7917Z "/></symbol><symbol id="gF894C2D74D7097E9F8A03474A816F1E2" overflow="visible"><path d="M 0 0m 4.693 5.746c -1.469 0 -2.691 -1.586 -3.016 -2.886l -1.248 -5.057c -0.026 -0.104 -0.039 -0.169 -0.039 -0.208c 0 -0.273 0.13 -0.403 0.403 -0.403c 0.195 0 0.364 0.104 0.494 0.299l 0.793 3.107c 0.299 -0.507 0.715 -0.767 1.248 -0.767c 0.858 0 1.612 0.416 2.275 1.261c 0.611 0.793 0.923 1.638 0.923 2.509c 0 1.183 -0.689 2.145 -1.833 2.145Z m -0.026 -0.39c 0.559 0 0.832 -0.403 0.832 -1.209c 0 -0.351 -0.078 -0.806 -0.221 -1.391c -0.286 -1.105 -0.689 -1.846 -1.196 -2.236c -0.273 -0.208 -0.52 -0.312 -0.767 -0.312c -0.247 0 -0.468 0.091 -0.637 0.26c -0.273 0.273 -0.403 0.559 -0.403 0.832c 0.013 0.091 0.039 0.247 0.091 0.468c 0.299 1.235 0.559 2.028 0.767 2.392c 0.455 0.793 0.962 1.196 1.534 1.196Z "/></symbol><symbol id="g2D7122AD31FABF41BED931716B883F58" overflow="visible"><path d="M 0 0m 4.134 -3.224c 0.117 0 0.182 0.065 0.182 0.182c 0 0.039 -0.026 0.091 -0.065 0.143c -0.676 0.52 -1.222 1.378 -1.625 2.561c -0.351 1.027 -0.533 2.041 -0.533 3.042v 1.092c 0 1.001 0.182 2.015 0.533 3.042c 0.403 1.183 0.949 2.041 1.625 2.561c 0.039 0.039 0.065 0.091 0.065 0.143c 0 0.117 -0.065 0.182 -0.182 0.182c -0.013 0 -0.052 -0.013 -0.091 -0.039c -0.78 -0.598 -1.43 -1.482 -1.963 -2.665c -0.507 -1.131 -0.767 -2.197 -0.767 -3.224v -1.092c 0 -1.027 0.26 -2.093 0.767 -3.224c 0.533 -1.183 1.183 -2.067 1.963 -2.665c 0.039 -0.026 0.078 -0.039 0.091 -0.039Z "/></symbol><symbol id="gF5FB9F3934311C9D089606536CC9B01A" overflow="visible"><path d="M 0 0m 5.668 4.862c 0 0.546 -0.533 0.884 -1.105 0.884c -0.637 0 -1.17 -0.299 -1.612 -0.91c -0.13 0.507 -0.572 0.91 -1.183 0.91c -0.533 0 -0.923 -0.416 -1.196 -1.261c -0.13 -0.429 -0.195 -0.676 -0.195 -0.754c 0 -0.117 0.065 -0.182 0.208 -0.182c 0.065 0 0.104 0.013 0.143 0.039c 0.065 0.117 0.104 0.208 0.117 0.299c 0.234 0.988 0.533 1.482 0.884 1.482c 0.221 0 0.338 -0.182 0.338 -0.546c 0 -0.169 -0.065 -0.52 -0.195 -1.053l -0.741 -2.951c -0.039 -0.169 -0.117 -0.507 -0.117 -0.572c 0 -0.26 0.143 -0.39 0.416 -0.39c 0.26 0 0.429 0.13 0.52 0.39l 0.247 0.936c 0.143 0.559 0.234 0.923 0.273 1.092l 0.403 1.664c 0.026 0.104 0.13 0.273 0.299 0.52c 0.351 0.494 0.754 0.91 1.391 0.91c 0.156 0 0.286 -0.026 0.403 -0.091c -0.39 -0.117 -0.585 -0.364 -0.585 -0.715c 0 -0.338 0.182 -0.507 0.533 -0.507c 0.429 0 0.754 0.377 0.754 0.806Z "/></symbol><symbol id="g962CFBE7F4B0D6E4A1CBDA86A03D94EA" overflow="visible"><path d="M 0 0m 2.5844 4.9959c -0.2275 0 -0.3822 -0.091 -0.4641 -0.2821l -1.5288 -3.8402h 0.4095l 2.0202 3.3397c 0.0455 0.0819 0.0728 0.1729 0.0728 0.273c 0 0.273 -0.2366 0.5096 -0.5096 0.5096Z "/></symbol><symbol id="g2F93E6EEEE2061842AA37F49EEA2F1A2" overflow="visible"><path d="M 0 0m 1.014 -3.185c 0.78 0.598 1.43 1.482 1.963 2.665c 0.507 1.131 0.767 2.197 0.767 3.224v 1.092c 0 1.027 -0.26 2.093 -0.767 3.224c -0.533 1.183 -1.183 2.067 -1.963 2.665c -0.039 0.026 -0.078 0.039 -0.091 0.039c -0.117 0 -0.182 -0.065 -0.182 -0.182c 0 -0.052 0.026 -0.104 0.065 -0.143c 0.676 -0.52 1.222 -1.378 1.625 -2.561c 0.351 -1.027 0.533 -2.041 0.533 -3.042v -1.092c 0 -1.001 -0.182 -2.015 -0.533 -3.042c -0.403 -1.183 -0.949 -2.041 -1.625 -2.561c -0.039 -0.052 -0.065 -0.104 -0.065 -0.143c 0 -0.117 0.065 -0.182 0.182 -0.182c 0.013 0 0.052 0.013 0.091 0.039Z "/></symbol><symbol id="g20CFFEADE4897488A8BFC1664802F723" overflow="visible"><path d="M 0 0m 4.589 8.801c -0.117 0 -0.221 -0.065 -0.299 -0.182l -3.926 -6.032v -0.468h 3.393v -1.066c 0 -0.234 -0.052 -0.39 -0.143 -0.455c -0.091 -0.065 -0.338 -0.091 -0.767 -0.091h -0.325v -0.507c 0.377 0.026 0.975 0.039 1.781 0.039c 0.806 0 1.404 -0.013 1.781 -0.039v 0.507h -0.325c -0.429 0 -0.676 0.026 -0.767 0.091c -0.091 0.065 -0.143 0.221 -0.143 0.455v 1.066h 1.274v 0.507h -1.274v 5.954c 0 0.13 -0.091 0.221 -0.26 0.221Z m -0.754 -1.612v -4.563h -2.964Z "/></symbol><symbol id="g3286A19CC752B68D2D94F2BC1EB495F" overflow="visible"><path d="M 0 0m 6.812 5.603h -4.29c -0.533 0 -1.001 -0.208 -1.378 -0.611c -0.182 -0.195 -0.793 -1.027 -0.793 -1.196c 0.052 -0.091 0.052 -0.169 0.208 -0.169c 0.091 0 0.169 0.052 0.247 0.169c 0.416 0.637 0.949 0.962 1.586 0.962h 0.663c -0.299 -1.131 -0.845 -2.522 -1.625 -4.173c -0.065 -0.156 -0.104 -0.273 -0.104 -0.338c 0 -0.26 0.143 -0.39 0.416 -0.39c 0.247 0 0.429 0.143 0.546 0.416c 0.234 0.741 0.403 1.313 0.494 1.703l 0.715 2.782h 1.339c -0.351 -1.547 -0.533 -2.626 -0.533 -3.237c 0 -0.637 0.143 -1.664 0.624 -1.664c 0.273 0 0.572 0.26 0.572 0.533c 0 0.065 -0.026 0.169 -0.078 0.299c -0.247 0.611 -0.364 1.3 -0.364 2.093c 0 0.611 0.078 1.274 0.221 1.976h 1.417c 0.455 0 0.676 0.156 0.676 0.481c 0 0.299 -0.234 0.364 -0.559 0.364Z "/></symbol><symbol id="g8A6A9074F91D642F82CC8BE39AC39D3A" overflow="visible"><path d="M 0 0m 1.0829 3.8584c 0.2912 0 0.5096 0.2184 0.5096 0.5096c 0 0.3276 -0.1729 0.5005 -0.5096 0.5096c 0.2002 0.4277 0.6552 0.7735 1.2467 0.7735c 0.8008 0 1.3286 -0.6006 1.3286 -1.4014c 0 -0.4368 -0.1547 -0.8554 -0.4732 -1.2649c -0.1547 -0.2093 -0.273 -0.3549 -0.3549 -0.4368l -2.1567 -2.1385c -0.1183 -0.1092 -0.1001 -0.1365 -0.1001 -0.4095h 3.7492l 0.2821 1.7108h -0.3822c -0.0637 -0.4823 -0.1365 -0.7644 -0.2184 -0.8281c -0.0455 -0.0273 -0.3276 -0.0455 -0.8645 -0.0455h -1.547c 0.6097 0.5369 1.1739 1.0192 1.7108 1.4469c 0.4095 0.3185 0.7007 0.6006 0.8827 0.8463c 0.273 0.3549 0.4095 0.728 0.4095 1.1193c 0 0.5642 -0.2184 1.0101 -0.6643 1.3377c -0.3913 0.3003 -0.8827 0.455 -1.4651 0.455c -0.5005 0 -0.9282 -0.1456 -1.3013 -0.4368c -0.3913 -0.3185 -0.5915 -0.7189 -0.5915 -1.2103c 0 -0.3094 0.2275 -0.5369 0.5096 -0.5369Z "/></symbol><symbol id="g6BCCDCE0D843C0F823A4CE121D6D1649" overflow="visible"><path d="M 0 0m 5.577 8.216l -0.767 -3.159c -0.273 0.481 -0.65 0.728 -1.157 0.728c -0.845 0 -1.586 -0.429 -2.236 -1.3c -0.598 -0.806 -0.897 -1.651 -0.897 -2.522c 0 -1.144 0.663 -2.106 1.755 -2.106c 0.559 0 1.105 0.299 1.625 0.91c 0.143 -0.494 0.585 -0.91 1.196 -0.91c 0.897 0 1.183 1.066 1.378 2.028c 0 0.117 -0.065 0.182 -0.195 0.182c -0.117 0 -0.195 -0.091 -0.234 -0.273c -0.26 -1.027 -0.572 -1.547 -0.923 -1.547c -0.221 0 -0.338 0.182 -0.338 0.533c 0 0.195 0.026 0.403 0.078 0.611l 1.846 7.436v 0.052c -0.039 0.091 -0.117 0.143 -0.221 0.143c -0.299 0 -0.845 -0.052 -1.625 -0.143c -0.143 -0.013 -0.221 -0.117 -0.221 -0.299c 0 -0.13 0.117 -0.195 0.351 -0.195c 0.247 0 0.585 0.013 0.585 -0.169Z m -1.144 -3.328c 0.13 -0.273 0.195 -0.455 0.195 -0.572c -0.013 -0.052 -0.026 -0.117 -0.039 -0.208l -0.637 -2.522c -0.039 -0.143 -0.13 -0.299 -0.247 -0.455c -0.481 -0.585 -0.949 -0.884 -1.404 -0.884c -0.507 0 -0.767 0.39 -0.767 1.157c 0 0.312 0.078 0.78 0.234 1.404c 0.273 1.105 0.663 1.859 1.144 2.262c 0.26 0.221 0.507 0.325 0.754 0.325c 0.351 0 0.611 -0.169 0.767 -0.507Z "/></symbol></defs></svg>