<svg viewBox="0 0 350.581544444 23.7783" width="350.581544444pt" height="23.7783pt" xmlns="http://www.w3.org/2000/svg" xmlns:xlink="http://www.w3.org/1999/xlink" xmlns:h5="http://www.w3.org/1999/xhtml"><g transform="matrix(1 0 0 -1 6.5 14.911)"><use xlink:href="#g219318600111ED0DDD69E7A24294373" x="0" y="0" fill="#e6edf3" fill-rule="nonzero"/></g><g transform="matrix(1 0 0 -1 21.200111111 14.911)"><use xlink:href="#g13AFF74D87C474CFAF661EEAD0458F8B" x="0" y="0" fill="#e6edf3" fill-rule="nonzero"/></g><g transform="matrix(1 0 0 -1 34.925222222 14.911)"><use xlink:href="#g9B543B57F718853EF8F95EF155B6CF69" x="0" y="0" fill="#e6edf3" fill-rule="nonzero"/></g><g transform="matrix(1 0 0 -1 45.039222222 14.911)"><use xlink:href="#gA01F6DC51669829F49C013CF8E967E44" x="0" y="0" fill="#e6edf3" fill-rule="nonzero"/></g><g transform="matrix(1 0 0 -1 55.868222222 14.911)"><use xlink:href="#g53251C539233983FE9FC826CA7FBAC4A" x="0" y="0" fill="#e6edf3" fill-rule="nonzero"/></g><g transform="matrix(1 0 0 -1 79.229222222 14.911)"><use xlink:href="#g7AF10AFFE59D420B8F89A40B982EF05" x="0" y="0" fill="#e6edf3" fill-rule="nonzero"/></g><g transform="matrix(1 0 0 -1 105.229222222 14.911)"><use xlink:href="#gF894C2D74D7097E9F8A03474A816F1E2" x="0" y="0" fill="#e6edf3" fill-rule="nonzero"/></g><g transform="matrix(1 0 0 -1 115.730333333 14.911)"><use xlink:href="#g13AFF74D87C474CFAF661EEAD0458F8B" x="0" y="0" fill="#e6edf3" fill-rule="nonzero"/></g><g transform="matrix(1 0 0 -1 129.455444444 14.911)"><use xlink:href="#g9B543B57F718853EF8F95EF155B6CF69" x="0" y="0" fill="#e6edf3" fill-rule="nonzero"/></g><g transform="matrix(1 0 0 -1 139.569444444 14.911)"><use xlink:href="#gC0145148BC36294A1E6393678561EC4B" x="0" y="0" fill="#e6edf3" fill-rule="nonzero"/></g><g transform="matrix(1 0 0 -1 144.847444444 18.122)"><use xlink:href="#g66C287F757172C4FBEE46C9B113A6E1F" x="0" y="0" fill="#e6edf3" fill-rule="nonzero"/></g><g transform="matrix(1 0 0 -1 150.753344444 14.911)"><use xlink:href="#gA01F6DC51669829F49C013CF8E967E44" x="0" y="0" fill="#e6edf3" fill-rule="nonzero"/></g><g transform="matrix(1 0 0 -1 161.582344444 10.192)"><use xlink:href="#g8A6A9074F91D642F82CC8BE39AC39D3A" x="0" y="0" fill="#e6edf3" fill-rule="nonzero"/></g><g transform="matrix(1 0 0 -1 167.488244444 14.911)"><use xlink:href="#g53251C539233983FE9FC826CA7FBAC4A" x="0" y="0" fill="#e6edf3" fill-rule="nonzero"/></g><g transform="matrix(1 0 0 -1 190.849244444 14.911)"><use xlink:href="#g7AF10AFFE59D420B8F89A40B982EF05" x="0" y="0" fill="#e6edf3" fill-rule="nonzero"/></g><g transform="matrix(1 0 0 -1 216.849244444 14.911)"><use xlink:href="#g37A25FD9304FC623B4D612A207BC8176" x="0" y="0" fill="#e6edf3" fill-rule="nonzero"/></g><g transform="matrix(1 0 0 -1 228.195355556 14.911)"><use xlink:href="#g13AFF74D87C474CFAF661EEAD0458F8B" x="0" y="0" fill="#e6edf3" fill-rule="nonzero"/></g><g transform="matrix(1 0 0 -1 241.920466667 14.911)"><use xlink:href="#gC0145148BC36294A1E6393678561EC4B" x="0" y="0" fill="#e6edf3" fill-rule="nonzero"/></g><g transform="matrix(1 0 0 -1 247.198466667 18.122)"><use xlink:href="#g66C287F757172C4FBEE46C9B113A6E1F" x="0" y="0" fill="#e6edf3" fill-rule="nonzero"/></g><g transform="matrix(1 0 0 -1 253.104366667 14.911)"><use xlink:href="#g7AE04F15A7C3AC417269385A78E6B62E" x="0" y="0" fill="#e6edf3" fill-rule="nonzero"/></g><g transform="matrix(1 0 0 -1 259.058366667 14.911)"><use xlink:href="#gF4455947FC057089CFA62E76F26386FD" x="0" y="0" fill="#e6edf3" fill-rule="nonzero"/></g><g transform="matrix(1 0 0 -1 268.652366667 18.122)"><use xlink:href="#g9AC427CC5FFD574366383F2BB43B0492" x="0" y="0" fill="#e6edf3" fill-rule="nonzero"/></g><g transform="matrix(1 0 0 -1 275.076966667 18.122)"><use xlink:href="#gBEEE2912D783E659636489D0C0BC01CB" x="0" y="0" fill="#e6edf3" fill-rule="nonzero"/></g><g transform="matrix(1 0 0 -1 278.161866667 18.122)"><use xlink:href="#g6F1B2EC7690C574873AE01D06ED173C6" x="0" y="0" fill="#e6edf3" fill-rule="nonzero"/><use xlink:href="#g8DA5029ED1D916CD427C5AEE139B9DC3" x="4.0404" y="0" fill="#e6edf3" fill-rule="nonzero"/><use xlink:href="#g929C9F5835BF20B9E99EAF8B7595E15F" x="8.8452" y="0" fill="#e6edf3" fill-rule="nonzero"/></g><g transform="matrix(1 0 0 -1 294.163855556 14.911)"><use xlink:href="#g9B543B57F718853EF8F95EF155B6CF69" x="0" y="0" fill="#e6edf3" fill-rule="nonzero"/></g><g transform="matrix(1 0 0 -1 307.166744444 14.911)"><use xlink:href="#gF4455947FC057089CFA62E76F26386FD" x="0" y="0" fill="#e6edf3" fill-rule="nonzero"/></g><g transform="matrix(1 0 0 -1 316.760744444 18.122)"><use xlink:href="#g9AC427CC5FFD574366383F2BB43B0492" x="0" y="0" fill="#e6edf3" fill-rule="nonzero"/></g><g transform="matrix(1 0 0 -1 323.185344444 18.122)"><use xlink:href="#gBEEE2912D783E659636489D0C0BC01CB" x="0" y="0" fill="#e6edf3" fill-rule="nonzero"/></g><g transform="matrix(1 0 0 -1 326.270244444 18.122)"><use xlink:href="#g402F9925856942787E59D257DA93AD2E" x="0" y="0" fill="#e6edf3" fill-rule="nonzero"/><use xlink:href="#g689CD2C8CC31657A53FE374FF94F6738" x="2.5298" y="0" fill="#e6edf3" fill-rule="nonzero"/><use xlink:href="#g929C9F5835BF20B9E99EAF8B7595E15F" x="7.5894" y="0" fill="#e6edf3" fill-rule="nonzero"/></g><g transform="matrix(1 0 0 -1 338.127544444 14.911)"><use xlink:href="#g51B3DB8755C43AB79D2F02785B5613F6" x="0" y="0" fill="#e6edf3" fill-rule="nonzero"/></g><defs><symbol id="g219318600111ED0DDD69E7A24294373" overflow="visible"><path d="M 0 0m 10.725 8.606c 0 0.234 -0.221 0.234 -0.429 0.234h -7.202c -0.273 0 -0.286 -0.013 -0.351 -0.065c -0.091 -0.065 -0.117 -0.312 -0.117 -0.312c 0 -0.234 0.182 -0.234 0.533 -0.234c 0.273 0 0.52 -0.013 0.793 -0.026l -1.833 -7.332c -0.052 -0.208 -0.065 -0.221 -0.299 -0.247c -0.221 -0.013 -0.481 -0.013 -0.689 -0.013c -0.338 0 -0.364 0 -0.416 -0.026c -0.156 -0.091 -0.156 -0.299 -0.156 -0.351c 0 -0.234 0.221 -0.234 0.442 -0.234h 7.423c 0.312 0 0.364 0 0.481 0.273l 1.248 2.821c 0.078 0.169 0.078 0.234 0.078 0.234c 0 0.234 -0.247 0.234 -0.312 0.234c -0.208 0 -0.221 -0.026 -0.377 -0.377c -0.78 -1.716 -1.456 -2.574 -3.653 -2.574h -1.69c -0.195 0 -0.221 0 -0.312 0.013l 0.91 3.653h 0.897c 0.767 0 1.027 -0.117 1.027 -0.559c 0 -0.208 -0.091 -0.559 -0.104 -0.598l -0.013 -0.13c 0 -0.195 0.169 -0.234 0.299 -0.234c 0.247 0 0.26 0.078 0.325 0.312l 0.728 2.899c 0.052 0.169 0.052 0.208 0.052 0.208c 0 0.234 -0.26 0.234 -0.312 0.234c -0.247 0 -0.273 -0.091 -0.338 -0.338c -0.26 -0.975 -0.65 -1.183 -1.625 -1.183h -0.78l 0.819 3.315c 0.169 0.026 0.312 0.026 0.442 0.026h 1.703c 1.417 0 1.989 -0.312 1.989 -1.547c 0 -0.234 -0.052 -0.52 -0.052 -0.728c 0 -0.247 0.247 -0.247 0.312 -0.247c 0.273 0 0.286 0.13 0.312 0.364c 0.078 0.845 0.182 1.677 0.247 2.535Z "/></symbol><symbol id="g13AFF74D87C474CFAF661EEAD0458F8B" overflow="visible"><path d="M 0 0m 9.074 4.771h -8.034c -0.208 0 -0.312 -0.104 -0.312 -0.299c 0 -0.195 0.104 -0.299 0.312 -0.299h 8.034c 0.208 0 0.312 0.104 0.312 0.299c 0 0.156 -0.143 0.299 -0.312 0.299Z m 0 -2.444h -8.034c -0.208 0 -0.312 -0.104 -0.312 -0.299c 0 -0.195 0.104 -0.299 0.312 -0.299h 8.034c 0.208 0 0.312 0.104 0.312 0.299c 0 0.169 -0.143 0.299 -0.312 0.299Z "/></symbol><symbol id="g9B543B57F718853EF8F95EF155B6CF69" overflow="visible"><path d="M 0 0m 9.074 3.51h -8.034c -0.208 0 -0.312 -0.091 -0.312 -0.26c 0 -0.169 0.104 -0.26 0.312 -0.26h 8.034c 0.208 0 0.312 0.091 0.312 0.26c 0 0.156 -0.156 0.26 -0.312 0.26Z "/></symbol><symbol id="gA01F6DC51669829F49C013CF8E967E44" overflow="visible"><path d="M 0 0m 10.14 8.541c 0.039 0.091 0.065 0.156 0.065 0.182c 0 0.104 -0.117 0.156 -0.338 0.156h -8.918c -0.221 0 -0.338 -0.052 -0.338 -0.169l 4.42 -8.879c 0.091 -0.169 0.208 -0.26 0.377 -0.26c 0.169 0 0.286 0.091 0.377 0.26Z m -4.355 -7.605l -3.458 6.929h 6.903Z "/></symbol><symbol id="g53251C539233983FE9FC826CA7FBAC4A" overflow="visible"><path d="M 0 0m 8.723 8.84c -0.247 0 -1.027 0.039 -1.274 0.039c -0.195 0 -0.299 -0.104 -0.299 -0.299c 0 -0.13 0.091 -0.195 0.26 -0.208c 0.364 -0.013 0.546 -0.143 0.546 -0.364c 0 -0.117 -0.065 -0.273 -0.182 -0.468l -3.874 -6.149l -0.858 6.656c 0 0.221 0.273 0.325 0.832 0.325c 0.26 0 0.377 0.091 0.377 0.312c 0 0.13 -0.078 0.195 -0.234 0.195c -0.286 0 -1.3 -0.039 -1.586 -0.039c -0.26 0 -1.144 0.039 -1.404 0.039c -0.195 0 -0.299 -0.104 -0.299 -0.299c 0 -0.143 0.13 -0.208 0.377 -0.208c 0.221 0 0.377 -0.026 0.481 -0.052c 0.208 -0.065 0.195 -0.091 0.234 -0.338l 1.014 -7.93c 0.039 -0.221 0.143 -0.338 0.312 -0.338c 0.169 0 0.299 0.091 0.403 0.26l 4.628 7.358c 0.299 0.468 0.585 0.767 0.871 0.884c 0.195 0.091 0.442 0.143 0.728 0.156c 0.143 0.013 0.208 0.104 0.221 0.299c 0.013 0.143 -0.065 0.208 -0.221 0.208c -0.195 0 -0.858 -0.039 -1.053 -0.039Z "/></symbol><symbol id="g7AF10AFFE59D420B8F89A40B982EF05" overflow="visible"><path d="M 0 0m 12.051 3.029c 0.104 0.052 0.156 0.13 0.156 0.221c 0 0.091 -0.052 0.169 -0.156 0.221c -0.793 0.208 -1.599 0.663 -2.405 1.352c -0.585 0.507 -1.04 1.092 -1.378 1.768c -0.052 0.117 -0.143 0.169 -0.273 0.169c -0.208 0 -0.312 -0.104 -0.312 -0.312c 0 -0.026 0.013 -0.065 0.026 -0.13c 0.299 -0.572 0.663 -1.079 1.079 -1.521h -7.696c -0.208 0 -0.312 -0.104 -0.312 -0.299c 0 -0.208 0.104 -0.312 0.312 -0.312h 8.372c 0.481 -0.39 1.014 -0.702 1.573 -0.936c -0.559 -0.234 -1.092 -0.546 -1.573 -0.936h -8.372c -0.208 0 -0.312 -0.104 -0.312 -0.312c 0 -0.195 0.104 -0.299 0.312 -0.299h 7.696c -0.416 -0.442 -0.78 -0.949 -1.079 -1.521c -0.013 -0.065 -0.026 -0.104 -0.026 -0.13c 0 -0.208 0.104 -0.312 0.312 -0.312c 0.13 0 0.221 0.052 0.273 0.169c 0.338 0.676 0.793 1.261 1.378 1.768c 0.806 0.689 1.612 1.144 2.405 1.352Z "/></symbol><symbol id="gF894C2D74D7097E9F8A03474A816F1E2" overflow="visible"><path d="M 0 0m 4.693 5.746c -1.469 0 -2.691 -1.586 -3.016 -2.886l -1.248 -5.057c -0.026 -0.104 -0.039 -0.169 -0.039 -0.208c 0 -0.273 0.13 -0.403 0.403 -0.403c 0.195 0 0.364 0.104 0.494 0.299l 0.793 3.107c 0.299 -0.507 0.715 -0.767 1.248 -0.767c 0.858 0 1.612 0.416 2.275 1.261c 0.611 0.793 0.923 1.638 0.923 2.509c 0 1.183 -0.689 2.145 -1.833 2.145Z m -0.026 -0.39c 0.559 0 0.832 -0.403 0.832 -1.209c 0 -0.351 -0.078 -0.806 -0.221 -1.391c -0.286 -1.105 -0.689 -1.846 -1.196 -2.236c -0.273 -0.208 -0.52 -0.312 -0.767 -0.312c -0.247 0 -0.468 0.091 -0.637 0.26c -0.273 0.273 -0.403 0.559 -0.403 0.832c 0.013 0.091 0.039 0.247 0.091 0.468c 0.299 1.235 0.559 2.028 0.767 2.392c 0.455 0.793 0.962 1.196 1.534 1.196Z "/></symbol><symbol id="gC0145148BC36294A1E6393678561EC4B" overflow="visible"><path d="M 0 0m 2.964 -0.143c 0.52 0 1.001 0.143 1.443 0.429c 0.169 0.117 0.247 0.208 0.247 0.273c 0 0.156 -0.065 0.234 -0.182 0.234l -0.182 -0.091c -0.481 -0.312 -0.91 -0.468 -1.3 -0.468c -0.871 0 -1.326 0.702 -1.326 1.612c 0 0.338 0.039 0.689 0.13 1.04h 2.054c 0.325 0 0.481 0.091 0.481 0.26c 0 0.156 -0.143 0.234 -0.416 0.234h -1.989c 0.351 1.157 1.053 1.729 2.106 1.729h 0.39c 0.312 0 0.468 0.091 0.468 0.26c 0 0.156 -0.143 0.234 -0.429 0.234h -0.442c -0.923 0 -1.729 -0.312 -2.405 -0.949c -0.676 -0.637 -1.001 -1.404 -1.001 -2.327c 0 -1.404 0.949 -2.47 2.353 -2.47Z "/></symbol><symbol id="g66C287F757172C4FBEE46C9B113A6E1F" overflow="visible"><path d="M 0 0m 4.6956 2.9029c 0 1.0283 -0.182 1.8109 -0.5369 2.3478c -0.2912 0.455 -0.8736 0.7917 -1.5743 0.7917c -0.2912 0 -0.5551 -0.0455 -0.7826 -0.1456c -1.001 -0.4186 -1.3286 -1.5834 -1.3286 -2.9939c 0 -0.3094 0.0182 -0.6006 0.0455 -0.8827c 0.1547 -1.1921 0.7098 -2.2022 2.0657 -2.2022c 0.2912 0 0.5551 0.0455 0.7826 0.1456c 1.001 0.4095 1.3286 1.547 1.3286 2.9393Z m -1.0374 2.0202c 0.1001 -0.3367 0.1547 -0.9646 0.1547 -1.9019c 0 -0.8918 -0.0364 -1.5197 -0.1183 -1.8928c -0.1092 -0.5369 -0.4914 -0.9828 -1.1102 -0.9828c -0.2275 0 -0.455 0.0728 -0.6643 0.2275c -0.2821 0.2093 -0.455 0.6188 -0.5278 1.2467c -0.0273 0.2093 -0.0364 0.6734 -0.0364 1.4014c 0 0.8827 0.0455 1.4924 0.1365 1.82c 0.1547 0.5824 0.5187 0.8736 1.092 0.8736c 0.546 0 0.9464 -0.3549 1.0738 -0.7917Z "/></symbol><symbol id="g8A6A9074F91D642F82CC8BE39AC39D3A" overflow="visible"><path d="M 0 0m 1.0829 3.8584c 0.2912 0 0.5096 0.2184 0.5096 0.5096c 0 0.3276 -0.1729 0.5005 -0.5096 0.5096c 0.2002 0.4277 0.6552 0.7735 1.2467 0.7735c 0.8008 0 1.3286 -0.6006 1.3286 -1.4014c 0 -0.4368 -0.1547 -0.8554 -0.4732 -1.2649c -0.1547 -0.2093 -0.273 -0.3549 -0.3549 -0.4368l -2.1567 -2.1385c -0.1183 -0.1092 -0.1001 -0.1365 -0.1001 -0.4095h 3.7492l 0.2821 1.7108h -0.3822c -0.0637 -0.4823 -0.1365 -0.7644 -0.2184 -0.8281c -0.0455 -0.0273 -0.3276 -0.0455 -0.8645 -0.0455h -1.547c 0.6097 0.5369 1.1739 1.0192 1.7108 1.4469c 0.4095 0.3185 0.7007 0.6006 0.8827 0.8463c 0.273 0.3549 0.4095 0.728 0.4095 1.1193c 0 0.5642 -0.2184 1.0101 -0.6643 1.3377c -0.3913 0.3003 -0.8827 0.455 -1.4651 0.455c -0.5005 0 -0.9282 -0.1456 -1.3013 -0.4368c -0.3913 -0.3185 -0.5915 -0.7189 -0.5915 -1.2103c 0 -0.3094 0.2275 -0.5369 0.5096 -0.5369Z "/></symbol><symbol id="g37A25FD9304FC623B4D612A207BC8176" overflow="visible"><path d="M 0 0m 6.825 5.603h -2.925c -0.624 0 -1.209 -0.195 -1.742 -0.598c -0.832 -0.637 -1.664 -1.755 -1.664 -3.081c 0 -1.17 0.806 -2.067 1.976 -2.067c 0.871 0 1.651 0.377 2.314 1.131c 0.637 0.728 0.949 1.534 0.949 2.431c 0 0.533 -0.117 0.975 -0.351 1.339h 1.313c 0.455 0 0.676 0.156 0.676 0.481c 0 0.299 -0.221 0.364 -0.546 0.364Z m -5.434 -4.03c 0 0.767 0.182 1.469 0.559 2.093c 0.442 0.728 1.014 1.092 1.729 1.092c 0.754 0 1.131 -0.39 1.131 -1.183c 0 -0.325 -0.065 -0.702 -0.195 -1.144c -0.26 -0.923 -0.689 -1.573 -1.287 -1.924c -0.299 -0.182 -0.585 -0.273 -0.845 -0.273c -0.715 0 -1.092 0.585 -1.092 1.339Z "/></symbol><symbol id="g7AE04F15A7C3AC417269385A78E6B62E" overflow="visible"><path d="M 0 0m 4.94 -4.511c 0.13 0 0.195 0.065 0.195 0.195c 0 0.065 -0.026 0.117 -0.065 0.156c -0.793 0.611 -1.43 1.612 -1.911 3.016c -0.416 1.209 -0.624 2.405 -0.624 3.562v 1.664c 0 1.157 0.208 2.353 0.624 3.562c 0.481 1.404 1.118 2.405 1.911 3.016c 0.039 0.039 0.065 0.091 0.065 0.156c 0 0.13 -0.065 0.195 -0.195 0.195c -0.026 0 -0.065 -0.013 -0.104 -0.039c -0.91 -0.689 -1.664 -1.729 -2.262 -3.12c -0.585 -1.313 -0.871 -2.574 -0.871 -3.77v -1.664c 0 -1.196 0.286 -2.457 0.871 -3.77c 0.598 -1.391 1.352 -2.431 2.262 -3.12c 0.039 -0.026 0.078 -0.039 0.104 -0.039Z "/></symbol><symbol id="gF4455947FC057089CFA62E76F26386FD" overflow="visible"><path d="M 0 0m 2.587 8.528c 0 -0.13 0.143 -0.195 0.416 -0.195c 0.52 0 0.78 -0.052 0.78 -0.169c 0 -0.039 -0.026 -0.13 -0.065 -0.299l -1.69 -6.799c -0.065 -0.286 -0.195 -0.455 -0.39 -0.52c -0.091 -0.026 -0.325 -0.039 -0.728 -0.039c -0.286 0 -0.416 -0.026 -0.416 -0.299c 0 -0.143 0.143 -0.208 0.416 -0.208h 6.669c 0.312 0 0.338 0.026 0.442 0.247l 0.52 1.17c 0.351 0.806 0.598 1.404 0.741 1.807c -0.026 0.117 -0.065 0.195 -0.208 0.195c -0.091 0 -0.169 -0.065 -0.221 -0.182c -0.325 -0.767 -0.637 -1.352 -0.949 -1.768c -0.52 -0.702 -1.287 -0.962 -2.509 -0.962h -1.885c -0.13 0 -0.221 0 -0.273 0.013c -0.078 0 -0.117 0.026 -0.117 0.065c 0 0.026 0.026 0.117 0.065 0.286l 0.858 3.471h 1.235c 0.611 0 0.936 -0.078 1.001 -0.247c 0.026 -0.065 0.039 -0.156 0.039 -0.286c 0 -0.169 -0.026 -0.377 -0.091 -0.624c -0.026 -0.065 -0.039 -0.117 -0.039 -0.156c 0 -0.13 0.078 -0.195 0.221 -0.195c 0.117 0 0.195 0.104 0.247 0.299l 0.728 3.016c 0 0.13 -0.065 0.195 -0.208 0.195c -0.104 0 -0.182 -0.091 -0.221 -0.273c -0.13 -0.507 -0.299 -0.832 -0.52 -0.988c -0.221 -0.156 -0.585 -0.234 -1.118 -0.234h -1.144l 0.754 3.029c 0.104 0.442 0.104 0.455 0.65 0.455h 1.807c 0.663 0 1.118 -0.065 1.365 -0.195c 0.364 -0.195 0.546 -0.585 0.546 -1.17c 0 -0.221 -0.013 -0.455 -0.052 -0.676c 0 -0.026 0 -0.065 -0.013 -0.117v -0.117c 0 -0.143 0.065 -0.208 0.195 -0.208c 0.13 0 0.208 0.117 0.234 0.364l 0.26 2.223c 0.039 0.364 -0.052 0.403 -0.403 0.403h -6.487c -0.299 0 -0.442 -0.013 -0.442 -0.312Z "/></symbol><symbol id="g9AC427CC5FFD574366383F2BB43B0492" overflow="visible"><path d="M 0 0m 1.4924 4.0131c -0.3003 0 -0.546 -0.1638 -0.7371 -0.5005c -0.1274 -0.2275 -0.2275 -0.4641 -0.2912 -0.728c -0.0273 -0.1001 -0.0364 -0.1547 -0.0364 -0.1729c 0 -0.1001 0.0637 -0.1547 0.1911 -0.1547c 0.1729 0 0.182 0.1001 0.2275 0.2912c 0.1547 0.6279 0.364 0.9464 0.6279 0.9464c 0.1729 0 0.2548 -0.1365 0.2548 -0.4095c 0 -0.1001 -0.0455 -0.3367 -0.1456 -0.728l -0.4823 -1.9474c -0.0637 -0.2457 -0.091 -0.3731 -0.091 -0.3822c 0 -0.2093 0.1183 -0.3185 0.3458 -0.3185c 0.1729 0 0.3003 0.0728 0.3822 0.2184c 0.0273 0.0546 0.0819 0.2457 0.1638 0.5642l 0.1911 0.8008c 0.1092 0.4277 0.1729 0.6643 0.1911 0.7189c 0.0728 0.2366 0.182 0.4641 0.3367 0.6734c 0.3822 0.5369 0.819 0.8099 1.3195 0.8099c 0.3276 0 0.4914 -0.2002 0.4914 -0.5915c 0 -0.3549 -0.1729 -0.9828 -0.5278 -1.8928c -0.091 -0.2366 -0.1365 -0.4004 -0.1365 -0.5005c 0 -0.4914 0.4004 -0.8008 0.8918 -0.8008c 0.4277 0 0.7735 0.2184 1.0192 0.6552c 0.2093 0.3731 0.3094 0.6188 0.3094 0.7462c 0 0.1001 -0.0637 0.1547 -0.182 0.1547c -0.0637 -0.0091 -0.1274 -0.0546 -0.1911 -0.1456c -0.0091 -0.0091 -0.0091 -0.0273 -0.0091 -0.0364c -0.2093 -0.7007 -0.5187 -1.0556 -0.9191 -1.0556c -0.1274 0 -0.1911 0.091 -0.1911 0.2821c 0 0.1274 0.0728 0.364 0.2093 0.7098c 0.3185 0.8099 0.4732 1.3923 0.4732 1.7381c 0 0.4186 -0.1456 0.7098 -0.4277 0.8645c -0.2275 0.1274 -0.4914 0.1911 -0.7735 0.1911c -0.5915 0 -1.092 -0.2548 -1.4924 -0.7644c -0.0819 0.4459 -0.4732 0.7644 -0.9919 0.7644Z "/></symbol><symbol id="gBEEE2912D783E659636489D0C0BC01CB" overflow="visible"><path d="M 0 0m 1.5379 1.0465c -0.2912 0 -0.5187 -0.2366 -0.5187 -0.5369c 0 -0.3185 0.2184 -0.5551 0.5278 -0.5551c 0.1183 0 0.2275 0.0364 0.3185 0.1001c -0.0182 -0.6006 -0.2366 -1.1102 -0.6552 -1.5197c -0.0455 -0.0455 -0.0728 -0.0819 -0.0728 -0.1274c 0 -0.1092 0.0546 -0.1638 0.1547 -0.1638c 0.0637 0 0.1547 0.0728 0.2912 0.2184c 0.3003 0.3276 0.5915 0.9919 0.5915 1.5834c 0 0.5005 -0.182 1.001 -0.637 1.001Z "/></symbol><symbol id="g6F1B2EC7690C574873AE01D06ED173C6" overflow="visible"><path d="M 0 0m 3.7765 2.2841c 0 1.0465 -0.6097 1.7927 -1.6289 1.7927c -0.546 0 -1.001 -0.2093 -1.3741 -0.637c -0.3458 -0.4004 -0.5187 -0.8827 -0.5187 -1.4378c 0 -0.5733 0.1911 -1.0556 0.5733 -1.4742c 0.3822 -0.4186 0.8554 -0.6279 1.4196 -0.6279c 0.5187 0 0.9191 0.182 1.1921 0.5369c 0.2275 0.3003 0.3367 0.5187 0.3367 0.6643c 0 0.091 -0.0546 0.1365 -0.1547 0.1365c -0.0728 0 -0.1183 -0.0455 -0.1456 -0.1456c -0.2002 -0.6006 -0.5915 -0.9009 -1.1739 -0.9009c -0.4095 0 -0.728 0.1911 -0.9737 0.5824c -0.1729 0.2821 -0.2548 0.7098 -0.2639 1.2922h 2.457c 0.2002 0 0.2548 0.0182 0.2548 0.2184Z m -0.8099 0.8918c 0.1001 -0.3003 0.1456 -0.5915 0.1456 -0.8554h -2.0384c 0.0273 0.6006 0.182 1.0101 0.455 1.2194c 0.2275 0.182 0.4277 0.273 0.6188 0.273c 0.4095 0 0.6825 -0.2093 0.819 -0.637Z "/></symbol><symbol id="g8DA5029ED1D916CD427C5AEE139B9DC3" overflow="visible"><path d="M 0 0m 3.8038 0.0273c 0.2093 0.0091 0.5096 0 0.8918 -0.0273v 0.3458c -0.4823 0 -0.6643 0.0091 -0.8554 0.2639l -1.183 1.5288c 0.3913 0.4823 0.6552 0.8099 0.8008 0.9828c 0.2548 0.2912 0.6097 0.4459 1.0738 0.455v 0.3458c -0.2548 -0.0182 -0.5096 -0.0273 -0.7644 -0.0273c -0.3367 0 -0.637 0.0091 -0.9009 0.0273v -0.3458c 0.1729 -0.0182 0.2639 -0.1001 0.2639 -0.2457c 0 -0.0819 -0.0455 -0.182 -0.1274 -0.2912l -0.5278 -0.6552l -0.6734 0.8645c -0.0455 0.0637 -0.0728 0.1092 -0.0728 0.1365c 0 0.1183 0.1092 0.182 0.3185 0.1911v 0.3458l -1.0101 -0.0273c -0.2366 -0.0091 -0.5278 0 -0.8827 0.0273v -0.3458c 0.3276 0 0.5369 -0.0273 0.6279 -0.0728c 0.091 -0.0455 0.2366 -0.2002 0.4368 -0.4641l 0.8645 -1.1284c -0.4459 -0.5733 -0.7189 -0.9191 -0.819 -1.0374c -0.2912 -0.3549 -0.6734 -0.5278 -1.1557 -0.5278v -0.3458c 0.3367 0.0273 0.5915 0.0364 0.7826 0.0273l 0.8827 -0.0273v 0.3458c -0.1729 0.0273 -0.2548 0.1092 -0.2548 0.2457c 0 0.0364 0.0091 0.0819 0.0273 0.1274c 0.0546 0.1183 0.3003 0.4277 0.7371 0.9464l 0.6552 -0.8554c 0.1001 -0.1274 0.1547 -0.2184 0.182 -0.273c 0 -0.1183 -0.1092 -0.182 -0.3276 -0.1911v -0.3458Z "/></symbol><symbol id="g929C9F5835BF20B9E99EAF8B7595E15F" overflow="visible"><path d="M 0 0m 3.0212 1.1466v 0.546h -0.2912v -0.5278c 0 -0.455 -0.1638 -0.9646 -0.5642 -0.9646c -0.3731 0 -0.5551 0.3094 -0.5551 0.9282v 2.4661h 1.2649v 0.3458h -1.2649v 1.6562h -0.2912c -0.0091 -0.3003 -0.0364 -0.5642 -0.1001 -0.8008c -0.1547 -0.6006 -0.5096 -0.91 -1.0465 -0.9373v -0.2639h 0.7553v -2.4479c 0 -0.5369 0.1638 -0.8827 0.4823 -1.0556c 0.2457 -0.1274 0.4732 -0.1911 0.7007 -0.1911c 0.6006 0 0.91 0.6006 0.91 1.2467Z "/></symbol><symbol id="g402F9925856942787E59D257DA93AD2E" overflow="visible"><path d="M 0 0m 1.7654 5.4691c 0 0.273 -0.2275 0.5096 -0.5005 0.5096c -0.273 0 -0.5096 -0.2366 -0.5096 -0.5096c 0 -0.273 0.2275 -0.5187 0.5005 -0.5187c 0.2821 0 0.5096 0.2366 0.5096 0.5187Z m -0.4641 -5.4418l 0.9464 -0.0273v 0.3549c -0.3003 0 -0.4823 0.0182 -0.5369 0.0546c -0.0546 0.0364 -0.0728 0.1365 -0.0728 0.3003v 3.3397l -1.3013 -0.1092v -0.3458c 0.3003 0 0.4914 -0.0273 0.5551 -0.0728c 0.0637 -0.0455 0.091 -0.1729 0.091 -0.3822v -2.4206c 0 -0.1729 -0.0273 -0.2821 -0.091 -0.3185c -0.0637 -0.0364 -0.2639 -0.0455 -0.5915 -0.0455v -0.3549Z "/></symbol><symbol id="g689CD2C8CC31657A53FE374FF94F6738" overflow="visible"><path d="M 0 0m 2.8574 3.7583c 0.4095 0 0.6188 -0.3185 0.6188 -0.9646v -2.0748c 0 -0.1729 -0.0273 -0.2821 -0.091 -0.3185c -0.0637 -0.0364 -0.2639 -0.0546 -0.6006 -0.0546v -0.3458l 1.0465 0.0273l 1.0374 -0.0273v 0.3458c -0.2912 0 -0.4823 0.0091 -0.5733 0.0364c -0.091 0.0273 -0.1274 0.091 -0.1274 0.2002v 1.7017c 0 0.4277 -0.0091 0.728 -0.0364 0.9009c -0.091 0.5551 -0.5005 0.8372 -1.2194 0.8372c -0.5733 0 -1.001 -0.273 -1.2831 -0.819v 0.819l -1.3377 -0.1001v -0.3458c 0.3276 0 0.5278 -0.0273 0.6006 -0.0819c 0.0728 -0.0546 0.1001 -0.1729 0.1001 -0.3822v -2.3933c 0 -0.1729 -0.0364 -0.2821 -0.1001 -0.3185c -0.0637 -0.0364 -0.2639 -0.0546 -0.6006 -0.0546v -0.3458l 1.0465 0.0273l 1.0374 -0.0273v 0.3458c -0.3367 0 -0.5278 0.0182 -0.5915 0.0546c -0.0637 0.0364 -0.1001 0.1456 -0.1001 0.3185v 1.638c 0 0.7371 0.4641 1.4014 1.1739 1.4014Z "/></symbol><symbol id="g51B3DB8755C43AB79D2F02785B5613F6" overflow="visible"><path d="M 0 0m 1.118 -4.472c 0.91 0.689 1.664 1.729 2.262 3.12c 0.585 1.313 0.871 2.574 0.871 3.77v 1.664c 0 1.196 -0.286 2.457 -0.871 3.77c -0.598 1.391 -1.352 2.431 -2.262 3.12c -0.039 0.026 -0.078 0.039 -0.104 0.039c -0.13 0 -0.195 -0.065 -0.195 -0.195c 0 -0.065 0.026 -0.117 0.065 -0.156c 0.793 -0.611 1.43 -1.612 1.911 -3.016c 0.416 -1.209 0.624 -2.405 0.624 -3.562v -1.664c 0 -1.157 -0.208 -2.353 -0.624 -3.562c -0.481 -1.404 -1.118 -2.405 -1.911 -3.016c -0.039 -0.039 -0.065 -0.091 -0.065 -0.156c 0 -0.13 0.065 -0.195 0.195 -0.195c 0.026 0 0.065 0.013 0.104 0.039Z "/></symbol></defs></svg>