<svg viewBox="0 0 204.958722222 20.917" width="204.958722222pt" height="20.917pt" xmlns="http://www.w3.org/2000/svg" xmlns:xlink="http://www.w3.org/1999/xlink" xmlns:h5="http://www.w3.org/1999/xhtml"><g transform="matrix(1 0 0 -1 6.5 13.624)"><use xlink:href="#g53251C539233983FE9FC826CA7FBAC4A" x="0" y="0" fill="#e6edf3" fill-rule="nonzero"/></g><g transform="matrix(1 0 0 -1 12.779 16.835)"><use xlink:href="#g5A380D51C1693CF037954AEF50086985" x="0" y="0" fill="#e6edf3" fill-rule="nonzero"/></g><g transform="matrix(1 0 0 -1 22.296011111 13.624)"><use xlink:href="#g13AFF74D87C474CFAF661EEAD0458F8B" x="0" y="0" fill="#e6edf3" fill-rule="nonzero"/></g><g transform="matrix(1 0 0 -1 36.021122222 13.624)"><use xlink:href="#g53251C539233983FE9FC826CA7FBAC4A" x="0" y="0" fill="#e6edf3" fill-rule="nonzero"/></g><g transform="matrix(1 0 0 -1 42.300122222 16.835)"><use xlink:href="#g8A6A9074F91D642F82CC8BE39AC39D3A" x="0" y="0" fill="#e6edf3" fill-rule="nonzero"/></g><g transform="matrix(1 0 0 -1 74.206022222 13.624)"><use xlink:href="#gC0145148BC36294A1E6393678561EC4B" x="0" y="0" fill="#e6edf3" fill-rule="nonzero"/></g><g transform="matrix(1 0 0 -1 79.484022222 16.835)"><use xlink:href="#g66C287F757172C4FBEE46C9B113A6E1F" x="0" y="0" fill="#e6edf3" fill-rule="nonzero"/></g><g transform="matrix(1 0 0 -1 85.389922222 13.624)"><use xlink:href="#g2D7122AD31FABF41BED931716B883F58" x="0" y="0" fill="#e6edf3" fill-rule="nonzero"/></g><g transform="matrix(1 0 0 -1 90.446922222 13.624)"><use xlink:href="#gF4455947FC057089CFA62E76F26386FD" x="0" y="0" fill="#e6edf3" fill-rule="nonzero"/></g><g transform="matrix(1 0 0 -1 100.040922222 16.835)"><use xlink:href="#g8A6A9074F91D642F82CC8BE39AC39D3A" x="0" y="0" fill="#e6edf3" fill-rule="nonzero"/></g><g transform="matrix(1 0 0 -1 105.218822222 16.835)"><use xlink:href="#g9AC427CC5FFD574366383F2BB43B0492" x="0" y="0" fill="#e6edf3" fill-rule="nonzero"/></g><g transform="matrix(1 0 0 -1 115.260311111 13.624)"><use xlink:href="#g9B543B57F718853EF8F95EF155B6CF69" x="0" y="0" fill="#e6edf3" fill-rule="nonzero"/></g><g transform="matrix(1 0 0 -1 128.2632 13.624)"><use xlink:href="#gF4455947FC057089CFA62E76F26386FD" x="0" y="0" fill="#e6edf3" fill-rule="nonzero"/></g><g transform="matrix(1 0 0 -1 137.8572 16.835)"><use xlink:href="#g5A380D51C1693CF037954AEF50086985" x="0" y="0" fill="#e6edf3" fill-rule="nonzero"/></g><g transform="matrix(1 0 0 -1 143.0351 16.835)"><use xlink:href="#g9AC427CC5FFD574366383F2BB43B0492" x="0" y="0" fill="#e6edf3" fill-rule="nonzero"/></g><g transform="matrix(1 0 0 -1 150.1877 13.624)"><use xlink:href="#g2F93E6EEEE2061842AA37F49EEA2F1A2" x="0" y="0" fill="#e6edf3" fill-rule="nonzero"/></g><g transform="matrix(1 0 0 -1 158.855811111 13.624)"><use xlink:href="#g13AFF74D87C474CFAF661EEAD0458F8B" x="0" y="0" fill="#e6edf3" fill-rule="nonzero"/></g><g transform="matrix(1 0 0 -1 172.580922222 13.624)"><use xlink:href="#g37A25FD9304FC623B4D612A207BC8176" x="0" y="0" fill="#e6edf3" fill-rule="nonzero"/></g><g transform="matrix(1 0 0 -1 180.003922222 16.835)"><use xlink:href="#g48B3ED1BE8E5B4ABFD539FA8F671E63F" x="0" y="0" fill="#e6edf3" fill-rule="nonzero"/><use xlink:href="#g402F9925856942787E59D257DA93AD2E" x="2.5298" y="0" fill="#e6edf3" fill-rule="nonzero"/><use xlink:href="#gF8130F3716873E4875D3AC8A6936C373" x="5.0596" y="0" fill="#e6edf3" fill-rule="nonzero"/><use xlink:href="#g23F189AE588E1A359BE6574F29945FEE" x="10.1192" y="0" fill="#e6edf3" fill-rule="nonzero"/><use xlink:href="#g6F1B2EC7690C574873AE01D06ED173C6" x="13.6864" y="0" fill="#e6edf3" fill-rule="nonzero"/></g><defs><symbol id="g53251C539233983FE9FC826CA7FBAC4A" overflow="visible"><path d="M 0 0m 8.723 8.84c -0.247 0 -1.027 0.039 -1.274 0.039c -0.195 0 -0.299 -0.104 -0.299 -0.299c 0 -0.13 0.091 -0.195 0.26 -0.208c 0.364 -0.013 0.546 -0.143 0.546 -0.364c 0 -0.117 -0.065 -0.273 -0.182 -0.468l -3.874 -6.149l -0.858 6.656c 0 0.221 0.273 0.325 0.832 0.325c 0.26 0 0.377 0.091 0.377 0.312c 0 0.13 -0.078 0.195 -0.234 0.195c -0.286 0 -1.3 -0.039 -1.586 -0.039c -0.26 0 -1.144 0.039 -1.404 0.039c -0.195 0 -0.299 -0.104 -0.299 -0.299c 0 -0.143 0.13 -0.208 0.377 -0.208c 0.221 0 0.377 -0.026 0.481 -0.052c 0.208 -0.065 0.195 -0.091 0.234 -0.338l 1.014 -7.93c 0.039 -0.221 0.143 -0.338 0.312 -0.338c 0.169 0 0.299 0.091 0.403 0.26l 4.628 7.358c 0.299 0.468 0.585 0.767 0.871 0.884c 0.195 0.091 0.442 0.143 0.728 0.156c 0.143 0.013 0.208 0.104 0.221 0.299c 0.013 0.143 -0.065 0.208 -0.221 0.208c -0.195 0 -0.858 -0.039 -1.053 -0.039Z "/></symbol><symbol id="g5A380D51C1693CF037954AEF50086985" overflow="visible"><path d="M 0 0m 2.7573 6.0424c -0.3913 -0.3822 -0.9737 -0.5733 -1.7654 -0.5733v -0.4004c 0.5369 0 0.9646 0.0819 1.2922 0.2366v -4.5318c 0 -0.1183 -0.0091 -0.1911 -0.0364 -0.2275c -0.0455 -0.1001 -0.3185 -0.1547 -0.819 -0.1547h -0.3731v -0.3913l 1.6198 0.0364l 1.6289 -0.0364v 0.3913h -0.3731c -0.5005 0 -0.7735 0.0546 -0.8281 0.1547c -0.0182 0.0364 -0.0273 0.1092 -0.0273 0.2275v 4.9777c 0 0.2457 -0.0364 0.2912 -0.3185 0.2912Z "/></symbol><symbol id="g13AFF74D87C474CFAF661EEAD0458F8B" overflow="visible"><path d="M 0 0m 9.074 4.771h -8.034c -0.208 0 -0.312 -0.104 -0.312 -0.299c 0 -0.195 0.104 -0.299 0.312 -0.299h 8.034c 0.208 0 0.312 0.104 0.312 0.299c 0 0.156 -0.143 0.299 -0.312 0.299Z m 0 -2.444h -8.034c -0.208 0 -0.312 -0.104 -0.312 -0.299c 0 -0.195 0.104 -0.299 0.312 -0.299h 8.034c 0.208 0 0.312 0.104 0.312 0.299c 0 0.169 -0.143 0.299 -0.312 0.299Z "/></symbol><symbol id="g8A6A9074F91D642F82CC8BE39AC39D3A" overflow="visible"><path d="M 0 0m 1.0829 3.8584c 0.2912 0 0.5096 0.2184 0.5096 0.5096c 0 0.3276 -0.1729 0.5005 -0.5096 0.5096c 0.2002 0.4277 0.6552 0.7735 1.2467 0.7735c 0.8008 0 1.3286 -0.6006 1.3286 -1.4014c 0 -0.4368 -0.1547 -0.8554 -0.4732 -1.2649c -0.1547 -0.2093 -0.273 -0.3549 -0.3549 -0.4368l -2.1567 -2.1385c -0.1183 -0.1092 -0.1001 -0.1365 -0.1001 -0.4095h 3.7492l 0.2821 1.7108h -0.3822c -0.0637 -0.4823 -0.1365 -0.7644 -0.2184 -0.8281c -0.0455 -0.0273 -0.3276 -0.0455 -0.8645 -0.0455h -1.547c 0.6097 0.5369 1.1739 1.0192 1.7108 1.4469c 0.4095 0.3185 0.7007 0.6006 0.8827 0.8463c 0.273 0.3549 0.4095 0.728 0.4095 1.1193c 0 0.5642 -0.2184 1.0101 -0.6643 1.3377c -0.3913 0.3003 -0.8827 0.455 -1.4651 0.455c -0.5005 0 -0.9282 -0.1456 -1.3013 -0.4368c -0.3913 -0.3185 -0.5915 -0.7189 -0.5915 -1.2103c 0 -0.3094 0.2275 -0.5369 0.5096 -0.5369Z "/></symbol><symbol id="gC0145148BC36294A1E6393678561EC4B" overflow="visible"><path d="M 0 0m 2.964 -0.143c 0.52 0 1.001 0.143 1.443 0.429c 0.169 0.117 0.247 0.208 0.247 0.273c 0 0.156 -0.065 0.234 -0.182 0.234l -0.182 -0.091c -0.481 -0.312 -0.91 -0.468 -1.3 -0.468c -0.871 0 -1.326 0.702 -1.326 1.612c 0 0.338 0.039 0.689 0.13 1.04h 2.054c 0.325 0 0.481 0.091 0.481 0.26c 0 0.156 -0.143 0.234 -0.416 0.234h -1.989c 0.351 1.157 1.053 1.729 2.106 1.729h 0.39c 0.312 0 0.468 0.091 0.468 0.26c 0 0.156 -0.143 0.234 -0.429 0.234h -0.442c -0.923 0 -1.729 -0.312 -2.405 -0.949c -0.676 -0.637 -1.001 -1.404 -1.001 -2.327c 0 -1.404 0.949 -2.47 2.353 -2.47Z "/></symbol><symbol id="g66C287F757172C4FBEE46C9B113A6E1F" overflow="visible"><path d="M 0 0m 4.6956 2.9029c 0 1.0283 -0.182 1.8109 -0.5369 2.3478c -0.2912 0.455 -0.8736 0.7917 -1.5743 0.7917c -0.2912 0 -0.5551 -0.0455 -0.7826 -0.1456c -1.001 -0.4186 -1.3286 -1.5834 -1.3286 -2.9939c 0 -0.3094 0.0182 -0.6006 0.0455 -0.8827c 0.1547 -1.1921 0.7098 -2.2022 2.0657 -2.2022c 0.2912 0 0.5551 0.0455 0.7826 0.1456c 1.001 0.4095 1.3286 1.547 1.3286 2.9393Z m -1.0374 2.0202c 0.1001 -0.3367 0.1547 -0.9646 0.1547 -1.9019c 0 -0.8918 -0.0364 -1.5197 -0.1183 -1.8928c -0.1092 -0.5369 -0.4914 -0.9828 -1.1102 -0.9828c -0.2275 0 -0.455 0.0728 -0.6643 0.2275c -0.2821 0.2093 -0.455 0.6188 -0.5278 1.2467c -0.0273 0.2093 -0.0364 0.6734 -0.0364 1.4014c 0 0.8827 0.0455 1.4924 0.1365 1.82c 0.1547 0.5824 0.5187 0.8736 1.092 0.8736c 0.546 0 0.9464 -0.3549 1.0738 -0.7917Z "/></symbol><symbol id="g2D7122AD31FABF41BED931716B883F58" overflow="visible"><path d="M 0 0m 4.134 -3.224c 0.117 0 0.182 0.065 0.182 0.182c 0 0.039 -0.026 0.091 -0.065 0.143c -0.676 0.52 -1.222 1.378 -1.625 2.561c -0.351 1.027 -0.533 2.041 -0.533 3.042v 1.092c 0 1.001 0.182 2.015 0.533 3.042c 0.403 1.183 0.949 2.041 1.625 2.561c 0.039 0.039 0.065 0.091 0.065 0.143c 0 0.117 -0.065 0.182 -0.182 0.182c -0.013 0 -0.052 -0.013 -0.091 -0.039c -0.78 -0.598 -1.43 -1.482 -1.963 -2.665c -0.507 -1.131 -0.767 -2.197 -0.767 -3.224v -1.092c 0 -1.027 0.26 -2.093 0.767 -3.224c 0.533 -1.183 1.183 -2.067 1.963 -2.665c 0.039 -0.026 0.078 -0.039 0.091 -0.039Z "/></symbol><symbol id="gF4455947FC057089CFA62E76F26386FD" overflow="visible"><path d="M 0 0m 2.587 8.528c 0 -0.13 0.143 -0.195 0.416 -0.195c 0.52 0 0.78 -0.052 0.78 -0.169c 0 -0.039 -0.026 -0.13 -0.065 -0.299l -1.69 -6.799c -0.065 -0.286 -0.195 -0.455 -0.39 -0.52c -0.091 -0.026 -0.325 -0.039 -0.728 -0.039c -0.286 0 -0.416 -0.026 -0.416 -0.299c 0 -0.143 0.143 -0.208 0.416 -0.208h 6.669c 0.312 0 0.338 0.026 0.442 0.247l 0.52 1.17c 0.351 0.806 0.598 1.404 0.741 1.807c -0.026 0.117 -0.065 0.195 -0.208 0.195c -0.091 0 -0.169 -0.065 -0.221 -0.182c -0.325 -0.767 -0.637 -1.352 -0.949 -1.768c -0.52 -0.702 -1.287 -0.962 -2.509 -0.962h -1.885c -0.13 0 -0.221 0 -0.273 0.013c -0.078 0 -0.117 0.026 -0.117 0.065c 0 0.026 0.026 0.117 0.065 0.286l 0.858 3.471h 1.235c 0.611 0 0.936 -0.078 1.001 -0.247c 0.026 -0.065 0.039 -0.156 0.039 -0.286c 0 -0.169 -0.026 -0.377 -0.091 -0.624c -0.026 -0.065 -0.039 -0.117 -0.039 -0.156c 0 -0.13 0.078 -0.195 0.221 -0.195c 0.117 0 0.195 0.104 0.247 0.299l 0.728 3.016c 0 0.13 -0.065 0.195 -0.208 0.195c -0.104 0 -0.182 -0.091 -0.221 -0.273c -0.13 -0.507 -0.299 -0.832 -0.52 -0.988c -0.221 -0.156 -0.585 -0.234 -1.118 -0.234h -1.144l 0.754 3.029c 0.104 0.442 0.104 0.455 0.65 0.455h 1.807c 0.663 0 1.118 -0.065 1.365 -0.195c 0.364 -0.195 0.546 -0.585 0.546 -1.17c 0 -0.221 -0.013 -0.455 -0.052 -0.676c 0 -0.026 0 -0.065 -0.013 -0.117v -0.117c 0 -0.143 0.065 -0.208 0.195 -0.208c 0.13 0 0.208 0.117 0.234 0.364l 0.26 2.223c 0.039 0.364 -0.052 0.403 -0.403 0.403h -6.487c -0.299 0 -0.442 -0.013 -0.442 -0.312Z "/></symbol><symbol id="g9AC427CC5FFD574366383F2BB43B0492" overflow="visible"><path d="M 0 0m 1.4924 4.0131c -0.3003 0 -0.546 -0.1638 -0.7371 -0.5005c -0.1274 -0.2275 -0.2275 -0.4641 -0.2912 -0.728c -0.0273 -0.1001 -0.0364 -0.1547 -0.0364 -0.1729c 0 -0.1001 0.0637 -0.1547 0.1911 -0.1547c 0.1729 0 0.182 0.1001 0.2275 0.2912c 0.1547 0.6279 0.364 0.9464 0.6279 0.9464c 0.1729 0 0.2548 -0.1365 0.2548 -0.4095c 0 -0.1001 -0.0455 -0.3367 -0.1456 -0.728l -0.4823 -1.9474c -0.0637 -0.2457 -0.091 -0.3731 -0.091 -0.3822c 0 -0.2093 0.1183 -0.3185 0.3458 -0.3185c 0.1729 0 0.3003 0.0728 0.3822 0.2184c 0.0273 0.0546 0.0819 0.2457 0.1638 0.5642l 0.1911 0.8008c 0.1092 0.4277 0.1729 0.6643 0.1911 0.7189c 0.0728 0.2366 0.182 0.4641 0.3367 0.6734c 0.3822 0.5369 0.819 0.8099 1.3195 0.8099c 0.3276 0 0.4914 -0.2002 0.4914 -0.5915c 0 -0.3549 -0.1729 -0.9828 -0.5278 -1.8928c -0.091 -0.2366 -0.1365 -0.4004 -0.1365 -0.5005c 0 -0.4914 0.4004 -0.8008 0.8918 -0.8008c 0.4277 0 0.7735 0.2184 1.0192 0.6552c 0.2093 0.3731 0.3094 0.6188 0.3094 0.7462c 0 0.1001 -0.0637 0.1547 -0.182 0.1547c -0.0637 -0.0091 -0.1274 -0.0546 -0.1911 -0.1456c -0.0091 -0.0091 -0.0091 -0.0273 -0.0091 -0.0364c -0.2093 -0.7007 -0.5187 -1.0556 -0.9191 -1.0556c -0.1274 0 -0.1911 0.091 -0.1911 0.2821c 0 0.1274 0.0728 0.364 0.2093 0.7098c 0.3185 0.8099 0.4732 1.3923 0.4732 1.7381c 0 0.4186 -0.1456 0.7098 -0.4277 0.8645c -0.2275 0.1274 -0.4914 0.1911 -0.7735 0.1911c -0.5915 0 -1.092 -0.2548 -1.4924 -0.7644c -0.0819 0.4459 -0.4732 0.7644 -0.9919 0.7644Z "/></symbol><symbol id="g9B543B57F718853EF8F95EF155B6CF69" overflow="visible"><path d="M 0 0m 9.074 3.51h -8.034c -0.208 0 -0.312 -0.091 -0.312 -0.26c 0 -0.169 0.104 -0.26 0.312 -0.26h 8.034c 0.208 0 0.312 0.091 0.312 0.26c 0 0.156 -0.156 0.26 -0.312 0.26Z "/></symbol><symbol id="g2F93E6EEEE2061842AA37F49EEA2F1A2" overflow="visible"><path d="M 0 0m 1.014 -3.185c 0.78 0.598 1.43 1.482 1.963 2.665c 0.507 1.131 0.767 2.197 0.767 3.224v 1.092c 0 1.027 -0.26 2.093 -0.767 3.224c -0.533 1.183 -1.183 2.067 -1.963 2.665c -0.039 0.026 -0.078 0.039 -0.091 0.039c -0.117 0 -0.182 -0.065 -0.182 -0.182c 0 -0.052 0.026 -0.104 0.065 -0.143c 0.676 -0.52 1.222 -1.378 1.625 -2.561c 0.351 -1.027 0.533 -2.041 0.533 -3.042v -1.092c 0 -1.001 -0.182 -2.015 -0.533 -3.042c -0.403 -1.183 -0.949 -2.041 -1.625 -2.561c -0.039 -0.052 -0.065 -0.104 -0.065 -0.143c 0 -0.117 0.065 -0.182 0.182 -0.182c 0.013 0 0.052 0.013 0.091 0.039Z "/></symbol><symbol id="g37A25FD9304FC623B4D612A207BC8176" overflow="visible"><path d="M 0 0m 6.825 5.603h -2.925c -0.624 0 -1.209 -0.195 -1.742 -0.598c -0.832 -0.637 -1.664 -1.755 -1.664 -3.081c 0 -1.17 0.806 -2.067 1.976 -2.067c 0.871 0 1.651 0.377 2.314 1.131c 0.637 0.728 0.949 1.534 0.949 2.431c 0 0.533 -0.117 0.975 -0.351 1.339h 1.313c 0.455 0 0.676 0.156 0.676 0.481c 0 0.299 -0.221 0.364 -0.546 0.364Z m -5.434 -4.03c 0 0.767 0.182 1.469 0.559 2.093c 0.442 0.728 1.014 1.092 1.729 1.092c 0.754 0 1.131 -0.39 1.131 -1.183c 0 -0.325 -0.065 -0.702 -0.195 -1.144c -0.26 -0.923 -0.689 -1.573 -1.287 -1.924c -0.299 -0.182 -0.585 -0.273 -0.845 -0.273c -0.715 0 -1.092 0.585 -1.092 1.339Z "/></symbol><symbol id="g48B3ED1BE8E5B4ABFD539FA8F671E63F" overflow="visible"><path d="M 0 0m 1.3104 0.0273l 1.0101 -0.0273v 0.3549c -0.3276 0 -0.5278 0.0091 -0.5915 0.0455c -0.0637 0.0364 -0.091 0.1456 -0.091 0.3185v 5.5965l -1.3377 -0.1001v -0.3458c 0.3185 0 0.5187 -0.0273 0.5824 -0.0819c 0.0637 -0.0546 0.1001 -0.182 0.1001 -0.3913v -4.6774c 0 -0.1729 -0.0273 -0.2821 -0.091 -0.3185c -0.0637 -0.0364 -0.2639 -0.0455 -0.5915 -0.0455v -0.3549Z "/></symbol><symbol id="g402F9925856942787E59D257DA93AD2E" overflow="visible"><path d="M 0 0m 1.7654 5.4691c 0 0.273 -0.2275 0.5096 -0.5005 0.5096c -0.273 0 -0.5096 -0.2366 -0.5096 -0.5096c 0 -0.273 0.2275 -0.5187 0.5005 -0.5187c 0.2821 0 0.5096 0.2366 0.5096 0.5187Z m -0.4641 -5.4418l 0.9464 -0.0273v 0.3549c -0.3003 0 -0.4823 0.0182 -0.5369 0.0546c -0.0546 0.0364 -0.0728 0.1365 -0.0728 0.3003v 3.3397l -1.3013 -0.1092v -0.3458c 0.3003 0 0.4914 -0.0273 0.5551 -0.0728c 0.0637 -0.0455 0.091 -0.1729 0.091 -0.3822v -2.4206c 0 -0.1729 -0.0273 -0.2821 -0.091 -0.3185c -0.0637 -0.0364 -0.2639 -0.0455 -0.5915 -0.0455v -0.3549Z "/></symbol><symbol id="gF8130F3716873E4875D3AC8A6936C373" overflow="visible"><path d="M 0 0m 2.7118 -0.1001c 0.5642 0 1.0465 0.2002 1.4378 0.6097c 0.3913 0.4095 0.5915 0.8918 0.5915 1.4651c 0 0.5551 -0.182 1.0465 -0.5551 1.456c -0.3731 0.4095 -0.8281 0.6188 -1.3832 0.6188c -0.4459 0 -0.8463 -0.1729 -1.183 -0.5278v 2.7937l -1.365 -0.1001v -0.3458c 0.3276 0 0.5278 -0.0273 0.6006 -0.0819c 0.0728 -0.0546 0.1001 -0.182 0.1001 -0.3913v -5.3963h 0.2821l 0.3003 0.5278c 0.2912 -0.4186 0.6825 -0.6279 1.1739 -0.6279Z m -0.0364 0.273c -0.3731 0 -0.6825 0.1729 -0.91 0.5278c -0.0819 0.1183 -0.1183 0.2457 -0.1183 0.364v 1.8473c 0 0.1183 0.0273 0.2184 0.091 0.3094c 0.2639 0.3731 0.6006 0.5551 1.0283 0.5551c 0.3731 0 0.6734 -0.182 0.91 -0.5551c 0.1638 -0.273 0.2457 -0.6825 0.2457 -1.2376c 0 -0.9828 -0.3458 -1.8109 -1.2467 -1.8109Z "/></symbol><symbol id="g23F189AE588E1A359BE6574F29945FEE" overflow="visible"><path d="M 0 0m 3.3124 3.4398c 0 0.3549 -0.3367 0.5824 -0.6916 0.5824c -0.4641 0 -0.819 -0.273 -1.0556 -0.8281v 0.8281l -1.3104 -0.1001v -0.3458c 0.3185 0 0.5096 -0.0273 0.5824 -0.0819c 0.0728 -0.0546 0.1092 -0.1729 0.1092 -0.3822v -2.3933c 0 -0.1729 -0.0273 -0.2821 -0.091 -0.3185c -0.0637 -0.0364 -0.2639 -0.0546 -0.6006 -0.0546v -0.3458l 1.0465 0.0273c 0.3822 0.0091 0.7735 0 1.1648 -0.0273v 0.3458h -0.2184c -0.3003 0 -0.4914 0.0273 -0.5551 0.0728c -0.0637 0.0455 -0.091 0.1547 -0.091 0.3185v 1.3741c 0 0.3913 0.0728 0.7462 0.2093 1.0465c 0.182 0.3913 0.4459 0.5915 0.8008 0.6006c -0.091 -0.091 -0.1365 -0.2002 -0.1365 -0.3276c 0 -0.2821 0.1365 -0.4186 0.4186 -0.4186c 0.2457 0 0.4186 0.1911 0.4186 0.4277Z "/></symbol><symbol id="g6F1B2EC7690C574873AE01D06ED173C6" overflow="visible"><path d="M 0 0m 3.7765 2.2841c 0 1.0465 -0.6097 1.7927 -1.6289 1.7927c -0.546 0 -1.001 -0.2093 -1.3741 -0.637c -0.3458 -0.4004 -0.5187 -0.8827 -0.5187 -1.4378c 0 -0.5733 0.1911 -1.0556 0.5733 -1.4742c 0.3822 -0.4186 0.8554 -0.6279 1.4196 -0.6279c 0.5187 0 0.9191 0.182 1.1921 0.5369c 0.2275 0.3003 0.3367 0.5187 0.3367 0.6643c 0 0.091 -0.0546 0.1365 -0.1547 0.1365c -0.0728 0 -0.1183 -0.0455 -0.1456 -0.1456c -0.2002 -0.6006 -0.5915 -0.9009 -1.1739 -0.9009c -0.4095 0 -0.728 0.1911 -0.9737 0.5824c -0.1729 0.2821 -0.2548 0.7098 -0.2639 1.2922h 2.457c 0.2002 0 0.2548 0.0182 0.2548 0.2184Z m -0.8099 0.8918c 0.1001 -0.3003 0.1456 -0.5915 0.1456 -0.8554h -2.0384c 0.0273 0.6006 0.182 1.0101 0.455 1.2194c 0.2275 0.182 0.4277 0.273 0.6188 0.273c 0.4095 0 0.6825 -0.2093 0.819 -0.637Z "/></symbol></defs></svg>