<svg viewBox="0 0 148.894922222 22.0324" width="148.894922222pt" height="22.0324pt" xmlns="http://www.w3.org/2000/svg" xmlns:xlink="http://www.w3.org/1999/xlink" xmlns:h5="http://www.w3.org/1999/xhtml"><g transform="matrix(1 0 0 -1 6.5 13.065)"><use xlink:href="#gD83AEAE39B2D396ED26985CFF34A14A" x="0" y="0" fill="#e6edf3" fill-rule="nonzero"/></g><g transform="matrix(1 0 0 -1 24.099111111 13.065)"><use xlink:href="#g13AFF74D87C474CFAF661EEAD0458F8B" x="0" y="0" fill="#e6edf3" fill-rule="nonzero"/></g><g transform="matrix(1 0 0 -1 37.824222222 13.065)"><use xlink:href="#gFCB8EE904C83D15DBBDA0F3192DB537A" x="0" y="0" fill="#e6edf3" fill-rule="nonzero"/></g><g transform="matrix(1 0 0 -1 47.847222222 16.276)"><use xlink:href="#g2F9B4C5FF6E5B587639F4DD8D1BED4C6" x="0" y="0" fill="#e6edf3" fill-rule="nonzero"/></g><g transform="matrix(1 0 0 -1 56.814911111 13.065)"><use xlink:href="#g9B543B57F718853EF8F95EF155B6CF69" x="0" y="0" fill="#e6edf3" fill-rule="nonzero"/></g><g transform="matrix(1 0 0 -1 69.8178 13.065)"><use xlink:href="#gFCB8EE904C83D15DBBDA0F3192DB537A" x="0" y="0" fill="#e6edf3" fill-rule="nonzero"/></g><g transform="matrix(1 0 0 -1 79.8408 16.276)"><use xlink:href="#g66C287F757172C4FBEE46C9B113A6E1F" x="0" y="0" fill="#e6edf3" fill-rule="nonzero"/></g><g transform="matrix(1 0 0 -1 111.7467 13.065)"><use xlink:href="#g9938A6CBBAF7354D1F8588377164559C" x="0" y="0" fill="#e6edf3" fill-rule="nonzero"/></g><g transform="matrix(1 0 0 -1 122.169811111 13.065)"><use xlink:href="#gF904AD4F2F6F16E6709428FC91FBDF40" x="0" y="0" fill="#e6edf3" fill-rule="nonzero"/></g><g transform="matrix(1 0 0 -1 135.894922222 13.065)"><use xlink:href="#g6B3DB0E0ADE6D994825CC39624067234" x="0" y="0" fill="#e6edf3" fill-rule="nonzero"/></g><defs><symbol id="gD83AEAE39B2D396ED26985CFF34A14A" overflow="visible"><path d="M 0 0m 12.428 8.84c -0.247 0 -1.092 0.039 -1.339 0.039c -0.195 0 -0.299 -0.104 -0.299 -0.299c 0 -0.13 0.078 -0.195 0.234 -0.208c 0.481 -0.013 0.715 -0.156 0.715 -0.442c 0 -0.078 -0.052 -0.208 -0.156 -0.403l -3.406 -5.902l -0.455 6.201c -0.052 0.468 0.26 0.546 0.845 0.546c 0.273 0 0.403 0.104 0.403 0.312c 0 0.13 -0.078 0.195 -0.247 0.195c -0.286 0 -1.287 -0.039 -1.573 -0.039c -0.247 0 -1.105 0.039 -1.352 0.039c -0.195 0 -0.299 -0.104 -0.299 -0.312c 0 -0.13 0.117 -0.195 0.364 -0.195c 0.403 0 0.611 -0.091 0.624 -0.273l 0.078 -0.975l -3.172 -5.499l -0.468 6.344c -0.039 0.325 0.507 0.403 0.923 0.403c 0.221 0 0.325 0.104 0.325 0.312c 0 0.13 -0.078 0.195 -0.234 0.195c -0.286 0 -1.3 -0.039 -1.586 -0.039c -0.247 0 -1.105 0.039 -1.352 0.039c -0.195 0 -0.286 -0.104 -0.286 -0.299c 0 -0.143 0.13 -0.208 0.377 -0.208c 0.546 0 0.598 -0.026 0.624 -0.416l 0.585 -7.865c 0.013 -0.247 0.104 -0.377 0.26 -0.377c 0.169 0.026 0.234 0.065 0.338 0.26c 0.013 0.013 0.013 0.026 0.013 0.039l 3.705 6.409l 0.468 -6.331c 0.013 -0.247 0.104 -0.377 0.26 -0.377c 0.13 0 0.247 0.091 0.351 0.273l 4.238 7.319c 0.351 0.637 0.598 1.001 1.391 1.066c 0.234 0.026 0.299 0.091 0.299 0.312c 0 0.13 -0.065 0.195 -0.208 0.195c -0.182 0 -0.806 -0.039 -0.988 -0.039Z "/></symbol><symbol id="g13AFF74D87C474CFAF661EEAD0458F8B" overflow="visible"><path d="M 0 0m 9.074 4.771h -8.034c -0.208 0 -0.312 -0.104 -0.312 -0.299c 0 -0.195 0.104 -0.299 0.312 -0.299h 8.034c 0.208 0 0.312 0.104 0.312 0.299c 0 0.156 -0.143 0.299 -0.312 0.299Z m 0 -2.444h -8.034c -0.208 0 -0.312 -0.104 -0.312 -0.299c 0 -0.195 0.104 -0.299 0.312 -0.299h 8.034c 0.208 0 0.312 0.104 0.312 0.299c 0 0.169 -0.143 0.299 -0.312 0.299Z "/></symbol><symbol id="gFCB8EE904C83D15DBBDA0F3192DB537A" overflow="visible"><path d="M 0 0m 3.978 -0.312c 0.377 0 0.78 0.065 1.209 0.182c -0.039 -0.494 -0.052 -0.806 -0.052 -0.923c 0 -0.975 0.377 -1.469 1.118 -1.469c 0.793 0 1.404 0.637 1.703 1.222c 0.325 0.676 0.494 1.118 0.494 1.326c 0 0.117 -0.065 0.182 -0.195 0.182c -0.091 0 -0.156 -0.052 -0.195 -0.169c -0.195 -0.598 -0.728 -1.209 -1.456 -1.209c -0.663 0 -0.754 0.533 -0.858 1.248c 1.092 0.429 2.015 1.17 2.756 2.236c 0.741 1.066 1.118 2.171 1.118 3.328c 0 1.027 -0.299 1.859 -0.91 2.522c -0.611 0.663 -1.417 1.001 -2.418 1.001c -0.689 0 -1.378 -0.169 -2.067 -0.52c -1.404 -0.689 -2.431 -1.781 -3.094 -3.25c -0.325 -0.741 -0.494 -1.469 -0.494 -2.21c 0 -2.041 1.326 -3.497 3.341 -3.497Z m 4.407 6.37c 0 -0.793 -0.195 -1.703 -0.585 -2.756c -0.455 -1.209 -1.157 -2.106 -2.132 -2.678c -0.052 0.286 -0.13 0.546 -0.234 0.78c -0.169 0.39 -0.481 0.585 -0.936 0.585c -0.715 0 -1.365 -0.65 -1.365 -1.365c 0 -0.117 0.013 -0.234 0.039 -0.325c -0.871 0.403 -1.3 1.222 -1.3 2.47c 0 0.546 0.104 1.209 0.325 1.989c 0.455 1.651 1.274 2.821 2.457 3.51c 0.559 0.312 1.079 0.468 1.56 0.468c 1.43 0 2.171 -1.183 2.171 -2.678Z m -3.887 -4.459c 0.481 0 0.728 -0.351 0.728 -1.04c 0 -0.117 -0.039 -0.182 -0.117 -0.208c -0.364 -0.156 -0.715 -0.234 -1.053 -0.234c -0.364 0 -0.546 0.169 -0.546 0.507c 0 0.494 0.494 0.975 0.988 0.975Z "/></symbol><symbol id="g2F9B4C5FF6E5B587639F4DD8D1BED4C6" overflow="visible"><path d="M 0 0m 4.7684 3.9221c -0.182 0 -0.3185 -0.0819 -0.4004 -0.2366c -0.0182 -0.0273 -0.0637 -0.2002 -0.1456 -0.5278l -0.546 -2.184c -0.0637 -0.1001 -0.1183 -0.1911 -0.182 -0.2639c -0.2912 -0.3367 -0.5915 -0.5005 -0.8918 -0.5005c -0.3822 0 -0.5733 0.2366 -0.5733 0.7098c 0 0.3367 0.1547 0.9191 0.4732 1.729c 0.1001 0.273 0.1547 0.4641 0.1547 0.5642c 0 0.4732 -0.4095 0.8008 -0.8827 0.8008c -0.4368 0 -0.7826 -0.2184 -1.0374 -0.6552c -0.2093 -0.3549 -0.3094 -0.6097 -0.3094 -0.7553c 0 -0.1001 0.0637 -0.1547 0.1911 -0.1547c 0.1001 0 0.1638 0.0546 0.1911 0.1729c 0.2093 0.7098 0.5278 1.0647 0.9373 1.0647c 0.1183 0 0.182 -0.091 0.182 -0.273c 0 -0.1365 -0.0364 -0.3003 -0.1183 -0.5096c -0.1911 -0.4823 -0.3003 -0.7826 -0.3458 -0.9009c -0.1183 -0.3549 -0.1729 -0.6734 -0.1729 -0.9373c 0 -0.7735 0.5005 -1.1739 1.274 -1.1739c 0.3367 0 0.637 0.1092 0.9191 0.3367c -0.1365 -0.5187 -0.3185 -0.9191 -0.5551 -1.2012c -0.3276 -0.3731 -0.6734 -0.5551 -1.0465 -0.5551c -0.2821 0 -0.4914 0.0728 -0.6188 0.2275c 0.2548 0.0637 0.4641 0.2366 0.4641 0.5278c 0 0.2457 -0.1274 0.3731 -0.3913 0.3731c -0.3276 0 -0.5551 -0.3003 -0.5551 -0.6279c 0 -0.5369 0.5278 -0.8281 1.1011 -0.8281c 0.5369 0 1.0192 0.182 1.4651 0.5369c 0.4459 0.3549 0.728 0.8008 0.8554 1.3195l 0.8554 3.3943c 0.0273 0.1001 0.0364 0.1638 0.0364 0.2093c 0 0.182 -0.1456 0.3185 -0.3276 0.3185Z "/></symbol><symbol id="g9B543B57F718853EF8F95EF155B6CF69" overflow="visible"><path d="M 0 0m 9.074 3.51h -8.034c -0.208 0 -0.312 -0.091 -0.312 -0.26c 0 -0.169 0.104 -0.26 0.312 -0.26h 8.034c 0.208 0 0.312 0.091 0.312 0.26c 0 0.156 -0.156 0.26 -0.312 0.26Z "/></symbol><symbol id="g66C287F757172C4FBEE46C9B113A6E1F" overflow="visible"><path d="M 0 0m 4.6956 2.9029c 0 1.0283 -0.182 1.8109 -0.5369 2.3478c -0.2912 0.455 -0.8736 0.7917 -1.5743 0.7917c -0.2912 0 -0.5551 -0.0455 -0.7826 -0.1456c -1.001 -0.4186 -1.3286 -1.5834 -1.3286 -2.9939c 0 -0.3094 0.0182 -0.6006 0.0455 -0.8827c 0.1547 -1.1921 0.7098 -2.2022 2.0657 -2.2022c 0.2912 0 0.5551 0.0455 0.7826 0.1456c 1.001 0.4095 1.3286 1.547 1.3286 2.9393Z m -1.0374 2.0202c 0.1001 -0.3367 0.1547 -0.9646 0.1547 -1.9019c 0 -0.8918 -0.0364 -1.5197 -0.1183 -1.8928c -0.1092 -0.5369 -0.4914 -0.9828 -1.1102 -0.9828c -0.2275 0 -0.455 0.0728 -0.6643 0.2275c -0.2821 0.2093 -0.455 0.6188 -0.5278 1.2467c -0.0273 0.2093 -0.0364 0.6734 -0.0364 1.4014c 0 0.8827 0.0455 1.4924 0.1365 1.82c 0.1547 0.5824 0.5187 0.8736 1.092 0.8736c 0.546 0 0.9464 -0.3549 1.0738 -0.7917Z "/></symbol><symbol id="g9938A6CBBAF7354D1F8588377164559C" overflow="visible"><path d="M 0 0m 4.927 5.746c -0.793 0 -1.443 -0.351 -1.95 -1.04c -0.091 0.585 -0.546 1.04 -1.209 1.04c -0.533 0 -0.923 -0.429 -1.196 -1.274c -0.13 -0.429 -0.195 -0.676 -0.195 -0.754c 0 -0.117 0.065 -0.182 0.208 -0.182c 0.065 0 0.104 0.013 0.143 0.039c 0.065 0.117 0.104 0.208 0.117 0.299c 0.234 0.988 0.533 1.482 0.884 1.482c 0.234 0 0.351 -0.182 0.351 -0.533c 0 -0.169 -0.065 -0.533 -0.208 -1.066l -0.741 -2.964c -0.039 -0.169 -0.117 -0.507 -0.117 -0.572c 0 -0.26 0.143 -0.39 0.429 -0.39c 0.247 0 0.429 0.13 0.52 0.39c 0.013 0.065 0.091 0.39 0.234 0.949l 0.286 1.157c 0.156 0.637 0.273 1.118 0.364 1.443c 0.039 0.091 0.143 0.273 0.312 0.533c 0.468 0.702 1.04 1.053 1.729 1.053c 0.429 0 0.637 -0.286 0.637 -0.845c 0 -0.195 -0.039 -0.455 -0.13 -0.793l -1.456 -5.915c -0.026 -0.104 -0.039 -0.169 -0.039 -0.208c 0 -0.273 0.143 -0.403 0.416 -0.403c 0.286 0 0.481 0.182 0.572 0.559l 1.456 5.811c 0.065 0.273 0.104 0.533 0.104 0.754c 0 0.936 -0.585 1.43 -1.521 1.43Z "/></symbol><symbol id="gF904AD4F2F6F16E6709428FC91FBDF40" overflow="visible"><path d="M 0 0m 8.684 0.494c 0.234 -0.117 0.455 0.078 0.455 0.286c 0 0.117 -0.065 0.208 -0.182 0.26l -6.942 3.289l 6.942 3.289c 0.117 0.052 0.182 0.143 0.182 0.26c 0 0.221 -0.104 0.325 -0.312 0.325c -0.052 0 -0.104 -0.013 -0.143 -0.026l -7.462 -3.536c -0.13 -0.065 -0.195 -0.169 -0.195 -0.312c 0 -0.143 0.065 -0.234 0.195 -0.299Z m 0.13 -1.43h -7.514c -0.208 0 -0.312 -0.104 -0.312 -0.299c 0 -0.208 0.104 -0.312 0.312 -0.312h 7.514c 0.208 0 0.312 0.104 0.312 0.312c 0 0.156 -0.143 0.299 -0.312 0.299Z "/></symbol><symbol id="g6B3DB0E0ADE6D994825CC39624067234" overflow="visible"><path d="M 0 0m 3.497 8.658c -0.533 -0.546 -1.313 -0.819 -2.34 -0.819v -0.507c 0.676 0 1.235 0.104 1.664 0.312v -6.578c 0 -0.234 -0.052 -0.39 -0.169 -0.455c -0.117 -0.065 -0.442 -0.104 -0.962 -0.104h -0.455v -0.507c 0.325 0.026 1.027 0.039 2.106 0.039c 1.079 0 1.781 -0.013 2.106 -0.039v 0.507h -0.455c -0.533 0 -0.858 0.039 -0.962 0.104c -0.104 0.065 -0.169 0.221 -0.169 0.455v 7.202c 0 0.312 -0.026 0.39 -0.364 0.39Z "/></symbol></defs></svg>