<svg viewBox="0 0 348.801411111 36.4234" width="348.801411111pt" height="36.4234pt" xmlns="http://www.w3.org/2000/svg" xmlns:xlink="http://www.w3.org/1999/xlink" xmlns:h5="http://www.w3.org/1999/xhtml"><g transform="matrix(1 0 0 -1 6.5 23.4624)"><use xlink:href="#gE24915BF1AE395C8F839C38F3AE173D" x="0" y="0" fill="#e6edf3" fill-rule="nonzero"/></g><g transform="matrix(1 0 0 -1 14.586 26.6734)"><use xlink:href="#g8A6A9074F91D642F82CC8BE39AC39D3A" x="0" y="0" fill="#e6edf3" fill-rule="nonzero"/></g><g transform="matrix(1 0 0 -1 24.103011111 23.4624)"><use xlink:href="#g13AFF74D87C474CFAF661EEAD0458F8B" x="0" y="0" fill="#e6edf3" fill-rule="nonzero"/></g><g transform="matrix(1 0 0 -1 37.828122222 23.4624)"><use xlink:href="#g35B4FBA1E2C6B292D79BD0F4F0E600B8" x="0" y="0" fill="#e6edf3" fill-rule="nonzero"/></g><g transform="matrix(1 0 0 -1 51.764122222 23.4624)"><use xlink:href="#g115DED64194A3B9D1CA25A004CD4734D" x="0" y="0" fill="#e6edf3" fill-rule="nonzero"/></g><g transform="matrix(1 0 0 -1 56.834122222 26.6734)"><use xlink:href="#g5A380D51C1693CF037954AEF50086985" x="0" y="0" fill="#e6edf3" fill-rule="nonzero"/></g><g transform="matrix(1 0 0 -1 62.740022222 23.4624)"><use xlink:href="#gEFA988DEC565252013B2D05DB9DFDA82" x="0" y="0" fill="#e6edf3" fill-rule="nonzero"/></g><g transform="matrix(1 0 0 -1 79.354022222 23.4624)"><use xlink:href="#gE24915BF1AE395C8F839C38F3AE173D" x="0" y="0" fill="#e6edf3" fill-rule="nonzero"/></g><g transform="matrix(1 0 0 -1 92.351133333 23.4624)"><use xlink:href="#g13AFF74D87C474CFAF661EEAD0458F8B" x="0" y="0" fill="#e6edf3" fill-rule="nonzero"/></g><g transform="matrix(1 0 0 -1 106.076244444 23.4624)"><use xlink:href="#g219D7D161E803083B7D838AFD138262C" x="0" y="0" fill="#e6edf3" fill-rule="nonzero"/></g><g transform="matrix(1 0 0 -1 114.929244444 23.4624)"><use xlink:href="#g115DED64194A3B9D1CA25A004CD4734D" x="0" y="0" fill="#e6edf3" fill-rule="nonzero"/></g><g transform="matrix(1 0 0 -1 121.754244444 23.4624)"><use xlink:href="#gEFA988DEC565252013B2D05DB9DFDA82" x="0" y="0" fill="#e6edf3" fill-rule="nonzero"/></g><g transform="matrix(1 0 0 -1 138.368244444 23.4624)"><use xlink:href="#g35B4FBA1E2C6B292D79BD0F4F0E600B8" x="0" y="0" fill="#e6edf3" fill-rule="nonzero"/></g><g transform="matrix(1 0 0 -1 150.978244444 26.6734)"><use xlink:href="#g5A380D51C1693CF037954AEF50086985" x="0" y="0" fill="#e6edf3" fill-rule="nonzero"/></g><g transform="matrix(1 0 0 -1 156.156144444 26.6734)"><use xlink:href="#g8A6A9074F91D642F82CC8BE39AC39D3A" x="0" y="0" fill="#e6edf3" fill-rule="nonzero"/></g><g transform="matrix(1 0 0 -1 165.673155556 23.4624)"><use xlink:href="#g13AFF74D87C474CFAF661EEAD0458F8B" x="0" y="0" fill="#e6edf3" fill-rule="nonzero"/></g><g transform="matrix(1 0 0 -1 179.398266667 23.4624)"><use xlink:href="#g35B4FBA1E2C6B292D79BD0F4F0E600B8" x="0" y="0" fill="#e6edf3" fill-rule="nonzero"/></g><g transform="matrix(1 0 0 -1 192.008266667 26.6734)"><use xlink:href="#g8A6A9074F91D642F82CC8BE39AC39D3A" x="0" y="0" fill="#e6edf3" fill-rule="nonzero"/></g><g transform="matrix(1 0 0 -1 197.186166667 26.6734)"><use xlink:href="#g5A380D51C1693CF037954AEF50086985" x="0" y="0" fill="#e6edf3" fill-rule="nonzero"/></g><g transform="matrix(1 0 0 -1 206.703177778 23.4624)"><use xlink:href="#g13AFF74D87C474CFAF661EEAD0458F8B" x="0" y="0" fill="#e6edf3" fill-rule="nonzero"/></g><g transform="matrix(1 0 0 -1 220.428288889 23.4624)"><use xlink:href="#g35B4FBA1E2C6B292D79BD0F4F0E600B8" x="0" y="0" fill="#e6edf3" fill-rule="nonzero"/></g><g transform="matrix(1 0 0 -1 234.364288889 23.4624)"><use xlink:href="#gEFA988DEC565252013B2D05DB9DFDA82" x="0" y="0" fill="#e6edf3" fill-rule="nonzero"/></g><g transform="matrix(1 0 0 -1 250.978288889 23.4624)"><use xlink:href="#g219D7D161E803083B7D838AFD138262C" x="0" y="0" fill="#e6edf3" fill-rule="nonzero"/></g><g transform="matrix(1 0 0 -1 259.831288889 26.6734)"><use xlink:href="#g56CA2213A637A1EBD48C3733E7CBD1B8" x="0" y="0" fill="#e6edf3" fill-rule="nonzero"/><use xlink:href="#g733BC00FCAC4D4817C0648C06C143A7E" x="3.5854" y="0" fill="#e6edf3" fill-rule="nonzero"/><use xlink:href="#g48B3ED1BE8E5B4ABFD539FA8F671E63F" x="8.1354" y="0" fill="#e6edf3" fill-rule="nonzero"/></g><g transform="matrix(1 0 0 -1 274.8356 23.4624)"><use xlink:href="#g13AFF74D87C474CFAF661EEAD0458F8B" x="0" y="0" fill="#e6edf3" fill-rule="nonzero"/></g><g transform="matrix(1 0 0 -1 289.860711111 14.6614)"><use xlink:href="#gA32CAC846971E9468FADD933D647D41A" x="0" y="0" fill="#e6edf3" fill-rule="nonzero"/></g><g transform="matrix(1 0 0 -1 297.699711111 17.8724)"><use xlink:href="#g66C287F757172C4FBEE46C9B113A6E1F" x="0" y="0" fill="#e6edf3" fill-rule="nonzero"/></g><g transform="matrix(1 0 0 -1 303.605611111 14.6614)"><use xlink:href="#gACA2FE1DD062579B79E6E19150F5B03F" x="0" y="0" fill="#e6edf3" fill-rule="nonzero"/></g><g transform="matrix(1 0 0 -1 315.422611111 9.9424)"><use xlink:href="#g8A6A9074F91D642F82CC8BE39AC39D3A" x="0" y="0" fill="#e6edf3" fill-rule="nonzero"/></g><g transform="matrix(1 0 0 -1 321.328511111 14.6614)"><use xlink:href="#g3286A19CC752B68D2D94F2BC1EB495F" x="0" y="0" fill="#e6edf3" fill-rule="nonzero"/></g><g transform="matrix(1 0 0 -1 329.063511111 14.6614)"><use xlink:href="#gF5FB9F3934311C9D089606536CC9B01A" x="0" y="0" fill="#e6edf3" fill-rule="nonzero"/></g><g transform="matrix(1 0 0 -1 335.095511111 9.9424)"><use xlink:href="#g8A6A9074F91D642F82CC8BE39AC39D3A" x="0" y="0" fill="#e6edf3" fill-rule="nonzero"/></g><g transform="matrix(1 0 0 -1 311.687061111 32.3804)"><use xlink:href="#g51033D4B12CB440E1F4B9E20D47EE5DA" x="0" y="0" fill="#e6edf3" fill-rule="nonzero"/></g><path fill="none" stroke="#e6edf3" stroke-width="0.624" stroke-linecap="butt" stroke-linejoin="miter" stroke-miterlimit="4" transform="translate(289.860711111 20.2124)" d="M 0 0h 51.1407"/><defs><symbol id="gE24915BF1AE395C8F839C38F3AE173D" overflow="visible"><path d="M 0 0m 5.226 1.742c 0.845 0.065 1.586 0.325 2.249 0.754c 0.78 0.52 1.17 1.17 1.17 1.937c 0 0.767 -0.39 1.417 -1.17 1.937c -0.663 0.442 -1.404 0.702 -2.249 0.767v 0.676c 0 0.169 0.013 0.273 0.052 0.338c 0.065 0.143 0.429 0.221 1.118 0.221h 0.481v 0.507c -0.351 -0.026 -1.092 -0.039 -2.223 -0.039c -1.144 0 -1.885 0.013 -2.236 0.039v -0.507h 0.481c 0.689 0 1.066 -0.065 1.131 -0.208c 0.026 -0.065 0.039 -0.182 0.039 -0.351v -0.676c -0.832 -0.091 -1.56 -0.351 -2.197 -0.78c -0.767 -0.507 -1.144 -1.144 -1.144 -1.911c 0 -0.767 0.377 -1.404 1.131 -1.924c 0.637 -0.429 1.378 -0.689 2.21 -0.78v -0.676c 0 -0.169 -0.013 -0.273 -0.039 -0.338c -0.065 -0.143 -0.442 -0.221 -1.131 -0.221h -0.481v -0.507c 0.351 0.026 1.092 0.039 2.223 0.039c 1.144 0 1.885 -0.013 2.236 -0.039v 0.507h -0.481c -0.689 0 -1.053 0.065 -1.118 0.208c -0.039 0.065 -0.052 0.182 -0.052 0.351Z m 0 5.005c 1.352 -0.169 2.028 -0.936 2.028 -2.301c 0 -1.365 -0.676 -2.132 -2.028 -2.314Z m -1.157 -0.013v -4.589c -1.3 0.195 -1.95 0.949 -1.95 2.288c 0 1.339 0.65 2.106 1.95 2.301Z "/></symbol><symbol id="g8A6A9074F91D642F82CC8BE39AC39D3A" overflow="visible"><path d="M 0 0m 1.0829 3.8584c 0.2912 0 0.5096 0.2184 0.5096 0.5096c 0 0.3276 -0.1729 0.5005 -0.5096 0.5096c 0.2002 0.4277 0.6552 0.7735 1.2467 0.7735c 0.8008 0 1.3286 -0.6006 1.3286 -1.4014c 0 -0.4368 -0.1547 -0.8554 -0.4732 -1.2649c -0.1547 -0.2093 -0.273 -0.3549 -0.3549 -0.4368l -2.1567 -2.1385c -0.1183 -0.1092 -0.1001 -0.1365 -0.1001 -0.4095h 3.7492l 0.2821 1.7108h -0.3822c -0.0637 -0.4823 -0.1365 -0.7644 -0.2184 -0.8281c -0.0455 -0.0273 -0.3276 -0.0455 -0.8645 -0.0455h -1.547c 0.6097 0.5369 1.1739 1.0192 1.7108 1.4469c 0.4095 0.3185 0.7007 0.6006 0.8827 0.8463c 0.273 0.3549 0.4095 0.728 0.4095 1.1193c 0 0.5642 -0.2184 1.0101 -0.6643 1.3377c -0.3913 0.3003 -0.8827 0.455 -1.4651 0.455c -0.5005 0 -0.9282 -0.1456 -1.3013 -0.4368c -0.3913 -0.3185 -0.5915 -0.7189 -0.5915 -1.2103c 0 -0.3094 0.2275 -0.5369 0.5096 -0.5369Z "/></symbol><symbol id="g13AFF74D87C474CFAF661EEAD0458F8B" overflow="visible"><path d="M 0 0m 9.074 4.771h -8.034c -0.208 0 -0.312 -0.104 -0.312 -0.299c 0 -0.195 0.104 -0.299 0.312 -0.299h 8.034c 0.208 0 0.312 0.104 0.312 0.299c 0 0.156 -0.143 0.299 -0.312 0.299Z m 0 -2.444h -8.034c -0.208 0 -0.312 -0.104 -0.312 -0.299c 0 -0.195 0.104 -0.299 0.312 -0.299h 8.034c 0.208 0 0.312 0.104 0.312 0.299c 0 0.169 -0.143 0.299 -0.312 0.299Z "/></symbol><symbol id="g35B4FBA1E2C6B292D79BD0F4F0E600B8" overflow="visible"><path d="M 0 0m 7.722 0.208c 0 -0.143 0.078 -0.208 0.247 -0.208l 1.599 0.039c 0.299 0.013 1.352 -0.039 1.599 -0.039c 0.195 0 0.299 0.104 0.299 0.312c 0 0.13 -0.13 0.195 -0.403 0.195c -0.533 0 -0.793 0.052 -0.793 0.169c 0 0.039 0.026 0.13 0.065 0.299l 1.716 6.851c 0.065 0.273 0.195 0.442 0.364 0.507c 0.078 0.026 0.312 0.039 0.689 0.039c 0.325 0 0.468 0.013 0.468 0.312c 0 0.13 -0.13 0.195 -0.403 0.195h -1.703c -0.377 0 -0.377 -0.026 -0.546 -0.273l -4.628 -7.202l -0.988 7.137c -0.052 0.325 -0.078 0.338 -0.455 0.338h -1.768c -0.286 0 -0.429 -0.013 -0.429 -0.299c 0 -0.143 0.143 -0.208 0.416 -0.208c 0.26 0 0.793 0.039 0.793 -0.169c 0 -0.026 -0.013 -0.104 -0.052 -0.234l -1.638 -6.539c -0.117 -0.494 -0.416 -0.793 -0.871 -0.884c -0.325 -0.039 -0.754 0.013 -0.754 -0.338c 0 -0.143 0.078 -0.208 0.234 -0.208c 0.234 0 1.053 0.039 1.287 0.039c 0.247 0 1.079 -0.039 1.326 -0.039c 0.195 0 0.286 0.104 0.286 0.312c 0 0.117 -0.091 0.182 -0.286 0.195c -0.546 0 -0.819 0.169 -0.819 0.507c 0 0.052 0.013 0.143 0.052 0.286l 1.69 6.773l 1.079 -7.735c 0.039 -0.221 0.117 -0.338 0.247 -0.338c 0.104 0 0.208 0.091 0.325 0.26l 5.057 7.891l -1.768 -7.085c -0.078 -0.286 -0.208 -0.455 -0.403 -0.52c -0.078 -0.026 -0.325 -0.039 -0.728 -0.039c -0.273 0 -0.403 -0.026 -0.403 -0.299Z "/></symbol><symbol id="g115DED64194A3B9D1CA25A004CD4734D" overflow="visible"><path d="M 0 0m 6.461 8.671c 0 0.143 -0.078 0.208 -0.247 0.208l -1.677 -0.039l -1.703 0.039c -0.208 0.013 -0.312 -0.091 -0.312 -0.312c 0 -0.13 0.143 -0.195 0.416 -0.195c 0.559 0 0.832 -0.065 0.832 -0.182c 0 -0.065 -0.013 -0.13 -0.026 -0.195l -1.729 -6.929c -0.065 -0.286 -0.195 -0.455 -0.39 -0.52c -0.091 -0.026 -0.325 -0.039 -0.728 -0.039c -0.325 0 -0.455 -0.013 -0.455 -0.312c 0 -0.13 0.078 -0.195 0.247 -0.195l 1.664 0.039l 1.716 -0.039c 0.208 -0.013 0.312 0.091 0.312 0.299c 0 0.208 -0.156 0.208 -0.442 0.208c -0.507 0 -0.819 -0.026 -0.819 0.182c 0 0.065 0.013 0.156 0.052 0.286l 1.716 6.851c 0.065 0.273 0.195 0.442 0.39 0.507c 0.091 0.026 0.325 0.039 0.728 0.039c 0.312 0 0.455 0.013 0.455 0.299Z "/></symbol><symbol id="g5A380D51C1693CF037954AEF50086985" overflow="visible"><path d="M 0 0m 2.7573 6.0424c -0.3913 -0.3822 -0.9737 -0.5733 -1.7654 -0.5733v -0.4004c 0.5369 0 0.9646 0.0819 1.2922 0.2366v -4.5318c 0 -0.1183 -0.0091 -0.1911 -0.0364 -0.2275c -0.0455 -0.1001 -0.3185 -0.1547 -0.819 -0.1547h -0.3731v -0.3913l 1.6198 0.0364l 1.6289 -0.0364v 0.3913h -0.3731c -0.5005 0 -0.7735 0.0546 -0.8281 0.1547c -0.0182 0.0364 -0.0273 0.1092 -0.0273 0.2275v 4.9777c 0 0.2457 -0.0364 0.2912 -0.3185 0.2912Z "/></symbol><symbol id="gEFA988DEC565252013B2D05DB9DFDA82" overflow="visible"><path d="M 0 0m 1.807 1.378c -0.416 0 -0.689 -0.312 -0.689 -0.728c 0 -0.39 0.299 -0.715 0.689 -0.715c 0.182 0 0.338 0.052 0.455 0.169l 0.013 -0.104c 0 -0.819 -0.273 -1.521 -0.819 -2.08c -0.091 -0.104 -0.143 -0.182 -0.143 -0.234c 0 -0.13 0.052 -0.195 0.169 -0.195c 0.117 0 0.273 0.156 0.494 0.455c 0.442 0.624 0.663 1.313 0.663 2.054c 0 0.689 -0.234 1.378 -0.832 1.378Z "/></symbol><symbol id="g219D7D161E803083B7D838AFD138262C" overflow="visible"><path d="M 0 0m 6.76 8.671c 0 0.143 -0.091 0.208 -0.26 0.208l -1.898 -0.039l -1.703 0.039c -0.195 0.013 -0.299 -0.091 -0.299 -0.312c 0 -0.091 0.039 -0.156 0.117 -0.169c 0.117 -0.013 0.221 -0.026 0.286 -0.026c 0.403 -0.013 0.624 -0.039 0.689 -0.052c 0.065 -0.013 0.104 -0.052 0.104 -0.117c 0 -0.026 -0.013 -0.104 -0.052 -0.234l -1.716 -6.903c -0.078 -0.286 -0.208 -0.455 -0.403 -0.52c -0.078 -0.026 -0.312 -0.039 -0.715 -0.039c -0.273 0 -0.403 -0.104 -0.403 -0.312c 0 -0.13 0.13 -0.195 0.403 -0.195h 5.941c 0.325 0 0.351 0 0.442 0.247l 1.014 2.782c 0.039 0.091 0.052 0.156 0.052 0.195c 0 0.13 -0.065 0.195 -0.208 0.195c -0.13 0 -0.195 -0.117 -0.26 -0.299c -0.247 -0.637 -0.481 -1.118 -0.676 -1.417c -0.481 -0.728 -1.3 -1.196 -2.496 -1.196h -1.209c -0.143 0 -0.234 0 -0.273 0.013c -0.091 0 -0.13 0.026 -0.13 0.065c 0 0.026 0.026 0.117 0.065 0.286l 1.729 6.942c 0.078 0.299 0.247 0.468 0.494 0.533c 0.078 0.013 0.351 0.026 0.819 0.026c 0.364 0 0.546 0 0.546 0.299Z "/></symbol><symbol id="g56CA2213A637A1EBD48C3733E7CBD1B8" overflow="visible"><path d="M 0 0m 3.276 1.183c 0 0.6916 -0.4732 1.1284 -1.4105 1.3104c -0.4277 0.0819 -0.7007 0.182 -0.8463 0.2821c -0.1456 0.1001 -0.2184 0.2457 -0.2184 0.4186c 0 0.4277 0.3185 0.637 0.9555 0.637c 0.6188 0 0.9555 -0.3458 1.001 -1.0465c 0.0091 -0.0728 0.0546 -0.1092 0.1456 -0.1092c 0.1001 0 0.1547 0.0819 0.1547 0.2457v 0.9009c 0 0.1729 -0.0455 0.2548 -0.1365 0.2548c -0.1001 0 -0.2366 -0.1638 -0.3276 -0.2366c -0.2275 0.1547 -0.5096 0.2366 -0.8372 0.2366c -0.8099 0 -1.456 -0.364 -1.456 -1.1375c 0 -0.3094 0.1274 -0.5733 0.3913 -0.7826c 0.3185 -0.2639 0.6188 -0.3185 1.1921 -0.4186c 0.5915 -0.1183 0.8918 -0.3822 0.8918 -0.7917c 0 -0.5187 -0.3185 -0.7826 -0.9646 -0.7826c -0.6279 0 -1.0283 0.4186 -1.2012 1.2467c -0.0273 0.1183 -0.0728 0.182 -0.1547 0.182c -0.1001 0 -0.1547 -0.091 -0.1547 -0.2639v -1.1739c 0 -0.1729 0.0455 -0.2548 0.1365 -0.2548c 0.0273 0 0.0728 0.0273 0.1456 0.091c 0.1638 0.1456 0.091 0.1183 0.2548 0.2821c 0.2639 -0.2457 0.5915 -0.3731 0.9737 -0.3731c 0.8645 0 1.4651 0.4459 1.4651 1.2831Z "/></symbol><symbol id="g733BC00FCAC4D4817C0648C06C143A7E" overflow="visible"><path d="M 0 0m 2.2659 -0.1001c 0.5642 0 1.0374 0.2002 1.4287 0.6006c 0.3913 0.4004 0.5915 0.8827 0.5915 1.4469c 0 0.5733 -0.1911 1.0738 -0.5733 1.4924c -0.3822 0.4186 -0.8645 0.637 -1.4378 0.637c -0.5733 0 -1.0465 -0.2184 -1.4378 -0.637c -0.3913 -0.4186 -0.5824 -0.9191 -0.5824 -1.4924c 0 -0.5642 0.1911 -1.0465 0.5824 -1.4469c 0.3913 -0.4004 0.8736 -0.6006 1.4287 -0.6006Z m 0.0091 0.2912c -0.4368 0 -0.7644 0.1911 -0.9919 0.5824c -0.1456 0.2548 -0.2184 0.6734 -0.2184 1.2467c 0 0.5551 0.0728 0.9555 0.2093 1.2103c 0.2184 0.3913 0.546 0.5824 0.9919 0.5824c 0.4277 0 0.7553 -0.1911 0.9828 -0.5642c 0.1547 -0.2548 0.2275 -0.6643 0.2275 -1.2285c 0 -1.0556 -0.3094 -1.8291 -1.2012 -1.8291Z "/></symbol><symbol id="g48B3ED1BE8E5B4ABFD539FA8F671E63F" overflow="visible"><path d="M 0 0m 1.3104 0.0273l 1.0101 -0.0273v 0.3549c -0.3276 0 -0.5278 0.0091 -0.5915 0.0455c -0.0637 0.0364 -0.091 0.1456 -0.091 0.3185v 5.5965l -1.3377 -0.1001v -0.3458c 0.3185 0 0.5187 -0.0273 0.5824 -0.0819c 0.0637 -0.0546 0.1001 -0.182 0.1001 -0.3913v -4.6774c 0 -0.1729 -0.0273 -0.2821 -0.091 -0.3185c -0.0637 -0.0364 -0.2639 -0.0455 -0.5915 -0.0455v -0.3549Z "/></symbol><symbol id="gA32CAC846971E9468FADD933D647D41A" overflow="visible"><path d="M 0 0m 7.436 1.846c 0 0.117 -0.065 0.182 -0.208 0.182c -0.104 0 -0.182 -0.091 -0.221 -0.26c -0.26 -1.04 -0.572 -1.56 -0.923 -1.56c -0.221 0 -0.338 0.182 -0.338 0.546c 0 0.221 0.078 0.663 0.247 1.313l 0.364 1.391c 0.117 0.468 0.221 0.793 0.299 1.196l 0.078 0.364c 0.026 0.091 0.039 0.156 0.039 0.182c 0 0.273 -0.143 0.403 -0.429 0.403c -0.286 0 -0.468 -0.156 -0.546 -0.481l -0.936 -3.718c 0 -0.143 -0.208 -0.403 -0.624 -0.793c -0.286 -0.273 -0.611 -0.403 -0.988 -0.403c -0.598 0 -0.897 0.351 -0.897 1.066c 0 0.247 0.052 0.598 0.169 1.079l 0.546 2.158c 0.104 0.403 0.169 0.689 0.195 0.832c 0 0.273 -0.143 0.403 -0.429 0.403c -0.286 0 -0.468 -0.169 -0.559 -0.507l -1.846 -7.436c -0.026 -0.104 -0.039 -0.169 -0.039 -0.208c 0 -0.273 0.143 -0.403 0.416 -0.403c 0.195 0 0.351 0.104 0.494 0.299c 0.039 0.091 0.26 0.988 0.689 2.691c 0.312 -0.234 0.715 -0.351 1.209 -0.351c 0.767 0 1.274 0.403 1.677 0.871c 0.143 -0.481 0.572 -0.871 1.183 -0.871c 0.897 0 1.17 1.053 1.378 2.015Z "/></symbol><symbol id="g66C287F757172C4FBEE46C9B113A6E1F" overflow="visible"><path d="M 0 0m 4.6956 2.9029c 0 1.0283 -0.182 1.8109 -0.5369 2.3478c -0.2912 0.455 -0.8736 0.7917 -1.5743 0.7917c -0.2912 0 -0.5551 -0.0455 -0.7826 -0.1456c -1.001 -0.4186 -1.3286 -1.5834 -1.3286 -2.9939c 0 -0.3094 0.0182 -0.6006 0.0455 -0.8827c 0.1547 -1.1921 0.7098 -2.2022 2.0657 -2.2022c 0.2912 0 0.5551 0.0455 0.7826 0.1456c 1.001 0.4095 1.3286 1.547 1.3286 2.9393Z m -1.0374 2.0202c 0.1001 -0.3367 0.1547 -0.9646 0.1547 -1.9019c 0 -0.8918 -0.0364 -1.5197 -0.1183 -1.8928c -0.1092 -0.5369 -0.4914 -0.9828 -1.1102 -0.9828c -0.2275 0 -0.455 0.0728 -0.6643 0.2275c -0.2821 0.2093 -0.455 0.6188 -0.5278 1.2467c -0.0273 0.2093 -0.0364 0.6734 -0.0364 1.4014c 0 0.8827 0.0455 1.4924 0.1365 1.82c 0.1547 0.5824 0.5187 0.8736 1.092 0.8736c 0.546 0 0.9464 -0.3549 1.0738 -0.7917Z "/></symbol><symbol id="gACA2FE1DD062579B79E6E19150F5B03F" overflow="visible"><path d="M 0 0m 11.232 8.879c -0.247 0 -1.053 -0.039 -1.3 -0.039c -0.247 0 -1.066 0.039 -1.313 0.039c -0.195 0 -0.286 -0.104 -0.286 -0.312c 0 -0.117 0.091 -0.182 0.286 -0.195c 0.546 0 0.819 -0.169 0.819 -0.507c 0 -0.078 -0.013 -0.169 -0.026 -0.26l -1.404 -5.564l -2.795 6.565c -0.104 0.247 -0.13 0.273 -0.455 0.273h -1.729c -0.312 0 -0.429 -0.026 -0.429 -0.312c 0 -0.13 0.143 -0.195 0.416 -0.195c 0.546 0 0.819 -0.013 0.832 -0.052l -1.729 -6.89c -0.117 -0.507 -0.416 -0.793 -0.884 -0.884c -0.338 -0.039 -0.728 0.013 -0.728 -0.351c 0 -0.13 0.078 -0.195 0.221 -0.195c 0.234 0 1.04 0.039 1.287 0.039c 0.247 0 1.079 -0.039 1.326 -0.039c 0.195 0 0.286 0.104 0.286 0.312c 0 0.117 -0.104 0.182 -0.312 0.195c -0.533 0.013 -0.793 0.182 -0.793 0.507c 0 0.065 0.013 0.156 0.039 0.286l 1.677 6.643l 3.25 -7.67c 0.078 -0.182 0.182 -0.273 0.299 -0.273c 0.117 0 0.195 0.104 0.247 0.312l 1.807 7.15c 0.169 0.663 0.533 0.897 1.339 0.91c 0.182 0.013 0.273 0.117 0.273 0.325c -0.039 0.117 -0.052 0.182 -0.221 0.182Z "/></symbol><symbol id="g3286A19CC752B68D2D94F2BC1EB495F" overflow="visible"><path d="M 0 0m 6.812 5.603h -4.29c -0.533 0 -1.001 -0.208 -1.378 -0.611c -0.182 -0.195 -0.793 -1.027 -0.793 -1.196c 0.052 -0.091 0.052 -0.169 0.208 -0.169c 0.091 0 0.169 0.052 0.247 0.169c 0.416 0.637 0.949 0.962 1.586 0.962h 0.663c -0.299 -1.131 -0.845 -2.522 -1.625 -4.173c -0.065 -0.156 -0.104 -0.273 -0.104 -0.338c 0 -0.26 0.143 -0.39 0.416 -0.39c 0.247 0 0.429 0.143 0.546 0.416c 0.234 0.741 0.403 1.313 0.494 1.703l 0.715 2.782h 1.339c -0.351 -1.547 -0.533 -2.626 -0.533 -3.237c 0 -0.637 0.143 -1.664 0.624 -1.664c 0.273 0 0.572 0.26 0.572 0.533c 0 0.065 -0.026 0.169 -0.078 0.299c -0.247 0.611 -0.364 1.3 -0.364 2.093c 0 0.611 0.078 1.274 0.221 1.976h 1.417c 0.455 0 0.676 0.156 0.676 0.481c 0 0.299 -0.234 0.364 -0.559 0.364Z "/></symbol><symbol id="gF5FB9F3934311C9D089606536CC9B01A" overflow="visible"><path d="M 0 0m 5.668 4.862c 0 0.546 -0.533 0.884 -1.105 0.884c -0.637 0 -1.17 -0.299 -1.612 -0.91c -0.13 0.507 -0.572 0.91 -1.183 0.91c -0.533 0 -0.923 -0.416 -1.196 -1.261c -0.13 -0.429 -0.195 -0.676 -0.195 -0.754c 0 -0.117 0.065 -0.182 0.208 -0.182c 0.065 0 0.104 0.013 0.143 0.039c 0.065 0.117 0.104 0.208 0.117 0.299c 0.234 0.988 0.533 1.482 0.884 1.482c 0.221 0 0.338 -0.182 0.338 -0.546c 0 -0.169 -0.065 -0.52 -0.195 -1.053l -0.741 -2.951c -0.039 -0.169 -0.117 -0.507 -0.117 -0.572c 0 -0.26 0.143 -0.39 0.416 -0.39c 0.26 0 0.429 0.13 0.52 0.39l 0.247 0.936c 0.143 0.559 0.234 0.923 0.273 1.092l 0.403 1.664c 0.026 0.104 0.13 0.273 0.299 0.52c 0.351 0.494 0.754 0.91 1.391 0.91c 0.156 0 0.286 -0.026 0.403 -0.091c -0.39 -0.117 -0.585 -0.364 -0.585 -0.715c 0 -0.338 0.182 -0.507 0.533 -0.507c 0.429 0 0.754 0.377 0.754 0.806Z "/></symbol><symbol id="g51033D4B12CB440E1F4B9E20D47EE5DA" overflow="visible"><path d="M 0 0m 6.656 1.794c -0.299 -1.027 -0.715 -1.547 -1.261 -1.547c -0.169 0 -0.26 0.117 -0.26 0.364c 0 0.195 0.078 0.494 0.234 0.897c 0.52 1.391 0.78 2.34 0.78 2.847c 0 0.923 -0.598 1.43 -1.521 1.43c -0.689 0 -1.287 -0.286 -1.794 -0.845l 0.949 3.887c -0.026 0.117 -0.052 0.195 -0.221 0.195c -0.429 0 -1.378 -0.117 -1.547 -0.13c -0.195 -0.026 -0.299 -0.117 -0.299 -0.312c 0 -0.13 0.117 -0.195 0.351 -0.195c 0.273 0 0.572 0.013 0.598 -0.169l -1.898 -7.657c -0.039 -0.143 -0.052 -0.234 -0.052 -0.286c 0 -0.273 0.143 -0.416 0.416 -0.416c 0.26 0 0.442 0.13 0.533 0.377l 0.52 2.132c 0.156 0.637 0.273 1.118 0.364 1.443c 0.039 0.091 0.143 0.273 0.312 0.533c 0.468 0.702 1.04 1.053 1.729 1.053c 0.429 0 0.637 -0.286 0.637 -0.845c 0 -0.533 -0.26 -1.482 -0.78 -2.86c -0.117 -0.299 -0.169 -0.533 -0.169 -0.728c 0 -0.624 0.468 -1.105 1.092 -1.105c 0.572 0 1.027 0.325 1.352 0.988c 0.247 0.52 0.377 0.871 0.377 1.04c 0 0.117 -0.065 0.182 -0.208 0.182c -0.039 0 -0.234 -0.117 -0.234 -0.273Z "/></symbol></defs></svg>