<svg viewBox="0 0 97.334466667 39.468" width="97.334466667pt" height="39.468pt" xmlns="http://www.w3.org/2000/svg" xmlns:xlink="http://www.w3.org/1999/xlink" xmlns:h5="http://www.w3.org/1999/xhtml"><g transform="matrix(1 0 0 -1 6.5 21.593)"><use xlink:href="#gE24915BF1AE395C8F839C38F3AE173D" x="0" y="0" fill="#e6edf3" fill-rule="nonzero"/></g><g transform="matrix(1 0 0 -1 19.497111111 21.593)"><use xlink:href="#g13AFF74D87C474CFAF661EEAD0458F8B" x="0" y="0" fill="#e6edf3" fill-rule="nonzero"/></g><g transform="matrix(1 0 0 -1 33.222222222 21.593)"><use xlink:href="#gE38C5AF7324BE81D2650853A4E40FE14" x="0" y="0" fill="#e6edf3" fill-rule="nonzero"/></g><g transform="matrix(1 0 0 -1 45.819222222 35.386)"><use xlink:href="#gAFF071B78EC9EEFB01BB2C72F5E749E4" x="0" y="0" fill="#e6edf3" fill-rule="nonzero"/></g><g transform="matrix(1 0 0 -1 55.429688889 21.593)"><use xlink:href="#gCC416E75927AD0A8099D8AB0ED7855DE" x="0" y="0" fill="#e6edf3" fill-rule="nonzero"/></g><g transform="matrix(1 0 0 -1 65.283688889 18.564)"><use xlink:href="#g37D7AF847EB8D066970F2B84C26D7F75" x="0" y="0" fill="#e6edf3" fill-rule="nonzero"/></g><g transform="matrix(1 0 0 -1 68.510577778 21.593)"><use xlink:href="#gB323F9E42E1C20C087FBF81136E27860" x="0" y="0" fill="#e6edf3" fill-rule="nonzero"/></g><g transform="matrix(1 0 0 -1 75.013466667 21.593)"><use xlink:href="#g6BCCDCE0D843C0F823A4CE121D6D1649" x="0" y="0" fill="#e6edf3" fill-rule="nonzero"/></g><g transform="matrix(1 0 0 -1 82.085466667 21.593)"><use xlink:href="#g7FCD119A4094BE7F1574F3E8F3A7E7BD" x="0" y="0" fill="#e6edf3" fill-rule="nonzero"/></g><g transform="matrix(1 0 0 -1 91.029466667 18.278)"><use xlink:href="#g37D7AF847EB8D066970F2B84C26D7F75" x="0" y="0" fill="#e6edf3" fill-rule="nonzero"/></g><defs><symbol id="gE24915BF1AE395C8F839C38F3AE173D" overflow="visible"><path d="M 0 0m 5.226 1.742c 0.845 0.065 1.586 0.325 2.249 0.754c 0.78 0.52 1.17 1.17 1.17 1.937c 0 0.767 -0.39 1.417 -1.17 1.937c -0.663 0.442 -1.404 0.702 -2.249 0.767v 0.676c 0 0.169 0.013 0.273 0.052 0.338c 0.065 0.143 0.429 0.221 1.118 0.221h 0.481v 0.507c -0.351 -0.026 -1.092 -0.039 -2.223 -0.039c -1.144 0 -1.885 0.013 -2.236 0.039v -0.507h 0.481c 0.689 0 1.066 -0.065 1.131 -0.208c 0.026 -0.065 0.039 -0.182 0.039 -0.351v -0.676c -0.832 -0.091 -1.56 -0.351 -2.197 -0.78c -0.767 -0.507 -1.144 -1.144 -1.144 -1.911c 0 -0.767 0.377 -1.404 1.131 -1.924c 0.637 -0.429 1.378 -0.689 2.21 -0.78v -0.676c 0 -0.169 -0.013 -0.273 -0.039 -0.338c -0.065 -0.143 -0.442 -0.221 -1.131 -0.221h -0.481v -0.507c 0.351 0.026 1.092 0.039 2.223 0.039c 1.144 0 1.885 -0.013 2.236 -0.039v 0.507h -0.481c -0.689 0 -1.053 0.065 -1.118 0.208c -0.039 0.065 -0.052 0.182 -0.052 0.351Z m 0 5.005c 1.352 -0.169 2.028 -0.936 2.028 -2.301c 0 -1.365 -0.676 -2.132 -2.028 -2.314Z m -1.157 -0.013v -4.589c -1.3 0.195 -1.95 0.949 -1.95 2.288c 0 1.339 0.65 2.106 1.95 2.301Z "/></symbol><symbol id="g13AFF74D87C474CFAF661EEAD0458F8B" overflow="visible"><path d="M 0 0m 9.074 4.771h -8.034c -0.208 0 -0.312 -0.104 -0.312 -0.299c 0 -0.195 0.104 -0.299 0.312 -0.299h 8.034c 0.208 0 0.312 0.104 0.312 0.299c 0 0.156 -0.143 0.299 -0.312 0.299Z m 0 -2.444h -8.034c -0.208 0 -0.312 -0.104 -0.312 -0.299c 0 -0.195 0.104 -0.299 0.312 -0.299h 8.034c 0.208 0 0.312 0.104 0.312 0.299c 0 0.169 -0.143 0.299 -0.312 0.299Z "/></symbol><symbol id="gE38C5AF7324BE81D2650853A4E40FE14" overflow="visible"><path d="M 0 0m 16.263 17.693c -0.611 0 -1.157 -0.559 -1.664 -1.664c -0.247 -0.546 -0.507 -1.352 -0.806 -2.431c -1.261 -4.654 -2.223 -9.191 -3.224 -15.119c -0.455 -2.743 -0.832 -4.732 -1.131 -5.941c -0.533 -2.223 -1.144 -3.341 -1.82 -3.341c -0.26 0 -0.481 0.065 -0.663 0.208c 0.377 0.065 0.559 0.286 0.559 0.676c 0 0.39 -0.286 0.676 -0.676 0.676c -0.455 0 -0.689 -0.234 -0.689 -0.689c 0 -0.728 0.741 -1.261 1.495 -1.261c 0.949 0 1.729 0.754 2.34 2.249c 0.325 0.793 0.767 2.327 1.326 4.576c 0.949 3.861 1.794 7.995 2.535 12.389c 0.52 3.081 0.988 5.421 1.391 7.02c 0.39 1.508 0.741 2.262 1.053 2.262c 0.26 0 0.481 -0.065 0.65 -0.208c -0.377 -0.065 -0.572 -0.286 -0.572 -0.676c 0 -0.377 0.286 -0.676 0.663 -0.676c 0.455 0 0.689 0.234 0.689 0.689c 0 0.715 -0.702 1.261 -1.456 1.261Z m -5.434 0c -0.611 0 -1.157 -0.559 -1.664 -1.664c -0.481 -1.079 -0.975 -3.029 -1.352 -4.563c -0.949 -3.705 -1.833 -8.034 -2.665 -12.987c -0.468 -2.743 -0.845 -4.732 -1.131 -5.941c -0.533 -2.223 -1.144 -3.341 -1.833 -3.341c -0.247 0 -0.468 0.065 -0.663 0.208c 0.377 0.065 0.559 0.286 0.559 0.676c 0 0.377 -0.286 0.676 -0.663 0.676c -0.455 0 -0.689 -0.234 -0.689 -0.689c 0 -0.728 0.728 -1.261 1.482 -1.261c 0.949 0 1.742 0.754 2.353 2.249c 0.325 0.793 0.767 2.327 1.313 4.576c 0.949 3.861 1.794 7.995 2.535 12.389c 0.52 3.081 0.988 5.421 1.404 7.02c 0.377 1.508 0.728 2.262 1.04 2.262c 0.26 0 0.481 -0.065 0.65 -0.208c -0.377 -0.065 -0.572 -0.286 -0.572 -0.676c 0 -0.39 0.286 -0.676 0.676 -0.676c 0.455 0 0.689 0.234 0.689 0.689c 0 0.728 -0.715 1.261 -1.469 1.261Z "/></symbol><symbol id="gAFF071B78EC9EEFB01BB2C72F5E749E4" overflow="visible"><path d="M 0 0m 5.5874 4.2679c 0 -0.1092 0.0637 -0.1638 0.1911 -0.1638c 0.1729 0 0.1729 0.0637 0.2184 0.2275l 0.4641 1.911c 0 0.1001 -0.0546 0.1547 -0.1547 0.1547c -0.0546 0 -0.1274 -0.0455 -0.2093 -0.1365l -0.4095 -0.4823c -0.3094 0.4095 -0.7917 0.6188 -1.456 0.6188c -0.5915 0 -1.1375 -0.2002 -1.6289 -0.5915c -0.5369 -0.4277 -0.8008 -0.9282 -0.8008 -1.5015c 0 -0.6643 0.4641 -1.1557 1.0283 -1.3104c 0.5824 -0.1456 1.0192 -0.2548 1.3104 -0.3185c 0.5369 -0.1274 0.8099 -0.4277 0.8099 -0.91c 0 -0.4277 -0.182 -0.7917 -0.546 -1.092c -0.364 -0.3003 -0.7735 -0.455 -1.2012 -0.455c -0.4277 0 -0.819 0.0819 -1.1557 0.2548c -0.3731 0.1911 -0.5551 0.5187 -0.5551 0.9828c 0 0.1365 0.0182 0.2912 0.0546 0.4459c 0.0091 0.0273 0.0091 0.0455 0.0091 0.0546c 0 0.1001 -0.0637 0.1547 -0.182 0.1547c -0.0455 0 -0.0728 0 -0.1001 -0.0091c -0.0637 -0.0728 -0.1001 -0.1365 -0.1092 -0.2002l -0.455 -1.7927c -0.0182 -0.0728 -0.0273 -0.1183 -0.0273 -0.1456c 0 -0.1001 0.0546 -0.1456 0.1638 -0.1456c 0.0637 0 0.1274 0.0455 0.2002 0.1365l 0.2184 0.2548c 0.0819 0.1001 0.1456 0.1729 0.1911 0.2184c 0.3913 -0.4095 0.9646 -0.6097 1.7199 -0.6097c 0.6188 0 1.183 0.2184 1.6926 0.6552c 0.5278 0.4641 0.7917 1.001 0.7917 1.6107c 0 0.7917 -0.4732 1.2194 -1.1284 1.4287c 0 0 -1.2649 0.2821 -1.4287 0.3458c -0.3913 0.1365 -0.5824 0.4004 -0.5824 0.7826c 0 0.3913 0.1911 0.728 0.5733 1.0101c 0.3458 0.2548 0.7189 0.3822 1.1284 0.3822c 0.9373 0 1.4014 -0.455 1.4014 -1.365c 0 -0.0728 -0.0364 -0.3276 -0.0364 -0.4004Z "/></symbol><symbol id="gCC416E75927AD0A8099D8AB0ED7855DE" overflow="visible"><path d="M 0 0m 9.828 7.059c 0 1.183 -1.17 1.82 -2.444 1.82h -4.316c -0.299 0 -0.429 -0.013 -0.429 -0.312c 0 -0.208 0.26 -0.195 0.416 -0.195c 0.39 -0.013 0.624 -0.039 0.689 -0.052c 0.065 -0.013 0.091 -0.052 0.091 -0.117c 0 -0.026 -0.013 -0.104 -0.052 -0.234l -1.716 -6.903c -0.065 -0.286 -0.195 -0.455 -0.39 -0.52c -0.091 -0.026 -0.325 -0.039 -0.728 -0.039c -0.273 0 -0.403 -0.104 -0.403 -0.312c 0 -0.13 0.13 -0.195 0.403 -0.195h 4.589c 0.845 0 1.625 0.26 2.366 0.767c 0.819 0.559 1.235 1.248 1.235 2.054c 0 1.027 -0.845 1.651 -1.768 1.833c 1.144 0.273 2.457 1.144 2.457 2.405Z m -2.626 1.313c 0.897 0 1.352 -0.416 1.352 -1.261c 0 -0.663 -0.26 -1.209 -0.806 -1.651c -0.546 -0.442 -1.157 -0.65 -1.82 -0.65h -1.807l 0.78 3.12c 0.104 0.442 0.104 0.442 0.65 0.442Z m 0.364 -4.485c 0.182 -0.299 0.273 -0.598 0.273 -0.923c 0 -0.676 -0.26 -1.261 -0.793 -1.742c -0.533 -0.481 -1.131 -0.715 -1.82 -0.715h -1.755c -0.13 0 -0.221 0 -0.273 0.013c -0.078 0 -0.117 0.026 -0.117 0.065c 0 0.013 0 0.052 0.013 0.104c 0.403 1.651 0.715 2.899 0.923 3.731h 2.392c 0.559 0 0.936 -0.182 1.157 -0.533Z "/></symbol><symbol id="g37D7AF847EB8D066970F2B84C26D7F75" overflow="visible"><path d="M 0 0m -0.897 7.787c 0.117 0.039 0.169 0.104 0.169 0.221c 0 0.117 -0.052 0.182 -0.169 0.221c -0.468 0.156 -0.806 0.442 -1.014 0.871c -0.039 0.091 -0.117 0.143 -0.208 0.143c -0.169 0 -0.247 -0.078 -0.247 -0.234c 0 -0.195 0.169 -0.455 0.507 -0.767h -4.03c -0.169 0 -0.247 -0.078 -0.247 -0.234c 0 -0.156 0.078 -0.234 0.247 -0.234h 4.03c -0.338 -0.312 -0.507 -0.572 -0.507 -0.767c 0 -0.156 0.078 -0.234 0.247 -0.234c 0.091 0 0.169 0.052 0.208 0.143c 0.208 0.429 0.546 0.715 1.014 0.871Z "/></symbol><symbol id="gB323F9E42E1C20C087FBF81136E27860" overflow="visible"><path d="M 0 0m 2.496 3.25c 0 0.377 -0.312 0.689 -0.689 0.689c -0.377 0 -0.689 -0.312 -0.689 -0.689c 0 -0.377 0.312 -0.689 0.689 -0.689c 0.377 0 0.689 0.312 0.689 0.689Z "/></symbol><symbol id="g6BCCDCE0D843C0F823A4CE121D6D1649" overflow="visible"><path d="M 0 0m 5.577 8.216l -0.767 -3.159c -0.273 0.481 -0.65 0.728 -1.157 0.728c -0.845 0 -1.586 -0.429 -2.236 -1.3c -0.598 -0.806 -0.897 -1.651 -0.897 -2.522c 0 -1.144 0.663 -2.106 1.755 -2.106c 0.559 0 1.105 0.299 1.625 0.91c 0.143 -0.494 0.585 -0.91 1.196 -0.91c 0.897 0 1.183 1.066 1.378 2.028c 0 0.117 -0.065 0.182 -0.195 0.182c -0.117 0 -0.195 -0.091 -0.234 -0.273c -0.26 -1.027 -0.572 -1.547 -0.923 -1.547c -0.221 0 -0.338 0.182 -0.338 0.533c 0 0.195 0.026 0.403 0.078 0.611l 1.846 7.436v 0.052c -0.039 0.091 -0.117 0.143 -0.221 0.143c -0.299 0 -0.845 -0.052 -1.625 -0.143c -0.143 -0.013 -0.221 -0.117 -0.221 -0.299c 0 -0.13 0.117 -0.195 0.351 -0.195c 0.247 0 0.585 0.013 0.585 -0.169Z m -1.144 -3.328c 0.13 -0.273 0.195 -0.455 0.195 -0.572c -0.013 -0.052 -0.026 -0.117 -0.039 -0.208l -0.637 -2.522c -0.039 -0.143 -0.13 -0.299 -0.247 -0.455c -0.481 -0.585 -0.949 -0.884 -1.404 -0.884c -0.507 0 -0.767 0.39 -0.767 1.157c 0 0.312 0.078 0.78 0.234 1.404c 0.273 1.105 0.663 1.859 1.144 2.262c 0.26 0.221 0.507 0.325 0.754 0.325c 0.351 0 0.611 -0.169 0.767 -0.507Z "/></symbol><symbol id="g7FCD119A4094BE7F1574F3E8F3A7E7BD" overflow="visible"><path d="M 0 0m 1.729 2.041c 0 0.312 0.039 0.572 0.104 0.78c 0 0.13 -0.065 0.195 -0.208 0.195c -0.065 0 -0.117 -0.026 -0.143 -0.052c -0.065 -0.065 -0.806 -2.86 -0.806 -3.068c 0 -0.117 0.065 -0.182 0.195 -0.182c 0.065 0 0.156 0.065 0.273 0.208l 0.585 0.689c 0.455 -0.598 1.183 -0.897 2.171 -0.897c 0.858 0 1.612 0.351 2.288 1.04c 0.676 0.689 1.014 1.456 1.014 2.314c 0 0.611 -0.208 1.131 -0.637 1.547c -0.195 0.169 -0.455 0.312 -0.78 0.429c -0.299 0.065 -0.585 0.143 -0.871 0.221l -0.858 0.234c -0.429 0.117 -0.754 0.598 -0.754 1.118c 0 0.559 0.221 1.04 0.676 1.456c 0.455 0.416 0.962 0.624 1.521 0.624c 1.196 0 1.794 -0.65 1.794 -1.937c 0 -0.234 -0.052 -0.494 -0.052 -0.715v -0.039c 0.039 -0.091 0.104 -0.143 0.208 -0.143c 0.117 0 0.195 0.104 0.247 0.299l 0.689 2.821c 0 0.117 -0.065 0.182 -0.195 0.182c -0.065 0 -0.156 -0.065 -0.273 -0.208l -0.559 -0.676c -0.364 0.585 -0.975 0.884 -1.846 0.884c -0.819 0 -1.56 -0.312 -2.21 -0.923c -0.676 -0.624 -1.014 -1.339 -1.014 -2.158c 0 -0.936 0.611 -1.677 1.378 -1.885l 1.365 -0.351c 0.702 -0.195 1.144 -0.442 1.144 -1.313c 0 -0.598 -0.234 -1.131 -0.689 -1.599c -0.455 -0.468 -0.975 -0.715 -1.56 -0.715c -1.274 0 -2.197 0.559 -2.197 1.82Z "/></symbol></defs></svg>