<svg viewBox="0 0 312.091288889 36.6574" width="312.091288889pt" height="36.6574pt" xmlns="http://www.w3.org/2000/svg" xmlns:xlink="http://www.w3.org/1999/xlink" xmlns:h5="http://www.w3.org/1999/xhtml"><g transform="matrix(1 0 0 -1 6.5 23.5534)"><use xlink:href="#gC0145148BC36294A1E6393678561EC4B" x="0" y="0" fill="#e6edf3" fill-rule="nonzero"/></g><g transform="matrix(1 0 0 -1 15.389111111 23.5534)"><use xlink:href="#g13AFF74D87C474CFAF661EEAD0458F8B" x="0" y="0" fill="#e6edf3" fill-rule="nonzero"/></g><g transform="matrix(1 0 0 -1 29.114222222 23.5534)"><use xlink:href="#g9B543B57F718853EF8F95EF155B6CF69" x="0" y="0" fill="#e6edf3" fill-rule="nonzero"/></g><g transform="matrix(1 0 0 -1 39.228222222 23.5534)"><use xlink:href="#g67F14AC23942C2CCA8D4F8A1F079A1D1" x="0" y="0" fill="#e6edf3" fill-rule="nonzero"/></g><g transform="matrix(1 0 0 -1 49.472222222 23.5534)"><use xlink:href="#g3286A19CC752B68D2D94F2BC1EB495F" x="0" y="0" fill="#e6edf3" fill-rule="nonzero"/></g><g transform="matrix(1 0 0 -1 57.207222222 23.5534)"><use xlink:href="#gE9E0C553A910389E98181E1EB82F3CA5" x="0" y="0" fill="#e6edf3" fill-rule="nonzero"/></g><g transform="matrix(1 0 0 -1 64.084222222 18.8344)"><use xlink:href="#g8A6A9074F91D642F82CC8BE39AC39D3A" x="0" y="0" fill="#e6edf3" fill-rule="nonzero"/></g><g transform="matrix(1 0 0 -1 69.990122222 23.5534)"><use xlink:href="#gF291FCC7BBD497BC1B54131876EE661E" x="0" y="0" fill="#e6edf3" fill-rule="nonzero"/></g><g transform="matrix(1 0 0 -1 76.438122222 23.5534)"><use xlink:href="#gEFA988DEC565252013B2D05DB9DFDA82" x="0" y="0" fill="#e6edf3" fill-rule="nonzero"/></g><g transform="matrix(1 0 0 -1 93.052122222 23.5534)"><use xlink:href="#g115DED64194A3B9D1CA25A004CD4734D" x="0" y="0" fill="#e6edf3" fill-rule="nonzero"/></g><g transform="matrix(1 0 0 -1 103.488233333 23.5534)"><use xlink:href="#g13AFF74D87C474CFAF661EEAD0458F8B" x="0" y="0" fill="#e6edf3" fill-rule="nonzero"/></g><g transform="matrix(1 0 0 -1 120.963844444 14.7524)"><use xlink:href="#gC0145148BC36294A1E6393678561EC4B" x="0" y="0" fill="#e6edf3" fill-rule="nonzero"/></g><g transform="matrix(1 0 0 -1 118.513344444 32.4714)"><use xlink:href="#g64EED7C1DC5EF9C242224A119317485D" x="0" y="0" fill="#e6edf3" fill-rule="nonzero"/></g><path fill="none" stroke="#e6edf3" stroke-width="0.624" stroke-linecap="butt" stroke-linejoin="miter" stroke-miterlimit="4" transform="translate(118.513344444 20.3034)" d="M 0 0h 10.179"/><g transform="matrix(1 0 0 -1 133.603455556 23.5534)"><use xlink:href="#g13AFF74D87C474CFAF661EEAD0458F8B" x="0" y="0" fill="#e6edf3" fill-rule="nonzero"/></g><g transform="matrix(1 0 0 -1 147.328566667 23.5534)"><use xlink:href="#g9B543B57F718853EF8F95EF155B6CF69" x="0" y="0" fill="#e6edf3" fill-rule="nonzero"/></g><g transform="matrix(1 0 0 -1 158.742566667 14.7524)"><use xlink:href="#g67F14AC23942C2CCA8D4F8A1F079A1D1" x="0" y="0" fill="#e6edf3" fill-rule="nonzero"/></g><g transform="matrix(1 0 0 -1 168.986566667 14.7524)"><use xlink:href="#g3286A19CC752B68D2D94F2BC1EB495F" x="0" y="0" fill="#e6edf3" fill-rule="nonzero"/></g><g transform="matrix(1 0 0 -1 176.721566667 14.7524)"><use xlink:href="#gE9E0C553A910389E98181E1EB82F3CA5" x="0" y="0" fill="#e6edf3" fill-rule="nonzero"/></g><g transform="matrix(1 0 0 -1 183.598566667 10.0334)"><use xlink:href="#g8A6A9074F91D642F82CC8BE39AC39D3A" x="0" y="0" fill="#e6edf3" fill-rule="nonzero"/></g><g transform="matrix(1 0 0 -1 189.504466667 14.7524)"><use xlink:href="#gF291FCC7BBD497BC1B54131876EE661E" x="0" y="0" fill="#e6edf3" fill-rule="nonzero"/></g><g transform="matrix(1 0 0 -1 172.258016667 32.4714)"><use xlink:href="#g64EED7C1DC5EF9C242224A119317485D" x="0" y="0" fill="#e6edf3" fill-rule="nonzero"/></g><path fill="none" stroke="#e6edf3" stroke-width="0.624" stroke-linecap="butt" stroke-linejoin="miter" stroke-miterlimit="4" transform="translate(158.742566667 20.3034)" d="M 0 0h 37.2099"/><g transform="matrix(1 0 0 -1 197.252466667 23.5534)"><use xlink:href="#gEFA988DEC565252013B2D05DB9DFDA82" x="0" y="0" fill="#e6edf3" fill-rule="nonzero"/></g><g transform="matrix(1 0 0 -1 213.866466667 23.5534)"><use xlink:href="#g1BB2B5D3B118FC32761E8AAB6F68EABA" x="0" y="0" fill="#e6edf3" fill-rule="nonzero"/></g><g transform="matrix(1 0 0 -1 220.795466667 26.7644)"><use xlink:href="#g8D2729A48B9ECD6712FB8A757305E9A2" x="0" y="0" fill="#e6edf3" fill-rule="nonzero"/></g><g transform="matrix(1 0 0 -1 230.130477778 23.5534)"><use xlink:href="#g13AFF74D87C474CFAF661EEAD0458F8B" x="0" y="0" fill="#e6edf3" fill-rule="nonzero"/></g><g transform="matrix(1 0 0 -1 243.855588889 23.5534)"><use xlink:href="#g9B543B57F718853EF8F95EF155B6CF69" x="0" y="0" fill="#e6edf3" fill-rule="nonzero"/></g><g transform="matrix(1 0 0 -1 255.269588889 14.7524)"><use xlink:href="#g67F14AC23942C2CCA8D4F8A1F079A1D1" x="0" y="0" fill="#e6edf3" fill-rule="nonzero"/></g><g transform="matrix(1 0 0 -1 265.513588889 10.0334)"><use xlink:href="#g8A6A9074F91D642F82CC8BE39AC39D3A" x="0" y="0" fill="#e6edf3" fill-rule="nonzero"/></g><g transform="matrix(1 0 0 -1 271.419488889 14.7524)"><use xlink:href="#g3286A19CC752B68D2D94F2BC1EB495F" x="0" y="0" fill="#e6edf3" fill-rule="nonzero"/></g><g transform="matrix(1 0 0 -1 279.154488889 10.0334)"><use xlink:href="#g8A6A9074F91D642F82CC8BE39AC39D3A" x="0" y="0" fill="#e6edf3" fill-rule="nonzero"/></g><g transform="matrix(1 0 0 -1 285.060388889 14.7524)"><use xlink:href="#gE9E0C553A910389E98181E1EB82F3CA5" x="0" y="0" fill="#e6edf3" fill-rule="nonzero"/></g><g transform="matrix(1 0 0 -1 291.937388889 10.0334)"><use xlink:href="#gA606C0CE8C60E36688427617C8536C21" x="0" y="0" fill="#e6edf3" fill-rule="nonzero"/></g><g transform="matrix(1 0 0 -1 271.466938889 32.4714)"><use xlink:href="#g64EED7C1DC5EF9C242224A119317485D" x="0" y="0" fill="#e6edf3" fill-rule="nonzero"/></g><path fill="none" stroke="#e6edf3" stroke-width="0.624" stroke-linecap="butt" stroke-linejoin="miter" stroke-miterlimit="4" transform="translate(255.269588889 20.3034)" d="M 0 0h 42.5737"/><g transform="matrix(1 0 0 -1 299.143288889 23.5534)"><use xlink:href="#gF291FCC7BBD497BC1B54131876EE661E" x="0" y="0" fill="#e6edf3" fill-rule="nonzero"/></g><defs><symbol id="gC0145148BC36294A1E6393678561EC4B" overflow="visible"><path d="M 0 0m 2.964 -0.143c 0.52 0 1.001 0.143 1.443 0.429c 0.169 0.117 0.247 0.208 0.247 0.273c 0 0.156 -0.065 0.234 -0.182 0.234l -0.182 -0.091c -0.481 -0.312 -0.91 -0.468 -1.3 -0.468c -0.871 0 -1.326 0.702 -1.326 1.612c 0 0.338 0.039 0.689 0.13 1.04h 2.054c 0.325 0 0.481 0.091 0.481 0.26c 0 0.156 -0.143 0.234 -0.416 0.234h -1.989c 0.351 1.157 1.053 1.729 2.106 1.729h 0.39c 0.312 0 0.468 0.091 0.468 0.26c 0 0.156 -0.143 0.234 -0.429 0.234h -0.442c -0.923 0 -1.729 -0.312 -2.405 -0.949c -0.676 -0.637 -1.001 -1.404 -1.001 -2.327c 0 -1.404 0.949 -2.47 2.353 -2.47Z "/></symbol><symbol id="g13AFF74D87C474CFAF661EEAD0458F8B" overflow="visible"><path d="M 0 0m 9.074 4.771h -8.034c -0.208 0 -0.312 -0.104 -0.312 -0.299c 0 -0.195 0.104 -0.299 0.312 -0.299h 8.034c 0.208 0 0.312 0.104 0.312 0.299c 0 0.156 -0.143 0.299 -0.312 0.299Z m 0 -2.444h -8.034c -0.208 0 -0.312 -0.104 -0.312 -0.299c 0 -0.195 0.104 -0.299 0.312 -0.299h 8.034c 0.208 0 0.312 0.104 0.312 0.299c 0 0.169 -0.143 0.299 -0.312 0.299Z "/></symbol><symbol id="g9B543B57F718853EF8F95EF155B6CF69" overflow="visible"><path d="M 0 0m 9.074 3.51h -8.034c -0.208 0 -0.312 -0.091 -0.312 -0.26c 0 -0.169 0.104 -0.26 0.312 -0.26h 8.034c 0.208 0 0.312 0.091 0.312 0.26c 0 0.156 -0.156 0.26 -0.312 0.26Z "/></symbol><symbol id="g67F14AC23942C2CCA8D4F8A1F079A1D1" overflow="visible"><path d="M 0 0m 1.924 2.834c 0 1.664 0.728 3.354 1.547 4.29c 0.663 0.767 1.807 1.534 3.094 1.534c 1.352 0 2.015 -1.027 2.015 -2.431c 0 -0.117 -0.039 -0.533 -0.039 -0.65c 0 -0.117 0.078 -0.182 0.247 -0.182c 0.065 0 0.117 0.013 0.156 0.026c 0.065 0.091 0.104 0.182 0.13 0.273l 0.806 3.289c 0 0.117 -0.065 0.182 -0.195 0.182c -0.052 0 -0.13 -0.052 -0.234 -0.169l -0.845 -0.949c -0.507 0.741 -1.222 1.118 -2.145 1.118c -0.715 0 -1.417 -0.169 -2.132 -0.494c -1.443 -0.676 -2.496 -1.742 -3.172 -3.198c -0.338 -0.715 -0.507 -1.443 -0.507 -2.184c 0 -1.04 0.325 -1.885 0.988 -2.561c 0.663 -0.676 1.508 -1.014 2.548 -1.014c 1.027 0 1.963 0.377 2.808 1.118c 0.351 0.299 0.65 0.663 0.897 1.066c 0.351 0.585 0.533 0.988 0.533 1.235c 0 0.117 -0.065 0.182 -0.208 0.182c -0.117 0 -0.182 -0.052 -0.208 -0.169c -0.273 -0.845 -0.702 -1.521 -1.287 -2.002c -0.741 -0.611 -1.521 -0.923 -2.327 -0.923c -1.56 0 -2.47 1.053 -2.47 2.613Z "/></symbol><symbol id="g3286A19CC752B68D2D94F2BC1EB495F" overflow="visible"><path d="M 0 0m 6.812 5.603h -4.29c -0.533 0 -1.001 -0.208 -1.378 -0.611c -0.182 -0.195 -0.793 -1.027 -0.793 -1.196c 0.052 -0.091 0.052 -0.169 0.208 -0.169c 0.091 0 0.169 0.052 0.247 0.169c 0.416 0.637 0.949 0.962 1.586 0.962h 0.663c -0.299 -1.131 -0.845 -2.522 -1.625 -4.173c -0.065 -0.156 -0.104 -0.273 -0.104 -0.338c 0 -0.26 0.143 -0.39 0.416 -0.39c 0.247 0 0.429 0.143 0.546 0.416c 0.234 0.741 0.403 1.313 0.494 1.703l 0.715 2.782h 1.339c -0.351 -1.547 -0.533 -2.626 -0.533 -3.237c 0 -0.637 0.143 -1.664 0.624 -1.664c 0.273 0 0.572 0.26 0.572 0.533c 0 0.065 -0.026 0.169 -0.078 0.299c -0.247 0.611 -0.364 1.3 -0.364 2.093c 0 0.611 0.078 1.274 0.221 1.976h 1.417c 0.455 0 0.676 0.156 0.676 0.481c 0 0.299 -0.234 0.364 -0.559 0.364Z "/></symbol><symbol id="gE9E0C553A910389E98181E1EB82F3CA5" overflow="visible"><path d="M 0 0m 6.474 1.872c 0 0.117 -0.065 0.182 -0.208 0.182c -0.104 0 -0.182 -0.091 -0.221 -0.273c -0.26 -1.027 -0.572 -1.547 -0.923 -1.547c -0.221 0 -0.338 0.182 -0.338 0.546c 0 0.169 0.052 0.481 0.169 0.936l 0.741 2.925c 0.065 0.247 0.091 0.39 0.091 0.455c 0 0.26 -0.143 0.39 -0.429 0.39c -0.273 0 -0.455 -0.156 -0.546 -0.455c -0.273 0.481 -0.663 0.715 -1.157 0.715c -0.845 0 -1.586 -0.429 -2.236 -1.287c -0.598 -0.806 -0.897 -1.638 -0.897 -2.509c 0 -1.131 0.663 -2.093 1.755 -2.093c 0.559 0 1.105 0.299 1.625 0.897c 0.143 -0.494 0.585 -0.897 1.196 -0.897c 0.897 0 1.17 1.053 1.378 2.015Z m -2.041 2.99c 0.117 -0.273 0.182 -0.455 0.182 -0.572c 0 -0.052 -0.013 -0.117 -0.026 -0.208l -0.637 -2.496c -0.039 -0.143 -0.13 -0.299 -0.247 -0.455c -0.481 -0.598 -0.949 -0.897 -1.404 -0.897c -0.507 0 -0.767 0.39 -0.767 1.157c 0 0.312 0.078 0.78 0.234 1.404c 0.273 1.105 0.663 1.846 1.144 2.249c 0.26 0.221 0.507 0.325 0.754 0.325c 0.351 0 0.611 -0.169 0.767 -0.507Z "/></symbol><symbol id="g8A6A9074F91D642F82CC8BE39AC39D3A" overflow="visible"><path d="M 0 0m 1.0829 3.8584c 0.2912 0 0.5096 0.2184 0.5096 0.5096c 0 0.3276 -0.1729 0.5005 -0.5096 0.5096c 0.2002 0.4277 0.6552 0.7735 1.2467 0.7735c 0.8008 0 1.3286 -0.6006 1.3286 -1.4014c 0 -0.4368 -0.1547 -0.8554 -0.4732 -1.2649c -0.1547 -0.2093 -0.273 -0.3549 -0.3549 -0.4368l -2.1567 -2.1385c -0.1183 -0.1092 -0.1001 -0.1365 -0.1001 -0.4095h 3.7492l 0.2821 1.7108h -0.3822c -0.0637 -0.4823 -0.1365 -0.7644 -0.2184 -0.8281c -0.0455 -0.0273 -0.3276 -0.0455 -0.8645 -0.0455h -1.547c 0.6097 0.5369 1.1739 1.0192 1.7108 1.4469c 0.4095 0.3185 0.7007 0.6006 0.8827 0.8463c 0.273 0.3549 0.4095 0.728 0.4095 1.1193c 0 0.5642 -0.2184 1.0101 -0.6643 1.3377c -0.3913 0.3003 -0.8827 0.455 -1.4651 0.455c -0.5005 0 -0.9282 -0.1456 -1.3013 -0.4368c -0.3913 -0.3185 -0.5915 -0.7189 -0.5915 -1.2103c 0 -0.3094 0.2275 -0.5369 0.5096 -0.5369Z "/></symbol><symbol id="gF291FCC7BBD497BC1B54131876EE661E" overflow="visible"><path d="M 0 0m 4.797 5.083c 0 -0.104 0.117 -0.273 0.325 -0.533c 0.208 -0.26 0.312 -0.559 0.312 -0.897c 0 -0.377 -0.182 -1.014 -0.559 -1.911c -0.273 -0.624 -0.897 -1.508 -1.664 -1.508c -0.598 0 -0.897 0.351 -0.897 1.066c 0 0.507 0.247 1.404 0.741 2.691c 0.104 0.273 0.156 0.494 0.156 0.65c 0 0.65 -0.442 1.105 -1.092 1.105c -0.572 0 -1.027 -0.325 -1.352 -0.975c -0.26 -0.533 -0.39 -0.871 -0.39 -1.04c 0 -0.117 0.065 -0.182 0.208 -0.182c 0.169 0 0.195 0.078 0.247 0.26c 0.299 1.04 0.715 1.56 1.248 1.56c 0.169 0 0.26 -0.117 0.26 -0.364c 0 -0.208 -0.065 -0.494 -0.208 -0.871c -0.481 -1.287 -0.728 -2.158 -0.728 -2.639c 0 -0.663 0.221 -1.118 0.663 -1.365c 0.351 -0.182 0.715 -0.273 1.092 -0.273c 1.157 0 1.963 1.248 2.301 2.249c 0.416 1.222 0.624 2.119 0.624 2.691c 0 0.637 -0.208 0.949 -0.611 0.949c -0.325 0 -0.676 -0.338 -0.676 -0.663Z "/></symbol><symbol id="gEFA988DEC565252013B2D05DB9DFDA82" overflow="visible"><path d="M 0 0m 1.807 1.378c -0.416 0 -0.689 -0.312 -0.689 -0.728c 0 -0.39 0.299 -0.715 0.689 -0.715c 0.182 0 0.338 0.052 0.455 0.169l 0.013 -0.104c 0 -0.819 -0.273 -1.521 -0.819 -2.08c -0.091 -0.104 -0.143 -0.182 -0.143 -0.234c 0 -0.13 0.052 -0.195 0.169 -0.195c 0.117 0 0.273 0.156 0.494 0.455c 0.442 0.624 0.663 1.313 0.663 2.054c 0 0.689 -0.234 1.378 -0.832 1.378Z "/></symbol><symbol id="g115DED64194A3B9D1CA25A004CD4734D" overflow="visible"><path d="M 0 0m 6.461 8.671c 0 0.143 -0.078 0.208 -0.247 0.208l -1.677 -0.039l -1.703 0.039c -0.208 0.013 -0.312 -0.091 -0.312 -0.312c 0 -0.13 0.143 -0.195 0.416 -0.195c 0.559 0 0.832 -0.065 0.832 -0.182c 0 -0.065 -0.013 -0.13 -0.026 -0.195l -1.729 -6.929c -0.065 -0.286 -0.195 -0.455 -0.39 -0.52c -0.091 -0.026 -0.325 -0.039 -0.728 -0.039c -0.325 0 -0.455 -0.013 -0.455 -0.312c 0 -0.13 0.078 -0.195 0.247 -0.195l 1.664 0.039l 1.716 -0.039c 0.208 -0.013 0.312 0.091 0.312 0.299c 0 0.208 -0.156 0.208 -0.442 0.208c -0.507 0 -0.819 -0.026 -0.819 0.182c 0 0.065 0.013 0.156 0.052 0.286l 1.716 6.851c 0.065 0.273 0.195 0.442 0.39 0.507c 0.091 0.026 0.325 0.039 0.728 0.039c 0.312 0 0.455 0.013 0.455 0.299Z "/></symbol><symbol id="g64EED7C1DC5EF9C242224A119317485D" overflow="visible"><path d="M 0 0m 9.607 6.903c 0 0.663 -0.338 1.17 -1.001 1.534c -0.533 0.299 -1.17 0.442 -1.885 0.442h -3.666c -0.299 0 -0.429 -0.013 -0.429 -0.312c 0 -0.091 0.039 -0.156 0.117 -0.169c 0.13 -0.013 0.234 -0.026 0.299 -0.026c 0.39 -0.013 0.611 -0.039 0.676 -0.052c 0.065 -0.013 0.104 -0.052 0.104 -0.117c 0 -0.026 -0.013 -0.104 -0.052 -0.234l -1.716 -6.903c -0.065 -0.286 -0.195 -0.468 -0.39 -0.533c -0.091 -0.026 -0.325 -0.039 -0.728 -0.039c -0.286 0 -0.403 -0.013 -0.403 -0.299c 0 -0.143 0.078 -0.208 0.234 -0.195l 1.612 0.039l 1.638 -0.039c 0.208 -0.013 0.312 0.104 0.312 0.299c 0 0.13 -0.143 0.195 -0.416 0.195c -0.52 0 -0.78 0.065 -0.78 0.182c 0 0 0.013 0.026 0.039 0.208l 0.832 3.367h 1.495c 0.897 0 1.352 -0.377 1.352 -1.118c 0 -0.117 -0.065 -0.403 -0.182 -0.871c -0.143 -0.546 -0.208 -0.91 -0.208 -1.105c 0 -0.988 0.767 -1.443 1.755 -1.443c 0.364 0 0.715 0.169 1.066 0.494c 0.351 0.325 0.533 0.676 0.533 1.04c 0 0.13 -0.065 0.195 -0.208 0.195c -0.091 0 -0.169 -0.065 -0.208 -0.208c -0.143 -0.403 -0.325 -0.702 -0.533 -0.871c -0.208 -0.169 -0.403 -0.26 -0.598 -0.26c -0.299 0 -0.455 0.247 -0.455 0.728c 0 0.312 0.039 0.793 0.13 1.456c 0.039 0.273 0.052 0.468 0.052 0.611c 0 0.689 -0.364 1.196 -1.092 1.508c 1.222 0.299 2.704 1.17 2.704 2.496Z m -1.69 1.105c 0.26 -0.169 0.39 -0.455 0.39 -0.858c 0 -0.26 -0.052 -0.559 -0.169 -0.91c -0.351 -1.066 -1.235 -1.599 -2.652 -1.599h -1.378l 0.819 3.289c 0.065 0.273 0.169 0.416 0.312 0.429c 0.065 0.013 0.325 0.013 0.78 0.013c 0.845 0 1.339 -0.026 1.898 -0.364Z "/></symbol><symbol id="g1BB2B5D3B118FC32761E8AAB6F68EABA" overflow="visible"><path d="M 0 0m 2.587 8.528c 0 -0.13 0.143 -0.195 0.416 -0.195c 0.52 0 0.78 -0.052 0.78 -0.169c 0 -0.039 -0.026 -0.13 -0.065 -0.299l -1.69 -6.799c -0.078 -0.286 -0.208 -0.455 -0.39 -0.52c -0.091 -0.026 -0.325 -0.039 -0.728 -0.039c -0.286 0 -0.416 -0.026 -0.416 -0.299c 0 -0.143 0.078 -0.208 0.247 -0.208l 1.69 0.039l 1.924 -0.039c 0.208 0 0.312 0.104 0.312 0.299c 0 0.221 -0.143 0.208 -0.481 0.208c -0.572 0 -0.897 0.026 -0.975 0.091c -0.039 0.013 -0.052 0.065 -0.052 0.13l 0.832 3.445h 1.209c 0.598 0 1.014 -0.026 1.014 -0.52c 0 -0.169 -0.026 -0.377 -0.091 -0.624c -0.013 -0.039 -0.026 -0.091 -0.039 -0.143c 0 -0.143 0.065 -0.208 0.208 -0.208c 0.065 0.013 0.156 0.104 0.247 0.299l 0.702 2.795c 0.026 0.104 0.039 0.182 0.039 0.221c -0.039 0.117 -0.117 0.182 -0.208 0.182c -0.104 0 -0.182 -0.104 -0.234 -0.299c -0.13 -0.494 -0.312 -0.806 -0.52 -0.962c -0.208 -0.156 -0.572 -0.234 -1.092 -0.234h -1.105l 0.806 3.198c 0.104 0.442 0.104 0.455 0.65 0.455h 1.69c 1.261 0 1.833 -0.195 1.833 -1.352c 0 -0.26 -0.013 -0.494 -0.039 -0.689c -0.013 -0.143 -0.026 -0.221 -0.026 -0.234c 0 -0.143 0.065 -0.208 0.195 -0.208c 0.13 0 0.208 0.117 0.234 0.364l 0.26 2.223c 0.039 0.364 -0.052 0.403 -0.403 0.403h -6.292c -0.299 0 -0.442 -0.013 -0.442 -0.312Z "/></symbol><symbol id="g8D2729A48B9ECD6712FB8A757305E9A2" overflow="visible"><path d="M 0 0m 3.6582 3.0576c -0.2457 -0.2457 -0.6188 -0.5733 -1.1466 -0.9919c -0.5278 -0.4186 -0.91 -0.7462 -1.1466 -0.9828c -0.2002 -0.2002 -0.3458 -0.3549 -0.4459 -0.4732c -0.2457 -0.2821 -0.364 -0.4732 -0.364 -0.5551c 0 -0.1001 0.0637 -0.1456 0.1911 -0.1456c 0.0728 0 0.1365 0.0364 0.182 0.1092c 0.2457 0.3549 0.5096 0.5278 0.7917 0.5278c 0.1365 0 0.2821 -0.0728 0.4459 -0.2093c 0.2275 -0.2002 0.364 -0.3094 0.4004 -0.3367c 0.1092 -0.0637 0.2366 -0.091 0.3731 -0.091c 0.3003 0 0.5824 0.1001 0.8463 0.3003c 0.2821 0.2184 0.7462 0.7098 0.7462 1.1193c 0 0.1001 -0.0637 0.1547 -0.182 0.1547c -0.091 0 -0.1547 -0.0546 -0.2002 -0.1638c -0.1365 -0.3731 -0.5915 -0.637 -1.1011 -0.637c -0.2457 0 -1.0374 0.1911 -1.2922 0.182h -0.1183c 0.2821 0.273 0.637 0.5824 1.0829 0.9373c 0.6006 0.4823 0.9737 0.7917 1.1284 0.9464c 0.5915 0.5915 0.8918 0.9646 0.8918 1.1193c 0 0.1001 -0.0637 0.1456 -0.1911 0.1456c -0.0728 0 -0.1365 -0.0364 -0.182 -0.1092c -0.2275 -0.3549 -0.4459 -0.5278 -0.6461 -0.5278c -0.1274 0 -0.3094 0.1092 -0.5551 0.3185c -0.2457 0.2093 -0.4641 0.3185 -0.6643 0.3185c -0.2639 0 -0.5278 -0.1183 -0.8099 -0.3549c -0.2821 -0.2366 -0.4186 -0.4732 -0.4186 -0.728c 0 -0.1001 0.0637 -0.1456 0.182 -0.1456c 0.0728 0 0.1365 0.0364 0.182 0.1183c 0.1638 0.2639 0.3094 0.3367 0.7553 0.3367c 0.2457 0 1.0283 -0.1729 1.2649 -0.182Z "/></symbol><symbol id="gA606C0CE8C60E36688427617C8536C21" overflow="visible"><path d="M 0 0m 3.5854 6.1334c -0.1001 0 -0.1911 -0.0455 -0.2639 -0.1365l -2.9666 -4.1496v -0.3731h 2.6299v -0.7007c 0 -0.1547 -0.0273 -0.2639 -0.091 -0.3094c -0.0637 -0.0455 -0.2639 -0.0728 -0.5915 -0.0728h -0.2821v -0.3913l 1.3741 0.0364l 1.3923 -0.0364v 0.3913h -0.273c -0.3367 0 -0.5369 0.0273 -0.6006 0.0728c -0.0637 0.0455 -0.091 0.1547 -0.091 0.3094v 0.7007h 0.9919v 0.4004h -0.9919v 3.9676c 0 0.2184 -0.0273 0.2912 -0.2366 0.2912Z m -0.5369 -1.1193v -3.1395h -2.2568Z "/></symbol></defs></svg>