<svg viewBox="0 0 135.829922222 18.5224" width="135.829922222pt" height="18.5224pt" xmlns="http://www.w3.org/2000/svg" xmlns:xlink="http://www.w3.org/1999/xlink" xmlns:h5="http://www.w3.org/1999/xhtml"><g transform="matrix(1 0 0 -1 6.5 9.646)"><use xlink:href="#gDA6300BE1A83285F3E02339F05C53FB2" x="0" y="0" fill="#e6edf3" fill-rule="nonzero"/></g><g transform="matrix(1 0 0 -1 12.298 12.857)"><use xlink:href="#g56CA2213A637A1EBD48C3733E7CBD1B8" x="0" y="0" fill="#e6edf3" fill-rule="nonzero"/><use xlink:href="#gFF16A8268DAB16CE6CB780B7F571FDB3" x="3.5854" y="0" fill="#e6edf3" fill-rule="nonzero"/><use xlink:href="#gB870744AC16A0A9266197267B5D73EAA" x="8.645" y="0" fill="#e6edf3" fill-rule="nonzero"/><use xlink:href="#gBFC7FFA96542AB4AB40701B9B2571C85" x="13.7046" y="0" fill="#e6edf3" fill-rule="nonzero"/><use xlink:href="#g402F9925856942787E59D257DA93AD2E" x="19.2556" y="0" fill="#e6edf3" fill-rule="nonzero"/><use xlink:href="#g689CD2C8CC31657A53FE374FF94F6738" x="21.7854" y="0" fill="#e6edf3" fill-rule="nonzero"/><use xlink:href="#g929C9F5835BF20B9E99EAF8B7595E15F" x="26.845" y="0" fill="#e6edf3" fill-rule="nonzero"/><use xlink:href="#gBFC7FFA96542AB4AB40701B9B2571C85" x="30.3849" y="0" fill="#e6edf3" fill-rule="nonzero"/><use xlink:href="#g9BBD495599649835EB769190150DF525" x="35.9359" y="0" fill="#e6edf3" fill-rule="nonzero"/><use xlink:href="#g6F1B2EC7690C574873AE01D06ED173C6" x="40.9955" y="0" fill="#e6edf3" fill-rule="nonzero"/><use xlink:href="#gC86B0FAB9444A46451EA9A07C4DA98BD" x="48.0571" y="0" fill="#e6edf3" fill-rule="nonzero"/><use xlink:href="#g1CEBE56BFF7571B8DB10F1A4DAC5A5D7" x="52.0975" y="0" fill="#e6edf3" fill-rule="nonzero"/><use xlink:href="#g903F1B72715C8210FD028A24D9A597FC" x="56.6475" y="0" fill="#e6edf3" fill-rule="nonzero"/><use xlink:href="#g402F9925856942787E59D257DA93AD2E" x="61.4523" y="0" fill="#e6edf3" fill-rule="nonzero"/><use xlink:href="#g9BBD495599649835EB769190150DF525" x="63.9821" y="0" fill="#e6edf3" fill-rule="nonzero"/><use xlink:href="#g1CEBE56BFF7571B8DB10F1A4DAC5A5D7" x="69.0417" y="0" fill="#e6edf3" fill-rule="nonzero"/><use xlink:href="#g9BBD495599649835EB769190150DF525" x="73.5917" y="0" fill="#e6edf3" fill-rule="nonzero"/></g><g transform="matrix(1 0 0 -1 95.288411111 9.646)"><use xlink:href="#g13AFF74D87C474CFAF661EEAD0458F8B" x="0" y="0" fill="#e6edf3" fill-rule="nonzero"/></g><g transform="matrix(1 0 0 -1 109.013522222 9.646)"><use xlink:href="#g9B543B57F718853EF8F95EF155B6CF69" x="0" y="0" fill="#e6edf3" fill-rule="nonzero"/></g><g transform="matrix(1 0 0 -1 119.127522222 9.646)"><use xlink:href="#gDA6300BE1A83285F3E02339F05C53FB2" x="0" y="0" fill="#e6edf3" fill-rule="nonzero"/></g><g transform="matrix(1 0 0 -1 124.925522222 12.857)"><use xlink:href="#g4CE686876A17D681BBB59265FB1A41AE" x="0" y="0" fill="#e6edf3" fill-rule="nonzero"/></g><defs><symbol id="gDA6300BE1A83285F3E02339F05C53FB2" overflow="visible"><path d="M 0 0m 4.836 4.901c -0.26 0.559 -0.663 0.845 -1.196 0.845c -0.845 0 -1.586 -0.429 -2.223 -1.3c -0.598 -0.806 -0.897 -1.638 -0.897 -2.509c 0 -1.131 0.65 -2.106 1.729 -2.106c 0.468 0 0.936 0.221 1.417 0.663l -0.533 -2.132c -0.039 -0.195 -0.156 -0.312 -0.338 -0.351c -0.065 -0.013 -0.234 -0.026 -0.533 -0.026c -0.078 -0.013 -0.13 -0.013 -0.156 -0.013c -0.117 -0.013 -0.182 -0.117 -0.182 -0.299v -0.052c 0.039 -0.091 0.117 -0.143 0.221 -0.143c 0.247 0 1.027 0.039 1.274 0.039c 0.247 0 1.066 -0.039 1.313 -0.039c 0.182 0 0.273 0.104 0.273 0.312c 0 0.13 -0.13 0.195 -0.377 0.195c -0.234 0 -0.559 -0.013 -0.559 0.143c 0 0.052 0.013 0.143 0.052 0.273l 1.755 7.15c 0 0.117 -0.065 0.182 -0.182 0.182c -0.234 0 -0.728 -0.65 -0.858 -0.832Z m -0.416 -0.052c 0.117 -0.273 0.182 -0.455 0.182 -0.572c 0 -0.013 -0.013 -0.091 -0.039 -0.208l -0.312 -1.261c -0.247 -0.936 -0.364 -1.417 -0.377 -1.443c -0.247 -0.455 -0.962 -1.157 -1.586 -1.157c -0.507 0 -0.767 0.39 -0.767 1.157c 0 0.598 0.403 2.054 0.585 2.535c 0.247 0.611 0.819 1.456 1.534 1.456c 0.351 0 0.611 -0.169 0.78 -0.507Z "/></symbol><symbol id="g56CA2213A637A1EBD48C3733E7CBD1B8" overflow="visible"><path d="M 0 0m 3.276 1.183c 0 0.6916 -0.4732 1.1284 -1.4105 1.3104c -0.4277 0.0819 -0.7007 0.182 -0.8463 0.2821c -0.1456 0.1001 -0.2184 0.2457 -0.2184 0.4186c 0 0.4277 0.3185 0.637 0.9555 0.637c 0.6188 0 0.9555 -0.3458 1.001 -1.0465c 0.0091 -0.0728 0.0546 -0.1092 0.1456 -0.1092c 0.1001 0 0.1547 0.0819 0.1547 0.2457v 0.9009c 0 0.1729 -0.0455 0.2548 -0.1365 0.2548c -0.1001 0 -0.2366 -0.1638 -0.3276 -0.2366c -0.2275 0.1547 -0.5096 0.2366 -0.8372 0.2366c -0.8099 0 -1.456 -0.364 -1.456 -1.1375c 0 -0.3094 0.1274 -0.5733 0.3913 -0.7826c 0.3185 -0.2639 0.6188 -0.3185 1.1921 -0.4186c 0.5915 -0.1183 0.8918 -0.3822 0.8918 -0.7917c 0 -0.5187 -0.3185 -0.7826 -0.9646 -0.7826c -0.6279 0 -1.0283 0.4186 -1.2012 1.2467c -0.0273 0.1183 -0.0728 0.182 -0.1547 0.182c -0.1001 0 -0.1547 -0.091 -0.1547 -0.2639v -1.1739c 0 -0.1729 0.0455 -0.2548 0.1365 -0.2548c 0.0273 0 0.0728 0.0273 0.1456 0.091c 0.1638 0.1456 0.091 0.1183 0.2548 0.2821c 0.2639 -0.2457 0.5915 -0.3731 0.9737 -0.3731c 0.8645 0 1.4651 0.4459 1.4651 1.2831Z "/></symbol><symbol id="gFF16A8268DAB16CE6CB780B7F571FDB3" overflow="visible"><path d="M 0 0m 2.4297 0.1638c -0.6279 0 -0.7462 0.2639 -0.7462 0.8554v 3.003l -1.3923 -0.1001v -0.3458c 0.3549 0 0.5642 -0.0364 0.6188 -0.1001c 0.0546 -0.0637 0.0819 -0.2912 0.0819 -0.6916v -1.3377c 0 -0.3549 0.0273 -0.6279 0.091 -0.8372c 0.1365 -0.4732 0.637 -0.7098 1.3013 -0.7098c 0.4914 0 0.8645 0.2275 1.1193 0.6916v -0.6916l 1.365 0.1001v 0.3458c -0.3276 0 -0.5187 0.0182 -0.5915 0.0728c -0.0728 0.0546 -0.1092 0.182 -0.1092 0.3913v 3.2123l -1.3832 -0.1001v -0.3458c 0.3185 0 0.5096 -0.0273 0.5824 -0.0819c 0.0728 -0.0546 0.1092 -0.1729 0.1092 -0.3822v -1.5925c 0 -0.7189 -0.3822 -1.3559 -1.0465 -1.3559Z "/></symbol><symbol id="gB870744AC16A0A9266197267B5D73EAA" overflow="visible"><path d="M 0 0m 2.7118 -0.1183c 0.5642 0 1.0465 0.2002 1.4378 0.6097c 0.3913 0.4095 0.5915 0.8918 0.5915 1.4651c 0 0.5551 -0.182 1.0283 -0.5369 1.4287c -0.3731 0.4277 -0.8281 0.637 -1.3741 0.637c -0.4641 0 -0.8645 -0.182 -1.2103 -0.5369v 0.5369l -1.365 -0.1001v -0.3458c 0.3367 0 0.5369 -0.0182 0.6006 -0.0637c 0.0637 -0.0455 0.1001 -0.1638 0.1001 -0.3549v -4.2042c 0 -0.1729 -0.0364 -0.2821 -0.1001 -0.3185c -0.0637 -0.0364 -0.2639 -0.0455 -0.6006 -0.0455v -0.3549l 1.0374 0.0273l 1.0465 -0.0273v 0.3549c -0.3367 0 -0.5278 0.0091 -0.5915 0.0455c -0.0637 0.0364 -0.1001 0.1456 -0.1001 0.3185v 1.4469c 0.2002 -0.2821 0.5915 -0.5187 1.0647 -0.5187Z m 0.0546 3.8402c 0.3731 0 0.6643 -0.2093 0.8918 -0.6279c 0.1729 -0.3549 0.2639 -0.728 0.2639 -1.1375c 0 -0.4277 -0.1001 -0.819 -0.3003 -1.1739c -0.2366 -0.4277 -0.5551 -0.637 -0.9464 -0.637c -0.3822 0 -0.6825 0.182 -0.91 0.5369c -0.0819 0.1183 -0.1183 0.2366 -0.1183 0.3549v 1.9929c 0.2639 0.4641 0.637 0.6916 1.1193 0.6916Z "/></symbol><symbol id="gBFC7FFA96542AB4AB40701B9B2571C85" overflow="visible"><path d="M 0 0m 1.7472 0.4823c 0 0.2639 -0.2184 0.4823 -0.4823 0.4823c -0.2639 0 -0.4823 -0.2184 -0.4823 -0.4823c 0 -0.2639 0.2184 -0.4823 0.4823 -0.4823c 0.2639 0 0.4823 0.2184 0.4823 0.4823Z "/></symbol><symbol id="g402F9925856942787E59D257DA93AD2E" overflow="visible"><path d="M 0 0m 1.7654 5.4691c 0 0.273 -0.2275 0.5096 -0.5005 0.5096c -0.273 0 -0.5096 -0.2366 -0.5096 -0.5096c 0 -0.273 0.2275 -0.5187 0.5005 -0.5187c 0.2821 0 0.5096 0.2366 0.5096 0.5187Z m -0.4641 -5.4418l 0.9464 -0.0273v 0.3549c -0.3003 0 -0.4823 0.0182 -0.5369 0.0546c -0.0546 0.0364 -0.0728 0.1365 -0.0728 0.3003v 3.3397l -1.3013 -0.1092v -0.3458c 0.3003 0 0.4914 -0.0273 0.5551 -0.0728c 0.0637 -0.0455 0.091 -0.1729 0.091 -0.3822v -2.4206c 0 -0.1729 -0.0273 -0.2821 -0.091 -0.3185c -0.0637 -0.0364 -0.2639 -0.0455 -0.5915 -0.0455v -0.3549Z "/></symbol><symbol id="g689CD2C8CC31657A53FE374FF94F6738" overflow="visible"><path d="M 0 0m 2.8574 3.7583c 0.4095 0 0.6188 -0.3185 0.6188 -0.9646v -2.0748c 0 -0.1729 -0.0273 -0.2821 -0.091 -0.3185c -0.0637 -0.0364 -0.2639 -0.0546 -0.6006 -0.0546v -0.3458l 1.0465 0.0273l 1.0374 -0.0273v 0.3458c -0.2912 0 -0.4823 0.0091 -0.5733 0.0364c -0.091 0.0273 -0.1274 0.091 -0.1274 0.2002v 1.7017c 0 0.4277 -0.0091 0.728 -0.0364 0.9009c -0.091 0.5551 -0.5005 0.8372 -1.2194 0.8372c -0.5733 0 -1.001 -0.273 -1.2831 -0.819v 0.819l -1.3377 -0.1001v -0.3458c 0.3276 0 0.5278 -0.0273 0.6006 -0.0819c 0.0728 -0.0546 0.1001 -0.1729 0.1001 -0.3822v -2.3933c 0 -0.1729 -0.0364 -0.2821 -0.1001 -0.3185c -0.0637 -0.0364 -0.2639 -0.0546 -0.6006 -0.0546v -0.3458l 1.0465 0.0273l 1.0374 -0.0273v 0.3458c -0.3367 0 -0.5278 0.0182 -0.5915 0.0546c -0.0637 0.0364 -0.1001 0.1456 -0.1001 0.3185v 1.638c 0 0.7371 0.4641 1.4014 1.1739 1.4014Z "/></symbol><symbol id="g929C9F5835BF20B9E99EAF8B7595E15F" overflow="visible"><path d="M 0 0m 3.0212 1.1466v 0.546h -0.2912v -0.5278c 0 -0.455 -0.1638 -0.9646 -0.5642 -0.9646c -0.3731 0 -0.5551 0.3094 -0.5551 0.9282v 2.4661h 1.2649v 0.3458h -1.2649v 1.6562h -0.2912c -0.0091 -0.3003 -0.0364 -0.5642 -0.1001 -0.8008c -0.1547 -0.6006 -0.5096 -0.91 -1.0465 -0.9373v -0.2639h 0.7553v -2.4479c 0 -0.5369 0.1638 -0.8827 0.4823 -1.0556c 0.2457 -0.1274 0.4732 -0.1911 0.7007 -0.1911c 0.6006 0 0.91 0.6006 0.91 1.2467Z "/></symbol><symbol id="g9BBD495599649835EB769190150DF525" overflow="visible"><path d="M 0 0m 3.4034 -0.1001l 1.3923 0.1001v 0.3458c -0.3276 0 -0.5187 0.0182 -0.5915 0.0728c -0.0728 0.0546 -0.1092 0.1911 -0.1092 0.4004v 5.4964l -1.3559 -0.1001v -0.3458c 0.3185 0 0.5187 -0.0273 0.5915 -0.0819c 0.0728 -0.0546 0.1001 -0.182 0.1001 -0.3913v -1.8473c -0.2912 0.3367 -0.6552 0.5005 -1.092 0.5005c -0.5642 0 -1.0465 -0.2002 -1.4378 -0.6097c -0.3913 -0.4095 -0.5915 -0.9009 -0.5915 -1.4742c 0 -0.5551 0.182 -1.0374 0.5551 -1.4469c 0.3731 -0.4095 0.8281 -0.6188 1.3832 -0.6188c 0.4641 0 0.8554 0.1729 1.1557 0.5278Z m -1.0283 3.8766c 0.3913 0 0.7098 -0.1729 0.9373 -0.5187c 0.0637 -0.1001 0.091 -0.2002 0.091 -0.3185v -1.8382c 0 -0.1183 -0.0273 -0.2184 -0.091 -0.3185c -0.2548 -0.4095 -0.6006 -0.6097 -1.0283 -0.6097c -0.3731 0 -0.6734 0.182 -0.91 0.5551c -0.1638 0.273 -0.2457 0.6825 -0.2457 1.2285c 0 0.9919 0.3367 1.82 1.2467 1.82Z "/></symbol><symbol id="g6F1B2EC7690C574873AE01D06ED173C6" overflow="visible"><path d="M 0 0m 3.7765 2.2841c 0 1.0465 -0.6097 1.7927 -1.6289 1.7927c -0.546 0 -1.001 -0.2093 -1.3741 -0.637c -0.3458 -0.4004 -0.5187 -0.8827 -0.5187 -1.4378c 0 -0.5733 0.1911 -1.0556 0.5733 -1.4742c 0.3822 -0.4186 0.8554 -0.6279 1.4196 -0.6279c 0.5187 0 0.9191 0.182 1.1921 0.5369c 0.2275 0.3003 0.3367 0.5187 0.3367 0.6643c 0 0.091 -0.0546 0.1365 -0.1547 0.1365c -0.0728 0 -0.1183 -0.0455 -0.1456 -0.1456c -0.2002 -0.6006 -0.5915 -0.9009 -1.1739 -0.9009c -0.4095 0 -0.728 0.1911 -0.9737 0.5824c -0.1729 0.2821 -0.2548 0.7098 -0.2639 1.2922h 2.457c 0.2002 0 0.2548 0.0182 0.2548 0.2184Z m -0.8099 0.8918c 0.1001 -0.3003 0.1456 -0.5915 0.1456 -0.8554h -2.0384c 0.0273 0.6006 0.182 1.0101 0.455 1.2194c 0.2275 0.182 0.4277 0.273 0.6188 0.273c 0.4095 0 0.6825 -0.2093 0.819 -0.637Z "/></symbol><symbol id="gC86B0FAB9444A46451EA9A07C4DA98BD" overflow="visible"><path d="M 0 0m 2.2841 3.7856c 0.3822 0 0.6734 -0.091 0.8736 -0.273c -0.2184 -0.0273 -0.3731 -0.2275 -0.3731 -0.4368c 0 -0.3003 0.1456 -0.4459 0.4459 -0.4459c 0.3003 0 0.4459 0.1547 0.4459 0.455c 0 0.6461 -0.7007 0.9919 -1.4014 0.9919c -0.5642 0 -1.0283 -0.2002 -1.4014 -0.6188c -0.3731 -0.4186 -0.5642 -0.9191 -0.5642 -1.4924c 0 -0.5551 0.1911 -1.0465 0.5642 -1.456c 0.3731 -0.4095 0.8281 -0.6097 1.3832 -0.6097c 0.455 0 0.8099 0.1274 1.0647 0.3913c 0.2093 0.2093 0.3458 0.4186 0.4186 0.637c 0.0273 0.0819 0.0364 0.1365 0.0364 0.1729c 0 0.0819 -0.0546 0.1183 -0.1547 0.1183c -0.0728 0 -0.1183 -0.0364 -0.1456 -0.1092c -0.1911 -0.6097 -0.5642 -0.9191 -1.1375 -0.9191c -0.2639 0 -0.5187 0.1183 -0.7735 0.364c -0.3003 0.2821 -0.4459 0.7553 -0.4459 1.4287c 0 0.91 0.3458 1.8018 1.1648 1.8018Z "/></symbol><symbol id="g1CEBE56BFF7571B8DB10F1A4DAC5A5D7" overflow="visible"><path d="M 0 0m 4.3953 0.8281v 0.5369h -0.2912v -0.5369c 0 -0.3549 -0.1001 -0.5369 -0.2912 -0.5369c -0.182 0 -0.2912 0.2275 -0.2912 0.4095v 1.7927c 0 0.3185 -0.0364 0.5551 -0.1001 0.7189c -0.2184 0.5369 -0.8463 0.8645 -1.4833 0.8645c -0.7007 0 -1.3923 -0.3913 -1.3923 -1.0465c 0 -0.3003 0.1547 -0.455 0.455 -0.455c 0.3003 0 0.4459 0.1456 0.4459 0.4459c 0 0.2639 -0.1365 0.4186 -0.4186 0.4459c 0.2002 0.2275 0.5005 0.3458 0.8918 0.3458c 0.5642 0 0.91 -0.5187 0.91 -1.1102v -0.3003c -0.7098 -0.0455 -1.2467 -0.1547 -1.6198 -0.3276c -0.6097 -0.2821 -0.9191 -0.6734 -0.9191 -1.1921c 0 -0.2366 0.091 -0.4368 0.2639 -0.5915c 0.2912 -0.2639 0.6916 -0.3913 1.2012 -0.3913c 0.5369 0 0.9191 0.2275 1.1557 0.6916c 0.0637 -0.3458 0.3185 -0.6461 0.7098 -0.6461c 0.4823 0 0.7735 0.3822 0.7735 0.8827Z m -2.5753 -0.6643c -0.4186 0 -0.7644 0.3094 -0.7644 0.728c 0 0.8463 0.8827 1.2103 1.7745 1.2558v -0.8645c 0 -0.6097 -0.4004 -1.1193 -1.0101 -1.1193Z "/></symbol><symbol id="g903F1B72715C8210FD028A24D9A597FC" overflow="visible"><path d="M 0 0m 3.5308 3.2214c 0 -0.0455 -0.0182 -0.1092 -0.0546 -0.2002l -0.8736 -2.1931l -0.9737 2.4115c -0.0364 0.0819 -0.0546 0.1274 -0.0546 0.1365c 0 0.1365 0.1729 0.2002 0.5187 0.2002v 0.3458l -1.0192 -0.0273c -0.2184 -0.0091 -0.5187 0 -0.9009 0.0273v -0.3458c 0.5096 0 0.5915 0.0182 0.7189 -0.3094l 1.2922 -3.1759c 0.0455 -0.1274 0.1183 -0.1911 0.2184 -0.1911c 0.1001 0 0.1729 0.0637 0.2184 0.1911l 1.1739 2.9029c 0.0364 0.1001 0.0728 0.182 0.1183 0.2548c 0.1274 0.2184 0.364 0.3276 0.7098 0.3276v 0.3458c -0.3003 -0.0273 -0.5369 -0.0364 -0.7098 -0.0273l -0.8099 0.0273v -0.3458c 0.2639 -0.0091 0.4277 -0.1183 0.4277 -0.3549Z "/></symbol><symbol id="g13AFF74D87C474CFAF661EEAD0458F8B" overflow="visible"><path d="M 0 0m 9.074 4.771h -8.034c -0.208 0 -0.312 -0.104 -0.312 -0.299c 0 -0.195 0.104 -0.299 0.312 -0.299h 8.034c 0.208 0 0.312 0.104 0.312 0.299c 0 0.156 -0.143 0.299 -0.312 0.299Z m 0 -2.444h -8.034c -0.208 0 -0.312 -0.104 -0.312 -0.299c 0 -0.195 0.104 -0.299 0.312 -0.299h 8.034c 0.208 0 0.312 0.104 0.312 0.299c 0 0.169 -0.143 0.299 -0.312 0.299Z "/></symbol><symbol id="g9B543B57F718853EF8F95EF155B6CF69" overflow="visible"><path d="M 0 0m 9.074 3.51h -8.034c -0.208 0 -0.312 -0.091 -0.312 -0.26c 0 -0.169 0.104 -0.26 0.312 -0.26h 8.034c 0.208 0 0.312 0.091 0.312 0.26c 0 0.156 -0.156 0.26 -0.312 0.26Z "/></symbol><symbol id="g4CE686876A17D681BBB59265FB1A41AE" overflow="visible"><path d="M 0 0m 2.9575 5.6511c 0 0.2184 -0.1729 0.3822 -0.3913 0.3822c -0.273 0 -0.5369 -0.2548 -0.5369 -0.5278c 0 -0.2184 0.1729 -0.3822 0.3913 -0.3822c 0.273 0 0.5369 0.2548 0.5369 0.5278Z m -1.2103 -1.6107c -0.4277 0 -0.7644 -0.2184 -1.0101 -0.6552c -0.2093 -0.364 -0.3094 -0.6188 -0.3094 -0.7644c 0 -0.1001 0.0637 -0.1456 0.182 -0.1456c 0.1001 0 0.1638 0.0546 0.2002 0.1638c 0.2093 0.7189 0.5096 1.0738 0.91 1.0738c 0.1274 0 0.1911 -0.091 0.1911 -0.2821c 0 -0.1183 -0.091 -0.4095 -0.273 -0.8827l -0.5642 -1.4469c -0.0546 -0.1456 -0.0819 -0.273 -0.0819 -0.3913c 0 -0.4732 0.4095 -0.8008 0.8827 -0.8008c 0.4277 0 0.7553 0.2184 1.001 0.6643c 0.2093 0.364 0.3094 0.6097 0.3094 0.7462c 0 0.1001 -0.0637 0.1547 -0.182 0.1547c -0.0546 -0.0091 -0.1183 -0.0546 -0.182 -0.1456c -0.0091 -0.0091 -0.0182 -0.0273 -0.0182 -0.0364c -0.2093 -0.7007 -0.5096 -1.0556 -0.9009 -1.0556c -0.1274 0 -0.1911 0.091 -0.1911 0.273c 0 0.1365 0.0455 0.3276 0.1456 0.5642l 0.7189 1.8655c 0.0364 0.1001 0.0546 0.2002 0.0546 0.3003c 0 0.4732 -0.4095 0.8008 -0.8827 0.8008Z "/></symbol></defs></svg>