<svg viewBox="0 0 283.127 34.463" width="283.127pt" height="34.463pt" xmlns="http://www.w3.org/2000/svg" xmlns:xlink="http://www.w3.org/1999/xlink" xmlns:h5="http://www.w3.org/1999/xhtml"><g transform="matrix(1 0 0 -1 6.5 21.359)"><use xlink:href="#g2D1FD5FA7721AD843D67732819992226" x="0" y="0" fill="#e6edf3" fill-rule="nonzero"/></g><g transform="matrix(1 0 0 -1 16.016 21.359)"><use xlink:href="#gCA149633E7D67E58F5B4D4B500D841BD" x="0" y="0" fill="#e6edf3" fill-rule="nonzero"/></g><g transform="matrix(1 0 0 -1 19.708 21.359)"><use xlink:href="#g1B253A8B2C8CAA470BC632D690DCBE28" x="0" y="0" fill="#e6edf3" fill-rule="nonzero"/></g><g transform="matrix(1 0 0 -1 29.822 21.359)"><use xlink:href="#g40BCF21C5F299F0459A9B25B2740A57D" x="0" y="0" fill="#e6edf3" fill-rule="nonzero"/></g><g transform="matrix(1 0 0 -1 37.047111111 21.359)"><use xlink:href="#g13AFF74D87C474CFAF661EEAD0458F8B" x="0" y="0" fill="#e6edf3" fill-rule="nonzero"/></g><g transform="matrix(1 0 0 -1 50.772222222 21.359)"><use xlink:href="#g2D1FD5FA7721AD843D67732819992226" x="0" y="0" fill="#e6edf3" fill-rule="nonzero"/></g><g transform="matrix(1 0 0 -1 60.288222222 21.359)"><use xlink:href="#gCA149633E7D67E58F5B4D4B500D841BD" x="0" y="0" fill="#e6edf3" fill-rule="nonzero"/></g><g transform="matrix(1 0 0 -1 63.980222222 21.359)"><use xlink:href="#g1FFCE013A160BA7820B9A46965822AE" x="0" y="0" fill="#e6edf3" fill-rule="nonzero"/><use xlink:href="#g648A68795CD36B942D5167A69DEC87EA" x="4.875" y="0" fill="#e6edf3" fill-rule="nonzero"/></g><g transform="matrix(1 0 0 -1 78.241222222 21.359)"><use xlink:href="#g40BCF21C5F299F0459A9B25B2740A57D" x="0" y="0" fill="#e6edf3" fill-rule="nonzero"/></g><g transform="matrix(1 0 0 -1 84.744111111 21.359)"><use xlink:href="#gEDF6611ACB83925E748178A176190AF2" x="0" y="0" fill="#e6edf3" fill-rule="nonzero"/></g><g transform="matrix(1 0 0 -1 97.747 21.359)"><use xlink:href="#g21E6026C55295689503B3E9C99FAF46D" x="0" y="0" fill="#e6edf3" fill-rule="nonzero"/></g><g transform="matrix(1 0 0 -1 104.247 21.359)"><use xlink:href="#g5E5ADA2C73E46597BBC8CACBE2FE0354" x="0" y="0" fill="#e6edf3" fill-rule="nonzero"/></g><g transform="matrix(1 0 0 -1 110.916 21.359)"><use xlink:href="#gD5105E1CC4CD5829824BEAD95693D8C5" x="0" y="0" fill="#e6edf3" fill-rule="nonzero"/></g><g transform="matrix(1 0 0 -1 117.416 21.359)"><use xlink:href="#gA77B0991214ABBF76F5E46CD090076D8" x="0" y="0" fill="#e6edf3" fill-rule="nonzero"/></g><g transform="matrix(1 0 0 -1 121.03 21.359)"><use xlink:href="#g6B3DB0E0ADE6D994825CC39624067234" x="0" y="0" fill="#e6edf3" fill-rule="nonzero"/></g><g transform="matrix(1 0 0 -1 127.53 21.359)"><use xlink:href="#gBA62791EE2AC6A9C151740043DEFED9" x="0" y="0" fill="#e6edf3" fill-rule="nonzero"/></g><g transform="matrix(1 0 0 -1 160.03 21.359)"><use xlink:href="#g2D1FD5FA7721AD843D67732819992226" x="0" y="0" fill="#e6edf3" fill-rule="nonzero"/></g><g transform="matrix(1 0 0 -1 169.546 21.359)"><use xlink:href="#gCA149633E7D67E58F5B4D4B500D841BD" x="0" y="0" fill="#e6edf3" fill-rule="nonzero"/></g><g transform="matrix(1 0 0 -1 173.238 21.359)"><use xlink:href="#g1FFCE013A160BA7820B9A46965822AE" x="0" y="0" fill="#e6edf3" fill-rule="nonzero"/><use xlink:href="#g4A04171CE0804ADA014A819C31CCCF4B" x="4.875" y="0" fill="#e6edf3" fill-rule="nonzero"/></g><g transform="matrix(1 0 0 -1 186.602 21.359)"><use xlink:href="#g40BCF21C5F299F0459A9B25B2740A57D" x="0" y="0" fill="#e6edf3" fill-rule="nonzero"/></g><g transform="matrix(1 0 0 -1 193.827111111 21.359)"><use xlink:href="#g13AFF74D87C474CFAF661EEAD0458F8B" x="0" y="0" fill="#e6edf3" fill-rule="nonzero"/></g><g transform="matrix(1 0 0 -1 208.852222222 12.558)"><use xlink:href="#gFB33CD7D64FCBCF32270D7BC31DE19B" x="0" y="0" fill="#e6edf3" fill-rule="nonzero"/></g><g transform="matrix(1 0 0 -1 208.852222222 30.277)"><use xlink:href="#gBA62791EE2AC6A9C151740043DEFED9" x="0" y="0" fill="#e6edf3" fill-rule="nonzero"/></g><path fill="none" stroke="#e6edf3" stroke-width="0.624" stroke-linecap="butt" stroke-linejoin="miter" stroke-miterlimit="4" transform="translate(208.852222222 18.109)" d="M 0 0h 6.5"/><g transform="matrix(1 0 0 -1 216.652222222 21.359)"><use xlink:href="#g2D1FD5FA7721AD843D67732819992226" x="0" y="0" fill="#e6edf3" fill-rule="nonzero"/></g><g transform="matrix(1 0 0 -1 226.168222222 21.359)"><use xlink:href="#gCA149633E7D67E58F5B4D4B500D841BD" x="0" y="0" fill="#e6edf3" fill-rule="nonzero"/></g><g transform="matrix(1 0 0 -1 229.860222222 21.359)"><use xlink:href="#g1FFCE013A160BA7820B9A46965822AE" x="0" y="0" fill="#e6edf3" fill-rule="nonzero"/><use xlink:href="#g648A68795CD36B942D5167A69DEC87EA" x="4.875" y="0" fill="#e6edf3" fill-rule="nonzero"/></g><g transform="matrix(1 0 0 -1 244.121222222 21.359)"><use xlink:href="#g40BCF21C5F299F0459A9B25B2740A57D" x="0" y="0" fill="#e6edf3" fill-rule="nonzero"/></g><g transform="matrix(1 0 0 -1 250.624111111 21.359)"><use xlink:href="#gEDF6611ACB83925E748178A176190AF2" x="0" y="0" fill="#e6edf3" fill-rule="nonzero"/></g><g transform="matrix(1 0 0 -1 263.627 21.359)"><use xlink:href="#gD5105E1CC4CD5829824BEAD95693D8C5" x="0" y="0" fill="#e6edf3" fill-rule="nonzero"/></g><g transform="matrix(1 0 0 -1 270.127 21.359)"><use xlink:href="#g21E6026C55295689503B3E9C99FAF46D" x="0" y="0" fill="#e6edf3" fill-rule="nonzero"/></g><defs><symbol id="g2D1FD5FA7721AD843D67732819992226" overflow="visible"><path d="M 0 0m 4.472 8.203c 0 -0.039 -0.013 -0.13 -0.052 -0.26l -1.716 -6.864c -0.052 -0.195 -0.104 -0.312 -0.143 -0.364c -0.117 -0.143 -0.559 -0.208 -1.339 -0.208c -0.403 0 -0.585 0.039 -0.585 -0.299c 0 -0.143 0.091 -0.208 0.26 -0.208c 0.663 0 1.599 0.052 2.158 0.039l 1.066 -0.013c 0.182 0 0.897 -0.026 1.118 -0.026c 0.221 0 0.325 0.104 0.325 0.312c 0 0.13 -0.156 0.195 -0.481 0.195c -0.676 0 -1.066 0.026 -1.183 0.091c -0.039 0.026 -0.065 0.078 -0.065 0.156l 1.755 7.085c 0.039 0.182 0.078 0.299 0.117 0.338c 0.052 0.078 0.364 0.117 0.936 0.117c 0.715 0 1.209 -0.052 1.456 -0.169c 0.247 -0.117 0.377 -0.39 0.377 -0.832c 0 -0.234 -0.039 -0.572 -0.104 -1.014c -0.026 -0.104 -0.039 -0.182 -0.039 -0.247c 0 -0.143 0.065 -0.221 0.208 -0.221c 0.117 0 0.195 0.117 0.234 0.338l 0.351 2.236c 0.013 0.065 0.026 0.143 0.026 0.221c 0 0.13 -0.13 0.195 -0.403 0.195h -7.124c -0.338 0 -0.364 -0.039 -0.468 -0.286l -0.767 -2.262c -0.039 -0.117 -0.065 -0.195 -0.078 -0.247c 0 -0.13 0.065 -0.195 0.208 -0.195c 0.104 0 0.195 0.104 0.26 0.299c 0.325 0.949 0.65 1.534 0.949 1.781c 0.338 0.273 0.988 0.403 1.937 0.403h 0.507c 0.143 0 0.299 0.013 0.299 -0.091Z "/></symbol><symbol id="gCA149633E7D67E58F5B4D4B500D841BD" overflow="visible"><path d="M 0 0m 3.029 -2.626h -0.962v 11.752h 0.962c 0.195 0 0.299 0.104 0.299 0.312c 0 0.208 -0.104 0.312 -0.299 0.312h -1.547v -13h 1.547c 0.195 0 0.299 0.104 0.299 0.312c 0 0.156 -0.143 0.312 -0.299 0.312Z "/></symbol><symbol id="g1B253A8B2C8CAA470BC632D690DCBE28" overflow="visible"><path d="M 0 0m 7.15 8.008c 0 -0.117 -0.065 -0.247 -0.208 -0.39l -3.939 -3.757v 3.965c 0 0.234 0.052 0.377 0.143 0.442c 0.091 0.065 0.364 0.104 0.819 0.104h 0.364v 0.507c -0.338 -0.026 -0.988 -0.039 -1.95 -0.039c -0.962 0 -1.612 0.013 -1.95 0.039v -0.507h 0.364c 0.455 0 0.728 -0.039 0.819 -0.104c 0.091 -0.065 0.143 -0.208 0.143 -0.442v -6.773c 0 -0.234 -0.052 -0.39 -0.143 -0.455c -0.091 -0.065 -0.364 -0.091 -0.819 -0.091h -0.364v -0.507c 0.338 0.026 0.988 0.039 1.937 0.039c 0.975 0 1.625 -0.013 1.963 -0.039v 0.507h -0.364c -0.455 0 -0.728 0.026 -0.819 0.091c -0.091 0.065 -0.143 0.221 -0.143 0.455v 2.223l 1.43 1.365l 2.288 -3.393c 0.117 -0.182 0.182 -0.325 0.182 -0.416c 0 -0.221 -0.247 -0.325 -0.754 -0.325v -0.507c 0.559 0.039 1.183 0.052 1.885 0.039l 1.534 -0.039v 0.507c -0.845 0 -1.001 0.078 -1.365 0.585l -2.938 4.342l 2.288 2.184c 0.507 0.507 1.118 0.754 1.833 0.754v 0.507c -0.26 -0.026 -0.637 -0.039 -1.144 -0.039c -0.793 0 -1.352 0.013 -1.677 0.039v -0.507c 0.312 0 0.585 -0.104 0.585 -0.364Z "/></symbol><symbol id="g40BCF21C5F299F0459A9B25B2740A57D" overflow="visible"><path d="M 0 0m 0.585 -3.25h 1.547v 13h -1.547c -0.195 0 -0.299 -0.104 -0.299 -0.312c 0 -0.208 0.104 -0.312 0.299 -0.312h 0.962v -11.752h -0.962c -0.195 0 -0.299 -0.104 -0.299 -0.312c 0 -0.208 0.104 -0.312 0.299 -0.312Z "/></symbol><symbol id="g13AFF74D87C474CFAF661EEAD0458F8B" overflow="visible"><path d="M 0 0m 9.074 4.771h -8.034c -0.208 0 -0.312 -0.104 -0.312 -0.299c 0 -0.195 0.104 -0.299 0.312 -0.299h 8.034c 0.208 0 0.312 0.104 0.312 0.299c 0 0.156 -0.143 0.299 -0.312 0.299Z m 0 -2.444h -8.034c -0.208 0 -0.312 -0.104 -0.312 -0.299c 0 -0.195 0.104 -0.299 0.312 -0.299h 8.034c 0.208 0 0.312 0.104 0.312 0.299c 0 0.169 -0.143 0.299 -0.312 0.299Z "/></symbol><symbol id="g1FFCE013A160BA7820B9A46965822AE" overflow="visible"><path d="M 0 0m 4.238 7.072c 0 1.001 -0.793 1.807 -1.794 1.807c -1.001 0 -1.807 -0.806 -1.807 -1.807c 0 -1.001 0.806 -1.794 1.807 -1.794c 0.975 0 1.794 0.819 1.794 1.794Z m -0.611 0c 0 -0.65 -0.533 -1.183 -1.183 -1.183c -0.663 0 -1.196 0.52 -1.196 1.183c 0 0.676 0.52 1.196 1.196 1.196c 0.663 0 1.183 -0.533 1.183 -1.196Z "/></symbol><symbol id="g648A68795CD36B942D5167A69DEC87EA" overflow="visible"><path d="M 0 0m 8.645 5.759v 3.042c 0 0.247 -0.065 0.364 -0.195 0.364c -0.091 0 -0.169 -0.065 -0.247 -0.182l -0.611 -0.897c -0.39 0.403 -0.806 0.689 -1.261 0.871c -0.338 0.143 -0.702 0.208 -1.092 0.208c -1.261 0 -2.34 -0.455 -3.211 -1.391c -0.871 -0.936 -1.3 -2.041 -1.3 -3.328c 0 -1.287 0.429 -2.392 1.287 -3.315c 0.871 -0.949 1.95 -1.417 3.224 -1.417c 0.923 0 1.729 0.325 2.405 0.975c 0.676 0.65 1.001 1.43 1.001 2.353c 0 0.182 -0.078 0.273 -0.221 0.273c -0.13 0 -0.195 -0.052 -0.195 -0.169c 0 -0.013 0 -0.039 -0.013 -0.078c -0.078 -1.56 -1.196 -2.847 -2.821 -2.847c -0.481 0 -0.962 0.13 -1.469 0.39c -1.196 0.65 -1.768 1.898 -1.768 3.822c 0 1.82 0.637 3.224 1.768 3.835c 0.507 0.26 0.988 0.39 1.456 0.39c 1.612 0 2.535 -1.469 2.756 -3.003c 0.013 -0.169 0.104 -0.26 0.247 -0.26c 0.26 0 0.26 0.104 0.26 0.364Z "/></symbol><symbol id="gEDF6611ACB83925E748178A176190AF2" overflow="visible"><path d="M 0 0m 9.074 3.562h -3.705v 3.705c 0 0.208 -0.104 0.312 -0.312 0.312c -0.208 0 -0.312 -0.104 -0.312 -0.312v -3.705h -3.705c -0.208 0 -0.312 -0.104 -0.312 -0.312c 0 -0.208 0.104 -0.312 0.312 -0.312h 3.705v -3.705c 0 -0.208 0.104 -0.312 0.312 -0.312c 0.208 0 0.312 0.104 0.312 0.312v 3.705h 3.705c 0.208 0 0.312 0.104 0.312 0.312c 0 0.169 -0.143 0.312 -0.312 0.312Z "/></symbol><symbol id="g21E6026C55295689503B3E9C99FAF46D" overflow="visible"><path d="M 0 0m 3.081 8.658c -0.663 0 -1.222 -0.234 -1.703 -0.702c -0.481 -0.468 -0.728 -1.014 -0.728 -1.677c 0 -0.442 0.325 -0.767 0.728 -0.767c 0.39 0 0.715 0.338 0.715 0.728c 0 0.429 -0.312 0.728 -0.728 0.728c -0.039 0 -0.065 0 -0.091 -0.013c 0.247 0.637 0.819 1.196 1.638 1.196c 1.066 0 1.664 -0.923 1.664 -2.041c 0 -0.871 -0.442 -1.807 -1.326 -2.795l -2.444 -2.756c -0.169 -0.195 -0.156 -0.182 -0.156 -0.559h 4.823l 0.377 2.34h -0.429c -0.104 -0.663 -0.195 -1.04 -0.273 -1.157c -0.065 -0.065 -0.455 -0.091 -1.17 -0.091h -2.171l 1.261 1.235c 0.884 0.832 2.002 1.729 2.379 2.418c 0.26 0.455 0.39 0.91 0.39 1.365c 0 1.534 -1.196 2.548 -2.756 2.548Z "/></symbol><symbol id="g5E5ADA2C73E46597BBC8CACBE2FE0354" overflow="visible"><path d="M 0 0m 6.175 7.852c 0.091 0.117 0.13 0.286 0.13 0.52h -3.146c -0.897 0 -1.404 0.052 -1.495 0.169c -0.039 0.039 -0.078 0.13 -0.104 0.247h -0.403l -0.442 -2.756h 0.429c 0.13 0.728 0.234 1.118 0.312 1.183c 0.039 0.039 0.442 0.065 1.209 0.065h 2.548l -1.378 -1.95c -1.053 -1.495 -1.573 -3.107 -1.573 -4.862c 0 -0.507 0.208 -0.754 0.637 -0.754c 0.429 0 0.637 0.247 0.637 0.754v 0.663c 0 1.976 0.312 3.406 0.923 4.277Z "/></symbol><symbol id="gD5105E1CC4CD5829824BEAD95693D8C5" overflow="visible"><path d="M 0 0m 3.939 4.589c 0.858 0.325 1.664 1.144 1.664 2.249c 0 0.559 -0.273 1.014 -0.806 1.365c -0.468 0.299 -1.001 0.455 -1.599 0.455c -0.585 0 -1.092 -0.156 -1.547 -0.455c -0.507 -0.338 -0.767 -0.78 -0.767 -1.339c 0 -0.429 0.286 -0.728 0.702 -0.728c 0.416 0 0.702 0.299 0.702 0.715c 0 0.429 -0.247 0.663 -0.741 0.689c 0.338 0.455 0.871 0.689 1.599 0.689c 0.78 0 1.17 -0.455 1.17 -1.378c 0 -0.546 -0.104 -1.001 -0.299 -1.378c -0.351 -0.624 -0.832 -0.741 -1.638 -0.741c -0.156 -0.026 -0.234 -0.091 -0.234 -0.208c 0 -0.195 0.091 -0.195 0.351 -0.195h 0.559c 0.975 0 1.469 -0.689 1.469 -2.08c 0 -1.105 -0.403 -2.067 -1.391 -2.067c -0.845 0 -1.469 0.286 -1.846 0.858c 0.455 -0.013 0.793 0.325 0.793 0.767c 0 0.442 -0.325 0.767 -0.767 0.767c -0.507 0 -0.767 -0.26 -0.767 -0.793c 0 -0.637 0.286 -1.144 0.858 -1.547c 0.507 -0.351 1.105 -0.52 1.768 -0.52c 0.741 0 1.378 0.247 1.937 0.728c 0.559 0.481 0.832 1.079 0.832 1.807c 0 1.222 -0.962 2.067 -2.002 2.34Z "/></symbol><symbol id="gA77B0991214ABBF76F5E46CD090076D8" overflow="visible"><path d="M 0 0m 2.496 0.689c 0 0.377 -0.312 0.689 -0.689 0.689c -0.377 0 -0.689 -0.312 -0.689 -0.689c 0 -0.377 0.312 -0.689 0.689 -0.689c 0.377 0 0.689 0.312 0.689 0.689Z "/></symbol><symbol id="g6B3DB0E0ADE6D994825CC39624067234" overflow="visible"><path d="M 0 0m 3.497 8.658c -0.533 -0.546 -1.313 -0.819 -2.34 -0.819v -0.507c 0.676 0 1.235 0.104 1.664 0.312v -6.578c 0 -0.234 -0.052 -0.39 -0.169 -0.455c -0.117 -0.065 -0.442 -0.104 -0.962 -0.104h -0.455v -0.507c 0.325 0.026 1.027 0.039 2.106 0.039c 1.079 0 1.781 -0.013 2.106 -0.039v 0.507h -0.455c -0.533 0 -0.858 0.039 -0.962 0.104c -0.104 0.065 -0.169 0.221 -0.169 0.455v 7.202c 0 0.312 -0.026 0.39 -0.364 0.39Z "/></symbol><symbol id="gBA62791EE2AC6A9C151740043DEFED9" overflow="visible"><path d="M 0 0m 1.534 4.095c 0.065 0 0.143 0.052 0.208 0.143c 0.39 0.585 0.923 0.871 1.599 0.871c 0.455 0 0.806 -0.26 1.04 -0.793c 0.143 -0.351 0.221 -0.884 0.221 -1.599c 0 -0.819 -0.104 -1.391 -0.299 -1.729c -0.325 -0.533 -0.767 -0.806 -1.326 -0.806c -0.871 0 -1.56 0.624 -1.794 1.3c 0.039 -0.013 0.065 0 0.117 0c 0.39 0 0.715 0.299 0.715 0.689c 0 0.403 -0.325 0.676 -0.715 0.676c -0.455 0 -0.65 -0.247 -0.65 -0.728c 0 -1.3 1.053 -2.405 2.353 -2.405c 0.793 0 1.469 0.286 2.015 0.858c 0.546 0.572 0.819 1.261 0.819 2.054c 0 0.754 -0.221 1.404 -0.663 1.963c -0.481 0.611 -1.079 0.91 -1.807 0.91c -0.611 0 -1.144 -0.195 -1.573 -0.585v 2.314c 0.351 -0.104 0.689 -0.156 1.04 -0.156c 0.598 0 1.118 0.143 1.56 0.442c 0.403 0.247 0.676 0.494 0.832 0.728c 0.078 0.104 0.117 0.182 0.117 0.221c 0 0.13 -0.065 0.195 -0.195 0.195c -0.715 -0.273 -1.326 -0.416 -1.82 -0.416c -0.585 0 -1.144 0.117 -1.677 0.364c -0.065 0.026 -0.117 0.039 -0.169 0.039c -0.117 0 -0.182 -0.117 -0.182 -0.364v -3.796c 0 -0.273 0 -0.39 0.234 -0.39Z "/></symbol><symbol id="g4A04171CE0804ADA014A819C31CCCF4B" overflow="visible"><path d="M 0 0m 3.575 8.333h 1.534c 0.923 0 1.521 -0.195 1.82 -0.572c 0.416 -0.507 0.468 -0.988 0.585 -1.911h 0.429l -0.377 2.99h -7.137v -0.507h 0.364c 0.455 0 0.728 -0.026 0.819 -0.091c 0.091 -0.065 0.143 -0.221 0.143 -0.455v -6.734c 0 -0.234 -0.052 -0.39 -0.143 -0.455c -0.091 -0.065 -0.364 -0.091 -0.819 -0.091h -0.364v -0.507c 0.338 0.026 1.001 0.039 2.002 0.039c 1.131 0 1.859 -0.013 2.21 -0.039v 0.507h -0.481c -0.689 0 -1.066 0.065 -1.131 0.208c -0.026 0.065 -0.039 0.182 -0.039 0.351v 3.107h 1.053c 0.559 0 0.923 -0.104 1.079 -0.299c 0.156 -0.195 0.234 -0.585 0.234 -1.196h 0.416v 3.497h -0.416c 0 -0.598 -0.078 -1.001 -0.234 -1.196c -0.156 -0.195 -0.52 -0.299 -1.079 -0.299h -1.053v 3.198c 0 0.468 0.078 0.455 0.585 0.455Z "/></symbol><symbol id="gFB33CD7D64FCBCF32270D7BC31DE19B" overflow="visible"><path d="M 0 0m 1.508 1.82c -0.429 0 -0.637 -0.221 -0.637 -0.663c 0 -0.975 0.793 -1.443 1.82 -1.443c 1.04 0 1.872 0.52 2.483 1.573c 0.507 0.871 0.767 1.872 0.767 2.99c 0 1.651 -0.299 2.821 -0.897 3.51c -0.507 0.585 -1.092 0.871 -1.755 0.871c -0.767 0 -1.404 -0.273 -1.911 -0.832c -0.559 -0.585 -0.832 -1.287 -0.832 -2.106c 0 -0.793 0.234 -1.469 0.702 -2.028c 0.494 -0.598 1.131 -0.897 1.898 -0.897c 0.676 0 1.196 0.364 1.547 1.092v -0.169c 0 -1.417 -0.247 -2.379 -0.754 -2.899c -0.403 -0.429 -0.832 -0.637 -1.261 -0.637c -0.52 0 -0.897 0.117 -1.144 0.364c 0.403 0 0.611 0.234 0.611 0.637c 0 0.364 -0.273 0.637 -0.637 0.637Z m 1.651 1.378c -0.507 0 -0.884 0.26 -1.144 0.78c -0.143 0.299 -0.221 0.884 -0.221 1.729c 0 0.845 0.091 1.417 0.26 1.742c 0.286 0.52 0.702 0.78 1.235 0.78c 0.533 0 0.923 -0.325 1.17 -0.975c 0.143 -0.351 0.234 -0.949 0.234 -1.794c 0 -1.131 -0.507 -2.262 -1.534 -2.262Z "/></symbol></defs></svg>