<svg viewBox="0 0 75.801122222 21.8114" width="75.801122222pt" height="21.8114pt" xmlns="http://www.w3.org/2000/svg" xmlns:xlink="http://www.w3.org/1999/xlink" xmlns:h5="http://www.w3.org/1999/xhtml"><g transform="matrix(1 0 0 -1 6.5 14.6614)"><use xlink:href="#g2F389E882241F7D883BD9BE49B9B556F" x="0" y="0" fill="#e6edf3" fill-rule="nonzero"/></g><g transform="matrix(1 0 0 -1 11.557 14.6614)"><use xlink:href="#gA6F2C1D597D3EC5A6DEDB5B511CF0779" x="0" y="0" fill="#e6edf3" fill-rule="nonzero"/></g><g transform="matrix(1 0 0 -1 18.993 9.9424)"><use xlink:href="#g8A6A9074F91D642F82CC8BE39AC39D3A" x="0" y="0" fill="#e6edf3" fill-rule="nonzero"/></g><g transform="matrix(1 0 0 -1 24.8989 14.6614)"><use xlink:href="#g77D2A3BE49641BC9FE86B31DAB4932B4" x="0" y="0" fill="#e6edf3" fill-rule="nonzero"/></g><g transform="matrix(1 0 0 -1 33.567011111 14.6614)"><use xlink:href="#g13AFF74D87C474CFAF661EEAD0458F8B" x="0" y="0" fill="#e6edf3" fill-rule="nonzero"/></g><g transform="matrix(1 0 0 -1 47.292122222 14.6614)"><use xlink:href="#g21E6026C55295689503B3E9C99FAF46D" x="0" y="0" fill="#e6edf3" fill-rule="nonzero"/></g><g transform="matrix(1 0 0 -1 53.792122222 14.6614)"><use xlink:href="#g128852017A850F117D8E27A3E9D1C126" x="0" y="0" fill="#e6edf3" fill-rule="nonzero"/></g><g transform="matrix(1 0 0 -1 64.608122222 14.6614)"><use xlink:href="#g3780884EF0B1863BCCC7385193F65A25" x="0" y="0" fill="#e6edf3" fill-rule="nonzero"/></g><defs><symbol id="g2F389E882241F7D883BD9BE49B9B556F" overflow="visible"><path d="M 0 0m 4.069 -3.25c 0.195 0 0.299 0.104 0.299 0.312c 0 0.039 0 0.078 -0.013 0.104l -2.301 6.084l 2.301 6.071c 0.013 0.026 0.013 0.065 0.013 0.117c 0 0.208 -0.104 0.312 -0.299 0.312c -0.143 0 -0.234 -0.065 -0.286 -0.195l -2.34 -6.188c -0.013 -0.026 -0.013 -0.065 -0.013 -0.117c 0 -0.039 0 -0.078 0.013 -0.104l 2.34 -6.201c 0.052 -0.13 0.143 -0.195 0.286 -0.195Z "/></symbol><symbol id="gA6F2C1D597D3EC5A6DEDB5B511CF0779" overflow="visible"><path d="M 0 0m 6.851 4.849c 0 0.598 -0.585 0.897 -1.235 0.897c -0.559 0 -1.001 -0.299 -1.339 -0.897c -0.273 0.598 -0.728 0.897 -1.391 0.897c -0.637 0 -1.157 -0.299 -1.573 -0.884c -0.351 -0.507 -0.533 -0.884 -0.533 -1.131c 0 -0.117 0.065 -0.182 0.195 -0.182c 0.117 0 0.195 0.065 0.221 0.182c 0.247 0.754 0.793 1.638 1.664 1.638c 0.429 0 0.637 -0.273 0.637 -0.806c 0 -0.273 -0.234 -1.287 -0.689 -3.029c -0.221 -0.871 -0.611 -1.3 -1.17 -1.3c -0.182 0 -0.351 0.039 -0.494 0.104c 0.338 0.13 0.507 0.364 0.507 0.702c 0 0.338 -0.169 0.507 -0.52 0.507c -0.429 0 -0.754 -0.364 -0.754 -0.793c 0 -0.598 0.611 -0.897 1.248 -0.897c 0.546 0 0.988 0.299 1.339 0.897c 0.247 -0.598 0.715 -0.897 1.391 -0.897c 0.624 0 1.144 0.299 1.56 0.884c 0.351 0.507 0.533 0.884 0.533 1.131c 0 0.117 -0.065 0.182 -0.195 0.182c -0.117 0 -0.182 -0.065 -0.221 -0.182c -0.221 -0.741 -0.806 -1.638 -1.651 -1.638c -0.429 0 -0.65 0.26 -0.65 0.793c 0 0.169 0.065 0.533 0.208 1.118l 0.442 1.755c 0.247 0.975 0.65 1.469 1.222 1.469c 0.182 0 0.351 -0.039 0.494 -0.104c -0.351 -0.117 -0.52 -0.351 -0.52 -0.702c 0 -0.338 0.182 -0.507 0.533 -0.507c 0.416 0 0.741 0.377 0.741 0.793Z "/></symbol><symbol id="g8A6A9074F91D642F82CC8BE39AC39D3A" overflow="visible"><path d="M 0 0m 1.0829 3.8584c 0.2912 0 0.5096 0.2184 0.5096 0.5096c 0 0.3276 -0.1729 0.5005 -0.5096 0.5096c 0.2002 0.4277 0.6552 0.7735 1.2467 0.7735c 0.8008 0 1.3286 -0.6006 1.3286 -1.4014c 0 -0.4368 -0.1547 -0.8554 -0.4732 -1.2649c -0.1547 -0.2093 -0.273 -0.3549 -0.3549 -0.4368l -2.1567 -2.1385c -0.1183 -0.1092 -0.1001 -0.1365 -0.1001 -0.4095h 3.7492l 0.2821 1.7108h -0.3822c -0.0637 -0.4823 -0.1365 -0.7644 -0.2184 -0.8281c -0.0455 -0.0273 -0.3276 -0.0455 -0.8645 -0.0455h -1.547c 0.6097 0.5369 1.1739 1.0192 1.7108 1.4469c 0.4095 0.3185 0.7007 0.6006 0.8827 0.8463c 0.273 0.3549 0.4095 0.728 0.4095 1.1193c 0 0.5642 -0.2184 1.0101 -0.6643 1.3377c -0.3913 0.3003 -0.8827 0.455 -1.4651 0.455c -0.5005 0 -0.9282 -0.1456 -1.3013 -0.4368c -0.3913 -0.3185 -0.5915 -0.7189 -0.5915 -1.2103c 0 -0.3094 0.2275 -0.5369 0.5096 -0.5369Z "/></symbol><symbol id="g77D2A3BE49641BC9FE86B31DAB4932B4" overflow="visible"><path d="M 0 0m 3.614 3.146c 0.013 0.026 0.013 0.065 0.013 0.104c 0 0.039 0 0.078 -0.013 0.104l -2.34 6.201c -0.052 0.13 -0.143 0.195 -0.286 0.195c -0.195 0 -0.299 -0.104 -0.299 -0.312c 0 -0.039 0 -0.078 0.013 -0.104l 2.301 -6.084l -2.301 -6.071c -0.013 -0.026 -0.013 -0.065 -0.013 -0.117c 0 -0.208 0.104 -0.312 0.299 -0.312c 0.143 0 0.234 0.065 0.286 0.195Z "/></symbol><symbol id="g13AFF74D87C474CFAF661EEAD0458F8B" overflow="visible"><path d="M 0 0m 9.074 4.771h -8.034c -0.208 0 -0.312 -0.104 -0.312 -0.299c 0 -0.195 0.104 -0.299 0.312 -0.299h 8.034c 0.208 0 0.312 0.104 0.312 0.299c 0 0.156 -0.143 0.299 -0.312 0.299Z m 0 -2.444h -8.034c -0.208 0 -0.312 -0.104 -0.312 -0.299c 0 -0.195 0.104 -0.299 0.312 -0.299h 8.034c 0.208 0 0.312 0.104 0.312 0.299c 0 0.169 -0.143 0.299 -0.312 0.299Z "/></symbol><symbol id="g21E6026C55295689503B3E9C99FAF46D" overflow="visible"><path d="M 0 0m 3.081 8.658c -0.663 0 -1.222 -0.234 -1.703 -0.702c -0.481 -0.468 -0.728 -1.014 -0.728 -1.677c 0 -0.442 0.325 -0.767 0.728 -0.767c 0.39 0 0.715 0.338 0.715 0.728c 0 0.429 -0.312 0.728 -0.728 0.728c -0.039 0 -0.065 0 -0.091 -0.013c 0.247 0.637 0.819 1.196 1.638 1.196c 1.066 0 1.664 -0.923 1.664 -2.041c 0 -0.871 -0.442 -1.807 -1.326 -2.795l -2.444 -2.756c -0.169 -0.195 -0.156 -0.182 -0.156 -0.559h 4.823l 0.377 2.34h -0.429c -0.104 -0.663 -0.195 -1.04 -0.273 -1.157c -0.065 -0.065 -0.455 -0.091 -1.17 -0.091h -2.171l 1.261 1.235c 0.884 0.832 2.002 1.729 2.379 2.418c 0.26 0.455 0.39 0.91 0.39 1.365c 0 1.534 -1.196 2.548 -2.756 2.548Z "/></symbol><symbol id="g128852017A850F117D8E27A3E9D1C126" overflow="visible"><path d="M 0 0m 7.371 8.879h -4.316c -0.299 0 -0.442 -0.013 -0.442 -0.299c 0 -0.143 0.143 -0.208 0.429 -0.208c 0.26 0 0.78 0.039 0.78 -0.169c 0 -0.026 -0.013 -0.104 -0.052 -0.234l -1.716 -6.903c -0.065 -0.286 -0.195 -0.455 -0.39 -0.52c -0.091 -0.026 -0.325 -0.039 -0.728 -0.039c -0.286 0 -0.416 -0.026 -0.416 -0.299c 0 -0.143 0.143 -0.208 0.416 -0.208h 4.251c 0.884 0 1.729 0.26 2.548 0.793c 1.391 0.897 2.717 2.652 2.717 4.784c 0 1.924 -1.183 3.302 -3.081 3.302Z m 1.859 -2.821c 0 -1.469 -0.663 -3.25 -1.339 -4.121c -0.741 -0.949 -1.716 -1.43 -2.938 -1.43h -1.443c -0.143 0 -0.234 0 -0.286 0.013c -0.078 0 -0.117 0.026 -0.117 0.065c 0 0.026 0.026 0.117 0.065 0.286l 1.755 7.059c 0.117 0.429 0.104 0.442 0.65 0.442h 1.378c 1.456 0 2.275 -0.858 2.275 -2.314Z "/></symbol><symbol id="g3780884EF0B1863BCCC7385193F65A25" overflow="visible"><path d="M 0 0m 4.29 5.447c 0 0.117 -0.13 0.182 -0.403 0.182h -1.053c 0.338 1.352 0.507 2.054 0.507 2.106c 0 0.273 -0.143 0.403 -0.416 0.403c -0.299 0 -0.481 -0.169 -0.559 -0.507l -0.481 -2.002h -1.157c -0.286 0 -0.429 -0.013 -0.429 -0.286c 0 -0.143 0.13 -0.208 0.403 -0.208h 1.053c -0.637 -2.535 -0.949 -3.874 -0.949 -4.043c 0 -0.728 0.494 -1.235 1.222 -1.235c 0.494 0 0.923 0.221 1.3 0.676c 0.312 0.377 0.533 0.741 0.676 1.092c 0.052 0.143 0.078 0.221 0.078 0.26c 0 0.117 -0.065 0.182 -0.195 0.182c -0.104 0 -0.182 -0.065 -0.234 -0.208c -0.442 -1.079 -0.975 -1.612 -1.612 -1.612c -0.221 0 -0.338 0.182 -0.338 0.533c 0 0.195 0.026 0.403 0.078 0.611l 0.923 3.744h 1.157c 0.338 0 0.429 0.026 0.429 0.312Z "/></symbol></defs></svg>